M48
; DRILL file {KiCad 5.1.4} date zo 03 nov 2019 23:23:59 CET
; FORMAT={-:-/ absolute / metric / decimal}
; #@! TF.CreationDate,2019-11-03T23:23:59+01:00
; #@! TF.GenerationSoftware,Kicad,Pcbnew,5.1.4
; #@! TF.FileFunction,Plated,1,2,PTH
FMAT,2
METRIC
T1C0.300
T2C0.550
T3C0.650
T4C0.850
T5C1.000
%
G90
G05
T1
X140.97Y-69.85
X140.97Y-96.52
X140.97Y-98.425
X141.605Y-93.345
X143.51Y-107.315
X143.53Y-102.87
X144.145Y-93.345
X145.415Y-59.69
X146.05Y-59.055
X146.685Y-64.135
X147.426Y-86.163
X148.57Y-66.233
X149.225Y-80.01
X149.225Y-90.17
X149.86Y-88.9
X150.085Y-81.28
X150.495Y-87.63
X151.16Y-78.22
X151.195Y-84.517
X151.31Y-79.007
X151.76Y-83.951
X152.342Y-83.402
X152.42Y-62.96
X152.883Y-82.715
X153.416Y-83.312
X153.67Y-87.63
X153.924Y-73.152
X154.848Y-90.962
X154.94Y-73.025
X154.94Y-86.36
X154.94Y-87.63
X156.21Y-81.915
X158.115Y-89.535
X158.145Y-80.645
X159.385Y-65.405
X160.02Y-80.645
X162.56Y-67.564
X167.005Y-64.77
X167.005Y-64.77
T3
X153.67Y-59.69
X153.67Y-60.96
X154.94Y-59.69
X154.94Y-60.96
X156.21Y-59.69
X156.21Y-60.96
X157.48Y-59.69
X157.48Y-60.96
X158.75Y-59.69
X158.75Y-60.96
T5
X152.4Y-55.88
X154.94Y-55.88
X157.48Y-55.88
X160.02Y-55.88
X162.56Y-55.88
X165.1Y-55.88
X165.1Y-58.42
X165.1Y-60.96
X165.1Y-63.5
X165.1Y-66.04
X165.1Y-68.58
X165.1Y-71.12
X165.1Y-73.66
X165.1Y-76.2
X165.1Y-78.74
X165.1Y-81.28
X165.1Y-83.82
X165.1Y-86.36
X165.1Y-88.9
X165.1Y-91.44
X165.1Y-93.98
X165.1Y-96.52
X165.1Y-99.06
X165.1Y-101.6
X165.1Y-104.14
X137.16Y-55.88
X137.16Y-58.42
X137.16Y-60.96
X137.16Y-63.5
X137.16Y-66.04
X137.16Y-68.58
X137.16Y-71.12
X137.16Y-73.66
X137.16Y-76.2
X137.16Y-78.74
X137.16Y-81.28
X137.16Y-83.82
X137.16Y-86.36
X137.16Y-88.9
X137.16Y-91.44
X137.16Y-93.98
X137.16Y-96.52
X137.16Y-99.06
X137.16Y-101.6
X137.16Y-104.14
X162.56Y-60.96
X162.56Y-63.5
X139.7Y-60.96
X139.7Y-63.5
T2
G00X140.905Y-52.985
M15
G01X140.905Y-52.335
M16
G05
G00X148.655Y-52.985
M15
G01X148.655Y-52.335
M16
G05
T4
G00X141.055Y-56.735
M15
G01X141.055Y-56.185
M16
G05
G00X148.505Y-56.735
M15
G01X148.505Y-56.185
M16
G05
T0
M30
