G04 #@! TF.GenerationSoftware,KiCad,Pcbnew,5.1.4*
G04 #@! TF.CreationDate,2019-11-03T23:23:53+01:00*
G04 #@! TF.ProjectId,stm32XxxxCx_board,73746d33-3258-4787-9878-43785f626f61,rev?*
G04 #@! TF.SameCoordinates,Original*
G04 #@! TF.FileFunction,Paste,Bot*
G04 #@! TF.FilePolarity,Positive*
%FSLAX46Y46*%
G04 Gerber Fmt 4.6, Leading zero omitted, Abs format (unit mm)*
G04 Created by KiCad (PCBNEW 5.1.4) date 2019-11-03 23:23:53*
%MOMM*%
%LPD*%
G04 APERTURE LIST*
%ADD10R,2.500000X5.100000*%
%ADD11C,10.200000*%
%ADD12C,0.100000*%
%ADD13C,0.975000*%
G04 APERTURE END LIST*
D10*
X158730000Y-102870000D03*
X143530000Y-102870000D03*
D11*
X151130000Y-102870000D03*
D12*
G36*
X157082642Y-92646174D02*
G01*
X157106303Y-92649684D01*
X157129507Y-92655496D01*
X157152029Y-92663554D01*
X157173653Y-92673782D01*
X157194170Y-92686079D01*
X157213383Y-92700329D01*
X157231107Y-92716393D01*
X157247171Y-92734117D01*
X157261421Y-92753330D01*
X157273718Y-92773847D01*
X157283946Y-92795471D01*
X157292004Y-92817993D01*
X157297816Y-92841197D01*
X157301326Y-92864858D01*
X157302500Y-92888750D01*
X157302500Y-93801250D01*
X157301326Y-93825142D01*
X157297816Y-93848803D01*
X157292004Y-93872007D01*
X157283946Y-93894529D01*
X157273718Y-93916153D01*
X157261421Y-93936670D01*
X157247171Y-93955883D01*
X157231107Y-93973607D01*
X157213383Y-93989671D01*
X157194170Y-94003921D01*
X157173653Y-94016218D01*
X157152029Y-94026446D01*
X157129507Y-94034504D01*
X157106303Y-94040316D01*
X157082642Y-94043826D01*
X157058750Y-94045000D01*
X156571250Y-94045000D01*
X156547358Y-94043826D01*
X156523697Y-94040316D01*
X156500493Y-94034504D01*
X156477971Y-94026446D01*
X156456347Y-94016218D01*
X156435830Y-94003921D01*
X156416617Y-93989671D01*
X156398893Y-93973607D01*
X156382829Y-93955883D01*
X156368579Y-93936670D01*
X156356282Y-93916153D01*
X156346054Y-93894529D01*
X156337996Y-93872007D01*
X156332184Y-93848803D01*
X156328674Y-93825142D01*
X156327500Y-93801250D01*
X156327500Y-92888750D01*
X156328674Y-92864858D01*
X156332184Y-92841197D01*
X156337996Y-92817993D01*
X156346054Y-92795471D01*
X156356282Y-92773847D01*
X156368579Y-92753330D01*
X156382829Y-92734117D01*
X156398893Y-92716393D01*
X156416617Y-92700329D01*
X156435830Y-92686079D01*
X156456347Y-92673782D01*
X156477971Y-92663554D01*
X156500493Y-92655496D01*
X156523697Y-92649684D01*
X156547358Y-92646174D01*
X156571250Y-92645000D01*
X157058750Y-92645000D01*
X157082642Y-92646174D01*
X157082642Y-92646174D01*
G37*
D13*
X156815000Y-93345000D03*
D12*
G36*
X155207642Y-92646174D02*
G01*
X155231303Y-92649684D01*
X155254507Y-92655496D01*
X155277029Y-92663554D01*
X155298653Y-92673782D01*
X155319170Y-92686079D01*
X155338383Y-92700329D01*
X155356107Y-92716393D01*
X155372171Y-92734117D01*
X155386421Y-92753330D01*
X155398718Y-92773847D01*
X155408946Y-92795471D01*
X155417004Y-92817993D01*
X155422816Y-92841197D01*
X155426326Y-92864858D01*
X155427500Y-92888750D01*
X155427500Y-93801250D01*
X155426326Y-93825142D01*
X155422816Y-93848803D01*
X155417004Y-93872007D01*
X155408946Y-93894529D01*
X155398718Y-93916153D01*
X155386421Y-93936670D01*
X155372171Y-93955883D01*
X155356107Y-93973607D01*
X155338383Y-93989671D01*
X155319170Y-94003921D01*
X155298653Y-94016218D01*
X155277029Y-94026446D01*
X155254507Y-94034504D01*
X155231303Y-94040316D01*
X155207642Y-94043826D01*
X155183750Y-94045000D01*
X154696250Y-94045000D01*
X154672358Y-94043826D01*
X154648697Y-94040316D01*
X154625493Y-94034504D01*
X154602971Y-94026446D01*
X154581347Y-94016218D01*
X154560830Y-94003921D01*
X154541617Y-93989671D01*
X154523893Y-93973607D01*
X154507829Y-93955883D01*
X154493579Y-93936670D01*
X154481282Y-93916153D01*
X154471054Y-93894529D01*
X154462996Y-93872007D01*
X154457184Y-93848803D01*
X154453674Y-93825142D01*
X154452500Y-93801250D01*
X154452500Y-92888750D01*
X154453674Y-92864858D01*
X154457184Y-92841197D01*
X154462996Y-92817993D01*
X154471054Y-92795471D01*
X154481282Y-92773847D01*
X154493579Y-92753330D01*
X154507829Y-92734117D01*
X154523893Y-92716393D01*
X154541617Y-92700329D01*
X154560830Y-92686079D01*
X154581347Y-92673782D01*
X154602971Y-92663554D01*
X154625493Y-92655496D01*
X154648697Y-92649684D01*
X154672358Y-92646174D01*
X154696250Y-92645000D01*
X155183750Y-92645000D01*
X155207642Y-92646174D01*
X155207642Y-92646174D01*
G37*
D13*
X154940000Y-93345000D03*
D12*
G36*
X155207642Y-90741174D02*
G01*
X155231303Y-90744684D01*
X155254507Y-90750496D01*
X155277029Y-90758554D01*
X155298653Y-90768782D01*
X155319170Y-90781079D01*
X155338383Y-90795329D01*
X155356107Y-90811393D01*
X155372171Y-90829117D01*
X155386421Y-90848330D01*
X155398718Y-90868847D01*
X155408946Y-90890471D01*
X155417004Y-90912993D01*
X155422816Y-90936197D01*
X155426326Y-90959858D01*
X155427500Y-90983750D01*
X155427500Y-91896250D01*
X155426326Y-91920142D01*
X155422816Y-91943803D01*
X155417004Y-91967007D01*
X155408946Y-91989529D01*
X155398718Y-92011153D01*
X155386421Y-92031670D01*
X155372171Y-92050883D01*
X155356107Y-92068607D01*
X155338383Y-92084671D01*
X155319170Y-92098921D01*
X155298653Y-92111218D01*
X155277029Y-92121446D01*
X155254507Y-92129504D01*
X155231303Y-92135316D01*
X155207642Y-92138826D01*
X155183750Y-92140000D01*
X154696250Y-92140000D01*
X154672358Y-92138826D01*
X154648697Y-92135316D01*
X154625493Y-92129504D01*
X154602971Y-92121446D01*
X154581347Y-92111218D01*
X154560830Y-92098921D01*
X154541617Y-92084671D01*
X154523893Y-92068607D01*
X154507829Y-92050883D01*
X154493579Y-92031670D01*
X154481282Y-92011153D01*
X154471054Y-91989529D01*
X154462996Y-91967007D01*
X154457184Y-91943803D01*
X154453674Y-91920142D01*
X154452500Y-91896250D01*
X154452500Y-90983750D01*
X154453674Y-90959858D01*
X154457184Y-90936197D01*
X154462996Y-90912993D01*
X154471054Y-90890471D01*
X154481282Y-90868847D01*
X154493579Y-90848330D01*
X154507829Y-90829117D01*
X154523893Y-90811393D01*
X154541617Y-90795329D01*
X154560830Y-90781079D01*
X154581347Y-90768782D01*
X154602971Y-90758554D01*
X154625493Y-90750496D01*
X154648697Y-90744684D01*
X154672358Y-90741174D01*
X154696250Y-90740000D01*
X155183750Y-90740000D01*
X155207642Y-90741174D01*
X155207642Y-90741174D01*
G37*
D13*
X154940000Y-91440000D03*
D12*
G36*
X157082642Y-90741174D02*
G01*
X157106303Y-90744684D01*
X157129507Y-90750496D01*
X157152029Y-90758554D01*
X157173653Y-90768782D01*
X157194170Y-90781079D01*
X157213383Y-90795329D01*
X157231107Y-90811393D01*
X157247171Y-90829117D01*
X157261421Y-90848330D01*
X157273718Y-90868847D01*
X157283946Y-90890471D01*
X157292004Y-90912993D01*
X157297816Y-90936197D01*
X157301326Y-90959858D01*
X157302500Y-90983750D01*
X157302500Y-91896250D01*
X157301326Y-91920142D01*
X157297816Y-91943803D01*
X157292004Y-91967007D01*
X157283946Y-91989529D01*
X157273718Y-92011153D01*
X157261421Y-92031670D01*
X157247171Y-92050883D01*
X157231107Y-92068607D01*
X157213383Y-92084671D01*
X157194170Y-92098921D01*
X157173653Y-92111218D01*
X157152029Y-92121446D01*
X157129507Y-92129504D01*
X157106303Y-92135316D01*
X157082642Y-92138826D01*
X157058750Y-92140000D01*
X156571250Y-92140000D01*
X156547358Y-92138826D01*
X156523697Y-92135316D01*
X156500493Y-92129504D01*
X156477971Y-92121446D01*
X156456347Y-92111218D01*
X156435830Y-92098921D01*
X156416617Y-92084671D01*
X156398893Y-92068607D01*
X156382829Y-92050883D01*
X156368579Y-92031670D01*
X156356282Y-92011153D01*
X156346054Y-91989529D01*
X156337996Y-91967007D01*
X156332184Y-91943803D01*
X156328674Y-91920142D01*
X156327500Y-91896250D01*
X156327500Y-90983750D01*
X156328674Y-90959858D01*
X156332184Y-90936197D01*
X156337996Y-90912993D01*
X156346054Y-90890471D01*
X156356282Y-90868847D01*
X156368579Y-90848330D01*
X156382829Y-90829117D01*
X156398893Y-90811393D01*
X156416617Y-90795329D01*
X156435830Y-90781079D01*
X156456347Y-90768782D01*
X156477971Y-90758554D01*
X156500493Y-90750496D01*
X156523697Y-90744684D01*
X156547358Y-90741174D01*
X156571250Y-90740000D01*
X157058750Y-90740000D01*
X157082642Y-90741174D01*
X157082642Y-90741174D01*
G37*
D13*
X156815000Y-91440000D03*
D12*
G36*
X158382642Y-78041174D02*
G01*
X158406303Y-78044684D01*
X158429507Y-78050496D01*
X158452029Y-78058554D01*
X158473653Y-78068782D01*
X158494170Y-78081079D01*
X158513383Y-78095329D01*
X158531107Y-78111393D01*
X158547171Y-78129117D01*
X158561421Y-78148330D01*
X158573718Y-78168847D01*
X158583946Y-78190471D01*
X158592004Y-78212993D01*
X158597816Y-78236197D01*
X158601326Y-78259858D01*
X158602500Y-78283750D01*
X158602500Y-79196250D01*
X158601326Y-79220142D01*
X158597816Y-79243803D01*
X158592004Y-79267007D01*
X158583946Y-79289529D01*
X158573718Y-79311153D01*
X158561421Y-79331670D01*
X158547171Y-79350883D01*
X158531107Y-79368607D01*
X158513383Y-79384671D01*
X158494170Y-79398921D01*
X158473653Y-79411218D01*
X158452029Y-79421446D01*
X158429507Y-79429504D01*
X158406303Y-79435316D01*
X158382642Y-79438826D01*
X158358750Y-79440000D01*
X157871250Y-79440000D01*
X157847358Y-79438826D01*
X157823697Y-79435316D01*
X157800493Y-79429504D01*
X157777971Y-79421446D01*
X157756347Y-79411218D01*
X157735830Y-79398921D01*
X157716617Y-79384671D01*
X157698893Y-79368607D01*
X157682829Y-79350883D01*
X157668579Y-79331670D01*
X157656282Y-79311153D01*
X157646054Y-79289529D01*
X157637996Y-79267007D01*
X157632184Y-79243803D01*
X157628674Y-79220142D01*
X157627500Y-79196250D01*
X157627500Y-78283750D01*
X157628674Y-78259858D01*
X157632184Y-78236197D01*
X157637996Y-78212993D01*
X157646054Y-78190471D01*
X157656282Y-78168847D01*
X157668579Y-78148330D01*
X157682829Y-78129117D01*
X157698893Y-78111393D01*
X157716617Y-78095329D01*
X157735830Y-78081079D01*
X157756347Y-78068782D01*
X157777971Y-78058554D01*
X157800493Y-78050496D01*
X157823697Y-78044684D01*
X157847358Y-78041174D01*
X157871250Y-78040000D01*
X158358750Y-78040000D01*
X158382642Y-78041174D01*
X158382642Y-78041174D01*
G37*
D13*
X158115000Y-78740000D03*
D12*
G36*
X160257642Y-78041174D02*
G01*
X160281303Y-78044684D01*
X160304507Y-78050496D01*
X160327029Y-78058554D01*
X160348653Y-78068782D01*
X160369170Y-78081079D01*
X160388383Y-78095329D01*
X160406107Y-78111393D01*
X160422171Y-78129117D01*
X160436421Y-78148330D01*
X160448718Y-78168847D01*
X160458946Y-78190471D01*
X160467004Y-78212993D01*
X160472816Y-78236197D01*
X160476326Y-78259858D01*
X160477500Y-78283750D01*
X160477500Y-79196250D01*
X160476326Y-79220142D01*
X160472816Y-79243803D01*
X160467004Y-79267007D01*
X160458946Y-79289529D01*
X160448718Y-79311153D01*
X160436421Y-79331670D01*
X160422171Y-79350883D01*
X160406107Y-79368607D01*
X160388383Y-79384671D01*
X160369170Y-79398921D01*
X160348653Y-79411218D01*
X160327029Y-79421446D01*
X160304507Y-79429504D01*
X160281303Y-79435316D01*
X160257642Y-79438826D01*
X160233750Y-79440000D01*
X159746250Y-79440000D01*
X159722358Y-79438826D01*
X159698697Y-79435316D01*
X159675493Y-79429504D01*
X159652971Y-79421446D01*
X159631347Y-79411218D01*
X159610830Y-79398921D01*
X159591617Y-79384671D01*
X159573893Y-79368607D01*
X159557829Y-79350883D01*
X159543579Y-79331670D01*
X159531282Y-79311153D01*
X159521054Y-79289529D01*
X159512996Y-79267007D01*
X159507184Y-79243803D01*
X159503674Y-79220142D01*
X159502500Y-79196250D01*
X159502500Y-78283750D01*
X159503674Y-78259858D01*
X159507184Y-78236197D01*
X159512996Y-78212993D01*
X159521054Y-78190471D01*
X159531282Y-78168847D01*
X159543579Y-78148330D01*
X159557829Y-78129117D01*
X159573893Y-78111393D01*
X159591617Y-78095329D01*
X159610830Y-78081079D01*
X159631347Y-78068782D01*
X159652971Y-78058554D01*
X159675493Y-78050496D01*
X159698697Y-78044684D01*
X159722358Y-78041174D01*
X159746250Y-78040000D01*
X160233750Y-78040000D01*
X160257642Y-78041174D01*
X160257642Y-78041174D01*
G37*
D13*
X159990000Y-78740000D03*
D12*
G36*
X160287642Y-79946174D02*
G01*
X160311303Y-79949684D01*
X160334507Y-79955496D01*
X160357029Y-79963554D01*
X160378653Y-79973782D01*
X160399170Y-79986079D01*
X160418383Y-80000329D01*
X160436107Y-80016393D01*
X160452171Y-80034117D01*
X160466421Y-80053330D01*
X160478718Y-80073847D01*
X160488946Y-80095471D01*
X160497004Y-80117993D01*
X160502816Y-80141197D01*
X160506326Y-80164858D01*
X160507500Y-80188750D01*
X160507500Y-81101250D01*
X160506326Y-81125142D01*
X160502816Y-81148803D01*
X160497004Y-81172007D01*
X160488946Y-81194529D01*
X160478718Y-81216153D01*
X160466421Y-81236670D01*
X160452171Y-81255883D01*
X160436107Y-81273607D01*
X160418383Y-81289671D01*
X160399170Y-81303921D01*
X160378653Y-81316218D01*
X160357029Y-81326446D01*
X160334507Y-81334504D01*
X160311303Y-81340316D01*
X160287642Y-81343826D01*
X160263750Y-81345000D01*
X159776250Y-81345000D01*
X159752358Y-81343826D01*
X159728697Y-81340316D01*
X159705493Y-81334504D01*
X159682971Y-81326446D01*
X159661347Y-81316218D01*
X159640830Y-81303921D01*
X159621617Y-81289671D01*
X159603893Y-81273607D01*
X159587829Y-81255883D01*
X159573579Y-81236670D01*
X159561282Y-81216153D01*
X159551054Y-81194529D01*
X159542996Y-81172007D01*
X159537184Y-81148803D01*
X159533674Y-81125142D01*
X159532500Y-81101250D01*
X159532500Y-80188750D01*
X159533674Y-80164858D01*
X159537184Y-80141197D01*
X159542996Y-80117993D01*
X159551054Y-80095471D01*
X159561282Y-80073847D01*
X159573579Y-80053330D01*
X159587829Y-80034117D01*
X159603893Y-80016393D01*
X159621617Y-80000329D01*
X159640830Y-79986079D01*
X159661347Y-79973782D01*
X159682971Y-79963554D01*
X159705493Y-79955496D01*
X159728697Y-79949684D01*
X159752358Y-79946174D01*
X159776250Y-79945000D01*
X160263750Y-79945000D01*
X160287642Y-79946174D01*
X160287642Y-79946174D01*
G37*
D13*
X160020000Y-80645000D03*
D12*
G36*
X158412642Y-79946174D02*
G01*
X158436303Y-79949684D01*
X158459507Y-79955496D01*
X158482029Y-79963554D01*
X158503653Y-79973782D01*
X158524170Y-79986079D01*
X158543383Y-80000329D01*
X158561107Y-80016393D01*
X158577171Y-80034117D01*
X158591421Y-80053330D01*
X158603718Y-80073847D01*
X158613946Y-80095471D01*
X158622004Y-80117993D01*
X158627816Y-80141197D01*
X158631326Y-80164858D01*
X158632500Y-80188750D01*
X158632500Y-81101250D01*
X158631326Y-81125142D01*
X158627816Y-81148803D01*
X158622004Y-81172007D01*
X158613946Y-81194529D01*
X158603718Y-81216153D01*
X158591421Y-81236670D01*
X158577171Y-81255883D01*
X158561107Y-81273607D01*
X158543383Y-81289671D01*
X158524170Y-81303921D01*
X158503653Y-81316218D01*
X158482029Y-81326446D01*
X158459507Y-81334504D01*
X158436303Y-81340316D01*
X158412642Y-81343826D01*
X158388750Y-81345000D01*
X157901250Y-81345000D01*
X157877358Y-81343826D01*
X157853697Y-81340316D01*
X157830493Y-81334504D01*
X157807971Y-81326446D01*
X157786347Y-81316218D01*
X157765830Y-81303921D01*
X157746617Y-81289671D01*
X157728893Y-81273607D01*
X157712829Y-81255883D01*
X157698579Y-81236670D01*
X157686282Y-81216153D01*
X157676054Y-81194529D01*
X157667996Y-81172007D01*
X157662184Y-81148803D01*
X157658674Y-81125142D01*
X157657500Y-81101250D01*
X157657500Y-80188750D01*
X157658674Y-80164858D01*
X157662184Y-80141197D01*
X157667996Y-80117993D01*
X157676054Y-80095471D01*
X157686282Y-80073847D01*
X157698579Y-80053330D01*
X157712829Y-80034117D01*
X157728893Y-80016393D01*
X157746617Y-80000329D01*
X157765830Y-79986079D01*
X157786347Y-79973782D01*
X157807971Y-79963554D01*
X157830493Y-79955496D01*
X157853697Y-79949684D01*
X157877358Y-79946174D01*
X157901250Y-79945000D01*
X158388750Y-79945000D01*
X158412642Y-79946174D01*
X158412642Y-79946174D01*
G37*
D13*
X158145000Y-80645000D03*
D12*
G36*
X149492642Y-89471174D02*
G01*
X149516303Y-89474684D01*
X149539507Y-89480496D01*
X149562029Y-89488554D01*
X149583653Y-89498782D01*
X149604170Y-89511079D01*
X149623383Y-89525329D01*
X149641107Y-89541393D01*
X149657171Y-89559117D01*
X149671421Y-89578330D01*
X149683718Y-89598847D01*
X149693946Y-89620471D01*
X149702004Y-89642993D01*
X149707816Y-89666197D01*
X149711326Y-89689858D01*
X149712500Y-89713750D01*
X149712500Y-90626250D01*
X149711326Y-90650142D01*
X149707816Y-90673803D01*
X149702004Y-90697007D01*
X149693946Y-90719529D01*
X149683718Y-90741153D01*
X149671421Y-90761670D01*
X149657171Y-90780883D01*
X149641107Y-90798607D01*
X149623383Y-90814671D01*
X149604170Y-90828921D01*
X149583653Y-90841218D01*
X149562029Y-90851446D01*
X149539507Y-90859504D01*
X149516303Y-90865316D01*
X149492642Y-90868826D01*
X149468750Y-90870000D01*
X148981250Y-90870000D01*
X148957358Y-90868826D01*
X148933697Y-90865316D01*
X148910493Y-90859504D01*
X148887971Y-90851446D01*
X148866347Y-90841218D01*
X148845830Y-90828921D01*
X148826617Y-90814671D01*
X148808893Y-90798607D01*
X148792829Y-90780883D01*
X148778579Y-90761670D01*
X148766282Y-90741153D01*
X148756054Y-90719529D01*
X148747996Y-90697007D01*
X148742184Y-90673803D01*
X148738674Y-90650142D01*
X148737500Y-90626250D01*
X148737500Y-89713750D01*
X148738674Y-89689858D01*
X148742184Y-89666197D01*
X148747996Y-89642993D01*
X148756054Y-89620471D01*
X148766282Y-89598847D01*
X148778579Y-89578330D01*
X148792829Y-89559117D01*
X148808893Y-89541393D01*
X148826617Y-89525329D01*
X148845830Y-89511079D01*
X148866347Y-89498782D01*
X148887971Y-89488554D01*
X148910493Y-89480496D01*
X148933697Y-89474684D01*
X148957358Y-89471174D01*
X148981250Y-89470000D01*
X149468750Y-89470000D01*
X149492642Y-89471174D01*
X149492642Y-89471174D01*
G37*
D13*
X149225000Y-90170000D03*
D12*
G36*
X147617642Y-89471174D02*
G01*
X147641303Y-89474684D01*
X147664507Y-89480496D01*
X147687029Y-89488554D01*
X147708653Y-89498782D01*
X147729170Y-89511079D01*
X147748383Y-89525329D01*
X147766107Y-89541393D01*
X147782171Y-89559117D01*
X147796421Y-89578330D01*
X147808718Y-89598847D01*
X147818946Y-89620471D01*
X147827004Y-89642993D01*
X147832816Y-89666197D01*
X147836326Y-89689858D01*
X147837500Y-89713750D01*
X147837500Y-90626250D01*
X147836326Y-90650142D01*
X147832816Y-90673803D01*
X147827004Y-90697007D01*
X147818946Y-90719529D01*
X147808718Y-90741153D01*
X147796421Y-90761670D01*
X147782171Y-90780883D01*
X147766107Y-90798607D01*
X147748383Y-90814671D01*
X147729170Y-90828921D01*
X147708653Y-90841218D01*
X147687029Y-90851446D01*
X147664507Y-90859504D01*
X147641303Y-90865316D01*
X147617642Y-90868826D01*
X147593750Y-90870000D01*
X147106250Y-90870000D01*
X147082358Y-90868826D01*
X147058697Y-90865316D01*
X147035493Y-90859504D01*
X147012971Y-90851446D01*
X146991347Y-90841218D01*
X146970830Y-90828921D01*
X146951617Y-90814671D01*
X146933893Y-90798607D01*
X146917829Y-90780883D01*
X146903579Y-90761670D01*
X146891282Y-90741153D01*
X146881054Y-90719529D01*
X146872996Y-90697007D01*
X146867184Y-90673803D01*
X146863674Y-90650142D01*
X146862500Y-90626250D01*
X146862500Y-89713750D01*
X146863674Y-89689858D01*
X146867184Y-89666197D01*
X146872996Y-89642993D01*
X146881054Y-89620471D01*
X146891282Y-89598847D01*
X146903579Y-89578330D01*
X146917829Y-89559117D01*
X146933893Y-89541393D01*
X146951617Y-89525329D01*
X146970830Y-89511079D01*
X146991347Y-89498782D01*
X147012971Y-89488554D01*
X147035493Y-89480496D01*
X147058697Y-89474684D01*
X147082358Y-89471174D01*
X147106250Y-89470000D01*
X147593750Y-89470000D01*
X147617642Y-89471174D01*
X147617642Y-89471174D01*
G37*
D13*
X147350000Y-90170000D03*
D12*
G36*
X149492642Y-91376174D02*
G01*
X149516303Y-91379684D01*
X149539507Y-91385496D01*
X149562029Y-91393554D01*
X149583653Y-91403782D01*
X149604170Y-91416079D01*
X149623383Y-91430329D01*
X149641107Y-91446393D01*
X149657171Y-91464117D01*
X149671421Y-91483330D01*
X149683718Y-91503847D01*
X149693946Y-91525471D01*
X149702004Y-91547993D01*
X149707816Y-91571197D01*
X149711326Y-91594858D01*
X149712500Y-91618750D01*
X149712500Y-92531250D01*
X149711326Y-92555142D01*
X149707816Y-92578803D01*
X149702004Y-92602007D01*
X149693946Y-92624529D01*
X149683718Y-92646153D01*
X149671421Y-92666670D01*
X149657171Y-92685883D01*
X149641107Y-92703607D01*
X149623383Y-92719671D01*
X149604170Y-92733921D01*
X149583653Y-92746218D01*
X149562029Y-92756446D01*
X149539507Y-92764504D01*
X149516303Y-92770316D01*
X149492642Y-92773826D01*
X149468750Y-92775000D01*
X148981250Y-92775000D01*
X148957358Y-92773826D01*
X148933697Y-92770316D01*
X148910493Y-92764504D01*
X148887971Y-92756446D01*
X148866347Y-92746218D01*
X148845830Y-92733921D01*
X148826617Y-92719671D01*
X148808893Y-92703607D01*
X148792829Y-92685883D01*
X148778579Y-92666670D01*
X148766282Y-92646153D01*
X148756054Y-92624529D01*
X148747996Y-92602007D01*
X148742184Y-92578803D01*
X148738674Y-92555142D01*
X148737500Y-92531250D01*
X148737500Y-91618750D01*
X148738674Y-91594858D01*
X148742184Y-91571197D01*
X148747996Y-91547993D01*
X148756054Y-91525471D01*
X148766282Y-91503847D01*
X148778579Y-91483330D01*
X148792829Y-91464117D01*
X148808893Y-91446393D01*
X148826617Y-91430329D01*
X148845830Y-91416079D01*
X148866347Y-91403782D01*
X148887971Y-91393554D01*
X148910493Y-91385496D01*
X148933697Y-91379684D01*
X148957358Y-91376174D01*
X148981250Y-91375000D01*
X149468750Y-91375000D01*
X149492642Y-91376174D01*
X149492642Y-91376174D01*
G37*
D13*
X149225000Y-92075000D03*
D12*
G36*
X147617642Y-91376174D02*
G01*
X147641303Y-91379684D01*
X147664507Y-91385496D01*
X147687029Y-91393554D01*
X147708653Y-91403782D01*
X147729170Y-91416079D01*
X147748383Y-91430329D01*
X147766107Y-91446393D01*
X147782171Y-91464117D01*
X147796421Y-91483330D01*
X147808718Y-91503847D01*
X147818946Y-91525471D01*
X147827004Y-91547993D01*
X147832816Y-91571197D01*
X147836326Y-91594858D01*
X147837500Y-91618750D01*
X147837500Y-92531250D01*
X147836326Y-92555142D01*
X147832816Y-92578803D01*
X147827004Y-92602007D01*
X147818946Y-92624529D01*
X147808718Y-92646153D01*
X147796421Y-92666670D01*
X147782171Y-92685883D01*
X147766107Y-92703607D01*
X147748383Y-92719671D01*
X147729170Y-92733921D01*
X147708653Y-92746218D01*
X147687029Y-92756446D01*
X147664507Y-92764504D01*
X147641303Y-92770316D01*
X147617642Y-92773826D01*
X147593750Y-92775000D01*
X147106250Y-92775000D01*
X147082358Y-92773826D01*
X147058697Y-92770316D01*
X147035493Y-92764504D01*
X147012971Y-92756446D01*
X146991347Y-92746218D01*
X146970830Y-92733921D01*
X146951617Y-92719671D01*
X146933893Y-92703607D01*
X146917829Y-92685883D01*
X146903579Y-92666670D01*
X146891282Y-92646153D01*
X146881054Y-92624529D01*
X146872996Y-92602007D01*
X146867184Y-92578803D01*
X146863674Y-92555142D01*
X146862500Y-92531250D01*
X146862500Y-91618750D01*
X146863674Y-91594858D01*
X146867184Y-91571197D01*
X146872996Y-91547993D01*
X146881054Y-91525471D01*
X146891282Y-91503847D01*
X146903579Y-91483330D01*
X146917829Y-91464117D01*
X146933893Y-91446393D01*
X146951617Y-91430329D01*
X146970830Y-91416079D01*
X146991347Y-91403782D01*
X147012971Y-91393554D01*
X147035493Y-91385496D01*
X147058697Y-91379684D01*
X147082358Y-91376174D01*
X147106250Y-91375000D01*
X147593750Y-91375000D01*
X147617642Y-91376174D01*
X147617642Y-91376174D01*
G37*
D13*
X147350000Y-92075000D03*
D12*
G36*
X147587642Y-77406174D02*
G01*
X147611303Y-77409684D01*
X147634507Y-77415496D01*
X147657029Y-77423554D01*
X147678653Y-77433782D01*
X147699170Y-77446079D01*
X147718383Y-77460329D01*
X147736107Y-77476393D01*
X147752171Y-77494117D01*
X147766421Y-77513330D01*
X147778718Y-77533847D01*
X147788946Y-77555471D01*
X147797004Y-77577993D01*
X147802816Y-77601197D01*
X147806326Y-77624858D01*
X147807500Y-77648750D01*
X147807500Y-78561250D01*
X147806326Y-78585142D01*
X147802816Y-78608803D01*
X147797004Y-78632007D01*
X147788946Y-78654529D01*
X147778718Y-78676153D01*
X147766421Y-78696670D01*
X147752171Y-78715883D01*
X147736107Y-78733607D01*
X147718383Y-78749671D01*
X147699170Y-78763921D01*
X147678653Y-78776218D01*
X147657029Y-78786446D01*
X147634507Y-78794504D01*
X147611303Y-78800316D01*
X147587642Y-78803826D01*
X147563750Y-78805000D01*
X147076250Y-78805000D01*
X147052358Y-78803826D01*
X147028697Y-78800316D01*
X147005493Y-78794504D01*
X146982971Y-78786446D01*
X146961347Y-78776218D01*
X146940830Y-78763921D01*
X146921617Y-78749671D01*
X146903893Y-78733607D01*
X146887829Y-78715883D01*
X146873579Y-78696670D01*
X146861282Y-78676153D01*
X146851054Y-78654529D01*
X146842996Y-78632007D01*
X146837184Y-78608803D01*
X146833674Y-78585142D01*
X146832500Y-78561250D01*
X146832500Y-77648750D01*
X146833674Y-77624858D01*
X146837184Y-77601197D01*
X146842996Y-77577993D01*
X146851054Y-77555471D01*
X146861282Y-77533847D01*
X146873579Y-77513330D01*
X146887829Y-77494117D01*
X146903893Y-77476393D01*
X146921617Y-77460329D01*
X146940830Y-77446079D01*
X146961347Y-77433782D01*
X146982971Y-77423554D01*
X147005493Y-77415496D01*
X147028697Y-77409684D01*
X147052358Y-77406174D01*
X147076250Y-77405000D01*
X147563750Y-77405000D01*
X147587642Y-77406174D01*
X147587642Y-77406174D01*
G37*
D13*
X147320000Y-78105000D03*
D12*
G36*
X149462642Y-77406174D02*
G01*
X149486303Y-77409684D01*
X149509507Y-77415496D01*
X149532029Y-77423554D01*
X149553653Y-77433782D01*
X149574170Y-77446079D01*
X149593383Y-77460329D01*
X149611107Y-77476393D01*
X149627171Y-77494117D01*
X149641421Y-77513330D01*
X149653718Y-77533847D01*
X149663946Y-77555471D01*
X149672004Y-77577993D01*
X149677816Y-77601197D01*
X149681326Y-77624858D01*
X149682500Y-77648750D01*
X149682500Y-78561250D01*
X149681326Y-78585142D01*
X149677816Y-78608803D01*
X149672004Y-78632007D01*
X149663946Y-78654529D01*
X149653718Y-78676153D01*
X149641421Y-78696670D01*
X149627171Y-78715883D01*
X149611107Y-78733607D01*
X149593383Y-78749671D01*
X149574170Y-78763921D01*
X149553653Y-78776218D01*
X149532029Y-78786446D01*
X149509507Y-78794504D01*
X149486303Y-78800316D01*
X149462642Y-78803826D01*
X149438750Y-78805000D01*
X148951250Y-78805000D01*
X148927358Y-78803826D01*
X148903697Y-78800316D01*
X148880493Y-78794504D01*
X148857971Y-78786446D01*
X148836347Y-78776218D01*
X148815830Y-78763921D01*
X148796617Y-78749671D01*
X148778893Y-78733607D01*
X148762829Y-78715883D01*
X148748579Y-78696670D01*
X148736282Y-78676153D01*
X148726054Y-78654529D01*
X148717996Y-78632007D01*
X148712184Y-78608803D01*
X148708674Y-78585142D01*
X148707500Y-78561250D01*
X148707500Y-77648750D01*
X148708674Y-77624858D01*
X148712184Y-77601197D01*
X148717996Y-77577993D01*
X148726054Y-77555471D01*
X148736282Y-77533847D01*
X148748579Y-77513330D01*
X148762829Y-77494117D01*
X148778893Y-77476393D01*
X148796617Y-77460329D01*
X148815830Y-77446079D01*
X148836347Y-77433782D01*
X148857971Y-77423554D01*
X148880493Y-77415496D01*
X148903697Y-77409684D01*
X148927358Y-77406174D01*
X148951250Y-77405000D01*
X149438750Y-77405000D01*
X149462642Y-77406174D01*
X149462642Y-77406174D01*
G37*
D13*
X149195000Y-78105000D03*
D12*
G36*
X149492642Y-79311174D02*
G01*
X149516303Y-79314684D01*
X149539507Y-79320496D01*
X149562029Y-79328554D01*
X149583653Y-79338782D01*
X149604170Y-79351079D01*
X149623383Y-79365329D01*
X149641107Y-79381393D01*
X149657171Y-79399117D01*
X149671421Y-79418330D01*
X149683718Y-79438847D01*
X149693946Y-79460471D01*
X149702004Y-79482993D01*
X149707816Y-79506197D01*
X149711326Y-79529858D01*
X149712500Y-79553750D01*
X149712500Y-80466250D01*
X149711326Y-80490142D01*
X149707816Y-80513803D01*
X149702004Y-80537007D01*
X149693946Y-80559529D01*
X149683718Y-80581153D01*
X149671421Y-80601670D01*
X149657171Y-80620883D01*
X149641107Y-80638607D01*
X149623383Y-80654671D01*
X149604170Y-80668921D01*
X149583653Y-80681218D01*
X149562029Y-80691446D01*
X149539507Y-80699504D01*
X149516303Y-80705316D01*
X149492642Y-80708826D01*
X149468750Y-80710000D01*
X148981250Y-80710000D01*
X148957358Y-80708826D01*
X148933697Y-80705316D01*
X148910493Y-80699504D01*
X148887971Y-80691446D01*
X148866347Y-80681218D01*
X148845830Y-80668921D01*
X148826617Y-80654671D01*
X148808893Y-80638607D01*
X148792829Y-80620883D01*
X148778579Y-80601670D01*
X148766282Y-80581153D01*
X148756054Y-80559529D01*
X148747996Y-80537007D01*
X148742184Y-80513803D01*
X148738674Y-80490142D01*
X148737500Y-80466250D01*
X148737500Y-79553750D01*
X148738674Y-79529858D01*
X148742184Y-79506197D01*
X148747996Y-79482993D01*
X148756054Y-79460471D01*
X148766282Y-79438847D01*
X148778579Y-79418330D01*
X148792829Y-79399117D01*
X148808893Y-79381393D01*
X148826617Y-79365329D01*
X148845830Y-79351079D01*
X148866347Y-79338782D01*
X148887971Y-79328554D01*
X148910493Y-79320496D01*
X148933697Y-79314684D01*
X148957358Y-79311174D01*
X148981250Y-79310000D01*
X149468750Y-79310000D01*
X149492642Y-79311174D01*
X149492642Y-79311174D01*
G37*
D13*
X149225000Y-80010000D03*
D12*
G36*
X147617642Y-79311174D02*
G01*
X147641303Y-79314684D01*
X147664507Y-79320496D01*
X147687029Y-79328554D01*
X147708653Y-79338782D01*
X147729170Y-79351079D01*
X147748383Y-79365329D01*
X147766107Y-79381393D01*
X147782171Y-79399117D01*
X147796421Y-79418330D01*
X147808718Y-79438847D01*
X147818946Y-79460471D01*
X147827004Y-79482993D01*
X147832816Y-79506197D01*
X147836326Y-79529858D01*
X147837500Y-79553750D01*
X147837500Y-80466250D01*
X147836326Y-80490142D01*
X147832816Y-80513803D01*
X147827004Y-80537007D01*
X147818946Y-80559529D01*
X147808718Y-80581153D01*
X147796421Y-80601670D01*
X147782171Y-80620883D01*
X147766107Y-80638607D01*
X147748383Y-80654671D01*
X147729170Y-80668921D01*
X147708653Y-80681218D01*
X147687029Y-80691446D01*
X147664507Y-80699504D01*
X147641303Y-80705316D01*
X147617642Y-80708826D01*
X147593750Y-80710000D01*
X147106250Y-80710000D01*
X147082358Y-80708826D01*
X147058697Y-80705316D01*
X147035493Y-80699504D01*
X147012971Y-80691446D01*
X146991347Y-80681218D01*
X146970830Y-80668921D01*
X146951617Y-80654671D01*
X146933893Y-80638607D01*
X146917829Y-80620883D01*
X146903579Y-80601670D01*
X146891282Y-80581153D01*
X146881054Y-80559529D01*
X146872996Y-80537007D01*
X146867184Y-80513803D01*
X146863674Y-80490142D01*
X146862500Y-80466250D01*
X146862500Y-79553750D01*
X146863674Y-79529858D01*
X146867184Y-79506197D01*
X146872996Y-79482993D01*
X146881054Y-79460471D01*
X146891282Y-79438847D01*
X146903579Y-79418330D01*
X146917829Y-79399117D01*
X146933893Y-79381393D01*
X146951617Y-79365329D01*
X146970830Y-79351079D01*
X146991347Y-79338782D01*
X147012971Y-79328554D01*
X147035493Y-79320496D01*
X147058697Y-79314684D01*
X147082358Y-79311174D01*
X147106250Y-79310000D01*
X147593750Y-79310000D01*
X147617642Y-79311174D01*
X147617642Y-79311174D01*
G37*
D13*
X147350000Y-80010000D03*
D12*
G36*
X145634142Y-85153174D02*
G01*
X145657803Y-85156684D01*
X145681007Y-85162496D01*
X145703529Y-85170554D01*
X145725153Y-85180782D01*
X145745670Y-85193079D01*
X145764883Y-85207329D01*
X145782607Y-85223393D01*
X145798671Y-85241117D01*
X145812921Y-85260330D01*
X145825218Y-85280847D01*
X145835446Y-85302471D01*
X145843504Y-85324993D01*
X145849316Y-85348197D01*
X145852826Y-85371858D01*
X145854000Y-85395750D01*
X145854000Y-86308250D01*
X145852826Y-86332142D01*
X145849316Y-86355803D01*
X145843504Y-86379007D01*
X145835446Y-86401529D01*
X145825218Y-86423153D01*
X145812921Y-86443670D01*
X145798671Y-86462883D01*
X145782607Y-86480607D01*
X145764883Y-86496671D01*
X145745670Y-86510921D01*
X145725153Y-86523218D01*
X145703529Y-86533446D01*
X145681007Y-86541504D01*
X145657803Y-86547316D01*
X145634142Y-86550826D01*
X145610250Y-86552000D01*
X145122750Y-86552000D01*
X145098858Y-86550826D01*
X145075197Y-86547316D01*
X145051993Y-86541504D01*
X145029471Y-86533446D01*
X145007847Y-86523218D01*
X144987330Y-86510921D01*
X144968117Y-86496671D01*
X144950393Y-86480607D01*
X144934329Y-86462883D01*
X144920079Y-86443670D01*
X144907782Y-86423153D01*
X144897554Y-86401529D01*
X144889496Y-86379007D01*
X144883684Y-86355803D01*
X144880174Y-86332142D01*
X144879000Y-86308250D01*
X144879000Y-85395750D01*
X144880174Y-85371858D01*
X144883684Y-85348197D01*
X144889496Y-85324993D01*
X144897554Y-85302471D01*
X144907782Y-85280847D01*
X144920079Y-85260330D01*
X144934329Y-85241117D01*
X144950393Y-85223393D01*
X144968117Y-85207329D01*
X144987330Y-85193079D01*
X145007847Y-85180782D01*
X145029471Y-85170554D01*
X145051993Y-85162496D01*
X145075197Y-85156684D01*
X145098858Y-85153174D01*
X145122750Y-85152000D01*
X145610250Y-85152000D01*
X145634142Y-85153174D01*
X145634142Y-85153174D01*
G37*
D13*
X145366500Y-85852000D03*
D12*
G36*
X147509142Y-85153174D02*
G01*
X147532803Y-85156684D01*
X147556007Y-85162496D01*
X147578529Y-85170554D01*
X147600153Y-85180782D01*
X147620670Y-85193079D01*
X147639883Y-85207329D01*
X147657607Y-85223393D01*
X147673671Y-85241117D01*
X147687921Y-85260330D01*
X147700218Y-85280847D01*
X147710446Y-85302471D01*
X147718504Y-85324993D01*
X147724316Y-85348197D01*
X147727826Y-85371858D01*
X147729000Y-85395750D01*
X147729000Y-86308250D01*
X147727826Y-86332142D01*
X147724316Y-86355803D01*
X147718504Y-86379007D01*
X147710446Y-86401529D01*
X147700218Y-86423153D01*
X147687921Y-86443670D01*
X147673671Y-86462883D01*
X147657607Y-86480607D01*
X147639883Y-86496671D01*
X147620670Y-86510921D01*
X147600153Y-86523218D01*
X147578529Y-86533446D01*
X147556007Y-86541504D01*
X147532803Y-86547316D01*
X147509142Y-86550826D01*
X147485250Y-86552000D01*
X146997750Y-86552000D01*
X146973858Y-86550826D01*
X146950197Y-86547316D01*
X146926993Y-86541504D01*
X146904471Y-86533446D01*
X146882847Y-86523218D01*
X146862330Y-86510921D01*
X146843117Y-86496671D01*
X146825393Y-86480607D01*
X146809329Y-86462883D01*
X146795079Y-86443670D01*
X146782782Y-86423153D01*
X146772554Y-86401529D01*
X146764496Y-86379007D01*
X146758684Y-86355803D01*
X146755174Y-86332142D01*
X146754000Y-86308250D01*
X146754000Y-85395750D01*
X146755174Y-85371858D01*
X146758684Y-85348197D01*
X146764496Y-85324993D01*
X146772554Y-85302471D01*
X146782782Y-85280847D01*
X146795079Y-85260330D01*
X146809329Y-85241117D01*
X146825393Y-85223393D01*
X146843117Y-85207329D01*
X146862330Y-85193079D01*
X146882847Y-85180782D01*
X146904471Y-85170554D01*
X146926993Y-85162496D01*
X146950197Y-85156684D01*
X146973858Y-85153174D01*
X146997750Y-85152000D01*
X147485250Y-85152000D01*
X147509142Y-85153174D01*
X147509142Y-85153174D01*
G37*
D13*
X147241500Y-85852000D03*
M02*
