G04 #@! TF.GenerationSoftware,KiCad,Pcbnew,5.1.4*
G04 #@! TF.CreationDate,2019-11-03T23:23:53+01:00*
G04 #@! TF.ProjectId,stm32XxxxCx_board,73746d33-3258-4787-9878-43785f626f61,rev?*
G04 #@! TF.SameCoordinates,Original*
G04 #@! TF.FileFunction,Legend,Top*
G04 #@! TF.FilePolarity,Positive*
%FSLAX46Y46*%
G04 Gerber Fmt 4.6, Leading zero omitted, Abs format (unit mm)*
G04 Created by KiCad (PCBNEW 5.1.4) date 2019-11-03 23:23:53*
%MOMM*%
%LPD*%
G04 APERTURE LIST*
%ADD10C,0.250000*%
%ADD11C,0.200000*%
%ADD12C,0.150000*%
%ADD13C,0.120000*%
G04 APERTURE END LIST*
D10*
X163107619Y-65032142D02*
X162107619Y-65365476D01*
X163107619Y-65698809D01*
X162631428Y-66365476D02*
X162583809Y-66508333D01*
X162536190Y-66555952D01*
X162440952Y-66603571D01*
X162298095Y-66603571D01*
X162202857Y-66555952D01*
X162155238Y-66508333D01*
X162107619Y-66413095D01*
X162107619Y-66032142D01*
X163107619Y-66032142D01*
X163107619Y-66365476D01*
X163060000Y-66460714D01*
X163012380Y-66508333D01*
X162917142Y-66555952D01*
X162821904Y-66555952D01*
X162726666Y-66508333D01*
X162679047Y-66460714D01*
X162631428Y-66365476D01*
X162631428Y-66032142D01*
X162393333Y-66984523D02*
X162393333Y-67460714D01*
X162107619Y-66889285D02*
X163107619Y-67222619D01*
X162107619Y-67555952D01*
X163107619Y-67746428D02*
X163107619Y-68317857D01*
X162107619Y-68032142D02*
X163107619Y-68032142D01*
X140247619Y-66484523D02*
X140247619Y-66008333D01*
X139771428Y-65960714D01*
X139819047Y-66008333D01*
X139866666Y-66103571D01*
X139866666Y-66341666D01*
X139819047Y-66436904D01*
X139771428Y-66484523D01*
X139676190Y-66532142D01*
X139438095Y-66532142D01*
X139342857Y-66484523D01*
X139295238Y-66436904D01*
X139247619Y-66341666D01*
X139247619Y-66103571D01*
X139295238Y-66008333D01*
X139342857Y-65960714D01*
X140247619Y-66817857D02*
X139247619Y-67151190D01*
X140247619Y-67484523D01*
X132651666Y-60412380D02*
X132985000Y-61412380D01*
X133318333Y-60412380D01*
X133651666Y-61412380D02*
X133651666Y-60412380D01*
X133889761Y-60412380D01*
X134032619Y-60460000D01*
X134127857Y-60555238D01*
X134175476Y-60650476D01*
X134223095Y-60840952D01*
X134223095Y-60983809D01*
X134175476Y-61174285D01*
X134127857Y-61269523D01*
X134032619Y-61364761D01*
X133889761Y-61412380D01*
X133651666Y-61412380D01*
X134651666Y-61412380D02*
X134651666Y-60412380D01*
X134889761Y-60412380D01*
X135032619Y-60460000D01*
X135127857Y-60555238D01*
X135175476Y-60650476D01*
X135223095Y-60840952D01*
X135223095Y-60983809D01*
X135175476Y-61174285D01*
X135127857Y-61269523D01*
X135032619Y-61364761D01*
X134889761Y-61412380D01*
X134651666Y-61412380D01*
X133223095Y-55380000D02*
X133127857Y-55332380D01*
X132985000Y-55332380D01*
X132842142Y-55380000D01*
X132746904Y-55475238D01*
X132699285Y-55570476D01*
X132651666Y-55760952D01*
X132651666Y-55903809D01*
X132699285Y-56094285D01*
X132746904Y-56189523D01*
X132842142Y-56284761D01*
X132985000Y-56332380D01*
X133080238Y-56332380D01*
X133223095Y-56284761D01*
X133270714Y-56237142D01*
X133270714Y-55903809D01*
X133080238Y-55903809D01*
X133699285Y-56332380D02*
X133699285Y-55332380D01*
X134270714Y-56332380D01*
X134270714Y-55332380D01*
X134746904Y-56332380D02*
X134746904Y-55332380D01*
X134985000Y-55332380D01*
X135127857Y-55380000D01*
X135223095Y-55475238D01*
X135270714Y-55570476D01*
X135318333Y-55760952D01*
X135318333Y-55903809D01*
X135270714Y-56094285D01*
X135223095Y-56189523D01*
X135127857Y-56284761D01*
X134985000Y-56332380D01*
X134746904Y-56332380D01*
X133223095Y-57920000D02*
X133127857Y-57872380D01*
X132985000Y-57872380D01*
X132842142Y-57920000D01*
X132746904Y-58015238D01*
X132699285Y-58110476D01*
X132651666Y-58300952D01*
X132651666Y-58443809D01*
X132699285Y-58634285D01*
X132746904Y-58729523D01*
X132842142Y-58824761D01*
X132985000Y-58872380D01*
X133080238Y-58872380D01*
X133223095Y-58824761D01*
X133270714Y-58777142D01*
X133270714Y-58443809D01*
X133080238Y-58443809D01*
X133699285Y-58872380D02*
X133699285Y-57872380D01*
X134270714Y-58872380D01*
X134270714Y-57872380D01*
X134746904Y-58872380D02*
X134746904Y-57872380D01*
X134985000Y-57872380D01*
X135127857Y-57920000D01*
X135223095Y-58015238D01*
X135270714Y-58110476D01*
X135318333Y-58300952D01*
X135318333Y-58443809D01*
X135270714Y-58634285D01*
X135223095Y-58729523D01*
X135127857Y-58824761D01*
X134985000Y-58872380D01*
X134746904Y-58872380D01*
X132651666Y-62952380D02*
X132985000Y-63952380D01*
X133318333Y-62952380D01*
X133651666Y-63952380D02*
X133651666Y-62952380D01*
X133889761Y-62952380D01*
X134032619Y-63000000D01*
X134127857Y-63095238D01*
X134175476Y-63190476D01*
X134223095Y-63380952D01*
X134223095Y-63523809D01*
X134175476Y-63714285D01*
X134127857Y-63809523D01*
X134032619Y-63904761D01*
X133889761Y-63952380D01*
X133651666Y-63952380D01*
X134651666Y-63952380D02*
X134651666Y-62952380D01*
X134889761Y-62952380D01*
X135032619Y-63000000D01*
X135127857Y-63095238D01*
X135175476Y-63190476D01*
X135223095Y-63380952D01*
X135223095Y-63523809D01*
X135175476Y-63714285D01*
X135127857Y-63809523D01*
X135032619Y-63904761D01*
X134889761Y-63952380D01*
X134651666Y-63952380D01*
X167513095Y-55380000D02*
X167417857Y-55332380D01*
X167275000Y-55332380D01*
X167132142Y-55380000D01*
X167036904Y-55475238D01*
X166989285Y-55570476D01*
X166941666Y-55760952D01*
X166941666Y-55903809D01*
X166989285Y-56094285D01*
X167036904Y-56189523D01*
X167132142Y-56284761D01*
X167275000Y-56332380D01*
X167370238Y-56332380D01*
X167513095Y-56284761D01*
X167560714Y-56237142D01*
X167560714Y-55903809D01*
X167370238Y-55903809D01*
X167989285Y-56332380D02*
X167989285Y-55332380D01*
X168560714Y-56332380D01*
X168560714Y-55332380D01*
X169036904Y-56332380D02*
X169036904Y-55332380D01*
X169275000Y-55332380D01*
X169417857Y-55380000D01*
X169513095Y-55475238D01*
X169560714Y-55570476D01*
X169608333Y-55760952D01*
X169608333Y-55903809D01*
X169560714Y-56094285D01*
X169513095Y-56189523D01*
X169417857Y-56284761D01*
X169275000Y-56332380D01*
X169036904Y-56332380D01*
X167513095Y-57920000D02*
X167417857Y-57872380D01*
X167275000Y-57872380D01*
X167132142Y-57920000D01*
X167036904Y-58015238D01*
X166989285Y-58110476D01*
X166941666Y-58300952D01*
X166941666Y-58443809D01*
X166989285Y-58634285D01*
X167036904Y-58729523D01*
X167132142Y-58824761D01*
X167275000Y-58872380D01*
X167370238Y-58872380D01*
X167513095Y-58824761D01*
X167560714Y-58777142D01*
X167560714Y-58443809D01*
X167370238Y-58443809D01*
X167989285Y-58872380D02*
X167989285Y-57872380D01*
X168560714Y-58872380D01*
X168560714Y-57872380D01*
X169036904Y-58872380D02*
X169036904Y-57872380D01*
X169275000Y-57872380D01*
X169417857Y-57920000D01*
X169513095Y-58015238D01*
X169560714Y-58110476D01*
X169608333Y-58300952D01*
X169608333Y-58443809D01*
X169560714Y-58634285D01*
X169513095Y-58729523D01*
X169417857Y-58824761D01*
X169275000Y-58872380D01*
X169036904Y-58872380D01*
X166941666Y-60412380D02*
X167275000Y-61412380D01*
X167608333Y-60412380D01*
X167941666Y-61412380D02*
X167941666Y-60412380D01*
X168179761Y-60412380D01*
X168322619Y-60460000D01*
X168417857Y-60555238D01*
X168465476Y-60650476D01*
X168513095Y-60840952D01*
X168513095Y-60983809D01*
X168465476Y-61174285D01*
X168417857Y-61269523D01*
X168322619Y-61364761D01*
X168179761Y-61412380D01*
X167941666Y-61412380D01*
X168941666Y-61412380D02*
X168941666Y-60412380D01*
X169179761Y-60412380D01*
X169322619Y-60460000D01*
X169417857Y-60555238D01*
X169465476Y-60650476D01*
X169513095Y-60840952D01*
X169513095Y-60983809D01*
X169465476Y-61174285D01*
X169417857Y-61269523D01*
X169322619Y-61364761D01*
X169179761Y-61412380D01*
X168941666Y-61412380D01*
X166941666Y-62952380D02*
X167275000Y-63952380D01*
X167608333Y-62952380D01*
X167941666Y-63952380D02*
X167941666Y-62952380D01*
X168179761Y-62952380D01*
X168322619Y-63000000D01*
X168417857Y-63095238D01*
X168465476Y-63190476D01*
X168513095Y-63380952D01*
X168513095Y-63523809D01*
X168465476Y-63714285D01*
X168417857Y-63809523D01*
X168322619Y-63904761D01*
X168179761Y-63952380D01*
X167941666Y-63952380D01*
X168941666Y-63952380D02*
X168941666Y-62952380D01*
X169179761Y-62952380D01*
X169322619Y-63000000D01*
X169417857Y-63095238D01*
X169465476Y-63190476D01*
X169513095Y-63380952D01*
X169513095Y-63523809D01*
X169465476Y-63714285D01*
X169417857Y-63809523D01*
X169322619Y-63904761D01*
X169179761Y-63952380D01*
X168941666Y-63952380D01*
X167108333Y-104592380D02*
X167108333Y-103592380D01*
X167489285Y-103592380D01*
X167584523Y-103640000D01*
X167632142Y-103687619D01*
X167679761Y-103782857D01*
X167679761Y-103925714D01*
X167632142Y-104020952D01*
X167584523Y-104068571D01*
X167489285Y-104116190D01*
X167108333Y-104116190D01*
X168060714Y-104306666D02*
X168536904Y-104306666D01*
X167965476Y-104592380D02*
X168298809Y-103592380D01*
X168632142Y-104592380D01*
X169155952Y-103592380D02*
X169251190Y-103592380D01*
X169346428Y-103640000D01*
X169394047Y-103687619D01*
X169441666Y-103782857D01*
X169489285Y-103973333D01*
X169489285Y-104211428D01*
X169441666Y-104401904D01*
X169394047Y-104497142D01*
X169346428Y-104544761D01*
X169251190Y-104592380D01*
X169155952Y-104592380D01*
X169060714Y-104544761D01*
X169013095Y-104497142D01*
X168965476Y-104401904D01*
X168917857Y-104211428D01*
X168917857Y-103973333D01*
X168965476Y-103782857D01*
X169013095Y-103687619D01*
X169060714Y-103640000D01*
X169155952Y-103592380D01*
X167036904Y-84272380D02*
X167036904Y-83272380D01*
X167417857Y-83272380D01*
X167513095Y-83320000D01*
X167560714Y-83367619D01*
X167608333Y-83462857D01*
X167608333Y-83605714D01*
X167560714Y-83700952D01*
X167513095Y-83748571D01*
X167417857Y-83796190D01*
X167036904Y-83796190D01*
X168370238Y-83748571D02*
X168513095Y-83796190D01*
X168560714Y-83843809D01*
X168608333Y-83939047D01*
X168608333Y-84081904D01*
X168560714Y-84177142D01*
X168513095Y-84224761D01*
X168417857Y-84272380D01*
X168036904Y-84272380D01*
X168036904Y-83272380D01*
X168370238Y-83272380D01*
X168465476Y-83320000D01*
X168513095Y-83367619D01*
X168560714Y-83462857D01*
X168560714Y-83558095D01*
X168513095Y-83653333D01*
X168465476Y-83700952D01*
X168370238Y-83748571D01*
X168036904Y-83748571D01*
X169227380Y-83272380D02*
X169322619Y-83272380D01*
X169417857Y-83320000D01*
X169465476Y-83367619D01*
X169513095Y-83462857D01*
X169560714Y-83653333D01*
X169560714Y-83891428D01*
X169513095Y-84081904D01*
X169465476Y-84177142D01*
X169417857Y-84224761D01*
X169322619Y-84272380D01*
X169227380Y-84272380D01*
X169132142Y-84224761D01*
X169084523Y-84177142D01*
X169036904Y-84081904D01*
X168989285Y-83891428D01*
X168989285Y-83653333D01*
X169036904Y-83462857D01*
X169084523Y-83367619D01*
X169132142Y-83320000D01*
X169227380Y-83272380D01*
X166560714Y-71572380D02*
X166560714Y-70572380D01*
X166941666Y-70572380D01*
X167036904Y-70620000D01*
X167084523Y-70667619D01*
X167132142Y-70762857D01*
X167132142Y-70905714D01*
X167084523Y-71000952D01*
X167036904Y-71048571D01*
X166941666Y-71096190D01*
X166560714Y-71096190D01*
X167894047Y-71048571D02*
X168036904Y-71096190D01*
X168084523Y-71143809D01*
X168132142Y-71239047D01*
X168132142Y-71381904D01*
X168084523Y-71477142D01*
X168036904Y-71524761D01*
X167941666Y-71572380D01*
X167560714Y-71572380D01*
X167560714Y-70572380D01*
X167894047Y-70572380D01*
X167989285Y-70620000D01*
X168036904Y-70667619D01*
X168084523Y-70762857D01*
X168084523Y-70858095D01*
X168036904Y-70953333D01*
X167989285Y-71000952D01*
X167894047Y-71048571D01*
X167560714Y-71048571D01*
X169084523Y-71572380D02*
X168513095Y-71572380D01*
X168798809Y-71572380D02*
X168798809Y-70572380D01*
X168703571Y-70715238D01*
X168608333Y-70810476D01*
X168513095Y-70858095D01*
X169465476Y-70667619D02*
X169513095Y-70620000D01*
X169608333Y-70572380D01*
X169846428Y-70572380D01*
X169941666Y-70620000D01*
X169989285Y-70667619D01*
X170036904Y-70762857D01*
X170036904Y-70858095D01*
X169989285Y-71000952D01*
X169417857Y-71572380D01*
X170036904Y-71572380D01*
X167108333Y-96972380D02*
X167108333Y-95972380D01*
X167489285Y-95972380D01*
X167584523Y-96020000D01*
X167632142Y-96067619D01*
X167679761Y-96162857D01*
X167679761Y-96305714D01*
X167632142Y-96400952D01*
X167584523Y-96448571D01*
X167489285Y-96496190D01*
X167108333Y-96496190D01*
X168060714Y-96686666D02*
X168536904Y-96686666D01*
X167965476Y-96972380D02*
X168298809Y-95972380D01*
X168632142Y-96972380D01*
X168870238Y-95972380D02*
X169489285Y-95972380D01*
X169155952Y-96353333D01*
X169298809Y-96353333D01*
X169394047Y-96400952D01*
X169441666Y-96448571D01*
X169489285Y-96543809D01*
X169489285Y-96781904D01*
X169441666Y-96877142D01*
X169394047Y-96924761D01*
X169298809Y-96972380D01*
X169013095Y-96972380D01*
X168917857Y-96924761D01*
X168870238Y-96877142D01*
X167108333Y-94432380D02*
X167108333Y-93432380D01*
X167489285Y-93432380D01*
X167584523Y-93480000D01*
X167632142Y-93527619D01*
X167679761Y-93622857D01*
X167679761Y-93765714D01*
X167632142Y-93860952D01*
X167584523Y-93908571D01*
X167489285Y-93956190D01*
X167108333Y-93956190D01*
X168060714Y-94146666D02*
X168536904Y-94146666D01*
X167965476Y-94432380D02*
X168298809Y-93432380D01*
X168632142Y-94432380D01*
X169394047Y-93765714D02*
X169394047Y-94432380D01*
X169155952Y-93384761D02*
X168917857Y-94099047D01*
X169536904Y-94099047D01*
X167036904Y-79192380D02*
X167036904Y-78192380D01*
X167417857Y-78192380D01*
X167513095Y-78240000D01*
X167560714Y-78287619D01*
X167608333Y-78382857D01*
X167608333Y-78525714D01*
X167560714Y-78620952D01*
X167513095Y-78668571D01*
X167417857Y-78716190D01*
X167036904Y-78716190D01*
X168370238Y-78668571D02*
X168513095Y-78716190D01*
X168560714Y-78763809D01*
X168608333Y-78859047D01*
X168608333Y-79001904D01*
X168560714Y-79097142D01*
X168513095Y-79144761D01*
X168417857Y-79192380D01*
X168036904Y-79192380D01*
X168036904Y-78192380D01*
X168370238Y-78192380D01*
X168465476Y-78240000D01*
X168513095Y-78287619D01*
X168560714Y-78382857D01*
X168560714Y-78478095D01*
X168513095Y-78573333D01*
X168465476Y-78620952D01*
X168370238Y-78668571D01*
X168036904Y-78668571D01*
X168989285Y-78287619D02*
X169036904Y-78240000D01*
X169132142Y-78192380D01*
X169370238Y-78192380D01*
X169465476Y-78240000D01*
X169513095Y-78287619D01*
X169560714Y-78382857D01*
X169560714Y-78478095D01*
X169513095Y-78620952D01*
X168941666Y-79192380D01*
X169560714Y-79192380D01*
X167108333Y-102052380D02*
X167108333Y-101052380D01*
X167489285Y-101052380D01*
X167584523Y-101100000D01*
X167632142Y-101147619D01*
X167679761Y-101242857D01*
X167679761Y-101385714D01*
X167632142Y-101480952D01*
X167584523Y-101528571D01*
X167489285Y-101576190D01*
X167108333Y-101576190D01*
X168060714Y-101766666D02*
X168536904Y-101766666D01*
X167965476Y-102052380D02*
X168298809Y-101052380D01*
X168632142Y-102052380D01*
X169489285Y-102052380D02*
X168917857Y-102052380D01*
X169203571Y-102052380D02*
X169203571Y-101052380D01*
X169108333Y-101195238D01*
X169013095Y-101290476D01*
X168917857Y-101338095D01*
X167108333Y-86812380D02*
X167108333Y-85812380D01*
X167489285Y-85812380D01*
X167584523Y-85860000D01*
X167632142Y-85907619D01*
X167679761Y-86002857D01*
X167679761Y-86145714D01*
X167632142Y-86240952D01*
X167584523Y-86288571D01*
X167489285Y-86336190D01*
X167108333Y-86336190D01*
X168060714Y-86526666D02*
X168536904Y-86526666D01*
X167965476Y-86812380D02*
X168298809Y-85812380D01*
X168632142Y-86812380D01*
X168870238Y-85812380D02*
X169536904Y-85812380D01*
X169108333Y-86812380D01*
X166560714Y-69032380D02*
X166560714Y-68032380D01*
X166941666Y-68032380D01*
X167036904Y-68080000D01*
X167084523Y-68127619D01*
X167132142Y-68222857D01*
X167132142Y-68365714D01*
X167084523Y-68460952D01*
X167036904Y-68508571D01*
X166941666Y-68556190D01*
X166560714Y-68556190D01*
X167894047Y-68508571D02*
X168036904Y-68556190D01*
X168084523Y-68603809D01*
X168132142Y-68699047D01*
X168132142Y-68841904D01*
X168084523Y-68937142D01*
X168036904Y-68984761D01*
X167941666Y-69032380D01*
X167560714Y-69032380D01*
X167560714Y-68032380D01*
X167894047Y-68032380D01*
X167989285Y-68080000D01*
X168036904Y-68127619D01*
X168084523Y-68222857D01*
X168084523Y-68318095D01*
X168036904Y-68413333D01*
X167989285Y-68460952D01*
X167894047Y-68508571D01*
X167560714Y-68508571D01*
X169084523Y-69032380D02*
X168513095Y-69032380D01*
X168798809Y-69032380D02*
X168798809Y-68032380D01*
X168703571Y-68175238D01*
X168608333Y-68270476D01*
X168513095Y-68318095D01*
X169417857Y-68032380D02*
X170036904Y-68032380D01*
X169703571Y-68413333D01*
X169846428Y-68413333D01*
X169941666Y-68460952D01*
X169989285Y-68508571D01*
X170036904Y-68603809D01*
X170036904Y-68841904D01*
X169989285Y-68937142D01*
X169941666Y-68984761D01*
X169846428Y-69032380D01*
X169560714Y-69032380D01*
X169465476Y-68984761D01*
X169417857Y-68937142D01*
X167108333Y-99512380D02*
X167108333Y-98512380D01*
X167489285Y-98512380D01*
X167584523Y-98560000D01*
X167632142Y-98607619D01*
X167679761Y-98702857D01*
X167679761Y-98845714D01*
X167632142Y-98940952D01*
X167584523Y-98988571D01*
X167489285Y-99036190D01*
X167108333Y-99036190D01*
X168060714Y-99226666D02*
X168536904Y-99226666D01*
X167965476Y-99512380D02*
X168298809Y-98512380D01*
X168632142Y-99512380D01*
X168917857Y-98607619D02*
X168965476Y-98560000D01*
X169060714Y-98512380D01*
X169298809Y-98512380D01*
X169394047Y-98560000D01*
X169441666Y-98607619D01*
X169489285Y-98702857D01*
X169489285Y-98798095D01*
X169441666Y-98940952D01*
X168870238Y-99512380D01*
X169489285Y-99512380D01*
X166560714Y-74112380D02*
X166560714Y-73112380D01*
X166941666Y-73112380D01*
X167036904Y-73160000D01*
X167084523Y-73207619D01*
X167132142Y-73302857D01*
X167132142Y-73445714D01*
X167084523Y-73540952D01*
X167036904Y-73588571D01*
X166941666Y-73636190D01*
X166560714Y-73636190D01*
X167894047Y-73588571D02*
X168036904Y-73636190D01*
X168084523Y-73683809D01*
X168132142Y-73779047D01*
X168132142Y-73921904D01*
X168084523Y-74017142D01*
X168036904Y-74064761D01*
X167941666Y-74112380D01*
X167560714Y-74112380D01*
X167560714Y-73112380D01*
X167894047Y-73112380D01*
X167989285Y-73160000D01*
X168036904Y-73207619D01*
X168084523Y-73302857D01*
X168084523Y-73398095D01*
X168036904Y-73493333D01*
X167989285Y-73540952D01*
X167894047Y-73588571D01*
X167560714Y-73588571D01*
X169084523Y-74112380D02*
X168513095Y-74112380D01*
X168798809Y-74112380D02*
X168798809Y-73112380D01*
X168703571Y-73255238D01*
X168608333Y-73350476D01*
X168513095Y-73398095D01*
X170036904Y-74112380D02*
X169465476Y-74112380D01*
X169751190Y-74112380D02*
X169751190Y-73112380D01*
X169655952Y-73255238D01*
X169560714Y-73350476D01*
X169465476Y-73398095D01*
X167108333Y-91892380D02*
X167108333Y-90892380D01*
X167489285Y-90892380D01*
X167584523Y-90940000D01*
X167632142Y-90987619D01*
X167679761Y-91082857D01*
X167679761Y-91225714D01*
X167632142Y-91320952D01*
X167584523Y-91368571D01*
X167489285Y-91416190D01*
X167108333Y-91416190D01*
X168060714Y-91606666D02*
X168536904Y-91606666D01*
X167965476Y-91892380D02*
X168298809Y-90892380D01*
X168632142Y-91892380D01*
X169441666Y-90892380D02*
X168965476Y-90892380D01*
X168917857Y-91368571D01*
X168965476Y-91320952D01*
X169060714Y-91273333D01*
X169298809Y-91273333D01*
X169394047Y-91320952D01*
X169441666Y-91368571D01*
X169489285Y-91463809D01*
X169489285Y-91701904D01*
X169441666Y-91797142D01*
X169394047Y-91844761D01*
X169298809Y-91892380D01*
X169060714Y-91892380D01*
X168965476Y-91844761D01*
X168917857Y-91797142D01*
X167108333Y-89352380D02*
X167108333Y-88352380D01*
X167489285Y-88352380D01*
X167584523Y-88400000D01*
X167632142Y-88447619D01*
X167679761Y-88542857D01*
X167679761Y-88685714D01*
X167632142Y-88780952D01*
X167584523Y-88828571D01*
X167489285Y-88876190D01*
X167108333Y-88876190D01*
X168060714Y-89066666D02*
X168536904Y-89066666D01*
X167965476Y-89352380D02*
X168298809Y-88352380D01*
X168632142Y-89352380D01*
X169394047Y-88352380D02*
X169203571Y-88352380D01*
X169108333Y-88400000D01*
X169060714Y-88447619D01*
X168965476Y-88590476D01*
X168917857Y-88780952D01*
X168917857Y-89161904D01*
X168965476Y-89257142D01*
X169013095Y-89304761D01*
X169108333Y-89352380D01*
X169298809Y-89352380D01*
X169394047Y-89304761D01*
X169441666Y-89257142D01*
X169489285Y-89161904D01*
X169489285Y-88923809D01*
X169441666Y-88828571D01*
X169394047Y-88780952D01*
X169298809Y-88733333D01*
X169108333Y-88733333D01*
X169013095Y-88780952D01*
X168965476Y-88828571D01*
X168917857Y-88923809D01*
X167036904Y-81732380D02*
X167036904Y-80732380D01*
X167417857Y-80732380D01*
X167513095Y-80780000D01*
X167560714Y-80827619D01*
X167608333Y-80922857D01*
X167608333Y-81065714D01*
X167560714Y-81160952D01*
X167513095Y-81208571D01*
X167417857Y-81256190D01*
X167036904Y-81256190D01*
X168370238Y-81208571D02*
X168513095Y-81256190D01*
X168560714Y-81303809D01*
X168608333Y-81399047D01*
X168608333Y-81541904D01*
X168560714Y-81637142D01*
X168513095Y-81684761D01*
X168417857Y-81732380D01*
X168036904Y-81732380D01*
X168036904Y-80732380D01*
X168370238Y-80732380D01*
X168465476Y-80780000D01*
X168513095Y-80827619D01*
X168560714Y-80922857D01*
X168560714Y-81018095D01*
X168513095Y-81113333D01*
X168465476Y-81160952D01*
X168370238Y-81208571D01*
X168036904Y-81208571D01*
X169560714Y-81732380D02*
X168989285Y-81732380D01*
X169275000Y-81732380D02*
X169275000Y-80732380D01*
X169179761Y-80875238D01*
X169084523Y-80970476D01*
X168989285Y-81018095D01*
X166560714Y-66492380D02*
X166560714Y-65492380D01*
X166941666Y-65492380D01*
X167036904Y-65540000D01*
X167084523Y-65587619D01*
X167132142Y-65682857D01*
X167132142Y-65825714D01*
X167084523Y-65920952D01*
X167036904Y-65968571D01*
X166941666Y-66016190D01*
X166560714Y-66016190D01*
X167894047Y-65968571D02*
X168036904Y-66016190D01*
X168084523Y-66063809D01*
X168132142Y-66159047D01*
X168132142Y-66301904D01*
X168084523Y-66397142D01*
X168036904Y-66444761D01*
X167941666Y-66492380D01*
X167560714Y-66492380D01*
X167560714Y-65492380D01*
X167894047Y-65492380D01*
X167989285Y-65540000D01*
X168036904Y-65587619D01*
X168084523Y-65682857D01*
X168084523Y-65778095D01*
X168036904Y-65873333D01*
X167989285Y-65920952D01*
X167894047Y-65968571D01*
X167560714Y-65968571D01*
X169084523Y-66492380D02*
X168513095Y-66492380D01*
X168798809Y-66492380D02*
X168798809Y-65492380D01*
X168703571Y-65635238D01*
X168608333Y-65730476D01*
X168513095Y-65778095D01*
X169941666Y-65825714D02*
X169941666Y-66492380D01*
X169703571Y-65444761D02*
X169465476Y-66159047D01*
X170084523Y-66159047D01*
X166560714Y-76652380D02*
X166560714Y-75652380D01*
X166941666Y-75652380D01*
X167036904Y-75700000D01*
X167084523Y-75747619D01*
X167132142Y-75842857D01*
X167132142Y-75985714D01*
X167084523Y-76080952D01*
X167036904Y-76128571D01*
X166941666Y-76176190D01*
X166560714Y-76176190D01*
X167894047Y-76128571D02*
X168036904Y-76176190D01*
X168084523Y-76223809D01*
X168132142Y-76319047D01*
X168132142Y-76461904D01*
X168084523Y-76557142D01*
X168036904Y-76604761D01*
X167941666Y-76652380D01*
X167560714Y-76652380D01*
X167560714Y-75652380D01*
X167894047Y-75652380D01*
X167989285Y-75700000D01*
X168036904Y-75747619D01*
X168084523Y-75842857D01*
X168084523Y-75938095D01*
X168036904Y-76033333D01*
X167989285Y-76080952D01*
X167894047Y-76128571D01*
X167560714Y-76128571D01*
X169084523Y-76652380D02*
X168513095Y-76652380D01*
X168798809Y-76652380D02*
X168798809Y-75652380D01*
X168703571Y-75795238D01*
X168608333Y-75890476D01*
X168513095Y-75938095D01*
X169703571Y-75652380D02*
X169798809Y-75652380D01*
X169894047Y-75700000D01*
X169941666Y-75747619D01*
X169989285Y-75842857D01*
X170036904Y-76033333D01*
X170036904Y-76271428D01*
X169989285Y-76461904D01*
X169941666Y-76557142D01*
X169894047Y-76604761D01*
X169798809Y-76652380D01*
X169703571Y-76652380D01*
X169608333Y-76604761D01*
X169560714Y-76557142D01*
X169513095Y-76461904D01*
X169465476Y-76271428D01*
X169465476Y-76033333D01*
X169513095Y-75842857D01*
X169560714Y-75747619D01*
X169608333Y-75700000D01*
X169703571Y-75652380D01*
X132342142Y-74112380D02*
X132342142Y-73112380D01*
X132723095Y-73112380D01*
X132818333Y-73160000D01*
X132865952Y-73207619D01*
X132913571Y-73302857D01*
X132913571Y-73445714D01*
X132865952Y-73540952D01*
X132818333Y-73588571D01*
X132723095Y-73636190D01*
X132342142Y-73636190D01*
X133294523Y-73826666D02*
X133770714Y-73826666D01*
X133199285Y-74112380D02*
X133532619Y-73112380D01*
X133865952Y-74112380D01*
X134723095Y-74112380D02*
X134151666Y-74112380D01*
X134437380Y-74112380D02*
X134437380Y-73112380D01*
X134342142Y-73255238D01*
X134246904Y-73350476D01*
X134151666Y-73398095D01*
X135342142Y-73112380D02*
X135437380Y-73112380D01*
X135532619Y-73160000D01*
X135580238Y-73207619D01*
X135627857Y-73302857D01*
X135675476Y-73493333D01*
X135675476Y-73731428D01*
X135627857Y-73921904D01*
X135580238Y-74017142D01*
X135532619Y-74064761D01*
X135437380Y-74112380D01*
X135342142Y-74112380D01*
X135246904Y-74064761D01*
X135199285Y-74017142D01*
X135151666Y-73921904D01*
X135104047Y-73731428D01*
X135104047Y-73493333D01*
X135151666Y-73302857D01*
X135199285Y-73207619D01*
X135246904Y-73160000D01*
X135342142Y-73112380D01*
X132818333Y-69032380D02*
X132818333Y-68032380D01*
X133199285Y-68032380D01*
X133294523Y-68080000D01*
X133342142Y-68127619D01*
X133389761Y-68222857D01*
X133389761Y-68365714D01*
X133342142Y-68460952D01*
X133294523Y-68508571D01*
X133199285Y-68556190D01*
X132818333Y-68556190D01*
X133770714Y-68746666D02*
X134246904Y-68746666D01*
X133675476Y-69032380D02*
X134008809Y-68032380D01*
X134342142Y-69032380D01*
X134818333Y-68460952D02*
X134723095Y-68413333D01*
X134675476Y-68365714D01*
X134627857Y-68270476D01*
X134627857Y-68222857D01*
X134675476Y-68127619D01*
X134723095Y-68080000D01*
X134818333Y-68032380D01*
X135008809Y-68032380D01*
X135104047Y-68080000D01*
X135151666Y-68127619D01*
X135199285Y-68222857D01*
X135199285Y-68270476D01*
X135151666Y-68365714D01*
X135104047Y-68413333D01*
X135008809Y-68460952D01*
X134818333Y-68460952D01*
X134723095Y-68508571D01*
X134675476Y-68556190D01*
X134627857Y-68651428D01*
X134627857Y-68841904D01*
X134675476Y-68937142D01*
X134723095Y-68984761D01*
X134818333Y-69032380D01*
X135008809Y-69032380D01*
X135104047Y-68984761D01*
X135151666Y-68937142D01*
X135199285Y-68841904D01*
X135199285Y-68651428D01*
X135151666Y-68556190D01*
X135104047Y-68508571D01*
X135008809Y-68460952D01*
X132818333Y-71572380D02*
X132818333Y-70572380D01*
X133199285Y-70572380D01*
X133294523Y-70620000D01*
X133342142Y-70667619D01*
X133389761Y-70762857D01*
X133389761Y-70905714D01*
X133342142Y-71000952D01*
X133294523Y-71048571D01*
X133199285Y-71096190D01*
X132818333Y-71096190D01*
X133770714Y-71286666D02*
X134246904Y-71286666D01*
X133675476Y-71572380D02*
X134008809Y-70572380D01*
X134342142Y-71572380D01*
X134723095Y-71572380D02*
X134913571Y-71572380D01*
X135008809Y-71524761D01*
X135056428Y-71477142D01*
X135151666Y-71334285D01*
X135199285Y-71143809D01*
X135199285Y-70762857D01*
X135151666Y-70667619D01*
X135104047Y-70620000D01*
X135008809Y-70572380D01*
X134818333Y-70572380D01*
X134723095Y-70620000D01*
X134675476Y-70667619D01*
X134627857Y-70762857D01*
X134627857Y-71000952D01*
X134675476Y-71096190D01*
X134723095Y-71143809D01*
X134818333Y-71191428D01*
X135008809Y-71191428D01*
X135104047Y-71143809D01*
X135151666Y-71096190D01*
X135199285Y-71000952D01*
X132270714Y-66492380D02*
X132270714Y-65492380D01*
X132651666Y-65492380D01*
X132746904Y-65540000D01*
X132794523Y-65587619D01*
X132842142Y-65682857D01*
X132842142Y-65825714D01*
X132794523Y-65920952D01*
X132746904Y-65968571D01*
X132651666Y-66016190D01*
X132270714Y-66016190D01*
X133604047Y-65968571D02*
X133746904Y-66016190D01*
X133794523Y-66063809D01*
X133842142Y-66159047D01*
X133842142Y-66301904D01*
X133794523Y-66397142D01*
X133746904Y-66444761D01*
X133651666Y-66492380D01*
X133270714Y-66492380D01*
X133270714Y-65492380D01*
X133604047Y-65492380D01*
X133699285Y-65540000D01*
X133746904Y-65587619D01*
X133794523Y-65682857D01*
X133794523Y-65778095D01*
X133746904Y-65873333D01*
X133699285Y-65920952D01*
X133604047Y-65968571D01*
X133270714Y-65968571D01*
X134794523Y-66492380D02*
X134223095Y-66492380D01*
X134508809Y-66492380D02*
X134508809Y-65492380D01*
X134413571Y-65635238D01*
X134318333Y-65730476D01*
X134223095Y-65778095D01*
X135699285Y-65492380D02*
X135223095Y-65492380D01*
X135175476Y-65968571D01*
X135223095Y-65920952D01*
X135318333Y-65873333D01*
X135556428Y-65873333D01*
X135651666Y-65920952D01*
X135699285Y-65968571D01*
X135746904Y-66063809D01*
X135746904Y-66301904D01*
X135699285Y-66397142D01*
X135651666Y-66444761D01*
X135556428Y-66492380D01*
X135318333Y-66492380D01*
X135223095Y-66444761D01*
X135175476Y-66397142D01*
X132342142Y-81732380D02*
X132342142Y-80732380D01*
X132723095Y-80732380D01*
X132818333Y-80780000D01*
X132865952Y-80827619D01*
X132913571Y-80922857D01*
X132913571Y-81065714D01*
X132865952Y-81160952D01*
X132818333Y-81208571D01*
X132723095Y-81256190D01*
X132342142Y-81256190D01*
X133294523Y-81446666D02*
X133770714Y-81446666D01*
X133199285Y-81732380D02*
X133532619Y-80732380D01*
X133865952Y-81732380D01*
X134723095Y-81732380D02*
X134151666Y-81732380D01*
X134437380Y-81732380D02*
X134437380Y-80732380D01*
X134342142Y-80875238D01*
X134246904Y-80970476D01*
X134151666Y-81018095D01*
X135056428Y-80732380D02*
X135675476Y-80732380D01*
X135342142Y-81113333D01*
X135485000Y-81113333D01*
X135580238Y-81160952D01*
X135627857Y-81208571D01*
X135675476Y-81303809D01*
X135675476Y-81541904D01*
X135627857Y-81637142D01*
X135580238Y-81684761D01*
X135485000Y-81732380D01*
X135199285Y-81732380D01*
X135104047Y-81684761D01*
X135056428Y-81637142D01*
X132342142Y-79192380D02*
X132342142Y-78192380D01*
X132723095Y-78192380D01*
X132818333Y-78240000D01*
X132865952Y-78287619D01*
X132913571Y-78382857D01*
X132913571Y-78525714D01*
X132865952Y-78620952D01*
X132818333Y-78668571D01*
X132723095Y-78716190D01*
X132342142Y-78716190D01*
X133294523Y-78906666D02*
X133770714Y-78906666D01*
X133199285Y-79192380D02*
X133532619Y-78192380D01*
X133865952Y-79192380D01*
X134723095Y-79192380D02*
X134151666Y-79192380D01*
X134437380Y-79192380D02*
X134437380Y-78192380D01*
X134342142Y-78335238D01*
X134246904Y-78430476D01*
X134151666Y-78478095D01*
X135104047Y-78287619D02*
X135151666Y-78240000D01*
X135246904Y-78192380D01*
X135485000Y-78192380D01*
X135580238Y-78240000D01*
X135627857Y-78287619D01*
X135675476Y-78382857D01*
X135675476Y-78478095D01*
X135627857Y-78620952D01*
X135056428Y-79192380D01*
X135675476Y-79192380D01*
X132342142Y-86812380D02*
X132342142Y-85812380D01*
X132723095Y-85812380D01*
X132818333Y-85860000D01*
X132865952Y-85907619D01*
X132913571Y-86002857D01*
X132913571Y-86145714D01*
X132865952Y-86240952D01*
X132818333Y-86288571D01*
X132723095Y-86336190D01*
X132342142Y-86336190D01*
X133294523Y-86526666D02*
X133770714Y-86526666D01*
X133199285Y-86812380D02*
X133532619Y-85812380D01*
X133865952Y-86812380D01*
X134723095Y-86812380D02*
X134151666Y-86812380D01*
X134437380Y-86812380D02*
X134437380Y-85812380D01*
X134342142Y-85955238D01*
X134246904Y-86050476D01*
X134151666Y-86098095D01*
X135627857Y-85812380D02*
X135151666Y-85812380D01*
X135104047Y-86288571D01*
X135151666Y-86240952D01*
X135246904Y-86193333D01*
X135485000Y-86193333D01*
X135580238Y-86240952D01*
X135627857Y-86288571D01*
X135675476Y-86383809D01*
X135675476Y-86621904D01*
X135627857Y-86717142D01*
X135580238Y-86764761D01*
X135485000Y-86812380D01*
X135246904Y-86812380D01*
X135151666Y-86764761D01*
X135104047Y-86717142D01*
X132342142Y-84272380D02*
X132342142Y-83272380D01*
X132723095Y-83272380D01*
X132818333Y-83320000D01*
X132865952Y-83367619D01*
X132913571Y-83462857D01*
X132913571Y-83605714D01*
X132865952Y-83700952D01*
X132818333Y-83748571D01*
X132723095Y-83796190D01*
X132342142Y-83796190D01*
X133294523Y-83986666D02*
X133770714Y-83986666D01*
X133199285Y-84272380D02*
X133532619Y-83272380D01*
X133865952Y-84272380D01*
X134723095Y-84272380D02*
X134151666Y-84272380D01*
X134437380Y-84272380D02*
X134437380Y-83272380D01*
X134342142Y-83415238D01*
X134246904Y-83510476D01*
X134151666Y-83558095D01*
X135580238Y-83605714D02*
X135580238Y-84272380D01*
X135342142Y-83224761D02*
X135104047Y-83939047D01*
X135723095Y-83939047D01*
X132746904Y-89352380D02*
X132746904Y-88352380D01*
X133127857Y-88352380D01*
X133223095Y-88400000D01*
X133270714Y-88447619D01*
X133318333Y-88542857D01*
X133318333Y-88685714D01*
X133270714Y-88780952D01*
X133223095Y-88828571D01*
X133127857Y-88876190D01*
X132746904Y-88876190D01*
X134080238Y-88828571D02*
X134223095Y-88876190D01*
X134270714Y-88923809D01*
X134318333Y-89019047D01*
X134318333Y-89161904D01*
X134270714Y-89257142D01*
X134223095Y-89304761D01*
X134127857Y-89352380D01*
X133746904Y-89352380D01*
X133746904Y-88352380D01*
X134080238Y-88352380D01*
X134175476Y-88400000D01*
X134223095Y-88447619D01*
X134270714Y-88542857D01*
X134270714Y-88638095D01*
X134223095Y-88733333D01*
X134175476Y-88780952D01*
X134080238Y-88828571D01*
X133746904Y-88828571D01*
X134651666Y-88352380D02*
X135270714Y-88352380D01*
X134937380Y-88733333D01*
X135080238Y-88733333D01*
X135175476Y-88780952D01*
X135223095Y-88828571D01*
X135270714Y-88923809D01*
X135270714Y-89161904D01*
X135223095Y-89257142D01*
X135175476Y-89304761D01*
X135080238Y-89352380D01*
X134794523Y-89352380D01*
X134699285Y-89304761D01*
X134651666Y-89257142D01*
X132342142Y-76652380D02*
X132342142Y-75652380D01*
X132723095Y-75652380D01*
X132818333Y-75700000D01*
X132865952Y-75747619D01*
X132913571Y-75842857D01*
X132913571Y-75985714D01*
X132865952Y-76080952D01*
X132818333Y-76128571D01*
X132723095Y-76176190D01*
X132342142Y-76176190D01*
X133294523Y-76366666D02*
X133770714Y-76366666D01*
X133199285Y-76652380D02*
X133532619Y-75652380D01*
X133865952Y-76652380D01*
X134723095Y-76652380D02*
X134151666Y-76652380D01*
X134437380Y-76652380D02*
X134437380Y-75652380D01*
X134342142Y-75795238D01*
X134246904Y-75890476D01*
X134151666Y-75938095D01*
X135675476Y-76652380D02*
X135104047Y-76652380D01*
X135389761Y-76652380D02*
X135389761Y-75652380D01*
X135294523Y-75795238D01*
X135199285Y-75890476D01*
X135104047Y-75938095D01*
X132746904Y-94432380D02*
X132746904Y-93432380D01*
X133127857Y-93432380D01*
X133223095Y-93480000D01*
X133270714Y-93527619D01*
X133318333Y-93622857D01*
X133318333Y-93765714D01*
X133270714Y-93860952D01*
X133223095Y-93908571D01*
X133127857Y-93956190D01*
X132746904Y-93956190D01*
X134080238Y-93908571D02*
X134223095Y-93956190D01*
X134270714Y-94003809D01*
X134318333Y-94099047D01*
X134318333Y-94241904D01*
X134270714Y-94337142D01*
X134223095Y-94384761D01*
X134127857Y-94432380D01*
X133746904Y-94432380D01*
X133746904Y-93432380D01*
X134080238Y-93432380D01*
X134175476Y-93480000D01*
X134223095Y-93527619D01*
X134270714Y-93622857D01*
X134270714Y-93718095D01*
X134223095Y-93813333D01*
X134175476Y-93860952D01*
X134080238Y-93908571D01*
X133746904Y-93908571D01*
X135223095Y-93432380D02*
X134746904Y-93432380D01*
X134699285Y-93908571D01*
X134746904Y-93860952D01*
X134842142Y-93813333D01*
X135080238Y-93813333D01*
X135175476Y-93860952D01*
X135223095Y-93908571D01*
X135270714Y-94003809D01*
X135270714Y-94241904D01*
X135223095Y-94337142D01*
X135175476Y-94384761D01*
X135080238Y-94432380D01*
X134842142Y-94432380D01*
X134746904Y-94384761D01*
X134699285Y-94337142D01*
X132746904Y-91892380D02*
X132746904Y-90892380D01*
X133127857Y-90892380D01*
X133223095Y-90940000D01*
X133270714Y-90987619D01*
X133318333Y-91082857D01*
X133318333Y-91225714D01*
X133270714Y-91320952D01*
X133223095Y-91368571D01*
X133127857Y-91416190D01*
X132746904Y-91416190D01*
X134080238Y-91368571D02*
X134223095Y-91416190D01*
X134270714Y-91463809D01*
X134318333Y-91559047D01*
X134318333Y-91701904D01*
X134270714Y-91797142D01*
X134223095Y-91844761D01*
X134127857Y-91892380D01*
X133746904Y-91892380D01*
X133746904Y-90892380D01*
X134080238Y-90892380D01*
X134175476Y-90940000D01*
X134223095Y-90987619D01*
X134270714Y-91082857D01*
X134270714Y-91178095D01*
X134223095Y-91273333D01*
X134175476Y-91320952D01*
X134080238Y-91368571D01*
X133746904Y-91368571D01*
X135175476Y-91225714D02*
X135175476Y-91892380D01*
X134937380Y-90844761D02*
X134699285Y-91559047D01*
X135318333Y-91559047D01*
X132746904Y-96972380D02*
X132746904Y-95972380D01*
X133127857Y-95972380D01*
X133223095Y-96020000D01*
X133270714Y-96067619D01*
X133318333Y-96162857D01*
X133318333Y-96305714D01*
X133270714Y-96400952D01*
X133223095Y-96448571D01*
X133127857Y-96496190D01*
X132746904Y-96496190D01*
X134080238Y-96448571D02*
X134223095Y-96496190D01*
X134270714Y-96543809D01*
X134318333Y-96639047D01*
X134318333Y-96781904D01*
X134270714Y-96877142D01*
X134223095Y-96924761D01*
X134127857Y-96972380D01*
X133746904Y-96972380D01*
X133746904Y-95972380D01*
X134080238Y-95972380D01*
X134175476Y-96020000D01*
X134223095Y-96067619D01*
X134270714Y-96162857D01*
X134270714Y-96258095D01*
X134223095Y-96353333D01*
X134175476Y-96400952D01*
X134080238Y-96448571D01*
X133746904Y-96448571D01*
X135175476Y-95972380D02*
X134985000Y-95972380D01*
X134889761Y-96020000D01*
X134842142Y-96067619D01*
X134746904Y-96210476D01*
X134699285Y-96400952D01*
X134699285Y-96781904D01*
X134746904Y-96877142D01*
X134794523Y-96924761D01*
X134889761Y-96972380D01*
X135080238Y-96972380D01*
X135175476Y-96924761D01*
X135223095Y-96877142D01*
X135270714Y-96781904D01*
X135270714Y-96543809D01*
X135223095Y-96448571D01*
X135175476Y-96400952D01*
X135080238Y-96353333D01*
X134889761Y-96353333D01*
X134794523Y-96400952D01*
X134746904Y-96448571D01*
X134699285Y-96543809D01*
X132746904Y-99512380D02*
X132746904Y-98512380D01*
X133127857Y-98512380D01*
X133223095Y-98560000D01*
X133270714Y-98607619D01*
X133318333Y-98702857D01*
X133318333Y-98845714D01*
X133270714Y-98940952D01*
X133223095Y-98988571D01*
X133127857Y-99036190D01*
X132746904Y-99036190D01*
X134080238Y-98988571D02*
X134223095Y-99036190D01*
X134270714Y-99083809D01*
X134318333Y-99179047D01*
X134318333Y-99321904D01*
X134270714Y-99417142D01*
X134223095Y-99464761D01*
X134127857Y-99512380D01*
X133746904Y-99512380D01*
X133746904Y-98512380D01*
X134080238Y-98512380D01*
X134175476Y-98560000D01*
X134223095Y-98607619D01*
X134270714Y-98702857D01*
X134270714Y-98798095D01*
X134223095Y-98893333D01*
X134175476Y-98940952D01*
X134080238Y-98988571D01*
X133746904Y-98988571D01*
X134651666Y-98512380D02*
X135318333Y-98512380D01*
X134889761Y-99512380D01*
X163012380Y-53228809D02*
X162012380Y-53228809D01*
X162012380Y-52562142D02*
X162012380Y-52371666D01*
X162060000Y-52276428D01*
X162155238Y-52181190D01*
X162345714Y-52133571D01*
X162679047Y-52133571D01*
X162869523Y-52181190D01*
X162964761Y-52276428D01*
X163012380Y-52371666D01*
X163012380Y-52562142D01*
X162964761Y-52657380D01*
X162869523Y-52752619D01*
X162679047Y-52800238D01*
X162345714Y-52800238D01*
X162155238Y-52752619D01*
X162060000Y-52657380D01*
X162012380Y-52562142D01*
X157837142Y-53300238D02*
X157884761Y-53347857D01*
X157932380Y-53490714D01*
X157932380Y-53585952D01*
X157884761Y-53728809D01*
X157789523Y-53824047D01*
X157694285Y-53871666D01*
X157503809Y-53919285D01*
X157360952Y-53919285D01*
X157170476Y-53871666D01*
X157075238Y-53824047D01*
X156980000Y-53728809D01*
X156932380Y-53585952D01*
X156932380Y-53490714D01*
X156980000Y-53347857D01*
X157027619Y-53300238D01*
X157932380Y-52395476D02*
X157932380Y-52871666D01*
X156932380Y-52871666D01*
X157932380Y-52062142D02*
X156932380Y-52062142D01*
X157932380Y-51490714D02*
X157360952Y-51919285D01*
X156932380Y-51490714D02*
X157503809Y-52062142D01*
X159520000Y-53466904D02*
X159472380Y-53562142D01*
X159472380Y-53705000D01*
X159520000Y-53847857D01*
X159615238Y-53943095D01*
X159710476Y-53990714D01*
X159900952Y-54038333D01*
X160043809Y-54038333D01*
X160234285Y-53990714D01*
X160329523Y-53943095D01*
X160424761Y-53847857D01*
X160472380Y-53705000D01*
X160472380Y-53609761D01*
X160424761Y-53466904D01*
X160377142Y-53419285D01*
X160043809Y-53419285D01*
X160043809Y-53609761D01*
X160472380Y-52990714D02*
X159472380Y-52990714D01*
X160472380Y-52419285D01*
X159472380Y-52419285D01*
X160472380Y-51943095D02*
X159472380Y-51943095D01*
X159472380Y-51705000D01*
X159520000Y-51562142D01*
X159615238Y-51466904D01*
X159710476Y-51419285D01*
X159900952Y-51371666D01*
X160043809Y-51371666D01*
X160234285Y-51419285D01*
X160329523Y-51466904D01*
X160424761Y-51562142D01*
X160472380Y-51705000D01*
X160472380Y-51943095D01*
X154392380Y-54038333D02*
X155392380Y-53705000D01*
X154392380Y-53371666D01*
X155392380Y-53038333D02*
X154392380Y-53038333D01*
X154392380Y-52800238D01*
X154440000Y-52657380D01*
X154535238Y-52562142D01*
X154630476Y-52514523D01*
X154820952Y-52466904D01*
X154963809Y-52466904D01*
X155154285Y-52514523D01*
X155249523Y-52562142D01*
X155344761Y-52657380D01*
X155392380Y-52800238D01*
X155392380Y-53038333D01*
X155392380Y-52038333D02*
X154392380Y-52038333D01*
X154392380Y-51800238D01*
X154440000Y-51657380D01*
X154535238Y-51562142D01*
X154630476Y-51514523D01*
X154820952Y-51466904D01*
X154963809Y-51466904D01*
X155154285Y-51514523D01*
X155249523Y-51562142D01*
X155344761Y-51657380D01*
X155392380Y-51800238D01*
X155392380Y-52038333D01*
X151852380Y-52895476D02*
X151852380Y-53371666D01*
X152328571Y-53419285D01*
X152280952Y-53371666D01*
X152233333Y-53276428D01*
X152233333Y-53038333D01*
X152280952Y-52943095D01*
X152328571Y-52895476D01*
X152423809Y-52847857D01*
X152661904Y-52847857D01*
X152757142Y-52895476D01*
X152804761Y-52943095D01*
X152852380Y-53038333D01*
X152852380Y-53276428D01*
X152804761Y-53371666D01*
X152757142Y-53419285D01*
X151852380Y-52562142D02*
X152852380Y-52228809D01*
X151852380Y-51895476D01*
X132746904Y-102052380D02*
X132746904Y-101052380D01*
X133127857Y-101052380D01*
X133223095Y-101100000D01*
X133270714Y-101147619D01*
X133318333Y-101242857D01*
X133318333Y-101385714D01*
X133270714Y-101480952D01*
X133223095Y-101528571D01*
X133127857Y-101576190D01*
X132746904Y-101576190D01*
X134080238Y-101528571D02*
X134223095Y-101576190D01*
X134270714Y-101623809D01*
X134318333Y-101719047D01*
X134318333Y-101861904D01*
X134270714Y-101957142D01*
X134223095Y-102004761D01*
X134127857Y-102052380D01*
X133746904Y-102052380D01*
X133746904Y-101052380D01*
X134080238Y-101052380D01*
X134175476Y-101100000D01*
X134223095Y-101147619D01*
X134270714Y-101242857D01*
X134270714Y-101338095D01*
X134223095Y-101433333D01*
X134175476Y-101480952D01*
X134080238Y-101528571D01*
X133746904Y-101528571D01*
X134889761Y-101480952D02*
X134794523Y-101433333D01*
X134746904Y-101385714D01*
X134699285Y-101290476D01*
X134699285Y-101242857D01*
X134746904Y-101147619D01*
X134794523Y-101100000D01*
X134889761Y-101052380D01*
X135080238Y-101052380D01*
X135175476Y-101100000D01*
X135223095Y-101147619D01*
X135270714Y-101242857D01*
X135270714Y-101290476D01*
X135223095Y-101385714D01*
X135175476Y-101433333D01*
X135080238Y-101480952D01*
X134889761Y-101480952D01*
X134794523Y-101528571D01*
X134746904Y-101576190D01*
X134699285Y-101671428D01*
X134699285Y-101861904D01*
X134746904Y-101957142D01*
X134794523Y-102004761D01*
X134889761Y-102052380D01*
X135080238Y-102052380D01*
X135175476Y-102004761D01*
X135223095Y-101957142D01*
X135270714Y-101861904D01*
X135270714Y-101671428D01*
X135223095Y-101576190D01*
X135175476Y-101528571D01*
X135080238Y-101480952D01*
X132746904Y-104592380D02*
X132746904Y-103592380D01*
X133127857Y-103592380D01*
X133223095Y-103640000D01*
X133270714Y-103687619D01*
X133318333Y-103782857D01*
X133318333Y-103925714D01*
X133270714Y-104020952D01*
X133223095Y-104068571D01*
X133127857Y-104116190D01*
X132746904Y-104116190D01*
X134080238Y-104068571D02*
X134223095Y-104116190D01*
X134270714Y-104163809D01*
X134318333Y-104259047D01*
X134318333Y-104401904D01*
X134270714Y-104497142D01*
X134223095Y-104544761D01*
X134127857Y-104592380D01*
X133746904Y-104592380D01*
X133746904Y-103592380D01*
X134080238Y-103592380D01*
X134175476Y-103640000D01*
X134223095Y-103687619D01*
X134270714Y-103782857D01*
X134270714Y-103878095D01*
X134223095Y-103973333D01*
X134175476Y-104020952D01*
X134080238Y-104068571D01*
X133746904Y-104068571D01*
X134794523Y-104592380D02*
X134985000Y-104592380D01*
X135080238Y-104544761D01*
X135127857Y-104497142D01*
X135223095Y-104354285D01*
X135270714Y-104163809D01*
X135270714Y-103782857D01*
X135223095Y-103687619D01*
X135175476Y-103640000D01*
X135080238Y-103592380D01*
X134889761Y-103592380D01*
X134794523Y-103640000D01*
X134746904Y-103687619D01*
X134699285Y-103782857D01*
X134699285Y-104020952D01*
X134746904Y-104116190D01*
X134794523Y-104163809D01*
X134889761Y-104211428D01*
X135080238Y-104211428D01*
X135175476Y-104163809D01*
X135223095Y-104116190D01*
X135270714Y-104020952D01*
D11*
X151765000Y-87630000D02*
G75*
G03X151765000Y-87630000I-635000J0D01*
G01*
D12*
X142980000Y-57010000D02*
X141980000Y-57010000D01*
X146580000Y-57010000D02*
X147580000Y-57010000D01*
X146580000Y-57435000D02*
X146580000Y-57010000D01*
X145855000Y-57435000D02*
X146580000Y-57435000D01*
X140630000Y-53860000D02*
X140630000Y-55260000D01*
X140630000Y-51310000D02*
X140630000Y-51460000D01*
X140930000Y-51310000D02*
X140630000Y-51310000D01*
X140930000Y-50860000D02*
X140930000Y-51310000D01*
X148630000Y-51310000D02*
X148630000Y-50860000D01*
X148930000Y-51310000D02*
X148630000Y-51310000D01*
X148930000Y-51460000D02*
X148930000Y-51310000D01*
X148930000Y-55260000D02*
X148930000Y-53860000D01*
D13*
X158850000Y-92180000D02*
X153100000Y-92180000D01*
X153100000Y-92180000D02*
X153100000Y-95780000D01*
X153100000Y-95780000D02*
X158850000Y-95780000D01*
X148040000Y-91125000D02*
X149140000Y-91125000D01*
X148040000Y-93025000D02*
X149140000Y-93025000D01*
X146640000Y-91175000D02*
X146640000Y-92975000D01*
D12*
X157635000Y-67540000D02*
G75*
G03X157635000Y-67540000I-1000000J0D01*
G01*
X154635000Y-65540000D02*
X158635000Y-65540000D01*
X154635000Y-69540000D02*
X154635000Y-65540000D01*
X158635000Y-69540000D02*
X154635000Y-69540000D01*
X158635000Y-65540000D02*
X158635000Y-69540000D01*
D13*
X149150000Y-95293922D02*
X149150000Y-95811078D01*
X150570000Y-95293922D02*
X150570000Y-95811078D01*
X148030000Y-95293922D02*
X148030000Y-95811078D01*
X146610000Y-95293922D02*
X146610000Y-95811078D01*
X158676078Y-96445000D02*
X158158922Y-96445000D01*
X158676078Y-97865000D02*
X158158922Y-97865000D01*
X153586922Y-96445000D02*
X154104078Y-96445000D01*
X153586922Y-97865000D02*
X154104078Y-97865000D01*
X159445000Y-62090000D02*
X159445000Y-61267530D01*
X159445000Y-59382470D02*
X159445000Y-58560000D01*
X159445000Y-60652470D02*
X159445000Y-59997530D01*
X154430000Y-62090000D02*
X159445000Y-62090000D01*
X152975000Y-58560000D02*
X159445000Y-58560000D01*
X154430000Y-62090000D02*
X154430000Y-61523471D01*
X154430000Y-60396529D02*
X154430000Y-60253471D01*
X154376529Y-60200000D02*
X154233471Y-60200000D01*
X153106529Y-60200000D02*
X152975000Y-60200000D01*
X152975000Y-60200000D02*
X152975000Y-59997530D01*
X152975000Y-59382470D02*
X152975000Y-58560000D01*
X153670000Y-62090000D02*
X152910000Y-62090000D01*
X152910000Y-62090000D02*
X152910000Y-60960000D01*
X155120078Y-73862000D02*
X154602922Y-73862000D01*
X155120078Y-72442000D02*
X154602922Y-72442000D01*
X144100578Y-65330000D02*
X143583422Y-65330000D01*
X144100578Y-66750000D02*
X143583422Y-66750000D01*
X144100578Y-69290000D02*
X143583422Y-69290000D01*
X144100578Y-67870000D02*
X143583422Y-67870000D01*
X143583422Y-72950000D02*
X144100578Y-72950000D01*
X143583422Y-74370000D02*
X144100578Y-74370000D01*
X143583422Y-70410000D02*
X144100578Y-70410000D01*
X143583422Y-71830000D02*
X144100578Y-71830000D01*
X138370000Y-59630000D02*
X139700000Y-59630000D01*
X138370000Y-60960000D02*
X138370000Y-59630000D01*
X138370000Y-62230000D02*
X141030000Y-62230000D01*
X141030000Y-62230000D02*
X141030000Y-64830000D01*
X138370000Y-62230000D02*
X138370000Y-64830000D01*
X138370000Y-64830000D02*
X141030000Y-64830000D01*
X161230000Y-64830000D02*
X163890000Y-64830000D01*
X161230000Y-62230000D02*
X161230000Y-64830000D01*
X163890000Y-62230000D02*
X163890000Y-64830000D01*
X161230000Y-62230000D02*
X163890000Y-62230000D01*
X161230000Y-60960000D02*
X161230000Y-59630000D01*
X161230000Y-59630000D02*
X162560000Y-59630000D01*
X151070000Y-54550000D02*
X151070000Y-57210000D01*
X161290000Y-54550000D02*
X151070000Y-54550000D01*
X161290000Y-57210000D02*
X151070000Y-57210000D01*
X161290000Y-54550000D02*
X161290000Y-57210000D01*
X162560000Y-54550000D02*
X163890000Y-54550000D01*
X163890000Y-54550000D02*
X163890000Y-55880000D01*
X142157000Y-61920000D02*
X144842000Y-61920000D01*
X142157000Y-60000000D02*
X142157000Y-61920000D01*
X144842000Y-60000000D02*
X142157000Y-60000000D01*
X144842000Y-62540000D02*
X142157000Y-62540000D01*
X142157000Y-62540000D02*
X142157000Y-64460000D01*
X142157000Y-64460000D02*
X144842000Y-64460000D01*
X151252000Y-61200000D02*
X150322000Y-61200000D01*
X148092000Y-61200000D02*
X149022000Y-61200000D01*
X148092000Y-61200000D02*
X148092000Y-63360000D01*
X151252000Y-61200000D02*
X151252000Y-62660000D01*
X163770000Y-105470000D02*
X166430000Y-105470000D01*
X163770000Y-57150000D02*
X163770000Y-105470000D01*
X166430000Y-57150000D02*
X166430000Y-105470000D01*
X163770000Y-57150000D02*
X166430000Y-57150000D01*
X163770000Y-55880000D02*
X163770000Y-54550000D01*
X163770000Y-54550000D02*
X165100000Y-54550000D01*
X135830000Y-105470000D02*
X138490000Y-105470000D01*
X135830000Y-57150000D02*
X135830000Y-105470000D01*
X138490000Y-57150000D02*
X138490000Y-105470000D01*
X135830000Y-57150000D02*
X138490000Y-57150000D01*
X135830000Y-55880000D02*
X135830000Y-54550000D01*
X135830000Y-54550000D02*
X137160000Y-54550000D01*
X149900000Y-81435000D02*
X150320000Y-81435000D01*
X157020000Y-81435000D02*
X156600000Y-81435000D01*
X157020000Y-88555000D02*
X156600000Y-88555000D01*
X149900000Y-88555000D02*
X149900000Y-88135000D01*
X157020000Y-81435000D02*
X157020000Y-81855000D01*
X149900000Y-81435000D02*
X149900000Y-81855000D01*
X150320000Y-88555000D02*
X150320000Y-89935000D01*
X149900000Y-88555000D02*
X150320000Y-88555000D01*
X157020000Y-88555000D02*
X157020000Y-88135000D01*
D12*
X144446666Y-57562380D02*
X144446666Y-58276666D01*
X144399047Y-58419523D01*
X144303809Y-58514761D01*
X144160952Y-58562380D01*
X144065714Y-58562380D01*
X144970476Y-58562380D02*
X145160952Y-58562380D01*
X145256190Y-58514761D01*
X145303809Y-58467142D01*
X145399047Y-58324285D01*
X145446666Y-58133809D01*
X145446666Y-57752857D01*
X145399047Y-57657619D01*
X145351428Y-57610000D01*
X145256190Y-57562380D01*
X145065714Y-57562380D01*
X144970476Y-57610000D01*
X144922857Y-57657619D01*
X144875238Y-57752857D01*
X144875238Y-57990952D01*
X144922857Y-58086190D01*
X144970476Y-58133809D01*
X145065714Y-58181428D01*
X145256190Y-58181428D01*
X145351428Y-58133809D01*
X145399047Y-58086190D01*
X145446666Y-57990952D01*
X155673809Y-91156190D02*
X155673809Y-91632380D01*
X155340476Y-90632380D02*
X155673809Y-91156190D01*
X156007142Y-90632380D01*
X156864285Y-91632380D02*
X156292857Y-91632380D01*
X156578571Y-91632380D02*
X156578571Y-90632380D01*
X156483333Y-90775238D01*
X156388095Y-90870476D01*
X156292857Y-90918095D01*
X148113809Y-90101190D02*
X148113809Y-90577380D01*
X147780476Y-89577380D02*
X148113809Y-90101190D01*
X148447142Y-89577380D01*
X148732857Y-89672619D02*
X148780476Y-89625000D01*
X148875714Y-89577380D01*
X149113809Y-89577380D01*
X149209047Y-89625000D01*
X149256666Y-89672619D01*
X149304285Y-89767857D01*
X149304285Y-89863095D01*
X149256666Y-90005952D01*
X148685238Y-90577380D01*
X149304285Y-90577380D01*
X155301666Y-64944761D02*
X155444523Y-64992380D01*
X155682619Y-64992380D01*
X155777857Y-64944761D01*
X155825476Y-64897142D01*
X155873095Y-64801904D01*
X155873095Y-64706666D01*
X155825476Y-64611428D01*
X155777857Y-64563809D01*
X155682619Y-64516190D01*
X155492142Y-64468571D01*
X155396904Y-64420952D01*
X155349285Y-64373333D01*
X155301666Y-64278095D01*
X155301666Y-64182857D01*
X155349285Y-64087619D01*
X155396904Y-64040000D01*
X155492142Y-63992380D01*
X155730238Y-63992380D01*
X155873095Y-64040000D01*
X156206428Y-63992380D02*
X156444523Y-64992380D01*
X156635000Y-64278095D01*
X156825476Y-64992380D01*
X157063571Y-63992380D01*
X157968333Y-64992380D02*
X157396904Y-64992380D01*
X157682619Y-64992380D02*
X157682619Y-63992380D01*
X157587380Y-64135238D01*
X157492142Y-64230476D01*
X157396904Y-64278095D01*
X150217142Y-98591666D02*
X150264761Y-98639285D01*
X150312380Y-98782142D01*
X150312380Y-98877380D01*
X150264761Y-99020238D01*
X150169523Y-99115476D01*
X150074285Y-99163095D01*
X149883809Y-99210714D01*
X149740952Y-99210714D01*
X149550476Y-99163095D01*
X149455238Y-99115476D01*
X149360000Y-99020238D01*
X149312380Y-98877380D01*
X149312380Y-98782142D01*
X149360000Y-98639285D01*
X149407619Y-98591666D01*
X149645714Y-97734523D02*
X150312380Y-97734523D01*
X149264761Y-97972619D02*
X149979047Y-98210714D01*
X149979047Y-97591666D01*
X147677142Y-98591666D02*
X147724761Y-98639285D01*
X147772380Y-98782142D01*
X147772380Y-98877380D01*
X147724761Y-99020238D01*
X147629523Y-99115476D01*
X147534285Y-99163095D01*
X147343809Y-99210714D01*
X147200952Y-99210714D01*
X147010476Y-99163095D01*
X146915238Y-99115476D01*
X146820000Y-99020238D01*
X146772380Y-98877380D01*
X146772380Y-98782142D01*
X146820000Y-98639285D01*
X146867619Y-98591666D01*
X146772380Y-98258333D02*
X146772380Y-97639285D01*
X147153333Y-97972619D01*
X147153333Y-97829761D01*
X147200952Y-97734523D01*
X147248571Y-97686904D01*
X147343809Y-97639285D01*
X147581904Y-97639285D01*
X147677142Y-97686904D01*
X147724761Y-97734523D01*
X147772380Y-97829761D01*
X147772380Y-98115476D01*
X147724761Y-98210714D01*
X147677142Y-98258333D01*
X158250833Y-99417142D02*
X158203214Y-99464761D01*
X158060357Y-99512380D01*
X157965119Y-99512380D01*
X157822261Y-99464761D01*
X157727023Y-99369523D01*
X157679404Y-99274285D01*
X157631785Y-99083809D01*
X157631785Y-98940952D01*
X157679404Y-98750476D01*
X157727023Y-98655238D01*
X157822261Y-98560000D01*
X157965119Y-98512380D01*
X158060357Y-98512380D01*
X158203214Y-98560000D01*
X158250833Y-98607619D01*
X158631785Y-98607619D02*
X158679404Y-98560000D01*
X158774642Y-98512380D01*
X159012738Y-98512380D01*
X159107976Y-98560000D01*
X159155595Y-98607619D01*
X159203214Y-98702857D01*
X159203214Y-98798095D01*
X159155595Y-98940952D01*
X158584166Y-99512380D01*
X159203214Y-99512380D01*
X153678833Y-99417142D02*
X153631214Y-99464761D01*
X153488357Y-99512380D01*
X153393119Y-99512380D01*
X153250261Y-99464761D01*
X153155023Y-99369523D01*
X153107404Y-99274285D01*
X153059785Y-99083809D01*
X153059785Y-98940952D01*
X153107404Y-98750476D01*
X153155023Y-98655238D01*
X153250261Y-98560000D01*
X153393119Y-98512380D01*
X153488357Y-98512380D01*
X153631214Y-98560000D01*
X153678833Y-98607619D01*
X154631214Y-99512380D02*
X154059785Y-99512380D01*
X154345500Y-99512380D02*
X154345500Y-98512380D01*
X154250261Y-98655238D01*
X154155023Y-98750476D01*
X154059785Y-98798095D01*
X151427380Y-60658333D02*
X152141666Y-60658333D01*
X152284523Y-60705952D01*
X152379761Y-60801190D01*
X152427380Y-60944047D01*
X152427380Y-61039285D01*
X151760714Y-59753571D02*
X152427380Y-59753571D01*
X151379761Y-59991666D02*
X152094047Y-60229761D01*
X152094047Y-59610714D01*
X154773333Y-75382380D02*
X154440000Y-74906190D01*
X154201904Y-75382380D02*
X154201904Y-74382380D01*
X154582857Y-74382380D01*
X154678095Y-74430000D01*
X154725714Y-74477619D01*
X154773333Y-74572857D01*
X154773333Y-74715714D01*
X154725714Y-74810952D01*
X154678095Y-74858571D01*
X154582857Y-74906190D01*
X154201904Y-74906190D01*
X155725714Y-75382380D02*
X155154285Y-75382380D01*
X155440000Y-75382380D02*
X155440000Y-74382380D01*
X155344761Y-74525238D01*
X155249523Y-74620476D01*
X155154285Y-74668095D01*
X146518333Y-66397142D02*
X146470714Y-66444761D01*
X146327857Y-66492380D01*
X146232619Y-66492380D01*
X146089761Y-66444761D01*
X145994523Y-66349523D01*
X145946904Y-66254285D01*
X145899285Y-66063809D01*
X145899285Y-65920952D01*
X145946904Y-65730476D01*
X145994523Y-65635238D01*
X146089761Y-65540000D01*
X146232619Y-65492380D01*
X146327857Y-65492380D01*
X146470714Y-65540000D01*
X146518333Y-65587619D01*
X147375476Y-65492380D02*
X147185000Y-65492380D01*
X147089761Y-65540000D01*
X147042142Y-65587619D01*
X146946904Y-65730476D01*
X146899285Y-65920952D01*
X146899285Y-66301904D01*
X146946904Y-66397142D01*
X146994523Y-66444761D01*
X147089761Y-66492380D01*
X147280238Y-66492380D01*
X147375476Y-66444761D01*
X147423095Y-66397142D01*
X147470714Y-66301904D01*
X147470714Y-66063809D01*
X147423095Y-65968571D01*
X147375476Y-65920952D01*
X147280238Y-65873333D01*
X147089761Y-65873333D01*
X146994523Y-65920952D01*
X146946904Y-65968571D01*
X146899285Y-66063809D01*
X146518333Y-68937142D02*
X146470714Y-68984761D01*
X146327857Y-69032380D01*
X146232619Y-69032380D01*
X146089761Y-68984761D01*
X145994523Y-68889523D01*
X145946904Y-68794285D01*
X145899285Y-68603809D01*
X145899285Y-68460952D01*
X145946904Y-68270476D01*
X145994523Y-68175238D01*
X146089761Y-68080000D01*
X146232619Y-68032380D01*
X146327857Y-68032380D01*
X146470714Y-68080000D01*
X146518333Y-68127619D01*
X146851666Y-68032380D02*
X147518333Y-68032380D01*
X147089761Y-69032380D01*
X146518333Y-74017142D02*
X146470714Y-74064761D01*
X146327857Y-74112380D01*
X146232619Y-74112380D01*
X146089761Y-74064761D01*
X145994523Y-73969523D01*
X145946904Y-73874285D01*
X145899285Y-73683809D01*
X145899285Y-73540952D01*
X145946904Y-73350476D01*
X145994523Y-73255238D01*
X146089761Y-73160000D01*
X146232619Y-73112380D01*
X146327857Y-73112380D01*
X146470714Y-73160000D01*
X146518333Y-73207619D01*
X147423095Y-73112380D02*
X146946904Y-73112380D01*
X146899285Y-73588571D01*
X146946904Y-73540952D01*
X147042142Y-73493333D01*
X147280238Y-73493333D01*
X147375476Y-73540952D01*
X147423095Y-73588571D01*
X147470714Y-73683809D01*
X147470714Y-73921904D01*
X147423095Y-74017142D01*
X147375476Y-74064761D01*
X147280238Y-74112380D01*
X147042142Y-74112380D01*
X146946904Y-74064761D01*
X146899285Y-74017142D01*
X146518333Y-71572380D02*
X146185000Y-71096190D01*
X145946904Y-71572380D02*
X145946904Y-70572380D01*
X146327857Y-70572380D01*
X146423095Y-70620000D01*
X146470714Y-70667619D01*
X146518333Y-70762857D01*
X146518333Y-70905714D01*
X146470714Y-71000952D01*
X146423095Y-71048571D01*
X146327857Y-71096190D01*
X145946904Y-71096190D01*
X147375476Y-70905714D02*
X147375476Y-71572380D01*
X147137380Y-70524761D02*
X146899285Y-71239047D01*
X147518333Y-71239047D01*
X139366666Y-58082380D02*
X139366666Y-58796666D01*
X139319047Y-58939523D01*
X139223809Y-59034761D01*
X139080952Y-59082380D01*
X138985714Y-59082380D01*
X140366666Y-59082380D02*
X139795238Y-59082380D01*
X140080952Y-59082380D02*
X140080952Y-58082380D01*
X139985714Y-58225238D01*
X139890476Y-58320476D01*
X139795238Y-58368095D01*
X162226666Y-58082380D02*
X162226666Y-58796666D01*
X162179047Y-58939523D01*
X162083809Y-59034761D01*
X161940952Y-59082380D01*
X161845714Y-59082380D01*
X162655238Y-58177619D02*
X162702857Y-58130000D01*
X162798095Y-58082380D01*
X163036190Y-58082380D01*
X163131428Y-58130000D01*
X163179047Y-58177619D01*
X163226666Y-58272857D01*
X163226666Y-58368095D01*
X163179047Y-58510952D01*
X162607619Y-59082380D01*
X163226666Y-59082380D01*
X164342380Y-56213333D02*
X165056666Y-56213333D01*
X165199523Y-56260952D01*
X165294761Y-56356190D01*
X165342380Y-56499047D01*
X165342380Y-56594285D01*
X164342380Y-55832380D02*
X164342380Y-55165714D01*
X165342380Y-55594285D01*
X145946904Y-61412380D02*
X145946904Y-60412380D01*
X146185000Y-60412380D01*
X146327857Y-60460000D01*
X146423095Y-60555238D01*
X146470714Y-60650476D01*
X146518333Y-60840952D01*
X146518333Y-60983809D01*
X146470714Y-61174285D01*
X146423095Y-61269523D01*
X146327857Y-61364761D01*
X146185000Y-61412380D01*
X145946904Y-61412380D01*
X146899285Y-60507619D02*
X146946904Y-60460000D01*
X147042142Y-60412380D01*
X147280238Y-60412380D01*
X147375476Y-60460000D01*
X147423095Y-60507619D01*
X147470714Y-60602857D01*
X147470714Y-60698095D01*
X147423095Y-60840952D01*
X146851666Y-61412380D01*
X147470714Y-61412380D01*
X145946904Y-63952380D02*
X145946904Y-62952380D01*
X146185000Y-62952380D01*
X146327857Y-63000000D01*
X146423095Y-63095238D01*
X146470714Y-63190476D01*
X146518333Y-63380952D01*
X146518333Y-63523809D01*
X146470714Y-63714285D01*
X146423095Y-63809523D01*
X146327857Y-63904761D01*
X146185000Y-63952380D01*
X145946904Y-63952380D01*
X147470714Y-63952380D02*
X146899285Y-63952380D01*
X147185000Y-63952380D02*
X147185000Y-62952380D01*
X147089761Y-63095238D01*
X146994523Y-63190476D01*
X146899285Y-63238095D01*
X149098095Y-64095380D02*
X149098095Y-64904904D01*
X149145714Y-65000142D01*
X149193333Y-65047761D01*
X149288571Y-65095380D01*
X149479047Y-65095380D01*
X149574285Y-65047761D01*
X149621904Y-65000142D01*
X149669523Y-64904904D01*
X149669523Y-64095380D01*
X150098095Y-64190619D02*
X150145714Y-64143000D01*
X150240952Y-64095380D01*
X150479047Y-64095380D01*
X150574285Y-64143000D01*
X150621904Y-64190619D01*
X150669523Y-64285857D01*
X150669523Y-64381095D01*
X150621904Y-64523952D01*
X150050476Y-65095380D01*
X150669523Y-65095380D01*
X164766666Y-53002380D02*
X164766666Y-53716666D01*
X164719047Y-53859523D01*
X164623809Y-53954761D01*
X164480952Y-54002380D01*
X164385714Y-54002380D01*
X165671428Y-53002380D02*
X165480952Y-53002380D01*
X165385714Y-53050000D01*
X165338095Y-53097619D01*
X165242857Y-53240476D01*
X165195238Y-53430952D01*
X165195238Y-53811904D01*
X165242857Y-53907142D01*
X165290476Y-53954761D01*
X165385714Y-54002380D01*
X165576190Y-54002380D01*
X165671428Y-53954761D01*
X165719047Y-53907142D01*
X165766666Y-53811904D01*
X165766666Y-53573809D01*
X165719047Y-53478571D01*
X165671428Y-53430952D01*
X165576190Y-53383333D01*
X165385714Y-53383333D01*
X165290476Y-53430952D01*
X165242857Y-53478571D01*
X165195238Y-53573809D01*
X136826666Y-53002380D02*
X136826666Y-53716666D01*
X136779047Y-53859523D01*
X136683809Y-53954761D01*
X136540952Y-54002380D01*
X136445714Y-54002380D01*
X137207619Y-53002380D02*
X137826666Y-53002380D01*
X137493333Y-53383333D01*
X137636190Y-53383333D01*
X137731428Y-53430952D01*
X137779047Y-53478571D01*
X137826666Y-53573809D01*
X137826666Y-53811904D01*
X137779047Y-53907142D01*
X137731428Y-53954761D01*
X137636190Y-54002380D01*
X137350476Y-54002380D01*
X137255238Y-53954761D01*
X137207619Y-53907142D01*
X152698095Y-78097380D02*
X152698095Y-78906904D01*
X152745714Y-79002142D01*
X152793333Y-79049761D01*
X152888571Y-79097380D01*
X153079047Y-79097380D01*
X153174285Y-79049761D01*
X153221904Y-79002142D01*
X153269523Y-78906904D01*
X153269523Y-78097380D01*
X154269523Y-79097380D02*
X153698095Y-79097380D01*
X153983809Y-79097380D02*
X153983809Y-78097380D01*
X153888571Y-78240238D01*
X153793333Y-78335476D01*
X153698095Y-78383095D01*
M02*
