G04 #@! TF.GenerationSoftware,KiCad,Pcbnew,5.1.4*
G04 #@! TF.CreationDate,2019-11-03T23:23:53+01:00*
G04 #@! TF.ProjectId,stm32XxxxCx_board,73746d33-3258-4787-9878-43785f626f61,rev?*
G04 #@! TF.SameCoordinates,Original*
G04 #@! TF.FileFunction,Copper,L2,Bot*
G04 #@! TF.FilePolarity,Positive*
%FSLAX46Y46*%
G04 Gerber Fmt 4.6, Leading zero omitted, Abs format (unit mm)*
G04 Created by KiCad (PCBNEW 5.1.4) date 2019-11-03 23:23:53*
%MOMM*%
%LPD*%
G04 APERTURE LIST*
%ADD10R,2.500000X5.100000*%
%ADD11C,10.200000*%
%ADD12O,1.150000X1.800000*%
%ADD13O,1.450000X2.000000*%
%ADD14C,0.100000*%
%ADD15C,0.975000*%
%ADD16R,1.000000X1.000000*%
%ADD17O,1.000000X1.000000*%
%ADD18C,0.500000*%
%ADD19R,1.000000X1.500000*%
%ADD20R,1.500000X1.000000*%
%ADD21O,1.700000X1.700000*%
%ADD22R,1.700000X1.700000*%
%ADD23C,0.600000*%
%ADD24C,0.250000*%
%ADD25C,0.200000*%
%ADD26C,0.254000*%
G04 APERTURE END LIST*
D10*
X158730000Y-102870000D03*
X143530000Y-102870000D03*
D11*
X151130000Y-102870000D03*
D12*
X140905000Y-52660000D03*
X148655000Y-52660000D03*
D13*
X141055000Y-56460000D03*
X148505000Y-56460000D03*
D14*
G36*
X157082642Y-92646174D02*
G01*
X157106303Y-92649684D01*
X157129507Y-92655496D01*
X157152029Y-92663554D01*
X157173653Y-92673782D01*
X157194170Y-92686079D01*
X157213383Y-92700329D01*
X157231107Y-92716393D01*
X157247171Y-92734117D01*
X157261421Y-92753330D01*
X157273718Y-92773847D01*
X157283946Y-92795471D01*
X157292004Y-92817993D01*
X157297816Y-92841197D01*
X157301326Y-92864858D01*
X157302500Y-92888750D01*
X157302500Y-93801250D01*
X157301326Y-93825142D01*
X157297816Y-93848803D01*
X157292004Y-93872007D01*
X157283946Y-93894529D01*
X157273718Y-93916153D01*
X157261421Y-93936670D01*
X157247171Y-93955883D01*
X157231107Y-93973607D01*
X157213383Y-93989671D01*
X157194170Y-94003921D01*
X157173653Y-94016218D01*
X157152029Y-94026446D01*
X157129507Y-94034504D01*
X157106303Y-94040316D01*
X157082642Y-94043826D01*
X157058750Y-94045000D01*
X156571250Y-94045000D01*
X156547358Y-94043826D01*
X156523697Y-94040316D01*
X156500493Y-94034504D01*
X156477971Y-94026446D01*
X156456347Y-94016218D01*
X156435830Y-94003921D01*
X156416617Y-93989671D01*
X156398893Y-93973607D01*
X156382829Y-93955883D01*
X156368579Y-93936670D01*
X156356282Y-93916153D01*
X156346054Y-93894529D01*
X156337996Y-93872007D01*
X156332184Y-93848803D01*
X156328674Y-93825142D01*
X156327500Y-93801250D01*
X156327500Y-92888750D01*
X156328674Y-92864858D01*
X156332184Y-92841197D01*
X156337996Y-92817993D01*
X156346054Y-92795471D01*
X156356282Y-92773847D01*
X156368579Y-92753330D01*
X156382829Y-92734117D01*
X156398893Y-92716393D01*
X156416617Y-92700329D01*
X156435830Y-92686079D01*
X156456347Y-92673782D01*
X156477971Y-92663554D01*
X156500493Y-92655496D01*
X156523697Y-92649684D01*
X156547358Y-92646174D01*
X156571250Y-92645000D01*
X157058750Y-92645000D01*
X157082642Y-92646174D01*
X157082642Y-92646174D01*
G37*
D15*
X156815000Y-93345000D03*
D14*
G36*
X155207642Y-92646174D02*
G01*
X155231303Y-92649684D01*
X155254507Y-92655496D01*
X155277029Y-92663554D01*
X155298653Y-92673782D01*
X155319170Y-92686079D01*
X155338383Y-92700329D01*
X155356107Y-92716393D01*
X155372171Y-92734117D01*
X155386421Y-92753330D01*
X155398718Y-92773847D01*
X155408946Y-92795471D01*
X155417004Y-92817993D01*
X155422816Y-92841197D01*
X155426326Y-92864858D01*
X155427500Y-92888750D01*
X155427500Y-93801250D01*
X155426326Y-93825142D01*
X155422816Y-93848803D01*
X155417004Y-93872007D01*
X155408946Y-93894529D01*
X155398718Y-93916153D01*
X155386421Y-93936670D01*
X155372171Y-93955883D01*
X155356107Y-93973607D01*
X155338383Y-93989671D01*
X155319170Y-94003921D01*
X155298653Y-94016218D01*
X155277029Y-94026446D01*
X155254507Y-94034504D01*
X155231303Y-94040316D01*
X155207642Y-94043826D01*
X155183750Y-94045000D01*
X154696250Y-94045000D01*
X154672358Y-94043826D01*
X154648697Y-94040316D01*
X154625493Y-94034504D01*
X154602971Y-94026446D01*
X154581347Y-94016218D01*
X154560830Y-94003921D01*
X154541617Y-93989671D01*
X154523893Y-93973607D01*
X154507829Y-93955883D01*
X154493579Y-93936670D01*
X154481282Y-93916153D01*
X154471054Y-93894529D01*
X154462996Y-93872007D01*
X154457184Y-93848803D01*
X154453674Y-93825142D01*
X154452500Y-93801250D01*
X154452500Y-92888750D01*
X154453674Y-92864858D01*
X154457184Y-92841197D01*
X154462996Y-92817993D01*
X154471054Y-92795471D01*
X154481282Y-92773847D01*
X154493579Y-92753330D01*
X154507829Y-92734117D01*
X154523893Y-92716393D01*
X154541617Y-92700329D01*
X154560830Y-92686079D01*
X154581347Y-92673782D01*
X154602971Y-92663554D01*
X154625493Y-92655496D01*
X154648697Y-92649684D01*
X154672358Y-92646174D01*
X154696250Y-92645000D01*
X155183750Y-92645000D01*
X155207642Y-92646174D01*
X155207642Y-92646174D01*
G37*
D15*
X154940000Y-93345000D03*
D14*
G36*
X155207642Y-90741174D02*
G01*
X155231303Y-90744684D01*
X155254507Y-90750496D01*
X155277029Y-90758554D01*
X155298653Y-90768782D01*
X155319170Y-90781079D01*
X155338383Y-90795329D01*
X155356107Y-90811393D01*
X155372171Y-90829117D01*
X155386421Y-90848330D01*
X155398718Y-90868847D01*
X155408946Y-90890471D01*
X155417004Y-90912993D01*
X155422816Y-90936197D01*
X155426326Y-90959858D01*
X155427500Y-90983750D01*
X155427500Y-91896250D01*
X155426326Y-91920142D01*
X155422816Y-91943803D01*
X155417004Y-91967007D01*
X155408946Y-91989529D01*
X155398718Y-92011153D01*
X155386421Y-92031670D01*
X155372171Y-92050883D01*
X155356107Y-92068607D01*
X155338383Y-92084671D01*
X155319170Y-92098921D01*
X155298653Y-92111218D01*
X155277029Y-92121446D01*
X155254507Y-92129504D01*
X155231303Y-92135316D01*
X155207642Y-92138826D01*
X155183750Y-92140000D01*
X154696250Y-92140000D01*
X154672358Y-92138826D01*
X154648697Y-92135316D01*
X154625493Y-92129504D01*
X154602971Y-92121446D01*
X154581347Y-92111218D01*
X154560830Y-92098921D01*
X154541617Y-92084671D01*
X154523893Y-92068607D01*
X154507829Y-92050883D01*
X154493579Y-92031670D01*
X154481282Y-92011153D01*
X154471054Y-91989529D01*
X154462996Y-91967007D01*
X154457184Y-91943803D01*
X154453674Y-91920142D01*
X154452500Y-91896250D01*
X154452500Y-90983750D01*
X154453674Y-90959858D01*
X154457184Y-90936197D01*
X154462996Y-90912993D01*
X154471054Y-90890471D01*
X154481282Y-90868847D01*
X154493579Y-90848330D01*
X154507829Y-90829117D01*
X154523893Y-90811393D01*
X154541617Y-90795329D01*
X154560830Y-90781079D01*
X154581347Y-90768782D01*
X154602971Y-90758554D01*
X154625493Y-90750496D01*
X154648697Y-90744684D01*
X154672358Y-90741174D01*
X154696250Y-90740000D01*
X155183750Y-90740000D01*
X155207642Y-90741174D01*
X155207642Y-90741174D01*
G37*
D15*
X154940000Y-91440000D03*
D14*
G36*
X157082642Y-90741174D02*
G01*
X157106303Y-90744684D01*
X157129507Y-90750496D01*
X157152029Y-90758554D01*
X157173653Y-90768782D01*
X157194170Y-90781079D01*
X157213383Y-90795329D01*
X157231107Y-90811393D01*
X157247171Y-90829117D01*
X157261421Y-90848330D01*
X157273718Y-90868847D01*
X157283946Y-90890471D01*
X157292004Y-90912993D01*
X157297816Y-90936197D01*
X157301326Y-90959858D01*
X157302500Y-90983750D01*
X157302500Y-91896250D01*
X157301326Y-91920142D01*
X157297816Y-91943803D01*
X157292004Y-91967007D01*
X157283946Y-91989529D01*
X157273718Y-92011153D01*
X157261421Y-92031670D01*
X157247171Y-92050883D01*
X157231107Y-92068607D01*
X157213383Y-92084671D01*
X157194170Y-92098921D01*
X157173653Y-92111218D01*
X157152029Y-92121446D01*
X157129507Y-92129504D01*
X157106303Y-92135316D01*
X157082642Y-92138826D01*
X157058750Y-92140000D01*
X156571250Y-92140000D01*
X156547358Y-92138826D01*
X156523697Y-92135316D01*
X156500493Y-92129504D01*
X156477971Y-92121446D01*
X156456347Y-92111218D01*
X156435830Y-92098921D01*
X156416617Y-92084671D01*
X156398893Y-92068607D01*
X156382829Y-92050883D01*
X156368579Y-92031670D01*
X156356282Y-92011153D01*
X156346054Y-91989529D01*
X156337996Y-91967007D01*
X156332184Y-91943803D01*
X156328674Y-91920142D01*
X156327500Y-91896250D01*
X156327500Y-90983750D01*
X156328674Y-90959858D01*
X156332184Y-90936197D01*
X156337996Y-90912993D01*
X156346054Y-90890471D01*
X156356282Y-90868847D01*
X156368579Y-90848330D01*
X156382829Y-90829117D01*
X156398893Y-90811393D01*
X156416617Y-90795329D01*
X156435830Y-90781079D01*
X156456347Y-90768782D01*
X156477971Y-90758554D01*
X156500493Y-90750496D01*
X156523697Y-90744684D01*
X156547358Y-90741174D01*
X156571250Y-90740000D01*
X157058750Y-90740000D01*
X157082642Y-90741174D01*
X157082642Y-90741174D01*
G37*
D15*
X156815000Y-91440000D03*
D14*
G36*
X158382642Y-78041174D02*
G01*
X158406303Y-78044684D01*
X158429507Y-78050496D01*
X158452029Y-78058554D01*
X158473653Y-78068782D01*
X158494170Y-78081079D01*
X158513383Y-78095329D01*
X158531107Y-78111393D01*
X158547171Y-78129117D01*
X158561421Y-78148330D01*
X158573718Y-78168847D01*
X158583946Y-78190471D01*
X158592004Y-78212993D01*
X158597816Y-78236197D01*
X158601326Y-78259858D01*
X158602500Y-78283750D01*
X158602500Y-79196250D01*
X158601326Y-79220142D01*
X158597816Y-79243803D01*
X158592004Y-79267007D01*
X158583946Y-79289529D01*
X158573718Y-79311153D01*
X158561421Y-79331670D01*
X158547171Y-79350883D01*
X158531107Y-79368607D01*
X158513383Y-79384671D01*
X158494170Y-79398921D01*
X158473653Y-79411218D01*
X158452029Y-79421446D01*
X158429507Y-79429504D01*
X158406303Y-79435316D01*
X158382642Y-79438826D01*
X158358750Y-79440000D01*
X157871250Y-79440000D01*
X157847358Y-79438826D01*
X157823697Y-79435316D01*
X157800493Y-79429504D01*
X157777971Y-79421446D01*
X157756347Y-79411218D01*
X157735830Y-79398921D01*
X157716617Y-79384671D01*
X157698893Y-79368607D01*
X157682829Y-79350883D01*
X157668579Y-79331670D01*
X157656282Y-79311153D01*
X157646054Y-79289529D01*
X157637996Y-79267007D01*
X157632184Y-79243803D01*
X157628674Y-79220142D01*
X157627500Y-79196250D01*
X157627500Y-78283750D01*
X157628674Y-78259858D01*
X157632184Y-78236197D01*
X157637996Y-78212993D01*
X157646054Y-78190471D01*
X157656282Y-78168847D01*
X157668579Y-78148330D01*
X157682829Y-78129117D01*
X157698893Y-78111393D01*
X157716617Y-78095329D01*
X157735830Y-78081079D01*
X157756347Y-78068782D01*
X157777971Y-78058554D01*
X157800493Y-78050496D01*
X157823697Y-78044684D01*
X157847358Y-78041174D01*
X157871250Y-78040000D01*
X158358750Y-78040000D01*
X158382642Y-78041174D01*
X158382642Y-78041174D01*
G37*
D15*
X158115000Y-78740000D03*
D14*
G36*
X160257642Y-78041174D02*
G01*
X160281303Y-78044684D01*
X160304507Y-78050496D01*
X160327029Y-78058554D01*
X160348653Y-78068782D01*
X160369170Y-78081079D01*
X160388383Y-78095329D01*
X160406107Y-78111393D01*
X160422171Y-78129117D01*
X160436421Y-78148330D01*
X160448718Y-78168847D01*
X160458946Y-78190471D01*
X160467004Y-78212993D01*
X160472816Y-78236197D01*
X160476326Y-78259858D01*
X160477500Y-78283750D01*
X160477500Y-79196250D01*
X160476326Y-79220142D01*
X160472816Y-79243803D01*
X160467004Y-79267007D01*
X160458946Y-79289529D01*
X160448718Y-79311153D01*
X160436421Y-79331670D01*
X160422171Y-79350883D01*
X160406107Y-79368607D01*
X160388383Y-79384671D01*
X160369170Y-79398921D01*
X160348653Y-79411218D01*
X160327029Y-79421446D01*
X160304507Y-79429504D01*
X160281303Y-79435316D01*
X160257642Y-79438826D01*
X160233750Y-79440000D01*
X159746250Y-79440000D01*
X159722358Y-79438826D01*
X159698697Y-79435316D01*
X159675493Y-79429504D01*
X159652971Y-79421446D01*
X159631347Y-79411218D01*
X159610830Y-79398921D01*
X159591617Y-79384671D01*
X159573893Y-79368607D01*
X159557829Y-79350883D01*
X159543579Y-79331670D01*
X159531282Y-79311153D01*
X159521054Y-79289529D01*
X159512996Y-79267007D01*
X159507184Y-79243803D01*
X159503674Y-79220142D01*
X159502500Y-79196250D01*
X159502500Y-78283750D01*
X159503674Y-78259858D01*
X159507184Y-78236197D01*
X159512996Y-78212993D01*
X159521054Y-78190471D01*
X159531282Y-78168847D01*
X159543579Y-78148330D01*
X159557829Y-78129117D01*
X159573893Y-78111393D01*
X159591617Y-78095329D01*
X159610830Y-78081079D01*
X159631347Y-78068782D01*
X159652971Y-78058554D01*
X159675493Y-78050496D01*
X159698697Y-78044684D01*
X159722358Y-78041174D01*
X159746250Y-78040000D01*
X160233750Y-78040000D01*
X160257642Y-78041174D01*
X160257642Y-78041174D01*
G37*
D15*
X159990000Y-78740000D03*
D14*
G36*
X160287642Y-79946174D02*
G01*
X160311303Y-79949684D01*
X160334507Y-79955496D01*
X160357029Y-79963554D01*
X160378653Y-79973782D01*
X160399170Y-79986079D01*
X160418383Y-80000329D01*
X160436107Y-80016393D01*
X160452171Y-80034117D01*
X160466421Y-80053330D01*
X160478718Y-80073847D01*
X160488946Y-80095471D01*
X160497004Y-80117993D01*
X160502816Y-80141197D01*
X160506326Y-80164858D01*
X160507500Y-80188750D01*
X160507500Y-81101250D01*
X160506326Y-81125142D01*
X160502816Y-81148803D01*
X160497004Y-81172007D01*
X160488946Y-81194529D01*
X160478718Y-81216153D01*
X160466421Y-81236670D01*
X160452171Y-81255883D01*
X160436107Y-81273607D01*
X160418383Y-81289671D01*
X160399170Y-81303921D01*
X160378653Y-81316218D01*
X160357029Y-81326446D01*
X160334507Y-81334504D01*
X160311303Y-81340316D01*
X160287642Y-81343826D01*
X160263750Y-81345000D01*
X159776250Y-81345000D01*
X159752358Y-81343826D01*
X159728697Y-81340316D01*
X159705493Y-81334504D01*
X159682971Y-81326446D01*
X159661347Y-81316218D01*
X159640830Y-81303921D01*
X159621617Y-81289671D01*
X159603893Y-81273607D01*
X159587829Y-81255883D01*
X159573579Y-81236670D01*
X159561282Y-81216153D01*
X159551054Y-81194529D01*
X159542996Y-81172007D01*
X159537184Y-81148803D01*
X159533674Y-81125142D01*
X159532500Y-81101250D01*
X159532500Y-80188750D01*
X159533674Y-80164858D01*
X159537184Y-80141197D01*
X159542996Y-80117993D01*
X159551054Y-80095471D01*
X159561282Y-80073847D01*
X159573579Y-80053330D01*
X159587829Y-80034117D01*
X159603893Y-80016393D01*
X159621617Y-80000329D01*
X159640830Y-79986079D01*
X159661347Y-79973782D01*
X159682971Y-79963554D01*
X159705493Y-79955496D01*
X159728697Y-79949684D01*
X159752358Y-79946174D01*
X159776250Y-79945000D01*
X160263750Y-79945000D01*
X160287642Y-79946174D01*
X160287642Y-79946174D01*
G37*
D15*
X160020000Y-80645000D03*
D14*
G36*
X158412642Y-79946174D02*
G01*
X158436303Y-79949684D01*
X158459507Y-79955496D01*
X158482029Y-79963554D01*
X158503653Y-79973782D01*
X158524170Y-79986079D01*
X158543383Y-80000329D01*
X158561107Y-80016393D01*
X158577171Y-80034117D01*
X158591421Y-80053330D01*
X158603718Y-80073847D01*
X158613946Y-80095471D01*
X158622004Y-80117993D01*
X158627816Y-80141197D01*
X158631326Y-80164858D01*
X158632500Y-80188750D01*
X158632500Y-81101250D01*
X158631326Y-81125142D01*
X158627816Y-81148803D01*
X158622004Y-81172007D01*
X158613946Y-81194529D01*
X158603718Y-81216153D01*
X158591421Y-81236670D01*
X158577171Y-81255883D01*
X158561107Y-81273607D01*
X158543383Y-81289671D01*
X158524170Y-81303921D01*
X158503653Y-81316218D01*
X158482029Y-81326446D01*
X158459507Y-81334504D01*
X158436303Y-81340316D01*
X158412642Y-81343826D01*
X158388750Y-81345000D01*
X157901250Y-81345000D01*
X157877358Y-81343826D01*
X157853697Y-81340316D01*
X157830493Y-81334504D01*
X157807971Y-81326446D01*
X157786347Y-81316218D01*
X157765830Y-81303921D01*
X157746617Y-81289671D01*
X157728893Y-81273607D01*
X157712829Y-81255883D01*
X157698579Y-81236670D01*
X157686282Y-81216153D01*
X157676054Y-81194529D01*
X157667996Y-81172007D01*
X157662184Y-81148803D01*
X157658674Y-81125142D01*
X157657500Y-81101250D01*
X157657500Y-80188750D01*
X157658674Y-80164858D01*
X157662184Y-80141197D01*
X157667996Y-80117993D01*
X157676054Y-80095471D01*
X157686282Y-80073847D01*
X157698579Y-80053330D01*
X157712829Y-80034117D01*
X157728893Y-80016393D01*
X157746617Y-80000329D01*
X157765830Y-79986079D01*
X157786347Y-79973782D01*
X157807971Y-79963554D01*
X157830493Y-79955496D01*
X157853697Y-79949684D01*
X157877358Y-79946174D01*
X157901250Y-79945000D01*
X158388750Y-79945000D01*
X158412642Y-79946174D01*
X158412642Y-79946174D01*
G37*
D15*
X158145000Y-80645000D03*
D14*
G36*
X149492642Y-89471174D02*
G01*
X149516303Y-89474684D01*
X149539507Y-89480496D01*
X149562029Y-89488554D01*
X149583653Y-89498782D01*
X149604170Y-89511079D01*
X149623383Y-89525329D01*
X149641107Y-89541393D01*
X149657171Y-89559117D01*
X149671421Y-89578330D01*
X149683718Y-89598847D01*
X149693946Y-89620471D01*
X149702004Y-89642993D01*
X149707816Y-89666197D01*
X149711326Y-89689858D01*
X149712500Y-89713750D01*
X149712500Y-90626250D01*
X149711326Y-90650142D01*
X149707816Y-90673803D01*
X149702004Y-90697007D01*
X149693946Y-90719529D01*
X149683718Y-90741153D01*
X149671421Y-90761670D01*
X149657171Y-90780883D01*
X149641107Y-90798607D01*
X149623383Y-90814671D01*
X149604170Y-90828921D01*
X149583653Y-90841218D01*
X149562029Y-90851446D01*
X149539507Y-90859504D01*
X149516303Y-90865316D01*
X149492642Y-90868826D01*
X149468750Y-90870000D01*
X148981250Y-90870000D01*
X148957358Y-90868826D01*
X148933697Y-90865316D01*
X148910493Y-90859504D01*
X148887971Y-90851446D01*
X148866347Y-90841218D01*
X148845830Y-90828921D01*
X148826617Y-90814671D01*
X148808893Y-90798607D01*
X148792829Y-90780883D01*
X148778579Y-90761670D01*
X148766282Y-90741153D01*
X148756054Y-90719529D01*
X148747996Y-90697007D01*
X148742184Y-90673803D01*
X148738674Y-90650142D01*
X148737500Y-90626250D01*
X148737500Y-89713750D01*
X148738674Y-89689858D01*
X148742184Y-89666197D01*
X148747996Y-89642993D01*
X148756054Y-89620471D01*
X148766282Y-89598847D01*
X148778579Y-89578330D01*
X148792829Y-89559117D01*
X148808893Y-89541393D01*
X148826617Y-89525329D01*
X148845830Y-89511079D01*
X148866347Y-89498782D01*
X148887971Y-89488554D01*
X148910493Y-89480496D01*
X148933697Y-89474684D01*
X148957358Y-89471174D01*
X148981250Y-89470000D01*
X149468750Y-89470000D01*
X149492642Y-89471174D01*
X149492642Y-89471174D01*
G37*
D15*
X149225000Y-90170000D03*
D14*
G36*
X147617642Y-89471174D02*
G01*
X147641303Y-89474684D01*
X147664507Y-89480496D01*
X147687029Y-89488554D01*
X147708653Y-89498782D01*
X147729170Y-89511079D01*
X147748383Y-89525329D01*
X147766107Y-89541393D01*
X147782171Y-89559117D01*
X147796421Y-89578330D01*
X147808718Y-89598847D01*
X147818946Y-89620471D01*
X147827004Y-89642993D01*
X147832816Y-89666197D01*
X147836326Y-89689858D01*
X147837500Y-89713750D01*
X147837500Y-90626250D01*
X147836326Y-90650142D01*
X147832816Y-90673803D01*
X147827004Y-90697007D01*
X147818946Y-90719529D01*
X147808718Y-90741153D01*
X147796421Y-90761670D01*
X147782171Y-90780883D01*
X147766107Y-90798607D01*
X147748383Y-90814671D01*
X147729170Y-90828921D01*
X147708653Y-90841218D01*
X147687029Y-90851446D01*
X147664507Y-90859504D01*
X147641303Y-90865316D01*
X147617642Y-90868826D01*
X147593750Y-90870000D01*
X147106250Y-90870000D01*
X147082358Y-90868826D01*
X147058697Y-90865316D01*
X147035493Y-90859504D01*
X147012971Y-90851446D01*
X146991347Y-90841218D01*
X146970830Y-90828921D01*
X146951617Y-90814671D01*
X146933893Y-90798607D01*
X146917829Y-90780883D01*
X146903579Y-90761670D01*
X146891282Y-90741153D01*
X146881054Y-90719529D01*
X146872996Y-90697007D01*
X146867184Y-90673803D01*
X146863674Y-90650142D01*
X146862500Y-90626250D01*
X146862500Y-89713750D01*
X146863674Y-89689858D01*
X146867184Y-89666197D01*
X146872996Y-89642993D01*
X146881054Y-89620471D01*
X146891282Y-89598847D01*
X146903579Y-89578330D01*
X146917829Y-89559117D01*
X146933893Y-89541393D01*
X146951617Y-89525329D01*
X146970830Y-89511079D01*
X146991347Y-89498782D01*
X147012971Y-89488554D01*
X147035493Y-89480496D01*
X147058697Y-89474684D01*
X147082358Y-89471174D01*
X147106250Y-89470000D01*
X147593750Y-89470000D01*
X147617642Y-89471174D01*
X147617642Y-89471174D01*
G37*
D15*
X147350000Y-90170000D03*
D14*
G36*
X149492642Y-91376174D02*
G01*
X149516303Y-91379684D01*
X149539507Y-91385496D01*
X149562029Y-91393554D01*
X149583653Y-91403782D01*
X149604170Y-91416079D01*
X149623383Y-91430329D01*
X149641107Y-91446393D01*
X149657171Y-91464117D01*
X149671421Y-91483330D01*
X149683718Y-91503847D01*
X149693946Y-91525471D01*
X149702004Y-91547993D01*
X149707816Y-91571197D01*
X149711326Y-91594858D01*
X149712500Y-91618750D01*
X149712500Y-92531250D01*
X149711326Y-92555142D01*
X149707816Y-92578803D01*
X149702004Y-92602007D01*
X149693946Y-92624529D01*
X149683718Y-92646153D01*
X149671421Y-92666670D01*
X149657171Y-92685883D01*
X149641107Y-92703607D01*
X149623383Y-92719671D01*
X149604170Y-92733921D01*
X149583653Y-92746218D01*
X149562029Y-92756446D01*
X149539507Y-92764504D01*
X149516303Y-92770316D01*
X149492642Y-92773826D01*
X149468750Y-92775000D01*
X148981250Y-92775000D01*
X148957358Y-92773826D01*
X148933697Y-92770316D01*
X148910493Y-92764504D01*
X148887971Y-92756446D01*
X148866347Y-92746218D01*
X148845830Y-92733921D01*
X148826617Y-92719671D01*
X148808893Y-92703607D01*
X148792829Y-92685883D01*
X148778579Y-92666670D01*
X148766282Y-92646153D01*
X148756054Y-92624529D01*
X148747996Y-92602007D01*
X148742184Y-92578803D01*
X148738674Y-92555142D01*
X148737500Y-92531250D01*
X148737500Y-91618750D01*
X148738674Y-91594858D01*
X148742184Y-91571197D01*
X148747996Y-91547993D01*
X148756054Y-91525471D01*
X148766282Y-91503847D01*
X148778579Y-91483330D01*
X148792829Y-91464117D01*
X148808893Y-91446393D01*
X148826617Y-91430329D01*
X148845830Y-91416079D01*
X148866347Y-91403782D01*
X148887971Y-91393554D01*
X148910493Y-91385496D01*
X148933697Y-91379684D01*
X148957358Y-91376174D01*
X148981250Y-91375000D01*
X149468750Y-91375000D01*
X149492642Y-91376174D01*
X149492642Y-91376174D01*
G37*
D15*
X149225000Y-92075000D03*
D14*
G36*
X147617642Y-91376174D02*
G01*
X147641303Y-91379684D01*
X147664507Y-91385496D01*
X147687029Y-91393554D01*
X147708653Y-91403782D01*
X147729170Y-91416079D01*
X147748383Y-91430329D01*
X147766107Y-91446393D01*
X147782171Y-91464117D01*
X147796421Y-91483330D01*
X147808718Y-91503847D01*
X147818946Y-91525471D01*
X147827004Y-91547993D01*
X147832816Y-91571197D01*
X147836326Y-91594858D01*
X147837500Y-91618750D01*
X147837500Y-92531250D01*
X147836326Y-92555142D01*
X147832816Y-92578803D01*
X147827004Y-92602007D01*
X147818946Y-92624529D01*
X147808718Y-92646153D01*
X147796421Y-92666670D01*
X147782171Y-92685883D01*
X147766107Y-92703607D01*
X147748383Y-92719671D01*
X147729170Y-92733921D01*
X147708653Y-92746218D01*
X147687029Y-92756446D01*
X147664507Y-92764504D01*
X147641303Y-92770316D01*
X147617642Y-92773826D01*
X147593750Y-92775000D01*
X147106250Y-92775000D01*
X147082358Y-92773826D01*
X147058697Y-92770316D01*
X147035493Y-92764504D01*
X147012971Y-92756446D01*
X146991347Y-92746218D01*
X146970830Y-92733921D01*
X146951617Y-92719671D01*
X146933893Y-92703607D01*
X146917829Y-92685883D01*
X146903579Y-92666670D01*
X146891282Y-92646153D01*
X146881054Y-92624529D01*
X146872996Y-92602007D01*
X146867184Y-92578803D01*
X146863674Y-92555142D01*
X146862500Y-92531250D01*
X146862500Y-91618750D01*
X146863674Y-91594858D01*
X146867184Y-91571197D01*
X146872996Y-91547993D01*
X146881054Y-91525471D01*
X146891282Y-91503847D01*
X146903579Y-91483330D01*
X146917829Y-91464117D01*
X146933893Y-91446393D01*
X146951617Y-91430329D01*
X146970830Y-91416079D01*
X146991347Y-91403782D01*
X147012971Y-91393554D01*
X147035493Y-91385496D01*
X147058697Y-91379684D01*
X147082358Y-91376174D01*
X147106250Y-91375000D01*
X147593750Y-91375000D01*
X147617642Y-91376174D01*
X147617642Y-91376174D01*
G37*
D15*
X147350000Y-92075000D03*
D14*
G36*
X147587642Y-77406174D02*
G01*
X147611303Y-77409684D01*
X147634507Y-77415496D01*
X147657029Y-77423554D01*
X147678653Y-77433782D01*
X147699170Y-77446079D01*
X147718383Y-77460329D01*
X147736107Y-77476393D01*
X147752171Y-77494117D01*
X147766421Y-77513330D01*
X147778718Y-77533847D01*
X147788946Y-77555471D01*
X147797004Y-77577993D01*
X147802816Y-77601197D01*
X147806326Y-77624858D01*
X147807500Y-77648750D01*
X147807500Y-78561250D01*
X147806326Y-78585142D01*
X147802816Y-78608803D01*
X147797004Y-78632007D01*
X147788946Y-78654529D01*
X147778718Y-78676153D01*
X147766421Y-78696670D01*
X147752171Y-78715883D01*
X147736107Y-78733607D01*
X147718383Y-78749671D01*
X147699170Y-78763921D01*
X147678653Y-78776218D01*
X147657029Y-78786446D01*
X147634507Y-78794504D01*
X147611303Y-78800316D01*
X147587642Y-78803826D01*
X147563750Y-78805000D01*
X147076250Y-78805000D01*
X147052358Y-78803826D01*
X147028697Y-78800316D01*
X147005493Y-78794504D01*
X146982971Y-78786446D01*
X146961347Y-78776218D01*
X146940830Y-78763921D01*
X146921617Y-78749671D01*
X146903893Y-78733607D01*
X146887829Y-78715883D01*
X146873579Y-78696670D01*
X146861282Y-78676153D01*
X146851054Y-78654529D01*
X146842996Y-78632007D01*
X146837184Y-78608803D01*
X146833674Y-78585142D01*
X146832500Y-78561250D01*
X146832500Y-77648750D01*
X146833674Y-77624858D01*
X146837184Y-77601197D01*
X146842996Y-77577993D01*
X146851054Y-77555471D01*
X146861282Y-77533847D01*
X146873579Y-77513330D01*
X146887829Y-77494117D01*
X146903893Y-77476393D01*
X146921617Y-77460329D01*
X146940830Y-77446079D01*
X146961347Y-77433782D01*
X146982971Y-77423554D01*
X147005493Y-77415496D01*
X147028697Y-77409684D01*
X147052358Y-77406174D01*
X147076250Y-77405000D01*
X147563750Y-77405000D01*
X147587642Y-77406174D01*
X147587642Y-77406174D01*
G37*
D15*
X147320000Y-78105000D03*
D14*
G36*
X149462642Y-77406174D02*
G01*
X149486303Y-77409684D01*
X149509507Y-77415496D01*
X149532029Y-77423554D01*
X149553653Y-77433782D01*
X149574170Y-77446079D01*
X149593383Y-77460329D01*
X149611107Y-77476393D01*
X149627171Y-77494117D01*
X149641421Y-77513330D01*
X149653718Y-77533847D01*
X149663946Y-77555471D01*
X149672004Y-77577993D01*
X149677816Y-77601197D01*
X149681326Y-77624858D01*
X149682500Y-77648750D01*
X149682500Y-78561250D01*
X149681326Y-78585142D01*
X149677816Y-78608803D01*
X149672004Y-78632007D01*
X149663946Y-78654529D01*
X149653718Y-78676153D01*
X149641421Y-78696670D01*
X149627171Y-78715883D01*
X149611107Y-78733607D01*
X149593383Y-78749671D01*
X149574170Y-78763921D01*
X149553653Y-78776218D01*
X149532029Y-78786446D01*
X149509507Y-78794504D01*
X149486303Y-78800316D01*
X149462642Y-78803826D01*
X149438750Y-78805000D01*
X148951250Y-78805000D01*
X148927358Y-78803826D01*
X148903697Y-78800316D01*
X148880493Y-78794504D01*
X148857971Y-78786446D01*
X148836347Y-78776218D01*
X148815830Y-78763921D01*
X148796617Y-78749671D01*
X148778893Y-78733607D01*
X148762829Y-78715883D01*
X148748579Y-78696670D01*
X148736282Y-78676153D01*
X148726054Y-78654529D01*
X148717996Y-78632007D01*
X148712184Y-78608803D01*
X148708674Y-78585142D01*
X148707500Y-78561250D01*
X148707500Y-77648750D01*
X148708674Y-77624858D01*
X148712184Y-77601197D01*
X148717996Y-77577993D01*
X148726054Y-77555471D01*
X148736282Y-77533847D01*
X148748579Y-77513330D01*
X148762829Y-77494117D01*
X148778893Y-77476393D01*
X148796617Y-77460329D01*
X148815830Y-77446079D01*
X148836347Y-77433782D01*
X148857971Y-77423554D01*
X148880493Y-77415496D01*
X148903697Y-77409684D01*
X148927358Y-77406174D01*
X148951250Y-77405000D01*
X149438750Y-77405000D01*
X149462642Y-77406174D01*
X149462642Y-77406174D01*
G37*
D15*
X149195000Y-78105000D03*
D14*
G36*
X149492642Y-79311174D02*
G01*
X149516303Y-79314684D01*
X149539507Y-79320496D01*
X149562029Y-79328554D01*
X149583653Y-79338782D01*
X149604170Y-79351079D01*
X149623383Y-79365329D01*
X149641107Y-79381393D01*
X149657171Y-79399117D01*
X149671421Y-79418330D01*
X149683718Y-79438847D01*
X149693946Y-79460471D01*
X149702004Y-79482993D01*
X149707816Y-79506197D01*
X149711326Y-79529858D01*
X149712500Y-79553750D01*
X149712500Y-80466250D01*
X149711326Y-80490142D01*
X149707816Y-80513803D01*
X149702004Y-80537007D01*
X149693946Y-80559529D01*
X149683718Y-80581153D01*
X149671421Y-80601670D01*
X149657171Y-80620883D01*
X149641107Y-80638607D01*
X149623383Y-80654671D01*
X149604170Y-80668921D01*
X149583653Y-80681218D01*
X149562029Y-80691446D01*
X149539507Y-80699504D01*
X149516303Y-80705316D01*
X149492642Y-80708826D01*
X149468750Y-80710000D01*
X148981250Y-80710000D01*
X148957358Y-80708826D01*
X148933697Y-80705316D01*
X148910493Y-80699504D01*
X148887971Y-80691446D01*
X148866347Y-80681218D01*
X148845830Y-80668921D01*
X148826617Y-80654671D01*
X148808893Y-80638607D01*
X148792829Y-80620883D01*
X148778579Y-80601670D01*
X148766282Y-80581153D01*
X148756054Y-80559529D01*
X148747996Y-80537007D01*
X148742184Y-80513803D01*
X148738674Y-80490142D01*
X148737500Y-80466250D01*
X148737500Y-79553750D01*
X148738674Y-79529858D01*
X148742184Y-79506197D01*
X148747996Y-79482993D01*
X148756054Y-79460471D01*
X148766282Y-79438847D01*
X148778579Y-79418330D01*
X148792829Y-79399117D01*
X148808893Y-79381393D01*
X148826617Y-79365329D01*
X148845830Y-79351079D01*
X148866347Y-79338782D01*
X148887971Y-79328554D01*
X148910493Y-79320496D01*
X148933697Y-79314684D01*
X148957358Y-79311174D01*
X148981250Y-79310000D01*
X149468750Y-79310000D01*
X149492642Y-79311174D01*
X149492642Y-79311174D01*
G37*
D15*
X149225000Y-80010000D03*
D14*
G36*
X147617642Y-79311174D02*
G01*
X147641303Y-79314684D01*
X147664507Y-79320496D01*
X147687029Y-79328554D01*
X147708653Y-79338782D01*
X147729170Y-79351079D01*
X147748383Y-79365329D01*
X147766107Y-79381393D01*
X147782171Y-79399117D01*
X147796421Y-79418330D01*
X147808718Y-79438847D01*
X147818946Y-79460471D01*
X147827004Y-79482993D01*
X147832816Y-79506197D01*
X147836326Y-79529858D01*
X147837500Y-79553750D01*
X147837500Y-80466250D01*
X147836326Y-80490142D01*
X147832816Y-80513803D01*
X147827004Y-80537007D01*
X147818946Y-80559529D01*
X147808718Y-80581153D01*
X147796421Y-80601670D01*
X147782171Y-80620883D01*
X147766107Y-80638607D01*
X147748383Y-80654671D01*
X147729170Y-80668921D01*
X147708653Y-80681218D01*
X147687029Y-80691446D01*
X147664507Y-80699504D01*
X147641303Y-80705316D01*
X147617642Y-80708826D01*
X147593750Y-80710000D01*
X147106250Y-80710000D01*
X147082358Y-80708826D01*
X147058697Y-80705316D01*
X147035493Y-80699504D01*
X147012971Y-80691446D01*
X146991347Y-80681218D01*
X146970830Y-80668921D01*
X146951617Y-80654671D01*
X146933893Y-80638607D01*
X146917829Y-80620883D01*
X146903579Y-80601670D01*
X146891282Y-80581153D01*
X146881054Y-80559529D01*
X146872996Y-80537007D01*
X146867184Y-80513803D01*
X146863674Y-80490142D01*
X146862500Y-80466250D01*
X146862500Y-79553750D01*
X146863674Y-79529858D01*
X146867184Y-79506197D01*
X146872996Y-79482993D01*
X146881054Y-79460471D01*
X146891282Y-79438847D01*
X146903579Y-79418330D01*
X146917829Y-79399117D01*
X146933893Y-79381393D01*
X146951617Y-79365329D01*
X146970830Y-79351079D01*
X146991347Y-79338782D01*
X147012971Y-79328554D01*
X147035493Y-79320496D01*
X147058697Y-79314684D01*
X147082358Y-79311174D01*
X147106250Y-79310000D01*
X147593750Y-79310000D01*
X147617642Y-79311174D01*
X147617642Y-79311174D01*
G37*
D15*
X147350000Y-80010000D03*
D16*
X153670000Y-60960000D03*
D17*
X153670000Y-59690000D03*
X154940000Y-60960000D03*
X154940000Y-59690000D03*
X156210000Y-60960000D03*
X156210000Y-59690000D03*
X157480000Y-60960000D03*
X157480000Y-59690000D03*
X158750000Y-60960000D03*
X158750000Y-59690000D03*
D14*
G36*
X145634142Y-85153174D02*
G01*
X145657803Y-85156684D01*
X145681007Y-85162496D01*
X145703529Y-85170554D01*
X145725153Y-85180782D01*
X145745670Y-85193079D01*
X145764883Y-85207329D01*
X145782607Y-85223393D01*
X145798671Y-85241117D01*
X145812921Y-85260330D01*
X145825218Y-85280847D01*
X145835446Y-85302471D01*
X145843504Y-85324993D01*
X145849316Y-85348197D01*
X145852826Y-85371858D01*
X145854000Y-85395750D01*
X145854000Y-86308250D01*
X145852826Y-86332142D01*
X145849316Y-86355803D01*
X145843504Y-86379007D01*
X145835446Y-86401529D01*
X145825218Y-86423153D01*
X145812921Y-86443670D01*
X145798671Y-86462883D01*
X145782607Y-86480607D01*
X145764883Y-86496671D01*
X145745670Y-86510921D01*
X145725153Y-86523218D01*
X145703529Y-86533446D01*
X145681007Y-86541504D01*
X145657803Y-86547316D01*
X145634142Y-86550826D01*
X145610250Y-86552000D01*
X145122750Y-86552000D01*
X145098858Y-86550826D01*
X145075197Y-86547316D01*
X145051993Y-86541504D01*
X145029471Y-86533446D01*
X145007847Y-86523218D01*
X144987330Y-86510921D01*
X144968117Y-86496671D01*
X144950393Y-86480607D01*
X144934329Y-86462883D01*
X144920079Y-86443670D01*
X144907782Y-86423153D01*
X144897554Y-86401529D01*
X144889496Y-86379007D01*
X144883684Y-86355803D01*
X144880174Y-86332142D01*
X144879000Y-86308250D01*
X144879000Y-85395750D01*
X144880174Y-85371858D01*
X144883684Y-85348197D01*
X144889496Y-85324993D01*
X144897554Y-85302471D01*
X144907782Y-85280847D01*
X144920079Y-85260330D01*
X144934329Y-85241117D01*
X144950393Y-85223393D01*
X144968117Y-85207329D01*
X144987330Y-85193079D01*
X145007847Y-85180782D01*
X145029471Y-85170554D01*
X145051993Y-85162496D01*
X145075197Y-85156684D01*
X145098858Y-85153174D01*
X145122750Y-85152000D01*
X145610250Y-85152000D01*
X145634142Y-85153174D01*
X145634142Y-85153174D01*
G37*
D15*
X145366500Y-85852000D03*
D14*
G36*
X147509142Y-85153174D02*
G01*
X147532803Y-85156684D01*
X147556007Y-85162496D01*
X147578529Y-85170554D01*
X147600153Y-85180782D01*
X147620670Y-85193079D01*
X147639883Y-85207329D01*
X147657607Y-85223393D01*
X147673671Y-85241117D01*
X147687921Y-85260330D01*
X147700218Y-85280847D01*
X147710446Y-85302471D01*
X147718504Y-85324993D01*
X147724316Y-85348197D01*
X147727826Y-85371858D01*
X147729000Y-85395750D01*
X147729000Y-86308250D01*
X147727826Y-86332142D01*
X147724316Y-86355803D01*
X147718504Y-86379007D01*
X147710446Y-86401529D01*
X147700218Y-86423153D01*
X147687921Y-86443670D01*
X147673671Y-86462883D01*
X147657607Y-86480607D01*
X147639883Y-86496671D01*
X147620670Y-86510921D01*
X147600153Y-86523218D01*
X147578529Y-86533446D01*
X147556007Y-86541504D01*
X147532803Y-86547316D01*
X147509142Y-86550826D01*
X147485250Y-86552000D01*
X146997750Y-86552000D01*
X146973858Y-86550826D01*
X146950197Y-86547316D01*
X146926993Y-86541504D01*
X146904471Y-86533446D01*
X146882847Y-86523218D01*
X146862330Y-86510921D01*
X146843117Y-86496671D01*
X146825393Y-86480607D01*
X146809329Y-86462883D01*
X146795079Y-86443670D01*
X146782782Y-86423153D01*
X146772554Y-86401529D01*
X146764496Y-86379007D01*
X146758684Y-86355803D01*
X146755174Y-86332142D01*
X146754000Y-86308250D01*
X146754000Y-85395750D01*
X146755174Y-85371858D01*
X146758684Y-85348197D01*
X146764496Y-85324993D01*
X146772554Y-85302471D01*
X146782782Y-85280847D01*
X146795079Y-85260330D01*
X146809329Y-85241117D01*
X146825393Y-85223393D01*
X146843117Y-85207329D01*
X146862330Y-85193079D01*
X146882847Y-85180782D01*
X146904471Y-85170554D01*
X146926993Y-85162496D01*
X146950197Y-85156684D01*
X146973858Y-85153174D01*
X146997750Y-85152000D01*
X147485250Y-85152000D01*
X147509142Y-85153174D01*
X147509142Y-85153174D01*
G37*
D15*
X147241500Y-85852000D03*
D18*
X140940000Y-96520000D03*
D14*
G36*
X141490000Y-96220000D02*
G01*
X141840000Y-96220000D01*
X141840000Y-96820000D01*
X141490000Y-96820000D01*
X141490000Y-97270000D01*
X140940000Y-97270000D01*
X140940000Y-97269398D01*
X140915466Y-97269398D01*
X140866635Y-97264588D01*
X140818510Y-97255016D01*
X140771555Y-97240772D01*
X140726222Y-97221995D01*
X140682949Y-97198864D01*
X140642150Y-97171604D01*
X140604221Y-97140476D01*
X140569524Y-97105779D01*
X140538396Y-97067850D01*
X140511136Y-97027051D01*
X140488005Y-96983778D01*
X140469228Y-96938445D01*
X140454984Y-96891490D01*
X140445412Y-96843365D01*
X140440602Y-96794534D01*
X140440602Y-96770000D01*
X140440000Y-96770000D01*
X140440000Y-96270000D01*
X140440602Y-96270000D01*
X140440602Y-96245466D01*
X140445412Y-96196635D01*
X140454984Y-96148510D01*
X140469228Y-96101555D01*
X140488005Y-96056222D01*
X140511136Y-96012949D01*
X140538396Y-95972150D01*
X140569524Y-95934221D01*
X140604221Y-95899524D01*
X140642150Y-95868396D01*
X140682949Y-95841136D01*
X140726222Y-95818005D01*
X140771555Y-95799228D01*
X140818510Y-95784984D01*
X140866635Y-95775412D01*
X140915466Y-95770602D01*
X140940000Y-95770602D01*
X140940000Y-95770000D01*
X141490000Y-95770000D01*
X141490000Y-96220000D01*
X141490000Y-96220000D01*
G37*
D18*
X143540000Y-96520000D03*
D14*
G36*
X143540000Y-95770602D02*
G01*
X143564534Y-95770602D01*
X143613365Y-95775412D01*
X143661490Y-95784984D01*
X143708445Y-95799228D01*
X143753778Y-95818005D01*
X143797051Y-95841136D01*
X143837850Y-95868396D01*
X143875779Y-95899524D01*
X143910476Y-95934221D01*
X143941604Y-95972150D01*
X143968864Y-96012949D01*
X143991995Y-96056222D01*
X144010772Y-96101555D01*
X144025016Y-96148510D01*
X144034588Y-96196635D01*
X144039398Y-96245466D01*
X144039398Y-96270000D01*
X144040000Y-96270000D01*
X144040000Y-96770000D01*
X144039398Y-96770000D01*
X144039398Y-96794534D01*
X144034588Y-96843365D01*
X144025016Y-96891490D01*
X144010772Y-96938445D01*
X143991995Y-96983778D01*
X143968864Y-97027051D01*
X143941604Y-97067850D01*
X143910476Y-97105779D01*
X143875779Y-97140476D01*
X143837850Y-97171604D01*
X143797051Y-97198864D01*
X143753778Y-97221995D01*
X143708445Y-97240772D01*
X143661490Y-97255016D01*
X143613365Y-97264588D01*
X143564534Y-97269398D01*
X143540000Y-97269398D01*
X143540000Y-97270000D01*
X142990000Y-97270000D01*
X142990000Y-95770000D01*
X143540000Y-95770000D01*
X143540000Y-95770602D01*
X143540000Y-95770602D01*
G37*
D19*
X142240000Y-96520000D03*
D18*
X150876000Y-75595000D03*
D14*
G36*
X151625398Y-75595000D02*
G01*
X151625398Y-75619534D01*
X151620588Y-75668365D01*
X151611016Y-75716490D01*
X151596772Y-75763445D01*
X151577995Y-75808778D01*
X151554864Y-75852051D01*
X151527604Y-75892850D01*
X151496476Y-75930779D01*
X151461779Y-75965476D01*
X151423850Y-75996604D01*
X151383051Y-76023864D01*
X151339778Y-76046995D01*
X151294445Y-76065772D01*
X151247490Y-76080016D01*
X151199365Y-76089588D01*
X151150534Y-76094398D01*
X151126000Y-76094398D01*
X151126000Y-76095000D01*
X150626000Y-76095000D01*
X150626000Y-76094398D01*
X150601466Y-76094398D01*
X150552635Y-76089588D01*
X150504510Y-76080016D01*
X150457555Y-76065772D01*
X150412222Y-76046995D01*
X150368949Y-76023864D01*
X150328150Y-75996604D01*
X150290221Y-75965476D01*
X150255524Y-75930779D01*
X150224396Y-75892850D01*
X150197136Y-75852051D01*
X150174005Y-75808778D01*
X150155228Y-75763445D01*
X150140984Y-75716490D01*
X150131412Y-75668365D01*
X150126602Y-75619534D01*
X150126602Y-75595000D01*
X150126000Y-75595000D01*
X150126000Y-75095000D01*
X151626000Y-75095000D01*
X151626000Y-75595000D01*
X151625398Y-75595000D01*
X151625398Y-75595000D01*
G37*
D18*
X150876000Y-74295000D03*
D14*
G36*
X151176000Y-74795000D02*
G01*
X151176000Y-75195000D01*
X150576000Y-75195000D01*
X150576000Y-74795000D01*
X150126000Y-74795000D01*
X150126000Y-74295000D01*
X150126602Y-74295000D01*
X150126602Y-74270466D01*
X150131412Y-74221635D01*
X150140984Y-74173510D01*
X150155228Y-74126555D01*
X150174005Y-74081222D01*
X150197136Y-74037949D01*
X150224396Y-73997150D01*
X150255524Y-73959221D01*
X150290221Y-73924524D01*
X150328150Y-73893396D01*
X150368949Y-73866136D01*
X150412222Y-73843005D01*
X150457555Y-73824228D01*
X150504510Y-73809984D01*
X150552635Y-73800412D01*
X150601466Y-73795602D01*
X150626000Y-73795602D01*
X150626000Y-73795000D01*
X151126000Y-73795000D01*
X151126000Y-73795602D01*
X151150534Y-73795602D01*
X151199365Y-73800412D01*
X151247490Y-73809984D01*
X151294445Y-73824228D01*
X151339778Y-73843005D01*
X151383051Y-73866136D01*
X151423850Y-73893396D01*
X151461779Y-73924524D01*
X151496476Y-73959221D01*
X151527604Y-73997150D01*
X151554864Y-74037949D01*
X151577995Y-74081222D01*
X151596772Y-74126555D01*
X151611016Y-74173510D01*
X151620588Y-74221635D01*
X151625398Y-74270466D01*
X151625398Y-74295000D01*
X151626000Y-74295000D01*
X151626000Y-74795000D01*
X151176000Y-74795000D01*
X151176000Y-74795000D01*
G37*
D18*
X153924000Y-74295000D03*
D14*
G36*
X154224000Y-74795000D02*
G01*
X154224000Y-75195000D01*
X153624000Y-75195000D01*
X153624000Y-74795000D01*
X153174000Y-74795000D01*
X153174000Y-74295000D01*
X153174602Y-74295000D01*
X153174602Y-74270466D01*
X153179412Y-74221635D01*
X153188984Y-74173510D01*
X153203228Y-74126555D01*
X153222005Y-74081222D01*
X153245136Y-74037949D01*
X153272396Y-73997150D01*
X153303524Y-73959221D01*
X153338221Y-73924524D01*
X153376150Y-73893396D01*
X153416949Y-73866136D01*
X153460222Y-73843005D01*
X153505555Y-73824228D01*
X153552510Y-73809984D01*
X153600635Y-73800412D01*
X153649466Y-73795602D01*
X153674000Y-73795602D01*
X153674000Y-73795000D01*
X154174000Y-73795000D01*
X154174000Y-73795602D01*
X154198534Y-73795602D01*
X154247365Y-73800412D01*
X154295490Y-73809984D01*
X154342445Y-73824228D01*
X154387778Y-73843005D01*
X154431051Y-73866136D01*
X154471850Y-73893396D01*
X154509779Y-73924524D01*
X154544476Y-73959221D01*
X154575604Y-73997150D01*
X154602864Y-74037949D01*
X154625995Y-74081222D01*
X154644772Y-74126555D01*
X154659016Y-74173510D01*
X154668588Y-74221635D01*
X154673398Y-74270466D01*
X154673398Y-74295000D01*
X154674000Y-74295000D01*
X154674000Y-74795000D01*
X154224000Y-74795000D01*
X154224000Y-74795000D01*
G37*
D18*
X153924000Y-75595000D03*
D14*
G36*
X154673398Y-75595000D02*
G01*
X154673398Y-75619534D01*
X154668588Y-75668365D01*
X154659016Y-75716490D01*
X154644772Y-75763445D01*
X154625995Y-75808778D01*
X154602864Y-75852051D01*
X154575604Y-75892850D01*
X154544476Y-75930779D01*
X154509779Y-75965476D01*
X154471850Y-75996604D01*
X154431051Y-76023864D01*
X154387778Y-76046995D01*
X154342445Y-76065772D01*
X154295490Y-76080016D01*
X154247365Y-76089588D01*
X154198534Y-76094398D01*
X154174000Y-76094398D01*
X154174000Y-76095000D01*
X153674000Y-76095000D01*
X153674000Y-76094398D01*
X153649466Y-76094398D01*
X153600635Y-76089588D01*
X153552510Y-76080016D01*
X153505555Y-76065772D01*
X153460222Y-76046995D01*
X153416949Y-76023864D01*
X153376150Y-75996604D01*
X153338221Y-75965476D01*
X153303524Y-75930779D01*
X153272396Y-75892850D01*
X153245136Y-75852051D01*
X153222005Y-75808778D01*
X153203228Y-75763445D01*
X153188984Y-75716490D01*
X153179412Y-75668365D01*
X153174602Y-75619534D01*
X153174602Y-75595000D01*
X153174000Y-75595000D01*
X153174000Y-75095000D01*
X154674000Y-75095000D01*
X154674000Y-75595000D01*
X154673398Y-75595000D01*
X154673398Y-75595000D01*
G37*
D18*
X156210000Y-71755000D03*
D14*
G36*
X156510000Y-72305000D02*
G01*
X156510000Y-72655000D01*
X155910000Y-72655000D01*
X155910000Y-72305000D01*
X155460000Y-72305000D01*
X155460000Y-71755000D01*
X155460602Y-71755000D01*
X155460602Y-71730466D01*
X155465412Y-71681635D01*
X155474984Y-71633510D01*
X155489228Y-71586555D01*
X155508005Y-71541222D01*
X155531136Y-71497949D01*
X155558396Y-71457150D01*
X155589524Y-71419221D01*
X155624221Y-71384524D01*
X155662150Y-71353396D01*
X155702949Y-71326136D01*
X155746222Y-71303005D01*
X155791555Y-71284228D01*
X155838510Y-71269984D01*
X155886635Y-71260412D01*
X155935466Y-71255602D01*
X155960000Y-71255602D01*
X155960000Y-71255000D01*
X156460000Y-71255000D01*
X156460000Y-71255602D01*
X156484534Y-71255602D01*
X156533365Y-71260412D01*
X156581490Y-71269984D01*
X156628445Y-71284228D01*
X156673778Y-71303005D01*
X156717051Y-71326136D01*
X156757850Y-71353396D01*
X156795779Y-71384524D01*
X156830476Y-71419221D01*
X156861604Y-71457150D01*
X156888864Y-71497949D01*
X156911995Y-71541222D01*
X156930772Y-71586555D01*
X156945016Y-71633510D01*
X156954588Y-71681635D01*
X156959398Y-71730466D01*
X156959398Y-71755000D01*
X156960000Y-71755000D01*
X156960000Y-72305000D01*
X156510000Y-72305000D01*
X156510000Y-72305000D01*
G37*
D18*
X156210000Y-74355000D03*
D14*
G36*
X156959398Y-74355000D02*
G01*
X156959398Y-74379534D01*
X156954588Y-74428365D01*
X156945016Y-74476490D01*
X156930772Y-74523445D01*
X156911995Y-74568778D01*
X156888864Y-74612051D01*
X156861604Y-74652850D01*
X156830476Y-74690779D01*
X156795779Y-74725476D01*
X156757850Y-74756604D01*
X156717051Y-74783864D01*
X156673778Y-74806995D01*
X156628445Y-74825772D01*
X156581490Y-74840016D01*
X156533365Y-74849588D01*
X156484534Y-74854398D01*
X156460000Y-74854398D01*
X156460000Y-74855000D01*
X155960000Y-74855000D01*
X155960000Y-74854398D01*
X155935466Y-74854398D01*
X155886635Y-74849588D01*
X155838510Y-74840016D01*
X155791555Y-74825772D01*
X155746222Y-74806995D01*
X155702949Y-74783864D01*
X155662150Y-74756604D01*
X155624221Y-74725476D01*
X155589524Y-74690779D01*
X155558396Y-74652850D01*
X155531136Y-74612051D01*
X155508005Y-74568778D01*
X155489228Y-74523445D01*
X155474984Y-74476490D01*
X155465412Y-74428365D01*
X155460602Y-74379534D01*
X155460602Y-74355000D01*
X155460000Y-74355000D01*
X155460000Y-73805000D01*
X156960000Y-73805000D01*
X156960000Y-74355000D01*
X156959398Y-74355000D01*
X156959398Y-74355000D01*
G37*
D20*
X156210000Y-73055000D03*
D21*
X139700000Y-63500000D03*
D22*
X139700000Y-60960000D03*
X162560000Y-60960000D03*
D21*
X162560000Y-63500000D03*
D22*
X162560000Y-55880000D03*
D21*
X160020000Y-55880000D03*
X157480000Y-55880000D03*
X154940000Y-55880000D03*
X152400000Y-55880000D03*
D22*
X165100000Y-55880000D03*
D21*
X165100000Y-58420000D03*
X165100000Y-60960000D03*
X165100000Y-63500000D03*
X165100000Y-66040000D03*
X165100000Y-68580000D03*
X165100000Y-71120000D03*
X165100000Y-73660000D03*
X165100000Y-76200000D03*
X165100000Y-78740000D03*
X165100000Y-81280000D03*
X165100000Y-83820000D03*
X165100000Y-86360000D03*
X165100000Y-88900000D03*
X165100000Y-91440000D03*
X165100000Y-93980000D03*
X165100000Y-96520000D03*
X165100000Y-99060000D03*
X165100000Y-101600000D03*
X165100000Y-104140000D03*
D22*
X137160000Y-55880000D03*
D21*
X137160000Y-58420000D03*
X137160000Y-60960000D03*
X137160000Y-63500000D03*
X137160000Y-66040000D03*
X137160000Y-68580000D03*
X137160000Y-71120000D03*
X137160000Y-73660000D03*
X137160000Y-76200000D03*
X137160000Y-78740000D03*
X137160000Y-81280000D03*
X137160000Y-83820000D03*
X137160000Y-86360000D03*
X137160000Y-88900000D03*
X137160000Y-91440000D03*
X137160000Y-93980000D03*
X137160000Y-96520000D03*
X137160000Y-99060000D03*
X137160000Y-101600000D03*
X137160000Y-104140000D03*
D23*
X153416000Y-83312000D03*
X153670000Y-87630000D03*
X162560000Y-67564000D03*
X140970000Y-96520000D03*
X154847741Y-90961639D03*
X149225000Y-90170000D03*
X149225000Y-80010000D03*
X152420000Y-62960000D03*
X158145000Y-80645000D03*
X167005000Y-64770000D03*
X167005000Y-64770000D03*
X140970000Y-98425000D03*
X151159519Y-78219540D03*
X151310279Y-79006710D03*
X152883332Y-82715105D03*
X143510000Y-107315000D03*
X143530000Y-102870000D03*
X159385000Y-65405000D03*
X146685000Y-64135000D03*
X160020000Y-80645000D03*
X148569990Y-66233051D03*
X140970000Y-69850000D03*
X141605000Y-93345000D03*
X144145000Y-93345000D03*
X150495000Y-87630000D03*
X154940000Y-86360000D03*
X150084998Y-81280000D03*
X156210000Y-81915000D03*
X154940000Y-87630000D03*
X158115000Y-89535000D03*
X151195116Y-84516911D03*
X153924000Y-73152000D03*
X146050000Y-59055000D03*
X145415000Y-59690000D03*
X147425939Y-86163066D03*
X152342306Y-83401809D03*
X151760334Y-83950742D03*
X149860000Y-88900000D03*
X154940000Y-73025000D03*
D24*
X153533001Y-83194999D02*
X153416000Y-83312000D01*
X153416000Y-83312000D02*
X158857350Y-83312000D01*
X158857350Y-83312000D02*
X160832510Y-81336840D01*
X159385000Y-71755000D02*
X160832510Y-73202510D01*
X156210000Y-71755000D02*
X159385000Y-71755000D01*
X160832510Y-81336840D02*
X160832510Y-75565000D01*
X160832510Y-73202510D02*
X160832510Y-75565000D01*
X160832510Y-75565000D02*
X160832510Y-75529918D01*
X157471412Y-87004999D02*
X162560000Y-81916411D01*
X154295001Y-87004999D02*
X157471412Y-87004999D01*
X162560000Y-67988264D02*
X162560000Y-67564000D01*
X162560000Y-81916411D02*
X162560000Y-67988264D01*
X153670000Y-87630000D02*
X154295001Y-87004999D01*
X154901838Y-91440000D02*
X154847741Y-91385903D01*
X154940000Y-91440000D02*
X154901838Y-91440000D01*
X154847741Y-91385903D02*
X154847741Y-90961639D01*
X158145000Y-78770000D02*
X158115000Y-78740000D01*
X158145000Y-80645000D02*
X158145000Y-78770000D01*
X158115000Y-78740000D02*
X158115000Y-77500000D01*
X164250001Y-60110001D02*
X165100000Y-60960000D01*
X161195001Y-57055001D02*
X164250001Y-60110001D01*
X156115001Y-57055001D02*
X161195001Y-57055001D01*
X154940000Y-55880000D02*
X156115001Y-57055001D01*
X153670000Y-60960000D02*
X153670000Y-61710000D01*
X153670000Y-61710000D02*
X152420000Y-62960000D01*
X149195000Y-78105000D02*
X149195000Y-64740000D01*
X149195000Y-64740000D02*
X144780000Y-60325000D01*
X144780000Y-60325000D02*
X144780000Y-59055000D01*
X144780000Y-59055000D02*
X146050000Y-57785000D01*
X147245000Y-57785000D02*
X152420000Y-62960000D01*
X146050000Y-57785000D02*
X147245000Y-57785000D01*
X166370000Y-64770000D02*
X165100000Y-63500000D01*
X167005000Y-64770000D02*
X166370000Y-64770000D01*
X167005000Y-65194264D02*
X167005000Y-64770000D01*
X165474003Y-72484999D02*
X167005000Y-70954002D01*
X164535999Y-72484999D02*
X165474003Y-72484999D01*
X163924999Y-73095999D02*
X164535999Y-72484999D01*
X167005000Y-70954002D02*
X167005000Y-65194264D01*
X148668763Y-92631237D02*
X149225000Y-92075000D01*
X145704999Y-95595001D02*
X148668763Y-92631237D01*
X154056102Y-90170000D02*
X149225000Y-90170000D01*
X154847741Y-90961639D02*
X154056102Y-90170000D01*
X149225000Y-92075000D02*
X149225000Y-90170000D01*
X154940000Y-93345000D02*
X154940000Y-91440000D01*
X149225000Y-78135000D02*
X149195000Y-78105000D01*
X149225000Y-80010000D02*
X149225000Y-78135000D01*
X156210000Y-74355000D02*
X157420000Y-74355000D01*
X157420000Y-74355000D02*
X158115000Y-75050000D01*
X158115000Y-75050000D02*
X158115000Y-78740000D01*
X163924999Y-81884381D02*
X163924999Y-73095999D01*
X154847741Y-90961639D02*
X163924999Y-81884381D01*
X145040001Y-105745001D02*
X145704999Y-105080003D01*
X142019999Y-105745001D02*
X145040001Y-105745001D01*
X140970000Y-104695002D02*
X142019999Y-105745001D01*
X140970000Y-98425000D02*
X140970000Y-104695002D01*
X145704999Y-105080003D02*
X145704999Y-95595001D01*
X150876000Y-77936021D02*
X151159519Y-78219540D01*
X150876000Y-75595000D02*
X150876000Y-77936021D01*
X153924000Y-76392989D02*
X151610278Y-78706711D01*
X153924000Y-75595000D02*
X153924000Y-76392989D01*
X151610278Y-78706711D02*
X151310279Y-79006710D01*
X153670000Y-59690000D02*
X149786410Y-59690000D01*
X149786410Y-59690000D02*
X147431401Y-57334991D01*
X146723105Y-82715105D02*
X152459068Y-82715105D01*
X152459068Y-82715105D02*
X152883332Y-82715105D01*
X144272000Y-58420000D02*
X144272000Y-80264000D01*
X144272000Y-80264000D02*
X146723105Y-82715105D01*
X145357009Y-57334991D02*
X144272000Y-58420000D01*
X147431401Y-57334991D02*
X145357009Y-57334991D01*
X143530000Y-96530000D02*
X143540000Y-96520000D01*
X158730000Y-104170000D02*
X154604999Y-108295001D01*
X158730000Y-102870000D02*
X158730000Y-104170000D01*
X154604999Y-108295001D02*
X144490001Y-108295001D01*
X144490001Y-108295001D02*
X143510000Y-107315000D01*
X143530000Y-102870000D02*
X143530000Y-96530000D01*
X150770852Y-84516911D02*
X151195116Y-84516911D01*
X147252089Y-84516911D02*
X150770852Y-84516911D01*
X156210000Y-59690000D02*
X154809979Y-58289979D01*
X148686986Y-53905989D02*
X147074598Y-53905989D01*
X153070976Y-58289979D02*
X148686986Y-53905989D01*
X154809979Y-58289979D02*
X153070976Y-58289979D01*
X143371980Y-57608607D02*
X143371980Y-80636802D01*
X143371980Y-80636802D02*
X147252089Y-84516911D01*
X147074598Y-53905989D02*
X143371980Y-57608607D01*
D25*
X153924000Y-74295000D02*
X153924000Y-73152000D01*
X153924000Y-74295000D02*
X152625000Y-72996000D01*
X152625000Y-72996000D02*
X152625000Y-65311801D01*
D24*
X146526600Y-59107336D02*
X146526600Y-59213400D01*
X146474264Y-59055000D02*
X146526600Y-59107336D01*
X146050000Y-59055000D02*
X146474264Y-59055000D01*
D25*
X152625000Y-65311801D02*
X146526600Y-59213400D01*
X146526600Y-59213400D02*
X146350521Y-59037322D01*
X152175000Y-72996000D02*
X152175000Y-65498199D01*
X150876000Y-74295000D02*
X152175000Y-72996000D01*
D24*
X146366802Y-59690000D02*
X146525901Y-59849099D01*
X145415000Y-59690000D02*
X146366802Y-59690000D01*
D25*
X152175000Y-65498199D02*
X146525901Y-59849099D01*
D24*
X153989990Y-58739990D02*
X152544928Y-58739990D01*
X152544928Y-58739990D02*
X148160938Y-54356000D01*
X148160938Y-54356000D02*
X147320000Y-54356000D01*
X154940000Y-59690000D02*
X153989990Y-58739990D01*
X147260998Y-54356000D02*
X143821991Y-57795007D01*
X152250875Y-83310378D02*
X152342306Y-83401809D01*
X143821991Y-57795007D02*
X143821991Y-80450402D01*
X146681967Y-83310378D02*
X152250875Y-83310378D01*
X143821991Y-80450402D02*
X146681967Y-83310378D01*
X151760334Y-83950742D02*
X152060333Y-84250741D01*
X161384999Y-81420762D02*
X161384999Y-61103997D01*
X158305001Y-58864999D02*
X157979999Y-59190001D01*
X161384999Y-61103997D02*
X159146001Y-58864999D01*
X159146001Y-58864999D02*
X158305001Y-58864999D01*
X158555020Y-84250741D02*
X161384999Y-81420762D01*
X157979999Y-59190001D02*
X157480000Y-59690000D01*
X152060333Y-84250741D02*
X158555020Y-84250741D01*
X142240000Y-95520000D02*
X142240000Y-96520000D01*
X142240000Y-93775650D02*
X142240000Y-95520000D01*
X147115650Y-88900000D02*
X142240000Y-93775650D01*
X149860000Y-88900000D02*
X147115650Y-88900000D01*
X154970000Y-73055000D02*
X154940000Y-73025000D01*
X156210000Y-73055000D02*
X154970000Y-73055000D01*
D26*
G36*
X139969479Y-51557163D02*
G01*
X139835706Y-51754620D01*
X139743026Y-51974381D01*
X139695000Y-52208000D01*
X139695000Y-52533000D01*
X140778000Y-52533000D01*
X140778000Y-52513000D01*
X141032000Y-52513000D01*
X141032000Y-52533000D01*
X142115000Y-52533000D01*
X142115000Y-52208000D01*
X142066974Y-51974381D01*
X141974294Y-51754620D01*
X141840521Y-51557163D01*
X141792750Y-51510000D01*
X147767250Y-51510000D01*
X147719479Y-51557163D01*
X147585706Y-51754620D01*
X147493026Y-51974381D01*
X147445000Y-52208000D01*
X147445000Y-52533000D01*
X148528000Y-52533000D01*
X148528000Y-52513000D01*
X148782000Y-52513000D01*
X148782000Y-52533000D01*
X149865000Y-52533000D01*
X149865000Y-52208000D01*
X149816974Y-51974381D01*
X149724294Y-51754620D01*
X149590521Y-51557163D01*
X149542750Y-51510000D01*
X169470000Y-51510000D01*
X169470001Y-108510000D01*
X155464801Y-108510000D01*
X157465684Y-106509117D01*
X165905000Y-106509117D01*
X165905000Y-106850883D01*
X165971675Y-107186081D01*
X166102463Y-107501831D01*
X166292337Y-107785998D01*
X166534002Y-108027663D01*
X166818169Y-108217537D01*
X167133919Y-108348325D01*
X167469117Y-108415000D01*
X167810883Y-108415000D01*
X168146081Y-108348325D01*
X168461831Y-108217537D01*
X168745998Y-108027663D01*
X168987663Y-107785998D01*
X169177537Y-107501831D01*
X169308325Y-107186081D01*
X169375000Y-106850883D01*
X169375000Y-106509117D01*
X169308325Y-106173919D01*
X169177537Y-105858169D01*
X168987663Y-105574002D01*
X168745998Y-105332337D01*
X168461831Y-105142463D01*
X168146081Y-105011675D01*
X167810883Y-104945000D01*
X167469117Y-104945000D01*
X167133919Y-105011675D01*
X166818169Y-105142463D01*
X166534002Y-105332337D01*
X166292337Y-105574002D01*
X166102463Y-105858169D01*
X165971675Y-106173919D01*
X165905000Y-106509117D01*
X157465684Y-106509117D01*
X157916730Y-106058072D01*
X159980000Y-106058072D01*
X160104482Y-106045812D01*
X160224180Y-106009502D01*
X160334494Y-105950537D01*
X160431185Y-105871185D01*
X160510537Y-105774494D01*
X160569502Y-105664180D01*
X160605812Y-105544482D01*
X160618072Y-105420000D01*
X160618072Y-100320000D01*
X160605812Y-100195518D01*
X160569502Y-100075820D01*
X160510537Y-99965506D01*
X160431185Y-99868815D01*
X160334494Y-99789463D01*
X160224180Y-99730498D01*
X160104482Y-99694188D01*
X159980000Y-99681928D01*
X157480000Y-99681928D01*
X157355518Y-99694188D01*
X157235820Y-99730498D01*
X157125506Y-99789463D01*
X157028815Y-99868815D01*
X156949463Y-99965506D01*
X156890498Y-100075820D01*
X156854188Y-100195518D01*
X156841928Y-100320000D01*
X156841928Y-102353375D01*
X156800549Y-101843290D01*
X156491289Y-100756749D01*
X155975999Y-99751419D01*
X155865678Y-99586309D01*
X155181411Y-98998194D01*
X151309605Y-102870000D01*
X151323748Y-102884143D01*
X151144143Y-103063748D01*
X151130000Y-103049605D01*
X147258194Y-106921411D01*
X147785563Y-107535001D01*
X144804803Y-107535001D01*
X144433153Y-107163351D01*
X144409068Y-107042271D01*
X144338586Y-106872111D01*
X144236262Y-106718972D01*
X144106028Y-106588738D01*
X143980706Y-106505001D01*
X145002679Y-106505001D01*
X145040001Y-106508677D01*
X145077323Y-106505001D01*
X145077334Y-106505001D01*
X145188987Y-106494004D01*
X145332248Y-106450547D01*
X145464277Y-106379975D01*
X145580002Y-106285002D01*
X145603804Y-106255999D01*
X146144124Y-105715680D01*
X146284001Y-105988581D01*
X146394322Y-106153691D01*
X147078589Y-106741806D01*
X150950395Y-102870000D01*
X147078589Y-98998194D01*
X146464999Y-99525563D01*
X146464999Y-98818589D01*
X147258194Y-98818589D01*
X151130000Y-102690395D01*
X155001806Y-98818589D01*
X154413691Y-98134322D01*
X153426711Y-97584701D01*
X152351470Y-97238191D01*
X151229288Y-97108108D01*
X150103290Y-97199451D01*
X149016749Y-97508711D01*
X148011419Y-98024001D01*
X147846309Y-98134322D01*
X147258194Y-98818589D01*
X146464999Y-98818589D01*
X146464999Y-95909802D01*
X148963480Y-93411322D01*
X148981250Y-93413072D01*
X149468750Y-93413072D01*
X149640785Y-93396128D01*
X149806209Y-93345947D01*
X149958664Y-93264458D01*
X150092292Y-93154792D01*
X150201958Y-93021164D01*
X150283447Y-92868709D01*
X150333628Y-92703285D01*
X150350572Y-92531250D01*
X150350572Y-91618750D01*
X150333628Y-91446715D01*
X150283447Y-91281291D01*
X150201958Y-91128836D01*
X150196758Y-91122500D01*
X150201958Y-91116164D01*
X150283447Y-90963709D01*
X150293673Y-90930000D01*
X153741301Y-90930000D01*
X153814428Y-91003127D01*
X153814428Y-91896250D01*
X153831372Y-92068285D01*
X153881553Y-92233709D01*
X153963042Y-92386164D01*
X153968242Y-92392500D01*
X153963042Y-92398836D01*
X153881553Y-92551291D01*
X153831372Y-92716715D01*
X153814428Y-92888750D01*
X153814428Y-93801250D01*
X153831372Y-93973285D01*
X153881553Y-94138709D01*
X153963042Y-94291164D01*
X154072708Y-94424792D01*
X154206336Y-94534458D01*
X154358791Y-94615947D01*
X154524215Y-94666128D01*
X154696250Y-94683072D01*
X155183750Y-94683072D01*
X155355785Y-94666128D01*
X155521209Y-94615947D01*
X155673664Y-94534458D01*
X155807292Y-94424792D01*
X155812508Y-94418436D01*
X155876315Y-94496185D01*
X155973006Y-94575537D01*
X156083320Y-94634502D01*
X156203018Y-94670812D01*
X156327500Y-94683072D01*
X156529250Y-94680000D01*
X156688000Y-94521250D01*
X156688000Y-93472000D01*
X156942000Y-93472000D01*
X156942000Y-94521250D01*
X157100750Y-94680000D01*
X157302500Y-94683072D01*
X157426982Y-94670812D01*
X157546680Y-94634502D01*
X157656994Y-94575537D01*
X157753685Y-94496185D01*
X157833037Y-94399494D01*
X157892002Y-94289180D01*
X157928312Y-94169482D01*
X157940572Y-94045000D01*
X157937500Y-93630750D01*
X157778750Y-93472000D01*
X156942000Y-93472000D01*
X156688000Y-93472000D01*
X156668000Y-93472000D01*
X156668000Y-93218000D01*
X156688000Y-93218000D01*
X156688000Y-91567000D01*
X156942000Y-91567000D01*
X156942000Y-93218000D01*
X157778750Y-93218000D01*
X157937500Y-93059250D01*
X157940572Y-92645000D01*
X157928312Y-92520518D01*
X157892002Y-92400820D01*
X157887555Y-92392500D01*
X157892002Y-92384180D01*
X157928312Y-92264482D01*
X157940572Y-92140000D01*
X157937500Y-91725750D01*
X157778750Y-91567000D01*
X156942000Y-91567000D01*
X156688000Y-91567000D01*
X156668000Y-91567000D01*
X156668000Y-91313000D01*
X156688000Y-91313000D01*
X156688000Y-90263750D01*
X156942000Y-90263750D01*
X156942000Y-91313000D01*
X157778750Y-91313000D01*
X157937500Y-91154250D01*
X157940572Y-90740000D01*
X157928312Y-90615518D01*
X157892002Y-90495820D01*
X157833037Y-90385506D01*
X157753685Y-90288815D01*
X157656994Y-90209463D01*
X157546680Y-90150498D01*
X157426982Y-90114188D01*
X157302500Y-90101928D01*
X157100750Y-90105000D01*
X156942000Y-90263750D01*
X156688000Y-90263750D01*
X156654216Y-90229966D01*
X163820365Y-83063817D01*
X163721401Y-83248966D01*
X163636487Y-83528889D01*
X163607815Y-83820000D01*
X163636487Y-84111111D01*
X163721401Y-84391034D01*
X163859294Y-84649014D01*
X164044866Y-84875134D01*
X164270986Y-85060706D01*
X164325791Y-85090000D01*
X164270986Y-85119294D01*
X164044866Y-85304866D01*
X163859294Y-85530986D01*
X163721401Y-85788966D01*
X163636487Y-86068889D01*
X163607815Y-86360000D01*
X163636487Y-86651111D01*
X163721401Y-86931034D01*
X163859294Y-87189014D01*
X164044866Y-87415134D01*
X164270986Y-87600706D01*
X164325791Y-87630000D01*
X164270986Y-87659294D01*
X164044866Y-87844866D01*
X163859294Y-88070986D01*
X163721401Y-88328966D01*
X163636487Y-88608889D01*
X163607815Y-88900000D01*
X163636487Y-89191111D01*
X163721401Y-89471034D01*
X163859294Y-89729014D01*
X164044866Y-89955134D01*
X164270986Y-90140706D01*
X164325791Y-90170000D01*
X164270986Y-90199294D01*
X164044866Y-90384866D01*
X163859294Y-90610986D01*
X163721401Y-90868966D01*
X163636487Y-91148889D01*
X163607815Y-91440000D01*
X163636487Y-91731111D01*
X163721401Y-92011034D01*
X163859294Y-92269014D01*
X164044866Y-92495134D01*
X164270986Y-92680706D01*
X164325791Y-92710000D01*
X164270986Y-92739294D01*
X164044866Y-92924866D01*
X163859294Y-93150986D01*
X163721401Y-93408966D01*
X163636487Y-93688889D01*
X163607815Y-93980000D01*
X163636487Y-94271111D01*
X163721401Y-94551034D01*
X163859294Y-94809014D01*
X164044866Y-95035134D01*
X164270986Y-95220706D01*
X164325791Y-95250000D01*
X164270986Y-95279294D01*
X164044866Y-95464866D01*
X163859294Y-95690986D01*
X163721401Y-95948966D01*
X163636487Y-96228889D01*
X163607815Y-96520000D01*
X163636487Y-96811111D01*
X163721401Y-97091034D01*
X163859294Y-97349014D01*
X164044866Y-97575134D01*
X164270986Y-97760706D01*
X164325791Y-97790000D01*
X164270986Y-97819294D01*
X164044866Y-98004866D01*
X163859294Y-98230986D01*
X163721401Y-98488966D01*
X163636487Y-98768889D01*
X163607815Y-99060000D01*
X163636487Y-99351111D01*
X163721401Y-99631034D01*
X163859294Y-99889014D01*
X164044866Y-100115134D01*
X164270986Y-100300706D01*
X164325791Y-100330000D01*
X164270986Y-100359294D01*
X164044866Y-100544866D01*
X163859294Y-100770986D01*
X163721401Y-101028966D01*
X163636487Y-101308889D01*
X163607815Y-101600000D01*
X163636487Y-101891111D01*
X163721401Y-102171034D01*
X163859294Y-102429014D01*
X164044866Y-102655134D01*
X164270986Y-102840706D01*
X164325791Y-102870000D01*
X164270986Y-102899294D01*
X164044866Y-103084866D01*
X163859294Y-103310986D01*
X163721401Y-103568966D01*
X163636487Y-103848889D01*
X163607815Y-104140000D01*
X163636487Y-104431111D01*
X163721401Y-104711034D01*
X163859294Y-104969014D01*
X164044866Y-105195134D01*
X164270986Y-105380706D01*
X164528966Y-105518599D01*
X164808889Y-105603513D01*
X165027050Y-105625000D01*
X165172950Y-105625000D01*
X165391111Y-105603513D01*
X165671034Y-105518599D01*
X165929014Y-105380706D01*
X166155134Y-105195134D01*
X166340706Y-104969014D01*
X166478599Y-104711034D01*
X166563513Y-104431111D01*
X166592185Y-104140000D01*
X166563513Y-103848889D01*
X166478599Y-103568966D01*
X166340706Y-103310986D01*
X166155134Y-103084866D01*
X165929014Y-102899294D01*
X165874209Y-102870000D01*
X165929014Y-102840706D01*
X166155134Y-102655134D01*
X166340706Y-102429014D01*
X166478599Y-102171034D01*
X166563513Y-101891111D01*
X166592185Y-101600000D01*
X166563513Y-101308889D01*
X166478599Y-101028966D01*
X166340706Y-100770986D01*
X166155134Y-100544866D01*
X165929014Y-100359294D01*
X165874209Y-100330000D01*
X165929014Y-100300706D01*
X166155134Y-100115134D01*
X166340706Y-99889014D01*
X166478599Y-99631034D01*
X166563513Y-99351111D01*
X166592185Y-99060000D01*
X166563513Y-98768889D01*
X166478599Y-98488966D01*
X166340706Y-98230986D01*
X166155134Y-98004866D01*
X165929014Y-97819294D01*
X165874209Y-97790000D01*
X165929014Y-97760706D01*
X166155134Y-97575134D01*
X166340706Y-97349014D01*
X166478599Y-97091034D01*
X166563513Y-96811111D01*
X166592185Y-96520000D01*
X166563513Y-96228889D01*
X166478599Y-95948966D01*
X166340706Y-95690986D01*
X166155134Y-95464866D01*
X165929014Y-95279294D01*
X165874209Y-95250000D01*
X165929014Y-95220706D01*
X166155134Y-95035134D01*
X166340706Y-94809014D01*
X166478599Y-94551034D01*
X166563513Y-94271111D01*
X166592185Y-93980000D01*
X166563513Y-93688889D01*
X166478599Y-93408966D01*
X166340706Y-93150986D01*
X166155134Y-92924866D01*
X165929014Y-92739294D01*
X165874209Y-92710000D01*
X165929014Y-92680706D01*
X166155134Y-92495134D01*
X166340706Y-92269014D01*
X166478599Y-92011034D01*
X166563513Y-91731111D01*
X166592185Y-91440000D01*
X166563513Y-91148889D01*
X166478599Y-90868966D01*
X166340706Y-90610986D01*
X166155134Y-90384866D01*
X165929014Y-90199294D01*
X165874209Y-90170000D01*
X165929014Y-90140706D01*
X166155134Y-89955134D01*
X166340706Y-89729014D01*
X166478599Y-89471034D01*
X166563513Y-89191111D01*
X166592185Y-88900000D01*
X166563513Y-88608889D01*
X166478599Y-88328966D01*
X166340706Y-88070986D01*
X166155134Y-87844866D01*
X165929014Y-87659294D01*
X165874209Y-87630000D01*
X165929014Y-87600706D01*
X166155134Y-87415134D01*
X166340706Y-87189014D01*
X166478599Y-86931034D01*
X166563513Y-86651111D01*
X166592185Y-86360000D01*
X166563513Y-86068889D01*
X166478599Y-85788966D01*
X166340706Y-85530986D01*
X166155134Y-85304866D01*
X165929014Y-85119294D01*
X165874209Y-85090000D01*
X165929014Y-85060706D01*
X166155134Y-84875134D01*
X166340706Y-84649014D01*
X166478599Y-84391034D01*
X166563513Y-84111111D01*
X166592185Y-83820000D01*
X166563513Y-83528889D01*
X166478599Y-83248966D01*
X166340706Y-82990986D01*
X166155134Y-82764866D01*
X165929014Y-82579294D01*
X165874209Y-82550000D01*
X165929014Y-82520706D01*
X166155134Y-82335134D01*
X166340706Y-82109014D01*
X166478599Y-81851034D01*
X166563513Y-81571111D01*
X166592185Y-81280000D01*
X166563513Y-80988889D01*
X166478599Y-80708966D01*
X166340706Y-80450986D01*
X166155134Y-80224866D01*
X165929014Y-80039294D01*
X165874209Y-80010000D01*
X165929014Y-79980706D01*
X166155134Y-79795134D01*
X166340706Y-79569014D01*
X166478599Y-79311034D01*
X166563513Y-79031111D01*
X166592185Y-78740000D01*
X166563513Y-78448889D01*
X166478599Y-78168966D01*
X166340706Y-77910986D01*
X166155134Y-77684866D01*
X165929014Y-77499294D01*
X165874209Y-77470000D01*
X165929014Y-77440706D01*
X166155134Y-77255134D01*
X166340706Y-77029014D01*
X166478599Y-76771034D01*
X166563513Y-76491111D01*
X166592185Y-76200000D01*
X166563513Y-75908889D01*
X166478599Y-75628966D01*
X166340706Y-75370986D01*
X166155134Y-75144866D01*
X165929014Y-74959294D01*
X165874209Y-74930000D01*
X165929014Y-74900706D01*
X166155134Y-74715134D01*
X166340706Y-74489014D01*
X166478599Y-74231034D01*
X166563513Y-73951111D01*
X166592185Y-73660000D01*
X166563513Y-73368889D01*
X166478599Y-73088966D01*
X166340706Y-72830986D01*
X166278552Y-72755251D01*
X167516004Y-71517800D01*
X167545001Y-71494003D01*
X167639974Y-71378278D01*
X167710546Y-71246249D01*
X167754003Y-71102988D01*
X167765000Y-70991335D01*
X167765000Y-70991324D01*
X167768676Y-70954002D01*
X167765000Y-70916677D01*
X167765000Y-65315535D01*
X167833586Y-65212889D01*
X167904068Y-65042729D01*
X167940000Y-64862089D01*
X167940000Y-64677911D01*
X167904068Y-64497271D01*
X167833586Y-64327111D01*
X167731262Y-64173972D01*
X167601028Y-64043738D01*
X167447889Y-63941414D01*
X167277729Y-63870932D01*
X167097089Y-63835000D01*
X166912911Y-63835000D01*
X166732271Y-63870932D01*
X166600369Y-63925567D01*
X166540797Y-63865995D01*
X166563513Y-63791111D01*
X166592185Y-63500000D01*
X166563513Y-63208889D01*
X166478599Y-62928966D01*
X166340706Y-62670986D01*
X166155134Y-62444866D01*
X165929014Y-62259294D01*
X165874209Y-62230000D01*
X165929014Y-62200706D01*
X166155134Y-62015134D01*
X166340706Y-61789014D01*
X166478599Y-61531034D01*
X166563513Y-61251111D01*
X166592185Y-60960000D01*
X166563513Y-60668889D01*
X166478599Y-60388966D01*
X166340706Y-60130986D01*
X166155134Y-59904866D01*
X165929014Y-59719294D01*
X165864477Y-59684799D01*
X165981355Y-59615178D01*
X166197588Y-59420269D01*
X166371641Y-59186920D01*
X166496825Y-58924099D01*
X166541476Y-58776890D01*
X166420155Y-58547000D01*
X165227000Y-58547000D01*
X165227000Y-58567000D01*
X164973000Y-58567000D01*
X164973000Y-58547000D01*
X164953000Y-58547000D01*
X164953000Y-58293000D01*
X164973000Y-58293000D01*
X164973000Y-56007000D01*
X165227000Y-56007000D01*
X165227000Y-58293000D01*
X166420155Y-58293000D01*
X166541476Y-58063110D01*
X166496825Y-57915901D01*
X166371641Y-57653080D01*
X166197588Y-57419731D01*
X166113534Y-57343966D01*
X166194180Y-57319502D01*
X166304494Y-57260537D01*
X166401185Y-57181185D01*
X166480537Y-57084494D01*
X166539502Y-56974180D01*
X166575812Y-56854482D01*
X166588072Y-56730000D01*
X166585000Y-56165750D01*
X166426250Y-56007000D01*
X165227000Y-56007000D01*
X164973000Y-56007000D01*
X164953000Y-56007000D01*
X164953000Y-55753000D01*
X164973000Y-55753000D01*
X164973000Y-54553750D01*
X165227000Y-54553750D01*
X165227000Y-55753000D01*
X166426250Y-55753000D01*
X166585000Y-55594250D01*
X166588072Y-55030000D01*
X166575812Y-54905518D01*
X166539502Y-54785820D01*
X166480537Y-54675506D01*
X166401185Y-54578815D01*
X166304494Y-54499463D01*
X166194180Y-54440498D01*
X166074482Y-54404188D01*
X165950000Y-54391928D01*
X165385750Y-54395000D01*
X165227000Y-54553750D01*
X164973000Y-54553750D01*
X164814250Y-54395000D01*
X164250000Y-54391928D01*
X164125518Y-54404188D01*
X164005820Y-54440498D01*
X163895506Y-54499463D01*
X163830000Y-54553222D01*
X163764494Y-54499463D01*
X163654180Y-54440498D01*
X163534482Y-54404188D01*
X163410000Y-54391928D01*
X161710000Y-54391928D01*
X161585518Y-54404188D01*
X161465820Y-54440498D01*
X161355506Y-54499463D01*
X161258815Y-54578815D01*
X161179463Y-54675506D01*
X161120498Y-54785820D01*
X161096034Y-54866466D01*
X161020269Y-54782412D01*
X160786920Y-54608359D01*
X160524099Y-54483175D01*
X160376890Y-54438524D01*
X160147000Y-54559845D01*
X160147000Y-55753000D01*
X160167000Y-55753000D01*
X160167000Y-56007000D01*
X160147000Y-56007000D01*
X160147000Y-56027000D01*
X159893000Y-56027000D01*
X159893000Y-56007000D01*
X159873000Y-56007000D01*
X159873000Y-55753000D01*
X159893000Y-55753000D01*
X159893000Y-54559845D01*
X159663110Y-54438524D01*
X159515901Y-54483175D01*
X159253080Y-54608359D01*
X159019731Y-54782412D01*
X158824822Y-54998645D01*
X158755201Y-55115523D01*
X158720706Y-55050986D01*
X158535134Y-54824866D01*
X158309014Y-54639294D01*
X158051034Y-54501401D01*
X157771111Y-54416487D01*
X157552950Y-54395000D01*
X157407050Y-54395000D01*
X157188889Y-54416487D01*
X156908966Y-54501401D01*
X156650986Y-54639294D01*
X156424866Y-54824866D01*
X156239294Y-55050986D01*
X156210000Y-55105791D01*
X156180706Y-55050986D01*
X155995134Y-54824866D01*
X155769014Y-54639294D01*
X155511034Y-54501401D01*
X155231111Y-54416487D01*
X155012950Y-54395000D01*
X154867050Y-54395000D01*
X154648889Y-54416487D01*
X154368966Y-54501401D01*
X154110986Y-54639294D01*
X153884866Y-54824866D01*
X153699294Y-55050986D01*
X153670000Y-55105791D01*
X153640706Y-55050986D01*
X153455134Y-54824866D01*
X153229014Y-54639294D01*
X152971034Y-54501401D01*
X152691111Y-54416487D01*
X152472950Y-54395000D01*
X152327050Y-54395000D01*
X152108889Y-54416487D01*
X151828966Y-54501401D01*
X151570986Y-54639294D01*
X151344866Y-54824866D01*
X151159294Y-55050986D01*
X151071338Y-55215540D01*
X149601875Y-53746077D01*
X149724294Y-53565380D01*
X149816974Y-53345619D01*
X149853258Y-53169117D01*
X165905000Y-53169117D01*
X165905000Y-53510883D01*
X165971675Y-53846081D01*
X166102463Y-54161831D01*
X166292337Y-54445998D01*
X166534002Y-54687663D01*
X166818169Y-54877537D01*
X167133919Y-55008325D01*
X167469117Y-55075000D01*
X167810883Y-55075000D01*
X168146081Y-55008325D01*
X168461831Y-54877537D01*
X168745998Y-54687663D01*
X168987663Y-54445998D01*
X169177537Y-54161831D01*
X169308325Y-53846081D01*
X169375000Y-53510883D01*
X169375000Y-53169117D01*
X169308325Y-52833919D01*
X169177537Y-52518169D01*
X168987663Y-52234002D01*
X168745998Y-51992337D01*
X168461831Y-51802463D01*
X168146081Y-51671675D01*
X167810883Y-51605000D01*
X167469117Y-51605000D01*
X167133919Y-51671675D01*
X166818169Y-51802463D01*
X166534002Y-51992337D01*
X166292337Y-52234002D01*
X166102463Y-52518169D01*
X165971675Y-52833919D01*
X165905000Y-53169117D01*
X149853258Y-53169117D01*
X149865000Y-53112000D01*
X149865000Y-52787000D01*
X148782000Y-52787000D01*
X148782000Y-52807000D01*
X148528000Y-52807000D01*
X148528000Y-52787000D01*
X147445000Y-52787000D01*
X147445000Y-53112000D01*
X147451987Y-53145989D01*
X147111931Y-53145989D01*
X147074598Y-53142312D01*
X147037265Y-53145989D01*
X146925612Y-53156986D01*
X146782351Y-53200443D01*
X146650322Y-53271015D01*
X146534597Y-53365988D01*
X146510799Y-53394986D01*
X142860983Y-57044803D01*
X142831979Y-57068606D01*
X142806883Y-57099186D01*
X142737006Y-57184331D01*
X142715363Y-57224822D01*
X142666434Y-57316361D01*
X142622977Y-57459622D01*
X142611980Y-57571275D01*
X142611980Y-57571285D01*
X142608304Y-57608607D01*
X142611980Y-57645929D01*
X142611981Y-80599469D01*
X142608304Y-80636802D01*
X142611981Y-80674135D01*
X142622978Y-80785788D01*
X142625465Y-80793986D01*
X142666434Y-80929048D01*
X142737006Y-81061078D01*
X142792352Y-81128516D01*
X142831980Y-81176803D01*
X142860978Y-81200601D01*
X146406271Y-84745895D01*
X146374208Y-84772208D01*
X146368992Y-84778564D01*
X146305185Y-84700815D01*
X146208494Y-84621463D01*
X146098180Y-84562498D01*
X145978482Y-84526188D01*
X145854000Y-84513928D01*
X145652250Y-84517000D01*
X145493500Y-84675750D01*
X145493500Y-85725000D01*
X145513500Y-85725000D01*
X145513500Y-85979000D01*
X145493500Y-85979000D01*
X145493500Y-87028250D01*
X145652250Y-87187000D01*
X145854000Y-87190072D01*
X145978482Y-87177812D01*
X146098180Y-87141502D01*
X146208494Y-87082537D01*
X146305185Y-87003185D01*
X146368992Y-86925436D01*
X146374208Y-86931792D01*
X146507836Y-87041458D01*
X146660291Y-87122947D01*
X146825715Y-87173128D01*
X146997750Y-87190072D01*
X147485250Y-87190072D01*
X147657285Y-87173128D01*
X147822709Y-87122947D01*
X147975164Y-87041458D01*
X148108792Y-86931792D01*
X148218458Y-86798164D01*
X148299947Y-86645709D01*
X148350128Y-86480285D01*
X148367072Y-86308250D01*
X148367072Y-85395750D01*
X148355367Y-85276911D01*
X150649581Y-85276911D01*
X150752227Y-85345497D01*
X150922387Y-85415979D01*
X151103027Y-85451911D01*
X151287205Y-85451911D01*
X151467845Y-85415979D01*
X151638005Y-85345497D01*
X151791144Y-85243173D01*
X151921378Y-85112939D01*
X151991723Y-85007660D01*
X152023000Y-85010741D01*
X152023008Y-85010741D01*
X152060333Y-85014417D01*
X152097658Y-85010741D01*
X158390869Y-85010741D01*
X157156611Y-86244999D01*
X154332324Y-86244999D01*
X154295001Y-86241323D01*
X154257678Y-86244999D01*
X154257668Y-86244999D01*
X154146015Y-86255996D01*
X154002754Y-86299453D01*
X153870724Y-86370025D01*
X153790584Y-86435795D01*
X153755000Y-86464998D01*
X153731201Y-86493997D01*
X153518351Y-86706847D01*
X153397271Y-86730932D01*
X153227111Y-86801414D01*
X153073972Y-86903738D01*
X152943738Y-87033972D01*
X152841414Y-87187111D01*
X152770932Y-87357271D01*
X152735000Y-87537911D01*
X152735000Y-87722089D01*
X152770932Y-87902729D01*
X152841414Y-88072889D01*
X152943738Y-88226028D01*
X153073972Y-88356262D01*
X153227111Y-88458586D01*
X153397271Y-88529068D01*
X153577911Y-88565000D01*
X153762089Y-88565000D01*
X153942729Y-88529068D01*
X154112889Y-88458586D01*
X154266028Y-88356262D01*
X154396262Y-88226028D01*
X154498586Y-88072889D01*
X154569068Y-87902729D01*
X154593153Y-87781649D01*
X154609803Y-87764999D01*
X156969580Y-87764999D01*
X154847741Y-89886838D01*
X154619905Y-89659002D01*
X154596103Y-89629999D01*
X154480378Y-89535026D01*
X154348349Y-89464454D01*
X154205088Y-89420997D01*
X154093435Y-89410000D01*
X154093424Y-89410000D01*
X154056102Y-89406324D01*
X154018780Y-89410000D01*
X150643744Y-89410000D01*
X150688586Y-89342889D01*
X150759068Y-89172729D01*
X150795000Y-88992089D01*
X150795000Y-88807911D01*
X150759068Y-88627271D01*
X150688586Y-88457111D01*
X150586262Y-88303972D01*
X150456028Y-88173738D01*
X150302889Y-88071414D01*
X150132729Y-88000932D01*
X149952089Y-87965000D01*
X149767911Y-87965000D01*
X149587271Y-88000932D01*
X149417111Y-88071414D01*
X149314465Y-88140000D01*
X147152972Y-88140000D01*
X147115649Y-88136324D01*
X147078326Y-88140000D01*
X147078317Y-88140000D01*
X146966664Y-88150997D01*
X146823403Y-88194454D01*
X146691374Y-88265026D01*
X146575649Y-88359999D01*
X146551851Y-88388997D01*
X141729003Y-93211846D01*
X141699999Y-93235649D01*
X141674918Y-93266211D01*
X141605026Y-93351374D01*
X141573690Y-93410000D01*
X141534454Y-93483404D01*
X141490997Y-93626665D01*
X141480000Y-93738318D01*
X141480000Y-93738328D01*
X141476324Y-93775650D01*
X141480000Y-93812973D01*
X141480001Y-95131928D01*
X140940000Y-95131928D01*
X140915550Y-95134336D01*
X140890991Y-95134336D01*
X140766510Y-95146596D01*
X140670377Y-95165718D01*
X140550681Y-95202027D01*
X140460125Y-95239536D01*
X140349808Y-95298502D01*
X140268309Y-95352958D01*
X140171618Y-95432310D01*
X140102310Y-95501618D01*
X140022958Y-95598309D01*
X139968502Y-95679808D01*
X139909536Y-95790125D01*
X139872027Y-95880681D01*
X139835718Y-96000377D01*
X139816596Y-96096510D01*
X139804336Y-96220991D01*
X139804336Y-96245550D01*
X139801928Y-96270000D01*
X139801928Y-96770000D01*
X139804336Y-96794450D01*
X139804336Y-96819009D01*
X139816596Y-96943490D01*
X139835718Y-97039623D01*
X139872027Y-97159319D01*
X139909536Y-97249875D01*
X139968502Y-97360192D01*
X140022958Y-97441691D01*
X140102310Y-97538382D01*
X140171618Y-97607690D01*
X140268309Y-97687042D01*
X140338661Y-97734049D01*
X140243738Y-97828972D01*
X140141414Y-97982111D01*
X140070932Y-98152271D01*
X140035000Y-98332911D01*
X140035000Y-98517089D01*
X140070932Y-98697729D01*
X140141414Y-98867889D01*
X140210000Y-98970536D01*
X140210001Y-104657670D01*
X140206324Y-104695002D01*
X140220998Y-104843987D01*
X140264454Y-104987248D01*
X140335026Y-105119278D01*
X140354054Y-105142463D01*
X140430000Y-105235003D01*
X140458998Y-105258801D01*
X141456200Y-106256004D01*
X141479998Y-106285002D01*
X141595723Y-106379975D01*
X141727752Y-106450547D01*
X141871013Y-106494004D01*
X141982666Y-106505001D01*
X141982676Y-106505001D01*
X142019999Y-106508677D01*
X142057322Y-106505001D01*
X143039294Y-106505001D01*
X142913972Y-106588738D01*
X142783738Y-106718972D01*
X142681414Y-106872111D01*
X142610932Y-107042271D01*
X142575000Y-107222911D01*
X142575000Y-107407089D01*
X142610932Y-107587729D01*
X142681414Y-107757889D01*
X142783738Y-107911028D01*
X142913972Y-108041262D01*
X143067111Y-108143586D01*
X143237271Y-108214068D01*
X143358351Y-108238153D01*
X143630198Y-108510000D01*
X132790000Y-108510000D01*
X132790000Y-106509117D01*
X132885000Y-106509117D01*
X132885000Y-106850883D01*
X132951675Y-107186081D01*
X133082463Y-107501831D01*
X133272337Y-107785998D01*
X133514002Y-108027663D01*
X133798169Y-108217537D01*
X134113919Y-108348325D01*
X134449117Y-108415000D01*
X134790883Y-108415000D01*
X135126081Y-108348325D01*
X135441831Y-108217537D01*
X135725998Y-108027663D01*
X135967663Y-107785998D01*
X136157537Y-107501831D01*
X136288325Y-107186081D01*
X136355000Y-106850883D01*
X136355000Y-106509117D01*
X136288325Y-106173919D01*
X136157537Y-105858169D01*
X135967663Y-105574002D01*
X135725998Y-105332337D01*
X135441831Y-105142463D01*
X135126081Y-105011675D01*
X134790883Y-104945000D01*
X134449117Y-104945000D01*
X134113919Y-105011675D01*
X133798169Y-105142463D01*
X133514002Y-105332337D01*
X133272337Y-105574002D01*
X133082463Y-105858169D01*
X132951675Y-106173919D01*
X132885000Y-106509117D01*
X132790000Y-106509117D01*
X132790000Y-60960000D01*
X135667815Y-60960000D01*
X135696487Y-61251111D01*
X135781401Y-61531034D01*
X135919294Y-61789014D01*
X136104866Y-62015134D01*
X136330986Y-62200706D01*
X136385791Y-62230000D01*
X136330986Y-62259294D01*
X136104866Y-62444866D01*
X135919294Y-62670986D01*
X135781401Y-62928966D01*
X135696487Y-63208889D01*
X135667815Y-63500000D01*
X135696487Y-63791111D01*
X135781401Y-64071034D01*
X135919294Y-64329014D01*
X136104866Y-64555134D01*
X136330986Y-64740706D01*
X136385791Y-64770000D01*
X136330986Y-64799294D01*
X136104866Y-64984866D01*
X135919294Y-65210986D01*
X135781401Y-65468966D01*
X135696487Y-65748889D01*
X135667815Y-66040000D01*
X135696487Y-66331111D01*
X135781401Y-66611034D01*
X135919294Y-66869014D01*
X136104866Y-67095134D01*
X136330986Y-67280706D01*
X136385791Y-67310000D01*
X136330986Y-67339294D01*
X136104866Y-67524866D01*
X135919294Y-67750986D01*
X135781401Y-68008966D01*
X135696487Y-68288889D01*
X135667815Y-68580000D01*
X135696487Y-68871111D01*
X135781401Y-69151034D01*
X135919294Y-69409014D01*
X136104866Y-69635134D01*
X136330986Y-69820706D01*
X136385791Y-69850000D01*
X136330986Y-69879294D01*
X136104866Y-70064866D01*
X135919294Y-70290986D01*
X135781401Y-70548966D01*
X135696487Y-70828889D01*
X135667815Y-71120000D01*
X135696487Y-71411111D01*
X135781401Y-71691034D01*
X135919294Y-71949014D01*
X136104866Y-72175134D01*
X136330986Y-72360706D01*
X136385791Y-72390000D01*
X136330986Y-72419294D01*
X136104866Y-72604866D01*
X135919294Y-72830986D01*
X135781401Y-73088966D01*
X135696487Y-73368889D01*
X135667815Y-73660000D01*
X135696487Y-73951111D01*
X135781401Y-74231034D01*
X135919294Y-74489014D01*
X136104866Y-74715134D01*
X136330986Y-74900706D01*
X136385791Y-74930000D01*
X136330986Y-74959294D01*
X136104866Y-75144866D01*
X135919294Y-75370986D01*
X135781401Y-75628966D01*
X135696487Y-75908889D01*
X135667815Y-76200000D01*
X135696487Y-76491111D01*
X135781401Y-76771034D01*
X135919294Y-77029014D01*
X136104866Y-77255134D01*
X136330986Y-77440706D01*
X136385791Y-77470000D01*
X136330986Y-77499294D01*
X136104866Y-77684866D01*
X135919294Y-77910986D01*
X135781401Y-78168966D01*
X135696487Y-78448889D01*
X135667815Y-78740000D01*
X135696487Y-79031111D01*
X135781401Y-79311034D01*
X135919294Y-79569014D01*
X136104866Y-79795134D01*
X136330986Y-79980706D01*
X136385791Y-80010000D01*
X136330986Y-80039294D01*
X136104866Y-80224866D01*
X135919294Y-80450986D01*
X135781401Y-80708966D01*
X135696487Y-80988889D01*
X135667815Y-81280000D01*
X135696487Y-81571111D01*
X135781401Y-81851034D01*
X135919294Y-82109014D01*
X136104866Y-82335134D01*
X136330986Y-82520706D01*
X136385791Y-82550000D01*
X136330986Y-82579294D01*
X136104866Y-82764866D01*
X135919294Y-82990986D01*
X135781401Y-83248966D01*
X135696487Y-83528889D01*
X135667815Y-83820000D01*
X135696487Y-84111111D01*
X135781401Y-84391034D01*
X135919294Y-84649014D01*
X136104866Y-84875134D01*
X136330986Y-85060706D01*
X136385791Y-85090000D01*
X136330986Y-85119294D01*
X136104866Y-85304866D01*
X135919294Y-85530986D01*
X135781401Y-85788966D01*
X135696487Y-86068889D01*
X135667815Y-86360000D01*
X135696487Y-86651111D01*
X135781401Y-86931034D01*
X135919294Y-87189014D01*
X136104866Y-87415134D01*
X136330986Y-87600706D01*
X136385791Y-87630000D01*
X136330986Y-87659294D01*
X136104866Y-87844866D01*
X135919294Y-88070986D01*
X135781401Y-88328966D01*
X135696487Y-88608889D01*
X135667815Y-88900000D01*
X135696487Y-89191111D01*
X135781401Y-89471034D01*
X135919294Y-89729014D01*
X136104866Y-89955134D01*
X136330986Y-90140706D01*
X136385791Y-90170000D01*
X136330986Y-90199294D01*
X136104866Y-90384866D01*
X135919294Y-90610986D01*
X135781401Y-90868966D01*
X135696487Y-91148889D01*
X135667815Y-91440000D01*
X135696487Y-91731111D01*
X135781401Y-92011034D01*
X135919294Y-92269014D01*
X136104866Y-92495134D01*
X136330986Y-92680706D01*
X136385791Y-92710000D01*
X136330986Y-92739294D01*
X136104866Y-92924866D01*
X135919294Y-93150986D01*
X135781401Y-93408966D01*
X135696487Y-93688889D01*
X135667815Y-93980000D01*
X135696487Y-94271111D01*
X135781401Y-94551034D01*
X135919294Y-94809014D01*
X136104866Y-95035134D01*
X136330986Y-95220706D01*
X136385791Y-95250000D01*
X136330986Y-95279294D01*
X136104866Y-95464866D01*
X135919294Y-95690986D01*
X135781401Y-95948966D01*
X135696487Y-96228889D01*
X135667815Y-96520000D01*
X135696487Y-96811111D01*
X135781401Y-97091034D01*
X135919294Y-97349014D01*
X136104866Y-97575134D01*
X136330986Y-97760706D01*
X136385791Y-97790000D01*
X136330986Y-97819294D01*
X136104866Y-98004866D01*
X135919294Y-98230986D01*
X135781401Y-98488966D01*
X135696487Y-98768889D01*
X135667815Y-99060000D01*
X135696487Y-99351111D01*
X135781401Y-99631034D01*
X135919294Y-99889014D01*
X136104866Y-100115134D01*
X136330986Y-100300706D01*
X136385791Y-100330000D01*
X136330986Y-100359294D01*
X136104866Y-100544866D01*
X135919294Y-100770986D01*
X135781401Y-101028966D01*
X135696487Y-101308889D01*
X135667815Y-101600000D01*
X135696487Y-101891111D01*
X135781401Y-102171034D01*
X135919294Y-102429014D01*
X136104866Y-102655134D01*
X136330986Y-102840706D01*
X136385791Y-102870000D01*
X136330986Y-102899294D01*
X136104866Y-103084866D01*
X135919294Y-103310986D01*
X135781401Y-103568966D01*
X135696487Y-103848889D01*
X135667815Y-104140000D01*
X135696487Y-104431111D01*
X135781401Y-104711034D01*
X135919294Y-104969014D01*
X136104866Y-105195134D01*
X136330986Y-105380706D01*
X136588966Y-105518599D01*
X136868889Y-105603513D01*
X137087050Y-105625000D01*
X137232950Y-105625000D01*
X137451111Y-105603513D01*
X137731034Y-105518599D01*
X137989014Y-105380706D01*
X138215134Y-105195134D01*
X138400706Y-104969014D01*
X138538599Y-104711034D01*
X138623513Y-104431111D01*
X138652185Y-104140000D01*
X138623513Y-103848889D01*
X138538599Y-103568966D01*
X138400706Y-103310986D01*
X138215134Y-103084866D01*
X137989014Y-102899294D01*
X137934209Y-102870000D01*
X137989014Y-102840706D01*
X138215134Y-102655134D01*
X138400706Y-102429014D01*
X138538599Y-102171034D01*
X138623513Y-101891111D01*
X138652185Y-101600000D01*
X138623513Y-101308889D01*
X138538599Y-101028966D01*
X138400706Y-100770986D01*
X138215134Y-100544866D01*
X137989014Y-100359294D01*
X137934209Y-100330000D01*
X137989014Y-100300706D01*
X138215134Y-100115134D01*
X138400706Y-99889014D01*
X138538599Y-99631034D01*
X138623513Y-99351111D01*
X138652185Y-99060000D01*
X138623513Y-98768889D01*
X138538599Y-98488966D01*
X138400706Y-98230986D01*
X138215134Y-98004866D01*
X137989014Y-97819294D01*
X137934209Y-97790000D01*
X137989014Y-97760706D01*
X138215134Y-97575134D01*
X138400706Y-97349014D01*
X138538599Y-97091034D01*
X138623513Y-96811111D01*
X138652185Y-96520000D01*
X138623513Y-96228889D01*
X138538599Y-95948966D01*
X138400706Y-95690986D01*
X138215134Y-95464866D01*
X137989014Y-95279294D01*
X137934209Y-95250000D01*
X137989014Y-95220706D01*
X138215134Y-95035134D01*
X138400706Y-94809014D01*
X138538599Y-94551034D01*
X138623513Y-94271111D01*
X138652185Y-93980000D01*
X138623513Y-93688889D01*
X138538599Y-93408966D01*
X138400706Y-93150986D01*
X138215134Y-92924866D01*
X137989014Y-92739294D01*
X137934209Y-92710000D01*
X137989014Y-92680706D01*
X138215134Y-92495134D01*
X138400706Y-92269014D01*
X138538599Y-92011034D01*
X138623513Y-91731111D01*
X138652185Y-91440000D01*
X138623513Y-91148889D01*
X138538599Y-90868966D01*
X138400706Y-90610986D01*
X138215134Y-90384866D01*
X137989014Y-90199294D01*
X137934209Y-90170000D01*
X137989014Y-90140706D01*
X138215134Y-89955134D01*
X138400706Y-89729014D01*
X138538599Y-89471034D01*
X138623513Y-89191111D01*
X138652185Y-88900000D01*
X138623513Y-88608889D01*
X138538599Y-88328966D01*
X138400706Y-88070986D01*
X138215134Y-87844866D01*
X137989014Y-87659294D01*
X137934209Y-87630000D01*
X137989014Y-87600706D01*
X138215134Y-87415134D01*
X138400706Y-87189014D01*
X138538599Y-86931034D01*
X138623513Y-86651111D01*
X138633274Y-86552000D01*
X144240928Y-86552000D01*
X144253188Y-86676482D01*
X144289498Y-86796180D01*
X144348463Y-86906494D01*
X144427815Y-87003185D01*
X144524506Y-87082537D01*
X144634820Y-87141502D01*
X144754518Y-87177812D01*
X144879000Y-87190072D01*
X145080750Y-87187000D01*
X145239500Y-87028250D01*
X145239500Y-85979000D01*
X144402750Y-85979000D01*
X144244000Y-86137750D01*
X144240928Y-86552000D01*
X138633274Y-86552000D01*
X138652185Y-86360000D01*
X138623513Y-86068889D01*
X138538599Y-85788966D01*
X138400706Y-85530986D01*
X138215134Y-85304866D01*
X138028867Y-85152000D01*
X144240928Y-85152000D01*
X144244000Y-85566250D01*
X144402750Y-85725000D01*
X145239500Y-85725000D01*
X145239500Y-84675750D01*
X145080750Y-84517000D01*
X144879000Y-84513928D01*
X144754518Y-84526188D01*
X144634820Y-84562498D01*
X144524506Y-84621463D01*
X144427815Y-84700815D01*
X144348463Y-84797506D01*
X144289498Y-84907820D01*
X144253188Y-85027518D01*
X144240928Y-85152000D01*
X138028867Y-85152000D01*
X137989014Y-85119294D01*
X137934209Y-85090000D01*
X137989014Y-85060706D01*
X138215134Y-84875134D01*
X138400706Y-84649014D01*
X138538599Y-84391034D01*
X138623513Y-84111111D01*
X138652185Y-83820000D01*
X138623513Y-83528889D01*
X138538599Y-83248966D01*
X138400706Y-82990986D01*
X138215134Y-82764866D01*
X137989014Y-82579294D01*
X137934209Y-82550000D01*
X137989014Y-82520706D01*
X138215134Y-82335134D01*
X138400706Y-82109014D01*
X138538599Y-81851034D01*
X138623513Y-81571111D01*
X138652185Y-81280000D01*
X138623513Y-80988889D01*
X138538599Y-80708966D01*
X138400706Y-80450986D01*
X138215134Y-80224866D01*
X137989014Y-80039294D01*
X137934209Y-80010000D01*
X137989014Y-79980706D01*
X138215134Y-79795134D01*
X138400706Y-79569014D01*
X138538599Y-79311034D01*
X138623513Y-79031111D01*
X138652185Y-78740000D01*
X138623513Y-78448889D01*
X138538599Y-78168966D01*
X138400706Y-77910986D01*
X138215134Y-77684866D01*
X137989014Y-77499294D01*
X137934209Y-77470000D01*
X137989014Y-77440706D01*
X138215134Y-77255134D01*
X138400706Y-77029014D01*
X138538599Y-76771034D01*
X138623513Y-76491111D01*
X138652185Y-76200000D01*
X138623513Y-75908889D01*
X138538599Y-75628966D01*
X138400706Y-75370986D01*
X138215134Y-75144866D01*
X137989014Y-74959294D01*
X137934209Y-74930000D01*
X137989014Y-74900706D01*
X138215134Y-74715134D01*
X138400706Y-74489014D01*
X138538599Y-74231034D01*
X138623513Y-73951111D01*
X138652185Y-73660000D01*
X138623513Y-73368889D01*
X138538599Y-73088966D01*
X138400706Y-72830986D01*
X138215134Y-72604866D01*
X137989014Y-72419294D01*
X137934209Y-72390000D01*
X137989014Y-72360706D01*
X138215134Y-72175134D01*
X138400706Y-71949014D01*
X138538599Y-71691034D01*
X138623513Y-71411111D01*
X138652185Y-71120000D01*
X138623513Y-70828889D01*
X138538599Y-70548966D01*
X138400706Y-70290986D01*
X138215134Y-70064866D01*
X137989014Y-69879294D01*
X137934209Y-69850000D01*
X137989014Y-69820706D01*
X138215134Y-69635134D01*
X138400706Y-69409014D01*
X138538599Y-69151034D01*
X138623513Y-68871111D01*
X138652185Y-68580000D01*
X138623513Y-68288889D01*
X138538599Y-68008966D01*
X138400706Y-67750986D01*
X138215134Y-67524866D01*
X137989014Y-67339294D01*
X137934209Y-67310000D01*
X137989014Y-67280706D01*
X138215134Y-67095134D01*
X138400706Y-66869014D01*
X138538599Y-66611034D01*
X138623513Y-66331111D01*
X138652185Y-66040000D01*
X138623513Y-65748889D01*
X138538599Y-65468966D01*
X138400706Y-65210986D01*
X138215134Y-64984866D01*
X137989014Y-64799294D01*
X137934209Y-64770000D01*
X137989014Y-64740706D01*
X138215134Y-64555134D01*
X138400706Y-64329014D01*
X138430000Y-64274209D01*
X138459294Y-64329014D01*
X138644866Y-64555134D01*
X138870986Y-64740706D01*
X139128966Y-64878599D01*
X139408889Y-64963513D01*
X139627050Y-64985000D01*
X139772950Y-64985000D01*
X139991111Y-64963513D01*
X140271034Y-64878599D01*
X140529014Y-64740706D01*
X140755134Y-64555134D01*
X140940706Y-64329014D01*
X141078599Y-64071034D01*
X141163513Y-63791111D01*
X141192185Y-63500000D01*
X141163513Y-63208889D01*
X141078599Y-62928966D01*
X140940706Y-62670986D01*
X140755134Y-62444866D01*
X140725313Y-62420393D01*
X140794180Y-62399502D01*
X140904494Y-62340537D01*
X141001185Y-62261185D01*
X141080537Y-62164494D01*
X141139502Y-62054180D01*
X141175812Y-61934482D01*
X141188072Y-61810000D01*
X141188072Y-60110000D01*
X141175812Y-59985518D01*
X141139502Y-59865820D01*
X141080537Y-59755506D01*
X141001185Y-59658815D01*
X140904494Y-59579463D01*
X140794180Y-59520498D01*
X140674482Y-59484188D01*
X140550000Y-59471928D01*
X138850000Y-59471928D01*
X138725518Y-59484188D01*
X138605820Y-59520498D01*
X138495506Y-59579463D01*
X138398815Y-59658815D01*
X138319463Y-59755506D01*
X138260498Y-59865820D01*
X138239607Y-59934687D01*
X138215134Y-59904866D01*
X137989014Y-59719294D01*
X137924477Y-59684799D01*
X138041355Y-59615178D01*
X138257588Y-59420269D01*
X138431641Y-59186920D01*
X138556825Y-58924099D01*
X138601476Y-58776890D01*
X138480155Y-58547000D01*
X137287000Y-58547000D01*
X137287000Y-58567000D01*
X137033000Y-58567000D01*
X137033000Y-58547000D01*
X135839845Y-58547000D01*
X135718524Y-58776890D01*
X135763175Y-58924099D01*
X135888359Y-59186920D01*
X136062412Y-59420269D01*
X136278645Y-59615178D01*
X136395523Y-59684799D01*
X136330986Y-59719294D01*
X136104866Y-59904866D01*
X135919294Y-60130986D01*
X135781401Y-60388966D01*
X135696487Y-60668889D01*
X135667815Y-60960000D01*
X132790000Y-60960000D01*
X132790000Y-56730000D01*
X135671928Y-56730000D01*
X135684188Y-56854482D01*
X135720498Y-56974180D01*
X135779463Y-57084494D01*
X135858815Y-57181185D01*
X135955506Y-57260537D01*
X136065820Y-57319502D01*
X136146466Y-57343966D01*
X136062412Y-57419731D01*
X135888359Y-57653080D01*
X135763175Y-57915901D01*
X135718524Y-58063110D01*
X135839845Y-58293000D01*
X137033000Y-58293000D01*
X137033000Y-56007000D01*
X137287000Y-56007000D01*
X137287000Y-58293000D01*
X138480155Y-58293000D01*
X138601476Y-58063110D01*
X138556825Y-57915901D01*
X138431641Y-57653080D01*
X138257588Y-57419731D01*
X138173534Y-57343966D01*
X138254180Y-57319502D01*
X138364494Y-57260537D01*
X138461185Y-57181185D01*
X138540537Y-57084494D01*
X138599502Y-56974180D01*
X138635812Y-56854482D01*
X138648072Y-56730000D01*
X138647294Y-56587000D01*
X139695000Y-56587000D01*
X139695000Y-56862000D01*
X139745908Y-57124883D01*
X139847124Y-57372783D01*
X139994758Y-57596173D01*
X140183137Y-57786469D01*
X140405021Y-57936357D01*
X140651883Y-58040078D01*
X140717742Y-58052519D01*
X140928000Y-57929518D01*
X140928000Y-56587000D01*
X141182000Y-56587000D01*
X141182000Y-57929518D01*
X141392258Y-58052519D01*
X141458117Y-58040078D01*
X141704979Y-57936357D01*
X141926863Y-57786469D01*
X142115242Y-57596173D01*
X142262876Y-57372783D01*
X142364092Y-57124883D01*
X142415000Y-56862000D01*
X142415000Y-56587000D01*
X141182000Y-56587000D01*
X140928000Y-56587000D01*
X139695000Y-56587000D01*
X138647294Y-56587000D01*
X138645000Y-56165750D01*
X138537250Y-56058000D01*
X139695000Y-56058000D01*
X139695000Y-56333000D01*
X140928000Y-56333000D01*
X140928000Y-54990482D01*
X141182000Y-54990482D01*
X141182000Y-56333000D01*
X141811211Y-56333000D01*
X141882007Y-56370841D01*
X142077105Y-56430024D01*
X142229162Y-56445000D01*
X142330838Y-56445000D01*
X142482895Y-56430024D01*
X142677993Y-56370841D01*
X142857797Y-56274734D01*
X143015396Y-56145396D01*
X143144734Y-55987797D01*
X143240841Y-55807993D01*
X143300024Y-55612895D01*
X143320007Y-55410000D01*
X143300024Y-55207105D01*
X143240841Y-55012007D01*
X143144734Y-54832203D01*
X143015396Y-54674604D01*
X142857797Y-54545266D01*
X142677993Y-54449159D01*
X142482895Y-54389976D01*
X142330838Y-54375000D01*
X142229162Y-54375000D01*
X142077105Y-54389976D01*
X141882007Y-54449159D01*
X141702203Y-54545266D01*
X141544604Y-54674604D01*
X141415266Y-54832203D01*
X141396029Y-54868193D01*
X141392258Y-54867481D01*
X141182000Y-54990482D01*
X140928000Y-54990482D01*
X140717742Y-54867481D01*
X140651883Y-54879922D01*
X140405021Y-54983643D01*
X140183137Y-55133531D01*
X139994758Y-55323827D01*
X139847124Y-55547217D01*
X139745908Y-55795117D01*
X139695000Y-56058000D01*
X138537250Y-56058000D01*
X138486250Y-56007000D01*
X137287000Y-56007000D01*
X137033000Y-56007000D01*
X135833750Y-56007000D01*
X135675000Y-56165750D01*
X135671928Y-56730000D01*
X132790000Y-56730000D01*
X132790000Y-53169117D01*
X132885000Y-53169117D01*
X132885000Y-53510883D01*
X132951675Y-53846081D01*
X133082463Y-54161831D01*
X133272337Y-54445998D01*
X133514002Y-54687663D01*
X133798169Y-54877537D01*
X134113919Y-55008325D01*
X134449117Y-55075000D01*
X134790883Y-55075000D01*
X135017113Y-55030000D01*
X135671928Y-55030000D01*
X135675000Y-55594250D01*
X135833750Y-55753000D01*
X137033000Y-55753000D01*
X137033000Y-54553750D01*
X137287000Y-54553750D01*
X137287000Y-55753000D01*
X138486250Y-55753000D01*
X138645000Y-55594250D01*
X138648072Y-55030000D01*
X138635812Y-54905518D01*
X138599502Y-54785820D01*
X138540537Y-54675506D01*
X138461185Y-54578815D01*
X138364494Y-54499463D01*
X138254180Y-54440498D01*
X138134482Y-54404188D01*
X138010000Y-54391928D01*
X137445750Y-54395000D01*
X137287000Y-54553750D01*
X137033000Y-54553750D01*
X136874250Y-54395000D01*
X136310000Y-54391928D01*
X136185518Y-54404188D01*
X136065820Y-54440498D01*
X135955506Y-54499463D01*
X135858815Y-54578815D01*
X135779463Y-54675506D01*
X135720498Y-54785820D01*
X135684188Y-54905518D01*
X135671928Y-55030000D01*
X135017113Y-55030000D01*
X135126081Y-55008325D01*
X135441831Y-54877537D01*
X135725998Y-54687663D01*
X135967663Y-54445998D01*
X136157537Y-54161831D01*
X136288325Y-53846081D01*
X136355000Y-53510883D01*
X136355000Y-53169117D01*
X136288325Y-52833919D01*
X136268891Y-52787000D01*
X139695000Y-52787000D01*
X139695000Y-53112000D01*
X139743026Y-53345619D01*
X139835706Y-53565380D01*
X139969479Y-53762837D01*
X140139203Y-53930402D01*
X140338356Y-54061636D01*
X140559285Y-54151496D01*
X140591323Y-54153635D01*
X140778000Y-54028550D01*
X140778000Y-52787000D01*
X141032000Y-52787000D01*
X141032000Y-54028550D01*
X141218677Y-54153635D01*
X141250715Y-54151496D01*
X141471644Y-54061636D01*
X141670797Y-53930402D01*
X141840521Y-53762837D01*
X141974294Y-53565380D01*
X142066974Y-53345619D01*
X142115000Y-53112000D01*
X142115000Y-52787000D01*
X141032000Y-52787000D01*
X140778000Y-52787000D01*
X139695000Y-52787000D01*
X136268891Y-52787000D01*
X136157537Y-52518169D01*
X135967663Y-52234002D01*
X135725998Y-51992337D01*
X135441831Y-51802463D01*
X135126081Y-51671675D01*
X134790883Y-51605000D01*
X134449117Y-51605000D01*
X134113919Y-51671675D01*
X133798169Y-51802463D01*
X133514002Y-51992337D01*
X133272337Y-52234002D01*
X133082463Y-52518169D01*
X132951675Y-52833919D01*
X132885000Y-53169117D01*
X132790000Y-53169117D01*
X132790000Y-51510000D01*
X140017250Y-51510000D01*
X139969479Y-51557163D01*
X139969479Y-51557163D01*
G37*
X139969479Y-51557163D02*
X139835706Y-51754620D01*
X139743026Y-51974381D01*
X139695000Y-52208000D01*
X139695000Y-52533000D01*
X140778000Y-52533000D01*
X140778000Y-52513000D01*
X141032000Y-52513000D01*
X141032000Y-52533000D01*
X142115000Y-52533000D01*
X142115000Y-52208000D01*
X142066974Y-51974381D01*
X141974294Y-51754620D01*
X141840521Y-51557163D01*
X141792750Y-51510000D01*
X147767250Y-51510000D01*
X147719479Y-51557163D01*
X147585706Y-51754620D01*
X147493026Y-51974381D01*
X147445000Y-52208000D01*
X147445000Y-52533000D01*
X148528000Y-52533000D01*
X148528000Y-52513000D01*
X148782000Y-52513000D01*
X148782000Y-52533000D01*
X149865000Y-52533000D01*
X149865000Y-52208000D01*
X149816974Y-51974381D01*
X149724294Y-51754620D01*
X149590521Y-51557163D01*
X149542750Y-51510000D01*
X169470000Y-51510000D01*
X169470001Y-108510000D01*
X155464801Y-108510000D01*
X157465684Y-106509117D01*
X165905000Y-106509117D01*
X165905000Y-106850883D01*
X165971675Y-107186081D01*
X166102463Y-107501831D01*
X166292337Y-107785998D01*
X166534002Y-108027663D01*
X166818169Y-108217537D01*
X167133919Y-108348325D01*
X167469117Y-108415000D01*
X167810883Y-108415000D01*
X168146081Y-108348325D01*
X168461831Y-108217537D01*
X168745998Y-108027663D01*
X168987663Y-107785998D01*
X169177537Y-107501831D01*
X169308325Y-107186081D01*
X169375000Y-106850883D01*
X169375000Y-106509117D01*
X169308325Y-106173919D01*
X169177537Y-105858169D01*
X168987663Y-105574002D01*
X168745998Y-105332337D01*
X168461831Y-105142463D01*
X168146081Y-105011675D01*
X167810883Y-104945000D01*
X167469117Y-104945000D01*
X167133919Y-105011675D01*
X166818169Y-105142463D01*
X166534002Y-105332337D01*
X166292337Y-105574002D01*
X166102463Y-105858169D01*
X165971675Y-106173919D01*
X165905000Y-106509117D01*
X157465684Y-106509117D01*
X157916730Y-106058072D01*
X159980000Y-106058072D01*
X160104482Y-106045812D01*
X160224180Y-106009502D01*
X160334494Y-105950537D01*
X160431185Y-105871185D01*
X160510537Y-105774494D01*
X160569502Y-105664180D01*
X160605812Y-105544482D01*
X160618072Y-105420000D01*
X160618072Y-100320000D01*
X160605812Y-100195518D01*
X160569502Y-100075820D01*
X160510537Y-99965506D01*
X160431185Y-99868815D01*
X160334494Y-99789463D01*
X160224180Y-99730498D01*
X160104482Y-99694188D01*
X159980000Y-99681928D01*
X157480000Y-99681928D01*
X157355518Y-99694188D01*
X157235820Y-99730498D01*
X157125506Y-99789463D01*
X157028815Y-99868815D01*
X156949463Y-99965506D01*
X156890498Y-100075820D01*
X156854188Y-100195518D01*
X156841928Y-100320000D01*
X156841928Y-102353375D01*
X156800549Y-101843290D01*
X156491289Y-100756749D01*
X155975999Y-99751419D01*
X155865678Y-99586309D01*
X155181411Y-98998194D01*
X151309605Y-102870000D01*
X151323748Y-102884143D01*
X151144143Y-103063748D01*
X151130000Y-103049605D01*
X147258194Y-106921411D01*
X147785563Y-107535001D01*
X144804803Y-107535001D01*
X144433153Y-107163351D01*
X144409068Y-107042271D01*
X144338586Y-106872111D01*
X144236262Y-106718972D01*
X144106028Y-106588738D01*
X143980706Y-106505001D01*
X145002679Y-106505001D01*
X145040001Y-106508677D01*
X145077323Y-106505001D01*
X145077334Y-106505001D01*
X145188987Y-106494004D01*
X145332248Y-106450547D01*
X145464277Y-106379975D01*
X145580002Y-106285002D01*
X145603804Y-106255999D01*
X146144124Y-105715680D01*
X146284001Y-105988581D01*
X146394322Y-106153691D01*
X147078589Y-106741806D01*
X150950395Y-102870000D01*
X147078589Y-98998194D01*
X146464999Y-99525563D01*
X146464999Y-98818589D01*
X147258194Y-98818589D01*
X151130000Y-102690395D01*
X155001806Y-98818589D01*
X154413691Y-98134322D01*
X153426711Y-97584701D01*
X152351470Y-97238191D01*
X151229288Y-97108108D01*
X150103290Y-97199451D01*
X149016749Y-97508711D01*
X148011419Y-98024001D01*
X147846309Y-98134322D01*
X147258194Y-98818589D01*
X146464999Y-98818589D01*
X146464999Y-95909802D01*
X148963480Y-93411322D01*
X148981250Y-93413072D01*
X149468750Y-93413072D01*
X149640785Y-93396128D01*
X149806209Y-93345947D01*
X149958664Y-93264458D01*
X150092292Y-93154792D01*
X150201958Y-93021164D01*
X150283447Y-92868709D01*
X150333628Y-92703285D01*
X150350572Y-92531250D01*
X150350572Y-91618750D01*
X150333628Y-91446715D01*
X150283447Y-91281291D01*
X150201958Y-91128836D01*
X150196758Y-91122500D01*
X150201958Y-91116164D01*
X150283447Y-90963709D01*
X150293673Y-90930000D01*
X153741301Y-90930000D01*
X153814428Y-91003127D01*
X153814428Y-91896250D01*
X153831372Y-92068285D01*
X153881553Y-92233709D01*
X153963042Y-92386164D01*
X153968242Y-92392500D01*
X153963042Y-92398836D01*
X153881553Y-92551291D01*
X153831372Y-92716715D01*
X153814428Y-92888750D01*
X153814428Y-93801250D01*
X153831372Y-93973285D01*
X153881553Y-94138709D01*
X153963042Y-94291164D01*
X154072708Y-94424792D01*
X154206336Y-94534458D01*
X154358791Y-94615947D01*
X154524215Y-94666128D01*
X154696250Y-94683072D01*
X155183750Y-94683072D01*
X155355785Y-94666128D01*
X155521209Y-94615947D01*
X155673664Y-94534458D01*
X155807292Y-94424792D01*
X155812508Y-94418436D01*
X155876315Y-94496185D01*
X155973006Y-94575537D01*
X156083320Y-94634502D01*
X156203018Y-94670812D01*
X156327500Y-94683072D01*
X156529250Y-94680000D01*
X156688000Y-94521250D01*
X156688000Y-93472000D01*
X156942000Y-93472000D01*
X156942000Y-94521250D01*
X157100750Y-94680000D01*
X157302500Y-94683072D01*
X157426982Y-94670812D01*
X157546680Y-94634502D01*
X157656994Y-94575537D01*
X157753685Y-94496185D01*
X157833037Y-94399494D01*
X157892002Y-94289180D01*
X157928312Y-94169482D01*
X157940572Y-94045000D01*
X157937500Y-93630750D01*
X157778750Y-93472000D01*
X156942000Y-93472000D01*
X156688000Y-93472000D01*
X156668000Y-93472000D01*
X156668000Y-93218000D01*
X156688000Y-93218000D01*
X156688000Y-91567000D01*
X156942000Y-91567000D01*
X156942000Y-93218000D01*
X157778750Y-93218000D01*
X157937500Y-93059250D01*
X157940572Y-92645000D01*
X157928312Y-92520518D01*
X157892002Y-92400820D01*
X157887555Y-92392500D01*
X157892002Y-92384180D01*
X157928312Y-92264482D01*
X157940572Y-92140000D01*
X157937500Y-91725750D01*
X157778750Y-91567000D01*
X156942000Y-91567000D01*
X156688000Y-91567000D01*
X156668000Y-91567000D01*
X156668000Y-91313000D01*
X156688000Y-91313000D01*
X156688000Y-90263750D01*
X156942000Y-90263750D01*
X156942000Y-91313000D01*
X157778750Y-91313000D01*
X157937500Y-91154250D01*
X157940572Y-90740000D01*
X157928312Y-90615518D01*
X157892002Y-90495820D01*
X157833037Y-90385506D01*
X157753685Y-90288815D01*
X157656994Y-90209463D01*
X157546680Y-90150498D01*
X157426982Y-90114188D01*
X157302500Y-90101928D01*
X157100750Y-90105000D01*
X156942000Y-90263750D01*
X156688000Y-90263750D01*
X156654216Y-90229966D01*
X163820365Y-83063817D01*
X163721401Y-83248966D01*
X163636487Y-83528889D01*
X163607815Y-83820000D01*
X163636487Y-84111111D01*
X163721401Y-84391034D01*
X163859294Y-84649014D01*
X164044866Y-84875134D01*
X164270986Y-85060706D01*
X164325791Y-85090000D01*
X164270986Y-85119294D01*
X164044866Y-85304866D01*
X163859294Y-85530986D01*
X163721401Y-85788966D01*
X163636487Y-86068889D01*
X163607815Y-86360000D01*
X163636487Y-86651111D01*
X163721401Y-86931034D01*
X163859294Y-87189014D01*
X164044866Y-87415134D01*
X164270986Y-87600706D01*
X164325791Y-87630000D01*
X164270986Y-87659294D01*
X164044866Y-87844866D01*
X163859294Y-88070986D01*
X163721401Y-88328966D01*
X163636487Y-88608889D01*
X163607815Y-88900000D01*
X163636487Y-89191111D01*
X163721401Y-89471034D01*
X163859294Y-89729014D01*
X164044866Y-89955134D01*
X164270986Y-90140706D01*
X164325791Y-90170000D01*
X164270986Y-90199294D01*
X164044866Y-90384866D01*
X163859294Y-90610986D01*
X163721401Y-90868966D01*
X163636487Y-91148889D01*
X163607815Y-91440000D01*
X163636487Y-91731111D01*
X163721401Y-92011034D01*
X163859294Y-92269014D01*
X164044866Y-92495134D01*
X164270986Y-92680706D01*
X164325791Y-92710000D01*
X164270986Y-92739294D01*
X164044866Y-92924866D01*
X163859294Y-93150986D01*
X163721401Y-93408966D01*
X163636487Y-93688889D01*
X163607815Y-93980000D01*
X163636487Y-94271111D01*
X163721401Y-94551034D01*
X163859294Y-94809014D01*
X164044866Y-95035134D01*
X164270986Y-95220706D01*
X164325791Y-95250000D01*
X164270986Y-95279294D01*
X164044866Y-95464866D01*
X163859294Y-95690986D01*
X163721401Y-95948966D01*
X163636487Y-96228889D01*
X163607815Y-96520000D01*
X163636487Y-96811111D01*
X163721401Y-97091034D01*
X163859294Y-97349014D01*
X164044866Y-97575134D01*
X164270986Y-97760706D01*
X164325791Y-97790000D01*
X164270986Y-97819294D01*
X164044866Y-98004866D01*
X163859294Y-98230986D01*
X163721401Y-98488966D01*
X163636487Y-98768889D01*
X163607815Y-99060000D01*
X163636487Y-99351111D01*
X163721401Y-99631034D01*
X163859294Y-99889014D01*
X164044866Y-100115134D01*
X164270986Y-100300706D01*
X164325791Y-100330000D01*
X164270986Y-100359294D01*
X164044866Y-100544866D01*
X163859294Y-100770986D01*
X163721401Y-101028966D01*
X163636487Y-101308889D01*
X163607815Y-101600000D01*
X163636487Y-101891111D01*
X163721401Y-102171034D01*
X163859294Y-102429014D01*
X164044866Y-102655134D01*
X164270986Y-102840706D01*
X164325791Y-102870000D01*
X164270986Y-102899294D01*
X164044866Y-103084866D01*
X163859294Y-103310986D01*
X163721401Y-103568966D01*
X163636487Y-103848889D01*
X163607815Y-104140000D01*
X163636487Y-104431111D01*
X163721401Y-104711034D01*
X163859294Y-104969014D01*
X164044866Y-105195134D01*
X164270986Y-105380706D01*
X164528966Y-105518599D01*
X164808889Y-105603513D01*
X165027050Y-105625000D01*
X165172950Y-105625000D01*
X165391111Y-105603513D01*
X165671034Y-105518599D01*
X165929014Y-105380706D01*
X166155134Y-105195134D01*
X166340706Y-104969014D01*
X166478599Y-104711034D01*
X166563513Y-104431111D01*
X166592185Y-104140000D01*
X166563513Y-103848889D01*
X166478599Y-103568966D01*
X166340706Y-103310986D01*
X166155134Y-103084866D01*
X165929014Y-102899294D01*
X165874209Y-102870000D01*
X165929014Y-102840706D01*
X166155134Y-102655134D01*
X166340706Y-102429014D01*
X166478599Y-102171034D01*
X166563513Y-101891111D01*
X166592185Y-101600000D01*
X166563513Y-101308889D01*
X166478599Y-101028966D01*
X166340706Y-100770986D01*
X166155134Y-100544866D01*
X165929014Y-100359294D01*
X165874209Y-100330000D01*
X165929014Y-100300706D01*
X166155134Y-100115134D01*
X166340706Y-99889014D01*
X166478599Y-99631034D01*
X166563513Y-99351111D01*
X166592185Y-99060000D01*
X166563513Y-98768889D01*
X166478599Y-98488966D01*
X166340706Y-98230986D01*
X166155134Y-98004866D01*
X165929014Y-97819294D01*
X165874209Y-97790000D01*
X165929014Y-97760706D01*
X166155134Y-97575134D01*
X166340706Y-97349014D01*
X166478599Y-97091034D01*
X166563513Y-96811111D01*
X166592185Y-96520000D01*
X166563513Y-96228889D01*
X166478599Y-95948966D01*
X166340706Y-95690986D01*
X166155134Y-95464866D01*
X165929014Y-95279294D01*
X165874209Y-95250000D01*
X165929014Y-95220706D01*
X166155134Y-95035134D01*
X166340706Y-94809014D01*
X166478599Y-94551034D01*
X166563513Y-94271111D01*
X166592185Y-93980000D01*
X166563513Y-93688889D01*
X166478599Y-93408966D01*
X166340706Y-93150986D01*
X166155134Y-92924866D01*
X165929014Y-92739294D01*
X165874209Y-92710000D01*
X165929014Y-92680706D01*
X166155134Y-92495134D01*
X166340706Y-92269014D01*
X166478599Y-92011034D01*
X166563513Y-91731111D01*
X166592185Y-91440000D01*
X166563513Y-91148889D01*
X166478599Y-90868966D01*
X166340706Y-90610986D01*
X166155134Y-90384866D01*
X165929014Y-90199294D01*
X165874209Y-90170000D01*
X165929014Y-90140706D01*
X166155134Y-89955134D01*
X166340706Y-89729014D01*
X166478599Y-89471034D01*
X166563513Y-89191111D01*
X166592185Y-88900000D01*
X166563513Y-88608889D01*
X166478599Y-88328966D01*
X166340706Y-88070986D01*
X166155134Y-87844866D01*
X165929014Y-87659294D01*
X165874209Y-87630000D01*
X165929014Y-87600706D01*
X166155134Y-87415134D01*
X166340706Y-87189014D01*
X166478599Y-86931034D01*
X166563513Y-86651111D01*
X166592185Y-86360000D01*
X166563513Y-86068889D01*
X166478599Y-85788966D01*
X166340706Y-85530986D01*
X166155134Y-85304866D01*
X165929014Y-85119294D01*
X165874209Y-85090000D01*
X165929014Y-85060706D01*
X166155134Y-84875134D01*
X166340706Y-84649014D01*
X166478599Y-84391034D01*
X166563513Y-84111111D01*
X166592185Y-83820000D01*
X166563513Y-83528889D01*
X166478599Y-83248966D01*
X166340706Y-82990986D01*
X166155134Y-82764866D01*
X165929014Y-82579294D01*
X165874209Y-82550000D01*
X165929014Y-82520706D01*
X166155134Y-82335134D01*
X166340706Y-82109014D01*
X166478599Y-81851034D01*
X166563513Y-81571111D01*
X166592185Y-81280000D01*
X166563513Y-80988889D01*
X166478599Y-80708966D01*
X166340706Y-80450986D01*
X166155134Y-80224866D01*
X165929014Y-80039294D01*
X165874209Y-80010000D01*
X165929014Y-79980706D01*
X166155134Y-79795134D01*
X166340706Y-79569014D01*
X166478599Y-79311034D01*
X166563513Y-79031111D01*
X166592185Y-78740000D01*
X166563513Y-78448889D01*
X166478599Y-78168966D01*
X166340706Y-77910986D01*
X166155134Y-77684866D01*
X165929014Y-77499294D01*
X165874209Y-77470000D01*
X165929014Y-77440706D01*
X166155134Y-77255134D01*
X166340706Y-77029014D01*
X166478599Y-76771034D01*
X166563513Y-76491111D01*
X166592185Y-76200000D01*
X166563513Y-75908889D01*
X166478599Y-75628966D01*
X166340706Y-75370986D01*
X166155134Y-75144866D01*
X165929014Y-74959294D01*
X165874209Y-74930000D01*
X165929014Y-74900706D01*
X166155134Y-74715134D01*
X166340706Y-74489014D01*
X166478599Y-74231034D01*
X166563513Y-73951111D01*
X166592185Y-73660000D01*
X166563513Y-73368889D01*
X166478599Y-73088966D01*
X166340706Y-72830986D01*
X166278552Y-72755251D01*
X167516004Y-71517800D01*
X167545001Y-71494003D01*
X167639974Y-71378278D01*
X167710546Y-71246249D01*
X167754003Y-71102988D01*
X167765000Y-70991335D01*
X167765000Y-70991324D01*
X167768676Y-70954002D01*
X167765000Y-70916677D01*
X167765000Y-65315535D01*
X167833586Y-65212889D01*
X167904068Y-65042729D01*
X167940000Y-64862089D01*
X167940000Y-64677911D01*
X167904068Y-64497271D01*
X167833586Y-64327111D01*
X167731262Y-64173972D01*
X167601028Y-64043738D01*
X167447889Y-63941414D01*
X167277729Y-63870932D01*
X167097089Y-63835000D01*
X166912911Y-63835000D01*
X166732271Y-63870932D01*
X166600369Y-63925567D01*
X166540797Y-63865995D01*
X166563513Y-63791111D01*
X166592185Y-63500000D01*
X166563513Y-63208889D01*
X166478599Y-62928966D01*
X166340706Y-62670986D01*
X166155134Y-62444866D01*
X165929014Y-62259294D01*
X165874209Y-62230000D01*
X165929014Y-62200706D01*
X166155134Y-62015134D01*
X166340706Y-61789014D01*
X166478599Y-61531034D01*
X166563513Y-61251111D01*
X166592185Y-60960000D01*
X166563513Y-60668889D01*
X166478599Y-60388966D01*
X166340706Y-60130986D01*
X166155134Y-59904866D01*
X165929014Y-59719294D01*
X165864477Y-59684799D01*
X165981355Y-59615178D01*
X166197588Y-59420269D01*
X166371641Y-59186920D01*
X166496825Y-58924099D01*
X166541476Y-58776890D01*
X166420155Y-58547000D01*
X165227000Y-58547000D01*
X165227000Y-58567000D01*
X164973000Y-58567000D01*
X164973000Y-58547000D01*
X164953000Y-58547000D01*
X164953000Y-58293000D01*
X164973000Y-58293000D01*
X164973000Y-56007000D01*
X165227000Y-56007000D01*
X165227000Y-58293000D01*
X166420155Y-58293000D01*
X166541476Y-58063110D01*
X166496825Y-57915901D01*
X166371641Y-57653080D01*
X166197588Y-57419731D01*
X166113534Y-57343966D01*
X166194180Y-57319502D01*
X166304494Y-57260537D01*
X166401185Y-57181185D01*
X166480537Y-57084494D01*
X166539502Y-56974180D01*
X166575812Y-56854482D01*
X166588072Y-56730000D01*
X166585000Y-56165750D01*
X166426250Y-56007000D01*
X165227000Y-56007000D01*
X164973000Y-56007000D01*
X164953000Y-56007000D01*
X164953000Y-55753000D01*
X164973000Y-55753000D01*
X164973000Y-54553750D01*
X165227000Y-54553750D01*
X165227000Y-55753000D01*
X166426250Y-55753000D01*
X166585000Y-55594250D01*
X166588072Y-55030000D01*
X166575812Y-54905518D01*
X166539502Y-54785820D01*
X166480537Y-54675506D01*
X166401185Y-54578815D01*
X166304494Y-54499463D01*
X166194180Y-54440498D01*
X166074482Y-54404188D01*
X165950000Y-54391928D01*
X165385750Y-54395000D01*
X165227000Y-54553750D01*
X164973000Y-54553750D01*
X164814250Y-54395000D01*
X164250000Y-54391928D01*
X164125518Y-54404188D01*
X164005820Y-54440498D01*
X163895506Y-54499463D01*
X163830000Y-54553222D01*
X163764494Y-54499463D01*
X163654180Y-54440498D01*
X163534482Y-54404188D01*
X163410000Y-54391928D01*
X161710000Y-54391928D01*
X161585518Y-54404188D01*
X161465820Y-54440498D01*
X161355506Y-54499463D01*
X161258815Y-54578815D01*
X161179463Y-54675506D01*
X161120498Y-54785820D01*
X161096034Y-54866466D01*
X161020269Y-54782412D01*
X160786920Y-54608359D01*
X160524099Y-54483175D01*
X160376890Y-54438524D01*
X160147000Y-54559845D01*
X160147000Y-55753000D01*
X160167000Y-55753000D01*
X160167000Y-56007000D01*
X160147000Y-56007000D01*
X160147000Y-56027000D01*
X159893000Y-56027000D01*
X159893000Y-56007000D01*
X159873000Y-56007000D01*
X159873000Y-55753000D01*
X159893000Y-55753000D01*
X159893000Y-54559845D01*
X159663110Y-54438524D01*
X159515901Y-54483175D01*
X159253080Y-54608359D01*
X159019731Y-54782412D01*
X158824822Y-54998645D01*
X158755201Y-55115523D01*
X158720706Y-55050986D01*
X158535134Y-54824866D01*
X158309014Y-54639294D01*
X158051034Y-54501401D01*
X157771111Y-54416487D01*
X157552950Y-54395000D01*
X157407050Y-54395000D01*
X157188889Y-54416487D01*
X156908966Y-54501401D01*
X156650986Y-54639294D01*
X156424866Y-54824866D01*
X156239294Y-55050986D01*
X156210000Y-55105791D01*
X156180706Y-55050986D01*
X155995134Y-54824866D01*
X155769014Y-54639294D01*
X155511034Y-54501401D01*
X155231111Y-54416487D01*
X155012950Y-54395000D01*
X154867050Y-54395000D01*
X154648889Y-54416487D01*
X154368966Y-54501401D01*
X154110986Y-54639294D01*
X153884866Y-54824866D01*
X153699294Y-55050986D01*
X153670000Y-55105791D01*
X153640706Y-55050986D01*
X153455134Y-54824866D01*
X153229014Y-54639294D01*
X152971034Y-54501401D01*
X152691111Y-54416487D01*
X152472950Y-54395000D01*
X152327050Y-54395000D01*
X152108889Y-54416487D01*
X151828966Y-54501401D01*
X151570986Y-54639294D01*
X151344866Y-54824866D01*
X151159294Y-55050986D01*
X151071338Y-55215540D01*
X149601875Y-53746077D01*
X149724294Y-53565380D01*
X149816974Y-53345619D01*
X149853258Y-53169117D01*
X165905000Y-53169117D01*
X165905000Y-53510883D01*
X165971675Y-53846081D01*
X166102463Y-54161831D01*
X166292337Y-54445998D01*
X166534002Y-54687663D01*
X166818169Y-54877537D01*
X167133919Y-55008325D01*
X167469117Y-55075000D01*
X167810883Y-55075000D01*
X168146081Y-55008325D01*
X168461831Y-54877537D01*
X168745998Y-54687663D01*
X168987663Y-54445998D01*
X169177537Y-54161831D01*
X169308325Y-53846081D01*
X169375000Y-53510883D01*
X169375000Y-53169117D01*
X169308325Y-52833919D01*
X169177537Y-52518169D01*
X168987663Y-52234002D01*
X168745998Y-51992337D01*
X168461831Y-51802463D01*
X168146081Y-51671675D01*
X167810883Y-51605000D01*
X167469117Y-51605000D01*
X167133919Y-51671675D01*
X166818169Y-51802463D01*
X166534002Y-51992337D01*
X166292337Y-52234002D01*
X166102463Y-52518169D01*
X165971675Y-52833919D01*
X165905000Y-53169117D01*
X149853258Y-53169117D01*
X149865000Y-53112000D01*
X149865000Y-52787000D01*
X148782000Y-52787000D01*
X148782000Y-52807000D01*
X148528000Y-52807000D01*
X148528000Y-52787000D01*
X147445000Y-52787000D01*
X147445000Y-53112000D01*
X147451987Y-53145989D01*
X147111931Y-53145989D01*
X147074598Y-53142312D01*
X147037265Y-53145989D01*
X146925612Y-53156986D01*
X146782351Y-53200443D01*
X146650322Y-53271015D01*
X146534597Y-53365988D01*
X146510799Y-53394986D01*
X142860983Y-57044803D01*
X142831979Y-57068606D01*
X142806883Y-57099186D01*
X142737006Y-57184331D01*
X142715363Y-57224822D01*
X142666434Y-57316361D01*
X142622977Y-57459622D01*
X142611980Y-57571275D01*
X142611980Y-57571285D01*
X142608304Y-57608607D01*
X142611980Y-57645929D01*
X142611981Y-80599469D01*
X142608304Y-80636802D01*
X142611981Y-80674135D01*
X142622978Y-80785788D01*
X142625465Y-80793986D01*
X142666434Y-80929048D01*
X142737006Y-81061078D01*
X142792352Y-81128516D01*
X142831980Y-81176803D01*
X142860978Y-81200601D01*
X146406271Y-84745895D01*
X146374208Y-84772208D01*
X146368992Y-84778564D01*
X146305185Y-84700815D01*
X146208494Y-84621463D01*
X146098180Y-84562498D01*
X145978482Y-84526188D01*
X145854000Y-84513928D01*
X145652250Y-84517000D01*
X145493500Y-84675750D01*
X145493500Y-85725000D01*
X145513500Y-85725000D01*
X145513500Y-85979000D01*
X145493500Y-85979000D01*
X145493500Y-87028250D01*
X145652250Y-87187000D01*
X145854000Y-87190072D01*
X145978482Y-87177812D01*
X146098180Y-87141502D01*
X146208494Y-87082537D01*
X146305185Y-87003185D01*
X146368992Y-86925436D01*
X146374208Y-86931792D01*
X146507836Y-87041458D01*
X146660291Y-87122947D01*
X146825715Y-87173128D01*
X146997750Y-87190072D01*
X147485250Y-87190072D01*
X147657285Y-87173128D01*
X147822709Y-87122947D01*
X147975164Y-87041458D01*
X148108792Y-86931792D01*
X148218458Y-86798164D01*
X148299947Y-86645709D01*
X148350128Y-86480285D01*
X148367072Y-86308250D01*
X148367072Y-85395750D01*
X148355367Y-85276911D01*
X150649581Y-85276911D01*
X150752227Y-85345497D01*
X150922387Y-85415979D01*
X151103027Y-85451911D01*
X151287205Y-85451911D01*
X151467845Y-85415979D01*
X151638005Y-85345497D01*
X151791144Y-85243173D01*
X151921378Y-85112939D01*
X151991723Y-85007660D01*
X152023000Y-85010741D01*
X152023008Y-85010741D01*
X152060333Y-85014417D01*
X152097658Y-85010741D01*
X158390869Y-85010741D01*
X157156611Y-86244999D01*
X154332324Y-86244999D01*
X154295001Y-86241323D01*
X154257678Y-86244999D01*
X154257668Y-86244999D01*
X154146015Y-86255996D01*
X154002754Y-86299453D01*
X153870724Y-86370025D01*
X153790584Y-86435795D01*
X153755000Y-86464998D01*
X153731201Y-86493997D01*
X153518351Y-86706847D01*
X153397271Y-86730932D01*
X153227111Y-86801414D01*
X153073972Y-86903738D01*
X152943738Y-87033972D01*
X152841414Y-87187111D01*
X152770932Y-87357271D01*
X152735000Y-87537911D01*
X152735000Y-87722089D01*
X152770932Y-87902729D01*
X152841414Y-88072889D01*
X152943738Y-88226028D01*
X153073972Y-88356262D01*
X153227111Y-88458586D01*
X153397271Y-88529068D01*
X153577911Y-88565000D01*
X153762089Y-88565000D01*
X153942729Y-88529068D01*
X154112889Y-88458586D01*
X154266028Y-88356262D01*
X154396262Y-88226028D01*
X154498586Y-88072889D01*
X154569068Y-87902729D01*
X154593153Y-87781649D01*
X154609803Y-87764999D01*
X156969580Y-87764999D01*
X154847741Y-89886838D01*
X154619905Y-89659002D01*
X154596103Y-89629999D01*
X154480378Y-89535026D01*
X154348349Y-89464454D01*
X154205088Y-89420997D01*
X154093435Y-89410000D01*
X154093424Y-89410000D01*
X154056102Y-89406324D01*
X154018780Y-89410000D01*
X150643744Y-89410000D01*
X150688586Y-89342889D01*
X150759068Y-89172729D01*
X150795000Y-88992089D01*
X150795000Y-88807911D01*
X150759068Y-88627271D01*
X150688586Y-88457111D01*
X150586262Y-88303972D01*
X150456028Y-88173738D01*
X150302889Y-88071414D01*
X150132729Y-88000932D01*
X149952089Y-87965000D01*
X149767911Y-87965000D01*
X149587271Y-88000932D01*
X149417111Y-88071414D01*
X149314465Y-88140000D01*
X147152972Y-88140000D01*
X147115649Y-88136324D01*
X147078326Y-88140000D01*
X147078317Y-88140000D01*
X146966664Y-88150997D01*
X146823403Y-88194454D01*
X146691374Y-88265026D01*
X146575649Y-88359999D01*
X146551851Y-88388997D01*
X141729003Y-93211846D01*
X141699999Y-93235649D01*
X141674918Y-93266211D01*
X141605026Y-93351374D01*
X141573690Y-93410000D01*
X141534454Y-93483404D01*
X141490997Y-93626665D01*
X141480000Y-93738318D01*
X141480000Y-93738328D01*
X141476324Y-93775650D01*
X141480000Y-93812973D01*
X141480001Y-95131928D01*
X140940000Y-95131928D01*
X140915550Y-95134336D01*
X140890991Y-95134336D01*
X140766510Y-95146596D01*
X140670377Y-95165718D01*
X140550681Y-95202027D01*
X140460125Y-95239536D01*
X140349808Y-95298502D01*
X140268309Y-95352958D01*
X140171618Y-95432310D01*
X140102310Y-95501618D01*
X140022958Y-95598309D01*
X139968502Y-95679808D01*
X139909536Y-95790125D01*
X139872027Y-95880681D01*
X139835718Y-96000377D01*
X139816596Y-96096510D01*
X139804336Y-96220991D01*
X139804336Y-96245550D01*
X139801928Y-96270000D01*
X139801928Y-96770000D01*
X139804336Y-96794450D01*
X139804336Y-96819009D01*
X139816596Y-96943490D01*
X139835718Y-97039623D01*
X139872027Y-97159319D01*
X139909536Y-97249875D01*
X139968502Y-97360192D01*
X140022958Y-97441691D01*
X140102310Y-97538382D01*
X140171618Y-97607690D01*
X140268309Y-97687042D01*
X140338661Y-97734049D01*
X140243738Y-97828972D01*
X140141414Y-97982111D01*
X140070932Y-98152271D01*
X140035000Y-98332911D01*
X140035000Y-98517089D01*
X140070932Y-98697729D01*
X140141414Y-98867889D01*
X140210000Y-98970536D01*
X140210001Y-104657670D01*
X140206324Y-104695002D01*
X140220998Y-104843987D01*
X140264454Y-104987248D01*
X140335026Y-105119278D01*
X140354054Y-105142463D01*
X140430000Y-105235003D01*
X140458998Y-105258801D01*
X141456200Y-106256004D01*
X141479998Y-106285002D01*
X141595723Y-106379975D01*
X141727752Y-106450547D01*
X141871013Y-106494004D01*
X141982666Y-106505001D01*
X141982676Y-106505001D01*
X142019999Y-106508677D01*
X142057322Y-106505001D01*
X143039294Y-106505001D01*
X142913972Y-106588738D01*
X142783738Y-106718972D01*
X142681414Y-106872111D01*
X142610932Y-107042271D01*
X142575000Y-107222911D01*
X142575000Y-107407089D01*
X142610932Y-107587729D01*
X142681414Y-107757889D01*
X142783738Y-107911028D01*
X142913972Y-108041262D01*
X143067111Y-108143586D01*
X143237271Y-108214068D01*
X143358351Y-108238153D01*
X143630198Y-108510000D01*
X132790000Y-108510000D01*
X132790000Y-106509117D01*
X132885000Y-106509117D01*
X132885000Y-106850883D01*
X132951675Y-107186081D01*
X133082463Y-107501831D01*
X133272337Y-107785998D01*
X133514002Y-108027663D01*
X133798169Y-108217537D01*
X134113919Y-108348325D01*
X134449117Y-108415000D01*
X134790883Y-108415000D01*
X135126081Y-108348325D01*
X135441831Y-108217537D01*
X135725998Y-108027663D01*
X135967663Y-107785998D01*
X136157537Y-107501831D01*
X136288325Y-107186081D01*
X136355000Y-106850883D01*
X136355000Y-106509117D01*
X136288325Y-106173919D01*
X136157537Y-105858169D01*
X135967663Y-105574002D01*
X135725998Y-105332337D01*
X135441831Y-105142463D01*
X135126081Y-105011675D01*
X134790883Y-104945000D01*
X134449117Y-104945000D01*
X134113919Y-105011675D01*
X133798169Y-105142463D01*
X133514002Y-105332337D01*
X133272337Y-105574002D01*
X133082463Y-105858169D01*
X132951675Y-106173919D01*
X132885000Y-106509117D01*
X132790000Y-106509117D01*
X132790000Y-60960000D01*
X135667815Y-60960000D01*
X135696487Y-61251111D01*
X135781401Y-61531034D01*
X135919294Y-61789014D01*
X136104866Y-62015134D01*
X136330986Y-62200706D01*
X136385791Y-62230000D01*
X136330986Y-62259294D01*
X136104866Y-62444866D01*
X135919294Y-62670986D01*
X135781401Y-62928966D01*
X135696487Y-63208889D01*
X135667815Y-63500000D01*
X135696487Y-63791111D01*
X135781401Y-64071034D01*
X135919294Y-64329014D01*
X136104866Y-64555134D01*
X136330986Y-64740706D01*
X136385791Y-64770000D01*
X136330986Y-64799294D01*
X136104866Y-64984866D01*
X135919294Y-65210986D01*
X135781401Y-65468966D01*
X135696487Y-65748889D01*
X135667815Y-66040000D01*
X135696487Y-66331111D01*
X135781401Y-66611034D01*
X135919294Y-66869014D01*
X136104866Y-67095134D01*
X136330986Y-67280706D01*
X136385791Y-67310000D01*
X136330986Y-67339294D01*
X136104866Y-67524866D01*
X135919294Y-67750986D01*
X135781401Y-68008966D01*
X135696487Y-68288889D01*
X135667815Y-68580000D01*
X135696487Y-68871111D01*
X135781401Y-69151034D01*
X135919294Y-69409014D01*
X136104866Y-69635134D01*
X136330986Y-69820706D01*
X136385791Y-69850000D01*
X136330986Y-69879294D01*
X136104866Y-70064866D01*
X135919294Y-70290986D01*
X135781401Y-70548966D01*
X135696487Y-70828889D01*
X135667815Y-71120000D01*
X135696487Y-71411111D01*
X135781401Y-71691034D01*
X135919294Y-71949014D01*
X136104866Y-72175134D01*
X136330986Y-72360706D01*
X136385791Y-72390000D01*
X136330986Y-72419294D01*
X136104866Y-72604866D01*
X135919294Y-72830986D01*
X135781401Y-73088966D01*
X135696487Y-73368889D01*
X135667815Y-73660000D01*
X135696487Y-73951111D01*
X135781401Y-74231034D01*
X135919294Y-74489014D01*
X136104866Y-74715134D01*
X136330986Y-74900706D01*
X136385791Y-74930000D01*
X136330986Y-74959294D01*
X136104866Y-75144866D01*
X135919294Y-75370986D01*
X135781401Y-75628966D01*
X135696487Y-75908889D01*
X135667815Y-76200000D01*
X135696487Y-76491111D01*
X135781401Y-76771034D01*
X135919294Y-77029014D01*
X136104866Y-77255134D01*
X136330986Y-77440706D01*
X136385791Y-77470000D01*
X136330986Y-77499294D01*
X136104866Y-77684866D01*
X135919294Y-77910986D01*
X135781401Y-78168966D01*
X135696487Y-78448889D01*
X135667815Y-78740000D01*
X135696487Y-79031111D01*
X135781401Y-79311034D01*
X135919294Y-79569014D01*
X136104866Y-79795134D01*
X136330986Y-79980706D01*
X136385791Y-80010000D01*
X136330986Y-80039294D01*
X136104866Y-80224866D01*
X135919294Y-80450986D01*
X135781401Y-80708966D01*
X135696487Y-80988889D01*
X135667815Y-81280000D01*
X135696487Y-81571111D01*
X135781401Y-81851034D01*
X135919294Y-82109014D01*
X136104866Y-82335134D01*
X136330986Y-82520706D01*
X136385791Y-82550000D01*
X136330986Y-82579294D01*
X136104866Y-82764866D01*
X135919294Y-82990986D01*
X135781401Y-83248966D01*
X135696487Y-83528889D01*
X135667815Y-83820000D01*
X135696487Y-84111111D01*
X135781401Y-84391034D01*
X135919294Y-84649014D01*
X136104866Y-84875134D01*
X136330986Y-85060706D01*
X136385791Y-85090000D01*
X136330986Y-85119294D01*
X136104866Y-85304866D01*
X135919294Y-85530986D01*
X135781401Y-85788966D01*
X135696487Y-86068889D01*
X135667815Y-86360000D01*
X135696487Y-86651111D01*
X135781401Y-86931034D01*
X135919294Y-87189014D01*
X136104866Y-87415134D01*
X136330986Y-87600706D01*
X136385791Y-87630000D01*
X136330986Y-87659294D01*
X136104866Y-87844866D01*
X135919294Y-88070986D01*
X135781401Y-88328966D01*
X135696487Y-88608889D01*
X135667815Y-88900000D01*
X135696487Y-89191111D01*
X135781401Y-89471034D01*
X135919294Y-89729014D01*
X136104866Y-89955134D01*
X136330986Y-90140706D01*
X136385791Y-90170000D01*
X136330986Y-90199294D01*
X136104866Y-90384866D01*
X135919294Y-90610986D01*
X135781401Y-90868966D01*
X135696487Y-91148889D01*
X135667815Y-91440000D01*
X135696487Y-91731111D01*
X135781401Y-92011034D01*
X135919294Y-92269014D01*
X136104866Y-92495134D01*
X136330986Y-92680706D01*
X136385791Y-92710000D01*
X136330986Y-92739294D01*
X136104866Y-92924866D01*
X135919294Y-93150986D01*
X135781401Y-93408966D01*
X135696487Y-93688889D01*
X135667815Y-93980000D01*
X135696487Y-94271111D01*
X135781401Y-94551034D01*
X135919294Y-94809014D01*
X136104866Y-95035134D01*
X136330986Y-95220706D01*
X136385791Y-95250000D01*
X136330986Y-95279294D01*
X136104866Y-95464866D01*
X135919294Y-95690986D01*
X135781401Y-95948966D01*
X135696487Y-96228889D01*
X135667815Y-96520000D01*
X135696487Y-96811111D01*
X135781401Y-97091034D01*
X135919294Y-97349014D01*
X136104866Y-97575134D01*
X136330986Y-97760706D01*
X136385791Y-97790000D01*
X136330986Y-97819294D01*
X136104866Y-98004866D01*
X135919294Y-98230986D01*
X135781401Y-98488966D01*
X135696487Y-98768889D01*
X135667815Y-99060000D01*
X135696487Y-99351111D01*
X135781401Y-99631034D01*
X135919294Y-99889014D01*
X136104866Y-100115134D01*
X136330986Y-100300706D01*
X136385791Y-100330000D01*
X136330986Y-100359294D01*
X136104866Y-100544866D01*
X135919294Y-100770986D01*
X135781401Y-101028966D01*
X135696487Y-101308889D01*
X135667815Y-101600000D01*
X135696487Y-101891111D01*
X135781401Y-102171034D01*
X135919294Y-102429014D01*
X136104866Y-102655134D01*
X136330986Y-102840706D01*
X136385791Y-102870000D01*
X136330986Y-102899294D01*
X136104866Y-103084866D01*
X135919294Y-103310986D01*
X135781401Y-103568966D01*
X135696487Y-103848889D01*
X135667815Y-104140000D01*
X135696487Y-104431111D01*
X135781401Y-104711034D01*
X135919294Y-104969014D01*
X136104866Y-105195134D01*
X136330986Y-105380706D01*
X136588966Y-105518599D01*
X136868889Y-105603513D01*
X137087050Y-105625000D01*
X137232950Y-105625000D01*
X137451111Y-105603513D01*
X137731034Y-105518599D01*
X137989014Y-105380706D01*
X138215134Y-105195134D01*
X138400706Y-104969014D01*
X138538599Y-104711034D01*
X138623513Y-104431111D01*
X138652185Y-104140000D01*
X138623513Y-103848889D01*
X138538599Y-103568966D01*
X138400706Y-103310986D01*
X138215134Y-103084866D01*
X137989014Y-102899294D01*
X137934209Y-102870000D01*
X137989014Y-102840706D01*
X138215134Y-102655134D01*
X138400706Y-102429014D01*
X138538599Y-102171034D01*
X138623513Y-101891111D01*
X138652185Y-101600000D01*
X138623513Y-101308889D01*
X138538599Y-101028966D01*
X138400706Y-100770986D01*
X138215134Y-100544866D01*
X137989014Y-100359294D01*
X137934209Y-100330000D01*
X137989014Y-100300706D01*
X138215134Y-100115134D01*
X138400706Y-99889014D01*
X138538599Y-99631034D01*
X138623513Y-99351111D01*
X138652185Y-99060000D01*
X138623513Y-98768889D01*
X138538599Y-98488966D01*
X138400706Y-98230986D01*
X138215134Y-98004866D01*
X137989014Y-97819294D01*
X137934209Y-97790000D01*
X137989014Y-97760706D01*
X138215134Y-97575134D01*
X138400706Y-97349014D01*
X138538599Y-97091034D01*
X138623513Y-96811111D01*
X138652185Y-96520000D01*
X138623513Y-96228889D01*
X138538599Y-95948966D01*
X138400706Y-95690986D01*
X138215134Y-95464866D01*
X137989014Y-95279294D01*
X137934209Y-95250000D01*
X137989014Y-95220706D01*
X138215134Y-95035134D01*
X138400706Y-94809014D01*
X138538599Y-94551034D01*
X138623513Y-94271111D01*
X138652185Y-93980000D01*
X138623513Y-93688889D01*
X138538599Y-93408966D01*
X138400706Y-93150986D01*
X138215134Y-92924866D01*
X137989014Y-92739294D01*
X137934209Y-92710000D01*
X137989014Y-92680706D01*
X138215134Y-92495134D01*
X138400706Y-92269014D01*
X138538599Y-92011034D01*
X138623513Y-91731111D01*
X138652185Y-91440000D01*
X138623513Y-91148889D01*
X138538599Y-90868966D01*
X138400706Y-90610986D01*
X138215134Y-90384866D01*
X137989014Y-90199294D01*
X137934209Y-90170000D01*
X137989014Y-90140706D01*
X138215134Y-89955134D01*
X138400706Y-89729014D01*
X138538599Y-89471034D01*
X138623513Y-89191111D01*
X138652185Y-88900000D01*
X138623513Y-88608889D01*
X138538599Y-88328966D01*
X138400706Y-88070986D01*
X138215134Y-87844866D01*
X137989014Y-87659294D01*
X137934209Y-87630000D01*
X137989014Y-87600706D01*
X138215134Y-87415134D01*
X138400706Y-87189014D01*
X138538599Y-86931034D01*
X138623513Y-86651111D01*
X138633274Y-86552000D01*
X144240928Y-86552000D01*
X144253188Y-86676482D01*
X144289498Y-86796180D01*
X144348463Y-86906494D01*
X144427815Y-87003185D01*
X144524506Y-87082537D01*
X144634820Y-87141502D01*
X144754518Y-87177812D01*
X144879000Y-87190072D01*
X145080750Y-87187000D01*
X145239500Y-87028250D01*
X145239500Y-85979000D01*
X144402750Y-85979000D01*
X144244000Y-86137750D01*
X144240928Y-86552000D01*
X138633274Y-86552000D01*
X138652185Y-86360000D01*
X138623513Y-86068889D01*
X138538599Y-85788966D01*
X138400706Y-85530986D01*
X138215134Y-85304866D01*
X138028867Y-85152000D01*
X144240928Y-85152000D01*
X144244000Y-85566250D01*
X144402750Y-85725000D01*
X145239500Y-85725000D01*
X145239500Y-84675750D01*
X145080750Y-84517000D01*
X144879000Y-84513928D01*
X144754518Y-84526188D01*
X144634820Y-84562498D01*
X144524506Y-84621463D01*
X144427815Y-84700815D01*
X144348463Y-84797506D01*
X144289498Y-84907820D01*
X144253188Y-85027518D01*
X144240928Y-85152000D01*
X138028867Y-85152000D01*
X137989014Y-85119294D01*
X137934209Y-85090000D01*
X137989014Y-85060706D01*
X138215134Y-84875134D01*
X138400706Y-84649014D01*
X138538599Y-84391034D01*
X138623513Y-84111111D01*
X138652185Y-83820000D01*
X138623513Y-83528889D01*
X138538599Y-83248966D01*
X138400706Y-82990986D01*
X138215134Y-82764866D01*
X137989014Y-82579294D01*
X137934209Y-82550000D01*
X137989014Y-82520706D01*
X138215134Y-82335134D01*
X138400706Y-82109014D01*
X138538599Y-81851034D01*
X138623513Y-81571111D01*
X138652185Y-81280000D01*
X138623513Y-80988889D01*
X138538599Y-80708966D01*
X138400706Y-80450986D01*
X138215134Y-80224866D01*
X137989014Y-80039294D01*
X137934209Y-80010000D01*
X137989014Y-79980706D01*
X138215134Y-79795134D01*
X138400706Y-79569014D01*
X138538599Y-79311034D01*
X138623513Y-79031111D01*
X138652185Y-78740000D01*
X138623513Y-78448889D01*
X138538599Y-78168966D01*
X138400706Y-77910986D01*
X138215134Y-77684866D01*
X137989014Y-77499294D01*
X137934209Y-77470000D01*
X137989014Y-77440706D01*
X138215134Y-77255134D01*
X138400706Y-77029014D01*
X138538599Y-76771034D01*
X138623513Y-76491111D01*
X138652185Y-76200000D01*
X138623513Y-75908889D01*
X138538599Y-75628966D01*
X138400706Y-75370986D01*
X138215134Y-75144866D01*
X137989014Y-74959294D01*
X137934209Y-74930000D01*
X137989014Y-74900706D01*
X138215134Y-74715134D01*
X138400706Y-74489014D01*
X138538599Y-74231034D01*
X138623513Y-73951111D01*
X138652185Y-73660000D01*
X138623513Y-73368889D01*
X138538599Y-73088966D01*
X138400706Y-72830986D01*
X138215134Y-72604866D01*
X137989014Y-72419294D01*
X137934209Y-72390000D01*
X137989014Y-72360706D01*
X138215134Y-72175134D01*
X138400706Y-71949014D01*
X138538599Y-71691034D01*
X138623513Y-71411111D01*
X138652185Y-71120000D01*
X138623513Y-70828889D01*
X138538599Y-70548966D01*
X138400706Y-70290986D01*
X138215134Y-70064866D01*
X137989014Y-69879294D01*
X137934209Y-69850000D01*
X137989014Y-69820706D01*
X138215134Y-69635134D01*
X138400706Y-69409014D01*
X138538599Y-69151034D01*
X138623513Y-68871111D01*
X138652185Y-68580000D01*
X138623513Y-68288889D01*
X138538599Y-68008966D01*
X138400706Y-67750986D01*
X138215134Y-67524866D01*
X137989014Y-67339294D01*
X137934209Y-67310000D01*
X137989014Y-67280706D01*
X138215134Y-67095134D01*
X138400706Y-66869014D01*
X138538599Y-66611034D01*
X138623513Y-66331111D01*
X138652185Y-66040000D01*
X138623513Y-65748889D01*
X138538599Y-65468966D01*
X138400706Y-65210986D01*
X138215134Y-64984866D01*
X137989014Y-64799294D01*
X137934209Y-64770000D01*
X137989014Y-64740706D01*
X138215134Y-64555134D01*
X138400706Y-64329014D01*
X138430000Y-64274209D01*
X138459294Y-64329014D01*
X138644866Y-64555134D01*
X138870986Y-64740706D01*
X139128966Y-64878599D01*
X139408889Y-64963513D01*
X139627050Y-64985000D01*
X139772950Y-64985000D01*
X139991111Y-64963513D01*
X140271034Y-64878599D01*
X140529014Y-64740706D01*
X140755134Y-64555134D01*
X140940706Y-64329014D01*
X141078599Y-64071034D01*
X141163513Y-63791111D01*
X141192185Y-63500000D01*
X141163513Y-63208889D01*
X141078599Y-62928966D01*
X140940706Y-62670986D01*
X140755134Y-62444866D01*
X140725313Y-62420393D01*
X140794180Y-62399502D01*
X140904494Y-62340537D01*
X141001185Y-62261185D01*
X141080537Y-62164494D01*
X141139502Y-62054180D01*
X141175812Y-61934482D01*
X141188072Y-61810000D01*
X141188072Y-60110000D01*
X141175812Y-59985518D01*
X141139502Y-59865820D01*
X141080537Y-59755506D01*
X141001185Y-59658815D01*
X140904494Y-59579463D01*
X140794180Y-59520498D01*
X140674482Y-59484188D01*
X140550000Y-59471928D01*
X138850000Y-59471928D01*
X138725518Y-59484188D01*
X138605820Y-59520498D01*
X138495506Y-59579463D01*
X138398815Y-59658815D01*
X138319463Y-59755506D01*
X138260498Y-59865820D01*
X138239607Y-59934687D01*
X138215134Y-59904866D01*
X137989014Y-59719294D01*
X137924477Y-59684799D01*
X138041355Y-59615178D01*
X138257588Y-59420269D01*
X138431641Y-59186920D01*
X138556825Y-58924099D01*
X138601476Y-58776890D01*
X138480155Y-58547000D01*
X137287000Y-58547000D01*
X137287000Y-58567000D01*
X137033000Y-58567000D01*
X137033000Y-58547000D01*
X135839845Y-58547000D01*
X135718524Y-58776890D01*
X135763175Y-58924099D01*
X135888359Y-59186920D01*
X136062412Y-59420269D01*
X136278645Y-59615178D01*
X136395523Y-59684799D01*
X136330986Y-59719294D01*
X136104866Y-59904866D01*
X135919294Y-60130986D01*
X135781401Y-60388966D01*
X135696487Y-60668889D01*
X135667815Y-60960000D01*
X132790000Y-60960000D01*
X132790000Y-56730000D01*
X135671928Y-56730000D01*
X135684188Y-56854482D01*
X135720498Y-56974180D01*
X135779463Y-57084494D01*
X135858815Y-57181185D01*
X135955506Y-57260537D01*
X136065820Y-57319502D01*
X136146466Y-57343966D01*
X136062412Y-57419731D01*
X135888359Y-57653080D01*
X135763175Y-57915901D01*
X135718524Y-58063110D01*
X135839845Y-58293000D01*
X137033000Y-58293000D01*
X137033000Y-56007000D01*
X137287000Y-56007000D01*
X137287000Y-58293000D01*
X138480155Y-58293000D01*
X138601476Y-58063110D01*
X138556825Y-57915901D01*
X138431641Y-57653080D01*
X138257588Y-57419731D01*
X138173534Y-57343966D01*
X138254180Y-57319502D01*
X138364494Y-57260537D01*
X138461185Y-57181185D01*
X138540537Y-57084494D01*
X138599502Y-56974180D01*
X138635812Y-56854482D01*
X138648072Y-56730000D01*
X138647294Y-56587000D01*
X139695000Y-56587000D01*
X139695000Y-56862000D01*
X139745908Y-57124883D01*
X139847124Y-57372783D01*
X139994758Y-57596173D01*
X140183137Y-57786469D01*
X140405021Y-57936357D01*
X140651883Y-58040078D01*
X140717742Y-58052519D01*
X140928000Y-57929518D01*
X140928000Y-56587000D01*
X141182000Y-56587000D01*
X141182000Y-57929518D01*
X141392258Y-58052519D01*
X141458117Y-58040078D01*
X141704979Y-57936357D01*
X141926863Y-57786469D01*
X142115242Y-57596173D01*
X142262876Y-57372783D01*
X142364092Y-57124883D01*
X142415000Y-56862000D01*
X142415000Y-56587000D01*
X141182000Y-56587000D01*
X140928000Y-56587000D01*
X139695000Y-56587000D01*
X138647294Y-56587000D01*
X138645000Y-56165750D01*
X138537250Y-56058000D01*
X139695000Y-56058000D01*
X139695000Y-56333000D01*
X140928000Y-56333000D01*
X140928000Y-54990482D01*
X141182000Y-54990482D01*
X141182000Y-56333000D01*
X141811211Y-56333000D01*
X141882007Y-56370841D01*
X142077105Y-56430024D01*
X142229162Y-56445000D01*
X142330838Y-56445000D01*
X142482895Y-56430024D01*
X142677993Y-56370841D01*
X142857797Y-56274734D01*
X143015396Y-56145396D01*
X143144734Y-55987797D01*
X143240841Y-55807993D01*
X143300024Y-55612895D01*
X143320007Y-55410000D01*
X143300024Y-55207105D01*
X143240841Y-55012007D01*
X143144734Y-54832203D01*
X143015396Y-54674604D01*
X142857797Y-54545266D01*
X142677993Y-54449159D01*
X142482895Y-54389976D01*
X142330838Y-54375000D01*
X142229162Y-54375000D01*
X142077105Y-54389976D01*
X141882007Y-54449159D01*
X141702203Y-54545266D01*
X141544604Y-54674604D01*
X141415266Y-54832203D01*
X141396029Y-54868193D01*
X141392258Y-54867481D01*
X141182000Y-54990482D01*
X140928000Y-54990482D01*
X140717742Y-54867481D01*
X140651883Y-54879922D01*
X140405021Y-54983643D01*
X140183137Y-55133531D01*
X139994758Y-55323827D01*
X139847124Y-55547217D01*
X139745908Y-55795117D01*
X139695000Y-56058000D01*
X138537250Y-56058000D01*
X138486250Y-56007000D01*
X137287000Y-56007000D01*
X137033000Y-56007000D01*
X135833750Y-56007000D01*
X135675000Y-56165750D01*
X135671928Y-56730000D01*
X132790000Y-56730000D01*
X132790000Y-53169117D01*
X132885000Y-53169117D01*
X132885000Y-53510883D01*
X132951675Y-53846081D01*
X133082463Y-54161831D01*
X133272337Y-54445998D01*
X133514002Y-54687663D01*
X133798169Y-54877537D01*
X134113919Y-55008325D01*
X134449117Y-55075000D01*
X134790883Y-55075000D01*
X135017113Y-55030000D01*
X135671928Y-55030000D01*
X135675000Y-55594250D01*
X135833750Y-55753000D01*
X137033000Y-55753000D01*
X137033000Y-54553750D01*
X137287000Y-54553750D01*
X137287000Y-55753000D01*
X138486250Y-55753000D01*
X138645000Y-55594250D01*
X138648072Y-55030000D01*
X138635812Y-54905518D01*
X138599502Y-54785820D01*
X138540537Y-54675506D01*
X138461185Y-54578815D01*
X138364494Y-54499463D01*
X138254180Y-54440498D01*
X138134482Y-54404188D01*
X138010000Y-54391928D01*
X137445750Y-54395000D01*
X137287000Y-54553750D01*
X137033000Y-54553750D01*
X136874250Y-54395000D01*
X136310000Y-54391928D01*
X136185518Y-54404188D01*
X136065820Y-54440498D01*
X135955506Y-54499463D01*
X135858815Y-54578815D01*
X135779463Y-54675506D01*
X135720498Y-54785820D01*
X135684188Y-54905518D01*
X135671928Y-55030000D01*
X135017113Y-55030000D01*
X135126081Y-55008325D01*
X135441831Y-54877537D01*
X135725998Y-54687663D01*
X135967663Y-54445998D01*
X136157537Y-54161831D01*
X136288325Y-53846081D01*
X136355000Y-53510883D01*
X136355000Y-53169117D01*
X136288325Y-52833919D01*
X136268891Y-52787000D01*
X139695000Y-52787000D01*
X139695000Y-53112000D01*
X139743026Y-53345619D01*
X139835706Y-53565380D01*
X139969479Y-53762837D01*
X140139203Y-53930402D01*
X140338356Y-54061636D01*
X140559285Y-54151496D01*
X140591323Y-54153635D01*
X140778000Y-54028550D01*
X140778000Y-52787000D01*
X141032000Y-52787000D01*
X141032000Y-54028550D01*
X141218677Y-54153635D01*
X141250715Y-54151496D01*
X141471644Y-54061636D01*
X141670797Y-53930402D01*
X141840521Y-53762837D01*
X141974294Y-53565380D01*
X142066974Y-53345619D01*
X142115000Y-53112000D01*
X142115000Y-52787000D01*
X141032000Y-52787000D01*
X140778000Y-52787000D01*
X139695000Y-52787000D01*
X136268891Y-52787000D01*
X136157537Y-52518169D01*
X135967663Y-52234002D01*
X135725998Y-51992337D01*
X135441831Y-51802463D01*
X135126081Y-51671675D01*
X134790883Y-51605000D01*
X134449117Y-51605000D01*
X134113919Y-51671675D01*
X133798169Y-51802463D01*
X133514002Y-51992337D01*
X133272337Y-52234002D01*
X133082463Y-52518169D01*
X132951675Y-52833919D01*
X132885000Y-53169117D01*
X132790000Y-53169117D01*
X132790000Y-51510000D01*
X140017250Y-51510000D01*
X139969479Y-51557163D01*
G36*
X147477000Y-90043000D02*
G01*
X147497000Y-90043000D01*
X147497000Y-90297000D01*
X147477000Y-90297000D01*
X147477000Y-91948000D01*
X147497000Y-91948000D01*
X147497000Y-92202000D01*
X147477000Y-92202000D01*
X147477000Y-92222000D01*
X147223000Y-92222000D01*
X147223000Y-92202000D01*
X146386250Y-92202000D01*
X146227500Y-92360750D01*
X146224428Y-92775000D01*
X146236688Y-92899482D01*
X146272998Y-93019180D01*
X146331963Y-93129494D01*
X146411315Y-93226185D01*
X146508006Y-93305537D01*
X146618320Y-93364502D01*
X146738018Y-93400812D01*
X146816643Y-93408556D01*
X145193997Y-95031202D01*
X145164999Y-95055000D01*
X145141201Y-95083998D01*
X145141200Y-95083999D01*
X145070025Y-95170725D01*
X144999453Y-95302755D01*
X144969179Y-95402559D01*
X144960155Y-95432310D01*
X144955997Y-95446016D01*
X144941323Y-95595001D01*
X144945000Y-95632333D01*
X144945000Y-99706479D01*
X144904482Y-99694188D01*
X144780000Y-99681928D01*
X144290000Y-99681928D01*
X144290000Y-97622776D01*
X144308382Y-97607690D01*
X144377690Y-97538382D01*
X144457042Y-97441691D01*
X144511498Y-97360192D01*
X144570464Y-97249875D01*
X144607973Y-97159319D01*
X144644282Y-97039623D01*
X144663404Y-96943490D01*
X144675664Y-96819009D01*
X144675664Y-96794450D01*
X144678072Y-96770000D01*
X144678072Y-96270000D01*
X144675664Y-96245550D01*
X144675664Y-96220991D01*
X144663404Y-96096510D01*
X144644282Y-96000377D01*
X144607973Y-95880681D01*
X144570464Y-95790125D01*
X144511498Y-95679808D01*
X144457042Y-95598309D01*
X144377690Y-95501618D01*
X144308382Y-95432310D01*
X144211691Y-95352958D01*
X144130192Y-95298502D01*
X144019875Y-95239536D01*
X143929319Y-95202027D01*
X143809623Y-95165718D01*
X143713490Y-95146596D01*
X143589009Y-95134336D01*
X143564450Y-95134336D01*
X143540000Y-95131928D01*
X143000000Y-95131928D01*
X143000000Y-94090451D01*
X146224458Y-90865994D01*
X146224428Y-90870000D01*
X146236688Y-90994482D01*
X146272998Y-91114180D01*
X146277445Y-91122500D01*
X146272998Y-91130820D01*
X146236688Y-91250518D01*
X146224428Y-91375000D01*
X146227500Y-91789250D01*
X146386250Y-91948000D01*
X147223000Y-91948000D01*
X147223000Y-90297000D01*
X147203000Y-90297000D01*
X147203000Y-90043000D01*
X147223000Y-90043000D01*
X147223000Y-90023000D01*
X147477000Y-90023000D01*
X147477000Y-90043000D01*
X147477000Y-90043000D01*
G37*
X147477000Y-90043000D02*
X147497000Y-90043000D01*
X147497000Y-90297000D01*
X147477000Y-90297000D01*
X147477000Y-91948000D01*
X147497000Y-91948000D01*
X147497000Y-92202000D01*
X147477000Y-92202000D01*
X147477000Y-92222000D01*
X147223000Y-92222000D01*
X147223000Y-92202000D01*
X146386250Y-92202000D01*
X146227500Y-92360750D01*
X146224428Y-92775000D01*
X146236688Y-92899482D01*
X146272998Y-93019180D01*
X146331963Y-93129494D01*
X146411315Y-93226185D01*
X146508006Y-93305537D01*
X146618320Y-93364502D01*
X146738018Y-93400812D01*
X146816643Y-93408556D01*
X145193997Y-95031202D01*
X145164999Y-95055000D01*
X145141201Y-95083998D01*
X145141200Y-95083999D01*
X145070025Y-95170725D01*
X144999453Y-95302755D01*
X144969179Y-95402559D01*
X144960155Y-95432310D01*
X144955997Y-95446016D01*
X144941323Y-95595001D01*
X144945000Y-95632333D01*
X144945000Y-99706479D01*
X144904482Y-99694188D01*
X144780000Y-99681928D01*
X144290000Y-99681928D01*
X144290000Y-97622776D01*
X144308382Y-97607690D01*
X144377690Y-97538382D01*
X144457042Y-97441691D01*
X144511498Y-97360192D01*
X144570464Y-97249875D01*
X144607973Y-97159319D01*
X144644282Y-97039623D01*
X144663404Y-96943490D01*
X144675664Y-96819009D01*
X144675664Y-96794450D01*
X144678072Y-96770000D01*
X144678072Y-96270000D01*
X144675664Y-96245550D01*
X144675664Y-96220991D01*
X144663404Y-96096510D01*
X144644282Y-96000377D01*
X144607973Y-95880681D01*
X144570464Y-95790125D01*
X144511498Y-95679808D01*
X144457042Y-95598309D01*
X144377690Y-95501618D01*
X144308382Y-95432310D01*
X144211691Y-95352958D01*
X144130192Y-95298502D01*
X144019875Y-95239536D01*
X143929319Y-95202027D01*
X143809623Y-95165718D01*
X143713490Y-95146596D01*
X143589009Y-95134336D01*
X143564450Y-95134336D01*
X143540000Y-95131928D01*
X143000000Y-95131928D01*
X143000000Y-94090451D01*
X146224458Y-90865994D01*
X146224428Y-90870000D01*
X146236688Y-90994482D01*
X146272998Y-91114180D01*
X146277445Y-91122500D01*
X146272998Y-91130820D01*
X146236688Y-91250518D01*
X146224428Y-91375000D01*
X146227500Y-91789250D01*
X146386250Y-91948000D01*
X147223000Y-91948000D01*
X147223000Y-90297000D01*
X147203000Y-90297000D01*
X147203000Y-90043000D01*
X147223000Y-90043000D01*
X147223000Y-90023000D01*
X147477000Y-90023000D01*
X147477000Y-90043000D01*
G36*
X148435001Y-65054803D02*
G01*
X148435000Y-76937155D01*
X148327708Y-77025208D01*
X148322492Y-77031564D01*
X148258685Y-76953815D01*
X148161994Y-76874463D01*
X148051680Y-76815498D01*
X147931982Y-76779188D01*
X147807500Y-76766928D01*
X147605750Y-76770000D01*
X147447000Y-76928750D01*
X147447000Y-77978000D01*
X147467000Y-77978000D01*
X147467000Y-78232000D01*
X147447000Y-78232000D01*
X147447000Y-79281250D01*
X147477000Y-79311250D01*
X147477000Y-79883000D01*
X147497000Y-79883000D01*
X147497000Y-80137000D01*
X147477000Y-80137000D01*
X147477000Y-81186250D01*
X147635750Y-81345000D01*
X147837500Y-81348072D01*
X147961982Y-81335812D01*
X148081680Y-81299502D01*
X148191994Y-81240537D01*
X148288685Y-81161185D01*
X148352492Y-81083436D01*
X148357708Y-81089792D01*
X148491336Y-81199458D01*
X148643791Y-81280947D01*
X148809215Y-81331128D01*
X148981250Y-81348072D01*
X149468750Y-81348072D01*
X149640785Y-81331128D01*
X149806209Y-81280947D01*
X149958664Y-81199458D01*
X150092292Y-81089792D01*
X150201958Y-80956164D01*
X150283447Y-80803709D01*
X150333628Y-80638285D01*
X150350572Y-80466250D01*
X150350572Y-79553750D01*
X150333628Y-79381715D01*
X150283447Y-79216291D01*
X150201958Y-79063836D01*
X150179689Y-79036701D01*
X150253447Y-78898709D01*
X150303628Y-78733285D01*
X150314511Y-78622784D01*
X150330933Y-78662429D01*
X150403763Y-78771426D01*
X150375279Y-78914621D01*
X150375279Y-79098799D01*
X150411211Y-79279439D01*
X150481693Y-79449599D01*
X150584017Y-79602738D01*
X150714251Y-79732972D01*
X150867390Y-79835296D01*
X151037550Y-79905778D01*
X151218190Y-79941710D01*
X151402368Y-79941710D01*
X151583008Y-79905778D01*
X151753168Y-79835296D01*
X151906307Y-79732972D01*
X152036541Y-79602738D01*
X152138865Y-79449599D01*
X152209347Y-79279439D01*
X152233432Y-79158358D01*
X154435003Y-76956788D01*
X154464001Y-76932990D01*
X154519778Y-76865026D01*
X154558974Y-76817266D01*
X154629546Y-76685236D01*
X154646786Y-76628400D01*
X154653875Y-76625464D01*
X154764192Y-76566498D01*
X154845691Y-76512042D01*
X154942382Y-76432690D01*
X155011690Y-76363382D01*
X155091042Y-76266691D01*
X155145498Y-76185192D01*
X155204464Y-76074875D01*
X155241973Y-75984319D01*
X155278282Y-75864623D01*
X155297404Y-75768490D01*
X155309664Y-75644009D01*
X155309664Y-75619450D01*
X155312072Y-75595000D01*
X155312072Y-75287920D01*
X155369808Y-75326498D01*
X155480125Y-75385464D01*
X155570681Y-75422973D01*
X155690377Y-75459282D01*
X155786510Y-75478404D01*
X155910991Y-75490664D01*
X155935550Y-75490664D01*
X155960000Y-75493072D01*
X156460000Y-75493072D01*
X156484450Y-75490664D01*
X156509009Y-75490664D01*
X156633490Y-75478404D01*
X156729623Y-75459282D01*
X156849319Y-75422973D01*
X156939875Y-75385464D01*
X157050192Y-75326498D01*
X157131691Y-75272042D01*
X157203395Y-75213197D01*
X157355000Y-75364802D01*
X157355001Y-77462667D01*
X157355001Y-77572155D01*
X157247708Y-77660208D01*
X157138042Y-77793836D01*
X157056553Y-77946291D01*
X157006372Y-78111715D01*
X156989428Y-78283750D01*
X156989428Y-79196250D01*
X157006372Y-79368285D01*
X157056553Y-79533709D01*
X157138042Y-79686164D01*
X157160311Y-79713299D01*
X157086553Y-79851291D01*
X157036372Y-80016715D01*
X157019428Y-80188750D01*
X157019428Y-81101250D01*
X157036372Y-81273285D01*
X157086553Y-81438709D01*
X157168042Y-81591164D01*
X157277708Y-81724792D01*
X157411336Y-81834458D01*
X157563791Y-81915947D01*
X157729215Y-81966128D01*
X157901250Y-81983072D01*
X158388750Y-81983072D01*
X158560785Y-81966128D01*
X158726209Y-81915947D01*
X158878664Y-81834458D01*
X159012292Y-81724792D01*
X159017508Y-81718436D01*
X159081315Y-81796185D01*
X159178006Y-81875537D01*
X159204728Y-81889820D01*
X158542549Y-82552000D01*
X153961535Y-82552000D01*
X153858889Y-82483414D01*
X153784428Y-82452572D01*
X153782400Y-82442376D01*
X153711918Y-82272216D01*
X153609594Y-82119077D01*
X153479360Y-81988843D01*
X153326221Y-81886519D01*
X153156061Y-81816037D01*
X152975421Y-81780105D01*
X152791243Y-81780105D01*
X152610603Y-81816037D01*
X152440443Y-81886519D01*
X152337797Y-81955105D01*
X147037907Y-81955105D01*
X145792802Y-80710000D01*
X146224428Y-80710000D01*
X146236688Y-80834482D01*
X146272998Y-80954180D01*
X146331963Y-81064494D01*
X146411315Y-81161185D01*
X146508006Y-81240537D01*
X146618320Y-81299502D01*
X146738018Y-81335812D01*
X146862500Y-81348072D01*
X147064250Y-81345000D01*
X147223000Y-81186250D01*
X147223000Y-80137000D01*
X146386250Y-80137000D01*
X146227500Y-80295750D01*
X146224428Y-80710000D01*
X145792802Y-80710000D01*
X145032000Y-79949199D01*
X145032000Y-78805000D01*
X146194428Y-78805000D01*
X146206688Y-78929482D01*
X146242998Y-79049180D01*
X146265357Y-79091010D01*
X146236688Y-79185518D01*
X146224428Y-79310000D01*
X146227500Y-79724250D01*
X146386250Y-79883000D01*
X147223000Y-79883000D01*
X147223000Y-78833750D01*
X147193000Y-78803750D01*
X147193000Y-78232000D01*
X146356250Y-78232000D01*
X146197500Y-78390750D01*
X146194428Y-78805000D01*
X145032000Y-78805000D01*
X145032000Y-77405000D01*
X146194428Y-77405000D01*
X146197500Y-77819250D01*
X146356250Y-77978000D01*
X147193000Y-77978000D01*
X147193000Y-76928750D01*
X147034250Y-76770000D01*
X146832500Y-76766928D01*
X146708018Y-76779188D01*
X146588320Y-76815498D01*
X146478006Y-76874463D01*
X146381315Y-76953815D01*
X146301963Y-77050506D01*
X146242998Y-77160820D01*
X146206688Y-77280518D01*
X146194428Y-77405000D01*
X145032000Y-77405000D01*
X145032000Y-61651801D01*
X148435001Y-65054803D01*
X148435001Y-65054803D01*
G37*
X148435001Y-65054803D02*
X148435000Y-76937155D01*
X148327708Y-77025208D01*
X148322492Y-77031564D01*
X148258685Y-76953815D01*
X148161994Y-76874463D01*
X148051680Y-76815498D01*
X147931982Y-76779188D01*
X147807500Y-76766928D01*
X147605750Y-76770000D01*
X147447000Y-76928750D01*
X147447000Y-77978000D01*
X147467000Y-77978000D01*
X147467000Y-78232000D01*
X147447000Y-78232000D01*
X147447000Y-79281250D01*
X147477000Y-79311250D01*
X147477000Y-79883000D01*
X147497000Y-79883000D01*
X147497000Y-80137000D01*
X147477000Y-80137000D01*
X147477000Y-81186250D01*
X147635750Y-81345000D01*
X147837500Y-81348072D01*
X147961982Y-81335812D01*
X148081680Y-81299502D01*
X148191994Y-81240537D01*
X148288685Y-81161185D01*
X148352492Y-81083436D01*
X148357708Y-81089792D01*
X148491336Y-81199458D01*
X148643791Y-81280947D01*
X148809215Y-81331128D01*
X148981250Y-81348072D01*
X149468750Y-81348072D01*
X149640785Y-81331128D01*
X149806209Y-81280947D01*
X149958664Y-81199458D01*
X150092292Y-81089792D01*
X150201958Y-80956164D01*
X150283447Y-80803709D01*
X150333628Y-80638285D01*
X150350572Y-80466250D01*
X150350572Y-79553750D01*
X150333628Y-79381715D01*
X150283447Y-79216291D01*
X150201958Y-79063836D01*
X150179689Y-79036701D01*
X150253447Y-78898709D01*
X150303628Y-78733285D01*
X150314511Y-78622784D01*
X150330933Y-78662429D01*
X150403763Y-78771426D01*
X150375279Y-78914621D01*
X150375279Y-79098799D01*
X150411211Y-79279439D01*
X150481693Y-79449599D01*
X150584017Y-79602738D01*
X150714251Y-79732972D01*
X150867390Y-79835296D01*
X151037550Y-79905778D01*
X151218190Y-79941710D01*
X151402368Y-79941710D01*
X151583008Y-79905778D01*
X151753168Y-79835296D01*
X151906307Y-79732972D01*
X152036541Y-79602738D01*
X152138865Y-79449599D01*
X152209347Y-79279439D01*
X152233432Y-79158358D01*
X154435003Y-76956788D01*
X154464001Y-76932990D01*
X154519778Y-76865026D01*
X154558974Y-76817266D01*
X154629546Y-76685236D01*
X154646786Y-76628400D01*
X154653875Y-76625464D01*
X154764192Y-76566498D01*
X154845691Y-76512042D01*
X154942382Y-76432690D01*
X155011690Y-76363382D01*
X155091042Y-76266691D01*
X155145498Y-76185192D01*
X155204464Y-76074875D01*
X155241973Y-75984319D01*
X155278282Y-75864623D01*
X155297404Y-75768490D01*
X155309664Y-75644009D01*
X155309664Y-75619450D01*
X155312072Y-75595000D01*
X155312072Y-75287920D01*
X155369808Y-75326498D01*
X155480125Y-75385464D01*
X155570681Y-75422973D01*
X155690377Y-75459282D01*
X155786510Y-75478404D01*
X155910991Y-75490664D01*
X155935550Y-75490664D01*
X155960000Y-75493072D01*
X156460000Y-75493072D01*
X156484450Y-75490664D01*
X156509009Y-75490664D01*
X156633490Y-75478404D01*
X156729623Y-75459282D01*
X156849319Y-75422973D01*
X156939875Y-75385464D01*
X157050192Y-75326498D01*
X157131691Y-75272042D01*
X157203395Y-75213197D01*
X157355000Y-75364802D01*
X157355001Y-77462667D01*
X157355001Y-77572155D01*
X157247708Y-77660208D01*
X157138042Y-77793836D01*
X157056553Y-77946291D01*
X157006372Y-78111715D01*
X156989428Y-78283750D01*
X156989428Y-79196250D01*
X157006372Y-79368285D01*
X157056553Y-79533709D01*
X157138042Y-79686164D01*
X157160311Y-79713299D01*
X157086553Y-79851291D01*
X157036372Y-80016715D01*
X157019428Y-80188750D01*
X157019428Y-81101250D01*
X157036372Y-81273285D01*
X157086553Y-81438709D01*
X157168042Y-81591164D01*
X157277708Y-81724792D01*
X157411336Y-81834458D01*
X157563791Y-81915947D01*
X157729215Y-81966128D01*
X157901250Y-81983072D01*
X158388750Y-81983072D01*
X158560785Y-81966128D01*
X158726209Y-81915947D01*
X158878664Y-81834458D01*
X159012292Y-81724792D01*
X159017508Y-81718436D01*
X159081315Y-81796185D01*
X159178006Y-81875537D01*
X159204728Y-81889820D01*
X158542549Y-82552000D01*
X153961535Y-82552000D01*
X153858889Y-82483414D01*
X153784428Y-82452572D01*
X153782400Y-82442376D01*
X153711918Y-82272216D01*
X153609594Y-82119077D01*
X153479360Y-81988843D01*
X153326221Y-81886519D01*
X153156061Y-81816037D01*
X152975421Y-81780105D01*
X152791243Y-81780105D01*
X152610603Y-81816037D01*
X152440443Y-81886519D01*
X152337797Y-81955105D01*
X147037907Y-81955105D01*
X145792802Y-80710000D01*
X146224428Y-80710000D01*
X146236688Y-80834482D01*
X146272998Y-80954180D01*
X146331963Y-81064494D01*
X146411315Y-81161185D01*
X146508006Y-81240537D01*
X146618320Y-81299502D01*
X146738018Y-81335812D01*
X146862500Y-81348072D01*
X147064250Y-81345000D01*
X147223000Y-81186250D01*
X147223000Y-80137000D01*
X146386250Y-80137000D01*
X146227500Y-80295750D01*
X146224428Y-80710000D01*
X145792802Y-80710000D01*
X145032000Y-79949199D01*
X145032000Y-78805000D01*
X146194428Y-78805000D01*
X146206688Y-78929482D01*
X146242998Y-79049180D01*
X146265357Y-79091010D01*
X146236688Y-79185518D01*
X146224428Y-79310000D01*
X146227500Y-79724250D01*
X146386250Y-79883000D01*
X147223000Y-79883000D01*
X147223000Y-78833750D01*
X147193000Y-78803750D01*
X147193000Y-78232000D01*
X146356250Y-78232000D01*
X146197500Y-78390750D01*
X146194428Y-78805000D01*
X145032000Y-78805000D01*
X145032000Y-77405000D01*
X146194428Y-77405000D01*
X146197500Y-77819250D01*
X146356250Y-77978000D01*
X147193000Y-77978000D01*
X147193000Y-76928750D01*
X147034250Y-76770000D01*
X146832500Y-76766928D01*
X146708018Y-76779188D01*
X146588320Y-76815498D01*
X146478006Y-76874463D01*
X146381315Y-76953815D01*
X146301963Y-77050506D01*
X146242998Y-77160820D01*
X146206688Y-77280518D01*
X146194428Y-77405000D01*
X145032000Y-77405000D01*
X145032000Y-61651801D01*
X148435001Y-65054803D01*
G36*
X160072510Y-73517312D02*
G01*
X160072511Y-75492575D01*
X160072510Y-75492585D01*
X160072510Y-75602332D01*
X160072511Y-75602342D01*
X160072510Y-80792000D01*
X159893000Y-80792000D01*
X159893000Y-80772000D01*
X159873000Y-80772000D01*
X159873000Y-80518000D01*
X159893000Y-80518000D01*
X159893000Y-79468750D01*
X159863000Y-79438750D01*
X159863000Y-78867000D01*
X159843000Y-78867000D01*
X159843000Y-78613000D01*
X159863000Y-78613000D01*
X159863000Y-77563750D01*
X159704250Y-77405000D01*
X159502500Y-77401928D01*
X159378018Y-77414188D01*
X159258320Y-77450498D01*
X159148006Y-77509463D01*
X159051315Y-77588815D01*
X158987508Y-77666564D01*
X158982292Y-77660208D01*
X158875000Y-77572155D01*
X158875000Y-75087322D01*
X158878676Y-75049999D01*
X158875000Y-75012676D01*
X158875000Y-75012667D01*
X158864003Y-74901014D01*
X158820546Y-74757753D01*
X158749974Y-74625724D01*
X158710506Y-74577632D01*
X158678799Y-74538996D01*
X158678795Y-74538992D01*
X158655001Y-74509999D01*
X158626009Y-74486206D01*
X157983803Y-73844002D01*
X157960001Y-73814999D01*
X157844276Y-73720026D01*
X157712247Y-73649454D01*
X157592351Y-73613085D01*
X157598072Y-73555000D01*
X157598072Y-72555000D01*
X157594132Y-72515000D01*
X159070199Y-72515000D01*
X160072510Y-73517312D01*
X160072510Y-73517312D01*
G37*
X160072510Y-73517312D02*
X160072511Y-75492575D01*
X160072510Y-75492585D01*
X160072510Y-75602332D01*
X160072511Y-75602342D01*
X160072510Y-80792000D01*
X159893000Y-80792000D01*
X159893000Y-80772000D01*
X159873000Y-80772000D01*
X159873000Y-80518000D01*
X159893000Y-80518000D01*
X159893000Y-79468750D01*
X159863000Y-79438750D01*
X159863000Y-78867000D01*
X159843000Y-78867000D01*
X159843000Y-78613000D01*
X159863000Y-78613000D01*
X159863000Y-77563750D01*
X159704250Y-77405000D01*
X159502500Y-77401928D01*
X159378018Y-77414188D01*
X159258320Y-77450498D01*
X159148006Y-77509463D01*
X159051315Y-77588815D01*
X158987508Y-77666564D01*
X158982292Y-77660208D01*
X158875000Y-77572155D01*
X158875000Y-75087322D01*
X158878676Y-75049999D01*
X158875000Y-75012676D01*
X158875000Y-75012667D01*
X158864003Y-74901014D01*
X158820546Y-74757753D01*
X158749974Y-74625724D01*
X158710506Y-74577632D01*
X158678799Y-74538996D01*
X158678795Y-74538992D01*
X158655001Y-74509999D01*
X158626009Y-74486206D01*
X157983803Y-73844002D01*
X157960001Y-73814999D01*
X157844276Y-73720026D01*
X157712247Y-73649454D01*
X157592351Y-73613085D01*
X157598072Y-73555000D01*
X157598072Y-72555000D01*
X157594132Y-72515000D01*
X159070199Y-72515000D01*
X160072510Y-73517312D01*
G36*
X160625000Y-61418800D02*
G01*
X160624999Y-71920198D01*
X159948804Y-71244003D01*
X159925001Y-71214999D01*
X159809276Y-71120026D01*
X159677247Y-71049454D01*
X159533986Y-71005997D01*
X159422333Y-70995000D01*
X159422322Y-70995000D01*
X159385000Y-70991324D01*
X159347678Y-70995000D01*
X157304569Y-70995000D01*
X157297690Y-70986618D01*
X157228382Y-70917310D01*
X157131691Y-70837958D01*
X157050192Y-70783502D01*
X156939875Y-70724536D01*
X156849319Y-70687027D01*
X156729623Y-70650718D01*
X156633490Y-70631596D01*
X156509009Y-70619336D01*
X156484450Y-70619336D01*
X156460000Y-70616928D01*
X155960000Y-70616928D01*
X155935550Y-70619336D01*
X155910991Y-70619336D01*
X155786510Y-70631596D01*
X155690377Y-70650718D01*
X155570681Y-70687027D01*
X155480125Y-70724536D01*
X155369808Y-70783502D01*
X155288309Y-70837958D01*
X155191618Y-70917310D01*
X155122310Y-70986618D01*
X155042958Y-71083309D01*
X154988502Y-71164808D01*
X154929536Y-71275125D01*
X154892027Y-71365681D01*
X154855718Y-71485377D01*
X154836596Y-71581510D01*
X154824336Y-71705991D01*
X154824336Y-71730550D01*
X154821928Y-71755000D01*
X154821928Y-72095168D01*
X154667271Y-72125932D01*
X154497111Y-72196414D01*
X154343972Y-72298738D01*
X154333236Y-72309474D01*
X154196729Y-72252932D01*
X154016089Y-72217000D01*
X153831911Y-72217000D01*
X153651271Y-72252932D01*
X153481111Y-72323414D01*
X153360000Y-72404338D01*
X153360000Y-65347906D01*
X153363556Y-65311801D01*
X153349365Y-65167716D01*
X153307337Y-65029167D01*
X153239087Y-64901481D01*
X153170253Y-64817607D01*
X153147238Y-64789563D01*
X153119193Y-64766547D01*
X152227716Y-63875070D01*
X152327911Y-63895000D01*
X152512089Y-63895000D01*
X152692729Y-63859068D01*
X152862889Y-63788586D01*
X153016028Y-63686262D01*
X153146262Y-63556028D01*
X153248586Y-63402889D01*
X153319068Y-63232729D01*
X153343153Y-63111649D01*
X154181003Y-62273799D01*
X154210001Y-62250001D01*
X154236332Y-62217917D01*
X154304974Y-62134277D01*
X154337923Y-62072634D01*
X154414180Y-62049502D01*
X154503180Y-62001930D01*
X154583136Y-62037446D01*
X154638126Y-62054119D01*
X154813000Y-61927954D01*
X154813000Y-61087000D01*
X154808072Y-61087000D01*
X154808072Y-60833000D01*
X154813000Y-60833000D01*
X154813000Y-60817983D01*
X154884248Y-60825000D01*
X154995752Y-60825000D01*
X155067000Y-60817983D01*
X155067000Y-60833000D01*
X155082017Y-60833000D01*
X155069509Y-60960000D01*
X155082017Y-61087000D01*
X155067000Y-61087000D01*
X155067000Y-61927954D01*
X155241874Y-62054119D01*
X155296864Y-62037446D01*
X155500206Y-61947123D01*
X155566617Y-61900274D01*
X155576377Y-61908284D01*
X155773553Y-62013676D01*
X155987501Y-62078577D01*
X156154248Y-62095000D01*
X156265752Y-62095000D01*
X156432499Y-62078577D01*
X156646447Y-62013676D01*
X156843623Y-61908284D01*
X156853383Y-61900274D01*
X156919794Y-61947123D01*
X157123136Y-62037446D01*
X157178126Y-62054119D01*
X157353000Y-61927954D01*
X157353000Y-61087000D01*
X157607000Y-61087000D01*
X157607000Y-61927954D01*
X157781874Y-62054119D01*
X157836864Y-62037446D01*
X158040206Y-61947123D01*
X158115000Y-61894361D01*
X158189794Y-61947123D01*
X158393136Y-62037446D01*
X158448126Y-62054119D01*
X158623000Y-61927954D01*
X158623000Y-61087000D01*
X158877000Y-61087000D01*
X158877000Y-61927954D01*
X159051874Y-62054119D01*
X159106864Y-62037446D01*
X159310206Y-61947123D01*
X159492020Y-61818865D01*
X159645318Y-61657601D01*
X159764210Y-61469529D01*
X159844126Y-61261876D01*
X159719129Y-61087000D01*
X158877000Y-61087000D01*
X158623000Y-61087000D01*
X157607000Y-61087000D01*
X157353000Y-61087000D01*
X157337983Y-61087000D01*
X157350491Y-60960000D01*
X157337983Y-60833000D01*
X157353000Y-60833000D01*
X157353000Y-60817983D01*
X157424248Y-60825000D01*
X157535752Y-60825000D01*
X157607000Y-60817983D01*
X157607000Y-60833000D01*
X158623000Y-60833000D01*
X158623000Y-60817983D01*
X158694248Y-60825000D01*
X158805752Y-60825000D01*
X158877000Y-60817983D01*
X158877000Y-60833000D01*
X159719129Y-60833000D01*
X159844126Y-60658124D01*
X159831489Y-60625289D01*
X160625000Y-61418800D01*
X160625000Y-61418800D01*
G37*
X160625000Y-61418800D02*
X160624999Y-71920198D01*
X159948804Y-71244003D01*
X159925001Y-71214999D01*
X159809276Y-71120026D01*
X159677247Y-71049454D01*
X159533986Y-71005997D01*
X159422333Y-70995000D01*
X159422322Y-70995000D01*
X159385000Y-70991324D01*
X159347678Y-70995000D01*
X157304569Y-70995000D01*
X157297690Y-70986618D01*
X157228382Y-70917310D01*
X157131691Y-70837958D01*
X157050192Y-70783502D01*
X156939875Y-70724536D01*
X156849319Y-70687027D01*
X156729623Y-70650718D01*
X156633490Y-70631596D01*
X156509009Y-70619336D01*
X156484450Y-70619336D01*
X156460000Y-70616928D01*
X155960000Y-70616928D01*
X155935550Y-70619336D01*
X155910991Y-70619336D01*
X155786510Y-70631596D01*
X155690377Y-70650718D01*
X155570681Y-70687027D01*
X155480125Y-70724536D01*
X155369808Y-70783502D01*
X155288309Y-70837958D01*
X155191618Y-70917310D01*
X155122310Y-70986618D01*
X155042958Y-71083309D01*
X154988502Y-71164808D01*
X154929536Y-71275125D01*
X154892027Y-71365681D01*
X154855718Y-71485377D01*
X154836596Y-71581510D01*
X154824336Y-71705991D01*
X154824336Y-71730550D01*
X154821928Y-71755000D01*
X154821928Y-72095168D01*
X154667271Y-72125932D01*
X154497111Y-72196414D01*
X154343972Y-72298738D01*
X154333236Y-72309474D01*
X154196729Y-72252932D01*
X154016089Y-72217000D01*
X153831911Y-72217000D01*
X153651271Y-72252932D01*
X153481111Y-72323414D01*
X153360000Y-72404338D01*
X153360000Y-65347906D01*
X153363556Y-65311801D01*
X153349365Y-65167716D01*
X153307337Y-65029167D01*
X153239087Y-64901481D01*
X153170253Y-64817607D01*
X153147238Y-64789563D01*
X153119193Y-64766547D01*
X152227716Y-63875070D01*
X152327911Y-63895000D01*
X152512089Y-63895000D01*
X152692729Y-63859068D01*
X152862889Y-63788586D01*
X153016028Y-63686262D01*
X153146262Y-63556028D01*
X153248586Y-63402889D01*
X153319068Y-63232729D01*
X153343153Y-63111649D01*
X154181003Y-62273799D01*
X154210001Y-62250001D01*
X154236332Y-62217917D01*
X154304974Y-62134277D01*
X154337923Y-62072634D01*
X154414180Y-62049502D01*
X154503180Y-62001930D01*
X154583136Y-62037446D01*
X154638126Y-62054119D01*
X154813000Y-61927954D01*
X154813000Y-61087000D01*
X154808072Y-61087000D01*
X154808072Y-60833000D01*
X154813000Y-60833000D01*
X154813000Y-60817983D01*
X154884248Y-60825000D01*
X154995752Y-60825000D01*
X155067000Y-60817983D01*
X155067000Y-60833000D01*
X155082017Y-60833000D01*
X155069509Y-60960000D01*
X155082017Y-61087000D01*
X155067000Y-61087000D01*
X155067000Y-61927954D01*
X155241874Y-62054119D01*
X155296864Y-62037446D01*
X155500206Y-61947123D01*
X155566617Y-61900274D01*
X155576377Y-61908284D01*
X155773553Y-62013676D01*
X155987501Y-62078577D01*
X156154248Y-62095000D01*
X156265752Y-62095000D01*
X156432499Y-62078577D01*
X156646447Y-62013676D01*
X156843623Y-61908284D01*
X156853383Y-61900274D01*
X156919794Y-61947123D01*
X157123136Y-62037446D01*
X157178126Y-62054119D01*
X157353000Y-61927954D01*
X157353000Y-61087000D01*
X157607000Y-61087000D01*
X157607000Y-61927954D01*
X157781874Y-62054119D01*
X157836864Y-62037446D01*
X158040206Y-61947123D01*
X158115000Y-61894361D01*
X158189794Y-61947123D01*
X158393136Y-62037446D01*
X158448126Y-62054119D01*
X158623000Y-61927954D01*
X158623000Y-61087000D01*
X158877000Y-61087000D01*
X158877000Y-61927954D01*
X159051874Y-62054119D01*
X159106864Y-62037446D01*
X159310206Y-61947123D01*
X159492020Y-61818865D01*
X159645318Y-61657601D01*
X159764210Y-61469529D01*
X159844126Y-61261876D01*
X159719129Y-61087000D01*
X158877000Y-61087000D01*
X158623000Y-61087000D01*
X157607000Y-61087000D01*
X157353000Y-61087000D01*
X157337983Y-61087000D01*
X157350491Y-60960000D01*
X157337983Y-60833000D01*
X157353000Y-60833000D01*
X157353000Y-60817983D01*
X157424248Y-60825000D01*
X157535752Y-60825000D01*
X157607000Y-60817983D01*
X157607000Y-60833000D01*
X158623000Y-60833000D01*
X158623000Y-60817983D01*
X158694248Y-60825000D01*
X158805752Y-60825000D01*
X158877000Y-60817983D01*
X158877000Y-60833000D01*
X159719129Y-60833000D01*
X159844126Y-60658124D01*
X159831489Y-60625289D01*
X160625000Y-61418800D01*
G36*
X146702203Y-56274734D02*
G01*
X146882007Y-56370841D01*
X147077105Y-56430024D01*
X147229162Y-56445000D01*
X147330838Y-56445000D01*
X147482895Y-56430024D01*
X147677993Y-56370841D01*
X147748789Y-56333000D01*
X148378000Y-56333000D01*
X148378000Y-56313000D01*
X148632000Y-56313000D01*
X148632000Y-56333000D01*
X148652000Y-56333000D01*
X148652000Y-56587000D01*
X148632000Y-56587000D01*
X148632000Y-56607000D01*
X148378000Y-56607000D01*
X148378000Y-56587000D01*
X147583723Y-56587000D01*
X147580387Y-56585988D01*
X147468734Y-56574991D01*
X147468723Y-56574991D01*
X147431401Y-56571315D01*
X147394079Y-56574991D01*
X146116809Y-56574991D01*
X146545592Y-56146207D01*
X146702203Y-56274734D01*
X146702203Y-56274734D01*
G37*
X146702203Y-56274734D02*
X146882007Y-56370841D01*
X147077105Y-56430024D01*
X147229162Y-56445000D01*
X147330838Y-56445000D01*
X147482895Y-56430024D01*
X147677993Y-56370841D01*
X147748789Y-56333000D01*
X148378000Y-56333000D01*
X148378000Y-56313000D01*
X148632000Y-56313000D01*
X148632000Y-56333000D01*
X148652000Y-56333000D01*
X148652000Y-56587000D01*
X148632000Y-56587000D01*
X148632000Y-56607000D01*
X148378000Y-56607000D01*
X148378000Y-56587000D01*
X147583723Y-56587000D01*
X147580387Y-56585988D01*
X147468734Y-56574991D01*
X147468723Y-56574991D01*
X147431401Y-56571315D01*
X147394079Y-56574991D01*
X146116809Y-56574991D01*
X146545592Y-56146207D01*
X146702203Y-56274734D01*
M02*
