G04 #@! TF.GenerationSoftware,KiCad,Pcbnew,5.1.4*
G04 #@! TF.CreationDate,2019-11-03T23:23:53+01:00*
G04 #@! TF.ProjectId,stm32XxxxCx_board,73746d33-3258-4787-9878-43785f626f61,rev?*
G04 #@! TF.SameCoordinates,Original*
G04 #@! TF.FileFunction,Legend,Bot*
G04 #@! TF.FilePolarity,Positive*
%FSLAX46Y46*%
G04 Gerber Fmt 4.6, Leading zero omitted, Abs format (unit mm)*
G04 Created by KiCad (PCBNEW 5.1.4) date 2019-11-03 23:23:53*
%MOMM*%
%LPD*%
G04 APERTURE LIST*
%ADD10C,0.187500*%
%ADD11C,0.250000*%
%ADD12C,0.100000*%
%ADD13C,0.120000*%
%ADD14C,0.150000*%
G04 APERTURE END LIST*
D10*
X143456428Y-93426428D02*
X143492142Y-93533571D01*
X143527857Y-93569285D01*
X143599285Y-93605000D01*
X143706428Y-93605000D01*
X143777857Y-93569285D01*
X143813571Y-93533571D01*
X143849285Y-93462142D01*
X143849285Y-93176428D01*
X143099285Y-93176428D01*
X143099285Y-93426428D01*
X143135000Y-93497857D01*
X143170714Y-93533571D01*
X143242142Y-93569285D01*
X143313571Y-93569285D01*
X143385000Y-93533571D01*
X143420714Y-93497857D01*
X143456428Y-93426428D01*
X143456428Y-93176428D01*
X143635000Y-93890714D02*
X143635000Y-94247857D01*
X143849285Y-93819285D02*
X143099285Y-94069285D01*
X143849285Y-94319285D01*
X143099285Y-94462142D02*
X143099285Y-94890714D01*
X143849285Y-94676428D02*
X143099285Y-94676428D01*
X140559285Y-92980000D02*
X141309285Y-93230000D01*
X140559285Y-93480000D01*
X141309285Y-93730000D02*
X140559285Y-93730000D01*
X140559285Y-93908571D01*
X140595000Y-94015714D01*
X140666428Y-94087142D01*
X140737857Y-94122857D01*
X140880714Y-94158571D01*
X140987857Y-94158571D01*
X141130714Y-94122857D01*
X141202142Y-94087142D01*
X141273571Y-94015714D01*
X141309285Y-93908571D01*
X141309285Y-93730000D01*
X141309285Y-94480000D02*
X140559285Y-94480000D01*
X140559285Y-94658571D01*
X140595000Y-94765714D01*
X140666428Y-94837142D01*
X140737857Y-94872857D01*
X140880714Y-94908571D01*
X140987857Y-94908571D01*
X141130714Y-94872857D01*
X141202142Y-94837142D01*
X141273571Y-94765714D01*
X141309285Y-94658571D01*
X141309285Y-94480000D01*
X142579285Y-93551428D02*
X142222142Y-93301428D01*
X142579285Y-93122857D02*
X141829285Y-93122857D01*
X141829285Y-93408571D01*
X141865000Y-93480000D01*
X141900714Y-93515714D01*
X141972142Y-93551428D01*
X142079285Y-93551428D01*
X142150714Y-93515714D01*
X142186428Y-93480000D01*
X142222142Y-93408571D01*
X142222142Y-93122857D01*
X141829285Y-93765714D02*
X141829285Y-94194285D01*
X142579285Y-93980000D02*
X141829285Y-93980000D01*
X142507857Y-94872857D02*
X142543571Y-94837142D01*
X142579285Y-94730000D01*
X142579285Y-94658571D01*
X142543571Y-94551428D01*
X142472142Y-94480000D01*
X142400714Y-94444285D01*
X142257857Y-94408571D01*
X142150714Y-94408571D01*
X142007857Y-94444285D01*
X141936428Y-94480000D01*
X141865000Y-94551428D01*
X141829285Y-94658571D01*
X141829285Y-94730000D01*
X141865000Y-94837142D01*
X141900714Y-94872857D01*
X159974285Y-73364285D02*
X159974285Y-72614285D01*
X159688571Y-72614285D01*
X159617142Y-72650000D01*
X159581428Y-72685714D01*
X159545714Y-72757142D01*
X159545714Y-72864285D01*
X159581428Y-72935714D01*
X159617142Y-72971428D01*
X159688571Y-73007142D01*
X159974285Y-73007142D01*
X159224285Y-72614285D02*
X159224285Y-73221428D01*
X159188571Y-73292857D01*
X159152857Y-73328571D01*
X159081428Y-73364285D01*
X158938571Y-73364285D01*
X158867142Y-73328571D01*
X158831428Y-73292857D01*
X158795714Y-73221428D01*
X158795714Y-72614285D01*
X160385000Y-73884285D02*
X160135000Y-74634285D01*
X159885000Y-73884285D01*
X159635000Y-74634285D02*
X159635000Y-73884285D01*
X159456428Y-73884285D01*
X159349285Y-73920000D01*
X159277857Y-73991428D01*
X159242142Y-74062857D01*
X159206428Y-74205714D01*
X159206428Y-74312857D01*
X159242142Y-74455714D01*
X159277857Y-74527142D01*
X159349285Y-74598571D01*
X159456428Y-74634285D01*
X159635000Y-74634285D01*
X158885000Y-74634285D02*
X158885000Y-73884285D01*
X158706428Y-73884285D01*
X158599285Y-73920000D01*
X158527857Y-73991428D01*
X158492142Y-74062857D01*
X158456428Y-74205714D01*
X158456428Y-74312857D01*
X158492142Y-74455714D01*
X158527857Y-74527142D01*
X158599285Y-74598571D01*
X158706428Y-74634285D01*
X158885000Y-74634285D01*
X160670714Y-72094285D02*
X160670714Y-71344285D01*
X160385000Y-71344285D01*
X160313571Y-71380000D01*
X160277857Y-71415714D01*
X160242142Y-71487142D01*
X160242142Y-71594285D01*
X160277857Y-71665714D01*
X160313571Y-71701428D01*
X160385000Y-71737142D01*
X160670714Y-71737142D01*
X159492142Y-72022857D02*
X159527857Y-72058571D01*
X159635000Y-72094285D01*
X159706428Y-72094285D01*
X159813571Y-72058571D01*
X159885000Y-71987142D01*
X159920714Y-71915714D01*
X159956428Y-71772857D01*
X159956428Y-71665714D01*
X159920714Y-71522857D01*
X159885000Y-71451428D01*
X159813571Y-71380000D01*
X159706428Y-71344285D01*
X159635000Y-71344285D01*
X159527857Y-71380000D01*
X159492142Y-71415714D01*
X158777857Y-72094285D02*
X159206428Y-72094285D01*
X158992142Y-72094285D02*
X158992142Y-71344285D01*
X159063571Y-71451428D01*
X159135000Y-71522857D01*
X159206428Y-71558571D01*
X158527857Y-71344285D02*
X158063571Y-71344285D01*
X158313571Y-71630000D01*
X158206428Y-71630000D01*
X158135000Y-71665714D01*
X158099285Y-71701428D01*
X158063571Y-71772857D01*
X158063571Y-71951428D01*
X158099285Y-72022857D01*
X158135000Y-72058571D01*
X158206428Y-72094285D01*
X158420714Y-72094285D01*
X158492142Y-72058571D01*
X158527857Y-72022857D01*
D11*
X154376380Y-76716047D02*
X153376380Y-76716047D01*
X153376380Y-76954142D01*
X153424000Y-77097000D01*
X153519238Y-77192238D01*
X153614476Y-77239857D01*
X153804952Y-77287476D01*
X153947809Y-77287476D01*
X154138285Y-77239857D01*
X154233523Y-77192238D01*
X154328761Y-77097000D01*
X154376380Y-76954142D01*
X154376380Y-76716047D01*
X153995428Y-77716047D02*
X153995428Y-78477952D01*
X154376380Y-78097000D02*
X153614476Y-78097000D01*
X151328380Y-76716047D02*
X150328380Y-76716047D01*
X150328380Y-76954142D01*
X150376000Y-77097000D01*
X150471238Y-77192238D01*
X150566476Y-77239857D01*
X150756952Y-77287476D01*
X150899809Y-77287476D01*
X151090285Y-77239857D01*
X151185523Y-77192238D01*
X151280761Y-77097000D01*
X151328380Y-76954142D01*
X151328380Y-76716047D01*
X150947428Y-77716047D02*
X150947428Y-78477952D01*
D12*
X144580000Y-105720000D02*
X145730000Y-107070000D01*
X157680000Y-105720000D02*
X156530000Y-107070000D01*
X156030000Y-98470000D02*
X154130000Y-98470000D01*
X146230000Y-98470000D02*
X148130000Y-98470000D01*
X146230000Y-98470000D02*
X144580000Y-100120000D01*
X157680000Y-100120000D02*
X156030000Y-98470000D01*
X148628306Y-107566458D02*
G75*
G02X145730000Y-107070000I-1098306J2296458D01*
G01*
X153634098Y-107567607D02*
G75*
G03X156530000Y-107070000I1095902J2297607D01*
G01*
D13*
X155618922Y-92635000D02*
X156136078Y-92635000D01*
X155618922Y-94055000D02*
X156136078Y-94055000D01*
X155618922Y-92150000D02*
X156136078Y-92150000D01*
X155618922Y-90730000D02*
X156136078Y-90730000D01*
X158793922Y-79450000D02*
X159311078Y-79450000D01*
X158793922Y-78030000D02*
X159311078Y-78030000D01*
X158823922Y-79935000D02*
X159341078Y-79935000D01*
X158823922Y-81355000D02*
X159341078Y-81355000D01*
X148546078Y-89460000D02*
X148028922Y-89460000D01*
X148546078Y-90880000D02*
X148028922Y-90880000D01*
X148546078Y-91365000D02*
X148028922Y-91365000D01*
X148546078Y-92785000D02*
X148028922Y-92785000D01*
X148516078Y-78815000D02*
X147998922Y-78815000D01*
X148516078Y-77395000D02*
X147998922Y-77395000D01*
X148546078Y-79300000D02*
X148028922Y-79300000D01*
X148546078Y-80720000D02*
X148028922Y-80720000D01*
X146045422Y-86562000D02*
X146562578Y-86562000D01*
X146045422Y-85142000D02*
X146562578Y-85142000D01*
X141040000Y-95320000D02*
X141340000Y-95020000D01*
X140740000Y-95020000D02*
X141340000Y-95020000D01*
X141040000Y-95320000D02*
X140740000Y-95020000D01*
X140190000Y-96220000D02*
X140190000Y-96820000D01*
X143640000Y-95520000D02*
X140840000Y-95520000D01*
X144290000Y-96820000D02*
X144290000Y-96220000D01*
X140840000Y-97520000D02*
X143640000Y-97520000D01*
X143590000Y-97520000D02*
G75*
G03X144290000Y-96820000I0J700000D01*
G01*
X144290000Y-96220000D02*
G75*
G03X143590000Y-95520000I-700000J0D01*
G01*
X140890000Y-95520000D02*
G75*
G03X140190000Y-96220000I0J-700000D01*
G01*
X140190000Y-96820000D02*
G75*
G03X140890000Y-97520000I700000J0D01*
G01*
X149876000Y-74245000D02*
X149876000Y-75645000D01*
X150576000Y-76345000D02*
X151176000Y-76345000D01*
X151876000Y-75645000D02*
X151876000Y-74245000D01*
X151176000Y-73545000D02*
X150576000Y-73545000D01*
X150576000Y-73545000D02*
G75*
G03X149876000Y-74245000I0J-700000D01*
G01*
X151876000Y-74245000D02*
G75*
G03X151176000Y-73545000I-700000J0D01*
G01*
X151176000Y-76345000D02*
G75*
G03X151876000Y-75645000I0J700000D01*
G01*
X149876000Y-75645000D02*
G75*
G03X150576000Y-76345000I700000J0D01*
G01*
X152924000Y-75645000D02*
G75*
G03X153624000Y-76345000I700000J0D01*
G01*
X154224000Y-76345000D02*
G75*
G03X154924000Y-75645000I0J700000D01*
G01*
X154924000Y-74245000D02*
G75*
G03X154224000Y-73545000I-700000J0D01*
G01*
X153624000Y-73545000D02*
G75*
G03X152924000Y-74245000I0J-700000D01*
G01*
X154224000Y-73545000D02*
X153624000Y-73545000D01*
X154924000Y-75645000D02*
X154924000Y-74245000D01*
X153624000Y-76345000D02*
X154224000Y-76345000D01*
X152924000Y-74245000D02*
X152924000Y-75645000D01*
X157410000Y-71855000D02*
X157710000Y-72155000D01*
X157710000Y-71555000D02*
X157710000Y-72155000D01*
X157410000Y-71855000D02*
X157710000Y-71555000D01*
X156510000Y-71005000D02*
X155910000Y-71005000D01*
X157210000Y-74455000D02*
X157210000Y-71655000D01*
X155910000Y-75105000D02*
X156510000Y-75105000D01*
X155210000Y-71655000D02*
X155210000Y-74455000D01*
X155210000Y-74405000D02*
G75*
G03X155910000Y-75105000I700000J0D01*
G01*
X156510000Y-75105000D02*
G75*
G03X157210000Y-74405000I0J700000D01*
G01*
X157210000Y-71705000D02*
G75*
G03X156510000Y-71005000I-700000J0D01*
G01*
X155910000Y-71005000D02*
G75*
G03X155210000Y-71705000I0J-700000D01*
G01*
D14*
X151915714Y-108005571D02*
X151772857Y-108053190D01*
X151725238Y-108100809D01*
X151677619Y-108196047D01*
X151677619Y-108338904D01*
X151725238Y-108434142D01*
X151772857Y-108481761D01*
X151868095Y-108529380D01*
X152249047Y-108529380D01*
X152249047Y-107529380D01*
X151915714Y-107529380D01*
X151820476Y-107577000D01*
X151772857Y-107624619D01*
X151725238Y-107719857D01*
X151725238Y-107815095D01*
X151772857Y-107910333D01*
X151820476Y-107957952D01*
X151915714Y-108005571D01*
X152249047Y-108005571D01*
X151391904Y-107529380D02*
X150820476Y-107529380D01*
X151106190Y-108529380D02*
X151106190Y-107529380D01*
X149963333Y-108529380D02*
X150534761Y-108529380D01*
X150249047Y-108529380D02*
X150249047Y-107529380D01*
X150344285Y-107672238D01*
X150439523Y-107767476D01*
X150534761Y-107815095D01*
X153550857Y-93702142D02*
X153598476Y-93749761D01*
X153741333Y-93797380D01*
X153836571Y-93797380D01*
X153979428Y-93749761D01*
X154074666Y-93654523D01*
X154122285Y-93559285D01*
X154169904Y-93368809D01*
X154169904Y-93225952D01*
X154122285Y-93035476D01*
X154074666Y-92940238D01*
X153979428Y-92845000D01*
X153836571Y-92797380D01*
X153741333Y-92797380D01*
X153598476Y-92845000D01*
X153550857Y-92892619D01*
X152598476Y-93797380D02*
X153169904Y-93797380D01*
X152884190Y-93797380D02*
X152884190Y-92797380D01*
X152979428Y-92940238D01*
X153074666Y-93035476D01*
X153169904Y-93083095D01*
X151693714Y-92797380D02*
X152169904Y-92797380D01*
X152217523Y-93273571D01*
X152169904Y-93225952D01*
X152074666Y-93178333D01*
X151836571Y-93178333D01*
X151741333Y-93225952D01*
X151693714Y-93273571D01*
X151646095Y-93368809D01*
X151646095Y-93606904D01*
X151693714Y-93702142D01*
X151741333Y-93749761D01*
X151836571Y-93797380D01*
X152074666Y-93797380D01*
X152169904Y-93749761D01*
X152217523Y-93702142D01*
X153550857Y-91797142D02*
X153598476Y-91844761D01*
X153741333Y-91892380D01*
X153836571Y-91892380D01*
X153979428Y-91844761D01*
X154074666Y-91749523D01*
X154122285Y-91654285D01*
X154169904Y-91463809D01*
X154169904Y-91320952D01*
X154122285Y-91130476D01*
X154074666Y-91035238D01*
X153979428Y-90940000D01*
X153836571Y-90892380D01*
X153741333Y-90892380D01*
X153598476Y-90940000D01*
X153550857Y-90987619D01*
X152598476Y-91892380D02*
X153169904Y-91892380D01*
X152884190Y-91892380D02*
X152884190Y-90892380D01*
X152979428Y-91035238D01*
X153074666Y-91130476D01*
X153169904Y-91178095D01*
X151741333Y-90892380D02*
X151931809Y-90892380D01*
X152027047Y-90940000D01*
X152074666Y-90987619D01*
X152169904Y-91130476D01*
X152217523Y-91320952D01*
X152217523Y-91701904D01*
X152169904Y-91797142D01*
X152122285Y-91844761D01*
X152027047Y-91892380D01*
X151836571Y-91892380D01*
X151741333Y-91844761D01*
X151693714Y-91797142D01*
X151646095Y-91701904D01*
X151646095Y-91463809D01*
X151693714Y-91368571D01*
X151741333Y-91320952D01*
X151836571Y-91273333D01*
X152027047Y-91273333D01*
X152122285Y-91320952D01*
X152169904Y-91368571D01*
X152217523Y-91463809D01*
X156725857Y-79097142D02*
X156773476Y-79144761D01*
X156916333Y-79192380D01*
X157011571Y-79192380D01*
X157154428Y-79144761D01*
X157249666Y-79049523D01*
X157297285Y-78954285D01*
X157344904Y-78763809D01*
X157344904Y-78620952D01*
X157297285Y-78430476D01*
X157249666Y-78335238D01*
X157154428Y-78240000D01*
X157011571Y-78192380D01*
X156916333Y-78192380D01*
X156773476Y-78240000D01*
X156725857Y-78287619D01*
X155773476Y-79192380D02*
X156344904Y-79192380D01*
X156059190Y-79192380D02*
X156059190Y-78192380D01*
X156154428Y-78335238D01*
X156249666Y-78430476D01*
X156344904Y-78478095D01*
X154821095Y-79192380D02*
X155392523Y-79192380D01*
X155106809Y-79192380D02*
X155106809Y-78192380D01*
X155202047Y-78335238D01*
X155297285Y-78430476D01*
X155392523Y-78478095D01*
X156725857Y-81002142D02*
X156773476Y-81049761D01*
X156916333Y-81097380D01*
X157011571Y-81097380D01*
X157154428Y-81049761D01*
X157249666Y-80954523D01*
X157297285Y-80859285D01*
X157344904Y-80668809D01*
X157344904Y-80525952D01*
X157297285Y-80335476D01*
X157249666Y-80240238D01*
X157154428Y-80145000D01*
X157011571Y-80097380D01*
X156916333Y-80097380D01*
X156773476Y-80145000D01*
X156725857Y-80192619D01*
X155773476Y-81097380D02*
X156344904Y-81097380D01*
X156059190Y-81097380D02*
X156059190Y-80097380D01*
X156154428Y-80240238D01*
X156249666Y-80335476D01*
X156344904Y-80383095D01*
X155392523Y-80192619D02*
X155344904Y-80145000D01*
X155249666Y-80097380D01*
X155011571Y-80097380D01*
X154916333Y-80145000D01*
X154868714Y-80192619D01*
X154821095Y-80287857D01*
X154821095Y-80383095D01*
X154868714Y-80525952D01*
X155440142Y-81097380D01*
X154821095Y-81097380D01*
X145930857Y-90527142D02*
X145978476Y-90574761D01*
X146121333Y-90622380D01*
X146216571Y-90622380D01*
X146359428Y-90574761D01*
X146454666Y-90479523D01*
X146502285Y-90384285D01*
X146549904Y-90193809D01*
X146549904Y-90050952D01*
X146502285Y-89860476D01*
X146454666Y-89765238D01*
X146359428Y-89670000D01*
X146216571Y-89622380D01*
X146121333Y-89622380D01*
X145978476Y-89670000D01*
X145930857Y-89717619D01*
X144978476Y-90622380D02*
X145549904Y-90622380D01*
X145264190Y-90622380D02*
X145264190Y-89622380D01*
X145359428Y-89765238D01*
X145454666Y-89860476D01*
X145549904Y-89908095D01*
X144645142Y-89622380D02*
X144026095Y-89622380D01*
X144359428Y-90003333D01*
X144216571Y-90003333D01*
X144121333Y-90050952D01*
X144073714Y-90098571D01*
X144026095Y-90193809D01*
X144026095Y-90431904D01*
X144073714Y-90527142D01*
X144121333Y-90574761D01*
X144216571Y-90622380D01*
X144502285Y-90622380D01*
X144597523Y-90574761D01*
X144645142Y-90527142D01*
X145962666Y-92432142D02*
X146010285Y-92479761D01*
X146153142Y-92527380D01*
X146248380Y-92527380D01*
X146391238Y-92479761D01*
X146486476Y-92384523D01*
X146534095Y-92289285D01*
X146581714Y-92098809D01*
X146581714Y-91955952D01*
X146534095Y-91765476D01*
X146486476Y-91670238D01*
X146391238Y-91575000D01*
X146248380Y-91527380D01*
X146153142Y-91527380D01*
X146010285Y-91575000D01*
X145962666Y-91622619D01*
X145391238Y-91955952D02*
X145486476Y-91908333D01*
X145534095Y-91860714D01*
X145581714Y-91765476D01*
X145581714Y-91717857D01*
X145534095Y-91622619D01*
X145486476Y-91575000D01*
X145391238Y-91527380D01*
X145200761Y-91527380D01*
X145105523Y-91575000D01*
X145057904Y-91622619D01*
X145010285Y-91717857D01*
X145010285Y-91765476D01*
X145057904Y-91860714D01*
X145105523Y-91908333D01*
X145200761Y-91955952D01*
X145391238Y-91955952D01*
X145486476Y-92003571D01*
X145534095Y-92051190D01*
X145581714Y-92146428D01*
X145581714Y-92336904D01*
X145534095Y-92432142D01*
X145486476Y-92479761D01*
X145391238Y-92527380D01*
X145200761Y-92527380D01*
X145105523Y-92479761D01*
X145057904Y-92432142D01*
X145010285Y-92336904D01*
X145010285Y-92146428D01*
X145057904Y-92051190D01*
X145105523Y-92003571D01*
X145200761Y-91955952D01*
X145962666Y-78462142D02*
X146010285Y-78509761D01*
X146153142Y-78557380D01*
X146248380Y-78557380D01*
X146391238Y-78509761D01*
X146486476Y-78414523D01*
X146534095Y-78319285D01*
X146581714Y-78128809D01*
X146581714Y-77985952D01*
X146534095Y-77795476D01*
X146486476Y-77700238D01*
X146391238Y-77605000D01*
X146248380Y-77557380D01*
X146153142Y-77557380D01*
X146010285Y-77605000D01*
X145962666Y-77652619D01*
X145486476Y-78557380D02*
X145296000Y-78557380D01*
X145200761Y-78509761D01*
X145153142Y-78462142D01*
X145057904Y-78319285D01*
X145010285Y-78128809D01*
X145010285Y-77747857D01*
X145057904Y-77652619D01*
X145105523Y-77605000D01*
X145200761Y-77557380D01*
X145391238Y-77557380D01*
X145486476Y-77605000D01*
X145534095Y-77652619D01*
X145581714Y-77747857D01*
X145581714Y-77985952D01*
X145534095Y-78081190D01*
X145486476Y-78128809D01*
X145391238Y-78176428D01*
X145200761Y-78176428D01*
X145105523Y-78128809D01*
X145057904Y-78081190D01*
X145010285Y-77985952D01*
X145930857Y-80367142D02*
X145978476Y-80414761D01*
X146121333Y-80462380D01*
X146216571Y-80462380D01*
X146359428Y-80414761D01*
X146454666Y-80319523D01*
X146502285Y-80224285D01*
X146549904Y-80033809D01*
X146549904Y-79890952D01*
X146502285Y-79700476D01*
X146454666Y-79605238D01*
X146359428Y-79510000D01*
X146216571Y-79462380D01*
X146121333Y-79462380D01*
X145978476Y-79510000D01*
X145930857Y-79557619D01*
X144978476Y-80462380D02*
X145549904Y-80462380D01*
X145264190Y-80462380D02*
X145264190Y-79462380D01*
X145359428Y-79605238D01*
X145454666Y-79700476D01*
X145549904Y-79748095D01*
X144359428Y-79462380D02*
X144264190Y-79462380D01*
X144168952Y-79510000D01*
X144121333Y-79557619D01*
X144073714Y-79652857D01*
X144026095Y-79843333D01*
X144026095Y-80081428D01*
X144073714Y-80271904D01*
X144121333Y-80367142D01*
X144168952Y-80414761D01*
X144264190Y-80462380D01*
X144359428Y-80462380D01*
X144454666Y-80414761D01*
X144502285Y-80367142D01*
X144549904Y-80271904D01*
X144597523Y-80081428D01*
X144597523Y-79843333D01*
X144549904Y-79652857D01*
X144502285Y-79557619D01*
X144454666Y-79510000D01*
X144359428Y-79462380D01*
X143930666Y-86304380D02*
X144264000Y-85828190D01*
X144502095Y-86304380D02*
X144502095Y-85304380D01*
X144121142Y-85304380D01*
X144025904Y-85352000D01*
X143978285Y-85399619D01*
X143930666Y-85494857D01*
X143930666Y-85637714D01*
X143978285Y-85732952D01*
X144025904Y-85780571D01*
X144121142Y-85828190D01*
X144502095Y-85828190D01*
X143549714Y-85399619D02*
X143502095Y-85352000D01*
X143406857Y-85304380D01*
X143168761Y-85304380D01*
X143073523Y-85352000D01*
X143025904Y-85399619D01*
X142978285Y-85494857D01*
X142978285Y-85590095D01*
X143025904Y-85732952D01*
X143597333Y-86304380D01*
X142978285Y-86304380D01*
X143073333Y-97772380D02*
X143073333Y-98486666D01*
X143120952Y-98629523D01*
X143216190Y-98724761D01*
X143359047Y-98772380D01*
X143454285Y-98772380D01*
X142597142Y-98772380D02*
X142597142Y-97772380D01*
X142216190Y-97772380D01*
X142120952Y-97820000D01*
X142073333Y-97867619D01*
X142025714Y-97962857D01*
X142025714Y-98105714D01*
X142073333Y-98200952D01*
X142120952Y-98248571D01*
X142216190Y-98296190D01*
X142597142Y-98296190D01*
X141168571Y-98105714D02*
X141168571Y-98772380D01*
X141406666Y-97724761D02*
X141644761Y-98439047D01*
X141025714Y-98439047D01*
X150328380Y-71175666D02*
X151042666Y-71175666D01*
X151185523Y-71128047D01*
X151280761Y-71032809D01*
X151328380Y-70889952D01*
X151328380Y-70794714D01*
X151328380Y-71651857D02*
X150328380Y-71651857D01*
X150328380Y-72032809D01*
X150376000Y-72128047D01*
X150423619Y-72175666D01*
X150518857Y-72223285D01*
X150661714Y-72223285D01*
X150756952Y-72175666D01*
X150804571Y-72128047D01*
X150852190Y-72032809D01*
X150852190Y-71651857D01*
X151328380Y-73175666D02*
X151328380Y-72604238D01*
X151328380Y-72889952D02*
X150328380Y-72889952D01*
X150471238Y-72794714D01*
X150566476Y-72699476D01*
X150614095Y-72604238D01*
X153122380Y-71175666D02*
X153836666Y-71175666D01*
X153979523Y-71128047D01*
X154074761Y-71032809D01*
X154122380Y-70889952D01*
X154122380Y-70794714D01*
X154122380Y-71651857D02*
X153122380Y-71651857D01*
X153122380Y-72032809D01*
X153170000Y-72128047D01*
X153217619Y-72175666D01*
X153312857Y-72223285D01*
X153455714Y-72223285D01*
X153550952Y-72175666D01*
X153598571Y-72128047D01*
X153646190Y-72032809D01*
X153646190Y-71651857D01*
X153217619Y-72604238D02*
X153170000Y-72651857D01*
X153122380Y-72747095D01*
X153122380Y-72985190D01*
X153170000Y-73080428D01*
X153217619Y-73128047D01*
X153312857Y-73175666D01*
X153408095Y-73175666D01*
X153550952Y-73128047D01*
X154122380Y-72556619D01*
X154122380Y-73175666D01*
X155662380Y-68381666D02*
X156376666Y-68381666D01*
X156519523Y-68334047D01*
X156614761Y-68238809D01*
X156662380Y-68095952D01*
X156662380Y-68000714D01*
X156662380Y-68857857D02*
X155662380Y-68857857D01*
X155662380Y-69238809D01*
X155710000Y-69334047D01*
X155757619Y-69381666D01*
X155852857Y-69429285D01*
X155995714Y-69429285D01*
X156090952Y-69381666D01*
X156138571Y-69334047D01*
X156186190Y-69238809D01*
X156186190Y-68857857D01*
X155662380Y-69762619D02*
X155662380Y-70381666D01*
X156043333Y-70048333D01*
X156043333Y-70191190D01*
X156090952Y-70286428D01*
X156138571Y-70334047D01*
X156233809Y-70381666D01*
X156471904Y-70381666D01*
X156567142Y-70334047D01*
X156614761Y-70286428D01*
X156662380Y-70191190D01*
X156662380Y-69905476D01*
X156614761Y-69810238D01*
X156567142Y-69762619D01*
M02*
