G04 #@! TF.GenerationSoftware,KiCad,Pcbnew,5.1.4*
G04 #@! TF.CreationDate,2019-11-03T23:23:53+01:00*
G04 #@! TF.ProjectId,stm32XxxxCx_board,73746d33-3258-4787-9878-43785f626f61,rev?*
G04 #@! TF.SameCoordinates,Original*
G04 #@! TF.FileFunction,Soldermask,Top*
G04 #@! TF.FilePolarity,Negative*
%FSLAX46Y46*%
G04 Gerber Fmt 4.6, Leading zero omitted, Abs format (unit mm)*
G04 Created by KiCad (PCBNEW 5.1.4) date 2019-11-03 23:23:53*
%MOMM*%
%LPD*%
G04 APERTURE LIST*
%ADD10C,0.100000*%
G04 APERTURE END LIST*
D10*
G36*
X167864549Y-105551116D02*
G01*
X167975734Y-105573232D01*
X168185203Y-105659997D01*
X168373720Y-105785960D01*
X168534040Y-105946280D01*
X168660003Y-106134797D01*
X168746768Y-106344266D01*
X168791000Y-106566636D01*
X168791000Y-106793364D01*
X168746768Y-107015734D01*
X168660003Y-107225203D01*
X168534040Y-107413720D01*
X168373720Y-107574040D01*
X168185203Y-107700003D01*
X167975734Y-107786768D01*
X167864549Y-107808884D01*
X167753365Y-107831000D01*
X167526635Y-107831000D01*
X167415451Y-107808884D01*
X167304266Y-107786768D01*
X167094797Y-107700003D01*
X166906280Y-107574040D01*
X166745960Y-107413720D01*
X166619997Y-107225203D01*
X166533232Y-107015734D01*
X166489000Y-106793364D01*
X166489000Y-106566636D01*
X166533232Y-106344266D01*
X166619997Y-106134797D01*
X166745960Y-105946280D01*
X166906280Y-105785960D01*
X167094797Y-105659997D01*
X167304266Y-105573232D01*
X167415451Y-105551116D01*
X167526635Y-105529000D01*
X167753365Y-105529000D01*
X167864549Y-105551116D01*
X167864549Y-105551116D01*
G37*
G36*
X134844549Y-105551116D02*
G01*
X134955734Y-105573232D01*
X135165203Y-105659997D01*
X135353720Y-105785960D01*
X135514040Y-105946280D01*
X135640003Y-106134797D01*
X135726768Y-106344266D01*
X135771000Y-106566636D01*
X135771000Y-106793364D01*
X135726768Y-107015734D01*
X135640003Y-107225203D01*
X135514040Y-107413720D01*
X135353720Y-107574040D01*
X135165203Y-107700003D01*
X134955734Y-107786768D01*
X134844549Y-107808884D01*
X134733365Y-107831000D01*
X134506635Y-107831000D01*
X134395451Y-107808884D01*
X134284266Y-107786768D01*
X134074797Y-107700003D01*
X133886280Y-107574040D01*
X133725960Y-107413720D01*
X133599997Y-107225203D01*
X133513232Y-107015734D01*
X133469000Y-106793364D01*
X133469000Y-106566636D01*
X133513232Y-106344266D01*
X133599997Y-106134797D01*
X133725960Y-105946280D01*
X133886280Y-105785960D01*
X134074797Y-105659997D01*
X134284266Y-105573232D01*
X134395451Y-105551116D01*
X134506635Y-105529000D01*
X134733365Y-105529000D01*
X134844549Y-105551116D01*
X134844549Y-105551116D01*
G37*
G36*
X165210443Y-103245519D02*
G01*
X165276627Y-103252037D01*
X165446466Y-103303557D01*
X165602991Y-103387222D01*
X165638729Y-103416552D01*
X165740186Y-103499814D01*
X165823448Y-103601271D01*
X165852778Y-103637009D01*
X165936443Y-103793534D01*
X165987963Y-103963373D01*
X166005359Y-104140000D01*
X165987963Y-104316627D01*
X165936443Y-104486466D01*
X165852778Y-104642991D01*
X165823448Y-104678729D01*
X165740186Y-104780186D01*
X165638729Y-104863448D01*
X165602991Y-104892778D01*
X165446466Y-104976443D01*
X165276627Y-105027963D01*
X165210442Y-105034482D01*
X165144260Y-105041000D01*
X165055740Y-105041000D01*
X164989557Y-105034481D01*
X164923373Y-105027963D01*
X164753534Y-104976443D01*
X164597009Y-104892778D01*
X164561271Y-104863448D01*
X164459814Y-104780186D01*
X164376552Y-104678729D01*
X164347222Y-104642991D01*
X164263557Y-104486466D01*
X164212037Y-104316627D01*
X164194641Y-104140000D01*
X164212037Y-103963373D01*
X164263557Y-103793534D01*
X164347222Y-103637009D01*
X164376552Y-103601271D01*
X164459814Y-103499814D01*
X164561271Y-103416552D01*
X164597009Y-103387222D01*
X164753534Y-103303557D01*
X164923373Y-103252037D01*
X164989558Y-103245518D01*
X165055740Y-103239000D01*
X165144260Y-103239000D01*
X165210443Y-103245519D01*
X165210443Y-103245519D01*
G37*
G36*
X137270443Y-103245519D02*
G01*
X137336627Y-103252037D01*
X137506466Y-103303557D01*
X137662991Y-103387222D01*
X137698729Y-103416552D01*
X137800186Y-103499814D01*
X137883448Y-103601271D01*
X137912778Y-103637009D01*
X137996443Y-103793534D01*
X138047963Y-103963373D01*
X138065359Y-104140000D01*
X138047963Y-104316627D01*
X137996443Y-104486466D01*
X137912778Y-104642991D01*
X137883448Y-104678729D01*
X137800186Y-104780186D01*
X137698729Y-104863448D01*
X137662991Y-104892778D01*
X137506466Y-104976443D01*
X137336627Y-105027963D01*
X137270442Y-105034482D01*
X137204260Y-105041000D01*
X137115740Y-105041000D01*
X137049557Y-105034481D01*
X136983373Y-105027963D01*
X136813534Y-104976443D01*
X136657009Y-104892778D01*
X136621271Y-104863448D01*
X136519814Y-104780186D01*
X136436552Y-104678729D01*
X136407222Y-104642991D01*
X136323557Y-104486466D01*
X136272037Y-104316627D01*
X136254641Y-104140000D01*
X136272037Y-103963373D01*
X136323557Y-103793534D01*
X136407222Y-103637009D01*
X136436552Y-103601271D01*
X136519814Y-103499814D01*
X136621271Y-103416552D01*
X136657009Y-103387222D01*
X136813534Y-103303557D01*
X136983373Y-103252037D01*
X137049558Y-103245518D01*
X137115740Y-103239000D01*
X137204260Y-103239000D01*
X137270443Y-103245519D01*
X137270443Y-103245519D01*
G37*
G36*
X165210443Y-100705519D02*
G01*
X165276627Y-100712037D01*
X165446466Y-100763557D01*
X165602991Y-100847222D01*
X165638729Y-100876552D01*
X165740186Y-100959814D01*
X165823448Y-101061271D01*
X165852778Y-101097009D01*
X165936443Y-101253534D01*
X165987963Y-101423373D01*
X166005359Y-101600000D01*
X165987963Y-101776627D01*
X165936443Y-101946466D01*
X165852778Y-102102991D01*
X165823448Y-102138729D01*
X165740186Y-102240186D01*
X165638729Y-102323448D01*
X165602991Y-102352778D01*
X165446466Y-102436443D01*
X165276627Y-102487963D01*
X165210442Y-102494482D01*
X165144260Y-102501000D01*
X165055740Y-102501000D01*
X164989558Y-102494482D01*
X164923373Y-102487963D01*
X164753534Y-102436443D01*
X164597009Y-102352778D01*
X164561271Y-102323448D01*
X164459814Y-102240186D01*
X164376552Y-102138729D01*
X164347222Y-102102991D01*
X164263557Y-101946466D01*
X164212037Y-101776627D01*
X164194641Y-101600000D01*
X164212037Y-101423373D01*
X164263557Y-101253534D01*
X164347222Y-101097009D01*
X164376552Y-101061271D01*
X164459814Y-100959814D01*
X164561271Y-100876552D01*
X164597009Y-100847222D01*
X164753534Y-100763557D01*
X164923373Y-100712037D01*
X164989557Y-100705519D01*
X165055740Y-100699000D01*
X165144260Y-100699000D01*
X165210443Y-100705519D01*
X165210443Y-100705519D01*
G37*
G36*
X137270443Y-100705519D02*
G01*
X137336627Y-100712037D01*
X137506466Y-100763557D01*
X137662991Y-100847222D01*
X137698729Y-100876552D01*
X137800186Y-100959814D01*
X137883448Y-101061271D01*
X137912778Y-101097009D01*
X137996443Y-101253534D01*
X138047963Y-101423373D01*
X138065359Y-101600000D01*
X138047963Y-101776627D01*
X137996443Y-101946466D01*
X137912778Y-102102991D01*
X137883448Y-102138729D01*
X137800186Y-102240186D01*
X137698729Y-102323448D01*
X137662991Y-102352778D01*
X137506466Y-102436443D01*
X137336627Y-102487963D01*
X137270442Y-102494482D01*
X137204260Y-102501000D01*
X137115740Y-102501000D01*
X137049558Y-102494482D01*
X136983373Y-102487963D01*
X136813534Y-102436443D01*
X136657009Y-102352778D01*
X136621271Y-102323448D01*
X136519814Y-102240186D01*
X136436552Y-102138729D01*
X136407222Y-102102991D01*
X136323557Y-101946466D01*
X136272037Y-101776627D01*
X136254641Y-101600000D01*
X136272037Y-101423373D01*
X136323557Y-101253534D01*
X136407222Y-101097009D01*
X136436552Y-101061271D01*
X136519814Y-100959814D01*
X136621271Y-100876552D01*
X136657009Y-100847222D01*
X136813534Y-100763557D01*
X136983373Y-100712037D01*
X137049557Y-100705519D01*
X137115740Y-100699000D01*
X137204260Y-100699000D01*
X137270443Y-100705519D01*
X137270443Y-100705519D01*
G37*
G36*
X165210443Y-98165519D02*
G01*
X165276627Y-98172037D01*
X165446466Y-98223557D01*
X165602991Y-98307222D01*
X165638729Y-98336552D01*
X165740186Y-98419814D01*
X165823448Y-98521271D01*
X165852778Y-98557009D01*
X165936443Y-98713534D01*
X165987963Y-98883373D01*
X166005359Y-99060000D01*
X165987963Y-99236627D01*
X165936443Y-99406466D01*
X165852778Y-99562991D01*
X165823448Y-99598729D01*
X165740186Y-99700186D01*
X165638729Y-99783448D01*
X165602991Y-99812778D01*
X165446466Y-99896443D01*
X165276627Y-99947963D01*
X165210443Y-99954481D01*
X165144260Y-99961000D01*
X165055740Y-99961000D01*
X164989557Y-99954481D01*
X164923373Y-99947963D01*
X164753534Y-99896443D01*
X164597009Y-99812778D01*
X164561271Y-99783448D01*
X164459814Y-99700186D01*
X164376552Y-99598729D01*
X164347222Y-99562991D01*
X164263557Y-99406466D01*
X164212037Y-99236627D01*
X164194641Y-99060000D01*
X164212037Y-98883373D01*
X164263557Y-98713534D01*
X164347222Y-98557009D01*
X164376552Y-98521271D01*
X164459814Y-98419814D01*
X164561271Y-98336552D01*
X164597009Y-98307222D01*
X164753534Y-98223557D01*
X164923373Y-98172037D01*
X164989557Y-98165519D01*
X165055740Y-98159000D01*
X165144260Y-98159000D01*
X165210443Y-98165519D01*
X165210443Y-98165519D01*
G37*
G36*
X137270443Y-98165519D02*
G01*
X137336627Y-98172037D01*
X137506466Y-98223557D01*
X137662991Y-98307222D01*
X137698729Y-98336552D01*
X137800186Y-98419814D01*
X137883448Y-98521271D01*
X137912778Y-98557009D01*
X137996443Y-98713534D01*
X138047963Y-98883373D01*
X138065359Y-99060000D01*
X138047963Y-99236627D01*
X137996443Y-99406466D01*
X137912778Y-99562991D01*
X137883448Y-99598729D01*
X137800186Y-99700186D01*
X137698729Y-99783448D01*
X137662991Y-99812778D01*
X137506466Y-99896443D01*
X137336627Y-99947963D01*
X137270443Y-99954481D01*
X137204260Y-99961000D01*
X137115740Y-99961000D01*
X137049557Y-99954481D01*
X136983373Y-99947963D01*
X136813534Y-99896443D01*
X136657009Y-99812778D01*
X136621271Y-99783448D01*
X136519814Y-99700186D01*
X136436552Y-99598729D01*
X136407222Y-99562991D01*
X136323557Y-99406466D01*
X136272037Y-99236627D01*
X136254641Y-99060000D01*
X136272037Y-98883373D01*
X136323557Y-98713534D01*
X136407222Y-98557009D01*
X136436552Y-98521271D01*
X136519814Y-98419814D01*
X136621271Y-98336552D01*
X136657009Y-98307222D01*
X136813534Y-98223557D01*
X136983373Y-98172037D01*
X137049557Y-98165519D01*
X137115740Y-98159000D01*
X137204260Y-98159000D01*
X137270443Y-98165519D01*
X137270443Y-98165519D01*
G37*
G36*
X159726968Y-96408565D02*
G01*
X159765638Y-96420296D01*
X159801277Y-96439346D01*
X159832517Y-96464983D01*
X159858154Y-96496223D01*
X159877204Y-96531862D01*
X159888935Y-96570532D01*
X159893500Y-96616888D01*
X159893500Y-97693112D01*
X159888935Y-97739468D01*
X159877204Y-97778138D01*
X159858154Y-97813777D01*
X159832517Y-97845017D01*
X159801277Y-97870654D01*
X159765638Y-97889704D01*
X159726968Y-97901435D01*
X159680612Y-97906000D01*
X159029388Y-97906000D01*
X158983032Y-97901435D01*
X158944362Y-97889704D01*
X158908723Y-97870654D01*
X158877483Y-97845017D01*
X158851846Y-97813777D01*
X158832796Y-97778138D01*
X158821065Y-97739468D01*
X158816500Y-97693112D01*
X158816500Y-96616888D01*
X158821065Y-96570532D01*
X158832796Y-96531862D01*
X158851846Y-96496223D01*
X158877483Y-96464983D01*
X158908723Y-96439346D01*
X158944362Y-96420296D01*
X158983032Y-96408565D01*
X159029388Y-96404000D01*
X159680612Y-96404000D01*
X159726968Y-96408565D01*
X159726968Y-96408565D01*
G37*
G36*
X155154968Y-96408565D02*
G01*
X155193638Y-96420296D01*
X155229277Y-96439346D01*
X155260517Y-96464983D01*
X155286154Y-96496223D01*
X155305204Y-96531862D01*
X155316935Y-96570532D01*
X155321500Y-96616888D01*
X155321500Y-97693112D01*
X155316935Y-97739468D01*
X155305204Y-97778138D01*
X155286154Y-97813777D01*
X155260517Y-97845017D01*
X155229277Y-97870654D01*
X155193638Y-97889704D01*
X155154968Y-97901435D01*
X155108612Y-97906000D01*
X154457388Y-97906000D01*
X154411032Y-97901435D01*
X154372362Y-97889704D01*
X154336723Y-97870654D01*
X154305483Y-97845017D01*
X154279846Y-97813777D01*
X154260796Y-97778138D01*
X154249065Y-97739468D01*
X154244500Y-97693112D01*
X154244500Y-96616888D01*
X154249065Y-96570532D01*
X154260796Y-96531862D01*
X154279846Y-96496223D01*
X154305483Y-96464983D01*
X154336723Y-96439346D01*
X154372362Y-96420296D01*
X154411032Y-96408565D01*
X154457388Y-96404000D01*
X155108612Y-96404000D01*
X155154968Y-96408565D01*
X155154968Y-96408565D01*
G37*
G36*
X153279968Y-96408565D02*
G01*
X153318638Y-96420296D01*
X153354277Y-96439346D01*
X153385517Y-96464983D01*
X153411154Y-96496223D01*
X153430204Y-96531862D01*
X153441935Y-96570532D01*
X153446500Y-96616888D01*
X153446500Y-97693112D01*
X153441935Y-97739468D01*
X153430204Y-97778138D01*
X153411154Y-97813777D01*
X153385517Y-97845017D01*
X153354277Y-97870654D01*
X153318638Y-97889704D01*
X153279968Y-97901435D01*
X153233612Y-97906000D01*
X152582388Y-97906000D01*
X152536032Y-97901435D01*
X152497362Y-97889704D01*
X152461723Y-97870654D01*
X152430483Y-97845017D01*
X152404846Y-97813777D01*
X152385796Y-97778138D01*
X152374065Y-97739468D01*
X152369500Y-97693112D01*
X152369500Y-96616888D01*
X152374065Y-96570532D01*
X152385796Y-96531862D01*
X152404846Y-96496223D01*
X152430483Y-96464983D01*
X152461723Y-96439346D01*
X152497362Y-96420296D01*
X152536032Y-96408565D01*
X152582388Y-96404000D01*
X153233612Y-96404000D01*
X153279968Y-96408565D01*
X153279968Y-96408565D01*
G37*
G36*
X157851968Y-96408565D02*
G01*
X157890638Y-96420296D01*
X157926277Y-96439346D01*
X157957517Y-96464983D01*
X157983154Y-96496223D01*
X158002204Y-96531862D01*
X158013935Y-96570532D01*
X158018500Y-96616888D01*
X158018500Y-97693112D01*
X158013935Y-97739468D01*
X158002204Y-97778138D01*
X157983154Y-97813777D01*
X157957517Y-97845017D01*
X157926277Y-97870654D01*
X157890638Y-97889704D01*
X157851968Y-97901435D01*
X157805612Y-97906000D01*
X157154388Y-97906000D01*
X157108032Y-97901435D01*
X157069362Y-97889704D01*
X157033723Y-97870654D01*
X157002483Y-97845017D01*
X156976846Y-97813777D01*
X156957796Y-97778138D01*
X156946065Y-97739468D01*
X156941500Y-97693112D01*
X156941500Y-96616888D01*
X156946065Y-96570532D01*
X156957796Y-96531862D01*
X156976846Y-96496223D01*
X157002483Y-96464983D01*
X157033723Y-96439346D01*
X157069362Y-96420296D01*
X157108032Y-96408565D01*
X157154388Y-96404000D01*
X157805612Y-96404000D01*
X157851968Y-96408565D01*
X157851968Y-96408565D01*
G37*
G36*
X165210442Y-95625518D02*
G01*
X165276627Y-95632037D01*
X165446466Y-95683557D01*
X165602991Y-95767222D01*
X165638729Y-95796552D01*
X165740186Y-95879814D01*
X165803262Y-95956674D01*
X165852778Y-96017009D01*
X165936443Y-96173534D01*
X165987963Y-96343373D01*
X166005359Y-96520000D01*
X165987963Y-96696627D01*
X165936443Y-96866466D01*
X165852778Y-97022991D01*
X165823448Y-97058729D01*
X165740186Y-97160186D01*
X165638729Y-97243448D01*
X165602991Y-97272778D01*
X165446466Y-97356443D01*
X165276627Y-97407963D01*
X165210442Y-97414482D01*
X165144260Y-97421000D01*
X165055740Y-97421000D01*
X164989558Y-97414482D01*
X164923373Y-97407963D01*
X164753534Y-97356443D01*
X164597009Y-97272778D01*
X164561271Y-97243448D01*
X164459814Y-97160186D01*
X164376552Y-97058729D01*
X164347222Y-97022991D01*
X164263557Y-96866466D01*
X164212037Y-96696627D01*
X164194641Y-96520000D01*
X164212037Y-96343373D01*
X164263557Y-96173534D01*
X164347222Y-96017009D01*
X164396738Y-95956674D01*
X164459814Y-95879814D01*
X164561271Y-95796552D01*
X164597009Y-95767222D01*
X164753534Y-95683557D01*
X164923373Y-95632037D01*
X164989558Y-95625518D01*
X165055740Y-95619000D01*
X165144260Y-95619000D01*
X165210442Y-95625518D01*
X165210442Y-95625518D01*
G37*
G36*
X137270442Y-95625518D02*
G01*
X137336627Y-95632037D01*
X137506466Y-95683557D01*
X137662991Y-95767222D01*
X137698729Y-95796552D01*
X137800186Y-95879814D01*
X137863262Y-95956674D01*
X137912778Y-96017009D01*
X137996443Y-96173534D01*
X138047963Y-96343373D01*
X138065359Y-96520000D01*
X138047963Y-96696627D01*
X137996443Y-96866466D01*
X137912778Y-97022991D01*
X137883448Y-97058729D01*
X137800186Y-97160186D01*
X137698729Y-97243448D01*
X137662991Y-97272778D01*
X137506466Y-97356443D01*
X137336627Y-97407963D01*
X137270442Y-97414482D01*
X137204260Y-97421000D01*
X137115740Y-97421000D01*
X137049558Y-97414482D01*
X136983373Y-97407963D01*
X136813534Y-97356443D01*
X136657009Y-97272778D01*
X136621271Y-97243448D01*
X136519814Y-97160186D01*
X136436552Y-97058729D01*
X136407222Y-97022991D01*
X136323557Y-96866466D01*
X136272037Y-96696627D01*
X136254641Y-96520000D01*
X136272037Y-96343373D01*
X136323557Y-96173534D01*
X136407222Y-96017009D01*
X136456738Y-95956674D01*
X136519814Y-95879814D01*
X136621271Y-95796552D01*
X136657009Y-95767222D01*
X136813534Y-95683557D01*
X136983373Y-95632037D01*
X137049558Y-95625518D01*
X137115740Y-95619000D01*
X137204260Y-95619000D01*
X137270442Y-95625518D01*
X137270442Y-95625518D01*
G37*
G36*
X147904468Y-95956065D02*
G01*
X147943138Y-95967796D01*
X147978777Y-95986846D01*
X148010017Y-96012483D01*
X148035654Y-96043723D01*
X148054704Y-96079362D01*
X148066435Y-96118032D01*
X148071000Y-96164388D01*
X148071000Y-96815612D01*
X148066435Y-96861968D01*
X148054704Y-96900638D01*
X148035654Y-96936277D01*
X148010017Y-96967517D01*
X147978777Y-96993154D01*
X147943138Y-97012204D01*
X147904468Y-97023935D01*
X147858112Y-97028500D01*
X146781888Y-97028500D01*
X146735532Y-97023935D01*
X146696862Y-97012204D01*
X146661223Y-96993154D01*
X146629983Y-96967517D01*
X146604346Y-96936277D01*
X146585296Y-96900638D01*
X146573565Y-96861968D01*
X146569000Y-96815612D01*
X146569000Y-96164388D01*
X146573565Y-96118032D01*
X146585296Y-96079362D01*
X146604346Y-96043723D01*
X146629983Y-96012483D01*
X146661223Y-95986846D01*
X146696862Y-95967796D01*
X146735532Y-95956065D01*
X146781888Y-95951500D01*
X147858112Y-95951500D01*
X147904468Y-95956065D01*
X147904468Y-95956065D01*
G37*
G36*
X150444468Y-95956065D02*
G01*
X150483138Y-95967796D01*
X150518777Y-95986846D01*
X150550017Y-96012483D01*
X150575654Y-96043723D01*
X150594704Y-96079362D01*
X150606435Y-96118032D01*
X150611000Y-96164388D01*
X150611000Y-96815612D01*
X150606435Y-96861968D01*
X150594704Y-96900638D01*
X150575654Y-96936277D01*
X150550017Y-96967517D01*
X150518777Y-96993154D01*
X150483138Y-97012204D01*
X150444468Y-97023935D01*
X150398112Y-97028500D01*
X149321888Y-97028500D01*
X149275532Y-97023935D01*
X149236862Y-97012204D01*
X149201223Y-96993154D01*
X149169983Y-96967517D01*
X149144346Y-96936277D01*
X149125296Y-96900638D01*
X149113565Y-96861968D01*
X149109000Y-96815612D01*
X149109000Y-96164388D01*
X149113565Y-96118032D01*
X149125296Y-96079362D01*
X149144346Y-96043723D01*
X149169983Y-96012483D01*
X149201223Y-95986846D01*
X149236862Y-95967796D01*
X149275532Y-95956065D01*
X149321888Y-95951500D01*
X150398112Y-95951500D01*
X150444468Y-95956065D01*
X150444468Y-95956065D01*
G37*
G36*
X155351000Y-95231000D02*
G01*
X153249000Y-95231000D01*
X153249000Y-92729000D01*
X155351000Y-92729000D01*
X155351000Y-95231000D01*
X155351000Y-95231000D01*
G37*
G36*
X159051000Y-95231000D02*
G01*
X156949000Y-95231000D01*
X156949000Y-92729000D01*
X159051000Y-92729000D01*
X159051000Y-95231000D01*
X159051000Y-95231000D01*
G37*
G36*
X150444468Y-94081065D02*
G01*
X150483138Y-94092796D01*
X150518777Y-94111846D01*
X150550017Y-94137483D01*
X150575654Y-94168723D01*
X150594704Y-94204362D01*
X150606435Y-94243032D01*
X150611000Y-94289388D01*
X150611000Y-94940612D01*
X150606435Y-94986968D01*
X150594704Y-95025638D01*
X150575654Y-95061277D01*
X150550017Y-95092517D01*
X150518777Y-95118154D01*
X150483138Y-95137204D01*
X150444468Y-95148935D01*
X150398112Y-95153500D01*
X149321888Y-95153500D01*
X149275532Y-95148935D01*
X149236862Y-95137204D01*
X149201223Y-95118154D01*
X149169983Y-95092517D01*
X149144346Y-95061277D01*
X149125296Y-95025638D01*
X149113565Y-94986968D01*
X149109000Y-94940612D01*
X149109000Y-94289388D01*
X149113565Y-94243032D01*
X149125296Y-94204362D01*
X149144346Y-94168723D01*
X149169983Y-94137483D01*
X149201223Y-94111846D01*
X149236862Y-94092796D01*
X149275532Y-94081065D01*
X149321888Y-94076500D01*
X150398112Y-94076500D01*
X150444468Y-94081065D01*
X150444468Y-94081065D01*
G37*
G36*
X147904468Y-94081065D02*
G01*
X147943138Y-94092796D01*
X147978777Y-94111846D01*
X148010017Y-94137483D01*
X148035654Y-94168723D01*
X148054704Y-94204362D01*
X148066435Y-94243032D01*
X148071000Y-94289388D01*
X148071000Y-94940612D01*
X148066435Y-94986968D01*
X148054704Y-95025638D01*
X148035654Y-95061277D01*
X148010017Y-95092517D01*
X147978777Y-95118154D01*
X147943138Y-95137204D01*
X147904468Y-95148935D01*
X147858112Y-95153500D01*
X146781888Y-95153500D01*
X146735532Y-95148935D01*
X146696862Y-95137204D01*
X146661223Y-95118154D01*
X146629983Y-95092517D01*
X146604346Y-95061277D01*
X146585296Y-95025638D01*
X146573565Y-94986968D01*
X146569000Y-94940612D01*
X146569000Y-94289388D01*
X146573565Y-94243032D01*
X146585296Y-94204362D01*
X146604346Y-94168723D01*
X146629983Y-94137483D01*
X146661223Y-94111846D01*
X146696862Y-94092796D01*
X146735532Y-94081065D01*
X146781888Y-94076500D01*
X147858112Y-94076500D01*
X147904468Y-94081065D01*
X147904468Y-94081065D01*
G37*
G36*
X165210443Y-93085519D02*
G01*
X165276627Y-93092037D01*
X165446466Y-93143557D01*
X165602991Y-93227222D01*
X165638729Y-93256552D01*
X165740186Y-93339814D01*
X165823448Y-93441271D01*
X165852778Y-93477009D01*
X165936443Y-93633534D01*
X165987963Y-93803373D01*
X166005359Y-93980000D01*
X165987963Y-94156627D01*
X165936443Y-94326466D01*
X165852778Y-94482991D01*
X165823448Y-94518729D01*
X165740186Y-94620186D01*
X165638729Y-94703448D01*
X165602991Y-94732778D01*
X165446466Y-94816443D01*
X165276627Y-94867963D01*
X165210443Y-94874481D01*
X165144260Y-94881000D01*
X165055740Y-94881000D01*
X164989557Y-94874481D01*
X164923373Y-94867963D01*
X164753534Y-94816443D01*
X164597009Y-94732778D01*
X164561271Y-94703448D01*
X164459814Y-94620186D01*
X164376552Y-94518729D01*
X164347222Y-94482991D01*
X164263557Y-94326466D01*
X164212037Y-94156627D01*
X164194641Y-93980000D01*
X164212037Y-93803373D01*
X164263557Y-93633534D01*
X164347222Y-93477009D01*
X164376552Y-93441271D01*
X164459814Y-93339814D01*
X164561271Y-93256552D01*
X164597009Y-93227222D01*
X164753534Y-93143557D01*
X164923373Y-93092037D01*
X164989557Y-93085519D01*
X165055740Y-93079000D01*
X165144260Y-93079000D01*
X165210443Y-93085519D01*
X165210443Y-93085519D01*
G37*
G36*
X137270443Y-93085519D02*
G01*
X137336627Y-93092037D01*
X137506466Y-93143557D01*
X137662991Y-93227222D01*
X137698729Y-93256552D01*
X137800186Y-93339814D01*
X137883448Y-93441271D01*
X137912778Y-93477009D01*
X137996443Y-93633534D01*
X138047963Y-93803373D01*
X138065359Y-93980000D01*
X138047963Y-94156627D01*
X137996443Y-94326466D01*
X137912778Y-94482991D01*
X137883448Y-94518729D01*
X137800186Y-94620186D01*
X137698729Y-94703448D01*
X137662991Y-94732778D01*
X137506466Y-94816443D01*
X137336627Y-94867963D01*
X137270443Y-94874481D01*
X137204260Y-94881000D01*
X137115740Y-94881000D01*
X137049557Y-94874481D01*
X136983373Y-94867963D01*
X136813534Y-94816443D01*
X136657009Y-94732778D01*
X136621271Y-94703448D01*
X136519814Y-94620186D01*
X136436552Y-94518729D01*
X136407222Y-94482991D01*
X136323557Y-94326466D01*
X136272037Y-94156627D01*
X136254641Y-93980000D01*
X136272037Y-93803373D01*
X136323557Y-93633534D01*
X136407222Y-93477009D01*
X136436552Y-93441271D01*
X136519814Y-93339814D01*
X136621271Y-93256552D01*
X136657009Y-93227222D01*
X136813534Y-93143557D01*
X136983373Y-93092037D01*
X137049557Y-93085519D01*
X137115740Y-93079000D01*
X137204260Y-93079000D01*
X137270443Y-93085519D01*
X137270443Y-93085519D01*
G37*
G36*
X150391000Y-93026000D02*
G01*
X149289000Y-93026000D01*
X149289000Y-91124000D01*
X150391000Y-91124000D01*
X150391000Y-93026000D01*
X150391000Y-93026000D01*
G37*
G36*
X147891000Y-93026000D02*
G01*
X146789000Y-93026000D01*
X146789000Y-91124000D01*
X147891000Y-91124000D01*
X147891000Y-93026000D01*
X147891000Y-93026000D01*
G37*
G36*
X137270443Y-90545519D02*
G01*
X137336627Y-90552037D01*
X137506466Y-90603557D01*
X137662991Y-90687222D01*
X137698729Y-90716552D01*
X137800186Y-90799814D01*
X137883448Y-90901271D01*
X137912778Y-90937009D01*
X137996443Y-91093534D01*
X138047963Y-91263373D01*
X138065359Y-91440000D01*
X138047963Y-91616627D01*
X137996443Y-91786466D01*
X137912778Y-91942991D01*
X137883448Y-91978729D01*
X137800186Y-92080186D01*
X137698729Y-92163448D01*
X137662991Y-92192778D01*
X137506466Y-92276443D01*
X137336627Y-92327963D01*
X137270443Y-92334481D01*
X137204260Y-92341000D01*
X137115740Y-92341000D01*
X137049557Y-92334481D01*
X136983373Y-92327963D01*
X136813534Y-92276443D01*
X136657009Y-92192778D01*
X136621271Y-92163448D01*
X136519814Y-92080186D01*
X136436552Y-91978729D01*
X136407222Y-91942991D01*
X136323557Y-91786466D01*
X136272037Y-91616627D01*
X136254641Y-91440000D01*
X136272037Y-91263373D01*
X136323557Y-91093534D01*
X136407222Y-90937009D01*
X136436552Y-90901271D01*
X136519814Y-90799814D01*
X136621271Y-90716552D01*
X136657009Y-90687222D01*
X136813534Y-90603557D01*
X136983373Y-90552037D01*
X137049557Y-90545519D01*
X137115740Y-90539000D01*
X137204260Y-90539000D01*
X137270443Y-90545519D01*
X137270443Y-90545519D01*
G37*
G36*
X165210443Y-90545519D02*
G01*
X165276627Y-90552037D01*
X165446466Y-90603557D01*
X165602991Y-90687222D01*
X165638729Y-90716552D01*
X165740186Y-90799814D01*
X165823448Y-90901271D01*
X165852778Y-90937009D01*
X165936443Y-91093534D01*
X165987963Y-91263373D01*
X166005359Y-91440000D01*
X165987963Y-91616627D01*
X165936443Y-91786466D01*
X165852778Y-91942991D01*
X165823448Y-91978729D01*
X165740186Y-92080186D01*
X165638729Y-92163448D01*
X165602991Y-92192778D01*
X165446466Y-92276443D01*
X165276627Y-92327963D01*
X165210443Y-92334481D01*
X165144260Y-92341000D01*
X165055740Y-92341000D01*
X164989557Y-92334481D01*
X164923373Y-92327963D01*
X164753534Y-92276443D01*
X164597009Y-92192778D01*
X164561271Y-92163448D01*
X164459814Y-92080186D01*
X164376552Y-91978729D01*
X164347222Y-91942991D01*
X164263557Y-91786466D01*
X164212037Y-91616627D01*
X164194641Y-91440000D01*
X164212037Y-91263373D01*
X164263557Y-91093534D01*
X164347222Y-90937009D01*
X164376552Y-90901271D01*
X164459814Y-90799814D01*
X164561271Y-90716552D01*
X164597009Y-90687222D01*
X164753534Y-90603557D01*
X164923373Y-90552037D01*
X164989558Y-90545518D01*
X165055740Y-90539000D01*
X165144260Y-90539000D01*
X165210443Y-90545519D01*
X165210443Y-90545519D01*
G37*
G36*
X156386000Y-90046000D02*
G01*
X150534000Y-90046000D01*
X150534000Y-88644000D01*
X156386000Y-88644000D01*
X156386000Y-90046000D01*
X156386000Y-90046000D01*
G37*
G36*
X165210443Y-88005519D02*
G01*
X165276627Y-88012037D01*
X165446466Y-88063557D01*
X165602991Y-88147222D01*
X165638729Y-88176552D01*
X165740186Y-88259814D01*
X165823448Y-88361271D01*
X165852778Y-88397009D01*
X165936443Y-88553534D01*
X165987963Y-88723373D01*
X166005359Y-88900000D01*
X165987963Y-89076627D01*
X165936443Y-89246466D01*
X165852778Y-89402991D01*
X165823448Y-89438729D01*
X165740186Y-89540186D01*
X165638729Y-89623448D01*
X165602991Y-89652778D01*
X165446466Y-89736443D01*
X165276627Y-89787963D01*
X165210443Y-89794481D01*
X165144260Y-89801000D01*
X165055740Y-89801000D01*
X164989557Y-89794481D01*
X164923373Y-89787963D01*
X164753534Y-89736443D01*
X164597009Y-89652778D01*
X164561271Y-89623448D01*
X164459814Y-89540186D01*
X164376552Y-89438729D01*
X164347222Y-89402991D01*
X164263557Y-89246466D01*
X164212037Y-89076627D01*
X164194641Y-88900000D01*
X164212037Y-88723373D01*
X164263557Y-88553534D01*
X164347222Y-88397009D01*
X164376552Y-88361271D01*
X164459814Y-88259814D01*
X164561271Y-88176552D01*
X164597009Y-88147222D01*
X164753534Y-88063557D01*
X164923373Y-88012037D01*
X164989557Y-88005519D01*
X165055740Y-87999000D01*
X165144260Y-87999000D01*
X165210443Y-88005519D01*
X165210443Y-88005519D01*
G37*
G36*
X137270443Y-88005519D02*
G01*
X137336627Y-88012037D01*
X137506466Y-88063557D01*
X137662991Y-88147222D01*
X137698729Y-88176552D01*
X137800186Y-88259814D01*
X137883448Y-88361271D01*
X137912778Y-88397009D01*
X137996443Y-88553534D01*
X138047963Y-88723373D01*
X138065359Y-88900000D01*
X138047963Y-89076627D01*
X137996443Y-89246466D01*
X137912778Y-89402991D01*
X137883448Y-89438729D01*
X137800186Y-89540186D01*
X137698729Y-89623448D01*
X137662991Y-89652778D01*
X137506466Y-89736443D01*
X137336627Y-89787963D01*
X137270443Y-89794481D01*
X137204260Y-89801000D01*
X137115740Y-89801000D01*
X137049557Y-89794481D01*
X136983373Y-89787963D01*
X136813534Y-89736443D01*
X136657009Y-89652778D01*
X136621271Y-89623448D01*
X136519814Y-89540186D01*
X136436552Y-89438729D01*
X136407222Y-89402991D01*
X136323557Y-89246466D01*
X136272037Y-89076627D01*
X136254641Y-88900000D01*
X136272037Y-88723373D01*
X136323557Y-88553534D01*
X136407222Y-88397009D01*
X136436552Y-88361271D01*
X136519814Y-88259814D01*
X136621271Y-88176552D01*
X136657009Y-88147222D01*
X136813534Y-88063557D01*
X136983373Y-88012037D01*
X137049557Y-88005519D01*
X137115740Y-87999000D01*
X137204260Y-87999000D01*
X137270443Y-88005519D01*
X137270443Y-88005519D01*
G37*
G36*
X158511000Y-87921000D02*
G01*
X157109000Y-87921000D01*
X157109000Y-82069000D01*
X158511000Y-82069000D01*
X158511000Y-87921000D01*
X158511000Y-87921000D01*
G37*
G36*
X149811000Y-87921000D02*
G01*
X148409000Y-87921000D01*
X148409000Y-82069000D01*
X149811000Y-82069000D01*
X149811000Y-87921000D01*
X149811000Y-87921000D01*
G37*
G36*
X137270442Y-85465518D02*
G01*
X137336627Y-85472037D01*
X137506466Y-85523557D01*
X137662991Y-85607222D01*
X137698729Y-85636552D01*
X137800186Y-85719814D01*
X137883448Y-85821271D01*
X137912778Y-85857009D01*
X137996443Y-86013534D01*
X138047963Y-86183373D01*
X138065359Y-86360000D01*
X138047963Y-86536627D01*
X137996443Y-86706466D01*
X137912778Y-86862991D01*
X137883448Y-86898729D01*
X137800186Y-87000186D01*
X137698729Y-87083448D01*
X137662991Y-87112778D01*
X137506466Y-87196443D01*
X137336627Y-87247963D01*
X137270442Y-87254482D01*
X137204260Y-87261000D01*
X137115740Y-87261000D01*
X137049558Y-87254482D01*
X136983373Y-87247963D01*
X136813534Y-87196443D01*
X136657009Y-87112778D01*
X136621271Y-87083448D01*
X136519814Y-87000186D01*
X136436552Y-86898729D01*
X136407222Y-86862991D01*
X136323557Y-86706466D01*
X136272037Y-86536627D01*
X136254641Y-86360000D01*
X136272037Y-86183373D01*
X136323557Y-86013534D01*
X136407222Y-85857009D01*
X136436552Y-85821271D01*
X136519814Y-85719814D01*
X136621271Y-85636552D01*
X136657009Y-85607222D01*
X136813534Y-85523557D01*
X136983373Y-85472037D01*
X137049558Y-85465518D01*
X137115740Y-85459000D01*
X137204260Y-85459000D01*
X137270442Y-85465518D01*
X137270442Y-85465518D01*
G37*
G36*
X165210442Y-85465518D02*
G01*
X165276627Y-85472037D01*
X165446466Y-85523557D01*
X165602991Y-85607222D01*
X165638729Y-85636552D01*
X165740186Y-85719814D01*
X165823448Y-85821271D01*
X165852778Y-85857009D01*
X165936443Y-86013534D01*
X165987963Y-86183373D01*
X166005359Y-86360000D01*
X165987963Y-86536627D01*
X165936443Y-86706466D01*
X165852778Y-86862991D01*
X165823448Y-86898729D01*
X165740186Y-87000186D01*
X165638729Y-87083448D01*
X165602991Y-87112778D01*
X165446466Y-87196443D01*
X165276627Y-87247963D01*
X165210442Y-87254482D01*
X165144260Y-87261000D01*
X165055740Y-87261000D01*
X164989558Y-87254482D01*
X164923373Y-87247963D01*
X164753534Y-87196443D01*
X164597009Y-87112778D01*
X164561271Y-87083448D01*
X164459814Y-87000186D01*
X164376552Y-86898729D01*
X164347222Y-86862991D01*
X164263557Y-86706466D01*
X164212037Y-86536627D01*
X164194641Y-86360000D01*
X164212037Y-86183373D01*
X164263557Y-86013534D01*
X164347222Y-85857009D01*
X164376552Y-85821271D01*
X164459814Y-85719814D01*
X164561271Y-85636552D01*
X164597009Y-85607222D01*
X164753534Y-85523557D01*
X164923373Y-85472037D01*
X164989558Y-85465518D01*
X165055740Y-85459000D01*
X165144260Y-85459000D01*
X165210442Y-85465518D01*
X165210442Y-85465518D01*
G37*
G36*
X165210443Y-82925519D02*
G01*
X165276627Y-82932037D01*
X165446466Y-82983557D01*
X165602991Y-83067222D01*
X165605157Y-83069000D01*
X165740186Y-83179814D01*
X165823448Y-83281271D01*
X165852778Y-83317009D01*
X165936443Y-83473534D01*
X165987963Y-83643373D01*
X166005359Y-83820000D01*
X165987963Y-83996627D01*
X165936443Y-84166466D01*
X165852778Y-84322991D01*
X165823448Y-84358729D01*
X165740186Y-84460186D01*
X165638729Y-84543448D01*
X165602991Y-84572778D01*
X165446466Y-84656443D01*
X165276627Y-84707963D01*
X165210443Y-84714481D01*
X165144260Y-84721000D01*
X165055740Y-84721000D01*
X164989557Y-84714481D01*
X164923373Y-84707963D01*
X164753534Y-84656443D01*
X164597009Y-84572778D01*
X164561271Y-84543448D01*
X164459814Y-84460186D01*
X164376552Y-84358729D01*
X164347222Y-84322991D01*
X164263557Y-84166466D01*
X164212037Y-83996627D01*
X164194641Y-83820000D01*
X164212037Y-83643373D01*
X164263557Y-83473534D01*
X164347222Y-83317009D01*
X164376552Y-83281271D01*
X164459814Y-83179814D01*
X164594843Y-83069000D01*
X164597009Y-83067222D01*
X164753534Y-82983557D01*
X164923373Y-82932037D01*
X164989557Y-82925519D01*
X165055740Y-82919000D01*
X165144260Y-82919000D01*
X165210443Y-82925519D01*
X165210443Y-82925519D01*
G37*
G36*
X137270443Y-82925519D02*
G01*
X137336627Y-82932037D01*
X137506466Y-82983557D01*
X137662991Y-83067222D01*
X137665157Y-83069000D01*
X137800186Y-83179814D01*
X137883448Y-83281271D01*
X137912778Y-83317009D01*
X137996443Y-83473534D01*
X138047963Y-83643373D01*
X138065359Y-83820000D01*
X138047963Y-83996627D01*
X137996443Y-84166466D01*
X137912778Y-84322991D01*
X137883448Y-84358729D01*
X137800186Y-84460186D01*
X137698729Y-84543448D01*
X137662991Y-84572778D01*
X137506466Y-84656443D01*
X137336627Y-84707963D01*
X137270443Y-84714481D01*
X137204260Y-84721000D01*
X137115740Y-84721000D01*
X137049557Y-84714481D01*
X136983373Y-84707963D01*
X136813534Y-84656443D01*
X136657009Y-84572778D01*
X136621271Y-84543448D01*
X136519814Y-84460186D01*
X136436552Y-84358729D01*
X136407222Y-84322991D01*
X136323557Y-84166466D01*
X136272037Y-83996627D01*
X136254641Y-83820000D01*
X136272037Y-83643373D01*
X136323557Y-83473534D01*
X136407222Y-83317009D01*
X136436552Y-83281271D01*
X136519814Y-83179814D01*
X136654843Y-83069000D01*
X136657009Y-83067222D01*
X136813534Y-82983557D01*
X136983373Y-82932037D01*
X137049557Y-82925519D01*
X137115740Y-82919000D01*
X137204260Y-82919000D01*
X137270443Y-82925519D01*
X137270443Y-82925519D01*
G37*
G36*
X165210442Y-80385518D02*
G01*
X165276627Y-80392037D01*
X165446466Y-80443557D01*
X165602991Y-80527222D01*
X165638729Y-80556552D01*
X165740186Y-80639814D01*
X165823448Y-80741271D01*
X165852778Y-80777009D01*
X165936443Y-80933534D01*
X165987963Y-81103373D01*
X166005359Y-81280000D01*
X165987963Y-81456627D01*
X165936443Y-81626466D01*
X165852778Y-81782991D01*
X165823448Y-81818729D01*
X165740186Y-81920186D01*
X165638729Y-82003448D01*
X165602991Y-82032778D01*
X165446466Y-82116443D01*
X165276627Y-82167963D01*
X165210443Y-82174481D01*
X165144260Y-82181000D01*
X165055740Y-82181000D01*
X164989557Y-82174481D01*
X164923373Y-82167963D01*
X164753534Y-82116443D01*
X164597009Y-82032778D01*
X164561271Y-82003448D01*
X164459814Y-81920186D01*
X164376552Y-81818729D01*
X164347222Y-81782991D01*
X164263557Y-81626466D01*
X164212037Y-81456627D01*
X164194641Y-81280000D01*
X164212037Y-81103373D01*
X164263557Y-80933534D01*
X164347222Y-80777009D01*
X164376552Y-80741271D01*
X164459814Y-80639814D01*
X164561271Y-80556552D01*
X164597009Y-80527222D01*
X164753534Y-80443557D01*
X164923373Y-80392037D01*
X164989558Y-80385518D01*
X165055740Y-80379000D01*
X165144260Y-80379000D01*
X165210442Y-80385518D01*
X165210442Y-80385518D01*
G37*
G36*
X137270442Y-80385518D02*
G01*
X137336627Y-80392037D01*
X137506466Y-80443557D01*
X137662991Y-80527222D01*
X137698729Y-80556552D01*
X137800186Y-80639814D01*
X137883448Y-80741271D01*
X137912778Y-80777009D01*
X137996443Y-80933534D01*
X138047963Y-81103373D01*
X138065359Y-81280000D01*
X138047963Y-81456627D01*
X137996443Y-81626466D01*
X137912778Y-81782991D01*
X137883448Y-81818729D01*
X137800186Y-81920186D01*
X137698729Y-82003448D01*
X137662991Y-82032778D01*
X137506466Y-82116443D01*
X137336627Y-82167963D01*
X137270443Y-82174481D01*
X137204260Y-82181000D01*
X137115740Y-82181000D01*
X137049557Y-82174481D01*
X136983373Y-82167963D01*
X136813534Y-82116443D01*
X136657009Y-82032778D01*
X136621271Y-82003448D01*
X136519814Y-81920186D01*
X136436552Y-81818729D01*
X136407222Y-81782991D01*
X136323557Y-81626466D01*
X136272037Y-81456627D01*
X136254641Y-81280000D01*
X136272037Y-81103373D01*
X136323557Y-80933534D01*
X136407222Y-80777009D01*
X136436552Y-80741271D01*
X136519814Y-80639814D01*
X136621271Y-80556552D01*
X136657009Y-80527222D01*
X136813534Y-80443557D01*
X136983373Y-80392037D01*
X137049558Y-80385518D01*
X137115740Y-80379000D01*
X137204260Y-80379000D01*
X137270442Y-80385518D01*
X137270442Y-80385518D01*
G37*
G36*
X156386000Y-81346000D02*
G01*
X150534000Y-81346000D01*
X150534000Y-79944000D01*
X156386000Y-79944000D01*
X156386000Y-81346000D01*
X156386000Y-81346000D01*
G37*
G36*
X165210443Y-77845519D02*
G01*
X165276627Y-77852037D01*
X165446466Y-77903557D01*
X165602991Y-77987222D01*
X165638729Y-78016552D01*
X165740186Y-78099814D01*
X165823448Y-78201271D01*
X165852778Y-78237009D01*
X165936443Y-78393534D01*
X165987963Y-78563373D01*
X166005359Y-78740000D01*
X165987963Y-78916627D01*
X165936443Y-79086466D01*
X165852778Y-79242991D01*
X165823448Y-79278729D01*
X165740186Y-79380186D01*
X165638729Y-79463448D01*
X165602991Y-79492778D01*
X165446466Y-79576443D01*
X165276627Y-79627963D01*
X165210442Y-79634482D01*
X165144260Y-79641000D01*
X165055740Y-79641000D01*
X164989558Y-79634482D01*
X164923373Y-79627963D01*
X164753534Y-79576443D01*
X164597009Y-79492778D01*
X164561271Y-79463448D01*
X164459814Y-79380186D01*
X164376552Y-79278729D01*
X164347222Y-79242991D01*
X164263557Y-79086466D01*
X164212037Y-78916627D01*
X164194641Y-78740000D01*
X164212037Y-78563373D01*
X164263557Y-78393534D01*
X164347222Y-78237009D01*
X164376552Y-78201271D01*
X164459814Y-78099814D01*
X164561271Y-78016552D01*
X164597009Y-77987222D01*
X164753534Y-77903557D01*
X164923373Y-77852037D01*
X164989557Y-77845519D01*
X165055740Y-77839000D01*
X165144260Y-77839000D01*
X165210443Y-77845519D01*
X165210443Y-77845519D01*
G37*
G36*
X137270443Y-77845519D02*
G01*
X137336627Y-77852037D01*
X137506466Y-77903557D01*
X137662991Y-77987222D01*
X137698729Y-78016552D01*
X137800186Y-78099814D01*
X137883448Y-78201271D01*
X137912778Y-78237009D01*
X137996443Y-78393534D01*
X138047963Y-78563373D01*
X138065359Y-78740000D01*
X138047963Y-78916627D01*
X137996443Y-79086466D01*
X137912778Y-79242991D01*
X137883448Y-79278729D01*
X137800186Y-79380186D01*
X137698729Y-79463448D01*
X137662991Y-79492778D01*
X137506466Y-79576443D01*
X137336627Y-79627963D01*
X137270442Y-79634482D01*
X137204260Y-79641000D01*
X137115740Y-79641000D01*
X137049558Y-79634482D01*
X136983373Y-79627963D01*
X136813534Y-79576443D01*
X136657009Y-79492778D01*
X136621271Y-79463448D01*
X136519814Y-79380186D01*
X136436552Y-79278729D01*
X136407222Y-79242991D01*
X136323557Y-79086466D01*
X136272037Y-78916627D01*
X136254641Y-78740000D01*
X136272037Y-78563373D01*
X136323557Y-78393534D01*
X136407222Y-78237009D01*
X136436552Y-78201271D01*
X136519814Y-78099814D01*
X136621271Y-78016552D01*
X136657009Y-77987222D01*
X136813534Y-77903557D01*
X136983373Y-77852037D01*
X137049557Y-77845519D01*
X137115740Y-77839000D01*
X137204260Y-77839000D01*
X137270443Y-77845519D01*
X137270443Y-77845519D01*
G37*
G36*
X165210442Y-75305518D02*
G01*
X165276627Y-75312037D01*
X165446466Y-75363557D01*
X165602991Y-75447222D01*
X165638729Y-75476552D01*
X165740186Y-75559814D01*
X165823448Y-75661271D01*
X165852778Y-75697009D01*
X165936443Y-75853534D01*
X165987963Y-76023373D01*
X166005359Y-76200000D01*
X165987963Y-76376627D01*
X165936443Y-76546466D01*
X165852778Y-76702991D01*
X165823448Y-76738729D01*
X165740186Y-76840186D01*
X165638729Y-76923448D01*
X165602991Y-76952778D01*
X165446466Y-77036443D01*
X165276627Y-77087963D01*
X165210442Y-77094482D01*
X165144260Y-77101000D01*
X165055740Y-77101000D01*
X164989558Y-77094482D01*
X164923373Y-77087963D01*
X164753534Y-77036443D01*
X164597009Y-76952778D01*
X164561271Y-76923448D01*
X164459814Y-76840186D01*
X164376552Y-76738729D01*
X164347222Y-76702991D01*
X164263557Y-76546466D01*
X164212037Y-76376627D01*
X164194641Y-76200000D01*
X164212037Y-76023373D01*
X164263557Y-75853534D01*
X164347222Y-75697009D01*
X164376552Y-75661271D01*
X164459814Y-75559814D01*
X164561271Y-75476552D01*
X164597009Y-75447222D01*
X164753534Y-75363557D01*
X164923373Y-75312037D01*
X164989558Y-75305518D01*
X165055740Y-75299000D01*
X165144260Y-75299000D01*
X165210442Y-75305518D01*
X165210442Y-75305518D01*
G37*
G36*
X137270442Y-75305518D02*
G01*
X137336627Y-75312037D01*
X137506466Y-75363557D01*
X137662991Y-75447222D01*
X137698729Y-75476552D01*
X137800186Y-75559814D01*
X137883448Y-75661271D01*
X137912778Y-75697009D01*
X137996443Y-75853534D01*
X138047963Y-76023373D01*
X138065359Y-76200000D01*
X138047963Y-76376627D01*
X137996443Y-76546466D01*
X137912778Y-76702991D01*
X137883448Y-76738729D01*
X137800186Y-76840186D01*
X137698729Y-76923448D01*
X137662991Y-76952778D01*
X137506466Y-77036443D01*
X137336627Y-77087963D01*
X137270442Y-77094482D01*
X137204260Y-77101000D01*
X137115740Y-77101000D01*
X137049558Y-77094482D01*
X136983373Y-77087963D01*
X136813534Y-77036443D01*
X136657009Y-76952778D01*
X136621271Y-76923448D01*
X136519814Y-76840186D01*
X136436552Y-76738729D01*
X136407222Y-76702991D01*
X136323557Y-76546466D01*
X136272037Y-76376627D01*
X136254641Y-76200000D01*
X136272037Y-76023373D01*
X136323557Y-75853534D01*
X136407222Y-75697009D01*
X136436552Y-75661271D01*
X136519814Y-75559814D01*
X136621271Y-75476552D01*
X136657009Y-75447222D01*
X136813534Y-75363557D01*
X136983373Y-75312037D01*
X137049558Y-75305518D01*
X137115740Y-75299000D01*
X137204260Y-75299000D01*
X137270442Y-75305518D01*
X137270442Y-75305518D01*
G37*
G36*
X165210442Y-72765518D02*
G01*
X165276627Y-72772037D01*
X165446466Y-72823557D01*
X165602991Y-72907222D01*
X165638729Y-72936552D01*
X165740186Y-73019814D01*
X165823448Y-73121271D01*
X165852778Y-73157009D01*
X165936443Y-73313534D01*
X165987963Y-73483373D01*
X166005359Y-73660000D01*
X165987963Y-73836627D01*
X165936443Y-74006466D01*
X165852778Y-74162991D01*
X165827101Y-74194278D01*
X165740186Y-74300186D01*
X165638729Y-74383448D01*
X165602991Y-74412778D01*
X165446466Y-74496443D01*
X165276627Y-74547963D01*
X165210442Y-74554482D01*
X165144260Y-74561000D01*
X165055740Y-74561000D01*
X164989558Y-74554482D01*
X164923373Y-74547963D01*
X164753534Y-74496443D01*
X164597009Y-74412778D01*
X164561271Y-74383448D01*
X164459814Y-74300186D01*
X164372899Y-74194278D01*
X164347222Y-74162991D01*
X164263557Y-74006466D01*
X164212037Y-73836627D01*
X164194641Y-73660000D01*
X164212037Y-73483373D01*
X164263557Y-73313534D01*
X164347222Y-73157009D01*
X164376552Y-73121271D01*
X164459814Y-73019814D01*
X164561271Y-72936552D01*
X164597009Y-72907222D01*
X164753534Y-72823557D01*
X164923373Y-72772037D01*
X164989558Y-72765518D01*
X165055740Y-72759000D01*
X165144260Y-72759000D01*
X165210442Y-72765518D01*
X165210442Y-72765518D01*
G37*
G36*
X137270442Y-72765518D02*
G01*
X137336627Y-72772037D01*
X137506466Y-72823557D01*
X137662991Y-72907222D01*
X137698729Y-72936552D01*
X137800186Y-73019814D01*
X137883448Y-73121271D01*
X137912778Y-73157009D01*
X137996443Y-73313534D01*
X138047963Y-73483373D01*
X138065359Y-73660000D01*
X138047963Y-73836627D01*
X137996443Y-74006466D01*
X137912778Y-74162991D01*
X137887101Y-74194278D01*
X137800186Y-74300186D01*
X137698729Y-74383448D01*
X137662991Y-74412778D01*
X137506466Y-74496443D01*
X137336627Y-74547963D01*
X137270442Y-74554482D01*
X137204260Y-74561000D01*
X137115740Y-74561000D01*
X137049558Y-74554482D01*
X136983373Y-74547963D01*
X136813534Y-74496443D01*
X136657009Y-74412778D01*
X136621271Y-74383448D01*
X136519814Y-74300186D01*
X136432899Y-74194278D01*
X136407222Y-74162991D01*
X136323557Y-74006466D01*
X136272037Y-73836627D01*
X136254641Y-73660000D01*
X136272037Y-73483373D01*
X136323557Y-73313534D01*
X136407222Y-73157009D01*
X136436552Y-73121271D01*
X136519814Y-73019814D01*
X136621271Y-72936552D01*
X136657009Y-72907222D01*
X136813534Y-72823557D01*
X136983373Y-72772037D01*
X137049558Y-72765518D01*
X137115740Y-72759000D01*
X137204260Y-72759000D01*
X137270442Y-72765518D01*
X137270442Y-72765518D01*
G37*
G36*
X143276468Y-72913565D02*
G01*
X143315138Y-72925296D01*
X143350777Y-72944346D01*
X143382017Y-72969983D01*
X143407654Y-73001223D01*
X143426704Y-73036862D01*
X143438435Y-73075532D01*
X143443000Y-73121888D01*
X143443000Y-74198112D01*
X143438435Y-74244468D01*
X143426704Y-74283138D01*
X143407654Y-74318777D01*
X143382017Y-74350017D01*
X143350777Y-74375654D01*
X143315138Y-74394704D01*
X143276468Y-74406435D01*
X143230112Y-74411000D01*
X142578888Y-74411000D01*
X142532532Y-74406435D01*
X142493862Y-74394704D01*
X142458223Y-74375654D01*
X142426983Y-74350017D01*
X142401346Y-74318777D01*
X142382296Y-74283138D01*
X142370565Y-74244468D01*
X142366000Y-74198112D01*
X142366000Y-73121888D01*
X142370565Y-73075532D01*
X142382296Y-73036862D01*
X142401346Y-73001223D01*
X142426983Y-72969983D01*
X142458223Y-72944346D01*
X142493862Y-72925296D01*
X142532532Y-72913565D01*
X142578888Y-72909000D01*
X143230112Y-72909000D01*
X143276468Y-72913565D01*
X143276468Y-72913565D01*
G37*
G36*
X145151468Y-72913565D02*
G01*
X145190138Y-72925296D01*
X145225777Y-72944346D01*
X145257017Y-72969983D01*
X145282654Y-73001223D01*
X145301704Y-73036862D01*
X145313435Y-73075532D01*
X145318000Y-73121888D01*
X145318000Y-74198112D01*
X145313435Y-74244468D01*
X145301704Y-74283138D01*
X145282654Y-74318777D01*
X145257017Y-74350017D01*
X145225777Y-74375654D01*
X145190138Y-74394704D01*
X145151468Y-74406435D01*
X145105112Y-74411000D01*
X144453888Y-74411000D01*
X144407532Y-74406435D01*
X144368862Y-74394704D01*
X144333223Y-74375654D01*
X144301983Y-74350017D01*
X144276346Y-74318777D01*
X144257296Y-74283138D01*
X144245565Y-74244468D01*
X144241000Y-74198112D01*
X144241000Y-73121888D01*
X144245565Y-73075532D01*
X144257296Y-73036862D01*
X144276346Y-73001223D01*
X144301983Y-72969983D01*
X144333223Y-72944346D01*
X144368862Y-72925296D01*
X144407532Y-72913565D01*
X144453888Y-72909000D01*
X145105112Y-72909000D01*
X145151468Y-72913565D01*
X145151468Y-72913565D01*
G37*
G36*
X154295968Y-72405565D02*
G01*
X154334638Y-72417296D01*
X154370277Y-72436346D01*
X154401517Y-72461983D01*
X154427154Y-72493223D01*
X154446204Y-72528862D01*
X154457935Y-72567532D01*
X154462500Y-72613888D01*
X154462500Y-73690112D01*
X154457935Y-73736468D01*
X154446204Y-73775138D01*
X154427154Y-73810777D01*
X154401517Y-73842017D01*
X154370277Y-73867654D01*
X154334638Y-73886704D01*
X154295968Y-73898435D01*
X154249612Y-73903000D01*
X153598388Y-73903000D01*
X153552032Y-73898435D01*
X153513362Y-73886704D01*
X153477723Y-73867654D01*
X153446483Y-73842017D01*
X153420846Y-73810777D01*
X153401796Y-73775138D01*
X153390065Y-73736468D01*
X153385500Y-73690112D01*
X153385500Y-72613888D01*
X153390065Y-72567532D01*
X153401796Y-72528862D01*
X153420846Y-72493223D01*
X153446483Y-72461983D01*
X153477723Y-72436346D01*
X153513362Y-72417296D01*
X153552032Y-72405565D01*
X153598388Y-72401000D01*
X154249612Y-72401000D01*
X154295968Y-72405565D01*
X154295968Y-72405565D01*
G37*
G36*
X156170968Y-72405565D02*
G01*
X156209638Y-72417296D01*
X156245277Y-72436346D01*
X156276517Y-72461983D01*
X156302154Y-72493223D01*
X156321204Y-72528862D01*
X156332935Y-72567532D01*
X156337500Y-72613888D01*
X156337500Y-73690112D01*
X156332935Y-73736468D01*
X156321204Y-73775138D01*
X156302154Y-73810777D01*
X156276517Y-73842017D01*
X156245277Y-73867654D01*
X156209638Y-73886704D01*
X156170968Y-73898435D01*
X156124612Y-73903000D01*
X155473388Y-73903000D01*
X155427032Y-73898435D01*
X155388362Y-73886704D01*
X155352723Y-73867654D01*
X155321483Y-73842017D01*
X155295846Y-73810777D01*
X155276796Y-73775138D01*
X155265065Y-73736468D01*
X155260500Y-73690112D01*
X155260500Y-72613888D01*
X155265065Y-72567532D01*
X155276796Y-72528862D01*
X155295846Y-72493223D01*
X155321483Y-72461983D01*
X155352723Y-72436346D01*
X155388362Y-72417296D01*
X155427032Y-72405565D01*
X155473388Y-72401000D01*
X156124612Y-72401000D01*
X156170968Y-72405565D01*
X156170968Y-72405565D01*
G37*
G36*
X165210442Y-70225518D02*
G01*
X165276627Y-70232037D01*
X165446466Y-70283557D01*
X165602991Y-70367222D01*
X165638729Y-70396552D01*
X165740186Y-70479814D01*
X165823448Y-70581271D01*
X165852778Y-70617009D01*
X165936443Y-70773534D01*
X165987963Y-70943373D01*
X166005359Y-71120000D01*
X165987963Y-71296627D01*
X165936443Y-71466466D01*
X165852778Y-71622991D01*
X165827101Y-71654278D01*
X165740186Y-71760186D01*
X165638729Y-71843448D01*
X165602991Y-71872778D01*
X165446466Y-71956443D01*
X165276627Y-72007963D01*
X165210443Y-72014481D01*
X165144260Y-72021000D01*
X165055740Y-72021000D01*
X164989557Y-72014481D01*
X164923373Y-72007963D01*
X164753534Y-71956443D01*
X164597009Y-71872778D01*
X164561271Y-71843448D01*
X164459814Y-71760186D01*
X164372899Y-71654278D01*
X164347222Y-71622991D01*
X164263557Y-71466466D01*
X164212037Y-71296627D01*
X164194641Y-71120000D01*
X164212037Y-70943373D01*
X164263557Y-70773534D01*
X164347222Y-70617009D01*
X164376552Y-70581271D01*
X164459814Y-70479814D01*
X164561271Y-70396552D01*
X164597009Y-70367222D01*
X164753534Y-70283557D01*
X164923373Y-70232037D01*
X164989558Y-70225518D01*
X165055740Y-70219000D01*
X165144260Y-70219000D01*
X165210442Y-70225518D01*
X165210442Y-70225518D01*
G37*
G36*
X137270442Y-70225518D02*
G01*
X137336627Y-70232037D01*
X137506466Y-70283557D01*
X137662991Y-70367222D01*
X137698729Y-70396552D01*
X137800186Y-70479814D01*
X137883448Y-70581271D01*
X137912778Y-70617009D01*
X137996443Y-70773534D01*
X138047963Y-70943373D01*
X138065359Y-71120000D01*
X138047963Y-71296627D01*
X137996443Y-71466466D01*
X137912778Y-71622991D01*
X137887101Y-71654278D01*
X137800186Y-71760186D01*
X137698729Y-71843448D01*
X137662991Y-71872778D01*
X137506466Y-71956443D01*
X137336627Y-72007963D01*
X137270443Y-72014481D01*
X137204260Y-72021000D01*
X137115740Y-72021000D01*
X137049557Y-72014481D01*
X136983373Y-72007963D01*
X136813534Y-71956443D01*
X136657009Y-71872778D01*
X136621271Y-71843448D01*
X136519814Y-71760186D01*
X136432899Y-71654278D01*
X136407222Y-71622991D01*
X136323557Y-71466466D01*
X136272037Y-71296627D01*
X136254641Y-71120000D01*
X136272037Y-70943373D01*
X136323557Y-70773534D01*
X136407222Y-70617009D01*
X136436552Y-70581271D01*
X136519814Y-70479814D01*
X136621271Y-70396552D01*
X136657009Y-70367222D01*
X136813534Y-70283557D01*
X136983373Y-70232037D01*
X137049558Y-70225518D01*
X137115740Y-70219000D01*
X137204260Y-70219000D01*
X137270442Y-70225518D01*
X137270442Y-70225518D01*
G37*
G36*
X145151468Y-70373565D02*
G01*
X145190138Y-70385296D01*
X145225777Y-70404346D01*
X145257017Y-70429983D01*
X145282654Y-70461223D01*
X145301704Y-70496862D01*
X145313435Y-70535532D01*
X145318000Y-70581888D01*
X145318000Y-71658112D01*
X145313435Y-71704468D01*
X145301704Y-71743138D01*
X145282654Y-71778777D01*
X145257017Y-71810017D01*
X145225777Y-71835654D01*
X145190138Y-71854704D01*
X145151468Y-71866435D01*
X145105112Y-71871000D01*
X144453888Y-71871000D01*
X144407532Y-71866435D01*
X144368862Y-71854704D01*
X144333223Y-71835654D01*
X144301983Y-71810017D01*
X144276346Y-71778777D01*
X144257296Y-71743138D01*
X144245565Y-71704468D01*
X144241000Y-71658112D01*
X144241000Y-70581888D01*
X144245565Y-70535532D01*
X144257296Y-70496862D01*
X144276346Y-70461223D01*
X144301983Y-70429983D01*
X144333223Y-70404346D01*
X144368862Y-70385296D01*
X144407532Y-70373565D01*
X144453888Y-70369000D01*
X145105112Y-70369000D01*
X145151468Y-70373565D01*
X145151468Y-70373565D01*
G37*
G36*
X143276468Y-70373565D02*
G01*
X143315138Y-70385296D01*
X143350777Y-70404346D01*
X143382017Y-70429983D01*
X143407654Y-70461223D01*
X143426704Y-70496862D01*
X143438435Y-70535532D01*
X143443000Y-70581888D01*
X143443000Y-71658112D01*
X143438435Y-71704468D01*
X143426704Y-71743138D01*
X143407654Y-71778777D01*
X143382017Y-71810017D01*
X143350777Y-71835654D01*
X143315138Y-71854704D01*
X143276468Y-71866435D01*
X143230112Y-71871000D01*
X142578888Y-71871000D01*
X142532532Y-71866435D01*
X142493862Y-71854704D01*
X142458223Y-71835654D01*
X142426983Y-71810017D01*
X142401346Y-71778777D01*
X142382296Y-71743138D01*
X142370565Y-71704468D01*
X142366000Y-71658112D01*
X142366000Y-70581888D01*
X142370565Y-70535532D01*
X142382296Y-70496862D01*
X142401346Y-70461223D01*
X142426983Y-70429983D01*
X142458223Y-70404346D01*
X142493862Y-70385296D01*
X142532532Y-70373565D01*
X142578888Y-70369000D01*
X143230112Y-70369000D01*
X143276468Y-70373565D01*
X143276468Y-70373565D01*
G37*
G36*
X160736000Y-69991000D02*
G01*
X158834000Y-69991000D01*
X158834000Y-68789000D01*
X160736000Y-68789000D01*
X160736000Y-69991000D01*
X160736000Y-69991000D01*
G37*
G36*
X154436000Y-69991000D02*
G01*
X152534000Y-69991000D01*
X152534000Y-68789000D01*
X154436000Y-68789000D01*
X154436000Y-69991000D01*
X154436000Y-69991000D01*
G37*
G36*
X137270443Y-67685519D02*
G01*
X137336627Y-67692037D01*
X137506466Y-67743557D01*
X137662991Y-67827222D01*
X137698729Y-67856552D01*
X137800186Y-67939814D01*
X137883448Y-68041271D01*
X137912778Y-68077009D01*
X137996443Y-68233534D01*
X138047963Y-68403373D01*
X138065359Y-68580000D01*
X138047963Y-68756627D01*
X137996443Y-68926466D01*
X137912778Y-69082991D01*
X137887101Y-69114278D01*
X137800186Y-69220186D01*
X137698729Y-69303448D01*
X137662991Y-69332778D01*
X137506466Y-69416443D01*
X137336627Y-69467963D01*
X137270442Y-69474482D01*
X137204260Y-69481000D01*
X137115740Y-69481000D01*
X137049558Y-69474482D01*
X136983373Y-69467963D01*
X136813534Y-69416443D01*
X136657009Y-69332778D01*
X136621271Y-69303448D01*
X136519814Y-69220186D01*
X136432899Y-69114278D01*
X136407222Y-69082991D01*
X136323557Y-68926466D01*
X136272037Y-68756627D01*
X136254641Y-68580000D01*
X136272037Y-68403373D01*
X136323557Y-68233534D01*
X136407222Y-68077009D01*
X136436552Y-68041271D01*
X136519814Y-67939814D01*
X136621271Y-67856552D01*
X136657009Y-67827222D01*
X136813534Y-67743557D01*
X136983373Y-67692037D01*
X137049557Y-67685519D01*
X137115740Y-67679000D01*
X137204260Y-67679000D01*
X137270443Y-67685519D01*
X137270443Y-67685519D01*
G37*
G36*
X165210443Y-67685519D02*
G01*
X165276627Y-67692037D01*
X165446466Y-67743557D01*
X165602991Y-67827222D01*
X165638729Y-67856552D01*
X165740186Y-67939814D01*
X165823448Y-68041271D01*
X165852778Y-68077009D01*
X165936443Y-68233534D01*
X165987963Y-68403373D01*
X166005359Y-68580000D01*
X165987963Y-68756627D01*
X165936443Y-68926466D01*
X165852778Y-69082991D01*
X165827101Y-69114278D01*
X165740186Y-69220186D01*
X165638729Y-69303448D01*
X165602991Y-69332778D01*
X165446466Y-69416443D01*
X165276627Y-69467963D01*
X165210442Y-69474482D01*
X165144260Y-69481000D01*
X165055740Y-69481000D01*
X164989558Y-69474482D01*
X164923373Y-69467963D01*
X164753534Y-69416443D01*
X164597009Y-69332778D01*
X164561271Y-69303448D01*
X164459814Y-69220186D01*
X164372899Y-69114278D01*
X164347222Y-69082991D01*
X164263557Y-68926466D01*
X164212037Y-68756627D01*
X164194641Y-68580000D01*
X164212037Y-68403373D01*
X164263557Y-68233534D01*
X164347222Y-68077009D01*
X164376552Y-68041271D01*
X164459814Y-67939814D01*
X164561271Y-67856552D01*
X164597009Y-67827222D01*
X164753534Y-67743557D01*
X164923373Y-67692037D01*
X164989557Y-67685519D01*
X165055740Y-67679000D01*
X165144260Y-67679000D01*
X165210443Y-67685519D01*
X165210443Y-67685519D01*
G37*
G36*
X145151468Y-67833565D02*
G01*
X145190138Y-67845296D01*
X145225777Y-67864346D01*
X145257017Y-67889983D01*
X145282654Y-67921223D01*
X145301704Y-67956862D01*
X145313435Y-67995532D01*
X145318000Y-68041888D01*
X145318000Y-69118112D01*
X145313435Y-69164468D01*
X145301704Y-69203138D01*
X145282654Y-69238777D01*
X145257017Y-69270017D01*
X145225777Y-69295654D01*
X145190138Y-69314704D01*
X145151468Y-69326435D01*
X145105112Y-69331000D01*
X144453888Y-69331000D01*
X144407532Y-69326435D01*
X144368862Y-69314704D01*
X144333223Y-69295654D01*
X144301983Y-69270017D01*
X144276346Y-69238777D01*
X144257296Y-69203138D01*
X144245565Y-69164468D01*
X144241000Y-69118112D01*
X144241000Y-68041888D01*
X144245565Y-67995532D01*
X144257296Y-67956862D01*
X144276346Y-67921223D01*
X144301983Y-67889983D01*
X144333223Y-67864346D01*
X144368862Y-67845296D01*
X144407532Y-67833565D01*
X144453888Y-67829000D01*
X145105112Y-67829000D01*
X145151468Y-67833565D01*
X145151468Y-67833565D01*
G37*
G36*
X143276468Y-67833565D02*
G01*
X143315138Y-67845296D01*
X143350777Y-67864346D01*
X143382017Y-67889983D01*
X143407654Y-67921223D01*
X143426704Y-67956862D01*
X143438435Y-67995532D01*
X143443000Y-68041888D01*
X143443000Y-69118112D01*
X143438435Y-69164468D01*
X143426704Y-69203138D01*
X143407654Y-69238777D01*
X143382017Y-69270017D01*
X143350777Y-69295654D01*
X143315138Y-69314704D01*
X143276468Y-69326435D01*
X143230112Y-69331000D01*
X142578888Y-69331000D01*
X142532532Y-69326435D01*
X142493862Y-69314704D01*
X142458223Y-69295654D01*
X142426983Y-69270017D01*
X142401346Y-69238777D01*
X142382296Y-69203138D01*
X142370565Y-69164468D01*
X142366000Y-69118112D01*
X142366000Y-68041888D01*
X142370565Y-67995532D01*
X142382296Y-67956862D01*
X142401346Y-67921223D01*
X142426983Y-67889983D01*
X142458223Y-67864346D01*
X142493862Y-67845296D01*
X142532532Y-67833565D01*
X142578888Y-67829000D01*
X143230112Y-67829000D01*
X143276468Y-67833565D01*
X143276468Y-67833565D01*
G37*
G36*
X165210442Y-65145518D02*
G01*
X165276627Y-65152037D01*
X165446466Y-65203557D01*
X165602991Y-65287222D01*
X165638729Y-65316552D01*
X165740186Y-65399814D01*
X165823448Y-65501271D01*
X165852778Y-65537009D01*
X165936443Y-65693534D01*
X165987963Y-65863373D01*
X166005359Y-66040000D01*
X165987963Y-66216627D01*
X165936443Y-66386466D01*
X165852778Y-66542991D01*
X165827101Y-66574278D01*
X165740186Y-66680186D01*
X165638729Y-66763448D01*
X165602991Y-66792778D01*
X165446466Y-66876443D01*
X165276627Y-66927963D01*
X165210442Y-66934482D01*
X165144260Y-66941000D01*
X165055740Y-66941000D01*
X164989558Y-66934482D01*
X164923373Y-66927963D01*
X164753534Y-66876443D01*
X164597009Y-66792778D01*
X164561271Y-66763448D01*
X164459814Y-66680186D01*
X164372899Y-66574278D01*
X164347222Y-66542991D01*
X164263557Y-66386466D01*
X164212037Y-66216627D01*
X164194641Y-66040000D01*
X164212037Y-65863373D01*
X164263557Y-65693534D01*
X164347222Y-65537009D01*
X164376552Y-65501271D01*
X164459814Y-65399814D01*
X164561271Y-65316552D01*
X164597009Y-65287222D01*
X164753534Y-65203557D01*
X164923373Y-65152037D01*
X164989558Y-65145518D01*
X165055740Y-65139000D01*
X165144260Y-65139000D01*
X165210442Y-65145518D01*
X165210442Y-65145518D01*
G37*
G36*
X137270442Y-65145518D02*
G01*
X137336627Y-65152037D01*
X137506466Y-65203557D01*
X137662991Y-65287222D01*
X137698729Y-65316552D01*
X137800186Y-65399814D01*
X137883448Y-65501271D01*
X137912778Y-65537009D01*
X137996443Y-65693534D01*
X138047963Y-65863373D01*
X138065359Y-66040000D01*
X138047963Y-66216627D01*
X137996443Y-66386466D01*
X137912778Y-66542991D01*
X137887101Y-66574278D01*
X137800186Y-66680186D01*
X137698729Y-66763448D01*
X137662991Y-66792778D01*
X137506466Y-66876443D01*
X137336627Y-66927963D01*
X137270442Y-66934482D01*
X137204260Y-66941000D01*
X137115740Y-66941000D01*
X137049558Y-66934482D01*
X136983373Y-66927963D01*
X136813534Y-66876443D01*
X136657009Y-66792778D01*
X136621271Y-66763448D01*
X136519814Y-66680186D01*
X136432899Y-66574278D01*
X136407222Y-66542991D01*
X136323557Y-66386466D01*
X136272037Y-66216627D01*
X136254641Y-66040000D01*
X136272037Y-65863373D01*
X136323557Y-65693534D01*
X136407222Y-65537009D01*
X136436552Y-65501271D01*
X136519814Y-65399814D01*
X136621271Y-65316552D01*
X136657009Y-65287222D01*
X136813534Y-65203557D01*
X136983373Y-65152037D01*
X137049558Y-65145518D01*
X137115740Y-65139000D01*
X137204260Y-65139000D01*
X137270442Y-65145518D01*
X137270442Y-65145518D01*
G37*
G36*
X145151468Y-65293565D02*
G01*
X145190138Y-65305296D01*
X145225777Y-65324346D01*
X145257017Y-65349983D01*
X145282654Y-65381223D01*
X145301704Y-65416862D01*
X145313435Y-65455532D01*
X145318000Y-65501888D01*
X145318000Y-66578112D01*
X145313435Y-66624468D01*
X145301704Y-66663138D01*
X145282654Y-66698777D01*
X145257017Y-66730017D01*
X145225777Y-66755654D01*
X145190138Y-66774704D01*
X145151468Y-66786435D01*
X145105112Y-66791000D01*
X144453888Y-66791000D01*
X144407532Y-66786435D01*
X144368862Y-66774704D01*
X144333223Y-66755654D01*
X144301983Y-66730017D01*
X144276346Y-66698777D01*
X144257296Y-66663138D01*
X144245565Y-66624468D01*
X144241000Y-66578112D01*
X144241000Y-65501888D01*
X144245565Y-65455532D01*
X144257296Y-65416862D01*
X144276346Y-65381223D01*
X144301983Y-65349983D01*
X144333223Y-65324346D01*
X144368862Y-65305296D01*
X144407532Y-65293565D01*
X144453888Y-65289000D01*
X145105112Y-65289000D01*
X145151468Y-65293565D01*
X145151468Y-65293565D01*
G37*
G36*
X143276468Y-65293565D02*
G01*
X143315138Y-65305296D01*
X143350777Y-65324346D01*
X143382017Y-65349983D01*
X143407654Y-65381223D01*
X143426704Y-65416862D01*
X143438435Y-65455532D01*
X143443000Y-65501888D01*
X143443000Y-66578112D01*
X143438435Y-66624468D01*
X143426704Y-66663138D01*
X143407654Y-66698777D01*
X143382017Y-66730017D01*
X143350777Y-66755654D01*
X143315138Y-66774704D01*
X143276468Y-66786435D01*
X143230112Y-66791000D01*
X142578888Y-66791000D01*
X142532532Y-66786435D01*
X142493862Y-66774704D01*
X142458223Y-66755654D01*
X142426983Y-66730017D01*
X142401346Y-66698777D01*
X142382296Y-66663138D01*
X142370565Y-66624468D01*
X142366000Y-66578112D01*
X142366000Y-65501888D01*
X142370565Y-65455532D01*
X142382296Y-65416862D01*
X142401346Y-65381223D01*
X142426983Y-65349983D01*
X142458223Y-65324346D01*
X142493862Y-65305296D01*
X142532532Y-65293565D01*
X142578888Y-65289000D01*
X143230112Y-65289000D01*
X143276468Y-65293565D01*
X143276468Y-65293565D01*
G37*
G36*
X154436000Y-66291000D02*
G01*
X152534000Y-66291000D01*
X152534000Y-65089000D01*
X154436000Y-65089000D01*
X154436000Y-66291000D01*
X154436000Y-66291000D01*
G37*
G36*
X160736000Y-66291000D02*
G01*
X158834000Y-66291000D01*
X158834000Y-65089000D01*
X160736000Y-65089000D01*
X160736000Y-66291000D01*
X160736000Y-66291000D01*
G37*
G36*
X165210442Y-62605518D02*
G01*
X165276627Y-62612037D01*
X165446466Y-62663557D01*
X165602991Y-62747222D01*
X165638729Y-62776552D01*
X165740186Y-62859814D01*
X165823448Y-62961271D01*
X165852778Y-62997009D01*
X165936443Y-63153534D01*
X165987963Y-63323373D01*
X166005359Y-63500000D01*
X165987963Y-63676627D01*
X165936443Y-63846466D01*
X165852778Y-64002991D01*
X165827101Y-64034278D01*
X165740186Y-64140186D01*
X165638729Y-64223448D01*
X165602991Y-64252778D01*
X165446466Y-64336443D01*
X165276627Y-64387963D01*
X165210442Y-64394482D01*
X165144260Y-64401000D01*
X165055740Y-64401000D01*
X164989558Y-64394482D01*
X164923373Y-64387963D01*
X164753534Y-64336443D01*
X164597009Y-64252778D01*
X164561271Y-64223448D01*
X164459814Y-64140186D01*
X164372899Y-64034278D01*
X164347222Y-64002991D01*
X164263557Y-63846466D01*
X164212037Y-63676627D01*
X164194641Y-63500000D01*
X164212037Y-63323373D01*
X164263557Y-63153534D01*
X164347222Y-62997009D01*
X164376552Y-62961271D01*
X164459814Y-62859814D01*
X164561271Y-62776552D01*
X164597009Y-62747222D01*
X164753534Y-62663557D01*
X164923373Y-62612037D01*
X164989558Y-62605518D01*
X165055740Y-62599000D01*
X165144260Y-62599000D01*
X165210442Y-62605518D01*
X165210442Y-62605518D01*
G37*
G36*
X139810442Y-62605518D02*
G01*
X139876627Y-62612037D01*
X140046466Y-62663557D01*
X140202991Y-62747222D01*
X140238729Y-62776552D01*
X140340186Y-62859814D01*
X140423448Y-62961271D01*
X140452778Y-62997009D01*
X140536443Y-63153534D01*
X140587963Y-63323373D01*
X140605359Y-63500000D01*
X140587963Y-63676627D01*
X140536443Y-63846466D01*
X140452778Y-64002991D01*
X140427101Y-64034278D01*
X140340186Y-64140186D01*
X140238729Y-64223448D01*
X140202991Y-64252778D01*
X140046466Y-64336443D01*
X139876627Y-64387963D01*
X139810442Y-64394482D01*
X139744260Y-64401000D01*
X139655740Y-64401000D01*
X139589558Y-64394482D01*
X139523373Y-64387963D01*
X139353534Y-64336443D01*
X139197009Y-64252778D01*
X139161271Y-64223448D01*
X139059814Y-64140186D01*
X138972899Y-64034278D01*
X138947222Y-64002991D01*
X138863557Y-63846466D01*
X138812037Y-63676627D01*
X138794641Y-63500000D01*
X138812037Y-63323373D01*
X138863557Y-63153534D01*
X138947222Y-62997009D01*
X138976552Y-62961271D01*
X139059814Y-62859814D01*
X139161271Y-62776552D01*
X139197009Y-62747222D01*
X139353534Y-62663557D01*
X139523373Y-62612037D01*
X139589558Y-62605518D01*
X139655740Y-62599000D01*
X139744260Y-62599000D01*
X139810442Y-62605518D01*
X139810442Y-62605518D01*
G37*
G36*
X137270442Y-62605518D02*
G01*
X137336627Y-62612037D01*
X137506466Y-62663557D01*
X137662991Y-62747222D01*
X137698729Y-62776552D01*
X137800186Y-62859814D01*
X137883448Y-62961271D01*
X137912778Y-62997009D01*
X137996443Y-63153534D01*
X138047963Y-63323373D01*
X138065359Y-63500000D01*
X138047963Y-63676627D01*
X137996443Y-63846466D01*
X137912778Y-64002991D01*
X137887101Y-64034278D01*
X137800186Y-64140186D01*
X137698729Y-64223448D01*
X137662991Y-64252778D01*
X137506466Y-64336443D01*
X137336627Y-64387963D01*
X137270442Y-64394482D01*
X137204260Y-64401000D01*
X137115740Y-64401000D01*
X137049558Y-64394482D01*
X136983373Y-64387963D01*
X136813534Y-64336443D01*
X136657009Y-64252778D01*
X136621271Y-64223448D01*
X136519814Y-64140186D01*
X136432899Y-64034278D01*
X136407222Y-64002991D01*
X136323557Y-63846466D01*
X136272037Y-63676627D01*
X136254641Y-63500000D01*
X136272037Y-63323373D01*
X136323557Y-63153534D01*
X136407222Y-62997009D01*
X136436552Y-62961271D01*
X136519814Y-62859814D01*
X136621271Y-62776552D01*
X136657009Y-62747222D01*
X136813534Y-62663557D01*
X136983373Y-62612037D01*
X137049558Y-62605518D01*
X137115740Y-62599000D01*
X137204260Y-62599000D01*
X137270442Y-62605518D01*
X137270442Y-62605518D01*
G37*
G36*
X162670442Y-62605518D02*
G01*
X162736627Y-62612037D01*
X162906466Y-62663557D01*
X163062991Y-62747222D01*
X163098729Y-62776552D01*
X163200186Y-62859814D01*
X163283448Y-62961271D01*
X163312778Y-62997009D01*
X163396443Y-63153534D01*
X163447963Y-63323373D01*
X163465359Y-63500000D01*
X163447963Y-63676627D01*
X163396443Y-63846466D01*
X163312778Y-64002991D01*
X163287101Y-64034278D01*
X163200186Y-64140186D01*
X163098729Y-64223448D01*
X163062991Y-64252778D01*
X162906466Y-64336443D01*
X162736627Y-64387963D01*
X162670442Y-64394482D01*
X162604260Y-64401000D01*
X162515740Y-64401000D01*
X162449558Y-64394482D01*
X162383373Y-64387963D01*
X162213534Y-64336443D01*
X162057009Y-64252778D01*
X162021271Y-64223448D01*
X161919814Y-64140186D01*
X161832899Y-64034278D01*
X161807222Y-64002991D01*
X161723557Y-63846466D01*
X161672037Y-63676627D01*
X161654641Y-63500000D01*
X161672037Y-63323373D01*
X161723557Y-63153534D01*
X161807222Y-62997009D01*
X161836552Y-62961271D01*
X161919814Y-62859814D01*
X162021271Y-62776552D01*
X162057009Y-62747222D01*
X162213534Y-62663557D01*
X162383373Y-62612037D01*
X162449558Y-62605518D01*
X162515740Y-62599000D01*
X162604260Y-62599000D01*
X162670442Y-62605518D01*
X162670442Y-62605518D01*
G37*
G36*
X143276468Y-62753565D02*
G01*
X143315138Y-62765296D01*
X143350777Y-62784346D01*
X143382017Y-62809983D01*
X143407654Y-62841223D01*
X143426704Y-62876862D01*
X143438435Y-62915532D01*
X143443000Y-62961888D01*
X143443000Y-64038112D01*
X143438435Y-64084468D01*
X143426704Y-64123138D01*
X143407654Y-64158777D01*
X143382017Y-64190017D01*
X143350777Y-64215654D01*
X143315138Y-64234704D01*
X143276468Y-64246435D01*
X143230112Y-64251000D01*
X142578888Y-64251000D01*
X142532532Y-64246435D01*
X142493862Y-64234704D01*
X142458223Y-64215654D01*
X142426983Y-64190017D01*
X142401346Y-64158777D01*
X142382296Y-64123138D01*
X142370565Y-64084468D01*
X142366000Y-64038112D01*
X142366000Y-62961888D01*
X142370565Y-62915532D01*
X142382296Y-62876862D01*
X142401346Y-62841223D01*
X142426983Y-62809983D01*
X142458223Y-62784346D01*
X142493862Y-62765296D01*
X142532532Y-62753565D01*
X142578888Y-62749000D01*
X143230112Y-62749000D01*
X143276468Y-62753565D01*
X143276468Y-62753565D01*
G37*
G36*
X145151468Y-62753565D02*
G01*
X145190138Y-62765296D01*
X145225777Y-62784346D01*
X145257017Y-62809983D01*
X145282654Y-62841223D01*
X145301704Y-62876862D01*
X145313435Y-62915532D01*
X145318000Y-62961888D01*
X145318000Y-64038112D01*
X145313435Y-64084468D01*
X145301704Y-64123138D01*
X145282654Y-64158777D01*
X145257017Y-64190017D01*
X145225777Y-64215654D01*
X145190138Y-64234704D01*
X145151468Y-64246435D01*
X145105112Y-64251000D01*
X144453888Y-64251000D01*
X144407532Y-64246435D01*
X144368862Y-64234704D01*
X144333223Y-64215654D01*
X144301983Y-64190017D01*
X144276346Y-64158777D01*
X144257296Y-64123138D01*
X144245565Y-64084468D01*
X144241000Y-64038112D01*
X144241000Y-62961888D01*
X144245565Y-62915532D01*
X144257296Y-62876862D01*
X144276346Y-62841223D01*
X144301983Y-62809983D01*
X144333223Y-62784346D01*
X144368862Y-62765296D01*
X144407532Y-62753565D01*
X144453888Y-62749000D01*
X145105112Y-62749000D01*
X145151468Y-62753565D01*
X145151468Y-62753565D01*
G37*
G36*
X151073000Y-63461000D02*
G01*
X150171000Y-63461000D01*
X150171000Y-62459000D01*
X151073000Y-62459000D01*
X151073000Y-63461000D01*
X151073000Y-63461000D01*
G37*
G36*
X149173000Y-63461000D02*
G01*
X148271000Y-63461000D01*
X148271000Y-62459000D01*
X149173000Y-62459000D01*
X149173000Y-63461000D01*
X149173000Y-63461000D01*
G37*
G36*
X165210442Y-60065518D02*
G01*
X165276627Y-60072037D01*
X165446466Y-60123557D01*
X165602991Y-60207222D01*
X165634434Y-60233027D01*
X165740186Y-60319814D01*
X165812884Y-60408398D01*
X165852778Y-60457009D01*
X165936443Y-60613534D01*
X165987963Y-60783373D01*
X166005359Y-60960000D01*
X165987963Y-61136627D01*
X165936443Y-61306466D01*
X165852778Y-61462991D01*
X165827101Y-61494278D01*
X165740186Y-61600186D01*
X165638729Y-61683448D01*
X165602991Y-61712778D01*
X165446466Y-61796443D01*
X165276627Y-61847963D01*
X165210443Y-61854481D01*
X165144260Y-61861000D01*
X165055740Y-61861000D01*
X164989557Y-61854481D01*
X164923373Y-61847963D01*
X164753534Y-61796443D01*
X164597009Y-61712778D01*
X164561271Y-61683448D01*
X164459814Y-61600186D01*
X164372899Y-61494278D01*
X164347222Y-61462991D01*
X164263557Y-61306466D01*
X164212037Y-61136627D01*
X164194641Y-60960000D01*
X164212037Y-60783373D01*
X164263557Y-60613534D01*
X164347222Y-60457009D01*
X164387116Y-60408398D01*
X164459814Y-60319814D01*
X164565566Y-60233027D01*
X164597009Y-60207222D01*
X164753534Y-60123557D01*
X164923373Y-60072037D01*
X164989558Y-60065518D01*
X165055740Y-60059000D01*
X165144260Y-60059000D01*
X165210442Y-60065518D01*
X165210442Y-60065518D01*
G37*
G36*
X163461000Y-61861000D02*
G01*
X161659000Y-61861000D01*
X161659000Y-60059000D01*
X163461000Y-60059000D01*
X163461000Y-61861000D01*
X163461000Y-61861000D01*
G37*
G36*
X140601000Y-61861000D02*
G01*
X138799000Y-61861000D01*
X138799000Y-60059000D01*
X140601000Y-60059000D01*
X140601000Y-61861000D01*
X140601000Y-61861000D01*
G37*
G36*
X137270442Y-60065518D02*
G01*
X137336627Y-60072037D01*
X137506466Y-60123557D01*
X137662991Y-60207222D01*
X137694434Y-60233027D01*
X137800186Y-60319814D01*
X137872884Y-60408398D01*
X137912778Y-60457009D01*
X137996443Y-60613534D01*
X138047963Y-60783373D01*
X138065359Y-60960000D01*
X138047963Y-61136627D01*
X137996443Y-61306466D01*
X137912778Y-61462991D01*
X137887101Y-61494278D01*
X137800186Y-61600186D01*
X137698729Y-61683448D01*
X137662991Y-61712778D01*
X137506466Y-61796443D01*
X137336627Y-61847963D01*
X137270443Y-61854481D01*
X137204260Y-61861000D01*
X137115740Y-61861000D01*
X137049557Y-61854481D01*
X136983373Y-61847963D01*
X136813534Y-61796443D01*
X136657009Y-61712778D01*
X136621271Y-61683448D01*
X136519814Y-61600186D01*
X136432899Y-61494278D01*
X136407222Y-61462991D01*
X136323557Y-61306466D01*
X136272037Y-61136627D01*
X136254641Y-60960000D01*
X136272037Y-60783373D01*
X136323557Y-60613534D01*
X136407222Y-60457009D01*
X136447116Y-60408398D01*
X136519814Y-60319814D01*
X136625566Y-60233027D01*
X136657009Y-60207222D01*
X136813534Y-60123557D01*
X136983373Y-60072037D01*
X137049558Y-60065518D01*
X137115740Y-60059000D01*
X137204260Y-60059000D01*
X137270442Y-60065518D01*
X137270442Y-60065518D01*
G37*
G36*
X143276468Y-60213565D02*
G01*
X143315138Y-60225296D01*
X143350777Y-60244346D01*
X143382017Y-60269983D01*
X143407654Y-60301223D01*
X143426704Y-60336862D01*
X143438435Y-60375532D01*
X143443000Y-60421888D01*
X143443000Y-61498112D01*
X143438435Y-61544468D01*
X143426704Y-61583138D01*
X143407654Y-61618777D01*
X143382017Y-61650017D01*
X143350777Y-61675654D01*
X143315138Y-61694704D01*
X143276468Y-61706435D01*
X143230112Y-61711000D01*
X142578888Y-61711000D01*
X142532532Y-61706435D01*
X142493862Y-61694704D01*
X142458223Y-61675654D01*
X142426983Y-61650017D01*
X142401346Y-61618777D01*
X142382296Y-61583138D01*
X142370565Y-61544468D01*
X142366000Y-61498112D01*
X142366000Y-60421888D01*
X142370565Y-60375532D01*
X142382296Y-60336862D01*
X142401346Y-60301223D01*
X142426983Y-60269983D01*
X142458223Y-60244346D01*
X142493862Y-60225296D01*
X142532532Y-60213565D01*
X142578888Y-60209000D01*
X143230112Y-60209000D01*
X143276468Y-60213565D01*
X143276468Y-60213565D01*
G37*
G36*
X145151468Y-60213565D02*
G01*
X145190138Y-60225296D01*
X145225777Y-60244346D01*
X145257017Y-60269983D01*
X145282654Y-60301223D01*
X145301704Y-60336862D01*
X145313435Y-60375532D01*
X145318000Y-60421888D01*
X145318000Y-61498112D01*
X145313435Y-61544468D01*
X145301704Y-61583138D01*
X145282654Y-61618777D01*
X145257017Y-61650017D01*
X145225777Y-61675654D01*
X145190138Y-61694704D01*
X145151468Y-61706435D01*
X145105112Y-61711000D01*
X144453888Y-61711000D01*
X144407532Y-61706435D01*
X144368862Y-61694704D01*
X144333223Y-61675654D01*
X144301983Y-61650017D01*
X144276346Y-61618777D01*
X144257296Y-61583138D01*
X144245565Y-61544468D01*
X144241000Y-61498112D01*
X144241000Y-60421888D01*
X144245565Y-60375532D01*
X144257296Y-60336862D01*
X144276346Y-60301223D01*
X144301983Y-60269983D01*
X144333223Y-60244346D01*
X144368862Y-60225296D01*
X144407532Y-60213565D01*
X144453888Y-60209000D01*
X145105112Y-60209000D01*
X145151468Y-60213565D01*
X145151468Y-60213565D01*
G37*
G36*
X153778015Y-59146973D02*
G01*
X153881879Y-59178479D01*
X153909055Y-59193005D01*
X153977600Y-59229643D01*
X154061501Y-59298499D01*
X154130357Y-59382400D01*
X154166995Y-59450945D01*
X154181521Y-59478121D01*
X154185388Y-59490869D01*
X154194760Y-59513496D01*
X154208374Y-59533870D01*
X154225701Y-59551197D01*
X154246075Y-59564811D01*
X154268714Y-59574188D01*
X154292747Y-59578969D01*
X154317251Y-59578969D01*
X154341285Y-59574189D01*
X154363924Y-59564812D01*
X154384298Y-59551198D01*
X154401625Y-59533871D01*
X154415239Y-59513497D01*
X154424612Y-59490869D01*
X154428479Y-59478121D01*
X154443005Y-59450945D01*
X154479643Y-59382400D01*
X154548499Y-59298499D01*
X154632400Y-59229643D01*
X154700945Y-59193005D01*
X154728121Y-59178479D01*
X154831985Y-59146973D01*
X154912933Y-59139000D01*
X154967067Y-59139000D01*
X155048015Y-59146973D01*
X155151879Y-59178479D01*
X155179055Y-59193005D01*
X155247600Y-59229643D01*
X155331501Y-59298499D01*
X155400357Y-59382400D01*
X155436995Y-59450945D01*
X155451521Y-59478121D01*
X155455388Y-59490869D01*
X155464760Y-59513496D01*
X155478374Y-59533870D01*
X155495701Y-59551197D01*
X155516075Y-59564811D01*
X155538714Y-59574188D01*
X155562747Y-59578969D01*
X155587251Y-59578969D01*
X155611285Y-59574189D01*
X155633924Y-59564812D01*
X155654298Y-59551198D01*
X155671625Y-59533871D01*
X155685239Y-59513497D01*
X155694612Y-59490869D01*
X155698479Y-59478121D01*
X155713005Y-59450945D01*
X155749643Y-59382400D01*
X155818499Y-59298499D01*
X155902400Y-59229643D01*
X155970945Y-59193005D01*
X155998121Y-59178479D01*
X156101985Y-59146973D01*
X156182933Y-59139000D01*
X156237067Y-59139000D01*
X156318015Y-59146973D01*
X156421879Y-59178479D01*
X156449055Y-59193005D01*
X156517600Y-59229643D01*
X156601501Y-59298499D01*
X156670357Y-59382400D01*
X156706995Y-59450945D01*
X156721521Y-59478121D01*
X156725388Y-59490869D01*
X156734760Y-59513496D01*
X156748374Y-59533870D01*
X156765701Y-59551197D01*
X156786075Y-59564811D01*
X156808714Y-59574188D01*
X156832747Y-59578969D01*
X156857251Y-59578969D01*
X156881285Y-59574189D01*
X156903924Y-59564812D01*
X156924298Y-59551198D01*
X156941625Y-59533871D01*
X156955239Y-59513497D01*
X156964612Y-59490869D01*
X156968479Y-59478121D01*
X156983005Y-59450945D01*
X157019643Y-59382400D01*
X157088499Y-59298499D01*
X157172400Y-59229643D01*
X157240945Y-59193005D01*
X157268121Y-59178479D01*
X157371985Y-59146973D01*
X157452933Y-59139000D01*
X157507067Y-59139000D01*
X157588015Y-59146973D01*
X157691879Y-59178479D01*
X157719055Y-59193005D01*
X157787600Y-59229643D01*
X157871501Y-59298499D01*
X157940357Y-59382400D01*
X157976995Y-59450945D01*
X157991521Y-59478121D01*
X157995388Y-59490869D01*
X158004760Y-59513496D01*
X158018374Y-59533870D01*
X158035701Y-59551197D01*
X158056075Y-59564811D01*
X158078714Y-59574188D01*
X158102747Y-59578969D01*
X158127251Y-59578969D01*
X158151285Y-59574189D01*
X158173924Y-59564812D01*
X158194298Y-59551198D01*
X158211625Y-59533871D01*
X158225239Y-59513497D01*
X158234612Y-59490869D01*
X158238479Y-59478121D01*
X158253005Y-59450945D01*
X158289643Y-59382400D01*
X158358499Y-59298499D01*
X158442400Y-59229643D01*
X158510945Y-59193005D01*
X158538121Y-59178479D01*
X158641985Y-59146973D01*
X158722933Y-59139000D01*
X158777067Y-59139000D01*
X158858015Y-59146973D01*
X158961879Y-59178479D01*
X158989055Y-59193005D01*
X159057600Y-59229643D01*
X159141501Y-59298499D01*
X159210357Y-59382400D01*
X159246995Y-59450945D01*
X159261521Y-59478121D01*
X159293027Y-59581985D01*
X159303666Y-59690000D01*
X159293027Y-59798015D01*
X159261521Y-59901879D01*
X159261519Y-59901882D01*
X159210357Y-59997600D01*
X159141501Y-60081501D01*
X159057600Y-60150357D01*
X159002014Y-60180068D01*
X158961879Y-60201521D01*
X158949131Y-60205388D01*
X158926504Y-60214760D01*
X158906130Y-60228374D01*
X158888803Y-60245701D01*
X158875189Y-60266075D01*
X158865812Y-60288714D01*
X158861031Y-60312747D01*
X158861031Y-60337251D01*
X158865811Y-60361285D01*
X158875188Y-60383924D01*
X158888802Y-60404298D01*
X158906129Y-60421625D01*
X158926503Y-60435239D01*
X158949131Y-60444612D01*
X158961879Y-60448479D01*
X158977837Y-60457009D01*
X159057600Y-60499643D01*
X159141501Y-60568499D01*
X159210357Y-60652400D01*
X159246995Y-60720945D01*
X159261521Y-60748121D01*
X159293027Y-60851985D01*
X159303666Y-60960000D01*
X159293027Y-61068015D01*
X159261521Y-61171879D01*
X159261191Y-61172496D01*
X159210357Y-61267600D01*
X159141501Y-61351501D01*
X159057600Y-61420357D01*
X158989055Y-61456995D01*
X158961879Y-61471521D01*
X158858015Y-61503027D01*
X158777067Y-61511000D01*
X158722933Y-61511000D01*
X158641985Y-61503027D01*
X158538121Y-61471521D01*
X158510945Y-61456995D01*
X158442400Y-61420357D01*
X158358499Y-61351501D01*
X158289643Y-61267600D01*
X158238809Y-61172496D01*
X158238479Y-61171879D01*
X158234612Y-61159131D01*
X158225240Y-61136504D01*
X158211626Y-61116130D01*
X158194299Y-61098803D01*
X158173925Y-61085189D01*
X158151286Y-61075812D01*
X158127253Y-61071031D01*
X158102749Y-61071031D01*
X158078715Y-61075811D01*
X158056076Y-61085188D01*
X158035702Y-61098802D01*
X158018375Y-61116129D01*
X158004761Y-61136503D01*
X157995388Y-61159131D01*
X157991521Y-61171879D01*
X157991191Y-61172496D01*
X157940357Y-61267600D01*
X157871501Y-61351501D01*
X157787600Y-61420357D01*
X157719055Y-61456995D01*
X157691879Y-61471521D01*
X157588015Y-61503027D01*
X157507067Y-61511000D01*
X157452933Y-61511000D01*
X157371985Y-61503027D01*
X157268121Y-61471521D01*
X157240945Y-61456995D01*
X157172400Y-61420357D01*
X157088499Y-61351501D01*
X157019643Y-61267600D01*
X156968809Y-61172496D01*
X156968479Y-61171879D01*
X156964612Y-61159131D01*
X156955240Y-61136504D01*
X156941626Y-61116130D01*
X156924299Y-61098803D01*
X156903925Y-61085189D01*
X156881286Y-61075812D01*
X156857253Y-61071031D01*
X156832749Y-61071031D01*
X156808715Y-61075811D01*
X156786076Y-61085188D01*
X156765702Y-61098802D01*
X156748375Y-61116129D01*
X156734761Y-61136503D01*
X156725388Y-61159131D01*
X156721521Y-61171879D01*
X156721191Y-61172496D01*
X156670357Y-61267600D01*
X156601501Y-61351501D01*
X156517600Y-61420357D01*
X156449055Y-61456995D01*
X156421879Y-61471521D01*
X156318015Y-61503027D01*
X156237067Y-61511000D01*
X156182933Y-61511000D01*
X156101985Y-61503027D01*
X155998121Y-61471521D01*
X155970945Y-61456995D01*
X155902400Y-61420357D01*
X155818499Y-61351501D01*
X155749643Y-61267600D01*
X155698809Y-61172496D01*
X155698479Y-61171879D01*
X155694612Y-61159131D01*
X155685240Y-61136504D01*
X155671626Y-61116130D01*
X155654299Y-61098803D01*
X155633925Y-61085189D01*
X155611286Y-61075812D01*
X155587253Y-61071031D01*
X155562749Y-61071031D01*
X155538715Y-61075811D01*
X155516076Y-61085188D01*
X155495702Y-61098802D01*
X155478375Y-61116129D01*
X155464761Y-61136503D01*
X155455388Y-61159131D01*
X155451521Y-61171879D01*
X155451191Y-61172496D01*
X155400357Y-61267600D01*
X155331501Y-61351501D01*
X155247600Y-61420357D01*
X155179055Y-61456995D01*
X155151879Y-61471521D01*
X155048015Y-61503027D01*
X154967067Y-61511000D01*
X154912933Y-61511000D01*
X154831985Y-61503027D01*
X154728121Y-61471521D01*
X154700945Y-61456995D01*
X154632400Y-61420357D01*
X154548499Y-61351501D01*
X154479645Y-61267601D01*
X154479644Y-61267600D01*
X154456236Y-61223807D01*
X154442625Y-61203437D01*
X154425298Y-61186110D01*
X154404924Y-61172496D01*
X154382285Y-61163119D01*
X154358252Y-61158338D01*
X154333748Y-61158338D01*
X154309714Y-61163118D01*
X154287076Y-61172495D01*
X154266701Y-61186109D01*
X154249374Y-61203436D01*
X154235760Y-61223810D01*
X154226383Y-61246449D01*
X154221602Y-61270482D01*
X154221000Y-61282735D01*
X154221000Y-61511000D01*
X153119000Y-61511000D01*
X153119000Y-60409000D01*
X153347265Y-60409000D01*
X153371651Y-60406598D01*
X153395100Y-60399485D01*
X153416711Y-60387934D01*
X153435653Y-60372389D01*
X153451198Y-60353447D01*
X153462749Y-60331836D01*
X153469862Y-60308387D01*
X153472264Y-60284001D01*
X153471058Y-60271748D01*
X153868338Y-60271748D01*
X153868338Y-60296252D01*
X153873118Y-60320286D01*
X153882495Y-60342924D01*
X153896109Y-60363299D01*
X153913436Y-60380626D01*
X153933810Y-60394240D01*
X153956449Y-60403617D01*
X153980482Y-60408398D01*
X153992735Y-60409000D01*
X154221000Y-60409000D01*
X154221000Y-60637265D01*
X154223402Y-60661651D01*
X154230515Y-60685100D01*
X154242066Y-60706711D01*
X154257611Y-60725653D01*
X154276553Y-60741198D01*
X154298164Y-60752749D01*
X154321613Y-60759862D01*
X154345999Y-60762264D01*
X154370385Y-60759862D01*
X154393834Y-60752749D01*
X154415445Y-60741198D01*
X154434387Y-60725653D01*
X154449932Y-60706711D01*
X154456233Y-60696198D01*
X154479644Y-60652400D01*
X154548499Y-60568499D01*
X154632400Y-60499643D01*
X154712163Y-60457009D01*
X154728121Y-60448479D01*
X154740869Y-60444612D01*
X154763496Y-60435240D01*
X154783870Y-60421626D01*
X154801197Y-60404299D01*
X154814811Y-60383925D01*
X154824188Y-60361286D01*
X154828969Y-60337253D01*
X154828969Y-60312749D01*
X154828969Y-60312747D01*
X155051031Y-60312747D01*
X155051031Y-60337251D01*
X155055811Y-60361285D01*
X155065188Y-60383924D01*
X155078802Y-60404298D01*
X155096129Y-60421625D01*
X155116503Y-60435239D01*
X155139131Y-60444612D01*
X155151879Y-60448479D01*
X155167837Y-60457009D01*
X155247600Y-60499643D01*
X155331501Y-60568499D01*
X155400357Y-60652400D01*
X155436995Y-60720945D01*
X155451521Y-60748121D01*
X155455388Y-60760869D01*
X155464760Y-60783496D01*
X155478374Y-60803870D01*
X155495701Y-60821197D01*
X155516075Y-60834811D01*
X155538714Y-60844188D01*
X155562747Y-60848969D01*
X155587251Y-60848969D01*
X155611285Y-60844189D01*
X155633924Y-60834812D01*
X155654298Y-60821198D01*
X155671625Y-60803871D01*
X155685239Y-60783497D01*
X155694612Y-60760869D01*
X155698479Y-60748121D01*
X155713005Y-60720945D01*
X155749643Y-60652400D01*
X155818499Y-60568499D01*
X155902400Y-60499643D01*
X155982163Y-60457009D01*
X155998121Y-60448479D01*
X156010869Y-60444612D01*
X156033496Y-60435240D01*
X156053870Y-60421626D01*
X156071197Y-60404299D01*
X156084811Y-60383925D01*
X156094188Y-60361286D01*
X156098969Y-60337253D01*
X156098969Y-60312749D01*
X156098969Y-60312747D01*
X156321031Y-60312747D01*
X156321031Y-60337251D01*
X156325811Y-60361285D01*
X156335188Y-60383924D01*
X156348802Y-60404298D01*
X156366129Y-60421625D01*
X156386503Y-60435239D01*
X156409131Y-60444612D01*
X156421879Y-60448479D01*
X156437837Y-60457009D01*
X156517600Y-60499643D01*
X156601501Y-60568499D01*
X156670357Y-60652400D01*
X156706995Y-60720945D01*
X156721521Y-60748121D01*
X156725388Y-60760869D01*
X156734760Y-60783496D01*
X156748374Y-60803870D01*
X156765701Y-60821197D01*
X156786075Y-60834811D01*
X156808714Y-60844188D01*
X156832747Y-60848969D01*
X156857251Y-60848969D01*
X156881285Y-60844189D01*
X156903924Y-60834812D01*
X156924298Y-60821198D01*
X156941625Y-60803871D01*
X156955239Y-60783497D01*
X156964612Y-60760869D01*
X156968479Y-60748121D01*
X156983005Y-60720945D01*
X157019643Y-60652400D01*
X157088499Y-60568499D01*
X157172400Y-60499643D01*
X157252163Y-60457009D01*
X157268121Y-60448479D01*
X157280869Y-60444612D01*
X157303496Y-60435240D01*
X157323870Y-60421626D01*
X157341197Y-60404299D01*
X157354811Y-60383925D01*
X157364188Y-60361286D01*
X157368969Y-60337253D01*
X157368969Y-60312749D01*
X157368969Y-60312747D01*
X157591031Y-60312747D01*
X157591031Y-60337251D01*
X157595811Y-60361285D01*
X157605188Y-60383924D01*
X157618802Y-60404298D01*
X157636129Y-60421625D01*
X157656503Y-60435239D01*
X157679131Y-60444612D01*
X157691879Y-60448479D01*
X157707837Y-60457009D01*
X157787600Y-60499643D01*
X157871501Y-60568499D01*
X157940357Y-60652400D01*
X157976995Y-60720945D01*
X157991521Y-60748121D01*
X157995388Y-60760869D01*
X158004760Y-60783496D01*
X158018374Y-60803870D01*
X158035701Y-60821197D01*
X158056075Y-60834811D01*
X158078714Y-60844188D01*
X158102747Y-60848969D01*
X158127251Y-60848969D01*
X158151285Y-60844189D01*
X158173924Y-60834812D01*
X158194298Y-60821198D01*
X158211625Y-60803871D01*
X158225239Y-60783497D01*
X158234612Y-60760869D01*
X158238479Y-60748121D01*
X158253005Y-60720945D01*
X158289643Y-60652400D01*
X158358499Y-60568499D01*
X158442400Y-60499643D01*
X158522163Y-60457009D01*
X158538121Y-60448479D01*
X158550869Y-60444612D01*
X158573496Y-60435240D01*
X158593870Y-60421626D01*
X158611197Y-60404299D01*
X158624811Y-60383925D01*
X158634188Y-60361286D01*
X158638969Y-60337253D01*
X158638969Y-60312749D01*
X158634189Y-60288715D01*
X158624812Y-60266076D01*
X158611198Y-60245702D01*
X158593871Y-60228375D01*
X158573497Y-60214761D01*
X158550869Y-60205388D01*
X158538121Y-60201521D01*
X158497986Y-60180068D01*
X158442400Y-60150357D01*
X158358499Y-60081501D01*
X158289643Y-59997600D01*
X158238481Y-59901882D01*
X158238479Y-59901879D01*
X158234612Y-59889131D01*
X158225240Y-59866504D01*
X158211626Y-59846130D01*
X158194299Y-59828803D01*
X158173925Y-59815189D01*
X158151286Y-59805812D01*
X158127253Y-59801031D01*
X158102749Y-59801031D01*
X158078715Y-59805811D01*
X158056076Y-59815188D01*
X158035702Y-59828802D01*
X158018375Y-59846129D01*
X158004761Y-59866503D01*
X157995388Y-59889131D01*
X157991521Y-59901879D01*
X157991519Y-59901882D01*
X157940357Y-59997600D01*
X157871501Y-60081501D01*
X157787600Y-60150357D01*
X157732014Y-60180068D01*
X157691879Y-60201521D01*
X157679131Y-60205388D01*
X157656504Y-60214760D01*
X157636130Y-60228374D01*
X157618803Y-60245701D01*
X157605189Y-60266075D01*
X157595812Y-60288714D01*
X157591031Y-60312747D01*
X157368969Y-60312747D01*
X157364189Y-60288715D01*
X157354812Y-60266076D01*
X157341198Y-60245702D01*
X157323871Y-60228375D01*
X157303497Y-60214761D01*
X157280869Y-60205388D01*
X157268121Y-60201521D01*
X157227986Y-60180068D01*
X157172400Y-60150357D01*
X157088499Y-60081501D01*
X157019643Y-59997600D01*
X156968481Y-59901882D01*
X156968479Y-59901879D01*
X156964612Y-59889131D01*
X156955240Y-59866504D01*
X156941626Y-59846130D01*
X156924299Y-59828803D01*
X156903925Y-59815189D01*
X156881286Y-59805812D01*
X156857253Y-59801031D01*
X156832749Y-59801031D01*
X156808715Y-59805811D01*
X156786076Y-59815188D01*
X156765702Y-59828802D01*
X156748375Y-59846129D01*
X156734761Y-59866503D01*
X156725388Y-59889131D01*
X156721521Y-59901879D01*
X156721519Y-59901882D01*
X156670357Y-59997600D01*
X156601501Y-60081501D01*
X156517600Y-60150357D01*
X156462014Y-60180068D01*
X156421879Y-60201521D01*
X156409131Y-60205388D01*
X156386504Y-60214760D01*
X156366130Y-60228374D01*
X156348803Y-60245701D01*
X156335189Y-60266075D01*
X156325812Y-60288714D01*
X156321031Y-60312747D01*
X156098969Y-60312747D01*
X156094189Y-60288715D01*
X156084812Y-60266076D01*
X156071198Y-60245702D01*
X156053871Y-60228375D01*
X156033497Y-60214761D01*
X156010869Y-60205388D01*
X155998121Y-60201521D01*
X155957986Y-60180068D01*
X155902400Y-60150357D01*
X155818499Y-60081501D01*
X155749643Y-59997600D01*
X155698481Y-59901882D01*
X155698479Y-59901879D01*
X155694612Y-59889131D01*
X155685240Y-59866504D01*
X155671626Y-59846130D01*
X155654299Y-59828803D01*
X155633925Y-59815189D01*
X155611286Y-59805812D01*
X155587253Y-59801031D01*
X155562749Y-59801031D01*
X155538715Y-59805811D01*
X155516076Y-59815188D01*
X155495702Y-59828802D01*
X155478375Y-59846129D01*
X155464761Y-59866503D01*
X155455388Y-59889131D01*
X155451521Y-59901879D01*
X155451519Y-59901882D01*
X155400357Y-59997600D01*
X155331501Y-60081501D01*
X155247600Y-60150357D01*
X155192014Y-60180068D01*
X155151879Y-60201521D01*
X155139131Y-60205388D01*
X155116504Y-60214760D01*
X155096130Y-60228374D01*
X155078803Y-60245701D01*
X155065189Y-60266075D01*
X155055812Y-60288714D01*
X155051031Y-60312747D01*
X154828969Y-60312747D01*
X154824189Y-60288715D01*
X154814812Y-60266076D01*
X154801198Y-60245702D01*
X154783871Y-60228375D01*
X154763497Y-60214761D01*
X154740869Y-60205388D01*
X154728121Y-60201521D01*
X154687986Y-60180068D01*
X154632400Y-60150357D01*
X154548499Y-60081501D01*
X154479643Y-59997600D01*
X154428481Y-59901882D01*
X154428479Y-59901879D01*
X154424612Y-59889131D01*
X154415240Y-59866504D01*
X154401626Y-59846130D01*
X154384299Y-59828803D01*
X154363925Y-59815189D01*
X154341286Y-59805812D01*
X154317253Y-59801031D01*
X154292749Y-59801031D01*
X154268715Y-59805811D01*
X154246076Y-59815188D01*
X154225702Y-59828802D01*
X154208375Y-59846129D01*
X154194761Y-59866503D01*
X154185388Y-59889131D01*
X154181521Y-59901879D01*
X154181519Y-59901882D01*
X154130357Y-59997600D01*
X154079967Y-60059000D01*
X154061501Y-60081501D01*
X153977600Y-60150356D01*
X153933807Y-60173764D01*
X153913437Y-60187375D01*
X153896110Y-60204702D01*
X153882496Y-60225076D01*
X153873119Y-60247715D01*
X153868338Y-60271748D01*
X153471058Y-60271748D01*
X153469862Y-60259615D01*
X153462749Y-60236166D01*
X153451198Y-60214555D01*
X153435653Y-60195613D01*
X153416711Y-60180068D01*
X153406198Y-60173767D01*
X153362400Y-60150356D01*
X153278499Y-60081501D01*
X153260033Y-60059000D01*
X153209643Y-59997600D01*
X153158481Y-59901882D01*
X153158479Y-59901879D01*
X153126973Y-59798015D01*
X153116334Y-59690000D01*
X153126973Y-59581985D01*
X153158479Y-59478121D01*
X153173005Y-59450945D01*
X153209643Y-59382400D01*
X153278499Y-59298499D01*
X153362400Y-59229643D01*
X153430945Y-59193005D01*
X153458121Y-59178479D01*
X153561985Y-59146973D01*
X153642933Y-59139000D01*
X153697067Y-59139000D01*
X153778015Y-59146973D01*
X153778015Y-59146973D01*
G37*
G36*
X150123000Y-61461000D02*
G01*
X149221000Y-61461000D01*
X149221000Y-60459000D01*
X150123000Y-60459000D01*
X150123000Y-61461000D01*
X150123000Y-61461000D01*
G37*
G36*
X165210443Y-57525519D02*
G01*
X165276627Y-57532037D01*
X165446466Y-57583557D01*
X165602991Y-57667222D01*
X165638729Y-57696552D01*
X165740186Y-57779814D01*
X165823448Y-57881271D01*
X165852778Y-57917009D01*
X165936443Y-58073534D01*
X165987963Y-58243373D01*
X166005359Y-58420000D01*
X165987963Y-58596627D01*
X165936443Y-58766466D01*
X165852778Y-58922991D01*
X165823448Y-58958729D01*
X165740186Y-59060186D01*
X165644149Y-59139000D01*
X165602991Y-59172778D01*
X165446466Y-59256443D01*
X165276627Y-59307963D01*
X165210442Y-59314482D01*
X165144260Y-59321000D01*
X165055740Y-59321000D01*
X164989558Y-59314482D01*
X164923373Y-59307963D01*
X164753534Y-59256443D01*
X164597009Y-59172778D01*
X164555851Y-59139000D01*
X164459814Y-59060186D01*
X164376552Y-58958729D01*
X164347222Y-58922991D01*
X164263557Y-58766466D01*
X164212037Y-58596627D01*
X164194641Y-58420000D01*
X164212037Y-58243373D01*
X164263557Y-58073534D01*
X164347222Y-57917009D01*
X164376552Y-57881271D01*
X164459814Y-57779814D01*
X164561271Y-57696552D01*
X164597009Y-57667222D01*
X164753534Y-57583557D01*
X164923373Y-57532037D01*
X164989557Y-57525519D01*
X165055740Y-57519000D01*
X165144260Y-57519000D01*
X165210443Y-57525519D01*
X165210443Y-57525519D01*
G37*
G36*
X137270443Y-57525519D02*
G01*
X137336627Y-57532037D01*
X137506466Y-57583557D01*
X137662991Y-57667222D01*
X137698729Y-57696552D01*
X137800186Y-57779814D01*
X137883448Y-57881271D01*
X137912778Y-57917009D01*
X137996443Y-58073534D01*
X138047963Y-58243373D01*
X138065359Y-58420000D01*
X138047963Y-58596627D01*
X137996443Y-58766466D01*
X137912778Y-58922991D01*
X137883448Y-58958729D01*
X137800186Y-59060186D01*
X137704149Y-59139000D01*
X137662991Y-59172778D01*
X137506466Y-59256443D01*
X137336627Y-59307963D01*
X137270442Y-59314482D01*
X137204260Y-59321000D01*
X137115740Y-59321000D01*
X137049558Y-59314482D01*
X136983373Y-59307963D01*
X136813534Y-59256443D01*
X136657009Y-59172778D01*
X136615851Y-59139000D01*
X136519814Y-59060186D01*
X136436552Y-58958729D01*
X136407222Y-58922991D01*
X136323557Y-58766466D01*
X136272037Y-58596627D01*
X136254641Y-58420000D01*
X136272037Y-58243373D01*
X136323557Y-58073534D01*
X136407222Y-57917009D01*
X136436552Y-57881271D01*
X136519814Y-57779814D01*
X136621271Y-57696552D01*
X136657009Y-57667222D01*
X136813534Y-57583557D01*
X136983373Y-57532037D01*
X137049557Y-57525519D01*
X137115740Y-57519000D01*
X137204260Y-57519000D01*
X137270443Y-57525519D01*
X137270443Y-57525519D01*
G37*
G36*
X147368410Y-54965525D02*
G01*
X147453426Y-54991314D01*
X147531775Y-55033193D01*
X147600449Y-55089551D01*
X147656807Y-55158225D01*
X147698686Y-55236574D01*
X147724475Y-55321590D01*
X147733182Y-55410000D01*
X147724475Y-55498413D01*
X147707454Y-55554522D01*
X147702673Y-55578556D01*
X147702673Y-55603060D01*
X147707453Y-55627093D01*
X147716831Y-55649732D01*
X147730444Y-55670106D01*
X147747771Y-55687433D01*
X147768146Y-55701047D01*
X147790784Y-55710424D01*
X147814818Y-55715205D01*
X147839322Y-55715205D01*
X147863355Y-55710425D01*
X147885994Y-55701047D01*
X147906368Y-55687434D01*
X147923695Y-55670107D01*
X147953628Y-55633634D01*
X148071797Y-55536655D01*
X148206599Y-55464602D01*
X148352880Y-55420228D01*
X148505000Y-55405246D01*
X148657121Y-55420228D01*
X148803402Y-55464602D01*
X148938204Y-55536655D01*
X148938207Y-55536657D01*
X148938208Y-55536658D01*
X149056369Y-55633631D01*
X149141902Y-55737852D01*
X149153345Y-55751796D01*
X149225398Y-55886598D01*
X149269772Y-56032879D01*
X149281000Y-56146882D01*
X149281000Y-56773118D01*
X149269772Y-56887121D01*
X149225398Y-57033402D01*
X149153345Y-57168204D01*
X149056367Y-57286372D01*
X148938206Y-57383343D01*
X148803401Y-57455398D01*
X148657120Y-57499772D01*
X148505000Y-57514754D01*
X148352879Y-57499772D01*
X148206598Y-57455398D01*
X148071796Y-57383345D01*
X147953628Y-57286367D01*
X147856657Y-57168206D01*
X147784602Y-57033401D01*
X147740228Y-56887120D01*
X147729000Y-56773117D01*
X147729000Y-56146882D01*
X147740228Y-56032879D01*
X147786843Y-55879210D01*
X147790346Y-55870751D01*
X147795124Y-55846717D01*
X147795122Y-55822213D01*
X147790339Y-55798180D01*
X147780959Y-55775542D01*
X147767344Y-55755169D01*
X147750015Y-55737844D01*
X147729639Y-55724232D01*
X147707000Y-55714857D01*
X147682966Y-55710079D01*
X147658462Y-55710081D01*
X147634429Y-55714864D01*
X147611791Y-55724244D01*
X147591428Y-55737851D01*
X147531775Y-55786807D01*
X147453426Y-55828686D01*
X147368410Y-55854475D01*
X147302158Y-55861000D01*
X147257842Y-55861000D01*
X147191590Y-55854475D01*
X147106574Y-55828686D01*
X147028225Y-55786807D01*
X146959551Y-55730449D01*
X146903193Y-55661775D01*
X146861314Y-55583426D01*
X146835525Y-55498410D01*
X146826818Y-55410000D01*
X146835525Y-55321590D01*
X146861314Y-55236574D01*
X146903193Y-55158225D01*
X146959551Y-55089551D01*
X147028225Y-55033193D01*
X147106574Y-54991314D01*
X147191590Y-54965525D01*
X147257842Y-54959000D01*
X147302158Y-54959000D01*
X147368410Y-54965525D01*
X147368410Y-54965525D01*
G37*
G36*
X142368410Y-54965525D02*
G01*
X142453426Y-54991314D01*
X142531775Y-55033193D01*
X142600449Y-55089551D01*
X142656807Y-55158225D01*
X142698686Y-55236574D01*
X142724475Y-55321590D01*
X142733182Y-55410000D01*
X142724475Y-55498410D01*
X142698686Y-55583426D01*
X142656807Y-55661775D01*
X142600449Y-55730449D01*
X142531775Y-55786807D01*
X142453426Y-55828686D01*
X142368410Y-55854475D01*
X142302158Y-55861000D01*
X142257842Y-55861000D01*
X142191590Y-55854475D01*
X142106574Y-55828686D01*
X142028225Y-55786807D01*
X141968572Y-55737851D01*
X141948198Y-55724238D01*
X141925559Y-55714860D01*
X141901526Y-55710080D01*
X141877022Y-55710080D01*
X141852988Y-55714861D01*
X141830350Y-55724238D01*
X141809975Y-55737852D01*
X141792648Y-55755179D01*
X141779035Y-55775553D01*
X141769657Y-55798192D01*
X141764877Y-55822225D01*
X141764877Y-55846729D01*
X141769658Y-55870763D01*
X141773159Y-55879216D01*
X141819772Y-56032879D01*
X141831000Y-56146882D01*
X141831000Y-56773118D01*
X141819772Y-56887121D01*
X141775398Y-57033402D01*
X141703345Y-57168204D01*
X141606367Y-57286372D01*
X141488206Y-57383343D01*
X141353401Y-57455398D01*
X141207120Y-57499772D01*
X141055000Y-57514754D01*
X140902879Y-57499772D01*
X140756598Y-57455398D01*
X140621796Y-57383345D01*
X140503628Y-57286367D01*
X140406657Y-57168206D01*
X140334602Y-57033401D01*
X140290228Y-56887120D01*
X140279000Y-56773117D01*
X140279000Y-56146882D01*
X140290228Y-56032879D01*
X140334601Y-55886600D01*
X140406657Y-55751794D01*
X140503632Y-55633631D01*
X140540883Y-55603060D01*
X140621793Y-55536658D01*
X140621794Y-55536657D01*
X140621797Y-55536655D01*
X140756599Y-55464602D01*
X140902880Y-55420228D01*
X141055000Y-55405246D01*
X141207121Y-55420228D01*
X141353402Y-55464602D01*
X141488204Y-55536655D01*
X141488207Y-55536657D01*
X141488208Y-55536658D01*
X141545195Y-55583426D01*
X141606371Y-55633633D01*
X141636303Y-55670105D01*
X141653630Y-55687432D01*
X141674004Y-55701046D01*
X141696643Y-55710423D01*
X141720676Y-55715204D01*
X141745180Y-55715204D01*
X141769213Y-55710424D01*
X141791852Y-55701047D01*
X141812227Y-55687433D01*
X141829554Y-55670106D01*
X141843168Y-55649732D01*
X141852545Y-55627093D01*
X141857326Y-55603060D01*
X141857326Y-55578556D01*
X141852546Y-55554523D01*
X141835525Y-55498412D01*
X141826818Y-55410000D01*
X141835525Y-55321590D01*
X141861314Y-55236574D01*
X141903193Y-55158225D01*
X141959551Y-55089551D01*
X142028225Y-55033193D01*
X142106574Y-54991314D01*
X142191590Y-54965525D01*
X142257842Y-54959000D01*
X142302158Y-54959000D01*
X142368410Y-54965525D01*
X142368410Y-54965525D01*
G37*
G36*
X146356000Y-57211000D02*
G01*
X143204000Y-57211000D01*
X143204000Y-55809000D01*
X146356000Y-55809000D01*
X146356000Y-57211000D01*
X146356000Y-57211000D01*
G37*
G36*
X166001000Y-56781000D02*
G01*
X164199000Y-56781000D01*
X164199000Y-54979000D01*
X166001000Y-54979000D01*
X166001000Y-56781000D01*
X166001000Y-56781000D01*
G37*
G36*
X157590443Y-54985519D02*
G01*
X157656627Y-54992037D01*
X157826466Y-55043557D01*
X157982991Y-55127222D01*
X158018729Y-55156552D01*
X158120186Y-55239814D01*
X158203448Y-55341271D01*
X158232778Y-55377009D01*
X158316443Y-55533534D01*
X158367963Y-55703373D01*
X158385359Y-55880000D01*
X158367963Y-56056627D01*
X158316443Y-56226466D01*
X158232778Y-56382991D01*
X158203448Y-56418729D01*
X158120186Y-56520186D01*
X158018729Y-56603448D01*
X157982991Y-56632778D01*
X157826466Y-56716443D01*
X157656627Y-56767963D01*
X157590443Y-56774481D01*
X157524260Y-56781000D01*
X157435740Y-56781000D01*
X157369557Y-56774481D01*
X157303373Y-56767963D01*
X157133534Y-56716443D01*
X156977009Y-56632778D01*
X156941271Y-56603448D01*
X156839814Y-56520186D01*
X156756552Y-56418729D01*
X156727222Y-56382991D01*
X156643557Y-56226466D01*
X156592037Y-56056627D01*
X156574641Y-55880000D01*
X156592037Y-55703373D01*
X156643557Y-55533534D01*
X156727222Y-55377009D01*
X156756552Y-55341271D01*
X156839814Y-55239814D01*
X156941271Y-55156552D01*
X156977009Y-55127222D01*
X157133534Y-55043557D01*
X157303373Y-54992037D01*
X157369557Y-54985519D01*
X157435740Y-54979000D01*
X157524260Y-54979000D01*
X157590443Y-54985519D01*
X157590443Y-54985519D01*
G37*
G36*
X163461000Y-56781000D02*
G01*
X161659000Y-56781000D01*
X161659000Y-54979000D01*
X163461000Y-54979000D01*
X163461000Y-56781000D01*
X163461000Y-56781000D01*
G37*
G36*
X138061000Y-56781000D02*
G01*
X136259000Y-56781000D01*
X136259000Y-54979000D01*
X138061000Y-54979000D01*
X138061000Y-56781000D01*
X138061000Y-56781000D01*
G37*
G36*
X160130443Y-54985519D02*
G01*
X160196627Y-54992037D01*
X160366466Y-55043557D01*
X160522991Y-55127222D01*
X160558729Y-55156552D01*
X160660186Y-55239814D01*
X160743448Y-55341271D01*
X160772778Y-55377009D01*
X160856443Y-55533534D01*
X160907963Y-55703373D01*
X160925359Y-55880000D01*
X160907963Y-56056627D01*
X160856443Y-56226466D01*
X160772778Y-56382991D01*
X160743448Y-56418729D01*
X160660186Y-56520186D01*
X160558729Y-56603448D01*
X160522991Y-56632778D01*
X160366466Y-56716443D01*
X160196627Y-56767963D01*
X160130443Y-56774481D01*
X160064260Y-56781000D01*
X159975740Y-56781000D01*
X159909557Y-56774481D01*
X159843373Y-56767963D01*
X159673534Y-56716443D01*
X159517009Y-56632778D01*
X159481271Y-56603448D01*
X159379814Y-56520186D01*
X159296552Y-56418729D01*
X159267222Y-56382991D01*
X159183557Y-56226466D01*
X159132037Y-56056627D01*
X159114641Y-55880000D01*
X159132037Y-55703373D01*
X159183557Y-55533534D01*
X159267222Y-55377009D01*
X159296552Y-55341271D01*
X159379814Y-55239814D01*
X159481271Y-55156552D01*
X159517009Y-55127222D01*
X159673534Y-55043557D01*
X159843373Y-54992037D01*
X159909557Y-54985519D01*
X159975740Y-54979000D01*
X160064260Y-54979000D01*
X160130443Y-54985519D01*
X160130443Y-54985519D01*
G37*
G36*
X155050443Y-54985519D02*
G01*
X155116627Y-54992037D01*
X155286466Y-55043557D01*
X155442991Y-55127222D01*
X155478729Y-55156552D01*
X155580186Y-55239814D01*
X155663448Y-55341271D01*
X155692778Y-55377009D01*
X155776443Y-55533534D01*
X155827963Y-55703373D01*
X155845359Y-55880000D01*
X155827963Y-56056627D01*
X155776443Y-56226466D01*
X155692778Y-56382991D01*
X155663448Y-56418729D01*
X155580186Y-56520186D01*
X155478729Y-56603448D01*
X155442991Y-56632778D01*
X155286466Y-56716443D01*
X155116627Y-56767963D01*
X155050443Y-56774481D01*
X154984260Y-56781000D01*
X154895740Y-56781000D01*
X154829557Y-56774481D01*
X154763373Y-56767963D01*
X154593534Y-56716443D01*
X154437009Y-56632778D01*
X154401271Y-56603448D01*
X154299814Y-56520186D01*
X154216552Y-56418729D01*
X154187222Y-56382991D01*
X154103557Y-56226466D01*
X154052037Y-56056627D01*
X154034641Y-55880000D01*
X154052037Y-55703373D01*
X154103557Y-55533534D01*
X154187222Y-55377009D01*
X154216552Y-55341271D01*
X154299814Y-55239814D01*
X154401271Y-55156552D01*
X154437009Y-55127222D01*
X154593534Y-55043557D01*
X154763373Y-54992037D01*
X154829557Y-54985519D01*
X154895740Y-54979000D01*
X154984260Y-54979000D01*
X155050443Y-54985519D01*
X155050443Y-54985519D01*
G37*
G36*
X152510443Y-54985519D02*
G01*
X152576627Y-54992037D01*
X152746466Y-55043557D01*
X152902991Y-55127222D01*
X152938729Y-55156552D01*
X153040186Y-55239814D01*
X153123448Y-55341271D01*
X153152778Y-55377009D01*
X153236443Y-55533534D01*
X153287963Y-55703373D01*
X153305359Y-55880000D01*
X153287963Y-56056627D01*
X153236443Y-56226466D01*
X153152778Y-56382991D01*
X153123448Y-56418729D01*
X153040186Y-56520186D01*
X152938729Y-56603448D01*
X152902991Y-56632778D01*
X152746466Y-56716443D01*
X152576627Y-56767963D01*
X152510443Y-56774481D01*
X152444260Y-56781000D01*
X152355740Y-56781000D01*
X152289557Y-56774481D01*
X152223373Y-56767963D01*
X152053534Y-56716443D01*
X151897009Y-56632778D01*
X151861271Y-56603448D01*
X151759814Y-56520186D01*
X151676552Y-56418729D01*
X151647222Y-56382991D01*
X151563557Y-56226466D01*
X151512037Y-56056627D01*
X151494641Y-55880000D01*
X151512037Y-55703373D01*
X151563557Y-55533534D01*
X151647222Y-55377009D01*
X151676552Y-55341271D01*
X151759814Y-55239814D01*
X151861271Y-55156552D01*
X151897009Y-55127222D01*
X152053534Y-55043557D01*
X152223373Y-54992037D01*
X152289557Y-54985519D01*
X152355740Y-54979000D01*
X152444260Y-54979000D01*
X152510443Y-54985519D01*
X152510443Y-54985519D01*
G37*
G36*
X167864549Y-52211116D02*
G01*
X167975734Y-52233232D01*
X168185203Y-52319997D01*
X168373720Y-52445960D01*
X168534040Y-52606280D01*
X168660003Y-52794797D01*
X168746768Y-53004266D01*
X168767345Y-53107714D01*
X168791000Y-53226635D01*
X168791000Y-53453365D01*
X168768884Y-53564549D01*
X168746768Y-53675734D01*
X168660003Y-53885203D01*
X168534040Y-54073720D01*
X168373720Y-54234040D01*
X168185203Y-54360003D01*
X167975734Y-54446768D01*
X167864549Y-54468884D01*
X167753365Y-54491000D01*
X167526635Y-54491000D01*
X167415451Y-54468884D01*
X167304266Y-54446768D01*
X167094797Y-54360003D01*
X166906280Y-54234040D01*
X166745960Y-54073720D01*
X166619997Y-53885203D01*
X166533232Y-53675734D01*
X166511116Y-53564549D01*
X166489000Y-53453365D01*
X166489000Y-53226635D01*
X166512655Y-53107714D01*
X166533232Y-53004266D01*
X166619997Y-52794797D01*
X166745960Y-52606280D01*
X166906280Y-52445960D01*
X167094797Y-52319997D01*
X167304266Y-52233232D01*
X167415451Y-52211116D01*
X167526635Y-52189000D01*
X167753365Y-52189000D01*
X167864549Y-52211116D01*
X167864549Y-52211116D01*
G37*
G36*
X134844549Y-52211116D02*
G01*
X134955734Y-52233232D01*
X135165203Y-52319997D01*
X135353720Y-52445960D01*
X135514040Y-52606280D01*
X135640003Y-52794797D01*
X135726768Y-53004266D01*
X135747345Y-53107714D01*
X135771000Y-53226635D01*
X135771000Y-53453365D01*
X135748884Y-53564549D01*
X135726768Y-53675734D01*
X135640003Y-53885203D01*
X135514040Y-54073720D01*
X135353720Y-54234040D01*
X135165203Y-54360003D01*
X134955734Y-54446768D01*
X134844549Y-54468884D01*
X134733365Y-54491000D01*
X134506635Y-54491000D01*
X134395451Y-54468884D01*
X134284266Y-54446768D01*
X134074797Y-54360003D01*
X133886280Y-54234040D01*
X133725960Y-54073720D01*
X133599997Y-53885203D01*
X133513232Y-53675734D01*
X133491116Y-53564549D01*
X133469000Y-53453365D01*
X133469000Y-53226635D01*
X133492655Y-53107714D01*
X133513232Y-53004266D01*
X133599997Y-52794797D01*
X133725960Y-52606280D01*
X133886280Y-52445960D01*
X134074797Y-52319997D01*
X134284266Y-52233232D01*
X134395451Y-52211116D01*
X134506635Y-52189000D01*
X134733365Y-52189000D01*
X134844549Y-52211116D01*
X134844549Y-52211116D01*
G37*
G36*
X148777715Y-51718058D02*
G01*
X148895722Y-51753855D01*
X149004468Y-51811981D01*
X149099790Y-51890210D01*
X149178019Y-51985532D01*
X149236145Y-52094278D01*
X149271942Y-52212285D01*
X149281000Y-52304254D01*
X149281000Y-53015746D01*
X149271942Y-53107715D01*
X149236145Y-53225722D01*
X149178019Y-53334468D01*
X149099790Y-53429790D01*
X149004468Y-53508019D01*
X148895721Y-53566145D01*
X148777714Y-53601942D01*
X148655000Y-53614028D01*
X148532285Y-53601942D01*
X148414278Y-53566145D01*
X148305532Y-53508019D01*
X148210210Y-53429790D01*
X148131981Y-53334468D01*
X148073855Y-53225721D01*
X148038058Y-53107714D01*
X148029000Y-53015745D01*
X148029000Y-52304254D01*
X148038058Y-52212285D01*
X148073855Y-52094279D01*
X148131982Y-51985532D01*
X148210211Y-51890210D01*
X148305533Y-51811981D01*
X148414279Y-51753855D01*
X148532286Y-51718058D01*
X148655000Y-51705972D01*
X148777715Y-51718058D01*
X148777715Y-51718058D01*
G37*
G36*
X141027715Y-51718058D02*
G01*
X141145722Y-51753855D01*
X141254468Y-51811981D01*
X141349790Y-51890210D01*
X141428019Y-51985532D01*
X141486145Y-52094278D01*
X141521942Y-52212285D01*
X141531000Y-52304254D01*
X141531000Y-53015746D01*
X141521942Y-53107715D01*
X141486145Y-53225722D01*
X141428019Y-53334468D01*
X141349790Y-53429790D01*
X141254468Y-53508019D01*
X141145721Y-53566145D01*
X141027714Y-53601942D01*
X140905000Y-53614028D01*
X140782285Y-53601942D01*
X140664278Y-53566145D01*
X140555532Y-53508019D01*
X140460210Y-53429790D01*
X140381981Y-53334468D01*
X140323855Y-53225721D01*
X140288058Y-53107714D01*
X140279000Y-53015745D01*
X140279000Y-52304254D01*
X140288058Y-52212285D01*
X140323855Y-52094279D01*
X140381982Y-51985532D01*
X140460211Y-51890210D01*
X140555533Y-51811981D01*
X140664279Y-51753855D01*
X140782286Y-51718058D01*
X140905000Y-51705972D01*
X141027715Y-51718058D01*
X141027715Y-51718058D01*
G37*
M02*
