G04 #@! TF.GenerationSoftware,KiCad,Pcbnew,7.0.1*
G04 #@! TF.CreationDate,2023-03-26T18:13:03+02:00*
G04 #@! TF.ProjectId,stm32{C_G}xxxCx_board,73746d33-327b-4432-9c47-7d7878784378,rev?*
G04 #@! TF.SameCoordinates,Original*
G04 #@! TF.FileFunction,Copper,L2,Bot*
G04 #@! TF.FilePolarity,Positive*
%FSLAX46Y46*%
G04 Gerber Fmt 4.6, Leading zero omitted, Abs format (unit mm)*
G04 Created by KiCad (PCBNEW 7.0.1) date 2023-03-26 18:13:03*
%MOMM*%
%LPD*%
G01*
G04 APERTURE LIST*
G04 Aperture macros list*
%AMRoundRect*
0 Rectangle with rounded corners*
0 $1 Rounding radius*
0 $2 $3 $4 $5 $6 $7 $8 $9 X,Y pos of 4 corners*
0 Add a 4 corners polygon primitive as box body*
4,1,4,$2,$3,$4,$5,$6,$7,$8,$9,$2,$3,0*
0 Add four circle primitives for the rounded corners*
1,1,$1+$1,$2,$3*
1,1,$1+$1,$4,$5*
1,1,$1+$1,$6,$7*
1,1,$1+$1,$8,$9*
0 Add four rect primitives between the rounded corners*
20,1,$1+$1,$2,$3,$4,$5,0*
20,1,$1+$1,$4,$5,$6,$7,0*
20,1,$1+$1,$6,$7,$8,$9,0*
20,1,$1+$1,$8,$9,$2,$3,0*%
%AMFreePoly0*
4,1,23,0.500000,0.300000,0.900000,0.300000,0.900000,-0.300000,0.500000,-0.300000,0.500000,-0.750000,0.000000,-0.750000,0.000000,-0.744911,-0.071157,-0.744911,-0.207708,-0.704816,-0.327430,-0.627875,-0.420627,-0.520320,-0.479746,-0.390866,-0.500000,-0.250000,-0.500000,0.250000,-0.479746,0.390866,-0.420627,0.520320,-0.327430,0.627875,-0.207708,0.704816,-0.071157,0.744911,0.000000,0.744911,
0.000000,0.750000,0.500000,0.750000,0.500000,0.300000,0.500000,0.300000,$1*%
%AMFreePoly1*
4,1,19,0.000000,0.744911,0.071157,0.744911,0.207708,0.704816,0.327430,0.627875,0.420627,0.520320,0.479746,0.390866,0.500000,0.250000,0.500000,-0.250000,0.479746,-0.390866,0.420627,-0.520320,0.327430,-0.627875,0.207708,-0.704816,0.071157,-0.744911,0.000000,-0.744911,0.000000,-0.750000,-0.500000,-0.750000,-0.500000,0.750000,0.000000,0.750000,0.000000,0.744911,0.000000,0.744911,
$1*%
G04 Aperture macros list end*
G04 #@! TA.AperFunction,SMDPad,CuDef*
%ADD10RoundRect,0.243750X-0.243750X-0.456250X0.243750X-0.456250X0.243750X0.456250X-0.243750X0.456250X0*%
G04 #@! TD*
G04 #@! TA.AperFunction,ComponentPad*
%ADD11R,1.700000X1.700000*%
G04 #@! TD*
G04 #@! TA.AperFunction,ComponentPad*
%ADD12O,1.700000X1.700000*%
G04 #@! TD*
G04 #@! TA.AperFunction,ComponentPad*
%ADD13R,1.000000X1.000000*%
G04 #@! TD*
G04 #@! TA.AperFunction,ComponentPad*
%ADD14O,1.000000X1.000000*%
G04 #@! TD*
G04 #@! TA.AperFunction,ComponentPad*
%ADD15O,1.150000X1.800000*%
G04 #@! TD*
G04 #@! TA.AperFunction,ComponentPad*
%ADD16O,1.450000X2.000000*%
G04 #@! TD*
G04 #@! TA.AperFunction,SMDPad,CuDef*
%ADD17FreePoly0,270.000000*%
G04 #@! TD*
G04 #@! TA.AperFunction,SMDPad,CuDef*
%ADD18FreePoly1,270.000000*%
G04 #@! TD*
G04 #@! TA.AperFunction,SMDPad,CuDef*
%ADD19RoundRect,0.243750X0.243750X0.456250X-0.243750X0.456250X-0.243750X-0.456250X0.243750X-0.456250X0*%
G04 #@! TD*
G04 #@! TA.AperFunction,ViaPad*
%ADD20C,0.600000*%
G04 #@! TD*
G04 #@! TA.AperFunction,Conductor*
%ADD21C,0.250000*%
G04 #@! TD*
G04 #@! TA.AperFunction,Conductor*
%ADD22C,0.200000*%
G04 #@! TD*
G04 APERTURE END LIST*
D10*
X149195000Y-94615000D03*
X147320000Y-94615000D03*
D11*
X137160000Y-55880000D03*
D12*
X137160000Y-58420000D03*
X137160000Y-60960000D03*
X137160000Y-63500000D03*
X137160000Y-66040000D03*
X137160000Y-68580000D03*
X137160000Y-71120000D03*
X137160000Y-73660000D03*
X137160000Y-76200000D03*
X137160000Y-78740000D03*
X137160000Y-81280000D03*
X137160000Y-83820000D03*
X137160000Y-86360000D03*
X137160000Y-88900000D03*
X137160000Y-91440000D03*
X137160000Y-93980000D03*
X137160000Y-96520000D03*
X137160000Y-99060000D03*
X137160000Y-101600000D03*
X137160000Y-104140000D03*
D11*
X165100000Y-55880000D03*
D12*
X165100000Y-58420000D03*
X165100000Y-60960000D03*
X165100000Y-63500000D03*
X165100000Y-66040000D03*
X165100000Y-68580000D03*
X165100000Y-71120000D03*
X165100000Y-73660000D03*
X165100000Y-76200000D03*
X165100000Y-78740000D03*
X165100000Y-81280000D03*
X165100000Y-83820000D03*
X165100000Y-86360000D03*
X165100000Y-88900000D03*
X165100000Y-91440000D03*
X165100000Y-93980000D03*
X165100000Y-96520000D03*
X165100000Y-99060000D03*
X165100000Y-101600000D03*
X165100000Y-104140000D03*
D11*
X162560000Y-55880000D03*
D12*
X160020000Y-55880000D03*
X157480000Y-55880000D03*
X154940000Y-55880000D03*
X152400000Y-55880000D03*
D11*
X162560000Y-60960000D03*
D12*
X162560000Y-63500000D03*
D11*
X139700000Y-60960000D03*
D12*
X139700000Y-63500000D03*
D13*
X153670000Y-60960000D03*
D14*
X153670000Y-59690000D03*
X154940000Y-60960000D03*
X154940000Y-59690000D03*
X156210000Y-60960000D03*
X156210000Y-59690000D03*
X157480000Y-60960000D03*
X157480000Y-59690000D03*
X158750000Y-60960000D03*
X158750000Y-59690000D03*
D15*
X148655000Y-52660000D03*
D16*
X148505000Y-56460000D03*
X141055000Y-56460000D03*
D15*
X140905000Y-52660000D03*
D17*
X153924000Y-74295000D03*
D18*
X153924000Y-75595000D03*
D17*
X150876000Y-74295000D03*
D18*
X150876000Y-75595000D03*
D10*
X145366500Y-85852000D03*
X147241500Y-85852000D03*
D19*
X149225000Y-92075000D03*
X147350000Y-92075000D03*
X149225000Y-90170000D03*
X147350000Y-90170000D03*
D20*
X151130000Y-92710000D03*
X159785000Y-69390000D03*
X154940000Y-86995000D03*
X151765000Y-87630000D03*
X151765000Y-62865000D03*
X150650896Y-77946020D03*
X150557081Y-78740000D03*
X144145000Y-84455000D03*
X132715000Y-51435000D03*
X142875000Y-73660000D03*
X169545000Y-108585000D03*
X153670000Y-87630000D03*
X169545000Y-51435000D03*
X158750000Y-62865000D03*
X144780000Y-69215000D03*
X144780000Y-66040000D03*
X132715000Y-108585000D03*
X144145000Y-58420000D03*
X146050000Y-58420000D03*
D21*
X151130000Y-94184334D02*
X151130000Y-92710000D01*
X149674334Y-95640000D02*
X151130000Y-94184334D01*
X148345000Y-95640000D02*
X149674334Y-95640000D01*
X147320000Y-94615000D02*
X148345000Y-95640000D01*
X149225000Y-92075000D02*
X149225000Y-94585000D01*
X149225000Y-94585000D02*
X149195000Y-94615000D01*
X159785000Y-60725000D02*
X159785000Y-69390000D01*
X154999000Y-86936000D02*
X154999000Y-74176000D01*
X158750000Y-59690000D02*
X159785000Y-60725000D01*
X154999000Y-74176000D02*
X159785000Y-69390000D01*
X154940000Y-86995000D02*
X154999000Y-86936000D01*
X149225000Y-92075000D02*
X148200000Y-93100000D01*
X137160000Y-63500000D02*
X137160000Y-60960000D01*
X139065000Y-65405000D02*
X139065000Y-85090000D01*
X139065000Y-85294334D02*
X139065000Y-85090000D01*
X153670000Y-60960000D02*
X151765000Y-62865000D01*
X149225000Y-92075000D02*
X149225000Y-90170000D01*
X148200000Y-93100000D02*
X146870666Y-93100000D01*
X151765000Y-87630000D02*
X149225000Y-90170000D01*
X146870666Y-93100000D02*
X139065000Y-85294334D01*
X137160000Y-63500000D02*
X139065000Y-65405000D01*
X150876000Y-77720916D02*
X150650896Y-77946020D01*
X150876000Y-75595000D02*
X150876000Y-77720916D01*
X153924000Y-75595000D02*
X150779000Y-78740000D01*
X150779000Y-78740000D02*
X150557081Y-78740000D01*
X135255000Y-79375000D02*
X137160000Y-81280000D01*
X162560000Y-55880000D02*
X160565000Y-53885000D01*
X160565000Y-53885000D02*
X155575000Y-53885000D01*
X153670000Y-55488299D02*
X155273299Y-53885000D01*
X153670000Y-59690000D02*
X153670000Y-55488299D01*
X135255000Y-55245000D02*
X135255000Y-79375000D01*
X155273299Y-53885000D02*
X155575000Y-53885000D01*
X136615000Y-53885000D02*
X135255000Y-55245000D01*
X155575000Y-53885000D02*
X136615000Y-53885000D01*
X147350000Y-90170000D02*
X145366500Y-88186500D01*
X150515000Y-87005000D02*
X153045000Y-87005000D01*
X153045000Y-87005000D02*
X153670000Y-87630000D01*
X147350000Y-90170000D02*
X150515000Y-87005000D01*
X145366500Y-85676500D02*
X144145000Y-84455000D01*
X145366500Y-85852000D02*
X145366500Y-85676500D01*
X147350000Y-92075000D02*
X147350000Y-90170000D01*
X145366500Y-88186500D02*
X145366500Y-85852000D01*
D22*
X144145000Y-58420000D02*
X153924000Y-68199000D01*
X153924000Y-68199000D02*
X153924000Y-74295000D01*
X145415000Y-57785000D02*
X146050000Y-58420000D01*
X143510000Y-58206471D02*
X143931471Y-57785000D01*
X143931471Y-57785000D02*
X145415000Y-57785000D01*
X143510000Y-66929000D02*
X143510000Y-58206471D01*
X150876000Y-74295000D02*
X143510000Y-66929000D01*
D21*
X154940000Y-59690000D02*
X154940000Y-58420000D01*
X154940000Y-58420000D02*
X157480000Y-55880000D01*
G04 #@! TA.AperFunction,Conductor*
G36*
X144283436Y-59438406D02*
G01*
X144333595Y-59469144D01*
X153278595Y-68414144D01*
X153305909Y-68455021D01*
X153315500Y-68503239D01*
X153315500Y-73263307D01*
X153295498Y-73331427D01*
X153241843Y-73377920D01*
X153187490Y-73402742D01*
X153064482Y-73481795D01*
X152955820Y-73575949D01*
X152903989Y-73627779D01*
X152860058Y-73686464D01*
X152782331Y-73807410D01*
X152721586Y-73940425D01*
X152697640Y-74021979D01*
X152681080Y-74078378D01*
X152671763Y-74143187D01*
X152660271Y-74223114D01*
X152660271Y-74795001D01*
X152677853Y-74928554D01*
X152677853Y-74961446D01*
X152660271Y-75094999D01*
X152660271Y-75666886D01*
X152681080Y-75811621D01*
X152689615Y-75840689D01*
X152690804Y-75907347D01*
X152657813Y-75965281D01*
X151724593Y-76898501D01*
X151674436Y-76929238D01*
X151615789Y-76933854D01*
X151561439Y-76911341D01*
X151523233Y-76866608D01*
X151509500Y-76809405D01*
X151509500Y-76615275D01*
X151518526Y-76568445D01*
X151544310Y-76528324D01*
X151583159Y-76500661D01*
X151612510Y-76487257D01*
X151612512Y-76487256D01*
X151735518Y-76408205D01*
X151844179Y-76314051D01*
X151896011Y-76262220D01*
X151939938Y-76203540D01*
X152017670Y-76082586D01*
X152078413Y-75949577D01*
X152118920Y-75811622D01*
X152139729Y-75666889D01*
X152139729Y-75095000D01*
X152122224Y-74962037D01*
X152122221Y-74962031D01*
X152122145Y-74961448D01*
X152122145Y-74928552D01*
X152122221Y-74927968D01*
X152122224Y-74927963D01*
X152139729Y-74795000D01*
X152139729Y-74223111D01*
X152118920Y-74078378D01*
X152078413Y-73940423D01*
X152017670Y-73807414D01*
X152017669Y-73807413D01*
X152017668Y-73807410D01*
X151939941Y-73686464D01*
X151896010Y-73627779D01*
X151844179Y-73575949D01*
X151735518Y-73481795D01*
X151650332Y-73427049D01*
X151612514Y-73402745D01*
X151612512Y-73402744D01*
X151481727Y-73343016D01*
X151481724Y-73343015D01*
X151481720Y-73343013D01*
X151413046Y-73317399D01*
X151341425Y-73301819D01*
X151199118Y-73281358D01*
X151125999Y-73276128D01*
X151058592Y-73280950D01*
X151049603Y-73281271D01*
X150775010Y-73281271D01*
X150726792Y-73271680D01*
X150685915Y-73244366D01*
X144155405Y-66713856D01*
X144128091Y-66672979D01*
X144118500Y-66624761D01*
X144118500Y-59558239D01*
X144132233Y-59501036D01*
X144170439Y-59456303D01*
X144224789Y-59433790D01*
X144283436Y-59438406D01*
G37*
G04 #@! TD.AperFunction*
G04 #@! TA.AperFunction,Conductor*
G36*
X170041500Y-50892381D02*
G01*
X170087619Y-50938500D01*
X170104500Y-51001500D01*
X170104500Y-109018500D01*
X170087619Y-109081500D01*
X170041500Y-109127619D01*
X169978500Y-109144500D01*
X132281500Y-109144500D01*
X132218500Y-109127619D01*
X132172381Y-109081500D01*
X132155500Y-109018500D01*
X132155500Y-106679999D01*
X133264341Y-106679999D01*
X133284937Y-106915409D01*
X133346096Y-107143662D01*
X133445965Y-107357829D01*
X133581507Y-107551404D01*
X133748595Y-107718492D01*
X133748598Y-107718494D01*
X133748599Y-107718495D01*
X133942171Y-107854035D01*
X134156337Y-107953903D01*
X134384592Y-108015063D01*
X134561034Y-108030500D01*
X134678960Y-108030500D01*
X134678966Y-108030500D01*
X134855408Y-108015063D01*
X135083663Y-107953903D01*
X135297829Y-107854035D01*
X135491401Y-107718495D01*
X135658495Y-107551401D01*
X135794035Y-107357830D01*
X135893903Y-107143663D01*
X135955063Y-106915408D01*
X135975659Y-106680000D01*
X135975659Y-106679999D01*
X166284341Y-106679999D01*
X166304937Y-106915409D01*
X166366096Y-107143662D01*
X166465965Y-107357829D01*
X166601507Y-107551404D01*
X166768595Y-107718492D01*
X166768598Y-107718494D01*
X166768599Y-107718495D01*
X166962171Y-107854035D01*
X167176337Y-107953903D01*
X167404592Y-108015063D01*
X167581034Y-108030500D01*
X167698960Y-108030500D01*
X167698966Y-108030500D01*
X167875408Y-108015063D01*
X168103663Y-107953903D01*
X168317829Y-107854035D01*
X168511401Y-107718495D01*
X168678495Y-107551401D01*
X168814035Y-107357830D01*
X168913903Y-107143663D01*
X168975063Y-106915408D01*
X168995659Y-106680000D01*
X168975063Y-106444592D01*
X168913903Y-106216337D01*
X168814035Y-106002171D01*
X168678495Y-105808599D01*
X168678494Y-105808598D01*
X168678492Y-105808595D01*
X168511404Y-105641507D01*
X168317829Y-105505965D01*
X168103662Y-105406096D01*
X167875409Y-105344937D01*
X167850202Y-105342731D01*
X167698966Y-105329500D01*
X167581034Y-105329500D01*
X167448702Y-105341077D01*
X167404590Y-105344937D01*
X167176337Y-105406096D01*
X166962170Y-105505965D01*
X166768595Y-105641507D01*
X166601507Y-105808595D01*
X166465965Y-106002169D01*
X166366096Y-106216336D01*
X166304937Y-106444590D01*
X166284341Y-106679999D01*
X135975659Y-106679999D01*
X135955063Y-106444592D01*
X135893903Y-106216337D01*
X135794035Y-106002171D01*
X135658495Y-105808599D01*
X135658494Y-105808598D01*
X135658492Y-105808595D01*
X135491404Y-105641507D01*
X135297829Y-105505965D01*
X135083662Y-105406096D01*
X134855409Y-105344937D01*
X134830202Y-105342731D01*
X134678966Y-105329500D01*
X134561034Y-105329500D01*
X134428702Y-105341077D01*
X134384590Y-105344937D01*
X134156337Y-105406096D01*
X133942170Y-105505965D01*
X133748595Y-105641507D01*
X133581507Y-105808595D01*
X133445965Y-106002169D01*
X133346096Y-106216336D01*
X133284937Y-106444590D01*
X133264341Y-106679999D01*
X132155500Y-106679999D01*
X132155500Y-53339999D01*
X133264341Y-53339999D01*
X133284937Y-53575409D01*
X133346096Y-53803662D01*
X133445965Y-54017829D01*
X133581507Y-54211404D01*
X133748595Y-54378492D01*
X133748598Y-54378494D01*
X133748599Y-54378495D01*
X133942171Y-54514035D01*
X134156337Y-54613903D01*
X134384592Y-54675063D01*
X134561034Y-54690500D01*
X134561040Y-54690500D01*
X134623863Y-54690500D01*
X134686292Y-54707053D01*
X134732318Y-54752363D01*
X134749848Y-54814525D01*
X134734275Y-54877206D01*
X134728651Y-54887435D01*
X134717801Y-54903952D01*
X134705385Y-54919959D01*
X134687824Y-54960539D01*
X134682604Y-54971195D01*
X134661304Y-55009940D01*
X134656267Y-55029559D01*
X134649864Y-55048261D01*
X134641818Y-55066855D01*
X134634901Y-55110524D01*
X134632495Y-55122144D01*
X134621500Y-55164970D01*
X134621500Y-55185224D01*
X134619949Y-55204934D01*
X134616779Y-55224942D01*
X134620941Y-55268961D01*
X134621500Y-55280819D01*
X134621500Y-79291147D01*
X134619204Y-79311935D01*
X134621438Y-79382986D01*
X134621500Y-79386945D01*
X134621500Y-79414857D01*
X134622007Y-79418873D01*
X134622937Y-79430696D01*
X134624326Y-79474892D01*
X134629977Y-79494341D01*
X134633986Y-79513696D01*
X134636525Y-79533794D01*
X134636525Y-79533796D01*
X134636526Y-79533797D01*
X134647932Y-79562607D01*
X134652801Y-79574903D01*
X134656644Y-79586130D01*
X134668980Y-79628590D01*
X134679294Y-79646030D01*
X134687987Y-79663774D01*
X134695448Y-79682617D01*
X134695449Y-79682619D01*
X134721431Y-79718380D01*
X134727948Y-79728301D01*
X134750458Y-79766363D01*
X134764778Y-79780683D01*
X134777618Y-79795716D01*
X134789526Y-79812105D01*
X134823598Y-79840292D01*
X134832378Y-79848282D01*
X135810132Y-80826036D01*
X135842516Y-80881681D01*
X135843182Y-80946060D01*
X135815436Y-81055629D01*
X135815436Y-81055632D01*
X135796844Y-81280000D01*
X135815436Y-81504368D01*
X135815436Y-81504371D01*
X135815437Y-81504372D01*
X135870702Y-81722611D01*
X135961139Y-81928790D01*
X136084278Y-82117268D01*
X136236762Y-82282908D01*
X136338611Y-82362181D01*
X136414424Y-82421189D01*
X136447682Y-82439187D01*
X136495951Y-82485500D01*
X136513711Y-82549997D01*
X136495953Y-82614494D01*
X136447683Y-82660811D01*
X136414423Y-82678810D01*
X136236762Y-82817091D01*
X136084278Y-82982731D01*
X135961139Y-83171209D01*
X135870702Y-83377388D01*
X135815437Y-83595627D01*
X135815436Y-83595632D01*
X135796844Y-83820000D01*
X135815436Y-84044368D01*
X135815436Y-84044371D01*
X135815437Y-84044372D01*
X135870702Y-84262611D01*
X135961139Y-84468790D01*
X136084278Y-84657268D01*
X136236762Y-84822908D01*
X136414418Y-84961185D01*
X136414420Y-84961186D01*
X136414424Y-84961189D01*
X136447682Y-84979187D01*
X136495952Y-85025503D01*
X136513711Y-85090000D01*
X136495952Y-85154497D01*
X136447682Y-85200812D01*
X136429817Y-85210481D01*
X136414418Y-85218814D01*
X136236762Y-85357091D01*
X136084278Y-85522731D01*
X135961139Y-85711209D01*
X135870702Y-85917388D01*
X135815437Y-86135627D01*
X135815436Y-86135632D01*
X135796844Y-86360000D01*
X135815436Y-86584368D01*
X135815436Y-86584371D01*
X135815437Y-86584372D01*
X135870702Y-86802611D01*
X135961139Y-87008790D01*
X136084278Y-87197268D01*
X136236762Y-87362908D01*
X136414418Y-87501185D01*
X136414420Y-87501186D01*
X136414424Y-87501189D01*
X136447682Y-87519187D01*
X136495952Y-87565503D01*
X136513711Y-87630000D01*
X136495952Y-87694497D01*
X136447682Y-87740812D01*
X136422794Y-87754281D01*
X136414418Y-87758814D01*
X136236762Y-87897091D01*
X136084278Y-88062731D01*
X135961139Y-88251209D01*
X135870702Y-88457388D01*
X135815437Y-88675627D01*
X135815436Y-88675632D01*
X135796844Y-88900000D01*
X135815436Y-89124368D01*
X135815436Y-89124371D01*
X135815437Y-89124372D01*
X135870702Y-89342611D01*
X135961139Y-89548790D01*
X136084278Y-89737268D01*
X136236762Y-89902908D01*
X136253583Y-89916000D01*
X136414424Y-90041189D01*
X136447682Y-90059187D01*
X136495951Y-90105500D01*
X136513711Y-90169997D01*
X136495953Y-90234494D01*
X136447683Y-90280811D01*
X136414423Y-90298810D01*
X136236762Y-90437091D01*
X136084278Y-90602731D01*
X135961139Y-90791209D01*
X135870702Y-90997388D01*
X135815437Y-91215627D01*
X135815436Y-91215632D01*
X135796844Y-91440000D01*
X135815436Y-91664368D01*
X135815436Y-91664371D01*
X135815437Y-91664372D01*
X135870702Y-91882611D01*
X135961139Y-92088790D01*
X136084278Y-92277268D01*
X136236762Y-92442908D01*
X136267073Y-92466500D01*
X136414424Y-92581189D01*
X136447682Y-92599187D01*
X136495951Y-92645500D01*
X136513711Y-92709997D01*
X136495953Y-92774494D01*
X136447683Y-92820811D01*
X136414423Y-92838810D01*
X136236762Y-92977091D01*
X136084278Y-93142731D01*
X135961139Y-93331209D01*
X135870702Y-93537388D01*
X135820848Y-93734260D01*
X135815436Y-93755632D01*
X135796844Y-93980000D01*
X135815436Y-94204368D01*
X135815436Y-94204371D01*
X135815437Y-94204372D01*
X135870702Y-94422611D01*
X135961139Y-94628790D01*
X136084278Y-94817268D01*
X136236762Y-94982908D01*
X136414418Y-95121185D01*
X136414420Y-95121186D01*
X136414424Y-95121189D01*
X136447682Y-95139187D01*
X136495952Y-95185503D01*
X136513711Y-95250000D01*
X136495952Y-95314497D01*
X136447682Y-95360812D01*
X136422794Y-95374281D01*
X136414418Y-95378814D01*
X136236762Y-95517091D01*
X136084278Y-95682731D01*
X135961139Y-95871209D01*
X135870702Y-96077388D01*
X135820483Y-96275702D01*
X135815436Y-96295632D01*
X135796844Y-96520000D01*
X135815436Y-96744368D01*
X135815436Y-96744371D01*
X135815437Y-96744372D01*
X135870702Y-96962611D01*
X135961139Y-97168790D01*
X136084278Y-97357268D01*
X136236762Y-97522908D01*
X136414418Y-97661185D01*
X136414420Y-97661186D01*
X136414424Y-97661189D01*
X136447682Y-97679187D01*
X136495952Y-97725503D01*
X136513711Y-97790000D01*
X136495952Y-97854497D01*
X136447682Y-97900812D01*
X136422794Y-97914281D01*
X136414418Y-97918814D01*
X136236762Y-98057091D01*
X136084278Y-98222731D01*
X135961139Y-98411209D01*
X135870702Y-98617388D01*
X135815437Y-98835627D01*
X135815436Y-98835632D01*
X135796844Y-99060000D01*
X135815436Y-99284368D01*
X135815436Y-99284371D01*
X135815437Y-99284372D01*
X135870702Y-99502611D01*
X135961139Y-99708790D01*
X136084278Y-99897268D01*
X136236762Y-100062908D01*
X136414418Y-100201185D01*
X136414420Y-100201186D01*
X136414424Y-100201189D01*
X136447682Y-100219187D01*
X136495952Y-100265503D01*
X136513711Y-100330000D01*
X136495952Y-100394497D01*
X136447682Y-100440812D01*
X136422794Y-100454281D01*
X136414418Y-100458814D01*
X136236762Y-100597091D01*
X136084278Y-100762731D01*
X135961139Y-100951209D01*
X135870702Y-101157388D01*
X135815437Y-101375627D01*
X135815436Y-101375632D01*
X135796844Y-101600000D01*
X135815436Y-101824368D01*
X135815436Y-101824371D01*
X135815437Y-101824372D01*
X135870702Y-102042611D01*
X135961139Y-102248790D01*
X136084278Y-102437268D01*
X136236762Y-102602908D01*
X136414418Y-102741185D01*
X136414420Y-102741186D01*
X136414424Y-102741189D01*
X136447682Y-102759187D01*
X136495952Y-102805503D01*
X136513711Y-102870000D01*
X136495952Y-102934497D01*
X136447682Y-102980812D01*
X136422794Y-102994281D01*
X136414418Y-102998814D01*
X136236762Y-103137091D01*
X136084278Y-103302731D01*
X135961139Y-103491209D01*
X135870702Y-103697388D01*
X135815437Y-103915627D01*
X135815436Y-103915632D01*
X135796844Y-104140000D01*
X135815436Y-104364368D01*
X135815436Y-104364371D01*
X135815437Y-104364372D01*
X135870702Y-104582611D01*
X135961139Y-104788790D01*
X136084278Y-104977268D01*
X136236762Y-105142908D01*
X136414421Y-105281187D01*
X136414424Y-105281189D01*
X136612426Y-105388342D01*
X136825365Y-105461444D01*
X137047431Y-105498500D01*
X137272566Y-105498500D01*
X137272569Y-105498500D01*
X137494635Y-105461444D01*
X137707574Y-105388342D01*
X137905576Y-105281189D01*
X138083240Y-105142906D01*
X138235722Y-104977268D01*
X138358860Y-104788791D01*
X138449296Y-104582616D01*
X138504564Y-104364368D01*
X138523156Y-104140000D01*
X138504564Y-103915632D01*
X138449296Y-103697384D01*
X138358860Y-103491209D01*
X138235722Y-103302732D01*
X138083240Y-103137094D01*
X138083239Y-103137093D01*
X138083237Y-103137091D01*
X137905579Y-102998813D01*
X137905577Y-102998812D01*
X137905576Y-102998811D01*
X137872317Y-102980812D01*
X137824047Y-102934498D01*
X137806288Y-102870000D01*
X137824047Y-102805502D01*
X137872317Y-102759187D01*
X137905576Y-102741189D01*
X138083240Y-102602906D01*
X138235722Y-102437268D01*
X138358860Y-102248791D01*
X138449296Y-102042616D01*
X138504564Y-101824368D01*
X138523156Y-101600000D01*
X138504564Y-101375632D01*
X138449296Y-101157384D01*
X138358860Y-100951209D01*
X138235722Y-100762732D01*
X138083240Y-100597094D01*
X138083239Y-100597093D01*
X138083237Y-100597091D01*
X137905579Y-100458813D01*
X137905577Y-100458812D01*
X137905576Y-100458811D01*
X137872317Y-100440812D01*
X137824047Y-100394498D01*
X137806288Y-100330000D01*
X137824047Y-100265502D01*
X137872317Y-100219187D01*
X137905576Y-100201189D01*
X138083240Y-100062906D01*
X138235722Y-99897268D01*
X138358860Y-99708791D01*
X138449296Y-99502616D01*
X138504564Y-99284368D01*
X138523156Y-99060000D01*
X138504564Y-98835632D01*
X138449296Y-98617384D01*
X138358860Y-98411209D01*
X138235722Y-98222732D01*
X138083240Y-98057094D01*
X138083239Y-98057093D01*
X138083237Y-98057091D01*
X137905579Y-97918813D01*
X137905577Y-97918812D01*
X137905576Y-97918811D01*
X137872317Y-97900812D01*
X137824047Y-97854498D01*
X137806288Y-97790000D01*
X137824047Y-97725502D01*
X137872317Y-97679187D01*
X137905576Y-97661189D01*
X138083240Y-97522906D01*
X138235722Y-97357268D01*
X138358860Y-97168791D01*
X138449296Y-96962616D01*
X138504564Y-96744368D01*
X138523156Y-96520000D01*
X138504564Y-96295632D01*
X138449296Y-96077384D01*
X138358860Y-95871209D01*
X138235722Y-95682732D01*
X138083240Y-95517094D01*
X138083239Y-95517093D01*
X138083237Y-95517091D01*
X137905579Y-95378813D01*
X137905577Y-95378812D01*
X137905576Y-95378811D01*
X137872317Y-95360812D01*
X137824047Y-95314498D01*
X137806288Y-95250000D01*
X137824047Y-95185502D01*
X137872317Y-95139187D01*
X137905576Y-95121189D01*
X138083240Y-94982906D01*
X138235722Y-94817268D01*
X138358860Y-94628791D01*
X138449296Y-94422616D01*
X138504564Y-94204368D01*
X138523156Y-93980000D01*
X138504564Y-93755632D01*
X138449296Y-93537384D01*
X138358860Y-93331209D01*
X138235722Y-93142732D01*
X138083240Y-92977094D01*
X138083239Y-92977093D01*
X138083237Y-92977091D01*
X137905578Y-92838812D01*
X137872317Y-92820812D01*
X137824046Y-92774495D01*
X137806288Y-92709997D01*
X137824049Y-92645499D01*
X137872317Y-92599187D01*
X137905576Y-92581189D01*
X138083240Y-92442906D01*
X138235722Y-92277268D01*
X138358860Y-92088791D01*
X138449296Y-91882616D01*
X138504564Y-91664368D01*
X138523156Y-91440000D01*
X138504564Y-91215632D01*
X138449296Y-90997384D01*
X138358860Y-90791209D01*
X138235722Y-90602732D01*
X138083240Y-90437094D01*
X138083239Y-90437093D01*
X138083237Y-90437091D01*
X137905578Y-90298812D01*
X137872317Y-90280812D01*
X137824046Y-90234495D01*
X137806288Y-90169997D01*
X137824049Y-90105499D01*
X137872317Y-90059187D01*
X137905576Y-90041189D01*
X138083240Y-89902906D01*
X138235722Y-89737268D01*
X138358860Y-89548791D01*
X138449296Y-89342616D01*
X138504564Y-89124368D01*
X138523156Y-88900000D01*
X138504564Y-88675632D01*
X138449296Y-88457384D01*
X138358860Y-88251209D01*
X138235722Y-88062732D01*
X138083240Y-87897094D01*
X138083239Y-87897093D01*
X138083237Y-87897091D01*
X137905579Y-87758813D01*
X137905577Y-87758812D01*
X137905576Y-87758811D01*
X137872317Y-87740812D01*
X137824047Y-87694498D01*
X137806288Y-87630000D01*
X137824047Y-87565502D01*
X137872317Y-87519187D01*
X137905576Y-87501189D01*
X138083240Y-87362906D01*
X138235722Y-87197268D01*
X138358860Y-87008791D01*
X138449296Y-86802616D01*
X138504564Y-86584368D01*
X138523156Y-86360000D01*
X138504564Y-86135632D01*
X138449296Y-85917384D01*
X138449295Y-85917383D01*
X138446733Y-85907263D01*
X138448562Y-85906799D01*
X138440972Y-85851510D01*
X138468910Y-85788523D01*
X138525803Y-85749651D01*
X138594637Y-85746519D01*
X138654825Y-85780063D01*
X146363420Y-93488659D01*
X146376499Y-93504983D01*
X146428315Y-93553641D01*
X146431128Y-93556367D01*
X146439417Y-93564656D01*
X146442844Y-93568083D01*
X146472560Y-93615233D01*
X146479029Y-93670589D01*
X146460986Y-93723321D01*
X146389838Y-93838671D01*
X146334526Y-94005592D01*
X146324000Y-94108629D01*
X146324000Y-95121370D01*
X146330552Y-95185502D01*
X146334526Y-95224404D01*
X146389839Y-95391329D01*
X146467410Y-95517091D01*
X146482158Y-95541001D01*
X146606498Y-95665341D01*
X146606500Y-95665342D01*
X146606502Y-95665344D01*
X146756171Y-95757661D01*
X146756173Y-95757662D01*
X146923092Y-95812973D01*
X146923093Y-95812973D01*
X146923096Y-95812974D01*
X147026125Y-95823500D01*
X147580405Y-95823499D01*
X147628623Y-95833090D01*
X147669500Y-95860404D01*
X147837752Y-96028656D01*
X147850831Y-96044981D01*
X147852999Y-96047017D01*
X147853000Y-96047018D01*
X147885337Y-96077384D01*
X147902650Y-96093642D01*
X147905461Y-96096366D01*
X147925230Y-96116135D01*
X147928443Y-96118627D01*
X147937433Y-96126306D01*
X147969679Y-96156586D01*
X147987426Y-96166342D01*
X148003950Y-96177196D01*
X148019959Y-96189614D01*
X148060542Y-96207175D01*
X148071193Y-96212393D01*
X148109940Y-96233695D01*
X148129560Y-96238732D01*
X148148267Y-96245137D01*
X148154880Y-96247998D01*
X148166854Y-96253181D01*
X148177505Y-96254867D01*
X148210530Y-96260098D01*
X148222125Y-96262498D01*
X148264970Y-96273500D01*
X148285224Y-96273500D01*
X148304934Y-96275051D01*
X148324942Y-96278220D01*
X148324942Y-96278219D01*
X148324943Y-96278220D01*
X148368961Y-96274058D01*
X148380819Y-96273500D01*
X149590481Y-96273500D01*
X149611269Y-96275795D01*
X149614241Y-96275701D01*
X149614243Y-96275702D01*
X149682319Y-96273562D01*
X149686279Y-96273500D01*
X149714186Y-96273500D01*
X149714190Y-96273500D01*
X149718199Y-96272993D01*
X149730033Y-96272061D01*
X149774223Y-96270673D01*
X149793672Y-96265021D01*
X149813032Y-96261012D01*
X149833131Y-96258474D01*
X149874249Y-96242193D01*
X149885451Y-96238357D01*
X149927927Y-96226018D01*
X149945373Y-96215699D01*
X149963114Y-96207009D01*
X149981951Y-96199552D01*
X150017726Y-96173558D01*
X150027637Y-96167048D01*
X150065696Y-96144542D01*
X150080025Y-96130212D01*
X150095053Y-96117377D01*
X150111441Y-96105472D01*
X150139637Y-96071386D01*
X150147606Y-96062630D01*
X151518658Y-94691578D01*
X151534979Y-94678504D01*
X151537014Y-94676336D01*
X151537018Y-94676334D01*
X151583676Y-94626646D01*
X151586367Y-94623869D01*
X151606135Y-94604103D01*
X151608611Y-94600910D01*
X151616316Y-94591887D01*
X151646586Y-94559655D01*
X151656345Y-94541901D01*
X151667198Y-94525379D01*
X151679614Y-94509374D01*
X151697174Y-94468793D01*
X151702388Y-94458149D01*
X151723695Y-94419394D01*
X151728732Y-94399773D01*
X151735138Y-94381064D01*
X151743181Y-94362478D01*
X151750096Y-94318815D01*
X151752504Y-94307187D01*
X151763500Y-94264363D01*
X151763500Y-94244110D01*
X151765051Y-94224400D01*
X151768220Y-94204391D01*
X151764059Y-94160373D01*
X151763500Y-94148515D01*
X151763500Y-93257736D01*
X151782813Y-93190700D01*
X151823879Y-93125344D01*
X151863043Y-93063015D01*
X151923217Y-92891047D01*
X151943616Y-92710000D01*
X151923217Y-92528953D01*
X151863043Y-92356985D01*
X151766111Y-92202719D01*
X151766110Y-92202717D01*
X151637282Y-92073889D01*
X151483014Y-91976956D01*
X151311049Y-91916783D01*
X151130000Y-91896384D01*
X150948950Y-91916783D01*
X150776985Y-91976956D01*
X150622717Y-92073889D01*
X150493891Y-92202715D01*
X150453686Y-92266701D01*
X150406706Y-92310619D01*
X150344171Y-92325632D01*
X150282373Y-92307828D01*
X150237412Y-92261846D01*
X150220999Y-92199666D01*
X150220999Y-91568626D01*
X150210474Y-91465596D01*
X150155161Y-91298671D01*
X150087294Y-91188642D01*
X150068537Y-91122500D01*
X150087294Y-91056357D01*
X150155161Y-90946329D01*
X150210474Y-90779404D01*
X150221000Y-90676375D01*
X150220999Y-90122092D01*
X150230590Y-90073875D01*
X150257901Y-90033001D01*
X151826562Y-88464340D01*
X151860985Y-88439916D01*
X151901543Y-88428231D01*
X151946047Y-88423217D01*
X152118015Y-88363043D01*
X152272281Y-88266111D01*
X152401111Y-88137281D01*
X152498043Y-87983015D01*
X152558217Y-87811047D01*
X152578616Y-87630000D01*
X152558217Y-87448953D01*
X152498043Y-87276985D01*
X152401111Y-87122719D01*
X152401110Y-87122717D01*
X152272282Y-86993889D01*
X152118014Y-86896956D01*
X151946049Y-86836783D01*
X151765000Y-86816384D01*
X151583950Y-86836783D01*
X151411985Y-86896956D01*
X151257717Y-86993889D01*
X151128889Y-87122717D01*
X151031956Y-87276985D01*
X150971783Y-87448950D01*
X150966769Y-87493451D01*
X150955083Y-87534012D01*
X150930656Y-87568437D01*
X149574498Y-88924595D01*
X149533621Y-88951909D01*
X149485403Y-88961500D01*
X148931129Y-88961500D01*
X148841324Y-88970674D01*
X148828096Y-88972026D01*
X148661171Y-89027339D01*
X148593729Y-89068937D01*
X148511498Y-89119658D01*
X148376742Y-89254415D01*
X148374044Y-89251717D01*
X148348564Y-89276085D01*
X148287173Y-89292034D01*
X148225789Y-89276052D01*
X148200626Y-89251963D01*
X148197863Y-89254727D01*
X148063189Y-89120053D01*
X147913613Y-89027793D01*
X147746806Y-88972518D01*
X147643842Y-88962000D01*
X147604000Y-88962000D01*
X147604000Y-92203000D01*
X147587119Y-92266000D01*
X147541000Y-92312119D01*
X147478000Y-92329000D01*
X147222000Y-92329000D01*
X147159000Y-92312119D01*
X147112881Y-92266000D01*
X147096000Y-92203000D01*
X147096000Y-90424000D01*
X146354501Y-90424000D01*
X146354501Y-90676343D01*
X146365018Y-90779305D01*
X146420293Y-90946113D01*
X146488290Y-91056352D01*
X146507049Y-91122499D01*
X146488290Y-91188645D01*
X146420294Y-91298883D01*
X146371342Y-91446611D01*
X146336862Y-91499875D01*
X146280795Y-91529582D01*
X146217360Y-91528197D01*
X146162643Y-91496073D01*
X144582570Y-89916000D01*
X146354500Y-89916000D01*
X147096000Y-89916000D01*
X147096000Y-88962001D01*
X147056157Y-88962001D01*
X146953194Y-88972518D01*
X146786386Y-89027793D01*
X146636810Y-89120053D01*
X146512553Y-89244310D01*
X146420293Y-89393886D01*
X146365018Y-89560693D01*
X146354500Y-89663658D01*
X146354500Y-89916000D01*
X144582570Y-89916000D01*
X143342202Y-88675632D01*
X140772571Y-86106000D01*
X144371001Y-86106000D01*
X144371001Y-86358343D01*
X144381518Y-86461305D01*
X144436793Y-86628113D01*
X144529053Y-86777689D01*
X144653310Y-86901946D01*
X144802886Y-86994206D01*
X144969693Y-87049481D01*
X145072658Y-87060000D01*
X145112500Y-87060000D01*
X145112500Y-87059999D01*
X145620500Y-87059999D01*
X145660343Y-87059999D01*
X145763305Y-87049481D01*
X145930113Y-86994206D01*
X146079689Y-86901946D01*
X146214363Y-86767273D01*
X146217132Y-86770042D01*
X146242215Y-86745988D01*
X146303642Y-86729965D01*
X146365085Y-86745926D01*
X146390539Y-86770287D01*
X146393242Y-86767585D01*
X146527998Y-86902341D01*
X146528000Y-86902342D01*
X146528002Y-86902344D01*
X146677668Y-86994659D01*
X146677673Y-86994662D01*
X146844592Y-87049973D01*
X146844593Y-87049973D01*
X146844596Y-87049974D01*
X146947625Y-87060500D01*
X147535374Y-87060499D01*
X147638404Y-87049974D01*
X147805329Y-86994661D01*
X147954998Y-86902344D01*
X148079344Y-86777998D01*
X148171661Y-86628329D01*
X148226974Y-86461404D01*
X148237500Y-86358375D01*
X148237499Y-85345626D01*
X148226974Y-85242596D01*
X148171661Y-85075671D01*
X148079344Y-84926002D01*
X148079342Y-84926000D01*
X148079341Y-84925998D01*
X147955001Y-84801658D01*
X147805326Y-84709337D01*
X147638407Y-84654026D01*
X147599768Y-84650078D01*
X147535375Y-84643500D01*
X147535370Y-84643500D01*
X146947629Y-84643500D01*
X146857824Y-84652674D01*
X146844596Y-84654026D01*
X146677671Y-84709339D01*
X146610229Y-84750937D01*
X146527998Y-84801658D01*
X146393242Y-84936415D01*
X146390544Y-84933717D01*
X146365064Y-84958085D01*
X146303673Y-84974034D01*
X146242289Y-84958052D01*
X146217126Y-84933963D01*
X146214363Y-84936727D01*
X146079689Y-84802053D01*
X145930113Y-84709793D01*
X145763306Y-84654518D01*
X145660342Y-84644000D01*
X145620500Y-84644000D01*
X145620500Y-87059999D01*
X145112500Y-87059999D01*
X145112500Y-86106000D01*
X144371001Y-86106000D01*
X140772571Y-86106000D01*
X140264571Y-85598000D01*
X144371000Y-85598000D01*
X145112500Y-85598000D01*
X145112500Y-84644001D01*
X145072657Y-84644001D01*
X144969694Y-84654518D01*
X144802886Y-84709793D01*
X144653310Y-84802053D01*
X144529053Y-84926310D01*
X144436793Y-85075886D01*
X144381518Y-85242693D01*
X144371000Y-85345658D01*
X144371000Y-85598000D01*
X140264571Y-85598000D01*
X139735405Y-85068834D01*
X139708091Y-85027957D01*
X139698500Y-84979739D01*
X139698500Y-65488853D01*
X139700795Y-65468063D01*
X139698562Y-65397001D01*
X139698500Y-65393043D01*
X139698500Y-65365149D01*
X139698500Y-65365144D01*
X139697993Y-65361138D01*
X139697062Y-65349305D01*
X139695674Y-65305111D01*
X139690020Y-65285652D01*
X139686013Y-65266306D01*
X139683474Y-65246203D01*
X139667194Y-65205086D01*
X139663353Y-65193866D01*
X139651017Y-65151405D01*
X139640706Y-65133970D01*
X139632008Y-65116215D01*
X139624552Y-65097383D01*
X139598565Y-65061616D01*
X139592052Y-65051702D01*
X139590244Y-65048644D01*
X139572698Y-64985496D01*
X139589244Y-64922076D01*
X139635407Y-64875547D01*
X139698694Y-64858500D01*
X139812566Y-64858500D01*
X139812569Y-64858500D01*
X140034635Y-64821444D01*
X140247574Y-64748342D01*
X140445576Y-64641189D01*
X140623240Y-64502906D01*
X140775722Y-64337268D01*
X140898860Y-64148791D01*
X140989296Y-63942616D01*
X141044564Y-63724368D01*
X141063156Y-63500000D01*
X141044564Y-63275632D01*
X140989296Y-63057384D01*
X140898860Y-62851209D01*
X140775722Y-62662732D01*
X140632523Y-62507178D01*
X140603287Y-62453575D01*
X140602684Y-62392519D01*
X140630859Y-62338348D01*
X140681188Y-62303787D01*
X140796204Y-62260889D01*
X140913261Y-62173261D01*
X141000889Y-62056204D01*
X141051989Y-61919201D01*
X141058500Y-61858638D01*
X141058500Y-60061362D01*
X141051989Y-60000799D01*
X141000889Y-59863796D01*
X141000888Y-59863794D01*
X140913261Y-59746738D01*
X140796205Y-59659111D01*
X140705334Y-59625218D01*
X140659201Y-59608011D01*
X140598638Y-59601500D01*
X138801362Y-59601500D01*
X138740799Y-59608011D01*
X138603794Y-59659111D01*
X138486738Y-59746738D01*
X138399109Y-59863796D01*
X138355000Y-59982057D01*
X138318469Y-60034096D01*
X138261178Y-60061672D01*
X138197716Y-60057762D01*
X138144245Y-60023362D01*
X138083240Y-59957094D01*
X138083239Y-59957093D01*
X138083237Y-59957091D01*
X137963372Y-59863796D01*
X137905576Y-59818811D01*
X137871792Y-59800528D01*
X137823521Y-59754212D01*
X137805762Y-59689715D01*
X137823521Y-59625217D01*
X137871793Y-59578901D01*
X137905300Y-59560768D01*
X138082903Y-59422533D01*
X138235321Y-59256962D01*
X138358419Y-59068548D01*
X138448822Y-58862451D01*
X138496544Y-58674000D01*
X137032000Y-58674000D01*
X136969000Y-58657119D01*
X136922881Y-58611000D01*
X136906000Y-58548000D01*
X136906000Y-56134000D01*
X137414000Y-56134000D01*
X137414000Y-58166000D01*
X138496544Y-58166000D01*
X138496544Y-58165999D01*
X138448822Y-57977548D01*
X138358419Y-57771451D01*
X138235321Y-57583037D01*
X138091652Y-57426970D01*
X138062415Y-57373366D01*
X138061812Y-57312311D01*
X138089987Y-57258140D01*
X138140321Y-57223577D01*
X138255962Y-57180445D01*
X138372904Y-57092904D01*
X138460445Y-56975962D01*
X138511494Y-56839093D01*
X138518000Y-56778589D01*
X138518000Y-56714000D01*
X139822000Y-56714000D01*
X139822000Y-56790374D01*
X139836911Y-56956053D01*
X139895956Y-57169996D01*
X139992253Y-57369960D01*
X140122710Y-57549517D01*
X140283130Y-57702895D01*
X140468357Y-57825162D01*
X140672442Y-57912393D01*
X140801000Y-57941735D01*
X140801000Y-56714000D01*
X141309000Y-56714000D01*
X141309000Y-57944854D01*
X141330478Y-57941944D01*
X141541556Y-57873361D01*
X141737001Y-57768188D01*
X141910527Y-57629805D01*
X142056548Y-57462670D01*
X142170384Y-57272140D01*
X142248371Y-57064346D01*
X142288000Y-56845973D01*
X142288000Y-56714000D01*
X147272000Y-56714000D01*
X147272000Y-56790374D01*
X147286911Y-56956053D01*
X147345956Y-57169996D01*
X147442253Y-57369960D01*
X147572710Y-57549517D01*
X147733130Y-57702895D01*
X147918357Y-57825162D01*
X148122442Y-57912393D01*
X148251000Y-57941735D01*
X148251000Y-56714000D01*
X148759000Y-56714000D01*
X148759000Y-57944854D01*
X148780478Y-57941944D01*
X148991556Y-57873361D01*
X149187001Y-57768188D01*
X149360527Y-57629805D01*
X149506548Y-57462670D01*
X149620384Y-57272140D01*
X149698371Y-57064346D01*
X149738000Y-56845973D01*
X149738000Y-56714000D01*
X148759000Y-56714000D01*
X148251000Y-56714000D01*
X147272000Y-56714000D01*
X142288000Y-56714000D01*
X141309000Y-56714000D01*
X140801000Y-56714000D01*
X139822000Y-56714000D01*
X138518000Y-56714000D01*
X138518000Y-56206000D01*
X139822000Y-56206000D01*
X140801000Y-56206000D01*
X140801000Y-54975146D01*
X140800999Y-54975145D01*
X140779521Y-54978055D01*
X140568443Y-55046638D01*
X140372998Y-55151811D01*
X140199472Y-55290194D01*
X140053451Y-55457329D01*
X139939615Y-55647859D01*
X139861628Y-55855653D01*
X139822000Y-56074027D01*
X139822000Y-56206000D01*
X138518000Y-56206000D01*
X138518000Y-56134000D01*
X137414000Y-56134000D01*
X136906000Y-56134000D01*
X136906000Y-55752000D01*
X136922881Y-55689000D01*
X136969000Y-55642881D01*
X137032000Y-55626000D01*
X138518000Y-55626000D01*
X138518000Y-54981411D01*
X138511494Y-54920906D01*
X138460445Y-54784037D01*
X138412515Y-54720009D01*
X138387884Y-54655730D01*
X138400711Y-54588100D01*
X138447165Y-54537303D01*
X138513383Y-54518500D01*
X141577203Y-54518500D01*
X141633227Y-54531641D01*
X141677566Y-54568321D01*
X141700971Y-54620891D01*
X141698561Y-54678386D01*
X141670838Y-54728812D01*
X141641129Y-54761806D01*
X141631806Y-54771129D01*
X141601134Y-54798746D01*
X141576871Y-54832141D01*
X141568574Y-54842387D01*
X141540960Y-54873055D01*
X141520323Y-54908798D01*
X141513143Y-54919853D01*
X141496592Y-54942634D01*
X141460892Y-54975759D01*
X141415297Y-54992872D01*
X141366618Y-54991415D01*
X141308999Y-54978264D01*
X141309000Y-54978265D01*
X141309000Y-56206000D01*
X141807434Y-56206000D01*
X141858665Y-56216886D01*
X141860952Y-56217904D01*
X141872699Y-56223889D01*
X141908444Y-56244527D01*
X141947706Y-56257283D01*
X141960003Y-56262004D01*
X141997712Y-56278794D01*
X142038086Y-56287375D01*
X142050801Y-56290781D01*
X142090072Y-56303542D01*
X142131131Y-56307857D01*
X142144139Y-56309918D01*
X142184513Y-56318500D01*
X142232390Y-56318500D01*
X142375487Y-56318500D01*
X142415857Y-56309918D01*
X142428870Y-56307857D01*
X142469928Y-56303542D01*
X142509178Y-56290787D01*
X142521914Y-56287375D01*
X142562288Y-56278794D01*
X142599997Y-56262003D01*
X142612286Y-56257285D01*
X142651556Y-56244527D01*
X142657917Y-56240853D01*
X142687294Y-56223893D01*
X142699052Y-56217902D01*
X142701345Y-56216881D01*
X142736752Y-56201118D01*
X142770148Y-56176853D01*
X142781202Y-56169675D01*
X142816944Y-56149040D01*
X142847618Y-56121419D01*
X142857857Y-56113128D01*
X142891253Y-56088866D01*
X142918886Y-56058174D01*
X142928174Y-56048886D01*
X142958866Y-56021253D01*
X142983128Y-55987857D01*
X142991419Y-55977618D01*
X143019040Y-55946944D01*
X143039675Y-55911202D01*
X143046854Y-55900148D01*
X143071118Y-55866752D01*
X143087904Y-55829048D01*
X143093893Y-55817294D01*
X143114524Y-55781561D01*
X143114523Y-55781561D01*
X143114527Y-55781556D01*
X143127285Y-55742286D01*
X143132004Y-55729996D01*
X143148794Y-55692288D01*
X143157375Y-55651914D01*
X143160789Y-55639174D01*
X143165070Y-55626000D01*
X143173542Y-55599928D01*
X143177857Y-55558870D01*
X143179920Y-55545849D01*
X143188093Y-55507404D01*
X143188500Y-55505487D01*
X143188500Y-55464216D01*
X143189190Y-55451046D01*
X143190626Y-55437384D01*
X143193504Y-55410000D01*
X143189190Y-55368954D01*
X143188500Y-55355784D01*
X143188500Y-55314513D01*
X143188499Y-55314510D01*
X143179918Y-55274139D01*
X143177857Y-55261131D01*
X143173542Y-55220072D01*
X143160781Y-55180801D01*
X143157375Y-55168086D01*
X143148794Y-55127712D01*
X143132004Y-55090003D01*
X143127283Y-55077706D01*
X143114527Y-55038444D01*
X143098070Y-55009940D01*
X143093896Y-55002710D01*
X143087907Y-54990957D01*
X143071118Y-54953249D01*
X143071118Y-54953248D01*
X143046854Y-54919851D01*
X143039675Y-54908796D01*
X143032354Y-54896117D01*
X143019040Y-54873056D01*
X143007702Y-54860464D01*
X142991424Y-54842385D01*
X142983128Y-54832141D01*
X142958866Y-54798747D01*
X142928193Y-54771129D01*
X142918875Y-54761812D01*
X142891253Y-54731134D01*
X142891251Y-54731132D01*
X142889159Y-54728809D01*
X142861438Y-54678382D01*
X142859029Y-54620889D01*
X142882435Y-54568320D01*
X142926773Y-54531640D01*
X142982797Y-54518500D01*
X146577203Y-54518500D01*
X146633227Y-54531641D01*
X146677566Y-54568321D01*
X146700971Y-54620891D01*
X146698561Y-54678386D01*
X146670838Y-54728812D01*
X146641129Y-54761806D01*
X146631806Y-54771129D01*
X146601134Y-54798746D01*
X146576871Y-54832141D01*
X146568574Y-54842387D01*
X146540960Y-54873055D01*
X146520323Y-54908798D01*
X146513144Y-54919851D01*
X146488881Y-54953247D01*
X146472091Y-54990959D01*
X146466104Y-55002709D01*
X146445471Y-55038445D01*
X146432717Y-55077698D01*
X146427993Y-55090005D01*
X146411205Y-55127713D01*
X146402625Y-55168079D01*
X146399212Y-55180817D01*
X146386457Y-55220071D01*
X146382141Y-55261126D01*
X146380079Y-55274143D01*
X146371500Y-55314510D01*
X146371500Y-55355784D01*
X146370810Y-55368954D01*
X146366496Y-55409999D01*
X146370810Y-55451046D01*
X146371500Y-55464216D01*
X146371500Y-55505489D01*
X146380079Y-55545855D01*
X146382141Y-55558874D01*
X146386457Y-55599927D01*
X146399212Y-55639183D01*
X146402625Y-55651921D01*
X146411205Y-55692286D01*
X146427994Y-55729996D01*
X146432720Y-55742308D01*
X146445471Y-55781554D01*
X146466107Y-55817295D01*
X146472095Y-55829048D01*
X146488882Y-55866753D01*
X146513144Y-55900148D01*
X146520325Y-55911205D01*
X146540959Y-55946943D01*
X146568575Y-55977614D01*
X146576873Y-55987861D01*
X146601134Y-56021253D01*
X146631812Y-56048875D01*
X146641131Y-56058195D01*
X146668747Y-56088866D01*
X146702142Y-56113129D01*
X146712385Y-56121424D01*
X146734152Y-56141022D01*
X146743056Y-56149040D01*
X146772384Y-56165973D01*
X146778796Y-56169675D01*
X146789852Y-56176854D01*
X146823248Y-56201118D01*
X146834214Y-56206000D01*
X146860957Y-56217907D01*
X146872710Y-56223896D01*
X146908440Y-56244525D01*
X146908441Y-56244525D01*
X146908444Y-56244527D01*
X146947706Y-56257283D01*
X146960003Y-56262004D01*
X146997712Y-56278794D01*
X147038086Y-56287375D01*
X147050801Y-56290781D01*
X147090072Y-56303542D01*
X147131131Y-56307857D01*
X147144139Y-56309918D01*
X147184513Y-56318500D01*
X147232390Y-56318500D01*
X147375487Y-56318500D01*
X147415857Y-56309918D01*
X147428870Y-56307857D01*
X147469928Y-56303542D01*
X147509178Y-56290787D01*
X147521914Y-56287375D01*
X147562288Y-56278794D01*
X147599997Y-56262003D01*
X147612286Y-56257285D01*
X147651556Y-56244527D01*
X147657917Y-56240853D01*
X147687294Y-56223893D01*
X147699077Y-56217891D01*
X147701347Y-56216881D01*
X147752567Y-56206000D01*
X148251000Y-56206000D01*
X148251000Y-54978264D01*
X148758999Y-54978264D01*
X148759000Y-54978265D01*
X148759000Y-56206000D01*
X149738000Y-56206000D01*
X149738000Y-56129626D01*
X149723088Y-55963946D01*
X149664043Y-55750003D01*
X149567746Y-55550039D01*
X149437289Y-55370482D01*
X149276869Y-55217104D01*
X149091642Y-55094837D01*
X148887557Y-55007606D01*
X148758999Y-54978264D01*
X148251000Y-54978264D01*
X148251000Y-54975146D01*
X148250999Y-54975145D01*
X148229524Y-54978054D01*
X148203014Y-54986668D01*
X148150907Y-54992144D01*
X148101077Y-54975952D01*
X148062142Y-54940893D01*
X148046856Y-54919853D01*
X148039675Y-54908796D01*
X148032354Y-54896117D01*
X148019040Y-54873056D01*
X148007702Y-54860464D01*
X147991424Y-54842385D01*
X147983128Y-54832141D01*
X147958866Y-54798747D01*
X147928193Y-54771129D01*
X147918875Y-54761812D01*
X147891253Y-54731134D01*
X147891251Y-54731132D01*
X147889159Y-54728809D01*
X147861438Y-54678382D01*
X147859029Y-54620889D01*
X147882435Y-54568320D01*
X147926773Y-54531640D01*
X147982797Y-54518500D01*
X151570455Y-54518500D01*
X151630424Y-54533686D01*
X151675938Y-54575584D01*
X151696025Y-54634095D01*
X151685843Y-54695113D01*
X151647848Y-54743929D01*
X151577419Y-54798747D01*
X151476759Y-54877094D01*
X151324278Y-55042731D01*
X151201139Y-55231209D01*
X151110702Y-55437388D01*
X151055437Y-55655627D01*
X151055436Y-55655632D01*
X151036844Y-55880000D01*
X151055436Y-56104368D01*
X151055436Y-56104371D01*
X151055437Y-56104372D01*
X151110702Y-56322611D01*
X151201139Y-56528790D01*
X151235183Y-56580898D01*
X151324278Y-56717268D01*
X151476419Y-56882536D01*
X151476762Y-56882908D01*
X151654421Y-57021187D01*
X151654424Y-57021189D01*
X151852426Y-57128342D01*
X152065365Y-57201444D01*
X152287431Y-57238500D01*
X152512566Y-57238500D01*
X152512569Y-57238500D01*
X152734635Y-57201444D01*
X152838624Y-57165744D01*
X152869588Y-57155115D01*
X152928666Y-57149604D01*
X152983716Y-57171743D01*
X153022529Y-57216622D01*
X153036500Y-57274288D01*
X153036500Y-58845667D01*
X153024402Y-58899539D01*
X152990434Y-58943064D01*
X152971381Y-58958701D01*
X152953431Y-58973432D01*
X152827404Y-59126995D01*
X152733758Y-59302197D01*
X152676091Y-59492298D01*
X152656619Y-59689999D01*
X152676091Y-59887701D01*
X152737361Y-60089679D01*
X152735476Y-60090250D01*
X152746783Y-60143959D01*
X152722015Y-60209915D01*
X152719112Y-60213792D01*
X152692688Y-60284638D01*
X152674412Y-60333639D01*
X152668011Y-60350800D01*
X152661500Y-60411362D01*
X152661500Y-61020405D01*
X152651909Y-61068623D01*
X152624595Y-61109501D01*
X151703437Y-62030656D01*
X151669013Y-62055081D01*
X151628453Y-62066767D01*
X151583953Y-62071782D01*
X151411985Y-62131956D01*
X151257717Y-62228889D01*
X151128889Y-62357717D01*
X151031956Y-62511985D01*
X150971783Y-62683950D01*
X150951384Y-62865000D01*
X150971783Y-63046049D01*
X151031956Y-63218014D01*
X151128889Y-63372282D01*
X151257717Y-63501110D01*
X151257719Y-63501111D01*
X151411985Y-63598043D01*
X151583953Y-63658217D01*
X151765000Y-63678616D01*
X151946047Y-63658217D01*
X152118015Y-63598043D01*
X152272281Y-63501111D01*
X152401111Y-63372281D01*
X152498043Y-63218015D01*
X152558217Y-63046047D01*
X152563231Y-63001543D01*
X152574916Y-62960986D01*
X152599338Y-62926565D01*
X153520502Y-62005402D01*
X153561377Y-61978091D01*
X153609595Y-61968500D01*
X154218638Y-61968500D01*
X154279201Y-61961989D01*
X154416204Y-61910889D01*
X154420523Y-61907655D01*
X154486483Y-61882884D01*
X154539917Y-61894136D01*
X154540513Y-61892174D01*
X154685999Y-61936307D01*
X154686000Y-61936307D01*
X154686000Y-60832000D01*
X154702881Y-60769000D01*
X154749000Y-60722881D01*
X154812000Y-60706000D01*
X155068000Y-60706000D01*
X155131000Y-60722881D01*
X155177119Y-60769000D01*
X155194000Y-60832000D01*
X155194000Y-61936307D01*
X155327609Y-61895776D01*
X155513669Y-61796326D01*
X155514978Y-61798775D01*
X155545966Y-61783481D01*
X155603217Y-61783475D01*
X155634813Y-61799061D01*
X155636052Y-61796745D01*
X155646994Y-61802594D01*
X155646996Y-61802595D01*
X155822196Y-61896241D01*
X155897882Y-61919200D01*
X156012298Y-61953908D01*
X156210000Y-61973380D01*
X156407701Y-61953908D01*
X156597804Y-61896241D01*
X156773004Y-61802595D01*
X156773003Y-61802595D01*
X156783949Y-61796745D01*
X156785187Y-61799061D01*
X156816750Y-61783482D01*
X156873998Y-61783473D01*
X156905023Y-61798773D01*
X156906332Y-61796326D01*
X157092390Y-61895776D01*
X157225999Y-61936307D01*
X157226000Y-61936307D01*
X157226000Y-61214000D01*
X157734000Y-61214000D01*
X157734000Y-61936307D01*
X157867609Y-61895776D01*
X158053669Y-61796326D01*
X158054923Y-61798672D01*
X158086376Y-61783153D01*
X158143624Y-61783153D01*
X158175076Y-61798672D01*
X158176331Y-61796326D01*
X158362390Y-61895776D01*
X158495999Y-61936307D01*
X158496000Y-61936307D01*
X158496000Y-61214000D01*
X157734000Y-61214000D01*
X157226000Y-61214000D01*
X157226000Y-60832000D01*
X157242881Y-60769000D01*
X157289000Y-60722881D01*
X157352000Y-60706000D01*
X158817905Y-60706000D01*
X158866123Y-60715591D01*
X158907000Y-60742905D01*
X158967095Y-60803000D01*
X158994409Y-60843877D01*
X159004000Y-60892095D01*
X159004000Y-61936307D01*
X159008540Y-61939674D01*
X159047040Y-61937309D01*
X159100558Y-61960249D01*
X159138046Y-62004803D01*
X159151500Y-62061454D01*
X159151500Y-68842264D01*
X159132187Y-68909300D01*
X159051956Y-69036985D01*
X158991782Y-69208953D01*
X158986767Y-69253455D01*
X158975081Y-69294015D01*
X158950655Y-69328439D01*
X154863705Y-73415388D01*
X154815821Y-73445363D01*
X154759652Y-73451402D01*
X154706490Y-73432292D01*
X154680186Y-73415388D01*
X154660512Y-73402744D01*
X154660510Y-73402743D01*
X154660507Y-73402741D01*
X154606157Y-73377920D01*
X154552502Y-73331427D01*
X154532500Y-73263307D01*
X154532500Y-68247136D01*
X154533578Y-68230690D01*
X154533727Y-68229553D01*
X154537750Y-68199000D01*
X154533578Y-68167310D01*
X154533578Y-68167303D01*
X154516838Y-68040150D01*
X154455524Y-67892125D01*
X154433507Y-67863432D01*
X154433506Y-67863429D01*
X154377456Y-67790383D01*
X154377443Y-67790369D01*
X154357987Y-67765012D01*
X154332618Y-67745546D01*
X154320228Y-67734679D01*
X146027548Y-59441999D01*
X145993802Y-59380942D01*
X145997714Y-59311289D01*
X146038083Y-59254393D01*
X146102533Y-59227696D01*
X146231047Y-59213217D01*
X146403015Y-59153043D01*
X146557281Y-59056111D01*
X146686111Y-58927281D01*
X146783043Y-58773015D01*
X146843217Y-58601047D01*
X146863616Y-58420000D01*
X146843217Y-58238953D01*
X146792831Y-58094959D01*
X146783043Y-58066985D01*
X146686110Y-57912717D01*
X146557282Y-57783889D01*
X146403014Y-57686956D01*
X146231049Y-57626783D01*
X146146701Y-57617279D01*
X146106140Y-57605593D01*
X146071715Y-57581166D01*
X145879315Y-57388766D01*
X145868448Y-57376375D01*
X145848986Y-57351011D01*
X145817074Y-57326524D01*
X145817074Y-57326525D01*
X145817072Y-57326523D01*
X145721876Y-57253476D01*
X145721875Y-57253475D01*
X145599635Y-57202842D01*
X145573851Y-57192162D01*
X145573850Y-57192161D01*
X145573848Y-57192161D01*
X145554468Y-57189608D01*
X145554456Y-57189608D01*
X145540469Y-57187766D01*
X145446703Y-57175422D01*
X145446691Y-57175422D01*
X145415000Y-57171250D01*
X145383307Y-57175422D01*
X145366864Y-57176500D01*
X143979607Y-57176500D01*
X143963163Y-57175422D01*
X143931471Y-57171250D01*
X143899778Y-57175422D01*
X143899765Y-57175423D01*
X143792054Y-57189602D01*
X143792033Y-57189605D01*
X143792014Y-57189608D01*
X143777726Y-57191489D01*
X143772618Y-57192162D01*
X143624593Y-57253476D01*
X143532750Y-57323950D01*
X143532722Y-57323973D01*
X143497481Y-57351014D01*
X143478016Y-57376381D01*
X143467152Y-57388768D01*
X143113767Y-57742153D01*
X143101380Y-57753018D01*
X143076012Y-57772484D01*
X143048973Y-57807722D01*
X143048950Y-57807750D01*
X142978476Y-57899593D01*
X142918380Y-58044679D01*
X142918380Y-58044680D01*
X142917162Y-58047621D01*
X142900422Y-58174775D01*
X142900422Y-58174780D01*
X142898058Y-58192731D01*
X142896250Y-58206470D01*
X142900422Y-58238161D01*
X142901500Y-58254607D01*
X142901500Y-66880864D01*
X142900422Y-66897310D01*
X142896250Y-66928999D01*
X142900422Y-66960690D01*
X142900422Y-66960697D01*
X142901500Y-66968885D01*
X142911244Y-67042906D01*
X142914608Y-67068455D01*
X142914608Y-67068468D01*
X142917161Y-67087848D01*
X142978476Y-67235878D01*
X143051521Y-67331072D01*
X143051524Y-67331074D01*
X143076010Y-67362984D01*
X143076011Y-67362985D01*
X143076013Y-67362987D01*
X143101379Y-67382451D01*
X143113769Y-67393318D01*
X149617838Y-73897387D01*
X149650829Y-73955321D01*
X149649640Y-74021979D01*
X149633080Y-74078378D01*
X149612271Y-74223114D01*
X149612271Y-74795001D01*
X149629853Y-74928554D01*
X149629853Y-74961446D01*
X149617035Y-75058811D01*
X149612271Y-75095000D01*
X149612271Y-75666889D01*
X149633080Y-75811622D01*
X149633081Y-75811625D01*
X149673586Y-75949574D01*
X149734331Y-76082589D01*
X149812058Y-76203535D01*
X149812062Y-76203540D01*
X149855989Y-76262220D01*
X149907821Y-76314051D01*
X150016482Y-76408205D01*
X150107105Y-76466445D01*
X150139489Y-76487257D01*
X150168841Y-76500661D01*
X150207690Y-76528324D01*
X150233474Y-76568445D01*
X150242500Y-76615275D01*
X150242500Y-77178138D01*
X150226778Y-77239087D01*
X150183538Y-77284823D01*
X150147818Y-77307268D01*
X150143610Y-77309912D01*
X150014785Y-77438737D01*
X149917852Y-77593005D01*
X149857679Y-77764970D01*
X149837280Y-77946019D01*
X149857679Y-78127069D01*
X149884022Y-78202351D01*
X149890301Y-78258073D01*
X149871781Y-78311002D01*
X149824035Y-78386988D01*
X149763864Y-78558950D01*
X149743465Y-78740000D01*
X149763864Y-78921049D01*
X149824037Y-79093014D01*
X149920970Y-79247282D01*
X150049798Y-79376110D01*
X150136671Y-79430696D01*
X150204066Y-79473043D01*
X150376034Y-79533217D01*
X150557081Y-79553616D01*
X150738128Y-79533217D01*
X150910096Y-79473043D01*
X151064362Y-79376111D01*
X151193192Y-79247281D01*
X151225694Y-79195551D01*
X151235291Y-79182281D01*
X151244297Y-79171395D01*
X151252274Y-79162628D01*
X153769269Y-76645634D01*
X153810147Y-76618320D01*
X153858365Y-76608729D01*
X154097603Y-76608729D01*
X154106592Y-76609050D01*
X154173999Y-76613871D01*
X154173999Y-76613870D01*
X154174000Y-76613871D01*
X154230512Y-76609829D01*
X154297236Y-76623515D01*
X154347089Y-76669929D01*
X154365500Y-76735508D01*
X154365500Y-86373917D01*
X154355909Y-86422135D01*
X154328595Y-86463012D01*
X154303889Y-86487717D01*
X154206956Y-86641985D01*
X154146783Y-86813950D01*
X154126384Y-86994999D01*
X154146783Y-87176049D01*
X154206956Y-87348014D01*
X154303889Y-87502282D01*
X154432717Y-87631110D01*
X154586985Y-87728043D01*
X154758953Y-87788217D01*
X154940000Y-87808616D01*
X155121047Y-87788217D01*
X155293015Y-87728043D01*
X155447281Y-87631111D01*
X155576111Y-87502281D01*
X155673043Y-87348015D01*
X155733217Y-87176047D01*
X155753616Y-86995000D01*
X155733217Y-86813953D01*
X155673043Y-86641985D01*
X155651812Y-86608197D01*
X155632500Y-86541162D01*
X155632500Y-74490594D01*
X155642091Y-74442376D01*
X155669405Y-74401499D01*
X156692984Y-73377920D01*
X159846563Y-70224339D01*
X159880987Y-70199914D01*
X159921544Y-70188230D01*
X159966047Y-70183217D01*
X160138015Y-70123043D01*
X160292281Y-70026111D01*
X160421111Y-69897281D01*
X160518043Y-69743015D01*
X160578217Y-69571047D01*
X160598616Y-69390000D01*
X160578217Y-69208953D01*
X160518043Y-69036985D01*
X160437813Y-68909300D01*
X160418500Y-68842264D01*
X160418500Y-63500000D01*
X161196844Y-63500000D01*
X161215436Y-63724368D01*
X161215436Y-63724371D01*
X161215437Y-63724372D01*
X161270702Y-63942611D01*
X161361139Y-64148790D01*
X161484278Y-64337268D01*
X161636762Y-64502908D01*
X161814420Y-64641186D01*
X161814424Y-64641189D01*
X162012426Y-64748342D01*
X162225365Y-64821444D01*
X162447431Y-64858500D01*
X162672566Y-64858500D01*
X162672569Y-64858500D01*
X162894635Y-64821444D01*
X163107574Y-64748342D01*
X163305576Y-64641189D01*
X163483240Y-64502906D01*
X163635722Y-64337268D01*
X163724518Y-64201354D01*
X163770031Y-64159458D01*
X163830000Y-64144272D01*
X163889969Y-64159458D01*
X163935481Y-64201354D01*
X164014700Y-64322607D01*
X164024278Y-64337268D01*
X164176762Y-64502908D01*
X164354418Y-64641185D01*
X164354420Y-64641186D01*
X164354424Y-64641189D01*
X164387682Y-64659187D01*
X164435952Y-64705503D01*
X164453711Y-64770000D01*
X164435952Y-64834497D01*
X164387682Y-64880812D01*
X164362794Y-64894281D01*
X164354418Y-64898814D01*
X164176762Y-65037091D01*
X164024278Y-65202731D01*
X163901139Y-65391209D01*
X163810702Y-65597388D01*
X163755437Y-65815627D01*
X163755436Y-65815632D01*
X163736844Y-66040000D01*
X163755436Y-66264368D01*
X163755436Y-66264371D01*
X163755437Y-66264372D01*
X163810702Y-66482611D01*
X163901139Y-66688790D01*
X164024278Y-66877268D01*
X164176762Y-67042908D01*
X164354418Y-67181185D01*
X164354420Y-67181186D01*
X164354424Y-67181189D01*
X164387682Y-67199187D01*
X164435952Y-67245503D01*
X164453711Y-67310000D01*
X164435952Y-67374497D01*
X164387682Y-67420812D01*
X164362794Y-67434281D01*
X164354418Y-67438814D01*
X164176762Y-67577091D01*
X164024278Y-67742731D01*
X163901139Y-67931209D01*
X163810702Y-68137388D01*
X163755437Y-68355627D01*
X163755436Y-68355632D01*
X163736844Y-68580000D01*
X163755436Y-68804368D01*
X163755436Y-68804371D01*
X163755437Y-68804372D01*
X163810702Y-69022611D01*
X163901139Y-69228790D01*
X164024278Y-69417268D01*
X164176762Y-69582908D01*
X164354418Y-69721185D01*
X164354420Y-69721186D01*
X164354424Y-69721189D01*
X164387682Y-69739187D01*
X164435952Y-69785503D01*
X164453711Y-69850000D01*
X164435952Y-69914497D01*
X164387682Y-69960812D01*
X164362794Y-69974281D01*
X164354418Y-69978814D01*
X164176762Y-70117091D01*
X164024278Y-70282731D01*
X163901139Y-70471209D01*
X163810702Y-70677388D01*
X163755437Y-70895627D01*
X163755436Y-70895632D01*
X163736844Y-71120000D01*
X163755436Y-71344368D01*
X163755436Y-71344371D01*
X163755437Y-71344372D01*
X163810702Y-71562611D01*
X163901139Y-71768790D01*
X164024278Y-71957268D01*
X164176762Y-72122908D01*
X164354418Y-72261185D01*
X164354420Y-72261186D01*
X164354424Y-72261189D01*
X164387682Y-72279187D01*
X164435952Y-72325503D01*
X164453711Y-72390000D01*
X164435952Y-72454497D01*
X164387682Y-72500812D01*
X164362794Y-72514281D01*
X164354418Y-72518814D01*
X164176762Y-72657091D01*
X164024278Y-72822731D01*
X163901139Y-73011209D01*
X163810702Y-73217388D01*
X163763765Y-73402741D01*
X163755436Y-73435632D01*
X163736844Y-73660000D01*
X163755436Y-73884368D01*
X163755436Y-73884371D01*
X163755437Y-73884372D01*
X163810702Y-74102611D01*
X163901139Y-74308790D01*
X164024278Y-74497268D01*
X164176762Y-74662908D01*
X164278611Y-74742181D01*
X164354424Y-74801189D01*
X164387682Y-74819187D01*
X164435951Y-74865500D01*
X164453711Y-74929997D01*
X164435953Y-74994494D01*
X164387683Y-75040811D01*
X164354423Y-75058810D01*
X164176762Y-75197091D01*
X164024278Y-75362731D01*
X163901139Y-75551209D01*
X163810702Y-75757388D01*
X163762034Y-75949577D01*
X163755436Y-75975632D01*
X163736844Y-76200000D01*
X163755436Y-76424368D01*
X163755436Y-76424371D01*
X163755437Y-76424372D01*
X163810702Y-76642611D01*
X163810703Y-76642614D01*
X163810704Y-76642616D01*
X163828500Y-76683187D01*
X163901139Y-76848790D01*
X164024278Y-77037268D01*
X164176762Y-77202908D01*
X164354418Y-77341185D01*
X164354420Y-77341186D01*
X164354424Y-77341189D01*
X164387682Y-77359187D01*
X164435952Y-77405503D01*
X164453711Y-77470000D01*
X164435952Y-77534497D01*
X164387682Y-77580812D01*
X164365153Y-77593005D01*
X164354418Y-77598814D01*
X164176762Y-77737091D01*
X164024278Y-77902731D01*
X163901139Y-78091209D01*
X163810702Y-78297388D01*
X163755437Y-78515627D01*
X163755436Y-78515632D01*
X163736844Y-78740000D01*
X163755436Y-78964368D01*
X163755436Y-78964371D01*
X163755437Y-78964372D01*
X163810702Y-79182611D01*
X163901139Y-79388790D01*
X164018893Y-79569026D01*
X164024278Y-79577268D01*
X164087578Y-79646030D01*
X164176762Y-79742908D01*
X164354418Y-79881185D01*
X164354420Y-79881186D01*
X164354424Y-79881189D01*
X164387682Y-79899187D01*
X164435952Y-79945503D01*
X164453711Y-80010000D01*
X164435952Y-80074497D01*
X164387682Y-80120812D01*
X164362794Y-80134281D01*
X164354418Y-80138814D01*
X164176762Y-80277091D01*
X164024278Y-80442731D01*
X163901139Y-80631209D01*
X163810702Y-80837388D01*
X163799486Y-80881681D01*
X163755436Y-81055632D01*
X163736844Y-81280000D01*
X163755436Y-81504368D01*
X163755436Y-81504371D01*
X163755437Y-81504372D01*
X163810702Y-81722611D01*
X163901139Y-81928790D01*
X164024278Y-82117268D01*
X164176762Y-82282908D01*
X164278611Y-82362181D01*
X164354424Y-82421189D01*
X164387682Y-82439187D01*
X164435951Y-82485500D01*
X164453711Y-82549997D01*
X164435953Y-82614494D01*
X164387683Y-82660811D01*
X164354423Y-82678810D01*
X164176762Y-82817091D01*
X164024278Y-82982731D01*
X163901139Y-83171209D01*
X163810702Y-83377388D01*
X163755437Y-83595627D01*
X163755436Y-83595632D01*
X163736844Y-83820000D01*
X163755436Y-84044368D01*
X163755436Y-84044371D01*
X163755437Y-84044372D01*
X163810702Y-84262611D01*
X163901139Y-84468790D01*
X164024278Y-84657268D01*
X164176762Y-84822908D01*
X164354418Y-84961185D01*
X164354420Y-84961186D01*
X164354424Y-84961189D01*
X164387682Y-84979187D01*
X164435952Y-85025503D01*
X164453711Y-85090000D01*
X164435952Y-85154497D01*
X164387682Y-85200812D01*
X164369817Y-85210481D01*
X164354418Y-85218814D01*
X164176762Y-85357091D01*
X164024278Y-85522731D01*
X163901139Y-85711209D01*
X163810702Y-85917388D01*
X163755437Y-86135627D01*
X163755436Y-86135632D01*
X163736844Y-86360000D01*
X163755436Y-86584368D01*
X163755436Y-86584371D01*
X163755437Y-86584372D01*
X163810702Y-86802611D01*
X163901139Y-87008790D01*
X164024278Y-87197268D01*
X164176762Y-87362908D01*
X164354418Y-87501185D01*
X164354420Y-87501186D01*
X164354424Y-87501189D01*
X164387682Y-87519187D01*
X164435952Y-87565503D01*
X164453711Y-87630000D01*
X164435952Y-87694497D01*
X164387682Y-87740812D01*
X164362794Y-87754281D01*
X164354418Y-87758814D01*
X164176762Y-87897091D01*
X164024278Y-88062731D01*
X163901139Y-88251209D01*
X163810702Y-88457388D01*
X163755437Y-88675627D01*
X163755436Y-88675632D01*
X163736844Y-88900000D01*
X163755436Y-89124368D01*
X163755436Y-89124371D01*
X163755437Y-89124372D01*
X163810702Y-89342611D01*
X163901139Y-89548790D01*
X164024278Y-89737268D01*
X164176762Y-89902908D01*
X164193583Y-89916000D01*
X164354424Y-90041189D01*
X164387682Y-90059187D01*
X164435951Y-90105500D01*
X164453711Y-90169997D01*
X164435953Y-90234494D01*
X164387683Y-90280811D01*
X164354423Y-90298810D01*
X164176762Y-90437091D01*
X164024278Y-90602731D01*
X163901139Y-90791209D01*
X163810702Y-90997388D01*
X163755437Y-91215627D01*
X163755436Y-91215632D01*
X163736844Y-91440000D01*
X163755436Y-91664368D01*
X163755436Y-91664371D01*
X163755437Y-91664372D01*
X163810702Y-91882611D01*
X163901139Y-92088790D01*
X164024278Y-92277268D01*
X164176762Y-92442908D01*
X164207073Y-92466500D01*
X164354424Y-92581189D01*
X164387682Y-92599187D01*
X164435951Y-92645500D01*
X164453711Y-92709997D01*
X164435953Y-92774494D01*
X164387683Y-92820811D01*
X164354423Y-92838810D01*
X164176762Y-92977091D01*
X164024278Y-93142731D01*
X163901139Y-93331209D01*
X163810702Y-93537388D01*
X163760848Y-93734260D01*
X163755436Y-93755632D01*
X163736844Y-93980000D01*
X163755436Y-94204368D01*
X163755436Y-94204371D01*
X163755437Y-94204372D01*
X163810702Y-94422611D01*
X163901139Y-94628790D01*
X164024278Y-94817268D01*
X164176762Y-94982908D01*
X164354418Y-95121185D01*
X164354420Y-95121186D01*
X164354424Y-95121189D01*
X164387682Y-95139187D01*
X164435952Y-95185503D01*
X164453711Y-95250000D01*
X164435952Y-95314497D01*
X164387682Y-95360812D01*
X164362794Y-95374281D01*
X164354418Y-95378814D01*
X164176762Y-95517091D01*
X164024278Y-95682731D01*
X163901139Y-95871209D01*
X163810702Y-96077388D01*
X163760483Y-96275702D01*
X163755436Y-96295632D01*
X163736844Y-96520000D01*
X163755436Y-96744368D01*
X163755436Y-96744371D01*
X163755437Y-96744372D01*
X163810702Y-96962611D01*
X163901139Y-97168790D01*
X164024278Y-97357268D01*
X164176762Y-97522908D01*
X164354418Y-97661185D01*
X164354420Y-97661186D01*
X164354424Y-97661189D01*
X164387682Y-97679187D01*
X164435952Y-97725503D01*
X164453711Y-97790000D01*
X164435952Y-97854497D01*
X164387682Y-97900812D01*
X164362794Y-97914281D01*
X164354418Y-97918814D01*
X164176762Y-98057091D01*
X164024278Y-98222731D01*
X163901139Y-98411209D01*
X163810702Y-98617388D01*
X163755437Y-98835627D01*
X163755436Y-98835632D01*
X163736844Y-99060000D01*
X163755436Y-99284368D01*
X163755436Y-99284371D01*
X163755437Y-99284372D01*
X163810702Y-99502611D01*
X163901139Y-99708790D01*
X164024278Y-99897268D01*
X164176762Y-100062908D01*
X164354418Y-100201185D01*
X164354420Y-100201186D01*
X164354424Y-100201189D01*
X164387682Y-100219187D01*
X164435952Y-100265503D01*
X164453711Y-100330000D01*
X164435952Y-100394497D01*
X164387682Y-100440812D01*
X164362794Y-100454281D01*
X164354418Y-100458814D01*
X164176762Y-100597091D01*
X164024278Y-100762731D01*
X163901139Y-100951209D01*
X163810702Y-101157388D01*
X163755437Y-101375627D01*
X163755436Y-101375632D01*
X163736844Y-101600000D01*
X163755436Y-101824368D01*
X163755436Y-101824371D01*
X163755437Y-101824372D01*
X163810702Y-102042611D01*
X163901139Y-102248790D01*
X164024278Y-102437268D01*
X164176762Y-102602908D01*
X164354418Y-102741185D01*
X164354420Y-102741186D01*
X164354424Y-102741189D01*
X164387682Y-102759187D01*
X164435952Y-102805503D01*
X164453711Y-102870000D01*
X164435952Y-102934497D01*
X164387682Y-102980812D01*
X164362794Y-102994281D01*
X164354418Y-102998814D01*
X164176762Y-103137091D01*
X164024278Y-103302731D01*
X163901139Y-103491209D01*
X163810702Y-103697388D01*
X163755437Y-103915627D01*
X163755436Y-103915632D01*
X163736844Y-104140000D01*
X163755436Y-104364368D01*
X163755436Y-104364371D01*
X163755437Y-104364372D01*
X163810702Y-104582611D01*
X163901139Y-104788790D01*
X164024278Y-104977268D01*
X164176762Y-105142908D01*
X164354421Y-105281187D01*
X164354424Y-105281189D01*
X164552426Y-105388342D01*
X164765365Y-105461444D01*
X164987431Y-105498500D01*
X165212566Y-105498500D01*
X165212569Y-105498500D01*
X165434635Y-105461444D01*
X165647574Y-105388342D01*
X165845576Y-105281189D01*
X166023240Y-105142906D01*
X166175722Y-104977268D01*
X166298860Y-104788791D01*
X166389296Y-104582616D01*
X166444564Y-104364368D01*
X166463156Y-104140000D01*
X166444564Y-103915632D01*
X166389296Y-103697384D01*
X166298860Y-103491209D01*
X166175722Y-103302732D01*
X166023240Y-103137094D01*
X166023239Y-103137093D01*
X166023237Y-103137091D01*
X165845579Y-102998813D01*
X165845577Y-102998812D01*
X165845576Y-102998811D01*
X165812317Y-102980812D01*
X165764047Y-102934498D01*
X165746288Y-102870000D01*
X165764047Y-102805502D01*
X165812317Y-102759187D01*
X165845576Y-102741189D01*
X166023240Y-102602906D01*
X166175722Y-102437268D01*
X166298860Y-102248791D01*
X166389296Y-102042616D01*
X166444564Y-101824368D01*
X166463156Y-101600000D01*
X166444564Y-101375632D01*
X166389296Y-101157384D01*
X166298860Y-100951209D01*
X166175722Y-100762732D01*
X166023240Y-100597094D01*
X166023239Y-100597093D01*
X166023237Y-100597091D01*
X165845579Y-100458813D01*
X165845577Y-100458812D01*
X165845576Y-100458811D01*
X165812317Y-100440812D01*
X165764047Y-100394498D01*
X165746288Y-100330000D01*
X165764047Y-100265502D01*
X165812317Y-100219187D01*
X165845576Y-100201189D01*
X166023240Y-100062906D01*
X166175722Y-99897268D01*
X166298860Y-99708791D01*
X166389296Y-99502616D01*
X166444564Y-99284368D01*
X166463156Y-99060000D01*
X166444564Y-98835632D01*
X166389296Y-98617384D01*
X166298860Y-98411209D01*
X166175722Y-98222732D01*
X166023240Y-98057094D01*
X166023239Y-98057093D01*
X166023237Y-98057091D01*
X165845579Y-97918813D01*
X165845577Y-97918812D01*
X165845576Y-97918811D01*
X165812317Y-97900812D01*
X165764047Y-97854498D01*
X165746288Y-97790000D01*
X165764047Y-97725502D01*
X165812317Y-97679187D01*
X165845576Y-97661189D01*
X166023240Y-97522906D01*
X166175722Y-97357268D01*
X166298860Y-97168791D01*
X166389296Y-96962616D01*
X166444564Y-96744368D01*
X166463156Y-96520000D01*
X166444564Y-96295632D01*
X166389296Y-96077384D01*
X166298860Y-95871209D01*
X166175722Y-95682732D01*
X166023240Y-95517094D01*
X166023239Y-95517093D01*
X166023237Y-95517091D01*
X165845579Y-95378813D01*
X165845577Y-95378812D01*
X165845576Y-95378811D01*
X165812317Y-95360812D01*
X165764047Y-95314498D01*
X165746288Y-95250000D01*
X165764047Y-95185502D01*
X165812317Y-95139187D01*
X165845576Y-95121189D01*
X166023240Y-94982906D01*
X166175722Y-94817268D01*
X166298860Y-94628791D01*
X166389296Y-94422616D01*
X166444564Y-94204368D01*
X166463156Y-93980000D01*
X166444564Y-93755632D01*
X166389296Y-93537384D01*
X166298860Y-93331209D01*
X166175722Y-93142732D01*
X166023240Y-92977094D01*
X166023239Y-92977093D01*
X166023237Y-92977091D01*
X165845578Y-92838812D01*
X165812317Y-92820812D01*
X165764046Y-92774495D01*
X165746288Y-92709997D01*
X165764049Y-92645499D01*
X165812317Y-92599187D01*
X165845576Y-92581189D01*
X166023240Y-92442906D01*
X166175722Y-92277268D01*
X166298860Y-92088791D01*
X166389296Y-91882616D01*
X166444564Y-91664368D01*
X166463156Y-91440000D01*
X166444564Y-91215632D01*
X166389296Y-90997384D01*
X166298860Y-90791209D01*
X166175722Y-90602732D01*
X166023240Y-90437094D01*
X166023239Y-90437093D01*
X166023237Y-90437091D01*
X165845578Y-90298812D01*
X165812317Y-90280812D01*
X165764046Y-90234495D01*
X165746288Y-90169997D01*
X165764049Y-90105499D01*
X165812317Y-90059187D01*
X165845576Y-90041189D01*
X166023240Y-89902906D01*
X166175722Y-89737268D01*
X166298860Y-89548791D01*
X166389296Y-89342616D01*
X166444564Y-89124368D01*
X166463156Y-88900000D01*
X166444564Y-88675632D01*
X166389296Y-88457384D01*
X166298860Y-88251209D01*
X166175722Y-88062732D01*
X166023240Y-87897094D01*
X166023239Y-87897093D01*
X166023237Y-87897091D01*
X165845579Y-87758813D01*
X165845577Y-87758812D01*
X165845576Y-87758811D01*
X165812317Y-87740812D01*
X165764047Y-87694498D01*
X165746288Y-87630000D01*
X165764047Y-87565502D01*
X165812317Y-87519187D01*
X165845576Y-87501189D01*
X166023240Y-87362906D01*
X166175722Y-87197268D01*
X166298860Y-87008791D01*
X166389296Y-86802616D01*
X166444564Y-86584368D01*
X166463156Y-86360000D01*
X166444564Y-86135632D01*
X166389296Y-85917384D01*
X166298860Y-85711209D01*
X166175722Y-85522732D01*
X166023240Y-85357094D01*
X166023239Y-85357093D01*
X166023237Y-85357091D01*
X165845579Y-85218813D01*
X165845577Y-85218812D01*
X165845576Y-85218811D01*
X165812317Y-85200812D01*
X165764047Y-85154498D01*
X165746288Y-85090000D01*
X165764047Y-85025502D01*
X165812317Y-84979187D01*
X165845576Y-84961189D01*
X166023240Y-84822906D01*
X166175722Y-84657268D01*
X166298860Y-84468791D01*
X166389296Y-84262616D01*
X166444564Y-84044368D01*
X166463156Y-83820000D01*
X166444564Y-83595632D01*
X166389296Y-83377384D01*
X166298860Y-83171209D01*
X166175722Y-82982732D01*
X166023240Y-82817094D01*
X166023239Y-82817093D01*
X166023237Y-82817091D01*
X165845579Y-82678813D01*
X165845577Y-82678812D01*
X165845576Y-82678811D01*
X165812317Y-82660812D01*
X165764047Y-82614498D01*
X165746288Y-82550000D01*
X165764047Y-82485502D01*
X165812317Y-82439187D01*
X165845576Y-82421189D01*
X166023240Y-82282906D01*
X166175722Y-82117268D01*
X166298860Y-81928791D01*
X166389296Y-81722616D01*
X166444564Y-81504368D01*
X166463156Y-81280000D01*
X166444564Y-81055632D01*
X166389296Y-80837384D01*
X166298860Y-80631209D01*
X166175722Y-80442732D01*
X166023240Y-80277094D01*
X166023239Y-80277093D01*
X166023237Y-80277091D01*
X165845579Y-80138813D01*
X165845577Y-80138812D01*
X165845576Y-80138811D01*
X165812317Y-80120812D01*
X165764047Y-80074498D01*
X165746288Y-80010000D01*
X165764047Y-79945502D01*
X165812317Y-79899187D01*
X165845576Y-79881189D01*
X166023240Y-79742906D01*
X166175722Y-79577268D01*
X166298860Y-79388791D01*
X166389296Y-79182616D01*
X166444564Y-78964368D01*
X166463156Y-78740000D01*
X166444564Y-78515632D01*
X166389296Y-78297384D01*
X166298860Y-78091209D01*
X166175722Y-77902732D01*
X166023240Y-77737094D01*
X166023239Y-77737093D01*
X166023237Y-77737091D01*
X165845579Y-77598813D01*
X165845577Y-77598812D01*
X165845576Y-77598811D01*
X165812317Y-77580812D01*
X165764047Y-77534498D01*
X165746288Y-77470000D01*
X165764047Y-77405502D01*
X165812317Y-77359187D01*
X165845576Y-77341189D01*
X166023240Y-77202906D01*
X166175722Y-77037268D01*
X166298860Y-76848791D01*
X166389296Y-76642616D01*
X166444564Y-76424368D01*
X166463156Y-76200000D01*
X166444564Y-75975632D01*
X166389296Y-75757384D01*
X166298860Y-75551209D01*
X166175722Y-75362732D01*
X166023240Y-75197094D01*
X166023239Y-75197093D01*
X166023237Y-75197091D01*
X165845578Y-75058812D01*
X165812317Y-75040812D01*
X165764046Y-74994495D01*
X165746288Y-74929997D01*
X165764049Y-74865499D01*
X165812317Y-74819187D01*
X165845576Y-74801189D01*
X166023240Y-74662906D01*
X166175722Y-74497268D01*
X166298860Y-74308791D01*
X166389296Y-74102616D01*
X166444564Y-73884368D01*
X166463156Y-73660000D01*
X166444564Y-73435632D01*
X166389296Y-73217384D01*
X166298860Y-73011209D01*
X166175722Y-72822732D01*
X166023240Y-72657094D01*
X166023239Y-72657093D01*
X166023237Y-72657091D01*
X165845579Y-72518813D01*
X165845577Y-72518812D01*
X165845576Y-72518811D01*
X165812317Y-72500812D01*
X165764047Y-72454498D01*
X165746288Y-72390000D01*
X165764047Y-72325502D01*
X165812317Y-72279187D01*
X165845576Y-72261189D01*
X166023240Y-72122906D01*
X166175722Y-71957268D01*
X166298860Y-71768791D01*
X166389296Y-71562616D01*
X166444564Y-71344368D01*
X166463156Y-71120000D01*
X166444564Y-70895632D01*
X166389296Y-70677384D01*
X166298860Y-70471209D01*
X166175722Y-70282732D01*
X166023240Y-70117094D01*
X166023239Y-70117093D01*
X166023237Y-70117091D01*
X165845579Y-69978813D01*
X165845577Y-69978812D01*
X165845576Y-69978811D01*
X165812317Y-69960812D01*
X165764047Y-69914498D01*
X165746288Y-69850000D01*
X165764047Y-69785502D01*
X165812317Y-69739187D01*
X165845576Y-69721189D01*
X166023240Y-69582906D01*
X166175722Y-69417268D01*
X166298860Y-69228791D01*
X166389296Y-69022616D01*
X166444564Y-68804368D01*
X166463156Y-68580000D01*
X166444564Y-68355632D01*
X166389296Y-68137384D01*
X166298860Y-67931209D01*
X166175722Y-67742732D01*
X166023240Y-67577094D01*
X166023239Y-67577093D01*
X166023237Y-67577091D01*
X165845579Y-67438813D01*
X165845577Y-67438812D01*
X165845576Y-67438811D01*
X165812317Y-67420812D01*
X165764047Y-67374498D01*
X165746288Y-67310000D01*
X165764047Y-67245502D01*
X165812317Y-67199187D01*
X165845576Y-67181189D01*
X166023240Y-67042906D01*
X166175722Y-66877268D01*
X166298860Y-66688791D01*
X166389296Y-66482616D01*
X166444564Y-66264368D01*
X166463156Y-66040000D01*
X166444564Y-65815632D01*
X166389296Y-65597384D01*
X166298860Y-65391209D01*
X166175722Y-65202732D01*
X166023240Y-65037094D01*
X166023239Y-65037093D01*
X166023237Y-65037091D01*
X165845579Y-64898813D01*
X165845577Y-64898812D01*
X165845576Y-64898811D01*
X165812317Y-64880812D01*
X165764047Y-64834498D01*
X165746288Y-64770000D01*
X165764047Y-64705502D01*
X165812317Y-64659187D01*
X165845576Y-64641189D01*
X166023240Y-64502906D01*
X166175722Y-64337268D01*
X166298860Y-64148791D01*
X166389296Y-63942616D01*
X166444564Y-63724368D01*
X166463156Y-63500000D01*
X166444564Y-63275632D01*
X166389296Y-63057384D01*
X166298860Y-62851209D01*
X166175722Y-62662732D01*
X166023240Y-62497094D01*
X166023239Y-62497093D01*
X166023237Y-62497091D01*
X165845579Y-62358813D01*
X165845577Y-62358812D01*
X165845576Y-62358811D01*
X165812317Y-62340812D01*
X165764047Y-62294498D01*
X165746288Y-62230000D01*
X165764047Y-62165502D01*
X165812317Y-62119187D01*
X165845576Y-62101189D01*
X166023240Y-61962906D01*
X166175722Y-61797268D01*
X166298860Y-61608791D01*
X166389296Y-61402616D01*
X166444564Y-61184368D01*
X166463156Y-60960000D01*
X166444564Y-60735632D01*
X166389296Y-60517384D01*
X166298860Y-60311209D01*
X166175722Y-60122732D01*
X166023240Y-59957094D01*
X166023239Y-59957093D01*
X166023237Y-59957091D01*
X165903372Y-59863796D01*
X165845576Y-59818811D01*
X165811792Y-59800528D01*
X165763521Y-59754212D01*
X165745762Y-59689715D01*
X165763521Y-59625217D01*
X165811793Y-59578901D01*
X165845300Y-59560768D01*
X166022903Y-59422533D01*
X166175321Y-59256962D01*
X166298419Y-59068548D01*
X166388822Y-58862451D01*
X166436544Y-58674000D01*
X163763455Y-58674000D01*
X163811177Y-58862451D01*
X163901580Y-59068548D01*
X164024678Y-59256962D01*
X164177096Y-59422533D01*
X164354702Y-59560769D01*
X164388207Y-59578902D01*
X164436478Y-59625218D01*
X164454237Y-59689715D01*
X164436478Y-59754212D01*
X164388207Y-59800528D01*
X164354423Y-59818811D01*
X164176758Y-59957094D01*
X164115754Y-60023362D01*
X164062282Y-60057762D01*
X163998820Y-60061672D01*
X163941530Y-60034096D01*
X163904998Y-59982056D01*
X163895688Y-59957094D01*
X163860889Y-59863796D01*
X163860888Y-59863794D01*
X163773261Y-59746738D01*
X163656205Y-59659111D01*
X163565334Y-59625218D01*
X163519201Y-59608011D01*
X163458638Y-59601500D01*
X161661362Y-59601500D01*
X161600799Y-59608011D01*
X161463794Y-59659111D01*
X161346738Y-59746738D01*
X161259111Y-59863794D01*
X161224313Y-59957091D01*
X161208011Y-60000799D01*
X161201500Y-60061362D01*
X161201500Y-61858638D01*
X161208011Y-61919201D01*
X161226399Y-61968500D01*
X161259111Y-62056205D01*
X161346738Y-62173261D01*
X161463794Y-62260888D01*
X161463795Y-62260888D01*
X161463796Y-62260889D01*
X161578809Y-62303787D01*
X161629140Y-62338348D01*
X161657315Y-62392519D01*
X161656712Y-62453574D01*
X161627475Y-62507178D01*
X161484281Y-62662728D01*
X161484279Y-62662730D01*
X161484278Y-62662732D01*
X161474700Y-62677393D01*
X161361139Y-62851209D01*
X161270702Y-63057388D01*
X161215437Y-63275627D01*
X161215436Y-63275632D01*
X161196844Y-63500000D01*
X160418500Y-63500000D01*
X160418500Y-60808853D01*
X160420795Y-60788064D01*
X160419985Y-60762299D01*
X160418562Y-60717014D01*
X160418500Y-60713055D01*
X160418500Y-60685149D01*
X160418500Y-60685144D01*
X160417992Y-60681131D01*
X160417061Y-60669297D01*
X160416912Y-60664555D01*
X160415673Y-60625111D01*
X160410021Y-60605659D01*
X160406012Y-60586299D01*
X160403474Y-60566203D01*
X160387196Y-60525090D01*
X160383350Y-60513856D01*
X160371018Y-60471407D01*
X160360706Y-60453970D01*
X160352008Y-60436215D01*
X160344552Y-60417383D01*
X160318565Y-60381616D01*
X160312047Y-60371693D01*
X160299691Y-60350800D01*
X160289542Y-60333638D01*
X160275212Y-60319308D01*
X160262378Y-60304281D01*
X160250472Y-60287893D01*
X160250471Y-60287892D01*
X160216394Y-60259700D01*
X160207616Y-60251712D01*
X159794986Y-59839082D01*
X159765446Y-59792434D01*
X159758688Y-59737635D01*
X159763380Y-59689999D01*
X159743908Y-59492298D01*
X159686241Y-59302197D01*
X159686241Y-59302196D01*
X159592595Y-59126996D01*
X159592593Y-59126992D01*
X159466568Y-58973431D01*
X159313007Y-58847406D01*
X159137802Y-58753758D01*
X158947701Y-58696091D01*
X158750000Y-58676619D01*
X158552298Y-58696091D01*
X158362197Y-58753758D01*
X158326172Y-58773014D01*
X158186996Y-58847405D01*
X158186995Y-58847405D01*
X158176052Y-58853255D01*
X158174761Y-58850839D01*
X158143611Y-58866201D01*
X158086389Y-58866201D01*
X158055238Y-58850839D01*
X158053948Y-58853255D01*
X158043005Y-58847405D01*
X158043004Y-58847405D01*
X157867804Y-58753759D01*
X157867803Y-58753758D01*
X157867802Y-58753758D01*
X157677701Y-58696091D01*
X157480000Y-58676619D01*
X157282298Y-58696091D01*
X157092197Y-58753758D01*
X157056172Y-58773014D01*
X156916996Y-58847405D01*
X156916995Y-58847405D01*
X156906052Y-58853255D01*
X156904761Y-58850839D01*
X156873611Y-58866201D01*
X156816389Y-58866201D01*
X156785238Y-58850839D01*
X156783948Y-58853255D01*
X156773005Y-58847405D01*
X156773004Y-58847405D01*
X156597804Y-58753759D01*
X156597803Y-58753758D01*
X156597802Y-58753758D01*
X156407701Y-58696091D01*
X156210000Y-58676619D01*
X156012303Y-58696091D01*
X156012300Y-58696091D01*
X156012299Y-58696092D01*
X155844141Y-58747102D01*
X155778152Y-58749046D01*
X155720237Y-58717354D01*
X155686297Y-58660728D01*
X155685649Y-58594713D01*
X155718469Y-58537434D01*
X157022076Y-57233826D01*
X157082766Y-57200166D01*
X157134545Y-57202842D01*
X157135066Y-57199725D01*
X157145362Y-57201443D01*
X157145365Y-57201444D01*
X157367431Y-57238500D01*
X157592566Y-57238500D01*
X157592569Y-57238500D01*
X157814635Y-57201444D01*
X158027574Y-57128342D01*
X158225576Y-57021189D01*
X158403240Y-56882906D01*
X158555722Y-56717268D01*
X158644818Y-56580896D01*
X158690329Y-56538999D01*
X158750299Y-56523813D01*
X158810268Y-56538999D01*
X158855782Y-56580897D01*
X158944678Y-56716962D01*
X159097096Y-56882533D01*
X159274697Y-57020766D01*
X159472631Y-57127883D01*
X159685485Y-57200955D01*
X159766000Y-57214391D01*
X159766000Y-55752000D01*
X159782881Y-55689000D01*
X159829000Y-55642881D01*
X159892000Y-55626000D01*
X160148000Y-55626000D01*
X160211000Y-55642881D01*
X160257119Y-55689000D01*
X160274000Y-55752000D01*
X160274000Y-57214391D01*
X160354514Y-57200955D01*
X160567368Y-57127883D01*
X160765302Y-57020766D01*
X160942899Y-56882536D01*
X161004047Y-56816112D01*
X161057519Y-56781712D01*
X161120981Y-56777801D01*
X161178273Y-56805377D01*
X161214805Y-56857416D01*
X161259111Y-56976206D01*
X161346738Y-57093261D01*
X161463794Y-57180888D01*
X161463795Y-57180888D01*
X161463796Y-57180889D01*
X161600799Y-57231989D01*
X161661362Y-57238500D01*
X163458638Y-57238500D01*
X163519201Y-57231989D01*
X163656204Y-57180889D01*
X163754909Y-57106998D01*
X163803633Y-57084747D01*
X163857200Y-57084747D01*
X163905927Y-57106999D01*
X164004039Y-57180446D01*
X164119678Y-57223577D01*
X164170012Y-57258141D01*
X164198187Y-57312311D01*
X164197585Y-57373366D01*
X164168348Y-57426970D01*
X164024675Y-57583040D01*
X163901580Y-57771451D01*
X163811177Y-57977548D01*
X163763455Y-58165999D01*
X163763456Y-58166000D01*
X164846000Y-58166000D01*
X164846000Y-56134000D01*
X165354000Y-56134000D01*
X165354000Y-58166000D01*
X166436544Y-58166000D01*
X166436544Y-58165999D01*
X166388822Y-57977548D01*
X166298419Y-57771451D01*
X166175321Y-57583037D01*
X166031652Y-57426970D01*
X166002415Y-57373366D01*
X166001812Y-57312311D01*
X166029987Y-57258140D01*
X166080321Y-57223577D01*
X166195962Y-57180445D01*
X166312904Y-57092904D01*
X166400445Y-56975962D01*
X166451494Y-56839093D01*
X166458000Y-56778589D01*
X166458000Y-56134000D01*
X165354000Y-56134000D01*
X164846000Y-56134000D01*
X164846000Y-54522000D01*
X165354000Y-54522000D01*
X165354000Y-55626000D01*
X166458000Y-55626000D01*
X166458000Y-54981411D01*
X166451494Y-54920906D01*
X166400445Y-54784037D01*
X166312904Y-54667095D01*
X166195962Y-54579554D01*
X166059093Y-54528505D01*
X165998589Y-54522000D01*
X165354000Y-54522000D01*
X164846000Y-54522000D01*
X164201411Y-54522000D01*
X164140906Y-54528505D01*
X164004037Y-54579554D01*
X163905926Y-54652999D01*
X163857200Y-54675252D01*
X163803634Y-54675251D01*
X163754908Y-54652999D01*
X163656205Y-54579111D01*
X163587702Y-54553560D01*
X163519201Y-54528011D01*
X163458638Y-54521500D01*
X162149594Y-54521500D01*
X162101376Y-54511909D01*
X162060499Y-54484595D01*
X161072244Y-53496339D01*
X161059171Y-53480021D01*
X161007348Y-53431356D01*
X161004536Y-53428631D01*
X160984770Y-53408865D01*
X160981575Y-53406386D01*
X160972553Y-53398681D01*
X160940320Y-53368413D01*
X160922567Y-53358653D01*
X160906041Y-53347797D01*
X160895988Y-53339999D01*
X166284341Y-53339999D01*
X166304937Y-53575409D01*
X166366096Y-53803662D01*
X166465965Y-54017829D01*
X166601507Y-54211404D01*
X166768595Y-54378492D01*
X166768598Y-54378494D01*
X166768599Y-54378495D01*
X166962171Y-54514035D01*
X167176337Y-54613903D01*
X167404592Y-54675063D01*
X167581034Y-54690500D01*
X167698960Y-54690500D01*
X167698966Y-54690500D01*
X167875408Y-54675063D01*
X168103663Y-54613903D01*
X168317829Y-54514035D01*
X168511401Y-54378495D01*
X168678495Y-54211401D01*
X168814035Y-54017830D01*
X168913903Y-53803663D01*
X168975063Y-53575408D01*
X168995659Y-53340000D01*
X168975063Y-53104592D01*
X168913903Y-52876337D01*
X168814035Y-52662171D01*
X168678495Y-52468599D01*
X168678494Y-52468598D01*
X168678492Y-52468595D01*
X168511404Y-52301507D01*
X168317829Y-52165965D01*
X168103662Y-52066096D01*
X167875409Y-52004937D01*
X167850202Y-52002731D01*
X167698966Y-51989500D01*
X167581034Y-51989500D01*
X167448702Y-52001077D01*
X167404590Y-52004937D01*
X167176337Y-52066096D01*
X166962170Y-52165965D01*
X166768595Y-52301507D01*
X166601507Y-52468595D01*
X166465965Y-52662169D01*
X166366096Y-52876336D01*
X166304937Y-53104590D01*
X166284341Y-53339999D01*
X160895988Y-53339999D01*
X160890041Y-53335386D01*
X160849466Y-53317828D01*
X160838804Y-53312604D01*
X160800063Y-53291305D01*
X160786313Y-53287775D01*
X160780437Y-53286266D01*
X160761731Y-53279862D01*
X160743145Y-53271819D01*
X160699475Y-53264902D01*
X160687853Y-53262495D01*
X160678050Y-53259978D01*
X160645030Y-53251500D01*
X160645029Y-53251500D01*
X160624776Y-53251500D01*
X160605066Y-53249949D01*
X160585057Y-53246779D01*
X160541039Y-53250941D01*
X160529181Y-53251500D01*
X155655030Y-53251500D01*
X155357152Y-53251500D01*
X155336363Y-53249204D01*
X155265313Y-53251438D01*
X155261354Y-53251500D01*
X149859171Y-53251500D01*
X149805468Y-53239483D01*
X149762010Y-53205723D01*
X149737085Y-53156660D01*
X149735448Y-53101653D01*
X149738000Y-53088413D01*
X149738000Y-52914000D01*
X147572000Y-52914000D01*
X147572000Y-53036593D01*
X147579346Y-53113523D01*
X147566812Y-53181452D01*
X147520347Y-53232565D01*
X147453917Y-53251500D01*
X142109171Y-53251500D01*
X142055468Y-53239483D01*
X142012010Y-53205723D01*
X141987085Y-53156660D01*
X141985448Y-53101653D01*
X141988000Y-53088413D01*
X141988000Y-52914000D01*
X139822000Y-52914000D01*
X139822000Y-53036593D01*
X139829346Y-53113523D01*
X139816812Y-53181452D01*
X139770347Y-53232565D01*
X139703917Y-53251500D01*
X136698849Y-53251500D01*
X136678064Y-53249205D01*
X136607033Y-53251438D01*
X136603075Y-53251500D01*
X136575140Y-53251500D01*
X136571114Y-53252008D01*
X136559302Y-53252937D01*
X136515110Y-53254326D01*
X136495657Y-53259978D01*
X136476303Y-53263986D01*
X136456201Y-53266526D01*
X136415084Y-53282804D01*
X136403859Y-53286647D01*
X136361408Y-53298980D01*
X136343967Y-53309295D01*
X136326219Y-53317989D01*
X136307383Y-53325447D01*
X136271614Y-53351434D01*
X136261697Y-53357948D01*
X136223637Y-53380457D01*
X136209305Y-53394788D01*
X136194277Y-53407622D01*
X136174459Y-53422021D01*
X136113022Y-53445452D01*
X136048146Y-53434741D01*
X135997500Y-53392806D01*
X135974877Y-53331072D01*
X135955063Y-53104592D01*
X135893903Y-52876337D01*
X135794035Y-52662171D01*
X135658495Y-52468599D01*
X135658494Y-52468598D01*
X135658492Y-52468595D01*
X135595897Y-52406000D01*
X139822000Y-52406000D01*
X140651000Y-52406000D01*
X141159000Y-52406000D01*
X141988000Y-52406000D01*
X147572000Y-52406000D01*
X148401000Y-52406000D01*
X148909000Y-52406000D01*
X149738000Y-52406000D01*
X149738000Y-52283407D01*
X149723266Y-52129111D01*
X149664994Y-51930656D01*
X149570223Y-51746825D01*
X149442368Y-51584244D01*
X149286058Y-51448801D01*
X149106941Y-51345388D01*
X148911484Y-51277739D01*
X148909001Y-51277382D01*
X148909000Y-51277384D01*
X148909000Y-52406000D01*
X148401000Y-52406000D01*
X148401000Y-51282208D01*
X148299171Y-51306909D01*
X148111036Y-51392827D01*
X147942560Y-51512799D01*
X147799831Y-51662490D01*
X147688010Y-51836486D01*
X147611143Y-52028492D01*
X147572000Y-52231586D01*
X147572000Y-52406000D01*
X141988000Y-52406000D01*
X141988000Y-52283407D01*
X141973266Y-52129111D01*
X141914994Y-51930656D01*
X141820223Y-51746825D01*
X141692368Y-51584244D01*
X141536058Y-51448801D01*
X141356941Y-51345388D01*
X141161484Y-51277739D01*
X141159001Y-51277382D01*
X141159000Y-51277384D01*
X141159000Y-52406000D01*
X140651000Y-52406000D01*
X140651000Y-51282208D01*
X140549171Y-51306909D01*
X140361036Y-51392827D01*
X140192560Y-51512799D01*
X140049831Y-51662490D01*
X139938010Y-51836486D01*
X139861143Y-52028492D01*
X139822000Y-52231586D01*
X139822000Y-52406000D01*
X135595897Y-52406000D01*
X135491404Y-52301507D01*
X135297829Y-52165965D01*
X135083662Y-52066096D01*
X134855409Y-52004937D01*
X134830202Y-52002731D01*
X134678966Y-51989500D01*
X134561034Y-51989500D01*
X134428702Y-52001077D01*
X134384590Y-52004937D01*
X134156337Y-52066096D01*
X133942170Y-52165965D01*
X133748595Y-52301507D01*
X133581507Y-52468595D01*
X133445965Y-52662169D01*
X133346096Y-52876336D01*
X133284937Y-53104590D01*
X133264341Y-53339999D01*
X132155500Y-53339999D01*
X132155500Y-51001500D01*
X132172381Y-50938500D01*
X132218500Y-50892381D01*
X132281500Y-50875500D01*
X169978500Y-50875500D01*
X170041500Y-50892381D01*
G37*
G04 #@! TD.AperFunction*
M02*
