G04 #@! TF.GenerationSoftware,KiCad,Pcbnew,7.0.1*
G04 #@! TF.CreationDate,2023-03-26T18:23:23+02:00*
G04 #@! TF.ProjectId,stm32{C_G}xxxCx_board,73746d33-327b-4432-9c47-7d7878784378,rev?*
G04 #@! TF.SameCoordinates,Original*
G04 #@! TF.FileFunction,Legend,Bot*
G04 #@! TF.FilePolarity,Positive*
%FSLAX46Y46*%
G04 Gerber Fmt 4.6, Leading zero omitted, Abs format (unit mm)*
G04 Created by KiCad (PCBNEW 7.0.1) date 2023-03-26 18:23:23*
%MOMM*%
%LPD*%
G01*
G04 APERTURE LIST*
%ADD10C,0.150000*%
%ADD11C,0.187500*%
%ADD12C,0.250000*%
%ADD13C,0.120000*%
G04 APERTURE END LIST*
D10*
X157289523Y-107145000D02*
X157146666Y-107192619D01*
X157146666Y-107192619D02*
X156908571Y-107192619D01*
X156908571Y-107192619D02*
X156813333Y-107145000D01*
X156813333Y-107145000D02*
X156765714Y-107097380D01*
X156765714Y-107097380D02*
X156718095Y-107002142D01*
X156718095Y-107002142D02*
X156718095Y-106906904D01*
X156718095Y-106906904D02*
X156765714Y-106811666D01*
X156765714Y-106811666D02*
X156813333Y-106764047D01*
X156813333Y-106764047D02*
X156908571Y-106716428D01*
X156908571Y-106716428D02*
X157099047Y-106668809D01*
X157099047Y-106668809D02*
X157194285Y-106621190D01*
X157194285Y-106621190D02*
X157241904Y-106573571D01*
X157241904Y-106573571D02*
X157289523Y-106478333D01*
X157289523Y-106478333D02*
X157289523Y-106383095D01*
X157289523Y-106383095D02*
X157241904Y-106287857D01*
X157241904Y-106287857D02*
X157194285Y-106240238D01*
X157194285Y-106240238D02*
X157099047Y-106192619D01*
X157099047Y-106192619D02*
X156860952Y-106192619D01*
X156860952Y-106192619D02*
X156718095Y-106240238D01*
X156432380Y-106192619D02*
X155860952Y-106192619D01*
X156146666Y-107192619D02*
X156146666Y-106192619D01*
X155527618Y-107192619D02*
X155527618Y-106192619D01*
X155527618Y-106192619D02*
X155194285Y-106906904D01*
X155194285Y-106906904D02*
X154860952Y-106192619D01*
X154860952Y-106192619D02*
X154860952Y-107192619D01*
X154479999Y-106192619D02*
X153860952Y-106192619D01*
X153860952Y-106192619D02*
X154194285Y-106573571D01*
X154194285Y-106573571D02*
X154051428Y-106573571D01*
X154051428Y-106573571D02*
X153956190Y-106621190D01*
X153956190Y-106621190D02*
X153908571Y-106668809D01*
X153908571Y-106668809D02*
X153860952Y-106764047D01*
X153860952Y-106764047D02*
X153860952Y-107002142D01*
X153860952Y-107002142D02*
X153908571Y-107097380D01*
X153908571Y-107097380D02*
X153956190Y-107145000D01*
X153956190Y-107145000D02*
X154051428Y-107192619D01*
X154051428Y-107192619D02*
X154337142Y-107192619D01*
X154337142Y-107192619D02*
X154432380Y-107145000D01*
X154432380Y-107145000D02*
X154479999Y-107097380D01*
X153479999Y-106287857D02*
X153432380Y-106240238D01*
X153432380Y-106240238D02*
X153337142Y-106192619D01*
X153337142Y-106192619D02*
X153099047Y-106192619D01*
X153099047Y-106192619D02*
X153003809Y-106240238D01*
X153003809Y-106240238D02*
X152956190Y-106287857D01*
X152956190Y-106287857D02*
X152908571Y-106383095D01*
X152908571Y-106383095D02*
X152908571Y-106478333D01*
X152908571Y-106478333D02*
X152956190Y-106621190D01*
X152956190Y-106621190D02*
X153527618Y-107192619D01*
X153527618Y-107192619D02*
X152908571Y-107192619D01*
X151194285Y-106240238D02*
X151289523Y-106192619D01*
X151289523Y-106192619D02*
X151432380Y-106192619D01*
X151432380Y-106192619D02*
X151575237Y-106240238D01*
X151575237Y-106240238D02*
X151670475Y-106335476D01*
X151670475Y-106335476D02*
X151718094Y-106430714D01*
X151718094Y-106430714D02*
X151765713Y-106621190D01*
X151765713Y-106621190D02*
X151765713Y-106764047D01*
X151765713Y-106764047D02*
X151718094Y-106954523D01*
X151718094Y-106954523D02*
X151670475Y-107049761D01*
X151670475Y-107049761D02*
X151575237Y-107145000D01*
X151575237Y-107145000D02*
X151432380Y-107192619D01*
X151432380Y-107192619D02*
X151337142Y-107192619D01*
X151337142Y-107192619D02*
X151194285Y-107145000D01*
X151194285Y-107145000D02*
X151146666Y-107097380D01*
X151146666Y-107097380D02*
X151146666Y-106764047D01*
X151146666Y-106764047D02*
X151337142Y-106764047D01*
X150003809Y-106145000D02*
X150860951Y-107430714D01*
X149099047Y-107097380D02*
X149146666Y-107145000D01*
X149146666Y-107145000D02*
X149289523Y-107192619D01*
X149289523Y-107192619D02*
X149384761Y-107192619D01*
X149384761Y-107192619D02*
X149527618Y-107145000D01*
X149527618Y-107145000D02*
X149622856Y-107049761D01*
X149622856Y-107049761D02*
X149670475Y-106954523D01*
X149670475Y-106954523D02*
X149718094Y-106764047D01*
X149718094Y-106764047D02*
X149718094Y-106621190D01*
X149718094Y-106621190D02*
X149670475Y-106430714D01*
X149670475Y-106430714D02*
X149622856Y-106335476D01*
X149622856Y-106335476D02*
X149527618Y-106240238D01*
X149527618Y-106240238D02*
X149384761Y-106192619D01*
X149384761Y-106192619D02*
X149289523Y-106192619D01*
X149289523Y-106192619D02*
X149146666Y-106240238D01*
X149146666Y-106240238D02*
X149099047Y-106287857D01*
X147718094Y-106192619D02*
X147622856Y-106192619D01*
X147622856Y-106192619D02*
X147527618Y-106240238D01*
X147527618Y-106240238D02*
X147479999Y-106287857D01*
X147479999Y-106287857D02*
X147432380Y-106383095D01*
X147432380Y-106383095D02*
X147384761Y-106573571D01*
X147384761Y-106573571D02*
X147384761Y-106811666D01*
X147384761Y-106811666D02*
X147432380Y-107002142D01*
X147432380Y-107002142D02*
X147479999Y-107097380D01*
X147479999Y-107097380D02*
X147527618Y-107145000D01*
X147527618Y-107145000D02*
X147622856Y-107192619D01*
X147622856Y-107192619D02*
X147718094Y-107192619D01*
X147718094Y-107192619D02*
X147813332Y-107145000D01*
X147813332Y-107145000D02*
X147860951Y-107097380D01*
X147860951Y-107097380D02*
X147908570Y-107002142D01*
X147908570Y-107002142D02*
X147956189Y-106811666D01*
X147956189Y-106811666D02*
X147956189Y-106573571D01*
X147956189Y-106573571D02*
X147908570Y-106383095D01*
X147908570Y-106383095D02*
X147860951Y-106287857D01*
X147860951Y-106287857D02*
X147813332Y-106240238D01*
X147813332Y-106240238D02*
X147718094Y-106192619D01*
X147051427Y-107192619D02*
X146527618Y-106525952D01*
X147051427Y-106525952D02*
X146527618Y-107192619D01*
X146241903Y-107192619D02*
X145718094Y-106525952D01*
X146241903Y-106525952D02*
X145718094Y-107192619D01*
D11*
X159974285Y-73371964D02*
X159974285Y-72621964D01*
X159974285Y-72621964D02*
X159688571Y-72621964D01*
X159688571Y-72621964D02*
X159617142Y-72657678D01*
X159617142Y-72657678D02*
X159581428Y-72693392D01*
X159581428Y-72693392D02*
X159545714Y-72764821D01*
X159545714Y-72764821D02*
X159545714Y-72871964D01*
X159545714Y-72871964D02*
X159581428Y-72943392D01*
X159581428Y-72943392D02*
X159617142Y-72979107D01*
X159617142Y-72979107D02*
X159688571Y-73014821D01*
X159688571Y-73014821D02*
X159974285Y-73014821D01*
X159224285Y-72621964D02*
X159224285Y-73229107D01*
X159224285Y-73229107D02*
X159188571Y-73300535D01*
X159188571Y-73300535D02*
X159152857Y-73336250D01*
X159152857Y-73336250D02*
X159081428Y-73371964D01*
X159081428Y-73371964D02*
X158938571Y-73371964D01*
X158938571Y-73371964D02*
X158867142Y-73336250D01*
X158867142Y-73336250D02*
X158831428Y-73300535D01*
X158831428Y-73300535D02*
X158795714Y-73229107D01*
X158795714Y-73229107D02*
X158795714Y-72621964D01*
X160670714Y-72101964D02*
X160670714Y-71351964D01*
X160670714Y-71351964D02*
X160385000Y-71351964D01*
X160385000Y-71351964D02*
X160313571Y-71387678D01*
X160313571Y-71387678D02*
X160277857Y-71423392D01*
X160277857Y-71423392D02*
X160242143Y-71494821D01*
X160242143Y-71494821D02*
X160242143Y-71601964D01*
X160242143Y-71601964D02*
X160277857Y-71673392D01*
X160277857Y-71673392D02*
X160313571Y-71709107D01*
X160313571Y-71709107D02*
X160385000Y-71744821D01*
X160385000Y-71744821D02*
X160670714Y-71744821D01*
X159492143Y-72030535D02*
X159527857Y-72066250D01*
X159527857Y-72066250D02*
X159635000Y-72101964D01*
X159635000Y-72101964D02*
X159706428Y-72101964D01*
X159706428Y-72101964D02*
X159813571Y-72066250D01*
X159813571Y-72066250D02*
X159885000Y-71994821D01*
X159885000Y-71994821D02*
X159920714Y-71923392D01*
X159920714Y-71923392D02*
X159956428Y-71780535D01*
X159956428Y-71780535D02*
X159956428Y-71673392D01*
X159956428Y-71673392D02*
X159920714Y-71530535D01*
X159920714Y-71530535D02*
X159885000Y-71459107D01*
X159885000Y-71459107D02*
X159813571Y-71387678D01*
X159813571Y-71387678D02*
X159706428Y-71351964D01*
X159706428Y-71351964D02*
X159635000Y-71351964D01*
X159635000Y-71351964D02*
X159527857Y-71387678D01*
X159527857Y-71387678D02*
X159492143Y-71423392D01*
X158777857Y-72101964D02*
X159206428Y-72101964D01*
X158992143Y-72101964D02*
X158992143Y-71351964D01*
X158992143Y-71351964D02*
X159063571Y-71459107D01*
X159063571Y-71459107D02*
X159135000Y-71530535D01*
X159135000Y-71530535D02*
X159206428Y-71566250D01*
X158527857Y-71351964D02*
X158063571Y-71351964D01*
X158063571Y-71351964D02*
X158313571Y-71637678D01*
X158313571Y-71637678D02*
X158206428Y-71637678D01*
X158206428Y-71637678D02*
X158135000Y-71673392D01*
X158135000Y-71673392D02*
X158099285Y-71709107D01*
X158099285Y-71709107D02*
X158063571Y-71780535D01*
X158063571Y-71780535D02*
X158063571Y-71959107D01*
X158063571Y-71959107D02*
X158099285Y-72030535D01*
X158099285Y-72030535D02*
X158135000Y-72066250D01*
X158135000Y-72066250D02*
X158206428Y-72101964D01*
X158206428Y-72101964D02*
X158420714Y-72101964D01*
X158420714Y-72101964D02*
X158492142Y-72066250D01*
X158492142Y-72066250D02*
X158527857Y-72030535D01*
X143464107Y-93426428D02*
X143499821Y-93533571D01*
X143499821Y-93533571D02*
X143535535Y-93569285D01*
X143535535Y-93569285D02*
X143606964Y-93604999D01*
X143606964Y-93604999D02*
X143714107Y-93604999D01*
X143714107Y-93604999D02*
X143785535Y-93569285D01*
X143785535Y-93569285D02*
X143821250Y-93533571D01*
X143821250Y-93533571D02*
X143856964Y-93462142D01*
X143856964Y-93462142D02*
X143856964Y-93176428D01*
X143856964Y-93176428D02*
X143106964Y-93176428D01*
X143106964Y-93176428D02*
X143106964Y-93426428D01*
X143106964Y-93426428D02*
X143142678Y-93497857D01*
X143142678Y-93497857D02*
X143178392Y-93533571D01*
X143178392Y-93533571D02*
X143249821Y-93569285D01*
X143249821Y-93569285D02*
X143321250Y-93569285D01*
X143321250Y-93569285D02*
X143392678Y-93533571D01*
X143392678Y-93533571D02*
X143428392Y-93497857D01*
X143428392Y-93497857D02*
X143464107Y-93426428D01*
X143464107Y-93426428D02*
X143464107Y-93176428D01*
X143642678Y-93890714D02*
X143642678Y-94247857D01*
X143856964Y-93819285D02*
X143106964Y-94069285D01*
X143106964Y-94069285D02*
X143856964Y-94319285D01*
X143106964Y-94462142D02*
X143106964Y-94890714D01*
X143856964Y-94676428D02*
X143106964Y-94676428D01*
X142586964Y-93551428D02*
X142229821Y-93301428D01*
X142586964Y-93122857D02*
X141836964Y-93122857D01*
X141836964Y-93122857D02*
X141836964Y-93408571D01*
X141836964Y-93408571D02*
X141872678Y-93480000D01*
X141872678Y-93480000D02*
X141908392Y-93515714D01*
X141908392Y-93515714D02*
X141979821Y-93551428D01*
X141979821Y-93551428D02*
X142086964Y-93551428D01*
X142086964Y-93551428D02*
X142158392Y-93515714D01*
X142158392Y-93515714D02*
X142194107Y-93480000D01*
X142194107Y-93480000D02*
X142229821Y-93408571D01*
X142229821Y-93408571D02*
X142229821Y-93122857D01*
X141836964Y-93765714D02*
X141836964Y-94194286D01*
X142586964Y-93980000D02*
X141836964Y-93980000D01*
X142515535Y-94872857D02*
X142551250Y-94837143D01*
X142551250Y-94837143D02*
X142586964Y-94730000D01*
X142586964Y-94730000D02*
X142586964Y-94658572D01*
X142586964Y-94658572D02*
X142551250Y-94551429D01*
X142551250Y-94551429D02*
X142479821Y-94480000D01*
X142479821Y-94480000D02*
X142408392Y-94444286D01*
X142408392Y-94444286D02*
X142265535Y-94408572D01*
X142265535Y-94408572D02*
X142158392Y-94408572D01*
X142158392Y-94408572D02*
X142015535Y-94444286D01*
X142015535Y-94444286D02*
X141944107Y-94480000D01*
X141944107Y-94480000D02*
X141872678Y-94551429D01*
X141872678Y-94551429D02*
X141836964Y-94658572D01*
X141836964Y-94658572D02*
X141836964Y-94730000D01*
X141836964Y-94730000D02*
X141872678Y-94837143D01*
X141872678Y-94837143D02*
X141908392Y-94872857D01*
D12*
X154386619Y-76716048D02*
X153386619Y-76716048D01*
X153386619Y-76716048D02*
X153386619Y-76954143D01*
X153386619Y-76954143D02*
X153434238Y-77097000D01*
X153434238Y-77097000D02*
X153529476Y-77192238D01*
X153529476Y-77192238D02*
X153624714Y-77239857D01*
X153624714Y-77239857D02*
X153815190Y-77287476D01*
X153815190Y-77287476D02*
X153958047Y-77287476D01*
X153958047Y-77287476D02*
X154148523Y-77239857D01*
X154148523Y-77239857D02*
X154243761Y-77192238D01*
X154243761Y-77192238D02*
X154339000Y-77097000D01*
X154339000Y-77097000D02*
X154386619Y-76954143D01*
X154386619Y-76954143D02*
X154386619Y-76716048D01*
X154005666Y-77716048D02*
X154005666Y-78477953D01*
X154386619Y-78097000D02*
X153624714Y-78097000D01*
D11*
X160384999Y-73891964D02*
X160134999Y-74641964D01*
X160134999Y-74641964D02*
X159884999Y-73891964D01*
X159634999Y-74641964D02*
X159634999Y-73891964D01*
X159634999Y-73891964D02*
X159456428Y-73891964D01*
X159456428Y-73891964D02*
X159349285Y-73927678D01*
X159349285Y-73927678D02*
X159277856Y-73999107D01*
X159277856Y-73999107D02*
X159242142Y-74070535D01*
X159242142Y-74070535D02*
X159206428Y-74213392D01*
X159206428Y-74213392D02*
X159206428Y-74320535D01*
X159206428Y-74320535D02*
X159242142Y-74463392D01*
X159242142Y-74463392D02*
X159277856Y-74534821D01*
X159277856Y-74534821D02*
X159349285Y-74606250D01*
X159349285Y-74606250D02*
X159456428Y-74641964D01*
X159456428Y-74641964D02*
X159634999Y-74641964D01*
X158884999Y-74641964D02*
X158884999Y-73891964D01*
X158884999Y-73891964D02*
X158706428Y-73891964D01*
X158706428Y-73891964D02*
X158599285Y-73927678D01*
X158599285Y-73927678D02*
X158527856Y-73999107D01*
X158527856Y-73999107D02*
X158492142Y-74070535D01*
X158492142Y-74070535D02*
X158456428Y-74213392D01*
X158456428Y-74213392D02*
X158456428Y-74320535D01*
X158456428Y-74320535D02*
X158492142Y-74463392D01*
X158492142Y-74463392D02*
X158527856Y-74534821D01*
X158527856Y-74534821D02*
X158599285Y-74606250D01*
X158599285Y-74606250D02*
X158706428Y-74641964D01*
X158706428Y-74641964D02*
X158884999Y-74641964D01*
D12*
X151338619Y-76716048D02*
X150338619Y-76716048D01*
X150338619Y-76716048D02*
X150338619Y-76954143D01*
X150338619Y-76954143D02*
X150386238Y-77097000D01*
X150386238Y-77097000D02*
X150481476Y-77192238D01*
X150481476Y-77192238D02*
X150576714Y-77239857D01*
X150576714Y-77239857D02*
X150767190Y-77287476D01*
X150767190Y-77287476D02*
X150910047Y-77287476D01*
X150910047Y-77287476D02*
X151100523Y-77239857D01*
X151100523Y-77239857D02*
X151195761Y-77192238D01*
X151195761Y-77192238D02*
X151291000Y-77097000D01*
X151291000Y-77097000D02*
X151338619Y-76954143D01*
X151338619Y-76954143D02*
X151338619Y-76716048D01*
X150957666Y-77716048D02*
X150957666Y-78477953D01*
D11*
X140566964Y-92980000D02*
X141316964Y-93230000D01*
X141316964Y-93230000D02*
X140566964Y-93480000D01*
X141316964Y-93730000D02*
X140566964Y-93730000D01*
X140566964Y-93730000D02*
X140566964Y-93908571D01*
X140566964Y-93908571D02*
X140602678Y-94015714D01*
X140602678Y-94015714D02*
X140674107Y-94087143D01*
X140674107Y-94087143D02*
X140745535Y-94122857D01*
X140745535Y-94122857D02*
X140888392Y-94158571D01*
X140888392Y-94158571D02*
X140995535Y-94158571D01*
X140995535Y-94158571D02*
X141138392Y-94122857D01*
X141138392Y-94122857D02*
X141209821Y-94087143D01*
X141209821Y-94087143D02*
X141281250Y-94015714D01*
X141281250Y-94015714D02*
X141316964Y-93908571D01*
X141316964Y-93908571D02*
X141316964Y-93730000D01*
X141316964Y-94480000D02*
X140566964Y-94480000D01*
X140566964Y-94480000D02*
X140566964Y-94658571D01*
X140566964Y-94658571D02*
X140602678Y-94765714D01*
X140602678Y-94765714D02*
X140674107Y-94837143D01*
X140674107Y-94837143D02*
X140745535Y-94872857D01*
X140745535Y-94872857D02*
X140888392Y-94908571D01*
X140888392Y-94908571D02*
X140995535Y-94908571D01*
X140995535Y-94908571D02*
X141138392Y-94872857D01*
X141138392Y-94872857D02*
X141209821Y-94837143D01*
X141209821Y-94837143D02*
X141281250Y-94765714D01*
X141281250Y-94765714D02*
X141316964Y-94658571D01*
X141316964Y-94658571D02*
X141316964Y-94480000D01*
D10*
X153132619Y-71175666D02*
X153846904Y-71175666D01*
X153846904Y-71175666D02*
X153989761Y-71128047D01*
X153989761Y-71128047D02*
X154085000Y-71032809D01*
X154085000Y-71032809D02*
X154132619Y-70889952D01*
X154132619Y-70889952D02*
X154132619Y-70794714D01*
X154132619Y-71651857D02*
X153132619Y-71651857D01*
X153132619Y-71651857D02*
X153132619Y-72032809D01*
X153132619Y-72032809D02*
X153180238Y-72128047D01*
X153180238Y-72128047D02*
X153227857Y-72175666D01*
X153227857Y-72175666D02*
X153323095Y-72223285D01*
X153323095Y-72223285D02*
X153465952Y-72223285D01*
X153465952Y-72223285D02*
X153561190Y-72175666D01*
X153561190Y-72175666D02*
X153608809Y-72128047D01*
X153608809Y-72128047D02*
X153656428Y-72032809D01*
X153656428Y-72032809D02*
X153656428Y-71651857D01*
X153132619Y-72556619D02*
X153132619Y-73175666D01*
X153132619Y-73175666D02*
X153513571Y-72842333D01*
X153513571Y-72842333D02*
X153513571Y-72985190D01*
X153513571Y-72985190D02*
X153561190Y-73080428D01*
X153561190Y-73080428D02*
X153608809Y-73128047D01*
X153608809Y-73128047D02*
X153704047Y-73175666D01*
X153704047Y-73175666D02*
X153942142Y-73175666D01*
X153942142Y-73175666D02*
X154037380Y-73128047D01*
X154037380Y-73128047D02*
X154085000Y-73080428D01*
X154085000Y-73080428D02*
X154132619Y-72985190D01*
X154132619Y-72985190D02*
X154132619Y-72699476D01*
X154132619Y-72699476D02*
X154085000Y-72604238D01*
X154085000Y-72604238D02*
X154037380Y-72556619D01*
X150338619Y-71175666D02*
X151052904Y-71175666D01*
X151052904Y-71175666D02*
X151195761Y-71128047D01*
X151195761Y-71128047D02*
X151291000Y-71032809D01*
X151291000Y-71032809D02*
X151338619Y-70889952D01*
X151338619Y-70889952D02*
X151338619Y-70794714D01*
X151338619Y-71651857D02*
X150338619Y-71651857D01*
X150338619Y-71651857D02*
X150338619Y-72032809D01*
X150338619Y-72032809D02*
X150386238Y-72128047D01*
X150386238Y-72128047D02*
X150433857Y-72175666D01*
X150433857Y-72175666D02*
X150529095Y-72223285D01*
X150529095Y-72223285D02*
X150671952Y-72223285D01*
X150671952Y-72223285D02*
X150767190Y-72175666D01*
X150767190Y-72175666D02*
X150814809Y-72128047D01*
X150814809Y-72128047D02*
X150862428Y-72032809D01*
X150862428Y-72032809D02*
X150862428Y-71651857D01*
X150433857Y-72604238D02*
X150386238Y-72651857D01*
X150386238Y-72651857D02*
X150338619Y-72747095D01*
X150338619Y-72747095D02*
X150338619Y-72985190D01*
X150338619Y-72985190D02*
X150386238Y-73080428D01*
X150386238Y-73080428D02*
X150433857Y-73128047D01*
X150433857Y-73128047D02*
X150529095Y-73175666D01*
X150529095Y-73175666D02*
X150624333Y-73175666D01*
X150624333Y-73175666D02*
X150767190Y-73128047D01*
X150767190Y-73128047D02*
X151338619Y-72556619D01*
X151338619Y-72556619D02*
X151338619Y-73175666D01*
X143930666Y-86314619D02*
X144263999Y-85838428D01*
X144502094Y-86314619D02*
X144502094Y-85314619D01*
X144502094Y-85314619D02*
X144121142Y-85314619D01*
X144121142Y-85314619D02*
X144025904Y-85362238D01*
X144025904Y-85362238D02*
X143978285Y-85409857D01*
X143978285Y-85409857D02*
X143930666Y-85505095D01*
X143930666Y-85505095D02*
X143930666Y-85647952D01*
X143930666Y-85647952D02*
X143978285Y-85743190D01*
X143978285Y-85743190D02*
X144025904Y-85790809D01*
X144025904Y-85790809D02*
X144121142Y-85838428D01*
X144121142Y-85838428D02*
X144502094Y-85838428D01*
X142978285Y-86314619D02*
X143549713Y-86314619D01*
X143263999Y-86314619D02*
X143263999Y-85314619D01*
X143263999Y-85314619D02*
X143359237Y-85457476D01*
X143359237Y-85457476D02*
X143454475Y-85552714D01*
X143454475Y-85552714D02*
X143549713Y-85600333D01*
X145962666Y-92442380D02*
X146010285Y-92490000D01*
X146010285Y-92490000D02*
X146153142Y-92537619D01*
X146153142Y-92537619D02*
X146248380Y-92537619D01*
X146248380Y-92537619D02*
X146391237Y-92490000D01*
X146391237Y-92490000D02*
X146486475Y-92394761D01*
X146486475Y-92394761D02*
X146534094Y-92299523D01*
X146534094Y-92299523D02*
X146581713Y-92109047D01*
X146581713Y-92109047D02*
X146581713Y-91966190D01*
X146581713Y-91966190D02*
X146534094Y-91775714D01*
X146534094Y-91775714D02*
X146486475Y-91680476D01*
X146486475Y-91680476D02*
X146391237Y-91585238D01*
X146391237Y-91585238D02*
X146248380Y-91537619D01*
X146248380Y-91537619D02*
X146153142Y-91537619D01*
X146153142Y-91537619D02*
X146010285Y-91585238D01*
X146010285Y-91585238D02*
X145962666Y-91632857D01*
X145010285Y-92537619D02*
X145581713Y-92537619D01*
X145295999Y-92537619D02*
X145295999Y-91537619D01*
X145295999Y-91537619D02*
X145391237Y-91680476D01*
X145391237Y-91680476D02*
X145486475Y-91775714D01*
X145486475Y-91775714D02*
X145581713Y-91823333D01*
X145930857Y-90537380D02*
X145978476Y-90585000D01*
X145978476Y-90585000D02*
X146121333Y-90632619D01*
X146121333Y-90632619D02*
X146216571Y-90632619D01*
X146216571Y-90632619D02*
X146359428Y-90585000D01*
X146359428Y-90585000D02*
X146454666Y-90489761D01*
X146454666Y-90489761D02*
X146502285Y-90394523D01*
X146502285Y-90394523D02*
X146549904Y-90204047D01*
X146549904Y-90204047D02*
X146549904Y-90061190D01*
X146549904Y-90061190D02*
X146502285Y-89870714D01*
X146502285Y-89870714D02*
X146454666Y-89775476D01*
X146454666Y-89775476D02*
X146359428Y-89680238D01*
X146359428Y-89680238D02*
X146216571Y-89632619D01*
X146216571Y-89632619D02*
X146121333Y-89632619D01*
X146121333Y-89632619D02*
X145978476Y-89680238D01*
X145978476Y-89680238D02*
X145930857Y-89727857D01*
X144978476Y-90632619D02*
X145549904Y-90632619D01*
X145264190Y-90632619D02*
X145264190Y-89632619D01*
X145264190Y-89632619D02*
X145359428Y-89775476D01*
X145359428Y-89775476D02*
X145454666Y-89870714D01*
X145454666Y-89870714D02*
X145549904Y-89918333D01*
X144359428Y-89632619D02*
X144264190Y-89632619D01*
X144264190Y-89632619D02*
X144168952Y-89680238D01*
X144168952Y-89680238D02*
X144121333Y-89727857D01*
X144121333Y-89727857D02*
X144073714Y-89823095D01*
X144073714Y-89823095D02*
X144026095Y-90013571D01*
X144026095Y-90013571D02*
X144026095Y-90251666D01*
X144026095Y-90251666D02*
X144073714Y-90442142D01*
X144073714Y-90442142D02*
X144121333Y-90537380D01*
X144121333Y-90537380D02*
X144168952Y-90585000D01*
X144168952Y-90585000D02*
X144264190Y-90632619D01*
X144264190Y-90632619D02*
X144359428Y-90632619D01*
X144359428Y-90632619D02*
X144454666Y-90585000D01*
X144454666Y-90585000D02*
X144502285Y-90537380D01*
X144502285Y-90537380D02*
X144549904Y-90442142D01*
X144549904Y-90442142D02*
X144597523Y-90251666D01*
X144597523Y-90251666D02*
X144597523Y-90013571D01*
X144597523Y-90013571D02*
X144549904Y-89823095D01*
X144549904Y-89823095D02*
X144502285Y-89727857D01*
X144502285Y-89727857D02*
X144454666Y-89680238D01*
X144454666Y-89680238D02*
X144359428Y-89632619D01*
X148995594Y-96727619D02*
X148995594Y-95727619D01*
X148995594Y-95727619D02*
X148757499Y-95727619D01*
X148757499Y-95727619D02*
X148614642Y-95775238D01*
X148614642Y-95775238D02*
X148519404Y-95870476D01*
X148519404Y-95870476D02*
X148471785Y-95965714D01*
X148471785Y-95965714D02*
X148424166Y-96156190D01*
X148424166Y-96156190D02*
X148424166Y-96299047D01*
X148424166Y-96299047D02*
X148471785Y-96489523D01*
X148471785Y-96489523D02*
X148519404Y-96584761D01*
X148519404Y-96584761D02*
X148614642Y-96680000D01*
X148614642Y-96680000D02*
X148757499Y-96727619D01*
X148757499Y-96727619D02*
X148995594Y-96727619D01*
X148090832Y-95727619D02*
X147471785Y-95727619D01*
X147471785Y-95727619D02*
X147805118Y-96108571D01*
X147805118Y-96108571D02*
X147662261Y-96108571D01*
X147662261Y-96108571D02*
X147567023Y-96156190D01*
X147567023Y-96156190D02*
X147519404Y-96203809D01*
X147519404Y-96203809D02*
X147471785Y-96299047D01*
X147471785Y-96299047D02*
X147471785Y-96537142D01*
X147471785Y-96537142D02*
X147519404Y-96632380D01*
X147519404Y-96632380D02*
X147567023Y-96680000D01*
X147567023Y-96680000D02*
X147662261Y-96727619D01*
X147662261Y-96727619D02*
X147947975Y-96727619D01*
X147947975Y-96727619D02*
X148043213Y-96680000D01*
X148043213Y-96680000D02*
X148090832Y-96632380D01*
D13*
X154224000Y-73545000D02*
X153624000Y-73545000D01*
X152924000Y-74245000D02*
X152924000Y-75645000D01*
X154924000Y-75645000D02*
X154924000Y-74245000D01*
X153624000Y-76345000D02*
X154224000Y-76345000D01*
X154924000Y-74245000D02*
G75*
G03*
X154224000Y-73545000I-699999J1D01*
G01*
X153624000Y-73545000D02*
G75*
G03*
X152924000Y-74245000I-1J-699999D01*
G01*
X154224000Y-76345000D02*
G75*
G03*
X154924000Y-75645000I0J700000D01*
G01*
X152924000Y-75645000D02*
G75*
G03*
X153624000Y-76345000I700000J0D01*
G01*
X151176000Y-73545000D02*
X150576000Y-73545000D01*
X149876000Y-74245000D02*
X149876000Y-75645000D01*
X151876000Y-75645000D02*
X151876000Y-74245000D01*
X150576000Y-76345000D02*
X151176000Y-76345000D01*
X151876000Y-74245000D02*
G75*
G03*
X151176000Y-73545000I-699999J1D01*
G01*
X150576000Y-73545000D02*
G75*
G03*
X149876000Y-74245000I-1J-699999D01*
G01*
X151176000Y-76345000D02*
G75*
G03*
X151876000Y-75645000I0J700000D01*
G01*
X149876000Y-75645000D02*
G75*
G03*
X150576000Y-76345000I700000J0D01*
G01*
X146045422Y-85142000D02*
X146562578Y-85142000D01*
X146045422Y-86562000D02*
X146562578Y-86562000D01*
X148546078Y-92785000D02*
X148028922Y-92785000D01*
X148546078Y-91365000D02*
X148028922Y-91365000D01*
X148546078Y-90880000D02*
X148028922Y-90880000D01*
X148546078Y-89460000D02*
X148028922Y-89460000D01*
X146572500Y-93655000D02*
X149257500Y-93655000D01*
X146572500Y-95575000D02*
X146572500Y-93655000D01*
X149257500Y-95575000D02*
X146572500Y-95575000D01*
M02*
