M48
; DRILL file {KiCad 7.0.1} date zo 26 mrt 2023 18:23:25 CEST
; FORMAT={-:-/ absolute / inch / decimal}
; #@! TF.CreationDate,2023-03-26T18:23:25+02:00
; #@! TF.GenerationSoftware,Kicad,Pcbnew,7.0.1
; #@! TF.FileFunction,Plated,1,2,PTH
FMAT,2
INCH
; #@! TA.AperFunction,Plated,PTH,ViaDrill
T1C0.0118
; #@! TA.AperFunction,Plated,PTH,ComponentDrill
T2C0.0217
; #@! TA.AperFunction,Plated,PTH,ComponentDrill
T3C0.0256
; #@! TA.AperFunction,Plated,PTH,ComponentDrill
T4C0.0335
; #@! TA.AperFunction,Plated,PTH,ComponentDrill
T5C0.0394
%
G90
G05
T1
X5.225Y-2.025
X5.225Y-4.275
X5.625Y-2.9
X5.675Y-2.3
X5.675Y-3.325
X5.7Y-2.6
X5.7Y-2.725
X5.75Y-2.3
X5.9274Y-3.1
X5.9311Y-3.0687
X5.95Y-3.65
X5.975Y-2.475
X5.975Y-3.45
X6.05Y-3.45
X6.1Y-3.425
X6.25Y-2.475
X6.2907Y-2.7319
X6.675Y-2.025
X6.675Y-4.275
T3
X6.05Y-2.35
X6.05Y-2.4
X6.1Y-2.35
X6.1Y-2.4
X6.15Y-2.35
X6.15Y-2.4
X6.2Y-2.35
X6.2Y-2.4
X6.25Y-2.35
X6.25Y-2.4
T5
X5.4Y-2.2
X5.4Y-2.3
X5.4Y-2.4
X5.4Y-2.5
X5.4Y-2.6
X5.4Y-2.7
X5.4Y-2.8
X5.4Y-2.9
X5.4Y-3.0
X5.4Y-3.1
X5.4Y-3.2
X5.4Y-3.3
X5.4Y-3.4
X5.4Y-3.5
X5.4Y-3.6
X5.4Y-3.7
X5.4Y-3.8
X5.4Y-3.9
X5.4Y-4.0
X5.4Y-4.1
X5.5Y-2.4
X5.5Y-2.5
X6.0Y-2.2
X6.1Y-2.2
X6.2Y-2.2
X6.3Y-2.2
X6.4Y-2.2
X6.4Y-2.4
X6.4Y-2.5
X6.5Y-2.2
X6.5Y-2.3
X6.5Y-2.4
X6.5Y-2.5
X6.5Y-2.6
X6.5Y-2.7
X6.5Y-2.8
X6.5Y-2.9
X6.5Y-3.0
X6.5Y-3.1
X6.5Y-3.2
X6.5Y-3.3
X6.5Y-3.4
X6.5Y-3.5
X6.5Y-3.6
X6.5Y-3.7
X6.5Y-3.8
X6.5Y-3.9
X6.5Y-4.0
X6.5Y-4.1
T2
G00X5.5474Y-2.086
M15
G01X5.5474Y-2.0604
M16
G05
G00X5.8526Y-2.086
M15
G01X5.8526Y-2.0604
M16
G05
T4
G00X5.5533Y-2.2337
M15
G01X5.5533Y-2.212
M16
G05
G00X5.8467Y-2.2337
M15
G01X5.8467Y-2.212
M16
G05
T0
M30
