G04 #@! TF.GenerationSoftware,KiCad,Pcbnew,7.0.1*
G04 #@! TF.CreationDate,2023-03-26T18:23:23+02:00*
G04 #@! TF.ProjectId,stm32{C_G}xxxCx_board,73746d33-327b-4432-9c47-7d7878784378,rev?*
G04 #@! TF.SameCoordinates,Original*
G04 #@! TF.FileFunction,Soldermask,Bot*
G04 #@! TF.FilePolarity,Negative*
%FSLAX46Y46*%
G04 Gerber Fmt 4.6, Leading zero omitted, Abs format (unit mm)*
G04 Created by KiCad (PCBNEW 7.0.1) date 2023-03-26 18:23:23*
%MOMM*%
%LPD*%
G01*
G04 APERTURE LIST*
G04 Aperture macros list*
%AMRoundRect*
0 Rectangle with rounded corners*
0 $1 Rounding radius*
0 $2 $3 $4 $5 $6 $7 $8 $9 X,Y pos of 4 corners*
0 Add a 4 corners polygon primitive as box body*
4,1,4,$2,$3,$4,$5,$6,$7,$8,$9,$2,$3,0*
0 Add four circle primitives for the rounded corners*
1,1,$1+$1,$2,$3*
1,1,$1+$1,$4,$5*
1,1,$1+$1,$6,$7*
1,1,$1+$1,$8,$9*
0 Add four rect primitives between the rounded corners*
20,1,$1+$1,$2,$3,$4,$5,0*
20,1,$1+$1,$4,$5,$6,$7,0*
20,1,$1+$1,$6,$7,$8,$9,0*
20,1,$1+$1,$8,$9,$2,$3,0*%
%AMFreePoly0*
4,1,43,0.536062,0.786062,0.551000,0.750000,0.551000,0.351000,0.900000,0.351000,0.936062,0.336062,0.951000,0.300000,0.951000,-0.300000,0.936062,-0.336062,0.900000,-0.351000,0.551000,-0.351000,0.551000,-0.750000,0.536062,-0.786062,0.500000,-0.801000,0.000000,-0.801000,-0.012285,-0.795911,-0.071157,-0.795911,-0.085525,-0.793845,-0.222076,-0.753750,-0.235281,-0.747720,-0.355003,-0.670779,
-0.365973,-0.661273,-0.459170,-0.553718,-0.467018,-0.541506,-0.526137,-0.412052,-0.530227,-0.398124,-0.550481,-0.257258,-0.551000,-0.250000,-0.551000,0.250000,-0.550481,0.257258,-0.530227,0.398124,-0.526137,0.412052,-0.467018,0.541506,-0.459170,0.553718,-0.365973,0.661273,-0.355003,0.670779,-0.235281,0.747720,-0.222076,0.753750,-0.085525,0.793845,-0.071157,0.795911,-0.012285,0.795911,
0.000000,0.801000,0.500000,0.801000,0.536062,0.786062,0.536062,0.786062,$1*%
%AMFreePoly1*
4,1,35,0.012285,0.795911,0.071157,0.795911,0.085525,0.793845,0.222076,0.753750,0.235281,0.747720,0.355003,0.670779,0.365973,0.661273,0.459170,0.553718,0.467018,0.541506,0.526137,0.412052,0.530227,0.398124,0.550481,0.257258,0.551000,0.250000,0.551000,-0.250000,0.550481,-0.257258,0.530227,-0.398124,0.526137,-0.412052,0.467018,-0.541506,0.459170,-0.553718,0.365973,-0.661273,
0.355003,-0.670779,0.235281,-0.747720,0.222076,-0.753750,0.085525,-0.793845,0.071157,-0.795911,0.012285,-0.795911,0.000000,-0.801000,-0.500000,-0.801000,-0.536062,-0.786062,-0.551000,-0.750000,-0.551000,0.750000,-0.536062,0.786062,-0.500000,0.801000,0.000000,0.801000,0.012285,0.795911,0.012285,0.795911,$1*%
G04 Aperture macros list end*
%ADD10RoundRect,0.051000X-0.850000X-0.850000X0.850000X-0.850000X0.850000X0.850000X-0.850000X0.850000X0*%
%ADD11O,1.802000X1.802000*%
%ADD12RoundRect,0.051000X-0.850000X0.850000X-0.850000X-0.850000X0.850000X-0.850000X0.850000X0.850000X0*%
%ADD13RoundRect,0.051000X0.500000X-0.500000X0.500000X0.500000X-0.500000X0.500000X-0.500000X-0.500000X0*%
%ADD14O,1.102000X1.102000*%
%ADD15C,2.302000*%
%ADD16O,0.902000X0.902000*%
%ADD17O,1.252000X1.902000*%
%ADD18O,1.552000X2.102000*%
%ADD19FreePoly0,270.000000*%
%ADD20FreePoly1,270.000000*%
%ADD21RoundRect,0.294750X-0.243750X-0.456250X0.243750X-0.456250X0.243750X0.456250X-0.243750X0.456250X0*%
%ADD22RoundRect,0.294750X0.243750X0.456250X-0.243750X0.456250X-0.243750X-0.456250X0.243750X-0.456250X0*%
G04 APERTURE END LIST*
D10*
X137160000Y-55880000D03*
D11*
X137160000Y-58420000D03*
X137160000Y-60960000D03*
X137160000Y-63500000D03*
X137160000Y-66040000D03*
X137160000Y-68580000D03*
X137160000Y-71120000D03*
X137160000Y-73660000D03*
X137160000Y-76200000D03*
X137160000Y-78740000D03*
X137160000Y-81280000D03*
X137160000Y-83820000D03*
X137160000Y-86360000D03*
X137160000Y-88900000D03*
X137160000Y-91440000D03*
X137160000Y-93980000D03*
X137160000Y-96520000D03*
X137160000Y-99060000D03*
X137160000Y-101600000D03*
X137160000Y-104140000D03*
D10*
X165100000Y-55880000D03*
D11*
X165100000Y-58420000D03*
X165100000Y-60960000D03*
X165100000Y-63500000D03*
X165100000Y-66040000D03*
X165100000Y-68580000D03*
X165100000Y-71120000D03*
X165100000Y-73660000D03*
X165100000Y-76200000D03*
X165100000Y-78740000D03*
X165100000Y-81280000D03*
X165100000Y-83820000D03*
X165100000Y-86360000D03*
X165100000Y-88900000D03*
X165100000Y-91440000D03*
X165100000Y-93980000D03*
X165100000Y-96520000D03*
X165100000Y-99060000D03*
X165100000Y-101600000D03*
X165100000Y-104140000D03*
D12*
X162560000Y-55880000D03*
D11*
X160020000Y-55880000D03*
X157480000Y-55880000D03*
X154940000Y-55880000D03*
X152400000Y-55880000D03*
D10*
X162560000Y-60960000D03*
D11*
X162560000Y-63500000D03*
D10*
X139700000Y-60960000D03*
D11*
X139700000Y-63500000D03*
D13*
X153670000Y-60960000D03*
D14*
X153670000Y-59690000D03*
X154940000Y-60960000D03*
X154940000Y-59690000D03*
X156210000Y-60960000D03*
X156210000Y-59690000D03*
X157480000Y-60960000D03*
X157480000Y-59690000D03*
X158750000Y-60960000D03*
X158750000Y-59690000D03*
D15*
X134620000Y-106680000D03*
X167640000Y-53340000D03*
X134620000Y-53340000D03*
X167640000Y-106680000D03*
D16*
X147280000Y-55410000D03*
X142280000Y-55410000D03*
D17*
X148655000Y-52660000D03*
D18*
X148505000Y-56460000D03*
X141055000Y-56460000D03*
D17*
X140905000Y-52660000D03*
D19*
X153924000Y-74295000D03*
D20*
X153924000Y-75595000D03*
D19*
X150876000Y-74295000D03*
D20*
X150876000Y-75595000D03*
D21*
X145366500Y-85852000D03*
X147241500Y-85852000D03*
D22*
X149225000Y-92075000D03*
X147350000Y-92075000D03*
X149225000Y-90170000D03*
X147350000Y-90170000D03*
D21*
X147320000Y-94615000D03*
X149195000Y-94615000D03*
G36*
X154688678Y-74841838D02*
G01*
X154689355Y-74843473D01*
X154688470Y-74845005D01*
X154637213Y-74879256D01*
X154637213Y-75010744D01*
X154688471Y-75044994D01*
X154689356Y-75046526D01*
X154688679Y-75048161D01*
X154686970Y-75048619D01*
X154673801Y-75046000D01*
X154275000Y-75046000D01*
X154273586Y-75045414D01*
X154273000Y-75044000D01*
X154273000Y-74846000D01*
X154273586Y-74844586D01*
X154275000Y-74844000D01*
X154673801Y-74844000D01*
X154686969Y-74841380D01*
X154688678Y-74841838D01*
G37*
G36*
X153174199Y-74844000D02*
G01*
X153573000Y-74844000D01*
X153574414Y-74844586D01*
X153575000Y-74846000D01*
X153575000Y-75044000D01*
X153574414Y-75045414D01*
X153573000Y-75046000D01*
X153174199Y-75046000D01*
X153161026Y-75048619D01*
X153159317Y-75048161D01*
X153158640Y-75046526D01*
X153159525Y-75044994D01*
X153210786Y-75010743D01*
X153210786Y-74879257D01*
X153159527Y-74845005D01*
X153158642Y-74843473D01*
X153159319Y-74841838D01*
X153161028Y-74841380D01*
X153174199Y-74844000D01*
G37*
G36*
X151640678Y-74841838D02*
G01*
X151641355Y-74843473D01*
X151640470Y-74845005D01*
X151589213Y-74879256D01*
X151589213Y-75010744D01*
X151640471Y-75044994D01*
X151641356Y-75046526D01*
X151640679Y-75048161D01*
X151638970Y-75048619D01*
X151625801Y-75046000D01*
X151227000Y-75046000D01*
X151225586Y-75045414D01*
X151225000Y-75044000D01*
X151225000Y-74846000D01*
X151225586Y-74844586D01*
X151227000Y-74844000D01*
X151625801Y-74844000D01*
X151638969Y-74841380D01*
X151640678Y-74841838D01*
G37*
G36*
X150126199Y-74844000D02*
G01*
X150525000Y-74844000D01*
X150526414Y-74844586D01*
X150527000Y-74846000D01*
X150527000Y-75044000D01*
X150526414Y-75045414D01*
X150525000Y-75046000D01*
X150126199Y-75046000D01*
X150113026Y-75048619D01*
X150111317Y-75048161D01*
X150110640Y-75046526D01*
X150111525Y-75044994D01*
X150162786Y-75010743D01*
X150162786Y-74879257D01*
X150111527Y-74845005D01*
X150110642Y-74843473D01*
X150111319Y-74841838D01*
X150113028Y-74841380D01*
X150126199Y-74844000D01*
G37*
G36*
X154458759Y-60697225D02*
G01*
X154458939Y-60699093D01*
X154409723Y-60817913D01*
X154391017Y-60960000D01*
X154409723Y-61102086D01*
X154458939Y-61220904D01*
X154458760Y-61222772D01*
X154457111Y-61223669D01*
X154455445Y-61222805D01*
X154395811Y-61136410D01*
X154221595Y-61190698D01*
X154219815Y-61190400D01*
X154219000Y-61188789D01*
X154219000Y-60731210D01*
X154219815Y-60729599D01*
X154221595Y-60729301D01*
X154395811Y-60783589D01*
X154455445Y-60697192D01*
X154457111Y-60696328D01*
X154458759Y-60697225D01*
G37*
G36*
X158217895Y-60825134D02*
G01*
X158218542Y-60826883D01*
X158201017Y-60959999D01*
X158218542Y-61093115D01*
X158217895Y-61094864D01*
X158216087Y-61095319D01*
X158214689Y-61094085D01*
X158199900Y-61055088D01*
X158030100Y-61055088D01*
X158015310Y-61094084D01*
X158013912Y-61095318D01*
X158012104Y-61094863D01*
X158011457Y-61093114D01*
X158028982Y-60959999D01*
X158011457Y-60826884D01*
X158012104Y-60825135D01*
X158013912Y-60824680D01*
X158015310Y-60825914D01*
X158030100Y-60864911D01*
X158199900Y-60864911D01*
X158214689Y-60825913D01*
X158216087Y-60824679D01*
X158217895Y-60825134D01*
G37*
G36*
X156947895Y-60825134D02*
G01*
X156948542Y-60826883D01*
X156931017Y-60959999D01*
X156948542Y-61093115D01*
X156947895Y-61094864D01*
X156946087Y-61095319D01*
X156944689Y-61094085D01*
X156929900Y-61055088D01*
X156760100Y-61055088D01*
X156745310Y-61094084D01*
X156743912Y-61095318D01*
X156742104Y-61094863D01*
X156741457Y-61093114D01*
X156758982Y-60959999D01*
X156741457Y-60826884D01*
X156742104Y-60825135D01*
X156743912Y-60824680D01*
X156745310Y-60825914D01*
X156760100Y-60864911D01*
X156929900Y-60864911D01*
X156944689Y-60825913D01*
X156946087Y-60824679D01*
X156947895Y-60825134D01*
G37*
G36*
X155677895Y-60825134D02*
G01*
X155678542Y-60826883D01*
X155661017Y-60959999D01*
X155678542Y-61093115D01*
X155677895Y-61094864D01*
X155676087Y-61095319D01*
X155674689Y-61094085D01*
X155659900Y-61055088D01*
X155490100Y-61055088D01*
X155475310Y-61094084D01*
X155473912Y-61095318D01*
X155472104Y-61094863D01*
X155471457Y-61093114D01*
X155488982Y-60959999D01*
X155471457Y-60826884D01*
X155472104Y-60825135D01*
X155473912Y-60824680D01*
X155475310Y-60825914D01*
X155490100Y-60864911D01*
X155659900Y-60864911D01*
X155674689Y-60825913D01*
X155676087Y-60824679D01*
X155677895Y-60825134D01*
G37*
G36*
X158750000Y-60238982D02*
G01*
X158852565Y-60225480D01*
X158854145Y-60225959D01*
X158854826Y-60227463D01*
X158854826Y-60422537D01*
X158854145Y-60424041D01*
X158852565Y-60424520D01*
X158750000Y-60411017D01*
X158647434Y-60424521D01*
X158645854Y-60424042D01*
X158645173Y-60422538D01*
X158645173Y-60227462D01*
X158645854Y-60225958D01*
X158647434Y-60225479D01*
X158750000Y-60238982D01*
G37*
G36*
X157480000Y-60238982D02*
G01*
X157582565Y-60225480D01*
X157584145Y-60225959D01*
X157584826Y-60227463D01*
X157584826Y-60422537D01*
X157584145Y-60424041D01*
X157582565Y-60424520D01*
X157480000Y-60411017D01*
X157377434Y-60424521D01*
X157375854Y-60424042D01*
X157375173Y-60422538D01*
X157375173Y-60227462D01*
X157375854Y-60225958D01*
X157377434Y-60225479D01*
X157480000Y-60238982D01*
G37*
G36*
X156210000Y-60238982D02*
G01*
X156312565Y-60225480D01*
X156314145Y-60225959D01*
X156314826Y-60227463D01*
X156314826Y-60422537D01*
X156314145Y-60424041D01*
X156312565Y-60424520D01*
X156210000Y-60411017D01*
X156107434Y-60424521D01*
X156105854Y-60424042D01*
X156105173Y-60422538D01*
X156105173Y-60227462D01*
X156105854Y-60225958D01*
X156107434Y-60225479D01*
X156210000Y-60238982D01*
G37*
G36*
X154940000Y-60238982D02*
G01*
X155042565Y-60225480D01*
X155044145Y-60225959D01*
X155044826Y-60227463D01*
X155044826Y-60422537D01*
X155044145Y-60424041D01*
X155042565Y-60424520D01*
X154940000Y-60411017D01*
X154837434Y-60424521D01*
X154835854Y-60424042D01*
X154835173Y-60422538D01*
X154835173Y-60227462D01*
X154835854Y-60225958D01*
X154837434Y-60225479D01*
X154940000Y-60238982D01*
G37*
G36*
X153527913Y-60220276D02*
G01*
X153669999Y-60238982D01*
X153812086Y-60220276D01*
X153898971Y-60184287D01*
X153900905Y-60184512D01*
X153901731Y-60186276D01*
X153900665Y-60187906D01*
X153839760Y-60219872D01*
X153886257Y-60408521D01*
X153885889Y-60410233D01*
X153884315Y-60411000D01*
X153182313Y-60411000D01*
X153180581Y-60410000D01*
X153180581Y-60408000D01*
X153182313Y-60407000D01*
X153454117Y-60406999D01*
X153500239Y-60219872D01*
X153439332Y-60187905D01*
X153438266Y-60186275D01*
X153439092Y-60184511D01*
X153441026Y-60184286D01*
X153527913Y-60220276D01*
G37*
G36*
X158217895Y-59555134D02*
G01*
X158218542Y-59556883D01*
X158201017Y-59689999D01*
X158218542Y-59823115D01*
X158217895Y-59824864D01*
X158216087Y-59825319D01*
X158214689Y-59824085D01*
X158199900Y-59785088D01*
X158030100Y-59785088D01*
X158015310Y-59824084D01*
X158013912Y-59825318D01*
X158012104Y-59824863D01*
X158011457Y-59823114D01*
X158028982Y-59689999D01*
X158011457Y-59556884D01*
X158012104Y-59555135D01*
X158013912Y-59554680D01*
X158015310Y-59555914D01*
X158030100Y-59594911D01*
X158199900Y-59594911D01*
X158214689Y-59555913D01*
X158216087Y-59554679D01*
X158217895Y-59555134D01*
G37*
G36*
X156947895Y-59555134D02*
G01*
X156948542Y-59556883D01*
X156931017Y-59689999D01*
X156948542Y-59823115D01*
X156947895Y-59824864D01*
X156946087Y-59825319D01*
X156944689Y-59824085D01*
X156929900Y-59785088D01*
X156760100Y-59785088D01*
X156745310Y-59824084D01*
X156743912Y-59825318D01*
X156742104Y-59824863D01*
X156741457Y-59823114D01*
X156758982Y-59689999D01*
X156741457Y-59556884D01*
X156742104Y-59555135D01*
X156743912Y-59554680D01*
X156745310Y-59555914D01*
X156760100Y-59594911D01*
X156929900Y-59594911D01*
X156944689Y-59555913D01*
X156946087Y-59554679D01*
X156947895Y-59555134D01*
G37*
G36*
X155677895Y-59555134D02*
G01*
X155678542Y-59556883D01*
X155661017Y-59689999D01*
X155678542Y-59823115D01*
X155677895Y-59824864D01*
X155676087Y-59825319D01*
X155674689Y-59824085D01*
X155659900Y-59785088D01*
X155490100Y-59785088D01*
X155475310Y-59824084D01*
X155473912Y-59825318D01*
X155472104Y-59824863D01*
X155471457Y-59823114D01*
X155488982Y-59689999D01*
X155471457Y-59556884D01*
X155472104Y-59555135D01*
X155473912Y-59554680D01*
X155475310Y-59555914D01*
X155490100Y-59594911D01*
X155659900Y-59594911D01*
X155674689Y-59555913D01*
X155676087Y-59554679D01*
X155677895Y-59555134D01*
G37*
G36*
X154407895Y-59555134D02*
G01*
X154408542Y-59556883D01*
X154391017Y-59689999D01*
X154408542Y-59823115D01*
X154407895Y-59824864D01*
X154406087Y-59825319D01*
X154404689Y-59824085D01*
X154389900Y-59785088D01*
X154220100Y-59785088D01*
X154205310Y-59824084D01*
X154203912Y-59825318D01*
X154202104Y-59824863D01*
X154201457Y-59823114D01*
X154218982Y-59689999D01*
X154201457Y-59556884D01*
X154202104Y-59555135D01*
X154203912Y-59554680D01*
X154205310Y-59555914D01*
X154220100Y-59594911D01*
X154389900Y-59594911D01*
X154404689Y-59555913D01*
X154406087Y-59554679D01*
X154407895Y-59555134D01*
G37*
M02*
