G04 #@! TF.GenerationSoftware,KiCad,Pcbnew,7.0.1*
G04 #@! TF.CreationDate,2023-03-26T18:13:03+02:00*
G04 #@! TF.ProjectId,stm32{C_G}xxxCx_board,73746d33-327b-4432-9c47-7d7878784378,rev?*
G04 #@! TF.SameCoordinates,Original*
G04 #@! TF.FileFunction,Legend,Top*
G04 #@! TF.FilePolarity,Positive*
%FSLAX46Y46*%
G04 Gerber Fmt 4.6, Leading zero omitted, Abs format (unit mm)*
G04 Created by KiCad (PCBNEW 7.0.1) date 2023-03-26 18:13:03*
%MOMM*%
%LPD*%
G01*
G04 APERTURE LIST*
%ADD10C,0.200000*%
%ADD11C,0.250000*%
%ADD12C,0.150000*%
%ADD13C,0.120000*%
G04 APERTURE END LIST*
D10*
X151765000Y-87630000D02*
G75*
G03*
X151765000Y-87630000I-635000J0D01*
G01*
D11*
X132746905Y-102062619D02*
X132746905Y-101062619D01*
X132746905Y-101062619D02*
X133127857Y-101062619D01*
X133127857Y-101062619D02*
X133223095Y-101110238D01*
X133223095Y-101110238D02*
X133270714Y-101157857D01*
X133270714Y-101157857D02*
X133318333Y-101253095D01*
X133318333Y-101253095D02*
X133318333Y-101395952D01*
X133318333Y-101395952D02*
X133270714Y-101491190D01*
X133270714Y-101491190D02*
X133223095Y-101538809D01*
X133223095Y-101538809D02*
X133127857Y-101586428D01*
X133127857Y-101586428D02*
X132746905Y-101586428D01*
X134080238Y-101538809D02*
X134223095Y-101586428D01*
X134223095Y-101586428D02*
X134270714Y-101634047D01*
X134270714Y-101634047D02*
X134318333Y-101729285D01*
X134318333Y-101729285D02*
X134318333Y-101872142D01*
X134318333Y-101872142D02*
X134270714Y-101967380D01*
X134270714Y-101967380D02*
X134223095Y-102015000D01*
X134223095Y-102015000D02*
X134127857Y-102062619D01*
X134127857Y-102062619D02*
X133746905Y-102062619D01*
X133746905Y-102062619D02*
X133746905Y-101062619D01*
X133746905Y-101062619D02*
X134080238Y-101062619D01*
X134080238Y-101062619D02*
X134175476Y-101110238D01*
X134175476Y-101110238D02*
X134223095Y-101157857D01*
X134223095Y-101157857D02*
X134270714Y-101253095D01*
X134270714Y-101253095D02*
X134270714Y-101348333D01*
X134270714Y-101348333D02*
X134223095Y-101443571D01*
X134223095Y-101443571D02*
X134175476Y-101491190D01*
X134175476Y-101491190D02*
X134080238Y-101538809D01*
X134080238Y-101538809D02*
X133746905Y-101538809D01*
X134889762Y-101491190D02*
X134794524Y-101443571D01*
X134794524Y-101443571D02*
X134746905Y-101395952D01*
X134746905Y-101395952D02*
X134699286Y-101300714D01*
X134699286Y-101300714D02*
X134699286Y-101253095D01*
X134699286Y-101253095D02*
X134746905Y-101157857D01*
X134746905Y-101157857D02*
X134794524Y-101110238D01*
X134794524Y-101110238D02*
X134889762Y-101062619D01*
X134889762Y-101062619D02*
X135080238Y-101062619D01*
X135080238Y-101062619D02*
X135175476Y-101110238D01*
X135175476Y-101110238D02*
X135223095Y-101157857D01*
X135223095Y-101157857D02*
X135270714Y-101253095D01*
X135270714Y-101253095D02*
X135270714Y-101300714D01*
X135270714Y-101300714D02*
X135223095Y-101395952D01*
X135223095Y-101395952D02*
X135175476Y-101443571D01*
X135175476Y-101443571D02*
X135080238Y-101491190D01*
X135080238Y-101491190D02*
X134889762Y-101491190D01*
X134889762Y-101491190D02*
X134794524Y-101538809D01*
X134794524Y-101538809D02*
X134746905Y-101586428D01*
X134746905Y-101586428D02*
X134699286Y-101681666D01*
X134699286Y-101681666D02*
X134699286Y-101872142D01*
X134699286Y-101872142D02*
X134746905Y-101967380D01*
X134746905Y-101967380D02*
X134794524Y-102015000D01*
X134794524Y-102015000D02*
X134889762Y-102062619D01*
X134889762Y-102062619D02*
X135080238Y-102062619D01*
X135080238Y-102062619D02*
X135175476Y-102015000D01*
X135175476Y-102015000D02*
X135223095Y-101967380D01*
X135223095Y-101967380D02*
X135270714Y-101872142D01*
X135270714Y-101872142D02*
X135270714Y-101681666D01*
X135270714Y-101681666D02*
X135223095Y-101586428D01*
X135223095Y-101586428D02*
X135175476Y-101538809D01*
X135175476Y-101538809D02*
X135080238Y-101491190D01*
X154402619Y-54038332D02*
X155402619Y-53704999D01*
X155402619Y-53704999D02*
X154402619Y-53371666D01*
X155402619Y-53038332D02*
X154402619Y-53038332D01*
X154402619Y-53038332D02*
X154402619Y-52800237D01*
X154402619Y-52800237D02*
X154450238Y-52657380D01*
X154450238Y-52657380D02*
X154545476Y-52562142D01*
X154545476Y-52562142D02*
X154640714Y-52514523D01*
X154640714Y-52514523D02*
X154831190Y-52466904D01*
X154831190Y-52466904D02*
X154974047Y-52466904D01*
X154974047Y-52466904D02*
X155164523Y-52514523D01*
X155164523Y-52514523D02*
X155259761Y-52562142D01*
X155259761Y-52562142D02*
X155355000Y-52657380D01*
X155355000Y-52657380D02*
X155402619Y-52800237D01*
X155402619Y-52800237D02*
X155402619Y-53038332D01*
X155402619Y-52038332D02*
X154402619Y-52038332D01*
X154402619Y-52038332D02*
X154402619Y-51800237D01*
X154402619Y-51800237D02*
X154450238Y-51657380D01*
X154450238Y-51657380D02*
X154545476Y-51562142D01*
X154545476Y-51562142D02*
X154640714Y-51514523D01*
X154640714Y-51514523D02*
X154831190Y-51466904D01*
X154831190Y-51466904D02*
X154974047Y-51466904D01*
X154974047Y-51466904D02*
X155164523Y-51514523D01*
X155164523Y-51514523D02*
X155259761Y-51562142D01*
X155259761Y-51562142D02*
X155355000Y-51657380D01*
X155355000Y-51657380D02*
X155402619Y-51800237D01*
X155402619Y-51800237D02*
X155402619Y-52038332D01*
X159530238Y-53466904D02*
X159482619Y-53562142D01*
X159482619Y-53562142D02*
X159482619Y-53704999D01*
X159482619Y-53704999D02*
X159530238Y-53847856D01*
X159530238Y-53847856D02*
X159625476Y-53943094D01*
X159625476Y-53943094D02*
X159720714Y-53990713D01*
X159720714Y-53990713D02*
X159911190Y-54038332D01*
X159911190Y-54038332D02*
X160054047Y-54038332D01*
X160054047Y-54038332D02*
X160244523Y-53990713D01*
X160244523Y-53990713D02*
X160339761Y-53943094D01*
X160339761Y-53943094D02*
X160435000Y-53847856D01*
X160435000Y-53847856D02*
X160482619Y-53704999D01*
X160482619Y-53704999D02*
X160482619Y-53609761D01*
X160482619Y-53609761D02*
X160435000Y-53466904D01*
X160435000Y-53466904D02*
X160387380Y-53419285D01*
X160387380Y-53419285D02*
X160054047Y-53419285D01*
X160054047Y-53419285D02*
X160054047Y-53609761D01*
X160482619Y-52990713D02*
X159482619Y-52990713D01*
X159482619Y-52990713D02*
X160482619Y-52419285D01*
X160482619Y-52419285D02*
X159482619Y-52419285D01*
X160482619Y-51943094D02*
X159482619Y-51943094D01*
X159482619Y-51943094D02*
X159482619Y-51704999D01*
X159482619Y-51704999D02*
X159530238Y-51562142D01*
X159530238Y-51562142D02*
X159625476Y-51466904D01*
X159625476Y-51466904D02*
X159720714Y-51419285D01*
X159720714Y-51419285D02*
X159911190Y-51371666D01*
X159911190Y-51371666D02*
X160054047Y-51371666D01*
X160054047Y-51371666D02*
X160244523Y-51419285D01*
X160244523Y-51419285D02*
X160339761Y-51466904D01*
X160339761Y-51466904D02*
X160435000Y-51562142D01*
X160435000Y-51562142D02*
X160482619Y-51704999D01*
X160482619Y-51704999D02*
X160482619Y-51943094D01*
X157847380Y-53300238D02*
X157895000Y-53347857D01*
X157895000Y-53347857D02*
X157942619Y-53490714D01*
X157942619Y-53490714D02*
X157942619Y-53585952D01*
X157942619Y-53585952D02*
X157895000Y-53728809D01*
X157895000Y-53728809D02*
X157799761Y-53824047D01*
X157799761Y-53824047D02*
X157704523Y-53871666D01*
X157704523Y-53871666D02*
X157514047Y-53919285D01*
X157514047Y-53919285D02*
X157371190Y-53919285D01*
X157371190Y-53919285D02*
X157180714Y-53871666D01*
X157180714Y-53871666D02*
X157085476Y-53824047D01*
X157085476Y-53824047D02*
X156990238Y-53728809D01*
X156990238Y-53728809D02*
X156942619Y-53585952D01*
X156942619Y-53585952D02*
X156942619Y-53490714D01*
X156942619Y-53490714D02*
X156990238Y-53347857D01*
X156990238Y-53347857D02*
X157037857Y-53300238D01*
X157942619Y-52395476D02*
X157942619Y-52871666D01*
X157942619Y-52871666D02*
X156942619Y-52871666D01*
X157942619Y-52062142D02*
X156942619Y-52062142D01*
X157942619Y-51490714D02*
X157371190Y-51919285D01*
X156942619Y-51490714D02*
X157514047Y-52062142D01*
X163022619Y-53228808D02*
X162022619Y-53228808D01*
X162022619Y-52562142D02*
X162022619Y-52371666D01*
X162022619Y-52371666D02*
X162070238Y-52276428D01*
X162070238Y-52276428D02*
X162165476Y-52181190D01*
X162165476Y-52181190D02*
X162355952Y-52133571D01*
X162355952Y-52133571D02*
X162689285Y-52133571D01*
X162689285Y-52133571D02*
X162879761Y-52181190D01*
X162879761Y-52181190D02*
X162975000Y-52276428D01*
X162975000Y-52276428D02*
X163022619Y-52371666D01*
X163022619Y-52371666D02*
X163022619Y-52562142D01*
X163022619Y-52562142D02*
X162975000Y-52657380D01*
X162975000Y-52657380D02*
X162879761Y-52752618D01*
X162879761Y-52752618D02*
X162689285Y-52800237D01*
X162689285Y-52800237D02*
X162355952Y-52800237D01*
X162355952Y-52800237D02*
X162165476Y-52752618D01*
X162165476Y-52752618D02*
X162070238Y-52657380D01*
X162070238Y-52657380D02*
X162022619Y-52562142D01*
X132746905Y-99522619D02*
X132746905Y-98522619D01*
X132746905Y-98522619D02*
X133127857Y-98522619D01*
X133127857Y-98522619D02*
X133223095Y-98570238D01*
X133223095Y-98570238D02*
X133270714Y-98617857D01*
X133270714Y-98617857D02*
X133318333Y-98713095D01*
X133318333Y-98713095D02*
X133318333Y-98855952D01*
X133318333Y-98855952D02*
X133270714Y-98951190D01*
X133270714Y-98951190D02*
X133223095Y-98998809D01*
X133223095Y-98998809D02*
X133127857Y-99046428D01*
X133127857Y-99046428D02*
X132746905Y-99046428D01*
X134080238Y-98998809D02*
X134223095Y-99046428D01*
X134223095Y-99046428D02*
X134270714Y-99094047D01*
X134270714Y-99094047D02*
X134318333Y-99189285D01*
X134318333Y-99189285D02*
X134318333Y-99332142D01*
X134318333Y-99332142D02*
X134270714Y-99427380D01*
X134270714Y-99427380D02*
X134223095Y-99475000D01*
X134223095Y-99475000D02*
X134127857Y-99522619D01*
X134127857Y-99522619D02*
X133746905Y-99522619D01*
X133746905Y-99522619D02*
X133746905Y-98522619D01*
X133746905Y-98522619D02*
X134080238Y-98522619D01*
X134080238Y-98522619D02*
X134175476Y-98570238D01*
X134175476Y-98570238D02*
X134223095Y-98617857D01*
X134223095Y-98617857D02*
X134270714Y-98713095D01*
X134270714Y-98713095D02*
X134270714Y-98808333D01*
X134270714Y-98808333D02*
X134223095Y-98903571D01*
X134223095Y-98903571D02*
X134175476Y-98951190D01*
X134175476Y-98951190D02*
X134080238Y-98998809D01*
X134080238Y-98998809D02*
X133746905Y-98998809D01*
X134651667Y-98522619D02*
X135318333Y-98522619D01*
X135318333Y-98522619D02*
X134889762Y-99522619D01*
X132746905Y-96982619D02*
X132746905Y-95982619D01*
X132746905Y-95982619D02*
X133127857Y-95982619D01*
X133127857Y-95982619D02*
X133223095Y-96030238D01*
X133223095Y-96030238D02*
X133270714Y-96077857D01*
X133270714Y-96077857D02*
X133318333Y-96173095D01*
X133318333Y-96173095D02*
X133318333Y-96315952D01*
X133318333Y-96315952D02*
X133270714Y-96411190D01*
X133270714Y-96411190D02*
X133223095Y-96458809D01*
X133223095Y-96458809D02*
X133127857Y-96506428D01*
X133127857Y-96506428D02*
X132746905Y-96506428D01*
X134080238Y-96458809D02*
X134223095Y-96506428D01*
X134223095Y-96506428D02*
X134270714Y-96554047D01*
X134270714Y-96554047D02*
X134318333Y-96649285D01*
X134318333Y-96649285D02*
X134318333Y-96792142D01*
X134318333Y-96792142D02*
X134270714Y-96887380D01*
X134270714Y-96887380D02*
X134223095Y-96935000D01*
X134223095Y-96935000D02*
X134127857Y-96982619D01*
X134127857Y-96982619D02*
X133746905Y-96982619D01*
X133746905Y-96982619D02*
X133746905Y-95982619D01*
X133746905Y-95982619D02*
X134080238Y-95982619D01*
X134080238Y-95982619D02*
X134175476Y-96030238D01*
X134175476Y-96030238D02*
X134223095Y-96077857D01*
X134223095Y-96077857D02*
X134270714Y-96173095D01*
X134270714Y-96173095D02*
X134270714Y-96268333D01*
X134270714Y-96268333D02*
X134223095Y-96363571D01*
X134223095Y-96363571D02*
X134175476Y-96411190D01*
X134175476Y-96411190D02*
X134080238Y-96458809D01*
X134080238Y-96458809D02*
X133746905Y-96458809D01*
X135175476Y-95982619D02*
X134985000Y-95982619D01*
X134985000Y-95982619D02*
X134889762Y-96030238D01*
X134889762Y-96030238D02*
X134842143Y-96077857D01*
X134842143Y-96077857D02*
X134746905Y-96220714D01*
X134746905Y-96220714D02*
X134699286Y-96411190D01*
X134699286Y-96411190D02*
X134699286Y-96792142D01*
X134699286Y-96792142D02*
X134746905Y-96887380D01*
X134746905Y-96887380D02*
X134794524Y-96935000D01*
X134794524Y-96935000D02*
X134889762Y-96982619D01*
X134889762Y-96982619D02*
X135080238Y-96982619D01*
X135080238Y-96982619D02*
X135175476Y-96935000D01*
X135175476Y-96935000D02*
X135223095Y-96887380D01*
X135223095Y-96887380D02*
X135270714Y-96792142D01*
X135270714Y-96792142D02*
X135270714Y-96554047D01*
X135270714Y-96554047D02*
X135223095Y-96458809D01*
X135223095Y-96458809D02*
X135175476Y-96411190D01*
X135175476Y-96411190D02*
X135080238Y-96363571D01*
X135080238Y-96363571D02*
X134889762Y-96363571D01*
X134889762Y-96363571D02*
X134794524Y-96411190D01*
X134794524Y-96411190D02*
X134746905Y-96458809D01*
X134746905Y-96458809D02*
X134699286Y-96554047D01*
X132746905Y-91902619D02*
X132746905Y-90902619D01*
X132746905Y-90902619D02*
X133127857Y-90902619D01*
X133127857Y-90902619D02*
X133223095Y-90950238D01*
X133223095Y-90950238D02*
X133270714Y-90997857D01*
X133270714Y-90997857D02*
X133318333Y-91093095D01*
X133318333Y-91093095D02*
X133318333Y-91235952D01*
X133318333Y-91235952D02*
X133270714Y-91331190D01*
X133270714Y-91331190D02*
X133223095Y-91378809D01*
X133223095Y-91378809D02*
X133127857Y-91426428D01*
X133127857Y-91426428D02*
X132746905Y-91426428D01*
X134080238Y-91378809D02*
X134223095Y-91426428D01*
X134223095Y-91426428D02*
X134270714Y-91474047D01*
X134270714Y-91474047D02*
X134318333Y-91569285D01*
X134318333Y-91569285D02*
X134318333Y-91712142D01*
X134318333Y-91712142D02*
X134270714Y-91807380D01*
X134270714Y-91807380D02*
X134223095Y-91855000D01*
X134223095Y-91855000D02*
X134127857Y-91902619D01*
X134127857Y-91902619D02*
X133746905Y-91902619D01*
X133746905Y-91902619D02*
X133746905Y-90902619D01*
X133746905Y-90902619D02*
X134080238Y-90902619D01*
X134080238Y-90902619D02*
X134175476Y-90950238D01*
X134175476Y-90950238D02*
X134223095Y-90997857D01*
X134223095Y-90997857D02*
X134270714Y-91093095D01*
X134270714Y-91093095D02*
X134270714Y-91188333D01*
X134270714Y-91188333D02*
X134223095Y-91283571D01*
X134223095Y-91283571D02*
X134175476Y-91331190D01*
X134175476Y-91331190D02*
X134080238Y-91378809D01*
X134080238Y-91378809D02*
X133746905Y-91378809D01*
X135175476Y-91235952D02*
X135175476Y-91902619D01*
X134937381Y-90855000D02*
X134699286Y-91569285D01*
X134699286Y-91569285D02*
X135318333Y-91569285D01*
X132746905Y-94442619D02*
X132746905Y-93442619D01*
X132746905Y-93442619D02*
X133127857Y-93442619D01*
X133127857Y-93442619D02*
X133223095Y-93490238D01*
X133223095Y-93490238D02*
X133270714Y-93537857D01*
X133270714Y-93537857D02*
X133318333Y-93633095D01*
X133318333Y-93633095D02*
X133318333Y-93775952D01*
X133318333Y-93775952D02*
X133270714Y-93871190D01*
X133270714Y-93871190D02*
X133223095Y-93918809D01*
X133223095Y-93918809D02*
X133127857Y-93966428D01*
X133127857Y-93966428D02*
X132746905Y-93966428D01*
X134080238Y-93918809D02*
X134223095Y-93966428D01*
X134223095Y-93966428D02*
X134270714Y-94014047D01*
X134270714Y-94014047D02*
X134318333Y-94109285D01*
X134318333Y-94109285D02*
X134318333Y-94252142D01*
X134318333Y-94252142D02*
X134270714Y-94347380D01*
X134270714Y-94347380D02*
X134223095Y-94395000D01*
X134223095Y-94395000D02*
X134127857Y-94442619D01*
X134127857Y-94442619D02*
X133746905Y-94442619D01*
X133746905Y-94442619D02*
X133746905Y-93442619D01*
X133746905Y-93442619D02*
X134080238Y-93442619D01*
X134080238Y-93442619D02*
X134175476Y-93490238D01*
X134175476Y-93490238D02*
X134223095Y-93537857D01*
X134223095Y-93537857D02*
X134270714Y-93633095D01*
X134270714Y-93633095D02*
X134270714Y-93728333D01*
X134270714Y-93728333D02*
X134223095Y-93823571D01*
X134223095Y-93823571D02*
X134175476Y-93871190D01*
X134175476Y-93871190D02*
X134080238Y-93918809D01*
X134080238Y-93918809D02*
X133746905Y-93918809D01*
X135223095Y-93442619D02*
X134746905Y-93442619D01*
X134746905Y-93442619D02*
X134699286Y-93918809D01*
X134699286Y-93918809D02*
X134746905Y-93871190D01*
X134746905Y-93871190D02*
X134842143Y-93823571D01*
X134842143Y-93823571D02*
X135080238Y-93823571D01*
X135080238Y-93823571D02*
X135175476Y-93871190D01*
X135175476Y-93871190D02*
X135223095Y-93918809D01*
X135223095Y-93918809D02*
X135270714Y-94014047D01*
X135270714Y-94014047D02*
X135270714Y-94252142D01*
X135270714Y-94252142D02*
X135223095Y-94347380D01*
X135223095Y-94347380D02*
X135175476Y-94395000D01*
X135175476Y-94395000D02*
X135080238Y-94442619D01*
X135080238Y-94442619D02*
X134842143Y-94442619D01*
X134842143Y-94442619D02*
X134746905Y-94395000D01*
X134746905Y-94395000D02*
X134699286Y-94347380D01*
X132342143Y-76662619D02*
X132342143Y-75662619D01*
X132342143Y-75662619D02*
X132723095Y-75662619D01*
X132723095Y-75662619D02*
X132818333Y-75710238D01*
X132818333Y-75710238D02*
X132865952Y-75757857D01*
X132865952Y-75757857D02*
X132913571Y-75853095D01*
X132913571Y-75853095D02*
X132913571Y-75995952D01*
X132913571Y-75995952D02*
X132865952Y-76091190D01*
X132865952Y-76091190D02*
X132818333Y-76138809D01*
X132818333Y-76138809D02*
X132723095Y-76186428D01*
X132723095Y-76186428D02*
X132342143Y-76186428D01*
X133294524Y-76376904D02*
X133770714Y-76376904D01*
X133199286Y-76662619D02*
X133532619Y-75662619D01*
X133532619Y-75662619D02*
X133865952Y-76662619D01*
X134723095Y-76662619D02*
X134151667Y-76662619D01*
X134437381Y-76662619D02*
X134437381Y-75662619D01*
X134437381Y-75662619D02*
X134342143Y-75805476D01*
X134342143Y-75805476D02*
X134246905Y-75900714D01*
X134246905Y-75900714D02*
X134151667Y-75948333D01*
X135675476Y-76662619D02*
X135104048Y-76662619D01*
X135389762Y-76662619D02*
X135389762Y-75662619D01*
X135389762Y-75662619D02*
X135294524Y-75805476D01*
X135294524Y-75805476D02*
X135199286Y-75900714D01*
X135199286Y-75900714D02*
X135104048Y-75948333D01*
X132746905Y-89362619D02*
X132746905Y-88362619D01*
X132746905Y-88362619D02*
X133127857Y-88362619D01*
X133127857Y-88362619D02*
X133223095Y-88410238D01*
X133223095Y-88410238D02*
X133270714Y-88457857D01*
X133270714Y-88457857D02*
X133318333Y-88553095D01*
X133318333Y-88553095D02*
X133318333Y-88695952D01*
X133318333Y-88695952D02*
X133270714Y-88791190D01*
X133270714Y-88791190D02*
X133223095Y-88838809D01*
X133223095Y-88838809D02*
X133127857Y-88886428D01*
X133127857Y-88886428D02*
X132746905Y-88886428D01*
X134080238Y-88838809D02*
X134223095Y-88886428D01*
X134223095Y-88886428D02*
X134270714Y-88934047D01*
X134270714Y-88934047D02*
X134318333Y-89029285D01*
X134318333Y-89029285D02*
X134318333Y-89172142D01*
X134318333Y-89172142D02*
X134270714Y-89267380D01*
X134270714Y-89267380D02*
X134223095Y-89315000D01*
X134223095Y-89315000D02*
X134127857Y-89362619D01*
X134127857Y-89362619D02*
X133746905Y-89362619D01*
X133746905Y-89362619D02*
X133746905Y-88362619D01*
X133746905Y-88362619D02*
X134080238Y-88362619D01*
X134080238Y-88362619D02*
X134175476Y-88410238D01*
X134175476Y-88410238D02*
X134223095Y-88457857D01*
X134223095Y-88457857D02*
X134270714Y-88553095D01*
X134270714Y-88553095D02*
X134270714Y-88648333D01*
X134270714Y-88648333D02*
X134223095Y-88743571D01*
X134223095Y-88743571D02*
X134175476Y-88791190D01*
X134175476Y-88791190D02*
X134080238Y-88838809D01*
X134080238Y-88838809D02*
X133746905Y-88838809D01*
X134651667Y-88362619D02*
X135270714Y-88362619D01*
X135270714Y-88362619D02*
X134937381Y-88743571D01*
X134937381Y-88743571D02*
X135080238Y-88743571D01*
X135080238Y-88743571D02*
X135175476Y-88791190D01*
X135175476Y-88791190D02*
X135223095Y-88838809D01*
X135223095Y-88838809D02*
X135270714Y-88934047D01*
X135270714Y-88934047D02*
X135270714Y-89172142D01*
X135270714Y-89172142D02*
X135223095Y-89267380D01*
X135223095Y-89267380D02*
X135175476Y-89315000D01*
X135175476Y-89315000D02*
X135080238Y-89362619D01*
X135080238Y-89362619D02*
X134794524Y-89362619D01*
X134794524Y-89362619D02*
X134699286Y-89315000D01*
X134699286Y-89315000D02*
X134651667Y-89267380D01*
X132342143Y-84282619D02*
X132342143Y-83282619D01*
X132342143Y-83282619D02*
X132723095Y-83282619D01*
X132723095Y-83282619D02*
X132818333Y-83330238D01*
X132818333Y-83330238D02*
X132865952Y-83377857D01*
X132865952Y-83377857D02*
X132913571Y-83473095D01*
X132913571Y-83473095D02*
X132913571Y-83615952D01*
X132913571Y-83615952D02*
X132865952Y-83711190D01*
X132865952Y-83711190D02*
X132818333Y-83758809D01*
X132818333Y-83758809D02*
X132723095Y-83806428D01*
X132723095Y-83806428D02*
X132342143Y-83806428D01*
X133294524Y-83996904D02*
X133770714Y-83996904D01*
X133199286Y-84282619D02*
X133532619Y-83282619D01*
X133532619Y-83282619D02*
X133865952Y-84282619D01*
X134723095Y-84282619D02*
X134151667Y-84282619D01*
X134437381Y-84282619D02*
X134437381Y-83282619D01*
X134437381Y-83282619D02*
X134342143Y-83425476D01*
X134342143Y-83425476D02*
X134246905Y-83520714D01*
X134246905Y-83520714D02*
X134151667Y-83568333D01*
X135580238Y-83615952D02*
X135580238Y-84282619D01*
X135342143Y-83235000D02*
X135104048Y-83949285D01*
X135104048Y-83949285D02*
X135723095Y-83949285D01*
X132342143Y-86822619D02*
X132342143Y-85822619D01*
X132342143Y-85822619D02*
X132723095Y-85822619D01*
X132723095Y-85822619D02*
X132818333Y-85870238D01*
X132818333Y-85870238D02*
X132865952Y-85917857D01*
X132865952Y-85917857D02*
X132913571Y-86013095D01*
X132913571Y-86013095D02*
X132913571Y-86155952D01*
X132913571Y-86155952D02*
X132865952Y-86251190D01*
X132865952Y-86251190D02*
X132818333Y-86298809D01*
X132818333Y-86298809D02*
X132723095Y-86346428D01*
X132723095Y-86346428D02*
X132342143Y-86346428D01*
X133294524Y-86536904D02*
X133770714Y-86536904D01*
X133199286Y-86822619D02*
X133532619Y-85822619D01*
X133532619Y-85822619D02*
X133865952Y-86822619D01*
X134723095Y-86822619D02*
X134151667Y-86822619D01*
X134437381Y-86822619D02*
X134437381Y-85822619D01*
X134437381Y-85822619D02*
X134342143Y-85965476D01*
X134342143Y-85965476D02*
X134246905Y-86060714D01*
X134246905Y-86060714D02*
X134151667Y-86108333D01*
X135627857Y-85822619D02*
X135151667Y-85822619D01*
X135151667Y-85822619D02*
X135104048Y-86298809D01*
X135104048Y-86298809D02*
X135151667Y-86251190D01*
X135151667Y-86251190D02*
X135246905Y-86203571D01*
X135246905Y-86203571D02*
X135485000Y-86203571D01*
X135485000Y-86203571D02*
X135580238Y-86251190D01*
X135580238Y-86251190D02*
X135627857Y-86298809D01*
X135627857Y-86298809D02*
X135675476Y-86394047D01*
X135675476Y-86394047D02*
X135675476Y-86632142D01*
X135675476Y-86632142D02*
X135627857Y-86727380D01*
X135627857Y-86727380D02*
X135580238Y-86775000D01*
X135580238Y-86775000D02*
X135485000Y-86822619D01*
X135485000Y-86822619D02*
X135246905Y-86822619D01*
X135246905Y-86822619D02*
X135151667Y-86775000D01*
X135151667Y-86775000D02*
X135104048Y-86727380D01*
X132342143Y-79202619D02*
X132342143Y-78202619D01*
X132342143Y-78202619D02*
X132723095Y-78202619D01*
X132723095Y-78202619D02*
X132818333Y-78250238D01*
X132818333Y-78250238D02*
X132865952Y-78297857D01*
X132865952Y-78297857D02*
X132913571Y-78393095D01*
X132913571Y-78393095D02*
X132913571Y-78535952D01*
X132913571Y-78535952D02*
X132865952Y-78631190D01*
X132865952Y-78631190D02*
X132818333Y-78678809D01*
X132818333Y-78678809D02*
X132723095Y-78726428D01*
X132723095Y-78726428D02*
X132342143Y-78726428D01*
X133294524Y-78916904D02*
X133770714Y-78916904D01*
X133199286Y-79202619D02*
X133532619Y-78202619D01*
X133532619Y-78202619D02*
X133865952Y-79202619D01*
X134723095Y-79202619D02*
X134151667Y-79202619D01*
X134437381Y-79202619D02*
X134437381Y-78202619D01*
X134437381Y-78202619D02*
X134342143Y-78345476D01*
X134342143Y-78345476D02*
X134246905Y-78440714D01*
X134246905Y-78440714D02*
X134151667Y-78488333D01*
X135104048Y-78297857D02*
X135151667Y-78250238D01*
X135151667Y-78250238D02*
X135246905Y-78202619D01*
X135246905Y-78202619D02*
X135485000Y-78202619D01*
X135485000Y-78202619D02*
X135580238Y-78250238D01*
X135580238Y-78250238D02*
X135627857Y-78297857D01*
X135627857Y-78297857D02*
X135675476Y-78393095D01*
X135675476Y-78393095D02*
X135675476Y-78488333D01*
X135675476Y-78488333D02*
X135627857Y-78631190D01*
X135627857Y-78631190D02*
X135056429Y-79202619D01*
X135056429Y-79202619D02*
X135675476Y-79202619D01*
X132342143Y-81742619D02*
X132342143Y-80742619D01*
X132342143Y-80742619D02*
X132723095Y-80742619D01*
X132723095Y-80742619D02*
X132818333Y-80790238D01*
X132818333Y-80790238D02*
X132865952Y-80837857D01*
X132865952Y-80837857D02*
X132913571Y-80933095D01*
X132913571Y-80933095D02*
X132913571Y-81075952D01*
X132913571Y-81075952D02*
X132865952Y-81171190D01*
X132865952Y-81171190D02*
X132818333Y-81218809D01*
X132818333Y-81218809D02*
X132723095Y-81266428D01*
X132723095Y-81266428D02*
X132342143Y-81266428D01*
X133294524Y-81456904D02*
X133770714Y-81456904D01*
X133199286Y-81742619D02*
X133532619Y-80742619D01*
X133532619Y-80742619D02*
X133865952Y-81742619D01*
X134723095Y-81742619D02*
X134151667Y-81742619D01*
X134437381Y-81742619D02*
X134437381Y-80742619D01*
X134437381Y-80742619D02*
X134342143Y-80885476D01*
X134342143Y-80885476D02*
X134246905Y-80980714D01*
X134246905Y-80980714D02*
X134151667Y-81028333D01*
X135056429Y-80742619D02*
X135675476Y-80742619D01*
X135675476Y-80742619D02*
X135342143Y-81123571D01*
X135342143Y-81123571D02*
X135485000Y-81123571D01*
X135485000Y-81123571D02*
X135580238Y-81171190D01*
X135580238Y-81171190D02*
X135627857Y-81218809D01*
X135627857Y-81218809D02*
X135675476Y-81314047D01*
X135675476Y-81314047D02*
X135675476Y-81552142D01*
X135675476Y-81552142D02*
X135627857Y-81647380D01*
X135627857Y-81647380D02*
X135580238Y-81695000D01*
X135580238Y-81695000D02*
X135485000Y-81742619D01*
X135485000Y-81742619D02*
X135199286Y-81742619D01*
X135199286Y-81742619D02*
X135104048Y-81695000D01*
X135104048Y-81695000D02*
X135056429Y-81647380D01*
X132270714Y-66502619D02*
X132270714Y-65502619D01*
X132270714Y-65502619D02*
X132651666Y-65502619D01*
X132651666Y-65502619D02*
X132746904Y-65550238D01*
X132746904Y-65550238D02*
X132794523Y-65597857D01*
X132794523Y-65597857D02*
X132842142Y-65693095D01*
X132842142Y-65693095D02*
X132842142Y-65835952D01*
X132842142Y-65835952D02*
X132794523Y-65931190D01*
X132794523Y-65931190D02*
X132746904Y-65978809D01*
X132746904Y-65978809D02*
X132651666Y-66026428D01*
X132651666Y-66026428D02*
X132270714Y-66026428D01*
X133604047Y-65978809D02*
X133746904Y-66026428D01*
X133746904Y-66026428D02*
X133794523Y-66074047D01*
X133794523Y-66074047D02*
X133842142Y-66169285D01*
X133842142Y-66169285D02*
X133842142Y-66312142D01*
X133842142Y-66312142D02*
X133794523Y-66407380D01*
X133794523Y-66407380D02*
X133746904Y-66455000D01*
X133746904Y-66455000D02*
X133651666Y-66502619D01*
X133651666Y-66502619D02*
X133270714Y-66502619D01*
X133270714Y-66502619D02*
X133270714Y-65502619D01*
X133270714Y-65502619D02*
X133604047Y-65502619D01*
X133604047Y-65502619D02*
X133699285Y-65550238D01*
X133699285Y-65550238D02*
X133746904Y-65597857D01*
X133746904Y-65597857D02*
X133794523Y-65693095D01*
X133794523Y-65693095D02*
X133794523Y-65788333D01*
X133794523Y-65788333D02*
X133746904Y-65883571D01*
X133746904Y-65883571D02*
X133699285Y-65931190D01*
X133699285Y-65931190D02*
X133604047Y-65978809D01*
X133604047Y-65978809D02*
X133270714Y-65978809D01*
X134794523Y-66502619D02*
X134223095Y-66502619D01*
X134508809Y-66502619D02*
X134508809Y-65502619D01*
X134508809Y-65502619D02*
X134413571Y-65645476D01*
X134413571Y-65645476D02*
X134318333Y-65740714D01*
X134318333Y-65740714D02*
X134223095Y-65788333D01*
X135699285Y-65502619D02*
X135223095Y-65502619D01*
X135223095Y-65502619D02*
X135175476Y-65978809D01*
X135175476Y-65978809D02*
X135223095Y-65931190D01*
X135223095Y-65931190D02*
X135318333Y-65883571D01*
X135318333Y-65883571D02*
X135556428Y-65883571D01*
X135556428Y-65883571D02*
X135651666Y-65931190D01*
X135651666Y-65931190D02*
X135699285Y-65978809D01*
X135699285Y-65978809D02*
X135746904Y-66074047D01*
X135746904Y-66074047D02*
X135746904Y-66312142D01*
X135746904Y-66312142D02*
X135699285Y-66407380D01*
X135699285Y-66407380D02*
X135651666Y-66455000D01*
X135651666Y-66455000D02*
X135556428Y-66502619D01*
X135556428Y-66502619D02*
X135318333Y-66502619D01*
X135318333Y-66502619D02*
X135223095Y-66455000D01*
X135223095Y-66455000D02*
X135175476Y-66407380D01*
X132818333Y-71582619D02*
X132818333Y-70582619D01*
X132818333Y-70582619D02*
X133199285Y-70582619D01*
X133199285Y-70582619D02*
X133294523Y-70630238D01*
X133294523Y-70630238D02*
X133342142Y-70677857D01*
X133342142Y-70677857D02*
X133389761Y-70773095D01*
X133389761Y-70773095D02*
X133389761Y-70915952D01*
X133389761Y-70915952D02*
X133342142Y-71011190D01*
X133342142Y-71011190D02*
X133294523Y-71058809D01*
X133294523Y-71058809D02*
X133199285Y-71106428D01*
X133199285Y-71106428D02*
X132818333Y-71106428D01*
X133770714Y-71296904D02*
X134246904Y-71296904D01*
X133675476Y-71582619D02*
X134008809Y-70582619D01*
X134008809Y-70582619D02*
X134342142Y-71582619D01*
X134723095Y-71582619D02*
X134913571Y-71582619D01*
X134913571Y-71582619D02*
X135008809Y-71535000D01*
X135008809Y-71535000D02*
X135056428Y-71487380D01*
X135056428Y-71487380D02*
X135151666Y-71344523D01*
X135151666Y-71344523D02*
X135199285Y-71154047D01*
X135199285Y-71154047D02*
X135199285Y-70773095D01*
X135199285Y-70773095D02*
X135151666Y-70677857D01*
X135151666Y-70677857D02*
X135104047Y-70630238D01*
X135104047Y-70630238D02*
X135008809Y-70582619D01*
X135008809Y-70582619D02*
X134818333Y-70582619D01*
X134818333Y-70582619D02*
X134723095Y-70630238D01*
X134723095Y-70630238D02*
X134675476Y-70677857D01*
X134675476Y-70677857D02*
X134627857Y-70773095D01*
X134627857Y-70773095D02*
X134627857Y-71011190D01*
X134627857Y-71011190D02*
X134675476Y-71106428D01*
X134675476Y-71106428D02*
X134723095Y-71154047D01*
X134723095Y-71154047D02*
X134818333Y-71201666D01*
X134818333Y-71201666D02*
X135008809Y-71201666D01*
X135008809Y-71201666D02*
X135104047Y-71154047D01*
X135104047Y-71154047D02*
X135151666Y-71106428D01*
X135151666Y-71106428D02*
X135199285Y-71011190D01*
X132818333Y-69042619D02*
X132818333Y-68042619D01*
X132818333Y-68042619D02*
X133199285Y-68042619D01*
X133199285Y-68042619D02*
X133294523Y-68090238D01*
X133294523Y-68090238D02*
X133342142Y-68137857D01*
X133342142Y-68137857D02*
X133389761Y-68233095D01*
X133389761Y-68233095D02*
X133389761Y-68375952D01*
X133389761Y-68375952D02*
X133342142Y-68471190D01*
X133342142Y-68471190D02*
X133294523Y-68518809D01*
X133294523Y-68518809D02*
X133199285Y-68566428D01*
X133199285Y-68566428D02*
X132818333Y-68566428D01*
X133770714Y-68756904D02*
X134246904Y-68756904D01*
X133675476Y-69042619D02*
X134008809Y-68042619D01*
X134008809Y-68042619D02*
X134342142Y-69042619D01*
X134818333Y-68471190D02*
X134723095Y-68423571D01*
X134723095Y-68423571D02*
X134675476Y-68375952D01*
X134675476Y-68375952D02*
X134627857Y-68280714D01*
X134627857Y-68280714D02*
X134627857Y-68233095D01*
X134627857Y-68233095D02*
X134675476Y-68137857D01*
X134675476Y-68137857D02*
X134723095Y-68090238D01*
X134723095Y-68090238D02*
X134818333Y-68042619D01*
X134818333Y-68042619D02*
X135008809Y-68042619D01*
X135008809Y-68042619D02*
X135104047Y-68090238D01*
X135104047Y-68090238D02*
X135151666Y-68137857D01*
X135151666Y-68137857D02*
X135199285Y-68233095D01*
X135199285Y-68233095D02*
X135199285Y-68280714D01*
X135199285Y-68280714D02*
X135151666Y-68375952D01*
X135151666Y-68375952D02*
X135104047Y-68423571D01*
X135104047Y-68423571D02*
X135008809Y-68471190D01*
X135008809Y-68471190D02*
X134818333Y-68471190D01*
X134818333Y-68471190D02*
X134723095Y-68518809D01*
X134723095Y-68518809D02*
X134675476Y-68566428D01*
X134675476Y-68566428D02*
X134627857Y-68661666D01*
X134627857Y-68661666D02*
X134627857Y-68852142D01*
X134627857Y-68852142D02*
X134675476Y-68947380D01*
X134675476Y-68947380D02*
X134723095Y-68995000D01*
X134723095Y-68995000D02*
X134818333Y-69042619D01*
X134818333Y-69042619D02*
X135008809Y-69042619D01*
X135008809Y-69042619D02*
X135104047Y-68995000D01*
X135104047Y-68995000D02*
X135151666Y-68947380D01*
X135151666Y-68947380D02*
X135199285Y-68852142D01*
X135199285Y-68852142D02*
X135199285Y-68661666D01*
X135199285Y-68661666D02*
X135151666Y-68566428D01*
X135151666Y-68566428D02*
X135104047Y-68518809D01*
X135104047Y-68518809D02*
X135008809Y-68471190D01*
X132342143Y-74122619D02*
X132342143Y-73122619D01*
X132342143Y-73122619D02*
X132723095Y-73122619D01*
X132723095Y-73122619D02*
X132818333Y-73170238D01*
X132818333Y-73170238D02*
X132865952Y-73217857D01*
X132865952Y-73217857D02*
X132913571Y-73313095D01*
X132913571Y-73313095D02*
X132913571Y-73455952D01*
X132913571Y-73455952D02*
X132865952Y-73551190D01*
X132865952Y-73551190D02*
X132818333Y-73598809D01*
X132818333Y-73598809D02*
X132723095Y-73646428D01*
X132723095Y-73646428D02*
X132342143Y-73646428D01*
X133294524Y-73836904D02*
X133770714Y-73836904D01*
X133199286Y-74122619D02*
X133532619Y-73122619D01*
X133532619Y-73122619D02*
X133865952Y-74122619D01*
X134723095Y-74122619D02*
X134151667Y-74122619D01*
X134437381Y-74122619D02*
X134437381Y-73122619D01*
X134437381Y-73122619D02*
X134342143Y-73265476D01*
X134342143Y-73265476D02*
X134246905Y-73360714D01*
X134246905Y-73360714D02*
X134151667Y-73408333D01*
X135342143Y-73122619D02*
X135437381Y-73122619D01*
X135437381Y-73122619D02*
X135532619Y-73170238D01*
X135532619Y-73170238D02*
X135580238Y-73217857D01*
X135580238Y-73217857D02*
X135627857Y-73313095D01*
X135627857Y-73313095D02*
X135675476Y-73503571D01*
X135675476Y-73503571D02*
X135675476Y-73741666D01*
X135675476Y-73741666D02*
X135627857Y-73932142D01*
X135627857Y-73932142D02*
X135580238Y-74027380D01*
X135580238Y-74027380D02*
X135532619Y-74075000D01*
X135532619Y-74075000D02*
X135437381Y-74122619D01*
X135437381Y-74122619D02*
X135342143Y-74122619D01*
X135342143Y-74122619D02*
X135246905Y-74075000D01*
X135246905Y-74075000D02*
X135199286Y-74027380D01*
X135199286Y-74027380D02*
X135151667Y-73932142D01*
X135151667Y-73932142D02*
X135104048Y-73741666D01*
X135104048Y-73741666D02*
X135104048Y-73503571D01*
X135104048Y-73503571D02*
X135151667Y-73313095D01*
X135151667Y-73313095D02*
X135199286Y-73217857D01*
X135199286Y-73217857D02*
X135246905Y-73170238D01*
X135246905Y-73170238D02*
X135342143Y-73122619D01*
X166560714Y-76662619D02*
X166560714Y-75662619D01*
X166560714Y-75662619D02*
X166941666Y-75662619D01*
X166941666Y-75662619D02*
X167036904Y-75710238D01*
X167036904Y-75710238D02*
X167084523Y-75757857D01*
X167084523Y-75757857D02*
X167132142Y-75853095D01*
X167132142Y-75853095D02*
X167132142Y-75995952D01*
X167132142Y-75995952D02*
X167084523Y-76091190D01*
X167084523Y-76091190D02*
X167036904Y-76138809D01*
X167036904Y-76138809D02*
X166941666Y-76186428D01*
X166941666Y-76186428D02*
X166560714Y-76186428D01*
X167894047Y-76138809D02*
X168036904Y-76186428D01*
X168036904Y-76186428D02*
X168084523Y-76234047D01*
X168084523Y-76234047D02*
X168132142Y-76329285D01*
X168132142Y-76329285D02*
X168132142Y-76472142D01*
X168132142Y-76472142D02*
X168084523Y-76567380D01*
X168084523Y-76567380D02*
X168036904Y-76615000D01*
X168036904Y-76615000D02*
X167941666Y-76662619D01*
X167941666Y-76662619D02*
X167560714Y-76662619D01*
X167560714Y-76662619D02*
X167560714Y-75662619D01*
X167560714Y-75662619D02*
X167894047Y-75662619D01*
X167894047Y-75662619D02*
X167989285Y-75710238D01*
X167989285Y-75710238D02*
X168036904Y-75757857D01*
X168036904Y-75757857D02*
X168084523Y-75853095D01*
X168084523Y-75853095D02*
X168084523Y-75948333D01*
X168084523Y-75948333D02*
X168036904Y-76043571D01*
X168036904Y-76043571D02*
X167989285Y-76091190D01*
X167989285Y-76091190D02*
X167894047Y-76138809D01*
X167894047Y-76138809D02*
X167560714Y-76138809D01*
X169084523Y-76662619D02*
X168513095Y-76662619D01*
X168798809Y-76662619D02*
X168798809Y-75662619D01*
X168798809Y-75662619D02*
X168703571Y-75805476D01*
X168703571Y-75805476D02*
X168608333Y-75900714D01*
X168608333Y-75900714D02*
X168513095Y-75948333D01*
X169703571Y-75662619D02*
X169798809Y-75662619D01*
X169798809Y-75662619D02*
X169894047Y-75710238D01*
X169894047Y-75710238D02*
X169941666Y-75757857D01*
X169941666Y-75757857D02*
X169989285Y-75853095D01*
X169989285Y-75853095D02*
X170036904Y-76043571D01*
X170036904Y-76043571D02*
X170036904Y-76281666D01*
X170036904Y-76281666D02*
X169989285Y-76472142D01*
X169989285Y-76472142D02*
X169941666Y-76567380D01*
X169941666Y-76567380D02*
X169894047Y-76615000D01*
X169894047Y-76615000D02*
X169798809Y-76662619D01*
X169798809Y-76662619D02*
X169703571Y-76662619D01*
X169703571Y-76662619D02*
X169608333Y-76615000D01*
X169608333Y-76615000D02*
X169560714Y-76567380D01*
X169560714Y-76567380D02*
X169513095Y-76472142D01*
X169513095Y-76472142D02*
X169465476Y-76281666D01*
X169465476Y-76281666D02*
X169465476Y-76043571D01*
X169465476Y-76043571D02*
X169513095Y-75853095D01*
X169513095Y-75853095D02*
X169560714Y-75757857D01*
X169560714Y-75757857D02*
X169608333Y-75710238D01*
X169608333Y-75710238D02*
X169703571Y-75662619D01*
X166560714Y-66502619D02*
X166560714Y-65502619D01*
X166560714Y-65502619D02*
X166941666Y-65502619D01*
X166941666Y-65502619D02*
X167036904Y-65550238D01*
X167036904Y-65550238D02*
X167084523Y-65597857D01*
X167084523Y-65597857D02*
X167132142Y-65693095D01*
X167132142Y-65693095D02*
X167132142Y-65835952D01*
X167132142Y-65835952D02*
X167084523Y-65931190D01*
X167084523Y-65931190D02*
X167036904Y-65978809D01*
X167036904Y-65978809D02*
X166941666Y-66026428D01*
X166941666Y-66026428D02*
X166560714Y-66026428D01*
X167894047Y-65978809D02*
X168036904Y-66026428D01*
X168036904Y-66026428D02*
X168084523Y-66074047D01*
X168084523Y-66074047D02*
X168132142Y-66169285D01*
X168132142Y-66169285D02*
X168132142Y-66312142D01*
X168132142Y-66312142D02*
X168084523Y-66407380D01*
X168084523Y-66407380D02*
X168036904Y-66455000D01*
X168036904Y-66455000D02*
X167941666Y-66502619D01*
X167941666Y-66502619D02*
X167560714Y-66502619D01*
X167560714Y-66502619D02*
X167560714Y-65502619D01*
X167560714Y-65502619D02*
X167894047Y-65502619D01*
X167894047Y-65502619D02*
X167989285Y-65550238D01*
X167989285Y-65550238D02*
X168036904Y-65597857D01*
X168036904Y-65597857D02*
X168084523Y-65693095D01*
X168084523Y-65693095D02*
X168084523Y-65788333D01*
X168084523Y-65788333D02*
X168036904Y-65883571D01*
X168036904Y-65883571D02*
X167989285Y-65931190D01*
X167989285Y-65931190D02*
X167894047Y-65978809D01*
X167894047Y-65978809D02*
X167560714Y-65978809D01*
X169084523Y-66502619D02*
X168513095Y-66502619D01*
X168798809Y-66502619D02*
X168798809Y-65502619D01*
X168798809Y-65502619D02*
X168703571Y-65645476D01*
X168703571Y-65645476D02*
X168608333Y-65740714D01*
X168608333Y-65740714D02*
X168513095Y-65788333D01*
X169941666Y-65835952D02*
X169941666Y-66502619D01*
X169703571Y-65455000D02*
X169465476Y-66169285D01*
X169465476Y-66169285D02*
X170084523Y-66169285D01*
X167036905Y-81742619D02*
X167036905Y-80742619D01*
X167036905Y-80742619D02*
X167417857Y-80742619D01*
X167417857Y-80742619D02*
X167513095Y-80790238D01*
X167513095Y-80790238D02*
X167560714Y-80837857D01*
X167560714Y-80837857D02*
X167608333Y-80933095D01*
X167608333Y-80933095D02*
X167608333Y-81075952D01*
X167608333Y-81075952D02*
X167560714Y-81171190D01*
X167560714Y-81171190D02*
X167513095Y-81218809D01*
X167513095Y-81218809D02*
X167417857Y-81266428D01*
X167417857Y-81266428D02*
X167036905Y-81266428D01*
X168370238Y-81218809D02*
X168513095Y-81266428D01*
X168513095Y-81266428D02*
X168560714Y-81314047D01*
X168560714Y-81314047D02*
X168608333Y-81409285D01*
X168608333Y-81409285D02*
X168608333Y-81552142D01*
X168608333Y-81552142D02*
X168560714Y-81647380D01*
X168560714Y-81647380D02*
X168513095Y-81695000D01*
X168513095Y-81695000D02*
X168417857Y-81742619D01*
X168417857Y-81742619D02*
X168036905Y-81742619D01*
X168036905Y-81742619D02*
X168036905Y-80742619D01*
X168036905Y-80742619D02*
X168370238Y-80742619D01*
X168370238Y-80742619D02*
X168465476Y-80790238D01*
X168465476Y-80790238D02*
X168513095Y-80837857D01*
X168513095Y-80837857D02*
X168560714Y-80933095D01*
X168560714Y-80933095D02*
X168560714Y-81028333D01*
X168560714Y-81028333D02*
X168513095Y-81123571D01*
X168513095Y-81123571D02*
X168465476Y-81171190D01*
X168465476Y-81171190D02*
X168370238Y-81218809D01*
X168370238Y-81218809D02*
X168036905Y-81218809D01*
X169560714Y-81742619D02*
X168989286Y-81742619D01*
X169275000Y-81742619D02*
X169275000Y-80742619D01*
X169275000Y-80742619D02*
X169179762Y-80885476D01*
X169179762Y-80885476D02*
X169084524Y-80980714D01*
X169084524Y-80980714D02*
X168989286Y-81028333D01*
X167108333Y-89362619D02*
X167108333Y-88362619D01*
X167108333Y-88362619D02*
X167489285Y-88362619D01*
X167489285Y-88362619D02*
X167584523Y-88410238D01*
X167584523Y-88410238D02*
X167632142Y-88457857D01*
X167632142Y-88457857D02*
X167679761Y-88553095D01*
X167679761Y-88553095D02*
X167679761Y-88695952D01*
X167679761Y-88695952D02*
X167632142Y-88791190D01*
X167632142Y-88791190D02*
X167584523Y-88838809D01*
X167584523Y-88838809D02*
X167489285Y-88886428D01*
X167489285Y-88886428D02*
X167108333Y-88886428D01*
X168060714Y-89076904D02*
X168536904Y-89076904D01*
X167965476Y-89362619D02*
X168298809Y-88362619D01*
X168298809Y-88362619D02*
X168632142Y-89362619D01*
X169394047Y-88362619D02*
X169203571Y-88362619D01*
X169203571Y-88362619D02*
X169108333Y-88410238D01*
X169108333Y-88410238D02*
X169060714Y-88457857D01*
X169060714Y-88457857D02*
X168965476Y-88600714D01*
X168965476Y-88600714D02*
X168917857Y-88791190D01*
X168917857Y-88791190D02*
X168917857Y-89172142D01*
X168917857Y-89172142D02*
X168965476Y-89267380D01*
X168965476Y-89267380D02*
X169013095Y-89315000D01*
X169013095Y-89315000D02*
X169108333Y-89362619D01*
X169108333Y-89362619D02*
X169298809Y-89362619D01*
X169298809Y-89362619D02*
X169394047Y-89315000D01*
X169394047Y-89315000D02*
X169441666Y-89267380D01*
X169441666Y-89267380D02*
X169489285Y-89172142D01*
X169489285Y-89172142D02*
X169489285Y-88934047D01*
X169489285Y-88934047D02*
X169441666Y-88838809D01*
X169441666Y-88838809D02*
X169394047Y-88791190D01*
X169394047Y-88791190D02*
X169298809Y-88743571D01*
X169298809Y-88743571D02*
X169108333Y-88743571D01*
X169108333Y-88743571D02*
X169013095Y-88791190D01*
X169013095Y-88791190D02*
X168965476Y-88838809D01*
X168965476Y-88838809D02*
X168917857Y-88934047D01*
X167108333Y-91902619D02*
X167108333Y-90902619D01*
X167108333Y-90902619D02*
X167489285Y-90902619D01*
X167489285Y-90902619D02*
X167584523Y-90950238D01*
X167584523Y-90950238D02*
X167632142Y-90997857D01*
X167632142Y-90997857D02*
X167679761Y-91093095D01*
X167679761Y-91093095D02*
X167679761Y-91235952D01*
X167679761Y-91235952D02*
X167632142Y-91331190D01*
X167632142Y-91331190D02*
X167584523Y-91378809D01*
X167584523Y-91378809D02*
X167489285Y-91426428D01*
X167489285Y-91426428D02*
X167108333Y-91426428D01*
X168060714Y-91616904D02*
X168536904Y-91616904D01*
X167965476Y-91902619D02*
X168298809Y-90902619D01*
X168298809Y-90902619D02*
X168632142Y-91902619D01*
X169441666Y-90902619D02*
X168965476Y-90902619D01*
X168965476Y-90902619D02*
X168917857Y-91378809D01*
X168917857Y-91378809D02*
X168965476Y-91331190D01*
X168965476Y-91331190D02*
X169060714Y-91283571D01*
X169060714Y-91283571D02*
X169298809Y-91283571D01*
X169298809Y-91283571D02*
X169394047Y-91331190D01*
X169394047Y-91331190D02*
X169441666Y-91378809D01*
X169441666Y-91378809D02*
X169489285Y-91474047D01*
X169489285Y-91474047D02*
X169489285Y-91712142D01*
X169489285Y-91712142D02*
X169441666Y-91807380D01*
X169441666Y-91807380D02*
X169394047Y-91855000D01*
X169394047Y-91855000D02*
X169298809Y-91902619D01*
X169298809Y-91902619D02*
X169060714Y-91902619D01*
X169060714Y-91902619D02*
X168965476Y-91855000D01*
X168965476Y-91855000D02*
X168917857Y-91807380D01*
X166560714Y-74122619D02*
X166560714Y-73122619D01*
X166560714Y-73122619D02*
X166941666Y-73122619D01*
X166941666Y-73122619D02*
X167036904Y-73170238D01*
X167036904Y-73170238D02*
X167084523Y-73217857D01*
X167084523Y-73217857D02*
X167132142Y-73313095D01*
X167132142Y-73313095D02*
X167132142Y-73455952D01*
X167132142Y-73455952D02*
X167084523Y-73551190D01*
X167084523Y-73551190D02*
X167036904Y-73598809D01*
X167036904Y-73598809D02*
X166941666Y-73646428D01*
X166941666Y-73646428D02*
X166560714Y-73646428D01*
X167894047Y-73598809D02*
X168036904Y-73646428D01*
X168036904Y-73646428D02*
X168084523Y-73694047D01*
X168084523Y-73694047D02*
X168132142Y-73789285D01*
X168132142Y-73789285D02*
X168132142Y-73932142D01*
X168132142Y-73932142D02*
X168084523Y-74027380D01*
X168084523Y-74027380D02*
X168036904Y-74075000D01*
X168036904Y-74075000D02*
X167941666Y-74122619D01*
X167941666Y-74122619D02*
X167560714Y-74122619D01*
X167560714Y-74122619D02*
X167560714Y-73122619D01*
X167560714Y-73122619D02*
X167894047Y-73122619D01*
X167894047Y-73122619D02*
X167989285Y-73170238D01*
X167989285Y-73170238D02*
X168036904Y-73217857D01*
X168036904Y-73217857D02*
X168084523Y-73313095D01*
X168084523Y-73313095D02*
X168084523Y-73408333D01*
X168084523Y-73408333D02*
X168036904Y-73503571D01*
X168036904Y-73503571D02*
X167989285Y-73551190D01*
X167989285Y-73551190D02*
X167894047Y-73598809D01*
X167894047Y-73598809D02*
X167560714Y-73598809D01*
X169084523Y-74122619D02*
X168513095Y-74122619D01*
X168798809Y-74122619D02*
X168798809Y-73122619D01*
X168798809Y-73122619D02*
X168703571Y-73265476D01*
X168703571Y-73265476D02*
X168608333Y-73360714D01*
X168608333Y-73360714D02*
X168513095Y-73408333D01*
X170036904Y-74122619D02*
X169465476Y-74122619D01*
X169751190Y-74122619D02*
X169751190Y-73122619D01*
X169751190Y-73122619D02*
X169655952Y-73265476D01*
X169655952Y-73265476D02*
X169560714Y-73360714D01*
X169560714Y-73360714D02*
X169465476Y-73408333D01*
X167108333Y-99522619D02*
X167108333Y-98522619D01*
X167108333Y-98522619D02*
X167489285Y-98522619D01*
X167489285Y-98522619D02*
X167584523Y-98570238D01*
X167584523Y-98570238D02*
X167632142Y-98617857D01*
X167632142Y-98617857D02*
X167679761Y-98713095D01*
X167679761Y-98713095D02*
X167679761Y-98855952D01*
X167679761Y-98855952D02*
X167632142Y-98951190D01*
X167632142Y-98951190D02*
X167584523Y-98998809D01*
X167584523Y-98998809D02*
X167489285Y-99046428D01*
X167489285Y-99046428D02*
X167108333Y-99046428D01*
X168060714Y-99236904D02*
X168536904Y-99236904D01*
X167965476Y-99522619D02*
X168298809Y-98522619D01*
X168298809Y-98522619D02*
X168632142Y-99522619D01*
X168917857Y-98617857D02*
X168965476Y-98570238D01*
X168965476Y-98570238D02*
X169060714Y-98522619D01*
X169060714Y-98522619D02*
X169298809Y-98522619D01*
X169298809Y-98522619D02*
X169394047Y-98570238D01*
X169394047Y-98570238D02*
X169441666Y-98617857D01*
X169441666Y-98617857D02*
X169489285Y-98713095D01*
X169489285Y-98713095D02*
X169489285Y-98808333D01*
X169489285Y-98808333D02*
X169441666Y-98951190D01*
X169441666Y-98951190D02*
X168870238Y-99522619D01*
X168870238Y-99522619D02*
X169489285Y-99522619D01*
X166560714Y-69042619D02*
X166560714Y-68042619D01*
X166560714Y-68042619D02*
X166941666Y-68042619D01*
X166941666Y-68042619D02*
X167036904Y-68090238D01*
X167036904Y-68090238D02*
X167084523Y-68137857D01*
X167084523Y-68137857D02*
X167132142Y-68233095D01*
X167132142Y-68233095D02*
X167132142Y-68375952D01*
X167132142Y-68375952D02*
X167084523Y-68471190D01*
X167084523Y-68471190D02*
X167036904Y-68518809D01*
X167036904Y-68518809D02*
X166941666Y-68566428D01*
X166941666Y-68566428D02*
X166560714Y-68566428D01*
X167894047Y-68518809D02*
X168036904Y-68566428D01*
X168036904Y-68566428D02*
X168084523Y-68614047D01*
X168084523Y-68614047D02*
X168132142Y-68709285D01*
X168132142Y-68709285D02*
X168132142Y-68852142D01*
X168132142Y-68852142D02*
X168084523Y-68947380D01*
X168084523Y-68947380D02*
X168036904Y-68995000D01*
X168036904Y-68995000D02*
X167941666Y-69042619D01*
X167941666Y-69042619D02*
X167560714Y-69042619D01*
X167560714Y-69042619D02*
X167560714Y-68042619D01*
X167560714Y-68042619D02*
X167894047Y-68042619D01*
X167894047Y-68042619D02*
X167989285Y-68090238D01*
X167989285Y-68090238D02*
X168036904Y-68137857D01*
X168036904Y-68137857D02*
X168084523Y-68233095D01*
X168084523Y-68233095D02*
X168084523Y-68328333D01*
X168084523Y-68328333D02*
X168036904Y-68423571D01*
X168036904Y-68423571D02*
X167989285Y-68471190D01*
X167989285Y-68471190D02*
X167894047Y-68518809D01*
X167894047Y-68518809D02*
X167560714Y-68518809D01*
X169084523Y-69042619D02*
X168513095Y-69042619D01*
X168798809Y-69042619D02*
X168798809Y-68042619D01*
X168798809Y-68042619D02*
X168703571Y-68185476D01*
X168703571Y-68185476D02*
X168608333Y-68280714D01*
X168608333Y-68280714D02*
X168513095Y-68328333D01*
X169417857Y-68042619D02*
X170036904Y-68042619D01*
X170036904Y-68042619D02*
X169703571Y-68423571D01*
X169703571Y-68423571D02*
X169846428Y-68423571D01*
X169846428Y-68423571D02*
X169941666Y-68471190D01*
X169941666Y-68471190D02*
X169989285Y-68518809D01*
X169989285Y-68518809D02*
X170036904Y-68614047D01*
X170036904Y-68614047D02*
X170036904Y-68852142D01*
X170036904Y-68852142D02*
X169989285Y-68947380D01*
X169989285Y-68947380D02*
X169941666Y-68995000D01*
X169941666Y-68995000D02*
X169846428Y-69042619D01*
X169846428Y-69042619D02*
X169560714Y-69042619D01*
X169560714Y-69042619D02*
X169465476Y-68995000D01*
X169465476Y-68995000D02*
X169417857Y-68947380D01*
X167108333Y-86822619D02*
X167108333Y-85822619D01*
X167108333Y-85822619D02*
X167489285Y-85822619D01*
X167489285Y-85822619D02*
X167584523Y-85870238D01*
X167584523Y-85870238D02*
X167632142Y-85917857D01*
X167632142Y-85917857D02*
X167679761Y-86013095D01*
X167679761Y-86013095D02*
X167679761Y-86155952D01*
X167679761Y-86155952D02*
X167632142Y-86251190D01*
X167632142Y-86251190D02*
X167584523Y-86298809D01*
X167584523Y-86298809D02*
X167489285Y-86346428D01*
X167489285Y-86346428D02*
X167108333Y-86346428D01*
X168060714Y-86536904D02*
X168536904Y-86536904D01*
X167965476Y-86822619D02*
X168298809Y-85822619D01*
X168298809Y-85822619D02*
X168632142Y-86822619D01*
X168870238Y-85822619D02*
X169536904Y-85822619D01*
X169536904Y-85822619D02*
X169108333Y-86822619D01*
X167108333Y-102062619D02*
X167108333Y-101062619D01*
X167108333Y-101062619D02*
X167489285Y-101062619D01*
X167489285Y-101062619D02*
X167584523Y-101110238D01*
X167584523Y-101110238D02*
X167632142Y-101157857D01*
X167632142Y-101157857D02*
X167679761Y-101253095D01*
X167679761Y-101253095D02*
X167679761Y-101395952D01*
X167679761Y-101395952D02*
X167632142Y-101491190D01*
X167632142Y-101491190D02*
X167584523Y-101538809D01*
X167584523Y-101538809D02*
X167489285Y-101586428D01*
X167489285Y-101586428D02*
X167108333Y-101586428D01*
X168060714Y-101776904D02*
X168536904Y-101776904D01*
X167965476Y-102062619D02*
X168298809Y-101062619D01*
X168298809Y-101062619D02*
X168632142Y-102062619D01*
X169489285Y-102062619D02*
X168917857Y-102062619D01*
X169203571Y-102062619D02*
X169203571Y-101062619D01*
X169203571Y-101062619D02*
X169108333Y-101205476D01*
X169108333Y-101205476D02*
X169013095Y-101300714D01*
X169013095Y-101300714D02*
X168917857Y-101348333D01*
X167036905Y-79202619D02*
X167036905Y-78202619D01*
X167036905Y-78202619D02*
X167417857Y-78202619D01*
X167417857Y-78202619D02*
X167513095Y-78250238D01*
X167513095Y-78250238D02*
X167560714Y-78297857D01*
X167560714Y-78297857D02*
X167608333Y-78393095D01*
X167608333Y-78393095D02*
X167608333Y-78535952D01*
X167608333Y-78535952D02*
X167560714Y-78631190D01*
X167560714Y-78631190D02*
X167513095Y-78678809D01*
X167513095Y-78678809D02*
X167417857Y-78726428D01*
X167417857Y-78726428D02*
X167036905Y-78726428D01*
X168370238Y-78678809D02*
X168513095Y-78726428D01*
X168513095Y-78726428D02*
X168560714Y-78774047D01*
X168560714Y-78774047D02*
X168608333Y-78869285D01*
X168608333Y-78869285D02*
X168608333Y-79012142D01*
X168608333Y-79012142D02*
X168560714Y-79107380D01*
X168560714Y-79107380D02*
X168513095Y-79155000D01*
X168513095Y-79155000D02*
X168417857Y-79202619D01*
X168417857Y-79202619D02*
X168036905Y-79202619D01*
X168036905Y-79202619D02*
X168036905Y-78202619D01*
X168036905Y-78202619D02*
X168370238Y-78202619D01*
X168370238Y-78202619D02*
X168465476Y-78250238D01*
X168465476Y-78250238D02*
X168513095Y-78297857D01*
X168513095Y-78297857D02*
X168560714Y-78393095D01*
X168560714Y-78393095D02*
X168560714Y-78488333D01*
X168560714Y-78488333D02*
X168513095Y-78583571D01*
X168513095Y-78583571D02*
X168465476Y-78631190D01*
X168465476Y-78631190D02*
X168370238Y-78678809D01*
X168370238Y-78678809D02*
X168036905Y-78678809D01*
X168989286Y-78297857D02*
X169036905Y-78250238D01*
X169036905Y-78250238D02*
X169132143Y-78202619D01*
X169132143Y-78202619D02*
X169370238Y-78202619D01*
X169370238Y-78202619D02*
X169465476Y-78250238D01*
X169465476Y-78250238D02*
X169513095Y-78297857D01*
X169513095Y-78297857D02*
X169560714Y-78393095D01*
X169560714Y-78393095D02*
X169560714Y-78488333D01*
X169560714Y-78488333D02*
X169513095Y-78631190D01*
X169513095Y-78631190D02*
X168941667Y-79202619D01*
X168941667Y-79202619D02*
X169560714Y-79202619D01*
X167108333Y-94442619D02*
X167108333Y-93442619D01*
X167108333Y-93442619D02*
X167489285Y-93442619D01*
X167489285Y-93442619D02*
X167584523Y-93490238D01*
X167584523Y-93490238D02*
X167632142Y-93537857D01*
X167632142Y-93537857D02*
X167679761Y-93633095D01*
X167679761Y-93633095D02*
X167679761Y-93775952D01*
X167679761Y-93775952D02*
X167632142Y-93871190D01*
X167632142Y-93871190D02*
X167584523Y-93918809D01*
X167584523Y-93918809D02*
X167489285Y-93966428D01*
X167489285Y-93966428D02*
X167108333Y-93966428D01*
X168060714Y-94156904D02*
X168536904Y-94156904D01*
X167965476Y-94442619D02*
X168298809Y-93442619D01*
X168298809Y-93442619D02*
X168632142Y-94442619D01*
X169394047Y-93775952D02*
X169394047Y-94442619D01*
X169155952Y-93395000D02*
X168917857Y-94109285D01*
X168917857Y-94109285D02*
X169536904Y-94109285D01*
X167108333Y-96982619D02*
X167108333Y-95982619D01*
X167108333Y-95982619D02*
X167489285Y-95982619D01*
X167489285Y-95982619D02*
X167584523Y-96030238D01*
X167584523Y-96030238D02*
X167632142Y-96077857D01*
X167632142Y-96077857D02*
X167679761Y-96173095D01*
X167679761Y-96173095D02*
X167679761Y-96315952D01*
X167679761Y-96315952D02*
X167632142Y-96411190D01*
X167632142Y-96411190D02*
X167584523Y-96458809D01*
X167584523Y-96458809D02*
X167489285Y-96506428D01*
X167489285Y-96506428D02*
X167108333Y-96506428D01*
X168060714Y-96696904D02*
X168536904Y-96696904D01*
X167965476Y-96982619D02*
X168298809Y-95982619D01*
X168298809Y-95982619D02*
X168632142Y-96982619D01*
X168870238Y-95982619D02*
X169489285Y-95982619D01*
X169489285Y-95982619D02*
X169155952Y-96363571D01*
X169155952Y-96363571D02*
X169298809Y-96363571D01*
X169298809Y-96363571D02*
X169394047Y-96411190D01*
X169394047Y-96411190D02*
X169441666Y-96458809D01*
X169441666Y-96458809D02*
X169489285Y-96554047D01*
X169489285Y-96554047D02*
X169489285Y-96792142D01*
X169489285Y-96792142D02*
X169441666Y-96887380D01*
X169441666Y-96887380D02*
X169394047Y-96935000D01*
X169394047Y-96935000D02*
X169298809Y-96982619D01*
X169298809Y-96982619D02*
X169013095Y-96982619D01*
X169013095Y-96982619D02*
X168917857Y-96935000D01*
X168917857Y-96935000D02*
X168870238Y-96887380D01*
X166560714Y-71582619D02*
X166560714Y-70582619D01*
X166560714Y-70582619D02*
X166941666Y-70582619D01*
X166941666Y-70582619D02*
X167036904Y-70630238D01*
X167036904Y-70630238D02*
X167084523Y-70677857D01*
X167084523Y-70677857D02*
X167132142Y-70773095D01*
X167132142Y-70773095D02*
X167132142Y-70915952D01*
X167132142Y-70915952D02*
X167084523Y-71011190D01*
X167084523Y-71011190D02*
X167036904Y-71058809D01*
X167036904Y-71058809D02*
X166941666Y-71106428D01*
X166941666Y-71106428D02*
X166560714Y-71106428D01*
X167894047Y-71058809D02*
X168036904Y-71106428D01*
X168036904Y-71106428D02*
X168084523Y-71154047D01*
X168084523Y-71154047D02*
X168132142Y-71249285D01*
X168132142Y-71249285D02*
X168132142Y-71392142D01*
X168132142Y-71392142D02*
X168084523Y-71487380D01*
X168084523Y-71487380D02*
X168036904Y-71535000D01*
X168036904Y-71535000D02*
X167941666Y-71582619D01*
X167941666Y-71582619D02*
X167560714Y-71582619D01*
X167560714Y-71582619D02*
X167560714Y-70582619D01*
X167560714Y-70582619D02*
X167894047Y-70582619D01*
X167894047Y-70582619D02*
X167989285Y-70630238D01*
X167989285Y-70630238D02*
X168036904Y-70677857D01*
X168036904Y-70677857D02*
X168084523Y-70773095D01*
X168084523Y-70773095D02*
X168084523Y-70868333D01*
X168084523Y-70868333D02*
X168036904Y-70963571D01*
X168036904Y-70963571D02*
X167989285Y-71011190D01*
X167989285Y-71011190D02*
X167894047Y-71058809D01*
X167894047Y-71058809D02*
X167560714Y-71058809D01*
X169084523Y-71582619D02*
X168513095Y-71582619D01*
X168798809Y-71582619D02*
X168798809Y-70582619D01*
X168798809Y-70582619D02*
X168703571Y-70725476D01*
X168703571Y-70725476D02*
X168608333Y-70820714D01*
X168608333Y-70820714D02*
X168513095Y-70868333D01*
X169465476Y-70677857D02*
X169513095Y-70630238D01*
X169513095Y-70630238D02*
X169608333Y-70582619D01*
X169608333Y-70582619D02*
X169846428Y-70582619D01*
X169846428Y-70582619D02*
X169941666Y-70630238D01*
X169941666Y-70630238D02*
X169989285Y-70677857D01*
X169989285Y-70677857D02*
X170036904Y-70773095D01*
X170036904Y-70773095D02*
X170036904Y-70868333D01*
X170036904Y-70868333D02*
X169989285Y-71011190D01*
X169989285Y-71011190D02*
X169417857Y-71582619D01*
X169417857Y-71582619D02*
X170036904Y-71582619D01*
X167036905Y-84282619D02*
X167036905Y-83282619D01*
X167036905Y-83282619D02*
X167417857Y-83282619D01*
X167417857Y-83282619D02*
X167513095Y-83330238D01*
X167513095Y-83330238D02*
X167560714Y-83377857D01*
X167560714Y-83377857D02*
X167608333Y-83473095D01*
X167608333Y-83473095D02*
X167608333Y-83615952D01*
X167608333Y-83615952D02*
X167560714Y-83711190D01*
X167560714Y-83711190D02*
X167513095Y-83758809D01*
X167513095Y-83758809D02*
X167417857Y-83806428D01*
X167417857Y-83806428D02*
X167036905Y-83806428D01*
X168370238Y-83758809D02*
X168513095Y-83806428D01*
X168513095Y-83806428D02*
X168560714Y-83854047D01*
X168560714Y-83854047D02*
X168608333Y-83949285D01*
X168608333Y-83949285D02*
X168608333Y-84092142D01*
X168608333Y-84092142D02*
X168560714Y-84187380D01*
X168560714Y-84187380D02*
X168513095Y-84235000D01*
X168513095Y-84235000D02*
X168417857Y-84282619D01*
X168417857Y-84282619D02*
X168036905Y-84282619D01*
X168036905Y-84282619D02*
X168036905Y-83282619D01*
X168036905Y-83282619D02*
X168370238Y-83282619D01*
X168370238Y-83282619D02*
X168465476Y-83330238D01*
X168465476Y-83330238D02*
X168513095Y-83377857D01*
X168513095Y-83377857D02*
X168560714Y-83473095D01*
X168560714Y-83473095D02*
X168560714Y-83568333D01*
X168560714Y-83568333D02*
X168513095Y-83663571D01*
X168513095Y-83663571D02*
X168465476Y-83711190D01*
X168465476Y-83711190D02*
X168370238Y-83758809D01*
X168370238Y-83758809D02*
X168036905Y-83758809D01*
X169227381Y-83282619D02*
X169322619Y-83282619D01*
X169322619Y-83282619D02*
X169417857Y-83330238D01*
X169417857Y-83330238D02*
X169465476Y-83377857D01*
X169465476Y-83377857D02*
X169513095Y-83473095D01*
X169513095Y-83473095D02*
X169560714Y-83663571D01*
X169560714Y-83663571D02*
X169560714Y-83901666D01*
X169560714Y-83901666D02*
X169513095Y-84092142D01*
X169513095Y-84092142D02*
X169465476Y-84187380D01*
X169465476Y-84187380D02*
X169417857Y-84235000D01*
X169417857Y-84235000D02*
X169322619Y-84282619D01*
X169322619Y-84282619D02*
X169227381Y-84282619D01*
X169227381Y-84282619D02*
X169132143Y-84235000D01*
X169132143Y-84235000D02*
X169084524Y-84187380D01*
X169084524Y-84187380D02*
X169036905Y-84092142D01*
X169036905Y-84092142D02*
X168989286Y-83901666D01*
X168989286Y-83901666D02*
X168989286Y-83663571D01*
X168989286Y-83663571D02*
X169036905Y-83473095D01*
X169036905Y-83473095D02*
X169084524Y-83377857D01*
X169084524Y-83377857D02*
X169132143Y-83330238D01*
X169132143Y-83330238D02*
X169227381Y-83282619D01*
X167108333Y-104602619D02*
X167108333Y-103602619D01*
X167108333Y-103602619D02*
X167489285Y-103602619D01*
X167489285Y-103602619D02*
X167584523Y-103650238D01*
X167584523Y-103650238D02*
X167632142Y-103697857D01*
X167632142Y-103697857D02*
X167679761Y-103793095D01*
X167679761Y-103793095D02*
X167679761Y-103935952D01*
X167679761Y-103935952D02*
X167632142Y-104031190D01*
X167632142Y-104031190D02*
X167584523Y-104078809D01*
X167584523Y-104078809D02*
X167489285Y-104126428D01*
X167489285Y-104126428D02*
X167108333Y-104126428D01*
X168060714Y-104316904D02*
X168536904Y-104316904D01*
X167965476Y-104602619D02*
X168298809Y-103602619D01*
X168298809Y-103602619D02*
X168632142Y-104602619D01*
X169155952Y-103602619D02*
X169251190Y-103602619D01*
X169251190Y-103602619D02*
X169346428Y-103650238D01*
X169346428Y-103650238D02*
X169394047Y-103697857D01*
X169394047Y-103697857D02*
X169441666Y-103793095D01*
X169441666Y-103793095D02*
X169489285Y-103983571D01*
X169489285Y-103983571D02*
X169489285Y-104221666D01*
X169489285Y-104221666D02*
X169441666Y-104412142D01*
X169441666Y-104412142D02*
X169394047Y-104507380D01*
X169394047Y-104507380D02*
X169346428Y-104555000D01*
X169346428Y-104555000D02*
X169251190Y-104602619D01*
X169251190Y-104602619D02*
X169155952Y-104602619D01*
X169155952Y-104602619D02*
X169060714Y-104555000D01*
X169060714Y-104555000D02*
X169013095Y-104507380D01*
X169013095Y-104507380D02*
X168965476Y-104412142D01*
X168965476Y-104412142D02*
X168917857Y-104221666D01*
X168917857Y-104221666D02*
X168917857Y-103983571D01*
X168917857Y-103983571D02*
X168965476Y-103793095D01*
X168965476Y-103793095D02*
X169013095Y-103697857D01*
X169013095Y-103697857D02*
X169060714Y-103650238D01*
X169060714Y-103650238D02*
X169155952Y-103602619D01*
X166941667Y-62962619D02*
X167275000Y-63962619D01*
X167275000Y-63962619D02*
X167608333Y-62962619D01*
X167941667Y-63962619D02*
X167941667Y-62962619D01*
X167941667Y-62962619D02*
X168179762Y-62962619D01*
X168179762Y-62962619D02*
X168322619Y-63010238D01*
X168322619Y-63010238D02*
X168417857Y-63105476D01*
X168417857Y-63105476D02*
X168465476Y-63200714D01*
X168465476Y-63200714D02*
X168513095Y-63391190D01*
X168513095Y-63391190D02*
X168513095Y-63534047D01*
X168513095Y-63534047D02*
X168465476Y-63724523D01*
X168465476Y-63724523D02*
X168417857Y-63819761D01*
X168417857Y-63819761D02*
X168322619Y-63915000D01*
X168322619Y-63915000D02*
X168179762Y-63962619D01*
X168179762Y-63962619D02*
X167941667Y-63962619D01*
X168941667Y-63962619D02*
X168941667Y-62962619D01*
X168941667Y-62962619D02*
X169179762Y-62962619D01*
X169179762Y-62962619D02*
X169322619Y-63010238D01*
X169322619Y-63010238D02*
X169417857Y-63105476D01*
X169417857Y-63105476D02*
X169465476Y-63200714D01*
X169465476Y-63200714D02*
X169513095Y-63391190D01*
X169513095Y-63391190D02*
X169513095Y-63534047D01*
X169513095Y-63534047D02*
X169465476Y-63724523D01*
X169465476Y-63724523D02*
X169417857Y-63819761D01*
X169417857Y-63819761D02*
X169322619Y-63915000D01*
X169322619Y-63915000D02*
X169179762Y-63962619D01*
X169179762Y-63962619D02*
X168941667Y-63962619D01*
X166941667Y-60422619D02*
X167275000Y-61422619D01*
X167275000Y-61422619D02*
X167608333Y-60422619D01*
X167941667Y-61422619D02*
X167941667Y-60422619D01*
X167941667Y-60422619D02*
X168179762Y-60422619D01*
X168179762Y-60422619D02*
X168322619Y-60470238D01*
X168322619Y-60470238D02*
X168417857Y-60565476D01*
X168417857Y-60565476D02*
X168465476Y-60660714D01*
X168465476Y-60660714D02*
X168513095Y-60851190D01*
X168513095Y-60851190D02*
X168513095Y-60994047D01*
X168513095Y-60994047D02*
X168465476Y-61184523D01*
X168465476Y-61184523D02*
X168417857Y-61279761D01*
X168417857Y-61279761D02*
X168322619Y-61375000D01*
X168322619Y-61375000D02*
X168179762Y-61422619D01*
X168179762Y-61422619D02*
X167941667Y-61422619D01*
X168941667Y-61422619D02*
X168941667Y-60422619D01*
X168941667Y-60422619D02*
X169179762Y-60422619D01*
X169179762Y-60422619D02*
X169322619Y-60470238D01*
X169322619Y-60470238D02*
X169417857Y-60565476D01*
X169417857Y-60565476D02*
X169465476Y-60660714D01*
X169465476Y-60660714D02*
X169513095Y-60851190D01*
X169513095Y-60851190D02*
X169513095Y-60994047D01*
X169513095Y-60994047D02*
X169465476Y-61184523D01*
X169465476Y-61184523D02*
X169417857Y-61279761D01*
X169417857Y-61279761D02*
X169322619Y-61375000D01*
X169322619Y-61375000D02*
X169179762Y-61422619D01*
X169179762Y-61422619D02*
X168941667Y-61422619D01*
X167513095Y-57930238D02*
X167417857Y-57882619D01*
X167417857Y-57882619D02*
X167275000Y-57882619D01*
X167275000Y-57882619D02*
X167132143Y-57930238D01*
X167132143Y-57930238D02*
X167036905Y-58025476D01*
X167036905Y-58025476D02*
X166989286Y-58120714D01*
X166989286Y-58120714D02*
X166941667Y-58311190D01*
X166941667Y-58311190D02*
X166941667Y-58454047D01*
X166941667Y-58454047D02*
X166989286Y-58644523D01*
X166989286Y-58644523D02*
X167036905Y-58739761D01*
X167036905Y-58739761D02*
X167132143Y-58835000D01*
X167132143Y-58835000D02*
X167275000Y-58882619D01*
X167275000Y-58882619D02*
X167370238Y-58882619D01*
X167370238Y-58882619D02*
X167513095Y-58835000D01*
X167513095Y-58835000D02*
X167560714Y-58787380D01*
X167560714Y-58787380D02*
X167560714Y-58454047D01*
X167560714Y-58454047D02*
X167370238Y-58454047D01*
X167989286Y-58882619D02*
X167989286Y-57882619D01*
X167989286Y-57882619D02*
X168560714Y-58882619D01*
X168560714Y-58882619D02*
X168560714Y-57882619D01*
X169036905Y-58882619D02*
X169036905Y-57882619D01*
X169036905Y-57882619D02*
X169275000Y-57882619D01*
X169275000Y-57882619D02*
X169417857Y-57930238D01*
X169417857Y-57930238D02*
X169513095Y-58025476D01*
X169513095Y-58025476D02*
X169560714Y-58120714D01*
X169560714Y-58120714D02*
X169608333Y-58311190D01*
X169608333Y-58311190D02*
X169608333Y-58454047D01*
X169608333Y-58454047D02*
X169560714Y-58644523D01*
X169560714Y-58644523D02*
X169513095Y-58739761D01*
X169513095Y-58739761D02*
X169417857Y-58835000D01*
X169417857Y-58835000D02*
X169275000Y-58882619D01*
X169275000Y-58882619D02*
X169036905Y-58882619D01*
X167513095Y-55390238D02*
X167417857Y-55342619D01*
X167417857Y-55342619D02*
X167275000Y-55342619D01*
X167275000Y-55342619D02*
X167132143Y-55390238D01*
X167132143Y-55390238D02*
X167036905Y-55485476D01*
X167036905Y-55485476D02*
X166989286Y-55580714D01*
X166989286Y-55580714D02*
X166941667Y-55771190D01*
X166941667Y-55771190D02*
X166941667Y-55914047D01*
X166941667Y-55914047D02*
X166989286Y-56104523D01*
X166989286Y-56104523D02*
X167036905Y-56199761D01*
X167036905Y-56199761D02*
X167132143Y-56295000D01*
X167132143Y-56295000D02*
X167275000Y-56342619D01*
X167275000Y-56342619D02*
X167370238Y-56342619D01*
X167370238Y-56342619D02*
X167513095Y-56295000D01*
X167513095Y-56295000D02*
X167560714Y-56247380D01*
X167560714Y-56247380D02*
X167560714Y-55914047D01*
X167560714Y-55914047D02*
X167370238Y-55914047D01*
X167989286Y-56342619D02*
X167989286Y-55342619D01*
X167989286Y-55342619D02*
X168560714Y-56342619D01*
X168560714Y-56342619D02*
X168560714Y-55342619D01*
X169036905Y-56342619D02*
X169036905Y-55342619D01*
X169036905Y-55342619D02*
X169275000Y-55342619D01*
X169275000Y-55342619D02*
X169417857Y-55390238D01*
X169417857Y-55390238D02*
X169513095Y-55485476D01*
X169513095Y-55485476D02*
X169560714Y-55580714D01*
X169560714Y-55580714D02*
X169608333Y-55771190D01*
X169608333Y-55771190D02*
X169608333Y-55914047D01*
X169608333Y-55914047D02*
X169560714Y-56104523D01*
X169560714Y-56104523D02*
X169513095Y-56199761D01*
X169513095Y-56199761D02*
X169417857Y-56295000D01*
X169417857Y-56295000D02*
X169275000Y-56342619D01*
X169275000Y-56342619D02*
X169036905Y-56342619D01*
X132651667Y-62962619D02*
X132985000Y-63962619D01*
X132985000Y-63962619D02*
X133318333Y-62962619D01*
X133651667Y-63962619D02*
X133651667Y-62962619D01*
X133651667Y-62962619D02*
X133889762Y-62962619D01*
X133889762Y-62962619D02*
X134032619Y-63010238D01*
X134032619Y-63010238D02*
X134127857Y-63105476D01*
X134127857Y-63105476D02*
X134175476Y-63200714D01*
X134175476Y-63200714D02*
X134223095Y-63391190D01*
X134223095Y-63391190D02*
X134223095Y-63534047D01*
X134223095Y-63534047D02*
X134175476Y-63724523D01*
X134175476Y-63724523D02*
X134127857Y-63819761D01*
X134127857Y-63819761D02*
X134032619Y-63915000D01*
X134032619Y-63915000D02*
X133889762Y-63962619D01*
X133889762Y-63962619D02*
X133651667Y-63962619D01*
X134651667Y-63962619D02*
X134651667Y-62962619D01*
X134651667Y-62962619D02*
X134889762Y-62962619D01*
X134889762Y-62962619D02*
X135032619Y-63010238D01*
X135032619Y-63010238D02*
X135127857Y-63105476D01*
X135127857Y-63105476D02*
X135175476Y-63200714D01*
X135175476Y-63200714D02*
X135223095Y-63391190D01*
X135223095Y-63391190D02*
X135223095Y-63534047D01*
X135223095Y-63534047D02*
X135175476Y-63724523D01*
X135175476Y-63724523D02*
X135127857Y-63819761D01*
X135127857Y-63819761D02*
X135032619Y-63915000D01*
X135032619Y-63915000D02*
X134889762Y-63962619D01*
X134889762Y-63962619D02*
X134651667Y-63962619D01*
X133223095Y-57930238D02*
X133127857Y-57882619D01*
X133127857Y-57882619D02*
X132985000Y-57882619D01*
X132985000Y-57882619D02*
X132842143Y-57930238D01*
X132842143Y-57930238D02*
X132746905Y-58025476D01*
X132746905Y-58025476D02*
X132699286Y-58120714D01*
X132699286Y-58120714D02*
X132651667Y-58311190D01*
X132651667Y-58311190D02*
X132651667Y-58454047D01*
X132651667Y-58454047D02*
X132699286Y-58644523D01*
X132699286Y-58644523D02*
X132746905Y-58739761D01*
X132746905Y-58739761D02*
X132842143Y-58835000D01*
X132842143Y-58835000D02*
X132985000Y-58882619D01*
X132985000Y-58882619D02*
X133080238Y-58882619D01*
X133080238Y-58882619D02*
X133223095Y-58835000D01*
X133223095Y-58835000D02*
X133270714Y-58787380D01*
X133270714Y-58787380D02*
X133270714Y-58454047D01*
X133270714Y-58454047D02*
X133080238Y-58454047D01*
X133699286Y-58882619D02*
X133699286Y-57882619D01*
X133699286Y-57882619D02*
X134270714Y-58882619D01*
X134270714Y-58882619D02*
X134270714Y-57882619D01*
X134746905Y-58882619D02*
X134746905Y-57882619D01*
X134746905Y-57882619D02*
X134985000Y-57882619D01*
X134985000Y-57882619D02*
X135127857Y-57930238D01*
X135127857Y-57930238D02*
X135223095Y-58025476D01*
X135223095Y-58025476D02*
X135270714Y-58120714D01*
X135270714Y-58120714D02*
X135318333Y-58311190D01*
X135318333Y-58311190D02*
X135318333Y-58454047D01*
X135318333Y-58454047D02*
X135270714Y-58644523D01*
X135270714Y-58644523D02*
X135223095Y-58739761D01*
X135223095Y-58739761D02*
X135127857Y-58835000D01*
X135127857Y-58835000D02*
X134985000Y-58882619D01*
X134985000Y-58882619D02*
X134746905Y-58882619D01*
X133223095Y-55390238D02*
X133127857Y-55342619D01*
X133127857Y-55342619D02*
X132985000Y-55342619D01*
X132985000Y-55342619D02*
X132842143Y-55390238D01*
X132842143Y-55390238D02*
X132746905Y-55485476D01*
X132746905Y-55485476D02*
X132699286Y-55580714D01*
X132699286Y-55580714D02*
X132651667Y-55771190D01*
X132651667Y-55771190D02*
X132651667Y-55914047D01*
X132651667Y-55914047D02*
X132699286Y-56104523D01*
X132699286Y-56104523D02*
X132746905Y-56199761D01*
X132746905Y-56199761D02*
X132842143Y-56295000D01*
X132842143Y-56295000D02*
X132985000Y-56342619D01*
X132985000Y-56342619D02*
X133080238Y-56342619D01*
X133080238Y-56342619D02*
X133223095Y-56295000D01*
X133223095Y-56295000D02*
X133270714Y-56247380D01*
X133270714Y-56247380D02*
X133270714Y-55914047D01*
X133270714Y-55914047D02*
X133080238Y-55914047D01*
X133699286Y-56342619D02*
X133699286Y-55342619D01*
X133699286Y-55342619D02*
X134270714Y-56342619D01*
X134270714Y-56342619D02*
X134270714Y-55342619D01*
X134746905Y-56342619D02*
X134746905Y-55342619D01*
X134746905Y-55342619D02*
X134985000Y-55342619D01*
X134985000Y-55342619D02*
X135127857Y-55390238D01*
X135127857Y-55390238D02*
X135223095Y-55485476D01*
X135223095Y-55485476D02*
X135270714Y-55580714D01*
X135270714Y-55580714D02*
X135318333Y-55771190D01*
X135318333Y-55771190D02*
X135318333Y-55914047D01*
X135318333Y-55914047D02*
X135270714Y-56104523D01*
X135270714Y-56104523D02*
X135223095Y-56199761D01*
X135223095Y-56199761D02*
X135127857Y-56295000D01*
X135127857Y-56295000D02*
X134985000Y-56342619D01*
X134985000Y-56342619D02*
X134746905Y-56342619D01*
X132651667Y-60422619D02*
X132985000Y-61422619D01*
X132985000Y-61422619D02*
X133318333Y-60422619D01*
X133651667Y-61422619D02*
X133651667Y-60422619D01*
X133651667Y-60422619D02*
X133889762Y-60422619D01*
X133889762Y-60422619D02*
X134032619Y-60470238D01*
X134032619Y-60470238D02*
X134127857Y-60565476D01*
X134127857Y-60565476D02*
X134175476Y-60660714D01*
X134175476Y-60660714D02*
X134223095Y-60851190D01*
X134223095Y-60851190D02*
X134223095Y-60994047D01*
X134223095Y-60994047D02*
X134175476Y-61184523D01*
X134175476Y-61184523D02*
X134127857Y-61279761D01*
X134127857Y-61279761D02*
X134032619Y-61375000D01*
X134032619Y-61375000D02*
X133889762Y-61422619D01*
X133889762Y-61422619D02*
X133651667Y-61422619D01*
X134651667Y-61422619D02*
X134651667Y-60422619D01*
X134651667Y-60422619D02*
X134889762Y-60422619D01*
X134889762Y-60422619D02*
X135032619Y-60470238D01*
X135032619Y-60470238D02*
X135127857Y-60565476D01*
X135127857Y-60565476D02*
X135175476Y-60660714D01*
X135175476Y-60660714D02*
X135223095Y-60851190D01*
X135223095Y-60851190D02*
X135223095Y-60994047D01*
X135223095Y-60994047D02*
X135175476Y-61184523D01*
X135175476Y-61184523D02*
X135127857Y-61279761D01*
X135127857Y-61279761D02*
X135032619Y-61375000D01*
X135032619Y-61375000D02*
X134889762Y-61422619D01*
X134889762Y-61422619D02*
X134651667Y-61422619D01*
X140237380Y-66484523D02*
X140237380Y-66008333D01*
X140237380Y-66008333D02*
X139761190Y-65960714D01*
X139761190Y-65960714D02*
X139808809Y-66008333D01*
X139808809Y-66008333D02*
X139856428Y-66103571D01*
X139856428Y-66103571D02*
X139856428Y-66341666D01*
X139856428Y-66341666D02*
X139808809Y-66436904D01*
X139808809Y-66436904D02*
X139761190Y-66484523D01*
X139761190Y-66484523D02*
X139665952Y-66532142D01*
X139665952Y-66532142D02*
X139427857Y-66532142D01*
X139427857Y-66532142D02*
X139332619Y-66484523D01*
X139332619Y-66484523D02*
X139285000Y-66436904D01*
X139285000Y-66436904D02*
X139237380Y-66341666D01*
X139237380Y-66341666D02*
X139237380Y-66103571D01*
X139237380Y-66103571D02*
X139285000Y-66008333D01*
X139285000Y-66008333D02*
X139332619Y-65960714D01*
X140237380Y-66817857D02*
X139237380Y-67151190D01*
X139237380Y-67151190D02*
X140237380Y-67484523D01*
X163097380Y-65032143D02*
X162097380Y-65365476D01*
X162097380Y-65365476D02*
X163097380Y-65698809D01*
X162621190Y-66365476D02*
X162573571Y-66508333D01*
X162573571Y-66508333D02*
X162525952Y-66555952D01*
X162525952Y-66555952D02*
X162430714Y-66603571D01*
X162430714Y-66603571D02*
X162287857Y-66603571D01*
X162287857Y-66603571D02*
X162192619Y-66555952D01*
X162192619Y-66555952D02*
X162145000Y-66508333D01*
X162145000Y-66508333D02*
X162097380Y-66413095D01*
X162097380Y-66413095D02*
X162097380Y-66032143D01*
X162097380Y-66032143D02*
X163097380Y-66032143D01*
X163097380Y-66032143D02*
X163097380Y-66365476D01*
X163097380Y-66365476D02*
X163049761Y-66460714D01*
X163049761Y-66460714D02*
X163002142Y-66508333D01*
X163002142Y-66508333D02*
X162906904Y-66555952D01*
X162906904Y-66555952D02*
X162811666Y-66555952D01*
X162811666Y-66555952D02*
X162716428Y-66508333D01*
X162716428Y-66508333D02*
X162668809Y-66460714D01*
X162668809Y-66460714D02*
X162621190Y-66365476D01*
X162621190Y-66365476D02*
X162621190Y-66032143D01*
X162383095Y-66984524D02*
X162383095Y-67460714D01*
X162097380Y-66889286D02*
X163097380Y-67222619D01*
X163097380Y-67222619D02*
X162097380Y-67555952D01*
X163097380Y-67746429D02*
X163097380Y-68317857D01*
X162097380Y-68032143D02*
X163097380Y-68032143D01*
X132746905Y-104602619D02*
X132746905Y-103602619D01*
X132746905Y-103602619D02*
X133127857Y-103602619D01*
X133127857Y-103602619D02*
X133223095Y-103650238D01*
X133223095Y-103650238D02*
X133270714Y-103697857D01*
X133270714Y-103697857D02*
X133318333Y-103793095D01*
X133318333Y-103793095D02*
X133318333Y-103935952D01*
X133318333Y-103935952D02*
X133270714Y-104031190D01*
X133270714Y-104031190D02*
X133223095Y-104078809D01*
X133223095Y-104078809D02*
X133127857Y-104126428D01*
X133127857Y-104126428D02*
X132746905Y-104126428D01*
X134080238Y-104078809D02*
X134223095Y-104126428D01*
X134223095Y-104126428D02*
X134270714Y-104174047D01*
X134270714Y-104174047D02*
X134318333Y-104269285D01*
X134318333Y-104269285D02*
X134318333Y-104412142D01*
X134318333Y-104412142D02*
X134270714Y-104507380D01*
X134270714Y-104507380D02*
X134223095Y-104555000D01*
X134223095Y-104555000D02*
X134127857Y-104602619D01*
X134127857Y-104602619D02*
X133746905Y-104602619D01*
X133746905Y-104602619D02*
X133746905Y-103602619D01*
X133746905Y-103602619D02*
X134080238Y-103602619D01*
X134080238Y-103602619D02*
X134175476Y-103650238D01*
X134175476Y-103650238D02*
X134223095Y-103697857D01*
X134223095Y-103697857D02*
X134270714Y-103793095D01*
X134270714Y-103793095D02*
X134270714Y-103888333D01*
X134270714Y-103888333D02*
X134223095Y-103983571D01*
X134223095Y-103983571D02*
X134175476Y-104031190D01*
X134175476Y-104031190D02*
X134080238Y-104078809D01*
X134080238Y-104078809D02*
X133746905Y-104078809D01*
X134794524Y-104602619D02*
X134985000Y-104602619D01*
X134985000Y-104602619D02*
X135080238Y-104555000D01*
X135080238Y-104555000D02*
X135127857Y-104507380D01*
X135127857Y-104507380D02*
X135223095Y-104364523D01*
X135223095Y-104364523D02*
X135270714Y-104174047D01*
X135270714Y-104174047D02*
X135270714Y-103793095D01*
X135270714Y-103793095D02*
X135223095Y-103697857D01*
X135223095Y-103697857D02*
X135175476Y-103650238D01*
X135175476Y-103650238D02*
X135080238Y-103602619D01*
X135080238Y-103602619D02*
X134889762Y-103602619D01*
X134889762Y-103602619D02*
X134794524Y-103650238D01*
X134794524Y-103650238D02*
X134746905Y-103697857D01*
X134746905Y-103697857D02*
X134699286Y-103793095D01*
X134699286Y-103793095D02*
X134699286Y-104031190D01*
X134699286Y-104031190D02*
X134746905Y-104126428D01*
X134746905Y-104126428D02*
X134794524Y-104174047D01*
X134794524Y-104174047D02*
X134889762Y-104221666D01*
X134889762Y-104221666D02*
X135080238Y-104221666D01*
X135080238Y-104221666D02*
X135175476Y-104174047D01*
X135175476Y-104174047D02*
X135223095Y-104126428D01*
X135223095Y-104126428D02*
X135270714Y-104031190D01*
X151862619Y-52895476D02*
X151862619Y-53371666D01*
X151862619Y-53371666D02*
X152338809Y-53419285D01*
X152338809Y-53419285D02*
X152291190Y-53371666D01*
X152291190Y-53371666D02*
X152243571Y-53276428D01*
X152243571Y-53276428D02*
X152243571Y-53038333D01*
X152243571Y-53038333D02*
X152291190Y-52943095D01*
X152291190Y-52943095D02*
X152338809Y-52895476D01*
X152338809Y-52895476D02*
X152434047Y-52847857D01*
X152434047Y-52847857D02*
X152672142Y-52847857D01*
X152672142Y-52847857D02*
X152767380Y-52895476D01*
X152767380Y-52895476D02*
X152815000Y-52943095D01*
X152815000Y-52943095D02*
X152862619Y-53038333D01*
X152862619Y-53038333D02*
X152862619Y-53276428D01*
X152862619Y-53276428D02*
X152815000Y-53371666D01*
X152815000Y-53371666D02*
X152767380Y-53419285D01*
X151862619Y-52562142D02*
X152862619Y-52228809D01*
X152862619Y-52228809D02*
X151862619Y-51895476D01*
D12*
X136826666Y-53012619D02*
X136826666Y-53726904D01*
X136826666Y-53726904D02*
X136779047Y-53869761D01*
X136779047Y-53869761D02*
X136683809Y-53965000D01*
X136683809Y-53965000D02*
X136540952Y-54012619D01*
X136540952Y-54012619D02*
X136445714Y-54012619D01*
X137731428Y-53345952D02*
X137731428Y-54012619D01*
X137493333Y-52965000D02*
X137255238Y-53679285D01*
X137255238Y-53679285D02*
X137874285Y-53679285D01*
X164766666Y-53012619D02*
X164766666Y-53726904D01*
X164766666Y-53726904D02*
X164719047Y-53869761D01*
X164719047Y-53869761D02*
X164623809Y-53965000D01*
X164623809Y-53965000D02*
X164480952Y-54012619D01*
X164480952Y-54012619D02*
X164385714Y-54012619D01*
X165719047Y-53012619D02*
X165242857Y-53012619D01*
X165242857Y-53012619D02*
X165195238Y-53488809D01*
X165195238Y-53488809D02*
X165242857Y-53441190D01*
X165242857Y-53441190D02*
X165338095Y-53393571D01*
X165338095Y-53393571D02*
X165576190Y-53393571D01*
X165576190Y-53393571D02*
X165671428Y-53441190D01*
X165671428Y-53441190D02*
X165719047Y-53488809D01*
X165719047Y-53488809D02*
X165766666Y-53584047D01*
X165766666Y-53584047D02*
X165766666Y-53822142D01*
X165766666Y-53822142D02*
X165719047Y-53917380D01*
X165719047Y-53917380D02*
X165671428Y-53965000D01*
X165671428Y-53965000D02*
X165576190Y-54012619D01*
X165576190Y-54012619D02*
X165338095Y-54012619D01*
X165338095Y-54012619D02*
X165242857Y-53965000D01*
X165242857Y-53965000D02*
X165195238Y-53917380D01*
X149098095Y-64105619D02*
X149098095Y-64915142D01*
X149098095Y-64915142D02*
X149145714Y-65010380D01*
X149145714Y-65010380D02*
X149193333Y-65058000D01*
X149193333Y-65058000D02*
X149288571Y-65105619D01*
X149288571Y-65105619D02*
X149479047Y-65105619D01*
X149479047Y-65105619D02*
X149574285Y-65058000D01*
X149574285Y-65058000D02*
X149621904Y-65010380D01*
X149621904Y-65010380D02*
X149669523Y-64915142D01*
X149669523Y-64915142D02*
X149669523Y-64105619D01*
X150098095Y-64200857D02*
X150145714Y-64153238D01*
X150145714Y-64153238D02*
X150240952Y-64105619D01*
X150240952Y-64105619D02*
X150479047Y-64105619D01*
X150479047Y-64105619D02*
X150574285Y-64153238D01*
X150574285Y-64153238D02*
X150621904Y-64200857D01*
X150621904Y-64200857D02*
X150669523Y-64296095D01*
X150669523Y-64296095D02*
X150669523Y-64391333D01*
X150669523Y-64391333D02*
X150621904Y-64534190D01*
X150621904Y-64534190D02*
X150050476Y-65105619D01*
X150050476Y-65105619D02*
X150669523Y-65105619D01*
X145946905Y-63962619D02*
X145946905Y-62962619D01*
X145946905Y-62962619D02*
X146185000Y-62962619D01*
X146185000Y-62962619D02*
X146327857Y-63010238D01*
X146327857Y-63010238D02*
X146423095Y-63105476D01*
X146423095Y-63105476D02*
X146470714Y-63200714D01*
X146470714Y-63200714D02*
X146518333Y-63391190D01*
X146518333Y-63391190D02*
X146518333Y-63534047D01*
X146518333Y-63534047D02*
X146470714Y-63724523D01*
X146470714Y-63724523D02*
X146423095Y-63819761D01*
X146423095Y-63819761D02*
X146327857Y-63915000D01*
X146327857Y-63915000D02*
X146185000Y-63962619D01*
X146185000Y-63962619D02*
X145946905Y-63962619D01*
X147470714Y-63962619D02*
X146899286Y-63962619D01*
X147185000Y-63962619D02*
X147185000Y-62962619D01*
X147185000Y-62962619D02*
X147089762Y-63105476D01*
X147089762Y-63105476D02*
X146994524Y-63200714D01*
X146994524Y-63200714D02*
X146899286Y-63248333D01*
X145946905Y-61422619D02*
X145946905Y-60422619D01*
X145946905Y-60422619D02*
X146185000Y-60422619D01*
X146185000Y-60422619D02*
X146327857Y-60470238D01*
X146327857Y-60470238D02*
X146423095Y-60565476D01*
X146423095Y-60565476D02*
X146470714Y-60660714D01*
X146470714Y-60660714D02*
X146518333Y-60851190D01*
X146518333Y-60851190D02*
X146518333Y-60994047D01*
X146518333Y-60994047D02*
X146470714Y-61184523D01*
X146470714Y-61184523D02*
X146423095Y-61279761D01*
X146423095Y-61279761D02*
X146327857Y-61375000D01*
X146327857Y-61375000D02*
X146185000Y-61422619D01*
X146185000Y-61422619D02*
X145946905Y-61422619D01*
X146899286Y-60517857D02*
X146946905Y-60470238D01*
X146946905Y-60470238D02*
X147042143Y-60422619D01*
X147042143Y-60422619D02*
X147280238Y-60422619D01*
X147280238Y-60422619D02*
X147375476Y-60470238D01*
X147375476Y-60470238D02*
X147423095Y-60517857D01*
X147423095Y-60517857D02*
X147470714Y-60613095D01*
X147470714Y-60613095D02*
X147470714Y-60708333D01*
X147470714Y-60708333D02*
X147423095Y-60851190D01*
X147423095Y-60851190D02*
X146851667Y-61422619D01*
X146851667Y-61422619D02*
X147470714Y-61422619D01*
X164352619Y-56213333D02*
X165066904Y-56213333D01*
X165066904Y-56213333D02*
X165209761Y-56260952D01*
X165209761Y-56260952D02*
X165305000Y-56356190D01*
X165305000Y-56356190D02*
X165352619Y-56499047D01*
X165352619Y-56499047D02*
X165352619Y-56594285D01*
X164352619Y-55832380D02*
X164352619Y-55213333D01*
X164352619Y-55213333D02*
X164733571Y-55546666D01*
X164733571Y-55546666D02*
X164733571Y-55403809D01*
X164733571Y-55403809D02*
X164781190Y-55308571D01*
X164781190Y-55308571D02*
X164828809Y-55260952D01*
X164828809Y-55260952D02*
X164924047Y-55213333D01*
X164924047Y-55213333D02*
X165162142Y-55213333D01*
X165162142Y-55213333D02*
X165257380Y-55260952D01*
X165257380Y-55260952D02*
X165305000Y-55308571D01*
X165305000Y-55308571D02*
X165352619Y-55403809D01*
X165352619Y-55403809D02*
X165352619Y-55689523D01*
X165352619Y-55689523D02*
X165305000Y-55784761D01*
X165305000Y-55784761D02*
X165257380Y-55832380D01*
X162226666Y-58092619D02*
X162226666Y-58806904D01*
X162226666Y-58806904D02*
X162179047Y-58949761D01*
X162179047Y-58949761D02*
X162083809Y-59045000D01*
X162083809Y-59045000D02*
X161940952Y-59092619D01*
X161940952Y-59092619D02*
X161845714Y-59092619D01*
X162607619Y-58092619D02*
X163274285Y-58092619D01*
X163274285Y-58092619D02*
X162845714Y-59092619D01*
X139366666Y-58092619D02*
X139366666Y-58806904D01*
X139366666Y-58806904D02*
X139319047Y-58949761D01*
X139319047Y-58949761D02*
X139223809Y-59045000D01*
X139223809Y-59045000D02*
X139080952Y-59092619D01*
X139080952Y-59092619D02*
X138985714Y-59092619D01*
X140271428Y-58092619D02*
X140080952Y-58092619D01*
X140080952Y-58092619D02*
X139985714Y-58140238D01*
X139985714Y-58140238D02*
X139938095Y-58187857D01*
X139938095Y-58187857D02*
X139842857Y-58330714D01*
X139842857Y-58330714D02*
X139795238Y-58521190D01*
X139795238Y-58521190D02*
X139795238Y-58902142D01*
X139795238Y-58902142D02*
X139842857Y-58997380D01*
X139842857Y-58997380D02*
X139890476Y-59045000D01*
X139890476Y-59045000D02*
X139985714Y-59092619D01*
X139985714Y-59092619D02*
X140176190Y-59092619D01*
X140176190Y-59092619D02*
X140271428Y-59045000D01*
X140271428Y-59045000D02*
X140319047Y-58997380D01*
X140319047Y-58997380D02*
X140366666Y-58902142D01*
X140366666Y-58902142D02*
X140366666Y-58664047D01*
X140366666Y-58664047D02*
X140319047Y-58568809D01*
X140319047Y-58568809D02*
X140271428Y-58521190D01*
X140271428Y-58521190D02*
X140176190Y-58473571D01*
X140176190Y-58473571D02*
X139985714Y-58473571D01*
X139985714Y-58473571D02*
X139890476Y-58521190D01*
X139890476Y-58521190D02*
X139842857Y-58568809D01*
X139842857Y-58568809D02*
X139795238Y-58664047D01*
X146518333Y-71582619D02*
X146185000Y-71106428D01*
X145946905Y-71582619D02*
X145946905Y-70582619D01*
X145946905Y-70582619D02*
X146327857Y-70582619D01*
X146327857Y-70582619D02*
X146423095Y-70630238D01*
X146423095Y-70630238D02*
X146470714Y-70677857D01*
X146470714Y-70677857D02*
X146518333Y-70773095D01*
X146518333Y-70773095D02*
X146518333Y-70915952D01*
X146518333Y-70915952D02*
X146470714Y-71011190D01*
X146470714Y-71011190D02*
X146423095Y-71058809D01*
X146423095Y-71058809D02*
X146327857Y-71106428D01*
X146327857Y-71106428D02*
X145946905Y-71106428D01*
X146899286Y-70677857D02*
X146946905Y-70630238D01*
X146946905Y-70630238D02*
X147042143Y-70582619D01*
X147042143Y-70582619D02*
X147280238Y-70582619D01*
X147280238Y-70582619D02*
X147375476Y-70630238D01*
X147375476Y-70630238D02*
X147423095Y-70677857D01*
X147423095Y-70677857D02*
X147470714Y-70773095D01*
X147470714Y-70773095D02*
X147470714Y-70868333D01*
X147470714Y-70868333D02*
X147423095Y-71011190D01*
X147423095Y-71011190D02*
X146851667Y-71582619D01*
X146851667Y-71582619D02*
X147470714Y-71582619D01*
X146042142Y-74027380D02*
X145994523Y-74075000D01*
X145994523Y-74075000D02*
X145851666Y-74122619D01*
X145851666Y-74122619D02*
X145756428Y-74122619D01*
X145756428Y-74122619D02*
X145613571Y-74075000D01*
X145613571Y-74075000D02*
X145518333Y-73979761D01*
X145518333Y-73979761D02*
X145470714Y-73884523D01*
X145470714Y-73884523D02*
X145423095Y-73694047D01*
X145423095Y-73694047D02*
X145423095Y-73551190D01*
X145423095Y-73551190D02*
X145470714Y-73360714D01*
X145470714Y-73360714D02*
X145518333Y-73265476D01*
X145518333Y-73265476D02*
X145613571Y-73170238D01*
X145613571Y-73170238D02*
X145756428Y-73122619D01*
X145756428Y-73122619D02*
X145851666Y-73122619D01*
X145851666Y-73122619D02*
X145994523Y-73170238D01*
X145994523Y-73170238D02*
X146042142Y-73217857D01*
X146994523Y-74122619D02*
X146423095Y-74122619D01*
X146708809Y-74122619D02*
X146708809Y-73122619D01*
X146708809Y-73122619D02*
X146613571Y-73265476D01*
X146613571Y-73265476D02*
X146518333Y-73360714D01*
X146518333Y-73360714D02*
X146423095Y-73408333D01*
X147327857Y-73122619D02*
X147946904Y-73122619D01*
X147946904Y-73122619D02*
X147613571Y-73503571D01*
X147613571Y-73503571D02*
X147756428Y-73503571D01*
X147756428Y-73503571D02*
X147851666Y-73551190D01*
X147851666Y-73551190D02*
X147899285Y-73598809D01*
X147899285Y-73598809D02*
X147946904Y-73694047D01*
X147946904Y-73694047D02*
X147946904Y-73932142D01*
X147946904Y-73932142D02*
X147899285Y-74027380D01*
X147899285Y-74027380D02*
X147851666Y-74075000D01*
X147851666Y-74075000D02*
X147756428Y-74122619D01*
X147756428Y-74122619D02*
X147470714Y-74122619D01*
X147470714Y-74122619D02*
X147375476Y-74075000D01*
X147375476Y-74075000D02*
X147327857Y-74027380D01*
X151437619Y-60658333D02*
X152151904Y-60658333D01*
X152151904Y-60658333D02*
X152294761Y-60705952D01*
X152294761Y-60705952D02*
X152390000Y-60801190D01*
X152390000Y-60801190D02*
X152437619Y-60944047D01*
X152437619Y-60944047D02*
X152437619Y-61039285D01*
X151532857Y-60229761D02*
X151485238Y-60182142D01*
X151485238Y-60182142D02*
X151437619Y-60086904D01*
X151437619Y-60086904D02*
X151437619Y-59848809D01*
X151437619Y-59848809D02*
X151485238Y-59753571D01*
X151485238Y-59753571D02*
X151532857Y-59705952D01*
X151532857Y-59705952D02*
X151628095Y-59658333D01*
X151628095Y-59658333D02*
X151723333Y-59658333D01*
X151723333Y-59658333D02*
X151866190Y-59705952D01*
X151866190Y-59705952D02*
X152437619Y-60277380D01*
X152437619Y-60277380D02*
X152437619Y-59658333D01*
X155301667Y-64955000D02*
X155444524Y-65002619D01*
X155444524Y-65002619D02*
X155682619Y-65002619D01*
X155682619Y-65002619D02*
X155777857Y-64955000D01*
X155777857Y-64955000D02*
X155825476Y-64907380D01*
X155825476Y-64907380D02*
X155873095Y-64812142D01*
X155873095Y-64812142D02*
X155873095Y-64716904D01*
X155873095Y-64716904D02*
X155825476Y-64621666D01*
X155825476Y-64621666D02*
X155777857Y-64574047D01*
X155777857Y-64574047D02*
X155682619Y-64526428D01*
X155682619Y-64526428D02*
X155492143Y-64478809D01*
X155492143Y-64478809D02*
X155396905Y-64431190D01*
X155396905Y-64431190D02*
X155349286Y-64383571D01*
X155349286Y-64383571D02*
X155301667Y-64288333D01*
X155301667Y-64288333D02*
X155301667Y-64193095D01*
X155301667Y-64193095D02*
X155349286Y-64097857D01*
X155349286Y-64097857D02*
X155396905Y-64050238D01*
X155396905Y-64050238D02*
X155492143Y-64002619D01*
X155492143Y-64002619D02*
X155730238Y-64002619D01*
X155730238Y-64002619D02*
X155873095Y-64050238D01*
X156206429Y-64002619D02*
X156444524Y-65002619D01*
X156444524Y-65002619D02*
X156635000Y-64288333D01*
X156635000Y-64288333D02*
X156825476Y-65002619D01*
X156825476Y-65002619D02*
X157063572Y-64002619D01*
X157968333Y-65002619D02*
X157396905Y-65002619D01*
X157682619Y-65002619D02*
X157682619Y-64002619D01*
X157682619Y-64002619D02*
X157587381Y-64145476D01*
X157587381Y-64145476D02*
X157492143Y-64240714D01*
X157492143Y-64240714D02*
X157396905Y-64288333D01*
X146042142Y-68947380D02*
X145994523Y-68995000D01*
X145994523Y-68995000D02*
X145851666Y-69042619D01*
X145851666Y-69042619D02*
X145756428Y-69042619D01*
X145756428Y-69042619D02*
X145613571Y-68995000D01*
X145613571Y-68995000D02*
X145518333Y-68899761D01*
X145518333Y-68899761D02*
X145470714Y-68804523D01*
X145470714Y-68804523D02*
X145423095Y-68614047D01*
X145423095Y-68614047D02*
X145423095Y-68471190D01*
X145423095Y-68471190D02*
X145470714Y-68280714D01*
X145470714Y-68280714D02*
X145518333Y-68185476D01*
X145518333Y-68185476D02*
X145613571Y-68090238D01*
X145613571Y-68090238D02*
X145756428Y-68042619D01*
X145756428Y-68042619D02*
X145851666Y-68042619D01*
X145851666Y-68042619D02*
X145994523Y-68090238D01*
X145994523Y-68090238D02*
X146042142Y-68137857D01*
X146994523Y-69042619D02*
X146423095Y-69042619D01*
X146708809Y-69042619D02*
X146708809Y-68042619D01*
X146708809Y-68042619D02*
X146613571Y-68185476D01*
X146613571Y-68185476D02*
X146518333Y-68280714D01*
X146518333Y-68280714D02*
X146423095Y-68328333D01*
X147899285Y-68042619D02*
X147423095Y-68042619D01*
X147423095Y-68042619D02*
X147375476Y-68518809D01*
X147375476Y-68518809D02*
X147423095Y-68471190D01*
X147423095Y-68471190D02*
X147518333Y-68423571D01*
X147518333Y-68423571D02*
X147756428Y-68423571D01*
X147756428Y-68423571D02*
X147851666Y-68471190D01*
X147851666Y-68471190D02*
X147899285Y-68518809D01*
X147899285Y-68518809D02*
X147946904Y-68614047D01*
X147946904Y-68614047D02*
X147946904Y-68852142D01*
X147946904Y-68852142D02*
X147899285Y-68947380D01*
X147899285Y-68947380D02*
X147851666Y-68995000D01*
X147851666Y-68995000D02*
X147756428Y-69042619D01*
X147756428Y-69042619D02*
X147518333Y-69042619D01*
X147518333Y-69042619D02*
X147423095Y-68995000D01*
X147423095Y-68995000D02*
X147375476Y-68947380D01*
X146042142Y-66407380D02*
X145994523Y-66455000D01*
X145994523Y-66455000D02*
X145851666Y-66502619D01*
X145851666Y-66502619D02*
X145756428Y-66502619D01*
X145756428Y-66502619D02*
X145613571Y-66455000D01*
X145613571Y-66455000D02*
X145518333Y-66359761D01*
X145518333Y-66359761D02*
X145470714Y-66264523D01*
X145470714Y-66264523D02*
X145423095Y-66074047D01*
X145423095Y-66074047D02*
X145423095Y-65931190D01*
X145423095Y-65931190D02*
X145470714Y-65740714D01*
X145470714Y-65740714D02*
X145518333Y-65645476D01*
X145518333Y-65645476D02*
X145613571Y-65550238D01*
X145613571Y-65550238D02*
X145756428Y-65502619D01*
X145756428Y-65502619D02*
X145851666Y-65502619D01*
X145851666Y-65502619D02*
X145994523Y-65550238D01*
X145994523Y-65550238D02*
X146042142Y-65597857D01*
X146994523Y-66502619D02*
X146423095Y-66502619D01*
X146708809Y-66502619D02*
X146708809Y-65502619D01*
X146708809Y-65502619D02*
X146613571Y-65645476D01*
X146613571Y-65645476D02*
X146518333Y-65740714D01*
X146518333Y-65740714D02*
X146423095Y-65788333D01*
X147851666Y-65835952D02*
X147851666Y-66502619D01*
X147613571Y-65455000D02*
X147375476Y-66169285D01*
X147375476Y-66169285D02*
X147994523Y-66169285D01*
X158250833Y-99427380D02*
X158203214Y-99475000D01*
X158203214Y-99475000D02*
X158060357Y-99522619D01*
X158060357Y-99522619D02*
X157965119Y-99522619D01*
X157965119Y-99522619D02*
X157822262Y-99475000D01*
X157822262Y-99475000D02*
X157727024Y-99379761D01*
X157727024Y-99379761D02*
X157679405Y-99284523D01*
X157679405Y-99284523D02*
X157631786Y-99094047D01*
X157631786Y-99094047D02*
X157631786Y-98951190D01*
X157631786Y-98951190D02*
X157679405Y-98760714D01*
X157679405Y-98760714D02*
X157727024Y-98665476D01*
X157727024Y-98665476D02*
X157822262Y-98570238D01*
X157822262Y-98570238D02*
X157965119Y-98522619D01*
X157965119Y-98522619D02*
X158060357Y-98522619D01*
X158060357Y-98522619D02*
X158203214Y-98570238D01*
X158203214Y-98570238D02*
X158250833Y-98617857D01*
X159107976Y-98855952D02*
X159107976Y-99522619D01*
X158869881Y-98475000D02*
X158631786Y-99189285D01*
X158631786Y-99189285D02*
X159250833Y-99189285D01*
X147687380Y-98591666D02*
X147735000Y-98639285D01*
X147735000Y-98639285D02*
X147782619Y-98782142D01*
X147782619Y-98782142D02*
X147782619Y-98877380D01*
X147782619Y-98877380D02*
X147735000Y-99020237D01*
X147735000Y-99020237D02*
X147639761Y-99115475D01*
X147639761Y-99115475D02*
X147544523Y-99163094D01*
X147544523Y-99163094D02*
X147354047Y-99210713D01*
X147354047Y-99210713D02*
X147211190Y-99210713D01*
X147211190Y-99210713D02*
X147020714Y-99163094D01*
X147020714Y-99163094D02*
X146925476Y-99115475D01*
X146925476Y-99115475D02*
X146830238Y-99020237D01*
X146830238Y-99020237D02*
X146782619Y-98877380D01*
X146782619Y-98877380D02*
X146782619Y-98782142D01*
X146782619Y-98782142D02*
X146830238Y-98639285D01*
X146830238Y-98639285D02*
X146877857Y-98591666D01*
X146782619Y-97734523D02*
X146782619Y-97924999D01*
X146782619Y-97924999D02*
X146830238Y-98020237D01*
X146830238Y-98020237D02*
X146877857Y-98067856D01*
X146877857Y-98067856D02*
X147020714Y-98163094D01*
X147020714Y-98163094D02*
X147211190Y-98210713D01*
X147211190Y-98210713D02*
X147592142Y-98210713D01*
X147592142Y-98210713D02*
X147687380Y-98163094D01*
X147687380Y-98163094D02*
X147735000Y-98115475D01*
X147735000Y-98115475D02*
X147782619Y-98020237D01*
X147782619Y-98020237D02*
X147782619Y-97829761D01*
X147782619Y-97829761D02*
X147735000Y-97734523D01*
X147735000Y-97734523D02*
X147687380Y-97686904D01*
X147687380Y-97686904D02*
X147592142Y-97639285D01*
X147592142Y-97639285D02*
X147354047Y-97639285D01*
X147354047Y-97639285D02*
X147258809Y-97686904D01*
X147258809Y-97686904D02*
X147211190Y-97734523D01*
X147211190Y-97734523D02*
X147163571Y-97829761D01*
X147163571Y-97829761D02*
X147163571Y-98020237D01*
X147163571Y-98020237D02*
X147211190Y-98115475D01*
X147211190Y-98115475D02*
X147258809Y-98163094D01*
X147258809Y-98163094D02*
X147354047Y-98210713D01*
X150227380Y-98591666D02*
X150275000Y-98639285D01*
X150275000Y-98639285D02*
X150322619Y-98782142D01*
X150322619Y-98782142D02*
X150322619Y-98877380D01*
X150322619Y-98877380D02*
X150275000Y-99020237D01*
X150275000Y-99020237D02*
X150179761Y-99115475D01*
X150179761Y-99115475D02*
X150084523Y-99163094D01*
X150084523Y-99163094D02*
X149894047Y-99210713D01*
X149894047Y-99210713D02*
X149751190Y-99210713D01*
X149751190Y-99210713D02*
X149560714Y-99163094D01*
X149560714Y-99163094D02*
X149465476Y-99115475D01*
X149465476Y-99115475D02*
X149370238Y-99020237D01*
X149370238Y-99020237D02*
X149322619Y-98877380D01*
X149322619Y-98877380D02*
X149322619Y-98782142D01*
X149322619Y-98782142D02*
X149370238Y-98639285D01*
X149370238Y-98639285D02*
X149417857Y-98591666D01*
X149751190Y-98020237D02*
X149703571Y-98115475D01*
X149703571Y-98115475D02*
X149655952Y-98163094D01*
X149655952Y-98163094D02*
X149560714Y-98210713D01*
X149560714Y-98210713D02*
X149513095Y-98210713D01*
X149513095Y-98210713D02*
X149417857Y-98163094D01*
X149417857Y-98163094D02*
X149370238Y-98115475D01*
X149370238Y-98115475D02*
X149322619Y-98020237D01*
X149322619Y-98020237D02*
X149322619Y-97829761D01*
X149322619Y-97829761D02*
X149370238Y-97734523D01*
X149370238Y-97734523D02*
X149417857Y-97686904D01*
X149417857Y-97686904D02*
X149513095Y-97639285D01*
X149513095Y-97639285D02*
X149560714Y-97639285D01*
X149560714Y-97639285D02*
X149655952Y-97686904D01*
X149655952Y-97686904D02*
X149703571Y-97734523D01*
X149703571Y-97734523D02*
X149751190Y-97829761D01*
X149751190Y-97829761D02*
X149751190Y-98020237D01*
X149751190Y-98020237D02*
X149798809Y-98115475D01*
X149798809Y-98115475D02*
X149846428Y-98163094D01*
X149846428Y-98163094D02*
X149941666Y-98210713D01*
X149941666Y-98210713D02*
X150132142Y-98210713D01*
X150132142Y-98210713D02*
X150227380Y-98163094D01*
X150227380Y-98163094D02*
X150275000Y-98115475D01*
X150275000Y-98115475D02*
X150322619Y-98020237D01*
X150322619Y-98020237D02*
X150322619Y-97829761D01*
X150322619Y-97829761D02*
X150275000Y-97734523D01*
X150275000Y-97734523D02*
X150227380Y-97686904D01*
X150227380Y-97686904D02*
X150132142Y-97639285D01*
X150132142Y-97639285D02*
X149941666Y-97639285D01*
X149941666Y-97639285D02*
X149846428Y-97686904D01*
X149846428Y-97686904D02*
X149798809Y-97734523D01*
X149798809Y-97734523D02*
X149751190Y-97829761D01*
X153678833Y-99427380D02*
X153631214Y-99475000D01*
X153631214Y-99475000D02*
X153488357Y-99522619D01*
X153488357Y-99522619D02*
X153393119Y-99522619D01*
X153393119Y-99522619D02*
X153250262Y-99475000D01*
X153250262Y-99475000D02*
X153155024Y-99379761D01*
X153155024Y-99379761D02*
X153107405Y-99284523D01*
X153107405Y-99284523D02*
X153059786Y-99094047D01*
X153059786Y-99094047D02*
X153059786Y-98951190D01*
X153059786Y-98951190D02*
X153107405Y-98760714D01*
X153107405Y-98760714D02*
X153155024Y-98665476D01*
X153155024Y-98665476D02*
X153250262Y-98570238D01*
X153250262Y-98570238D02*
X153393119Y-98522619D01*
X153393119Y-98522619D02*
X153488357Y-98522619D01*
X153488357Y-98522619D02*
X153631214Y-98570238D01*
X153631214Y-98570238D02*
X153678833Y-98617857D01*
X154059786Y-98617857D02*
X154107405Y-98570238D01*
X154107405Y-98570238D02*
X154202643Y-98522619D01*
X154202643Y-98522619D02*
X154440738Y-98522619D01*
X154440738Y-98522619D02*
X154535976Y-98570238D01*
X154535976Y-98570238D02*
X154583595Y-98617857D01*
X154583595Y-98617857D02*
X154631214Y-98713095D01*
X154631214Y-98713095D02*
X154631214Y-98808333D01*
X154631214Y-98808333D02*
X154583595Y-98951190D01*
X154583595Y-98951190D02*
X154012167Y-99522619D01*
X154012167Y-99522619D02*
X154631214Y-99522619D01*
X148113809Y-90111428D02*
X148113809Y-90587619D01*
X147780476Y-89587619D02*
X148113809Y-90111428D01*
X148113809Y-90111428D02*
X148447142Y-89587619D01*
X148732857Y-89682857D02*
X148780476Y-89635238D01*
X148780476Y-89635238D02*
X148875714Y-89587619D01*
X148875714Y-89587619D02*
X149113809Y-89587619D01*
X149113809Y-89587619D02*
X149209047Y-89635238D01*
X149209047Y-89635238D02*
X149256666Y-89682857D01*
X149256666Y-89682857D02*
X149304285Y-89778095D01*
X149304285Y-89778095D02*
X149304285Y-89873333D01*
X149304285Y-89873333D02*
X149256666Y-90016190D01*
X149256666Y-90016190D02*
X148685238Y-90587619D01*
X148685238Y-90587619D02*
X149304285Y-90587619D01*
X155673809Y-91166428D02*
X155673809Y-91642619D01*
X155340476Y-90642619D02*
X155673809Y-91166428D01*
X155673809Y-91166428D02*
X156007142Y-90642619D01*
X156864285Y-91642619D02*
X156292857Y-91642619D01*
X156578571Y-91642619D02*
X156578571Y-90642619D01*
X156578571Y-90642619D02*
X156483333Y-90785476D01*
X156483333Y-90785476D02*
X156388095Y-90880714D01*
X156388095Y-90880714D02*
X156292857Y-90928333D01*
X144446666Y-57572619D02*
X144446666Y-58286904D01*
X144446666Y-58286904D02*
X144399047Y-58429761D01*
X144399047Y-58429761D02*
X144303809Y-58525000D01*
X144303809Y-58525000D02*
X144160952Y-58572619D01*
X144160952Y-58572619D02*
X144065714Y-58572619D01*
X145446666Y-58572619D02*
X144875238Y-58572619D01*
X145160952Y-58572619D02*
X145160952Y-57572619D01*
X145160952Y-57572619D02*
X145065714Y-57715476D01*
X145065714Y-57715476D02*
X144970476Y-57810714D01*
X144970476Y-57810714D02*
X144875238Y-57858333D01*
X147072619Y-85756904D02*
X147882142Y-85756904D01*
X147882142Y-85756904D02*
X147977380Y-85709285D01*
X147977380Y-85709285D02*
X148025000Y-85661666D01*
X148025000Y-85661666D02*
X148072619Y-85566428D01*
X148072619Y-85566428D02*
X148072619Y-85375952D01*
X148072619Y-85375952D02*
X148025000Y-85280714D01*
X148025000Y-85280714D02*
X147977380Y-85233095D01*
X147977380Y-85233095D02*
X147882142Y-85185476D01*
X147882142Y-85185476D02*
X147072619Y-85185476D01*
X148072619Y-84185476D02*
X148072619Y-84756904D01*
X148072619Y-84471190D02*
X147072619Y-84471190D01*
X147072619Y-84471190D02*
X147215476Y-84566428D01*
X147215476Y-84566428D02*
X147310714Y-84661666D01*
X147310714Y-84661666D02*
X147358333Y-84756904D01*
D13*
X135830000Y-54550000D02*
X137160000Y-54550000D01*
X135830000Y-55880000D02*
X135830000Y-54550000D01*
X135830000Y-57150000D02*
X135830000Y-105470000D01*
X135830000Y-57150000D02*
X138490000Y-57150000D01*
X135830000Y-105470000D02*
X138490000Y-105470000D01*
X138490000Y-57150000D02*
X138490000Y-105470000D01*
X163770000Y-54550000D02*
X165100000Y-54550000D01*
X163770000Y-55880000D02*
X163770000Y-54550000D01*
X163770000Y-57150000D02*
X163770000Y-105470000D01*
X163770000Y-57150000D02*
X166430000Y-57150000D01*
X163770000Y-105470000D02*
X166430000Y-105470000D01*
X166430000Y-57150000D02*
X166430000Y-105470000D01*
X148092000Y-61200000D02*
X148092000Y-63360000D01*
X148092000Y-61200000D02*
X149022000Y-61200000D01*
X151252000Y-61200000D02*
X151252000Y-62660000D01*
X151252000Y-61200000D02*
X150322000Y-61200000D01*
X142157000Y-62540000D02*
X142157000Y-64460000D01*
X142157000Y-64460000D02*
X144842000Y-64460000D01*
X144842000Y-62540000D02*
X142157000Y-62540000D01*
X142157000Y-60000000D02*
X142157000Y-61920000D01*
X142157000Y-61920000D02*
X144842000Y-61920000D01*
X144842000Y-60000000D02*
X142157000Y-60000000D01*
X163890000Y-54550000D02*
X163890000Y-55880000D01*
X162560000Y-54550000D02*
X163890000Y-54550000D01*
X161290000Y-54550000D02*
X151070000Y-54550000D01*
X161290000Y-54550000D02*
X161290000Y-57210000D01*
X151070000Y-54550000D02*
X151070000Y-57210000D01*
X161290000Y-57210000D02*
X151070000Y-57210000D01*
X161230000Y-59630000D02*
X162560000Y-59630000D01*
X161230000Y-60960000D02*
X161230000Y-59630000D01*
X161230000Y-62230000D02*
X161230000Y-64830000D01*
X161230000Y-62230000D02*
X163890000Y-62230000D01*
X161230000Y-64830000D02*
X163890000Y-64830000D01*
X163890000Y-62230000D02*
X163890000Y-64830000D01*
X138370000Y-59630000D02*
X139700000Y-59630000D01*
X138370000Y-60960000D02*
X138370000Y-59630000D01*
X138370000Y-62230000D02*
X138370000Y-64830000D01*
X138370000Y-62230000D02*
X141030000Y-62230000D01*
X138370000Y-64830000D02*
X141030000Y-64830000D01*
X141030000Y-62230000D02*
X141030000Y-64830000D01*
X143583422Y-70410000D02*
X144100578Y-70410000D01*
X143583422Y-71830000D02*
X144100578Y-71830000D01*
X143583422Y-72950000D02*
X144100578Y-72950000D01*
X143583422Y-74370000D02*
X144100578Y-74370000D01*
X152910000Y-62090000D02*
X152910000Y-60960000D01*
X153670000Y-62090000D02*
X152910000Y-62090000D01*
X154430000Y-62090000D02*
X159445000Y-62090000D01*
X154430000Y-62090000D02*
X154430000Y-61523471D01*
X159445000Y-62090000D02*
X159445000Y-61267530D01*
X159445000Y-60652470D02*
X159445000Y-59997530D01*
X154430000Y-60396529D02*
X154430000Y-60253471D01*
X152975000Y-60200000D02*
X152975000Y-59997530D01*
X153106529Y-60200000D02*
X152975000Y-60200000D01*
X154376529Y-60200000D02*
X154233471Y-60200000D01*
X152975000Y-59382470D02*
X152975000Y-58560000D01*
X159445000Y-59382470D02*
X159445000Y-58560000D01*
X152975000Y-58560000D02*
X159445000Y-58560000D01*
D12*
X158635000Y-69540000D02*
X154635000Y-69540000D01*
X158635000Y-65540000D02*
X158635000Y-69540000D01*
X154635000Y-69540000D02*
X154635000Y-65540000D01*
X154635000Y-65540000D02*
X158635000Y-65540000D01*
X157635000Y-67540000D02*
G75*
G03*
X157635000Y-67540000I-1000000J0D01*
G01*
D13*
X144100578Y-69290000D02*
X143583422Y-69290000D01*
X144100578Y-67870000D02*
X143583422Y-67870000D01*
X144100578Y-66750000D02*
X143583422Y-66750000D01*
X144100578Y-65330000D02*
X143583422Y-65330000D01*
X158676078Y-97865000D02*
X158158922Y-97865000D01*
X158676078Y-96445000D02*
X158158922Y-96445000D01*
X148030000Y-95293922D02*
X148030000Y-95811078D01*
X146610000Y-95293922D02*
X146610000Y-95811078D01*
X150570000Y-95293922D02*
X150570000Y-95811078D01*
X149150000Y-95293922D02*
X149150000Y-95811078D01*
X153586922Y-96445000D02*
X154104078Y-96445000D01*
X153586922Y-97865000D02*
X154104078Y-97865000D01*
X146640000Y-91175000D02*
X146640000Y-92975000D01*
X148040000Y-91125000D02*
X149140000Y-91125000D01*
X148040000Y-93025000D02*
X149140000Y-93025000D01*
X153100000Y-92180000D02*
X153100000Y-95780000D01*
X153100000Y-95780000D02*
X158850000Y-95780000D01*
X158850000Y-92180000D02*
X153100000Y-92180000D01*
D12*
X148930000Y-55260000D02*
X148930000Y-53860000D01*
X148930000Y-51460000D02*
X148930000Y-51310000D01*
X148930000Y-51310000D02*
X148630000Y-51310000D01*
X148630000Y-51310000D02*
X148630000Y-50860000D01*
X146580000Y-57435000D02*
X146580000Y-57010000D01*
X146580000Y-57010000D02*
X147580000Y-57010000D01*
X145855000Y-57435000D02*
X146580000Y-57435000D01*
X142980000Y-57010000D02*
X141980000Y-57010000D01*
X140930000Y-51310000D02*
X140630000Y-51310000D01*
X140930000Y-50860000D02*
X140930000Y-51310000D01*
X140630000Y-53860000D02*
X140630000Y-55260000D01*
X140630000Y-51310000D02*
X140630000Y-51460000D01*
D13*
X149850000Y-88605000D02*
X150300000Y-88605000D01*
X150300000Y-88605000D02*
X150300000Y-89895000D01*
X157070000Y-88605000D02*
X156620000Y-88605000D01*
X149850000Y-88155000D02*
X149850000Y-88605000D01*
X157070000Y-88155000D02*
X157070000Y-88605000D01*
X149850000Y-81835000D02*
X149850000Y-81385000D01*
X157070000Y-81835000D02*
X157070000Y-81385000D01*
X149850000Y-81385000D02*
X150300000Y-81385000D01*
X157070000Y-81385000D02*
X156620000Y-81385000D01*
M02*
